<svg width="24" height="24" viewBox="0 0 24 24" fill="none" xmlns="http://www.w3.org/2000/svg">
<g clip-path="url(#clip0_195_9190)">
<path d="M17.0455 4.93621L9.9817 12L17.0455 19.0638C17.1151 19.1334 17.1761 19.2086 17.2284 19.2877C17.594 19.8416 17.5331 20.5943 17.0455 21.0821C16.4882 21.6393 15.5846 21.6393 15.0272 21.0821L6.95436 13.0091C6.92091 12.9757 6.88928 12.9407 6.85956 12.9044C6.65149 12.6505 6.53638 12.3312 6.53638 12C6.53638 11.6215 6.68673 11.2586 6.95436 10.9908L15.0272 2.91798C15.5846 2.36067 16.4882 2.36067 17.0455 2.91798C17.1151 2.98765 17.1761 3.06273 17.2284 3.14186C17.594 3.69579 17.5331 4.44856 17.0455 4.93621Z" fill="#1E1E1E"/>
</g>
<defs>
<clipPath id="clip0_195_9190">
<rect width="24" height="24" fill="white"/>
</clipPath>
</defs>
</svg>
