<svg viewBox="0 0 24 24" fill="none" xmlns="http://www.w3.org/2000/svg"><g id="SVGRepo_bgCarrier" stroke-width="0"></g><g id="SVGRepo_tracerCarrier" stroke-linecap="round" stroke-linejoin="round"></g><g id="SVGRepo_iconCarrier"> <path opacity="0.1" d="M21 12C21 16.9706 16.9706 21 12 21C7.02944 21 3 16.9706 3 12C3 7.02944 7.02944 3 12 3C16.9706 3 21 7.02944 21 12Z" fill="#32a16b"></path> <path d="M12.0049 16.005L12.0049 15.995" stroke="#32a16b" stroke-width="2" stroke-linecap="round" stroke-linejoin="round"></path> <path d="M12.0049 12.005L12.0049 11.995" stroke="#32a16b" stroke-width="2" stroke-linecap="round" stroke-linejoin="round"></path> <path d="M12.0049 8.005L12.0049 7.995" stroke="#32a16b" stroke-width="2" stroke-linecap="round" stroke-linejoin="round"></path> <path d="M21 12C21 16.9706 16.9706 21 12 21C7.02944 21 3 16.9706 3 12C3 7.02944 7.02944 3 12 3C16.9706 3 21 7.02944 21 12Z" stroke="#32a16b" stroke-width="2"></path> </g></svg>