<svg width="24" height="24" viewBox="0 0 24 24" fill="none" xmlns="http://www.w3.org/2000/svg">
<path d="M12.0174 3.86811C9.05623 3.86811 6.64974 6.27461 6.64974 9.23576V11.8212C6.64974 12.3669 6.41714 13.1989 6.13981 13.6641L5.11101 15.3728C4.47584 16.4284 4.9142 17.6003 6.07719 17.994C9.93295 19.2822 14.0929 19.2822 17.9487 17.994C19.0311 17.6361 19.5053 16.3568 18.9148 15.3728L17.886 13.6641C17.6177 13.1989 17.3851 12.3669 17.3851 11.8212V9.23576C17.3851 6.28355 14.9696 3.86811 12.0174 3.86811Z" stroke="#8F8F8F" stroke-width="1.34191" stroke-miterlimit="10" stroke-linecap="round"/>
<path d="M13.6725 4.12707C13.3952 4.04655 13.1089 3.98393 12.8137 3.94815C11.9549 3.84079 11.1319 3.90342 10.3625 4.12707C10.6219 3.46506 11.266 2.99986 12.0175 2.99986C12.769 2.99986 13.4131 3.46506 13.6725 4.12707Z" stroke="#8F8F8F" stroke-width="1.34191" stroke-miterlimit="10" stroke-linecap="round" stroke-linejoin="round"/>
<path d="M14.7013 18.3161C14.7013 19.7922 13.4936 20.9999 12.0175 20.9999C11.2839 20.9999 10.604 20.6958 10.1209 20.2127C9.63785 19.7296 9.33368 19.0497 9.33368 18.3161" stroke="#8F8F8F" stroke-width="1.34191" stroke-miterlimit="10"/>
</svg>
