<svg viewBox="0 0 24 24" fill="none" xmlns="http://www.w3.org/2000/svg"><g id="SVGRepo_bgCarrier" stroke-width="0"></g><g id="SVGRepo_tracerCarrier" stroke-linecap="round" stroke-linejoin="round"></g><g id="SVGRepo_iconCarrier"> <path fill-rule="evenodd" clip-rule="evenodd" d="M6.64025 12.3374L5.63993 15.6449C5.39657 16.4496 4.65505 17 3.8144 17C3.36462 17 3 17.3646 3 17.8144V20C3 20.5523 3.44772 21 4 21H10.0563C10.5245 21 10.9301 20.6751 11.0322 20.2182L11.4794 18.2182C11.6191 17.5933 11.1437 17 10.5035 17H9.4517C8.14995 17 7.1959 15.7762 7.51157 14.5143C7.72499 13.6612 7.35552 12.7891 6.64025 12.3374ZM4.89177 11.21C5.13885 10.393 6.01688 9.94655 6.82258 10.2282L6.89163 10.2524C8.84403 10.935 9.95356 12.9938 9.45178 14.9997L10.5035 15C12.4243 15 13.8503 16.78 13.4312 18.6546L12.984 20.6546C12.6776 22.0254 11.461 23 10.0563 23H4C2.34315 23 1 21.6569 1 20V17.8144C1 16.2832 2.22285 15.0375 3.74526 15.0008L4.89177 11.21Z" fill="#32a16b"></path> <path fill-rule="evenodd" clip-rule="evenodd" d="M17.3598 11.6626L18.3601 8.35509C18.6034 7.55043 19.3449 7 20.1856 7C20.6354 7 21 6.63538 21 6.1856V4C21 3.44772 20.5523 3 20 3L13.9437 3C13.4755 3 13.0699 3.32488 12.9678 3.78181L12.5206 5.78181C12.3809 6.40666 12.8563 7 13.4965 7H14.5483C15.85 7 16.8041 8.22379 16.4884 9.48568C16.275 10.3388 16.6445 11.2109 17.3598 11.6626ZM19.1082 12.79C18.8611 13.607 17.9831 14.0535 17.1774 13.7718L17.1084 13.7476C15.156 13.065 14.0464 11.0062 14.5482 9.00033L13.4965 9C11.5757 9 10.1497 7.21998 10.5688 5.34543L11.016 3.34543C11.3224 1.97463 12.539 1 13.9437 1L20 1C21.6569 1 23 2.34315 23 4V6.1856C23 7.71684 21.7771 8.96246 20.2547 8.99917L19.1082 12.79Z" fill="#32a16b"></path> </g></svg>