<svg xmlns="http://www.w3.org/2000/svg" x="0px" y="0px" width="40" height="40" viewBox="0 0 50 50">
    <path d="M 25 8 C 15.611 8 8 15.611 8 25 C 8 28.127 8.8590313 31.047453 10.332031 33.564453 L 8.1464844 41.722656 L 16.683594 39.818359 C 19.143594 41.201359 21.977 42 25 42 C 34.389 42 42 34.389 42 25 C 42 15.611 34.389 8 25 8 z M 25 9 C 33.802 9 41 16.198 41 25 C 41 33.802 33.802 41 25 41 C 22.003 41 19.240703 40.197766 16.845703 38.759766 L 9.5449219 40.382812 L 11.40625 33.421875 C 9.87125 30.971875 9 28.105 9 25 C 9 16.198 16.198 9 25 9 z M 18.800781 16.548828 C 18.498781 16.548828 18.013609 16.659375 17.599609 17.109375 C 17.192609 17.559375 16.033203 18.641516 16.033203 20.853516 C 16.033203 23.057516 17.636328 25.194281 17.861328 25.488281 C 18.086328 25.790281 20.964297 30.467625 25.529297 32.265625 C 29.313297 33.755625 30.087016 33.459812 30.916016 33.382812 C 31.737016 33.311813 33.570359 32.299906 33.943359 31.253906 C 34.316359 30.206906 34.316172 29.307187 34.201172 29.117188 C 34.087172 28.935187 33.79375 28.824609 33.34375 28.599609 C 32.89375 28.374609 30.687438 27.286672 30.273438 27.138672 C 29.865438 26.990672 29.563531 26.913281 29.269531 27.363281 C 28.967531 27.813281 28.112703 28.825141 27.845703 29.119141 C 27.586703 29.421141 27.326953 29.455469 26.876953 29.230469 C 26.426953 29.005469 24.978625 28.534906 23.265625 27.003906 C 21.932625 25.816906 21.033437 24.348391 20.773438 23.900391 C 20.513437 23.452391 20.745703 23.205469 20.970703 22.980469 C 21.174703 22.784469 21.419531 22.461172 21.644531 22.201172 C 21.861531 21.934172 21.939891 21.751219 22.087891 21.449219 C 22.242891 21.155219 22.164734 20.889063 22.052734 20.664062 C 21.940734 20.439062 21.069922 18.220938 20.669922 17.335938 C 20.333922 16.591938 19.981203 16.5705 19.658203 16.5625 C 19.396203 16.5485 19.094781 16.548828 18.800781 16.548828 z"></path>
</svg>