<?xml version="1.0" encoding="UTF-8"?>
<svg id="a" data-name="Layer_1" xmlns="http://www.w3.org/2000/svg" viewBox="0 0 1181 826">
  <g id="b" data-name="layer1">
    <path d="M1121,744.5l-4.8,4.3c-22.6,8.6-88.8,15.5-198.4,20.7-110.4,5.2-240.5,7.3-390.2,6.3-142.8-1.4-257.1-5.4-342.7-12-27.4-2.1-50-4.5-67.8-7l-22.4-3.9c-12.3-2.7-18.5-5.5-18.7-8.4,3.7-9,54.7-16.4,153-22.3,98.3-5.9,221.4-9,369.5-9.3,148,.2,271.2,3.3,369.5,9.3,98.3,5.9,149.3,13.4,153,22.3Z"/>
    <path d="M651.5,210.1l-129.4-.5-129.4-.5c-.2,46-.3,92-.5,138.1,86.3.3,172.5.6,258.8,1,.2-46,.3-92,.5-138.1Z" style="fill: rgba(255, 255, 255, 1);"/>
    <path d="M770.9,680.2l-53.8,52.5-.8,1c-.5.4-1.9,1.1-4.3,2.1-10.5,4-16.4,6.3-17.7,7-2.7,1.2-4.9,2.2-6.7,3.2-4.6,2.5-6.3,4.6-5,6.2,1.7,2.3,8.3,4.3,19.6,5.9,3.2.5,6.4.8,9.5,1.1l19.8,1.6c2.4.1,4.5,0,6.3-.7,2.9-1,5.5-3.3,7.8-6.9,1.1-1.2,4.8-8.4,11.2-21.5,1.2-2.2,2.3-4,3.4-5.4,2.7-3.4,5.5-5.1,8.4-5,2.1,0,4,1,5.8,2.9l.5,28.3h3.8c-.5-13.3-.6-22.1-.3-26.6,0-3.1,1-9.5,3-19.3.3-1.9.3-3.7.1-5.4-.5-5.2-4.1-12.2-10.7-20.9h0Z" style="fill: #0b0b09;"/>
    <path d="M775,681.3l-37.5,6.2-.9.8c-3.8,3.8-7.9,11.3-12,22.3-5.9,16-8.5,25.6-7.7,29.1.3,1.5,1.4,2.2,3.3,2.2-1.6,3.2-1.9,5.6-.9,7.2.8,1.3,2.4,2.5,4.8,3.5,4.1,1.6,8.3,2.4,12.6,2.3,3.1-.1,5.7-1.3,7.9-3.4,1.8-1.8,3.4-4.5,4.7-7.9.3-.1,2.6-7.5,7-22,1.1-3.2,2.2-5.9,3.3-8,1-2,2.2-3.9,3.5-5.7.5-.9,3.2-3.9,8.1-9.1,1-1.2,1.7-2.4,2.3-3.7,1.3-2.8,1.8-7.4,1.5-13.8h0Z" style="fill: #ffba9a;"/>
    <path d="M776.1,688.5l-54.2,52.9c-.1.3-.2.6-.4.7-.5.4-1.9,1.1-4.3,2.1-10.8,4.1-16.6,6.4-17.5,6.9-2.9,1.2-5.2,2.3-6.9,3.3-4.6,2.5-6.3,4.6-5,6.2,1.7,2.3,8.3,4.3,19.6,5.9,3.2.5,6.4.8,9.5,1.1l19.8,1.6c2.4.1,4.5,0,6.3-.7,2.9-1,5.5-3.3,7.8-6.9,1.1-1.2,4.8-8.4,11.2-21.5,1.2-2.2,2.3-4,3.4-5.4,2.7-3.4,5.5-5.1,8.4-5,2.1,0,4,1,5.8,2.9l.5,28.3h3.8c-.5-13.3-.6-22.1-.3-26.6,0-3.1,1-9.5,3-19.3.3-1.9.3-3.7.1-5.4-.5-5.2-4.1-12.2-10.7-20.9h0Z" style="fill: #0b0b09;"/>
    <path d="M808.2,567.7l-58.9,15.4-13.5,105.1,38.3,3.3h1c10.3-22.5,17.4-41.2,21.3-56.3,4.5-16.6,8.4-39,11.9-67.4h0Z"/>
    <path d="M646.5,43c-12.2.5-22.6,3.7-31.4,9.8-7.1,4.8-11.5,12.1-13.1,22-2.3,15.2-.6,38.2,5.1,69,4,20.5,9.4,32.1,16.1,35l68.4-9.9c5.9-5.1,9.1-10.2,9.8-15.2.8-4.2.2-9.8-1.7-16.8-.8-3-1.8-6.3-3-9.8-1.1-3.4-3.4-9.2-6.8-17.4-.7-1.9-1.2-3.5-1.4-4.9-.3-1.5-.5-3.4-.5-5.7.4-12.3.3-20.1-.2-23.2-.6-5.7-1.8-10.3-3.6-13.9-7-12.4-19.5-18.6-37.7-18.8h0Z"/>
    <path d="M778.8,275.1l-33.8,29.6c-24,1.9-34.2,24.1-30.7,66.5,1.5,37.1,6.1,75.3,13.7,114.6l13.5,53.5,10,100.3c15-29.9,23.6-21.6,25.9,25,23.3-57.3,38.2-111.7,44.8-163.3,16.4-45,22.2-85.7,17.6-122.1-12.7-54.3-32.8-89-60.4-103.9l-.6-.2Z"/>
    <path d="M765.8,259l-67.1,44.5,17.7,24c14.1-3.6,25.3-8.5,33.8-14.6,8.1-5.5,20.4-17.2,36.8-35.1l-21.2-18.8h0Z" style="fill: #fff;"/>
    <path d="M680.5,133.2l-49.8,26.5c6.7,4.1,9,7.3,6.8,9.7-.7,1.1-2.4,2.4-4.9,3.9l-17.8,9.3c-1.3.5-2.4,2.4-3.2,5.6-.6.8-1.7,1.6-3.3,2.5-2.9,3.2-42.2,14.4-117.8,33.6-1,5.6-.9,10,.3,13.3,2,6.2,9.4,9.2,22.3,9,5.5,0,13.1-.6,22.6-1.7l60.2-8.1c10.4-1,20.9-1.2,31.4-.5l-12.9,11.4c4.7,7.8,10.4,15.1,17.2,22,12.1,12,29.4,25.5,51.9,40.5,12.5,7.8,20.7,10.3,24.7,7.5,3.3-1.3,6.1-7.1,8.3-17.5,21.4-12.7,35-21.6,41-26.6,6.8-5.4,9.8-10.2,9-14.4-.3-1.6-1-3.3-2.1-5.2l-10-15.5c-1.7-3.3-3.1-6.5-4.1-9.8-1.2-3.8-2-7.6-2.5-11.5-.9-16.8-1.6-26.1-2.4-27.9-1.1-5.8-3.1-10.9-6.1-15.3-4.1-6-11.1-11.7-21-17.1-14.1-7.2-25.6-11.7-34.5-13.4l-3.5-9.8v-.2Z" style="fill: #fff;"/>
    <path d="M643.1,58.4c-10.5.3-19.5,4.8-26.9,13.4-1.5,2.1-2.5,4.5-3,7.3-.2,1.1-.4,2.3-.5,3.8-.2,7.6-.4,11.3-.6,10.9-.2.6-.4,1.1-.8,1.5-1.6,1.2-2.4,1.9-2.6,2.3-.4.5-.7,1.3-.9,2.3-.6,2.8-.6,6.4-.2,10.7.4,4.2,1.2,7,2.2,8.4.4.6.9,1,1.4,1.3l3.7,1.3c.7.3,1.2.8,1.5,1.3.2-.3,2,3.5,5.4,11.5.8,1.6,1.7,3.1,2.6,4.5,2.1,3.2,6.2,7.9,12.3,14.1l19.2,36.5c7.9-10.8,13.2-20,15.9-27.8,1.9-5.7,3-11.5,3.1-17.5,0-3,0-5.4-.4-7.4-.3-1.9-.9-3.4-1.9-4.7,0-.3,0-.6,0-1,1.7-3.8,2.6-7,2.5-9.7,3.9.4,6.8-1.6,8.6-6.1,2.4-6.4,3.5-12.3,3.3-17.5-.2-3.7-2.5-5.6-7.1-5.4-.9-13-3.8-21.4-8.7-25.2-6.9-5.7-16.3-8.6-28.1-8.8h0Z" style="fill: #ffba9a;"/>
    <path d="M670.4,135.1c-8.7,11.3-14.9,17.9-18.7,19.5-2.2,1.1-4.5,1.5-6.7,1.1-2-.3-4.7-1.5-8.3-3.5l17.7,17.8,15.9-34.9h0Z"/>
    <path d="M635.1,163.2l-18.8,8.6c4.3,10,7.9,16.8,10.9,20.4,1.8,2.2,3.7,4,5.7,5.2,1,.7,2.1,1.3,3.4,1.9l7.7,3.5c1.4.7,2.5,1.5,3.3,2.3,2.1,1.9,3.3,5.1,3.6,9.5,1-16.7.4-27.7-1.6-33.2-2-6.9-6.7-12.9-14.2-18.1M650.9,214.6c0,1.4,0,2.2,0,2.3,0,0,0-.1,0-.7,0-.5,0-1,0-1.6h0Z"/>
    <path d="M694,210.4l-9.8,51.4.2,7.4h0s-10.4-6.3-10.4-6.3l-39.4-22.7h0s0,0,0,0c9.6,10.9,18,18.5,25.2,22.7,6.4,4,15.9,7,28.4,9,1.1-21.4,3.1-41.9,5.8-61.6h0ZM736.1,197.4l-18.8,101.2-6.4,20.9,11.3-22.3,13.8-99.6h0Z"/>
    <path d="M744.6,350.9l3,240.5c-7.9-67.6-12.1-117.4-12.4-149.5-.2-16.5.5-31.9,2-46.2,1.2-12.1,3.7-27,7.4-44.7h0Z"/>
    <path d="M368.2,208.2h141.7s141.7,0,141.7,0v358.4c-94.5,0-188.9,0-283.4,0V208.2" style="fill: #fff;"/>
    <path d="M603.9,192.5c-3.2,0-6.3.9-9.3,2.5-3.1,1.7-5.3,3.7-6.5,6-.8,1.5-1.2,3.6-1.2,6.2,0,9.3.2,14.9.8,16.7.5,2.5,1.6,3.6,3.1,3.2.7-.1,1.4-.5,2.3-1,.4-.2,2.3-1.6,5.5-4.2.6-.4,1-.5,1.2-.4.2,0,.3.4.4.9.1,3,.3,5,.5,6,.2,1.2.5,2.5.8,3.9.9,3.3,2.1,6,3.6,8.3,2.3,3.8,6.2,6.1,11.6,6.9l11.5-9.3c-1-2.4-1.7-4.9-2.2-7.5-.2-.5-.9-5.2-2.3-14.1-.3-2-.7-3.8-1.1-5.4-1.5-6.7-3.7-11.4-6.4-14-3.2-3.2-7.2-4.7-12.1-4.7h0Z" style="fill: #ffba9a;"/>
    <path d="M499.2,207.4c-2.4-3.5-5.2-5.6-8.6-6.2-2.9-.4-5.6.8-8.2,3.7-3.6,4.1-6.2,9.4-7.8,15.7-1.3,5.1-.9,9.3,1.2,12.6,1.6,2.8,5,5.6,10.3,8.7,2.4.9,4.7.2,6.9-2.1,1.9-2.2,2.9-4.8,2.9-7.8,0-1.1-.2-2.1-.6-3-.2-.4-.4-.9-.6-1.3-1.1-1.5-1.7-2.5-1.8-2.8-.3-.6-.4-1.2-.3-1.6,0-.4.3-.7.8-1l3.6-1.7c.6-.3.9-.7,1-1,.1-.2.1-.5,0-.9,0,0-.2-.8-.7-2.6,0-.4,0-.8,0-1.1,0-.3.2-.5.4-.8,1.2-1.2,1.9-1.8,2-2,.3-.4.5-.9.5-1.4,0-.9-.2-2-1-3.2h0Z" style="fill: #ffba9a;"/>
    <path d="M594.9,195.5c-1.4,0-2.4.4-3.2,1.1-1.1,1-2.6,2.7-4.4,5.1-3.2,4.5-4.8,8.4-5,11.6-.2,2.6.8,5.2,2.8,8,1.1,1.5,2.8,3.5,5.1,5.8,1,.9,2,1.3,3,1.3,2.1-.1,4-2,5.7-5.6,1.8-3.9,2.8-8.3,3.1-13.2.2-4.4-.3-7.9-1.6-10.5-1.3-2.5-3.1-3.7-5.6-3.6h0Z" style="fill: #ffba9a;"/>
    <path d="M388.9,267.1h122s122,0,122,0v274.7c-81.3,0-162.6,0-244,0,0-91.6,0-183.1,0-274.7" style="fill: #d9e2e7;"/>
    <path d="M454.2,385.5l8.6,65.9h-17.7l8.6-65.9h.4ZM579.4,365.5c1.9,0,3.5.8,4.9,2.5,1.3,1.7,2,3.8,2,6.5v99.4c0,2.4-.7,4.5-2,6.2-1.3,1.7-3,2.5-4.9,2.5h-15.5v-117.2h15.5ZM433,320.4l2,2.5-40.3,202.5-2.4,2.5h41.2l-2-2.5,6.2-31.5h33l6.4,31.5-2.2,2.5h41l-2-2.5-41-202.5,2.2-2.5h-42.1ZM526.3,320.1l2,2.5v202.8l-2,2.5h53.2c5.9,0,11.5-1.1,16.6-3.4,5.2-2.1,9.7-5.4,13.5-9.9,3.8-4.3,6.9-9.9,9.1-16.6s3.3-14.8,3.3-24.2v-99.4c0-8.8-1.1-16.6-3.3-23.4-2.2-6.8-5.2-12.5-9.1-17.2-3.8-4.5-8.3-8-13.5-10.4-5.2-2.3-10.7-3.4-16.6-3.4h-53.2Z"/>
  </g>
  <text transform="translate(426.3 304) scale(1.5 1)" style="font-family: AdobeArabic-Regular, &apos;Adobe Arabic&apos;; font-size: 44.4px;"><tspan x="0" y="0">Ebozor</tspan></text>
</svg>