<?xml version="1.0" ?><svg viewBox="0 0 1000 1000" xmlns="http://www.w3.org/2000/svg"><path d="m419.33 520.86a570 570 0 0 1 -18.73-84.15c-.33-2.32-.63-4.81.47-6.88a11.16 11.16 0 0 1 4.25-3.83 256 256 0 0 1 68.06-29.45c4.72-1.27 10.43-2.17 13.9 1.27 2.27 2.24 2.79 5.65 3.2 8.81q4.59 35.76 8.86 71.56" fill="#32a16b"/><path d="m420 520.68c-4.87-17.35-9.45-34.71-13-52.39q-2.65-13.23-4.68-26.58c-.34-2.21-.73-4.43-.95-6.66-.2-2-.13-4.18 1.3-5.79a19.61 19.61 0 0 1 4.73-3.38q2.72-1.65 5.47-3.22a254.45 254.45 0 0 1 46.48-20.82q6-2 12.15-3.71c3.41-.94 7-2 10.58-1.6 3.92.47 6 3.25 6.87 6.93.95 4.25 1.23 8.72 1.78 13 2.33 18.42 4.56 36.84 6.8 55.27.27 2.23.6 4.46.91 6.68.15 1.07 2 .83 1.91-.26-1.89-19.29-4.56-38.52-7-57.75-.6-4.73-1.2-9.46-1.83-14.19-.46-3.53-1.17-7.39-4.11-9.74-2.66-2.13-6.18-2.36-9.43-1.94a74.27 74.27 0 0 0 -11.81 3 257.52 257.52 0 0 0 -48.73 20.32q-5.82 3.15-11.44 6.61c-3.24 2-6.3 4-6.62 8.1a28.54 28.54 0 0 0 .6 6.31q.51 3.45 1.07 6.9 1.13 6.9 2.41 13.77a554.57 554.57 0 0 0 13.18 54.81c.66 2.24 1.33 4.46 2.06 6.68a.65.65 0 0 0 1.26-.35z"/><path d="m353.89 551.8q-11.36-35.59-19.79-72c-.73-3.15-1.4-6.65.22-9.44 1.45-2.51 4.34-3.73 7-4.78a491.14 491.14 0 0 1 69.91-21.14c3.46-.77 7.43-1.4 10.25.75 1.77 1.35 2.67 3.52 3.47 5.6a259.36 259.36 0 0 1 14.31 54.08" fill="#fff"/><path d="m354.5 551.63q-7.14-23.08-13.2-46.5-3-11.6-5.68-23.25c-.73-3.18-2-7-.79-10.2s5.16-4.46 8.15-5.6q21.86-8.37 44.46-14.62 11.28-3.12 22.7-5.7c3.09-.69 6.87-1.8 9.88-.27s4 5.72 5.1 8.66a258.83 258.83 0 0 1 7.8 24.93c2.23 8.6 3.77 17.3 5.45 26 .2 1 2 .82 1.89-.26a186.93 186.93 0 0 0 -4.62-23.8q-3-11.88-7-23.43c-1.24-3.52-2.31-7.4-4.2-10.63a8.73 8.73 0 0 0 -7.82-4.36c-3.54 0-7.12 1.07-10.54 1.87q-6 1.41-12.06 3a487.88 487.88 0 0 0 -46.92 14.77c-3.41 1.26-7.15 2.33-10.27 4.23a9 9 0 0 0 -4.54 7.84c-.05 3.68 1.22 7.41 2.07 10.95q1.49 6.18 3.06 12.33 6.24 24.36 13.9 48.34c.64 2 1.29 4 1.95 6 .26.77 1.47.45 1.23-.34z"/><path d="m318.3 584.37-49.92-15.79c-5.43-1.71-11.65-4.21-13.14-9.71-.73-2.71-.1-5.57.56-8.3a369.6 369.6 0 0 1 19.2-57.69c2.7-6.33 6.12-13.13 12.49-15.74 5.57-2.28 11.89-.71 17.7.89l81.42 22.35c3.71 1 7.65 2.18 10.15 5.1 3.73 4.37 2.9 10.9 1.76 16.53a511.13 511.13 0 0 1 -18.83 68.41l-3.3-1.42" fill="#32a16b"/><ellipse cx="214.34" cy="665.88" rx="189.34" ry="18.91"/><path d="m402.78 665.88a2 2 0 0 1 -.5 1.08 7.11 7.11 0 0 1 -1.88 1.42 32.49 32.49 0 0 1 -7.09 2.76c-8.49 2.48-17.33 3.8-26.07 5-29.34 4-59.05 5.57-88.62 6.64q-57.78 2.07-115.65.41c-31.08-.87-62.25-2.35-93.14-6a262.52 262.52 0 0 1 -29.64-4.81 65.64 65.64 0 0 1 -9.11-2.69 11.84 11.84 0 0 1 -4.75-2.82c-.64-.75-.57-1.36.13-2.15a12.71 12.71 0 0 1 4.89-2.72c7.09-2.72 14.81-4 22.27-5.18 27.6-4.43 55.72-6 83.61-7.27 38.12-1.7 76.32-2 114.47-1.27 32.69.65 65.45 2 98 5.32 11 1.12 22.08 2.45 33 4.57 5.9 1.15 12.68 2.23 17.93 5.37 1.08.64 2.17 1.57 2.19 2.38a.9.9 0 0 0 1.79 0c-.07-3.85-6.32-5.57-9.13-6.47-8.24-2.66-16.95-4-25.5-5.2-29.76-4.26-60-5.86-90-7q-59.14-2.18-118.37-.42c-31.65.92-63.43 2.42-94.87 6.32a237.25 237.25 0 0 0 -28.89 5 54.3 54.3 0 0 0 -8.7 2.85c-1.59.72-3.44 1.63-4.44 3.14-5.14 7.83 23.23 11.75 26.28 12.26 27.7 4.68 56 6.31 84 7.6 39.22 1.81 78.53 2.16 117.78 1.35 33.38-.69 66.85-2.07 100.06-5.63 10.78-1.15 21.58-2.49 32.2-4.68a94.41 94.41 0 0 0 10.74-2.74 23.89 23.89 0 0 0 6.51-2.94 4.53 4.53 0 0 0 2.3-3.43.9.9 0 0 0 -1.8-.05z"/><path d="m115.58 691.83a516.89 516.89 0 0 1 40.67-75.78c3.7-5.71 8.24-11.83 14.94-13 3.49-.62 7.06.22 10.49 1.12a331.82 331.82 0 0 1 65 24.42c2.79 1.4 5.66 2.92 7.46 5.47a19.37 19.37 0 0 1 2.34 5.25l6.8 20.43a21.84 21.84 0 0 1 1.5 6.91c0 2.9-1.15 5.67-2.28 8.34q-12.7 30.21-25.42 60.4" fill="#fff"/><path d="m116.13 692.15a552.72 552.72 0 0 1 26.87-52.67c4.84-8.34 9.82-16.65 15.25-24.63 2.22-3.26 4.75-6.57 8.11-8.74 4-2.6 8.44-2.5 13-1.42a283.57 283.57 0 0 1 28.34 8.59q14 4.9 27.42 11c4.32 2 8.68 3.95 12.86 6.22a15.62 15.62 0 0 1 4.84 3.69c1.56 1.93 2.21 4.44 3 6.75l4.86 14.63c1.61 4.82 3.83 9.62 2.31 14.74a66.56 66.56 0 0 1 -2.78 7c-1 2.36-2 4.73-3 7.09q-3 7.21-6.07 14.41c-4.08 9.69-8.22 19.35-12.23 29.06l-2.94 7.1c-.49 1.17 1.55 2 2 .87 8.51-19.87 16.81-39.83 25.19-59.75a34.12 34.12 0 0 0 2.45-7 15.92 15.92 0 0 0 -.5-7.29c-1.43-5.07-3.3-10-5-15l-2.55-7.66a20.56 20.56 0 0 0 -2.94-6.31c-2.73-3.46-7.18-5.21-11-7.08a330 330 0 0 0 -56.95-21.49c-4.66-1.28-9.71-3.06-14.61-2.52a17.48 17.48 0 0 0 -10.39 5.42 58.12 58.12 0 0 0 -7.49 10.07q-4.11 6.41-8 12.93a489.6 489.6 0 0 0 -28.18 54.46q-1.5 3.43-3 6.88c-.31.74.77 1.4 1.1.65z"/><path d="m657.4 453a202.52 202.52 0 0 1 -33.4 36.24 23.4 23.4 0 0 1 -7.41 4.75c-3 1-6.34.8-9.54.54-42.86-3.56-84.66-15.11-127.32-20.63-2.28-.3-4.76-.54-6.74.63s-3 3.6-3.85 5.84c-6.08 16.55-10.68 35.81-2 51.13 6.08 10.7 17.47 17.16 28.64 22.32 30.56 14.12 63.42 22.43 95.85 31.49 27.26 7.61 56.66 15.77 83.23 6a66.91 66.91 0 0 0 41.28-46.73" fill="#fff"/><path d="m656.71 452.61a204.09 204.09 0 0 1 -17.9 21.27q-4.78 5-9.91 9.59c-3.29 3-6.68 6.37-10.61 8.49-4.34 2.33-9.44 1.5-14.13 1.07-4.89-.44-9.77-1-14.64-1.62-9.95-1.28-19.85-2.9-29.72-4.67-19.6-3.51-39.09-7.6-58.72-10.9-4.92-.83-9.86-1.61-14.8-2.31-2.39-.34-4.77-.68-7.17-1a11.58 11.58 0 0 0 -6 .52c-3.75 1.66-4.9 6.18-6.13 9.71a128.4 128.4 0 0 0 -3.74 12.65c-1.93 8.2-2.86 16.8-1.29 25.15a38.08 38.08 0 0 0 11.78 21c5.94 5.49 13.13 9.43 20.41 12.85 8.66 4.07 17.55 7.65 26.54 10.92 18.27 6.63 37 11.91 55.71 17.1 18.36 5.09 36.74 11 55.68 13.56 17.61 2.38 36.05 1.37 51.94-7.29a65.48 65.48 0 0 0 33.39-43.8c.36-1.56-2-2.22-2.4-.66a66.52 66.52 0 0 1 -24.08 36.62c-13.67 10.48-30.62 14.21-47.61 13.45-18.67-.84-36.77-6.26-54.67-11.22-18.31-5.09-36.64-9.94-54.64-15.85-9-3-17.89-6.15-26.64-9.75-8-3.31-16.13-6.8-23.51-11.41-6.74-4.22-12.85-9.64-16.45-16.85-3.75-7.5-4.33-16.08-3.38-24.29a103.45 103.45 0 0 1 6.54-24.78c.66-1.74 1.52-3.74 3.27-4.65 1.93-1 4.35-.57 6.41-.3 4.84.64 9.67 1.36 14.49 2.12 19.26 3.07 38.37 7 57.55 10.57 9.66 1.78 19.34 3.46 29.06 4.88 4.72.68 9.46 1.31 14.21 1.85s9.45 1.15 14.25 1.37a18.32 18.32 0 0 0 12.31-3.71 119.85 119.85 0 0 0 9.95-8.76 203.34 203.34 0 0 0 18.25-19.78q4.05-5 7.77-10.29c.6-.84-.77-1.61-1.37-.8z"/><path d="m721.59 357.6q-45.59 43.94-87.47 91.47c-1.89 2.15-3.87 4.52-4.08 7.38a12.78 12.78 0 0 0 1.51 6 158.69 158.69 0 0 0 76.57 78.43c2.4 1.13 5 2.23 7.63 1.81s4.88-2.39 6.85-4.29a321.09 321.09 0 0 0 54.81-69.57c4.54-7.76 8.88-16.37 7.86-25.3" fill="#32a16b"/><path d="m707.79 541.4c3.66 1.85 7.45 3.07 11.28.93a23.06 23.06 0 0 0 4.52-3.61c1.66-1.58 3.31-3.18 4.93-4.8q9.47-9.39 18.07-19.58a306.88 306.88 0 0 0 30.82-43.48c4.78-8.21 10.08-17.71 8.63-27.58-.13-.88-1.62-.67-1.56.22.54 8.8-3.15 16.6-7.51 24s-8.8 14.41-13.61 21.34a334.43 334.43 0 0 1 -32.06 39.36q-4.78 5.06-9.78 9.9c-1.56 1.51-3.26 3.06-5.42 3.63-2.6.67-5.3-.43-7.66-1.46-.74-.32-1.4.73-.65 1.11z"/><path d="m631.55 463.07a.65.65 0 0 0 0-1.29.65.65 0 0 0 0 1.29z"/><path d="m697.38 380.54c-8.85 8.22-17.24 16.94-25.56 25.68s-16.7 17.7-24.76 26.79c-4.53 5.11-9.3 10.12-13.5 15.5-.61.78.38 1.87 1.12 1.12 4.3-4.32 8.25-9.05 12.38-13.54s8.05-8.79 12.1-13.16c8.26-8.92 16.63-17.75 25-26.56 4.72-5 9.49-9.87 14.12-14.92a.64.64 0 0 0 -.91-.91z"/><path d="m353.77 522.85a667.33 667.33 0 0 0 -60.44 47.68c-1.84 1.63-3.76 3.41-4.39 5.79-1 3.66 1.38 7.29 3.62 10.34q16.83 23 33.68 46.07c4.38 6 9.42 12.43 16.69 13.92 8.08 1.66 15.87-3.35 22.57-8.16a2020.73 2020.73 0 0 0 173.81-139.86c6-5.42 12.38-11.54 13.57-19.56s-3.22-15.88-7.84-22.63a218.38 218.38 0 0 0 -29.45-34.64c-3.44-3.28-7.57-6.66-12.31-6.32-3.37.24-6.27 2.33-9 4.34q-33.62 24.94-67.21 49.91a8.37 8.37 0 0 0 -2.88 9.52c6.34 18.23 5 33-22 49.44-9.56 5.84-29.28 7.92-36.51-.64-2.8-3.31-6.27-8.4-10-6.26"/><path d="m353.43 522.26c-11.23 7.63-22.14 15.73-32.8 24.14q-8.14 6.42-16.09 13.11-3.93 3.3-7.8 6.66c-2.34 2-5 4-6.93 6.39a8.63 8.63 0 0 0 -1.92 7.53c.68 3.07 2.7 5.68 4.51 8.17l12.65 17.34 12.81 17.55c3.79 5.19 7.4 10.58 11.53 15.5 3.39 4 7.59 7.8 12.85 9 5.93 1.37 11.83-.72 16.93-3.65 5.7-3.26 10.93-7.42 16.24-11.27q8.29-6 16.54-12.14 32.88-24.39 64.76-50.08t62.83-52.81q7.71-6.76 15.36-13.6c4.52-4 9.31-8 13.17-12.68 3.54-4.32 6.15-9.4 6.15-15.1 0-6.27-2.87-12.16-6.14-17.35a197.74 197.74 0 0 0 -24.4-30.7q-3.39-3.56-6.95-7a32.66 32.66 0 0 0 -6.79-5.33 12.1 12.1 0 0 0 -7.82-1.5c-2.94.51-5.49 2.23-7.84 4-11.63 8.56-23.18 17.23-34.77 25.84l-17.33 12.87-8.45 6.28-4.23 3.14a37.46 37.46 0 0 0 -4.06 3.13 9.48 9.48 0 0 0 -2.78 6.49c-.06 2.38 1 4.59 1.65 6.82a43.4 43.4 0 0 1 2 11.41c.15 8.28-3.52 15.55-9.19 21.43a73.24 73.24 0 0 1 -13.72 10.82 37.31 37.31 0 0 1 -12.56 5.09c-7.87 1.65-18.91 2-24.6-4.78-2.63-3.13-6.33-8.59-11.08-6.13-1.21.62-.14 2.44 1.06 1.82 2.37-1.22 4.57 1.22 6 2.82a39.62 39.62 0 0 0 4.51 5 21.71 21.71 0 0 0 11.15 4.1 40.71 40.71 0 0 0 25.32-5.27c8.42-5.18 17.08-11.62 21.82-20.54 3.52-6.6 4.07-14 2.66-21.22a58.49 58.49 0 0 0 -1.44-5.69c-.69-2.26-1.74-4.45-1.27-6.87.63-3.19 3.22-4.76 5.65-6.56q4.23-3.13 8.45-6.28l33.82-25.1 16.92-12.55c2.58-1.91 5.1-3.94 7.8-5.68s5.39-2.79 8.45-2a18.05 18.05 0 0 1 7.36 4.47c2.26 2 4.4 4.19 6.52 6.35q6.72 6.86 12.81 14.26t11.6 15.48c3.48 5.12 6.95 10.84 7.54 17.14 1.16 12.29-10.45 20.72-18.58 28q-29.7 26.47-60.4 51.81-31 25.54-62.91 49.86-15.84 12-31.9 23.77c-5.24 3.82-10.44 7.72-15.79 11.37-4.92 3.35-10.58 6.7-16.74 6.48-5.66-.2-10.18-3.79-13.78-7.85-4.17-4.7-7.68-10-11.39-15.1q-12.4-16.87-24.76-33.79c-1.9-2.6-4.2-5.22-5.32-8.28s-.09-5.82 2.23-8.13c4.54-4.52 9.65-8.59 14.54-12.73q15.27-12.93 31.28-25 7.81-5.85 15.74-11.54c.71-.51.05-1.68-.68-1.18z"/><path d="m705.92 630.52c3.55 21-2.75 42.18-7.37 62.5q-7.11 31.31-11.68 63.11-2.61 18-4.36 36.1c-.11 1.22 1.78 1.2 1.91 0 2.35-21.67 5.33-43.28 9.22-64.73q2.86-15.86 6.36-31.6c2.26-10.26 4.89-20.47 6.66-30.84 2-11.5 2.69-23.36.5-34.88-.16-.82-1.38-.47-1.24.34z"/><path d="m935.06 606.71a669.7 669.7 0 0 1 21.37 69.84 656.26 656.26 0 0 1 13.72 73.58c1.79 14 3 28 4.07 42.1.07 1 1.61 1 1.56 0a582 582 0 0 0 -8.51-74.69 608.49 608.49 0 0 0 -17.27-72.33c-4-13.12-8.6-26.11-13.65-38.86-.32-.79-1.6-.46-1.3.36z"/><path d="m770.93 344.59c32.94-4.42 66.41 9.88 91.12 32.1s41.78 51.66 55.87 81.76c9.4 20.07 21.08 57.88 28.17 78.87 4.66 13.8 8.84 27.87 10.45 42.35.86 7.69 1 15.66-1.6 23-2.67 7.61-8.05 14-14 19.39-55.5 50.28-137 30-204 27.16-10-.43-20.18-.68-29.56-4.12-26-9.53-24-39.93-24.51-62.8-1.14-49.93-21.81-118.1-7.7-166 3.15-10.7 8.12-21.33 16.8-28.33" fill="#32a16b"/><path d="m614.2 234.21a32.11 32.11 0 0 0 -9.67 10.53 27.93 27.93 0 0 0 -4.24 11 14.38 14.38 0 0 0 3 11.12c2.48 2.84 6.21 4.29 9.92 5a33.08 33.08 0 0 0 37.58-22.12 19 19 0 0 0 .93-9.62 10.2 10.2 0 0 0 -5.72-7.46"/><path d="m613.84 233.59a31.08 31.08 0 0 0 -8.54 8.26 33.87 33.87 0 0 0 -5.63 11.44 17.15 17.15 0 0 0 1 11.47 14.6 14.6 0 0 0 8.48 7.12c7.73 2.81 16.78 1.94 24.21-1.32a34.32 34.32 0 0 0 16.52-15.68c2.16-4.2 3.78-9.11 3.18-13.88-.52-4.09-2.79-7.83-6.77-9.29-1-.38-1.71 1.26-.74 1.75 7.27 3.72 5.71 13.13 2.86 19.23a32 32 0 0 1 -35.26 18c-3.35-.67-6.76-2-9.05-4.62s-3.06-6.47-2.74-9.95c.39-4.37 2.48-8.47 4.81-12.11a30.84 30.84 0 0 1 8.45-9.17c.75-.52.06-1.74-.73-1.24z"/><path d="m621.62 256.36c-5.35 16.14 6.19 35.07-1.38 50.3a11.77 11.77 0 0 0 -1.68 4.42c-.19 3.22 2.56 5.17 5.84 6.21a9.53 9.53 0 0 1 6.44 6.51c1.57 5.93 3.41 16.05 6.3 21.44 3.79 7.07 9.65 13.36 17.23 16s16.23-2.92 24.16-4.91c2-.51 4.28-1 6.09 0a8.05 8.05 0 0 1 2.65 3.17q5.82 10.2 11.38 20.56c1 1.79 2 3.69 3.82 4.63 2.3 1.2 5.09.49 7.53-.37a74 74 0 0 0 42.12-38.52c.73-1.6 1.42-3.4.92-5.09s-2.07-2.85-3.48-3.93c-17.45-13.29-25-35.56-31.57-56.47q-3.15-10-6.31-20c-3-9.45-6-19-11.72-27.16s-14.51-14.63-24.4-15a48.47 48.47 0 0 0 -10.45 1.07c-9.71 1.71-19.68 3.51-28.15 8.56s-15.27 14.15-14.71 24" fill="#fff"/><path d="m621 256.17c-2.41 7.33-1.52 15.09-.46 22.57s2.57 15.56.55 23.1a28 28 0 0 1 -2.24 5.5 8 8 0 0 0 -1.12 5.14c.66 3.49 4 4.81 7 5.94a8.78 8.78 0 0 1 4.27 3.45 15.29 15.29 0 0 1 1.6 4.76c.86 3.59 1.64 7.19 2.64 10.75a41.21 41.21 0 0 0 3.76 9.53 39.17 39.17 0 0 0 6.85 8.83 29.27 29.27 0 0 0 9.26 6.07 17.79 17.79 0 0 0 11.24.38c4.05-1 7.86-2.8 11.82-4.1a18.45 18.45 0 0 1 6.19-1.36c2.51.09 3.52 2.2 4.62 4.13q3.65 6.38 7.17 12.81c1.18 2.15 2.34 4.3 3.5 6.46a15 15 0 0 0 3.27 4.64c3.13 2.61 7.27 1.32 10.67 0a72.47 72.47 0 0 0 10.23-4.75 75.46 75.46 0 0 0 17.81-13.94 73.76 73.76 0 0 0 12.76-18.44c.86-1.76 1.86-3.67 1.87-5.67a6.2 6.2 0 0 0 -2.41-4.7c-1.46-1.27-3-2.37-4.5-3.64s-2.8-2.59-4.11-4c-10.71-11.43-16.61-26.45-21.48-41.09-2.86-8.6-5.52-17.27-8.25-25.91-2.69-8.47-5.25-17.09-9.54-24.92-3.76-6.85-9-13-15.91-16.89a28.59 28.59 0 0 0 -10.51-3.51c-4.51-.54-9 .31-13.45 1.1-15.43 2.72-33.91 7-40.68 23a23.4 23.4 0 0 0 -1.82 10.25c0 .93 1.5.94 1.45 0-.35-7.51 3.81-14.49 9.24-19.38 6.12-5.51 14.1-8.3 22-10.13 4.08-.94 8.21-1.67 12.33-2.38 4.3-.74 8.64-1.26 13-.33 7.36 1.6 13.72 6.43 18.32 12.26 5.29 6.7 8.42 14.83 11.07 22.86 2.89 8.79 5.56 17.66 8.35 26.48 4.44 14.06 9.14 28.41 17.36 40.78a65.25 65.25 0 0 0 14.63 15.84c1.77 1.37 3.44 2.82 2.88 5.29a24.22 24.22 0 0 1 -2.41 5.53 72.75 72.75 0 0 1 -5.72 9.2c-8.58 11.76-21.08 21.4-35 25.88-1.88.6-4.13 1.15-6 .2s-2.7-2.83-3.59-4.49q-3.3-6.15-6.69-12.25-1.74-3.09-3.49-6.18c-.94-1.66-1.8-3.59-3.27-4.85-2.92-2.5-7.37-.9-10.56.16-3.76 1.26-7.4 2.92-11.23 3.94a16.23 16.23 0 0 1 -11.38-.65c-6.64-3-11.91-9-15.09-15.45-3-6.11-4-13.15-5.65-19.68a10.78 10.78 0 0 0 -5.63-7.34c-2.65-1.32-7.14-2.08-6.87-6 .14-2 1.59-3.89 2.33-5.73a25.24 25.24 0 0 0 1.45-5.18 41.11 41.11 0 0 0 .27-10.57c-.64-7.47-2.49-14.83-2.66-22.35a32.87 32.87 0 0 1 1.38-10.71c.27-.85-1.06-1.21-1.33-.37z"/><path d="m640.46 289a1 1 0 0 1 1-.88 1.64 1.64 0 0 1 1.25.61 1.53 1.53 0 0 1 .24 1.87c-.41.55-1.5.39-1.55-.29"/><path d="m641.12 289.15a.14.14 0 0 0 0-.07c0-.06 0 0 0 .08l.06-.1s-.14.16 0 0l.1-.09-.16.13.28-.21-.17.13a1 1 0 0 1 .24-.14l-.2.08a1.34 1.34 0 0 1 .27-.07h-.22.29-.23a1.56 1.56 0 0 1 .37.1l-.21-.09a2.16 2.16 0 0 1 .36.22l-.18-.14a2.38 2.38 0 0 1 .35.36l-.14-.19a2.78 2.78 0 0 1 .28.47l-.1-.22a1.45 1.45 0 0 1 .13.45v-.25a1.27 1.27 0 0 1 0 .39v-.25c0 .1-.05.2-.08.3l.09-.23a1 1 0 0 1 -.14.24l.15-.19a.8.8 0 0 1 -.13.13l.2-.15-.2.11.23-.1a.84.84 0 0 1 -.26.07h.26a.94.94 0 0 1 -.29 0h.26l-.24-.07.23.1a.72.72 0 0 1 -.19-.11l.2.15a2.18 2.18 0 0 1 -.22-.21l.15.19a.75.75 0 0 1 -.07-.12l.09.22a.25.25 0 0 1 0-.07.92.92 0 0 0 -1-.65.8.8 0 0 0 -.52.25l-.14.18a.9.9 0 0 0 -.12.46 1.34 1.34 0 0 0 .43 1.12 2 2 0 0 0 1.15.46 1.84 1.84 0 0 0 1.79-.95 2.46 2.46 0 0 0 -.15-2.38 2.65 2.65 0 0 0 -2.06-1.29 1.92 1.92 0 0 0 -1.37.48 1.5 1.5 0 0 0 -.48 1.25.76.76 0 0 0 .2.49.79.79 0 0 0 .4.19.68.68 0 0 0 .75-.5z"/><path d="m636.16 284.38c.38-.34.56-.7 1-1.05 0 0 .27-.22.11-.1a1.81 1.81 0 0 1 .33-.2c.22-.11.42-.25.63-.38a13.18 13.18 0 0 1 1.34-.71l.64-.3.33-.14h-.06a.81.81 0 0 1 .22-.07 1.66 1.66 0 0 0 1.13-2 1.64 1.64 0 0 0 -2-1.13 18.84 18.84 0 0 0 -5.18 3.23 1.66 1.66 0 0 0 -.13 2.17 1.64 1.64 0 0 0 2.14.43 30.19 30.19 0 0 1 3.59-2.33c.6-.34 1.22-.65 1.85-.94l.51-.22.24-.1c.43-.17.88-.32 1.3-.52l-2-2.61-.49.61a1.51 1.51 0 0 0 -.12 2 1.52 1.52 0 0 0 1.93.39l.69-.35a1.66 1.66 0 0 0 -1.28-3 16.61 16.61 0 0 0 -2.31 1c-.64.31-1.28.62-1.91 1a30.45 30.45 0 0 0 -3.66 2.24l2 2.59.52-.43.22-.17c.34-.25.7-.5 1.06-.73.73-.46 1.49-.84 2.25-1.24l-1.64-2.81c-.46.35-1 .61-1.49.93a11.73 11.73 0 0 0 -1.48 1.15 6.71 6.71 0 0 0 -1.08 1.4 3.77 3.77 0 0 0 -.67 1.81.87.87 0 0 0 1.47.61z"/><path d="m683.54 278a4 4 0 0 0 -2.29 3.67 6.62 6.62 0 0 0 0 1.18 2.22 2.22 0 0 0 .45 1.22 1.23 1.23 0 0 0 2.11-.4 1.21 1.21 0 0 0 -.84-1.38 1.62 1.62 0 0 0 -1.57.43.76.76 0 0 0 -.11.91.75.75 0 0 0 .85.35 1.66 1.66 0 0 0 .33-.15h.08c-.05 0 0 0 0 0s0 0 0 0h-.05c-.06 0-.11-.06-.14-.12v-.34a.39.39 0 0 1 .16-.23.35.35 0 0 1 .22-.08c-.12 0 0 0 .08 0s0 0 0 0h.06c0 .05 0 .06 0 0s0 0 0 0a1.21 1.21 0 0 1 0-.18 2.85 2.85 0 0 1 -.06-.32c0-.32-.06-.64-.06-.95a3.35 3.35 0 0 1 .33-1.51 2.12 2.12 0 0 1 1-1 .62.62 0 0 0 .26-.79.63.63 0 0 0 -.75-.37z"/><path d="m648.4 325.63a20.15 20.15 0 0 0 5.22-3.8 19.82 19.82 0 0 0 2.1-2.48 11.51 11.51 0 0 0 1.65-2.89c.32-.92-1-1.41-1.52-.64s-1 1.78-1.53 2.63a19 19 0 0 1 -1.84 2.34 19.16 19.16 0 0 1 -4.74 3.71c-.74.41-.09 1.5.66 1.13z"/><path d="m691.65 350.72a42.69 42.69 0 0 1 -7.18 2.83c-1.2.37-2.4.75-3.61 1.11a17.58 17.58 0 0 1 -3.82 1c-.91.05-1.23 1.5-.22 1.69a8.39 8.39 0 0 0 4.18-.65c1.28-.42 2.57-.83 3.83-1.3a43.72 43.72 0 0 0 7.46-3.58.63.63 0 0 0 -.64-1.08z"/><path d="m672.8 273.2-2.84-14a5.4 5.4 0 0 0 -.67-2 6.08 6.08 0 0 0 -2.35-1.76 28.81 28.81 0 0 1 -14.84-23.44c-6.51 4-27 21.4-33.55 25.44-2.15 1.33-5.17-.44-7.59-1.17s11.2-15 13.61-15.79a13.91 13.91 0 0 1 -12.63 8.75 6.17 6.17 0 0 1 -4.69-1.66 6.39 6.39 0 0 1 -1.3-2.71c-1.37-5.31.16-11.09 3.21-15.66s7.47-8.05 12.15-10.92a72.36 72.36 0 0 1 45.69-10.05 23.32 23.32 0 0 1 8.12 2.11c1.41.73 2.75 1.72 4.32 1.95a11.19 11.19 0 0 0 4.61-.79c10.1-2.95 21.17-.53 30.49 4.35 8.35 4.37 15.94 11.07 19.1 20 2.23 6.28 2.1 13.12 1.75 19.78-.5 9.31-1.37 18.61-2.25 27.9l-2.36 25.08a7 7 0 0 1 -.88 3.29 6.31 6.31 0 0 1 -2.71 2 33.77 33.77 0 0 1 -13.3 3 11.82 11.82 0 0 1 -5.68-1c-2.5-1.27-4-3.85-5.37-6.29l-10.23-18.21a5.39 5.39 0 0 1 -.89-2.45 6 6 0 0 1 .76-2.51c2-4.56 2.33-10.09-.19-14.39s-8.28-6.74-12.8-4.66c-4.71 2.17-6.44 7.86-7.66 12.9a136.81 136.81 0 0 0 -5.39-29.48"/><path d="m673.44 273c-.93-4.8-1.62-9.68-2.66-14.46-.44-2-1.6-2.94-3.33-3.94a28.55 28.55 0 0 1 -4.52-3.11 28 28 0 0 1 -9.76-19.49 1.08 1.08 0 0 0 -1.61-.93 123.7 123.7 0 0 0 -10.73 7.93c-4.62 3.62-9.2 7.3-13.84 10.91-1.92 1.49-3.84 3-5.81 4.41-.74.54-1.49 1.08-2.26 1.59a4 4 0 0 1 -3.59.73 24.94 24.94 0 0 1 -2.64-.91c-.36-.13-.72-.27-1.09-.39-.63-.2-.08.05.14.38s-.09.29.09-.13c.06-.13.2-.41.34-.65a29.65 29.65 0 0 1 3.54-4.66c1.73-2 3.55-3.89 5.45-5.7.78-.75 1.57-1.48 2.4-2.16.25-.2.51-.4.78-.58.11-.08.26-.15.37-.24s.14-.08.15-.08l-1.33-1.33a12.8 12.8 0 0 1 -11.95 8 4.86 4.86 0 0 1 -3.57-1.34 8 8 0 0 1 -1.41-4.36 18.41 18.41 0 0 1 1.15-8.18c2-5.45 6.32-9.74 11-13a66.86 66.86 0 0 1 15.59-8.07c10.93-4 23.27-5.6 34.79-3.62a22.05 22.05 0 0 1 4.08 1.06c1.47.55 2.74 1.48 4.18 2.11 2.89 1.27 5.52.06 8.39-.63a36.41 36.41 0 0 1 17.54.48c10.4 2.7 21 9 26.72 18.28 3.16 5.13 4.27 11 4.39 16.92.12 6.5-.47 13-1 19.52-1.08 13.42-2.45 26.82-3.67 40.24-.12 1.29-.09 2.86-1 3.9s-2.69 1.68-4 2.18a33 33 0 0 1 -9.3 2c-2.92.2-6.09.2-8.38-1.92-2-1.88-3.25-4.55-4.58-6.93l-5.11-9.07-2.39-4.29c-.71-1.26-2.17-3-2.21-4.52s1-2.87 1.43-4.13a19.28 19.28 0 0 0 .86-4.26 15.64 15.64 0 0 0 -1.18-7.56 12.21 12.21 0 0 0 -10.9-7.38c-4.84 0-8.27 3.56-10.09 7.73a40.25 40.25 0 0 0 -2.11 6.66l2 .28a139.89 139.89 0 0 0 -5.41-29.75 1 1 0 0 0 -2 .55 138.08 138.08 0 0 1 5.37 29.2c.08 1.1 1.73 1.46 2 .27 1.12-4.63 2.73-10.91 7.88-12.55s10.46 2.37 11.85 7.25a15.51 15.51 0 0 1 -.23 8.62c-.43 1.46-1.33 2.85-1.57 4.36s.49 2.83 1.21 4.12c3.43 6.13 6.83 12.29 10.33 18.39 1.33 2.32 2.91 4.74 5.36 6 2.66 1.36 5.84 1.27 8.74 1a34.83 34.83 0 0 0 9.38-2.2c2.62-1 5.2-2.16 5.83-5.17a89.62 89.62 0 0 0 1-9.69c.35-3.6.71-7.21 1-10.82.66-7 1.35-14 1.93-21.07.56-6.8 1.21-13.68 1.11-20.52-.1-6.17-1.16-12.29-4.28-17.68-5.64-9.76-16.27-16.4-26.86-19.57a40.67 40.67 0 0 0 -18-1.41 38.91 38.91 0 0 0 -4.68 1.13 6.37 6.37 0 0 1 -5.1-.17c-1.19-.6-2.31-1.32-3.56-1.82a22.25 22.25 0 0 0 -4.93-1.29 72 72 0 0 0 -36.3 4 68.1 68.1 0 0 0 -16 8.46c-4.66 3.4-8.79 7.65-11 13.06a20.44 20.44 0 0 0 -1.59 8.7c.13 2.53.61 5.63 2.74 7.28 4.09 3.19 10.71.77 14.22-2.16a14.81 14.81 0 0 0 4.26-6 1.09 1.09 0 0 0 -1.33-1.33 12.57 12.57 0 0 0 -3.84 2.85c-1.83 1.69-3.57 3.48-5.25 5.33a49.34 49.34 0 0 0 -4.37 5.4c-.66 1-1.88 2.78-.81 3.9a2.33 2.33 0 0 0 1 .5c1 .35 2 .76 3 1.08a6.21 6.21 0 0 0 5.15-.17 52.23 52.23 0 0 0 5.13-3.63c4.92-3.71 9.72-7.57 14.55-11.39 4.5-3.55 8.95-7.34 13.81-10.39l-1.54-.96a30.12 30.12 0 0 0 9.06 19.69 29.76 29.76 0 0 0 4.26 3.41c1.63 1.08 4 1.66 4.57 3.72 1.35 4.74 2.21 9.69 3.24 14.52.18.84 1.44.48 1.28-.36z"/><path d="m746.92 331.32a162.52 162.52 0 0 1 -49.55 41.26 3.25 3.25 0 0 1 -2 .56c-2.4-.38-3.42-4.79-5.43-6.72a25.76 25.76 0 0 1 -6.65 7.14c-2.72 1.77-5.31 4.68-4.73 7.88.34 1.91 1.72 3.43 2.9 5a29.22 29.22 0 0 1 5.83 14.16 13.36 13.36 0 0 0 1.12 5c1.37 2.49 4.43 3.53 7.26 3.7 4.36.26 8.65-1 12.78-2.42a200.54 200.54 0 0 0 46.27-22.68c6.73-4.45 13.27-9.38 18.41-15.6 4.5-5.44 8-12.78 5.62-19.44-2.11-6-8.22-9.59-11.62-14.95-1.85-2.91-2.86-6.28-4.57-9.28s-4.46-5.75-7.9-6c-2.7-.21-5.25 1.15-7.63 2.47-2.8 1.55-5.07 2-7.88 3.58 2.06 2.59 4 5.95 6.74 7.78"/><path d="m746.43 330.84a185.08 185.08 0 0 1 -21.36 21.47 166.88 166.88 0 0 1 -24.8 17.23c-1.23.7-2.45 1.45-3.72 2.06s-1.66.09-2.34-.82c-1.25-1.66-2-3.67-3.45-5.16a1.14 1.14 0 0 0 -1.78.23 35.63 35.63 0 0 1 -3.71 4.59c-1.32 1.33-2.91 2.23-4.32 3.43-2.47 2.09-4.41 5.33-3.35 8.64a14.34 14.34 0 0 0 2.66 4.29 30 30 0 0 1 3.06 4.82 34.07 34.07 0 0 1 3 11 8.24 8.24 0 0 0 5.69 7.19c3.56 1.25 7.61.76 11.19-.08a98.32 98.32 0 0 0 11.8-3.89c3.78-1.41 7.52-3 11.21-4.6a198.29 198.29 0 0 0 21.71-11.24 133.91 133.91 0 0 0 19.2-13.45c5.56-4.84 11-10.79 13-18.07a16.22 16.22 0 0 0 -.37-10.39 25.44 25.44 0 0 0 -5.66-7.87c-2.36-2.45-4.83-4.82-6.49-7.82-1.79-3.24-2.81-6.89-5-9.89-2-2.63-4.72-4.79-8.12-5-4-.2-7.26 2.47-10.75 3.92a51.33 51.33 0 0 0 -5.17 2.37 1.25 1.25 0 0 0 -.25 1.94c2.19 2.72 4.2 5.76 7.13 7.75 1 .7 2-1 1-1.67-2.71-1.93-4.18-5-6.16-7.58l-.44 1.7a52.29 52.29 0 0 1 4.81-2.06c1.73-.72 3.33-1.65 5-2.48 3.27-1.62 6.51-1.78 9.29.83 2.53 2.36 3.74 5.65 5.12 8.73a29.68 29.68 0 0 0 5.4 8.11c4.2 4.53 9.18 8.7 8.75 15.48-.44 7-5.51 13.1-10.36 17.77a106.1 106.1 0 0 1 -17.16 12.88 199.65 199.65 0 0 1 -40.39 19.59c-3.67 1.3-7.43 2.68-11.33 3.07-3 .3-7 .22-9-2.37-1.17-1.49-1.16-3.56-1.41-5.35a30.17 30.17 0 0 0 -1.31-5.62 33.76 33.76 0 0 0 -5.57-9.91c-1.14-1.47-2.25-3.07-1.82-5a8.16 8.16 0 0 1 3.11-4.31 39.86 39.86 0 0 0 4.44-3.67 40.32 40.32 0 0 0 3.59-4.63l-1.79.23c2.29 2.3 3.43 8.68 7.94 6.88a52.6 52.6 0 0 0 7-3.89c2.31-1.38 4.57-2.83 6.8-4.33a160.16 160.16 0 0 0 24.83-20.61 142.57 142.57 0 0 0 11.79-13.6c.46-.62-.57-1.41-1.08-.83z"/><path d="m736.92 648.49c-14.32-1-31.23-1.42-41.56-12.92-7.46-8.32-9.58-20.07-10.51-30.84-.5-5.72-.58-11.46-.65-17.21-.1-6.8-.37-13.58-.94-20.36-1.36-16.28-3.82-32.45-6.06-48.63-2.32-16.78-4.6-33.6-5.44-50.53-.1-2-.17-4.08-.23-6.12a1.22 1.22 0 0 0 -2.43 0c.43 17.17 2.49 34.26 4.8 51.26 2.27 16.69 4.91 33.33 6.5 50.11.69 7.29 1.13 14.59 1.24 21.91.09 5.8.12 11.6.41 17.4.56 11.27 2.32 23.38 9.4 32.58 9.26 12.05 24.73 14.24 39 14.62 2.15 0 4.31.07 6.47.11a.69.69 0 0 0 0-1.38z"/><path d="m799.13 525.92a493.86 493.86 0 0 1 -62 72.09c-8.17 7.85-16.8 15.54-27.22 20.3-12.67 5.78-27.07 6.81-41.08 7a401.64 401.64 0 0 1 -128-19.06c-29.26-9.38-59.06-22.34-89.6-18.24-6 .8-12 2.27-18.05 2.15s-12.49-2.14-16-6.91c0 0-8.07-7.91-7.63-30.23s.07-23.9 19.61-21.82 23.1-5.29 23.1-5.29-7.56-.37-8-9 11.29-14.16 24-11.43 29.74 13.59 40.24 18.52 53.18 1.82 99.45 0 70.55-2.34 70.55-2.34 24.38-33.1 25.72-35 39.88-5.3 39.88-5.3l45.35 20.09" fill="#fff"/><path d="m757.38 326.43c5.54-9.4 14.22-17.67 25-19.56s21.32 2.71 32.11 2.87a39.79 39.79 0 0 0 25.06-8.53c5.78-4.6 10.65-11 17.83-12.77a9.48 9.48 0 0 1 4.93 0c2.92.88 4.87 3.59 6.32 6.27 6.24 11.47 7.22 25 7.64 38.05.08 2.5.09 5.17-1.29 7.25a10.54 10.54 0 0 1 -2.94 2.7c-5.62 3.76-12.25 5.65-18.79 7.39-5.56 1.47-11.2 2.89-17 2.87-7.58 0-14.9-2.51-22.26-4.3-12.35-3-26-3.93-37.25 1.89a39.54 39.54 0 0 0 -14.67 13.53"/><path d="m758.1 326.86c4.44-7.37 10.77-14.15 18.93-17.34 9.62-3.75 19.59-.71 29.32.84a48.65 48.65 0 0 0 14.6.41 41.43 41.43 0 0 0 13.36-4.31 52.35 52.35 0 0 0 11-8.21c3.09-2.83 6.25-5.87 10.19-7.48 2-.84 4.58-1.49 6.72-.64 2 .78 3.33 2.62 4.38 4.39a49.45 49.45 0 0 1 5.21 13.48 89.84 89.84 0 0 1 2.19 14.44c.19 2.41.32 4.81.42 7.22a33 33 0 0 1 0 7c-.43 2.43-2 3.76-4 5a41.4 41.4 0 0 1 -6.65 3.35 112.78 112.78 0 0 1 -14.43 4.4 49.48 49.48 0 0 1 -15.86 1.9c-5.39-.39-10.62-1.92-15.82-3.28-9.36-2.43-19.08-4.06-28.75-2.71a38.89 38.89 0 0 0 -24 12.77 29.44 29.44 0 0 0 -3.8 5.39c-.6 1.11 1 2.49 1.84 1.42a53.7 53.7 0 0 1 9.78-10.14 35 35 0 0 1 13.19-6c9.94-2.25 20.3-.66 30 1.87a123.51 123.51 0 0 0 15.89 3.53 48.3 48.3 0 0 0 16.49-1.16 127.72 127.72 0 0 0 15.12-4.18 45.68 45.68 0 0 0 7.22-3.22 17.08 17.08 0 0 0 5.58-4.38 11.59 11.59 0 0 0 1.79-6.87c0-2.42-.14-4.85-.26-7.27a125.93 125.93 0 0 0 -1.62-15.26 62.52 62.52 0 0 0 -4.34-14.47c-1.8-4.06-4.23-8.83-8.71-10.39s-9.52.7-13.13 3.22-6.8 5.91-10.22 8.85a38.59 38.59 0 0 1 -27.09 9.25c-10.49-.54-20.8-4.65-31.34-2.33-8.66 1.9-15.77 7.76-21 14.68a53.23 53.23 0 0 0 -3.62 5.42.84.84 0 0 0 1.45.85z"/><g fill="#32a16b"><path d="m761.57 323.37a67.19 67.19 0 0 0 7.83 11.52c2.64 3.16 6.7 6.17 7.45 10.44.21 1.21 2 .69 1.83-.51-.71-4.3-4.56-7.18-7.31-10.23a80.15 80.15 0 0 1 -8.72-11.85.63.63 0 0 0 -1.08.63z"/><path d="m655.91 292.9v-.11a.78.78 0 0 0 -.2-.48.46.46 0 0 0 -.22-.14.58.58 0 0 0 -.26-.06h-.18a.65.65 0 0 0 -.3.18l-.11.14a.67.67 0 0 0 -.09.34v.11a.39.39 0 0 0 .06.26.4.4 0 0 0 .14.22.48.48 0 0 0 .22.15.47.47 0 0 0 .26.05h.18a.58.58 0 0 0 .3-.18l.11-.13a.7.7 0 0 0 .09-.35z"/><path d="m658.46 290a.68.68 0 0 0 0-1.36.68.68 0 0 0 0 1.36z"/><path d="m659.8 294.57v-.11a.58.58 0 0 0 -.06-.26.64.64 0 0 0 -.14-.22.55.55 0 0 0 -.22-.14.45.45 0 0 0 -.26 0h-.18a.66.66 0 0 0 -.29.17l-.11.14a.67.67 0 0 0 -.09.34v.11a.58.58 0 0 0 .06.26.52.52 0 0 0 .14.22.6.6 0 0 0 .21.14.47.47 0 0 0 .26.05h.18a.69.69 0 0 0 .3-.17l.1-.14a.79.79 0 0 0 .1-.34z"/><path d="m661.59 291.46v.11a.54.54 0 0 0 .06.25.44.44 0 0 0 .13.2.49.49 0 0 0 .21.14.43.43 0 0 0 .25 0h.17a.62.62 0 0 0 .28-.17l.1-.13a.62.62 0 0 0 .09-.32v-.11a.51.51 0 0 0 0-.25.49.49 0 0 0 -.14-.21.49.49 0 0 0 -.2-.13.54.54 0 0 0 -.25-.06h-.17a.77.77 0 0 0 -.29.17l-.1.13a.63.63 0 0 0 -.09.33z"/><path d="m655.79 298.21h.21a.54.54 0 0 0 .25-.06.39.39 0 0 0 .2-.13.49.49 0 0 0 .14-.21.43.43 0 0 0 0-.25v-.17a.62.62 0 0 0 -.17-.28l-.13-.1a.62.62 0 0 0 -.32-.09h-.22a.43.43 0 0 0 -.25.05.46.46 0 0 0 -.2.13.39.39 0 0 0 -.13.21.5.5 0 0 0 -.06.24v.17a.62.62 0 0 0 .17.28l.13.1a.57.57 0 0 0 .32.09z"/><path d="m662.57 298.1a.64.64 0 0 0 0-1.27.64.64 0 0 0 0 1.27z"/><path d="m659.79 300.46a.67.67 0 0 0 0-1.33.67.67 0 0 0 0 1.33z"/><path d="m789 747.61c5.77 4.74 8 11.53 8.62 18.78.7 8 .5 16.11.94 24.15a.94.94 0 0 0 1.87 0c-.06-4.37-.29-8.74-.45-13.11s-.21-8.49-.77-12.7c-.89-6.71-3.4-14.3-9.43-18.13-.61-.38-1.36.54-.78 1z"/></g><path d="m798.53 525.57a499.91 499.91 0 0 1 -54 63.89c-9.37 9.38-19 19.22-30.67 25.72-12.25 6.82-26.33 8.52-40.12 8.94a391.86 391.86 0 0 1 -85.85-7 401.91 401.91 0 0 1 -41.89-10.43c-13.51-4.14-26.76-9.11-40.3-13.17-13.15-3.95-26.71-7.07-40.5-7.34a105 105 0 0 0 -20.35 1.82c-6.57 1.16-13.42 2.15-19.86-.18a16.26 16.26 0 0 1 -7.3-5.07c-.51-.65-1.66.22-1.16.89 8 10.77 23 7.08 34.27 5.51 14.42-2 29-.1 43 3.4s27.63 8.49 41.34 13.06a409.66 409.66 0 0 0 42.13 11.61 403.38 403.38 0 0 0 87.56 9.23c13.73-.06 27.9-.55 40.93-5.31 12.51-4.58 22.61-13.31 32.07-22.42a490 490 0 0 0 55.78-63.92q3.09-4.23 6.09-8.52c.51-.73-.69-1.42-1.2-.7z"/><path d="m415.5 568.54a21.68 21.68 0 0 0 10.5 3.46c.9 0 .89-1.32 0-1.4a23.44 23.44 0 0 1 -9.87-3.09.61.61 0 0 0 -.62 1.06z"/><path d="m414.26 548.92a17.88 17.88 0 0 0 15.09 4.63c1-.16.54-1.57-.4-1.44a17.36 17.36 0 0 1 -13.76-4.11c-.63-.55-1.54.34-.93.93z"/><path d="m416.85 530a47.93 47.93 0 0 0 21.23 1.5 65 65 0 0 0 10.67-2.5 53.44 53.44 0 0 0 10.16-4.13c.94-.53.3-2.22-.75-1.79-3.25 1.32-6.38 2.85-9.72 4a63.76 63.76 0 0 1 -10.2 2.58 48.72 48.72 0 0 1 -21.05-.89.64.64 0 0 0 -.34 1.24z"/><path d="m456.25 506.51a52.72 52.72 0 0 1 24.52 2.75c7.67 2.78 13.87 7.78 20.64 12.16a41.37 41.37 0 0 0 10.64 5.15 47.55 47.55 0 0 0 12.67 1.71c9.11.17 18.28-.53 27.39-.89l56.81-2.2q28.27-1.1 56.56-2.22c4-.15 8.63.21 12.27-1.8s6-5.79 8.52-8.87c5.67-7 11.07-14.19 16.31-21.51 1.29-1.81 2.57-3.62 3.84-5.45.74-1.07-1-2.06-1.74-1q-7.81 10.95-16.21 21.46c-2.73 3.41-5.41 6.87-8.29 10.16a12 12 0 0 1 -4.71 3.66 20.58 20.58 0 0 1 -6.25.83l-56.06 2.2-55.82 2.22c-9.26.36-18.53.84-27.8 1.08a65.57 65.57 0 0 1 -12.91-.65 35.19 35.19 0 0 1 -11.42-4.21c-6.82-3.91-12.74-9.15-20-12.25a54.18 54.18 0 0 0 -23.31-4.27 56.54 56.54 0 0 0 -5.81.56c-.78.12-.61 1.49.19 1.4z"/><g fill="#32a16b"><path d="m785.87 388.83q-45.58 43.94-87.47 91.47c-1.89 2.15-3.87 4.52-4.08 7.38a12.78 12.78 0 0 0 1.51 6 158.65 158.65 0 0 0 76.57 78.43c2.4 1.13 5 2.23 7.63 1.81s4.88-2.39 6.85-4.29a321.09 321.09 0 0 0 54.81-69.63c4.54-7.76 8.88-16.37 7.86-25.3"/><path d="m214.34 684.79c-104.57 0-189.34-8.46-189.34-18.91v124.66h378.68v-124.66c0 10.45-84.77 18.91-189.34 18.91z"/><path d="m248.94 636.51a107.63 107.63 0 0 0 -7.43 11.49q-1.65 2.84-3.21 5.74c-.9 1.67-2.23 3.58-2.12 5.57.19 3.29 3.54 5.47 6.25 6.65 1.45.63 2.95 1.13 4.43 1.69a23.29 23.29 0 0 1 2.24 1c.79.41 1.49 1 2.3 1.36s1.86-.41 1.27-1.27c-1.54-2.22-5.09-3.11-7.49-4s-7-2.64-6.78-5.86a7.77 7.77 0 0 1 1.09-2.79q.67-1.37 1.38-2.73c.94-1.8 1.91-3.6 2.9-5.37 2-3.62 4.27-7.12 6.36-10.7.46-.79-.67-1.38-1.19-.7z"/><path d="m161.5 653.19c4.37.13 6.65 5.06 10.87 5.8 3.06.53 6.53-2.22 5.14-5.45a.81.81 0 0 0 -1.09-.29c-1.23.58-1.29 1.93-.81 3a7.36 7.36 0 0 0 3.48 3.22c3.41 2 7.32 2.78 11.15 3.5a124.47 124.47 0 0 1 26.19 7.59c.74.31 1.39-.77.64-1.1a115.74 115.74 0 0 0 -22.26-7.14c-3.41-.72-6.88-1.24-10.22-2.28a23 23 0 0 1 -5-2.19c-.53-.31-3.81-2.55-2.34-3.27l-1.09-.28c.7 1.56-1.15 3-2.55 3.2-1.66.17-3.23-.85-4.51-1.78-2.34-1.69-4.5-3.8-7.57-3.82a.62.62 0 0 0 0 1.24z"/><path d="m158.36 665.93c9.62 2.83 19.14 6 28.61 9.27.79.28 1.11-1 .34-1.24-9.41-3.44-19-6.46-28.61-9.24a.63.63 0 0 0 -.34 1.21z"/><path d="m202.09 678.78 1-.33a.71.71 0 0 0 .41-.31.51.51 0 0 0 .09-.26.54.54 0 0 0 0-.28.67.67 0 0 0 -.31-.41.73.73 0 0 0 -.54-.07l-1 .33a.71.71 0 0 0 -.41.31.5.5 0 0 0 -.08.26.45.45 0 0 0 0 .28.72.72 0 0 0 .32.41.7.7 0 0 0 .53.07z"/><path d="m363.25 487.52a5.6 5.6 0 0 0 7.76-1.14 5.3 5.3 0 0 0 1.07-3.91 1.56 1.56 0 0 0 -2.37-1.19c-1.73 1-2.38 5-.46 6.1 1.21.72 2.58-.12 3.59-.8a13.22 13.22 0 0 0 3.55-3.6h-1.39c1.19 2.64 4.66 2 6.87 1.37 3-.92 5.9-2.08 8.81-3.22a75.63 75.63 0 0 1 20.48-5.34c.94-.09 1-1.54 0-1.49a62.07 62.07 0 0 0 -19 4.46c-2.7 1-5.37 2.14-8.1 3.1-1.8.64-6.51 2.84-7.65.28a.84.84 0 0 0 -1.44 0 11.3 11.3 0 0 1 -3.59 3.46c-.8.47-1.52.63-1.64-.48a3.19 3.19 0 0 1 .33-1.95c.79-1 .46.95.3 1.37a4.17 4.17 0 0 1 -6.45 1.87c-.69-.47-1.31.63-.65 1.11z"/><path d="m395.42 497.15a90.45 90.45 0 0 1 17.58-5.86c.89-.2.51-1.56-.38-1.36a86.37 86.37 0 0 0 -17.8 6.14c-.73.34-.09 1.41.63 1.08z"/><path d="m407.78 509.16a23.29 23.29 0 0 1 4.14-2 .67.67 0 1 0 -.36-1.29 24.33 24.33 0 0 0 -4.42 2.21.64.64 0 0 0 .64 1.1z"/></g><g fill="#fff"><path d="m430.32 435.62a2 2 0 0 0 .91 2.43 4 4 0 0 0 3.44 0 6.31 6.31 0 0 0 3.89-5.44.78.78 0 0 0 -1.17-.67 4 4 0 0 0 -1.92 3.45 2.68 2.68 0 0 0 2.16 2.46c1.6.26 2.77-1 3.8-2 1.46-1.42 4-1.66 5.88-2.22a180.26 180.26 0 0 0 23.69-8.8c.83-.38.11-1.56-.7-1.21a200.53 200.53 0 0 1 -18.85 7.07c-3 1-6.21 1.59-9.16 2.7-1.24.47-1.92 1.41-2.92 2.23-.68.56-1.86 1-2.21-.15-.28-.87.42-1.71 1.06-2.2l-1.22-.67a4.67 4.67 0 0 1 -1.64 3.31 4.56 4.56 0 0 1 -1.57.9c-.64.21-2.75.54-2.28-.86.26-.77-.92-1.06-1.2-.33z"/><path d="m437.65 452.19a111.77 111.77 0 0 1 11-3.6.7.7 0 0 0 -.37-1.34 114.56 114.56 0 0 0 -10.95 3.7c-.76.3-.43 1.54.34 1.24z"/><path d="m281.82 554.52 8.08-23.24-1.49-.2c-.16 1.38-.33 2.76-.48 4.14a2.85 2.85 0 0 0 .53 2.45c1.24 1.22 3.11 0 4-1a16.86 16.86 0 0 0 2.72-6.24 24.23 24.23 0 0 0 .75-7.34l-1.42.58 1.65 1.65a.84.84 0 0 0 1.32-.17 89.8 89.8 0 0 0 6.93-18.36.84.84 0 0 0 -1.62-.44 93.06 93.06 0 0 1 -6.76 18l1.32-.17-1.67-1.64a.83.83 0 0 0 -1.41.59 22.72 22.72 0 0 1 -1.67 9.87c-.4 1-1.34 3.67-2.73 3.62-.89 0 0-4.74.06-5.51s-1.23-1-1.49-.2l-7.92 23.28c-.28.83 1 1.17 1.3.36z"/><path d="m324.8 507c-4.58 11.77-8.88 23.68-12.6 35.75-.29.94 1.17 1.33 1.47.4 4-12 8-24 12.37-35.81.29-.78-1-1.11-1.24-.34z"/><path d="m342.39 511.39c-1.48 4.43-3 8.85-4.4 13.33-.26.86 1.05 1.2 1.34.36 1.53-4.41 2.87-8.9 4.3-13.35.25-.79-1-1.13-1.24-.34z"/></g><g fill="#32a16b"><path d="m711.32 694.81a60 60 0 0 0 23.29-20.81c.57-.85-.81-1.65-1.37-.8a62.41 62.41 0 0 1 -22.6 20.43c-.77.42-.09 1.54.68 1.16z"/><path d="m894.77 670c2.18.58 3.75 2.16 5.24 3.77a58.65 58.65 0 0 0 4.46 4.46 48.07 48.07 0 0 0 33.82 11.77c.93-.06 1-1.48 0-1.46a48.81 48.81 0 0 1 -24.09-5.46 47.38 47.38 0 0 1 -10.18-7.2c-2.75-2.56-5.08-6.15-8.91-7.12a.64.64 0 0 0 -.34 1.24z"/><path d="m450.47 333.34a.62.62 0 0 0 0-1.24.62.62 0 0 0 0 1.24z"/><path d="m358.49 384.6a265.7 265.7 0 0 0 -61.16-6.9 201.37 201.37 0 0 0 -57.8 8.69 170.11 170.11 0 0 0 -46.39 22.43c-14.14 9.81-27.14 22.08-36.54 36.58-4.86 7.51-8.59 15.87-9.74 24.8a38.49 38.49 0 0 0 3.78 22.33c3.33 6.56 8.82 12.08 15.82 14.6 6.45 2.33 13.8 1.19 19.68-2.17 5.71-3.26 10.22-8.84 10.9-15.52.75-7.5-3.66-14.48-9.62-18.66-15.21-10.65-35-1.31-46.68 10.16-12.67 12.41-20.32 29.43-25 46.3a142.69 142.69 0 0 0 -3.84 57.42c.65 4.68 1.55 9.32 2.65 13.91.29 1.23 2.18.71 1.89-.52a142 142 0 0 1 -1.85-55.52c2.83-17.2 8.62-34.55 18.47-49 9.15-13.45 24.54-26.74 41.92-25.09 7.57.72 14.83 5.2 18.27 12.07a16.2 16.2 0 0 1 -2.68 18.34 23.27 23.27 0 0 1 -17.5 7.5c-7-.17-13.38-4.34-17.57-9.81a35.24 35.24 0 0 1 -7-20.38c-.2-8.5 2.56-16.86 6.53-24.28a102.28 102.28 0 0 1 15.17-20.65 143.64 143.64 0 0 1 18.37-16.75 164.51 164.51 0 0 1 43.24-23.56 191.38 191.38 0 0 1 53.38-11 247.86 247.86 0 0 1 58.83 3.46c4.7.82 9.37 1.77 14 2.81 1 .22 1.4-1.29.42-1.51z"/><path d="m64.45 546.16a129.6 129.6 0 0 0 6.38 74.7 127 127 0 0 0 9.5 19.08c.54.88 1.93.08 1.39-.81a129.14 129.14 0 0 1 -18.55-71.42 124.87 124.87 0 0 1 2.54-21.2c.17-.82-1.08-1.17-1.26-.35z"/></g><g fill="#fff"><path d="m95.45 733.79c-.23 8.89-.27 17.79-.3 26.69s-.19 17.8 0 26.69a1 1 0 0 0 2.07 0c.19-8.89 0-17.8 0-26.69s-.08-17.8-.31-26.69a.73.73 0 0 0 -1.46 0z"/><path d="m154.53 733.79c-.23 8.89-.27 17.79-.3 26.69s-.19 17.8 0 26.69a1 1 0 0 0 2.08 0c.18-8.89 0-17.8 0-26.69s-.07-17.8-.3-26.69a.73.73 0 0 0 -1.46 0z"/><path d="m213.61 733.79c-.23 8.89-.28 17.79-.3 26.69s-.2 17.8 0 26.69a1 1 0 0 0 2.07 0c.19-8.89 0-17.8 0-26.69s-.07-17.8-.3-26.69a.73.73 0 0 0 -1.46 0z"/><path d="m272.69 733.79c-.24 8.89-.28 17.79-.31 26.69s-.19 17.8 0 26.69a1 1 0 0 0 2.07 0c.19-8.89 0-17.8 0-26.69s-.07-17.8-.31-26.69a.73.73 0 0 0 -1.45 0z"/><path d="m331.76 733.79c-.23 8.89-.27 17.79-.3 26.69s-.19 17.8 0 26.69a1 1 0 0 0 2.07 0c.19-8.89 0-17.8 0-26.69s-.07-17.8-.3-26.69a.73.73 0 0 0 -1.46 0z"/><path d="m736.32 535.73q20.53-25.33 41-50.73t40.73-50.68c1.69-2.12 3.49-4.19 5-6.41a11.31 11.31 0 0 0 2.45-6.61c-.11-3.68-4-7.34-7.68-5.43-1.13.59-.14 2.15 1 1.67 3.52-1.53 4-5.56 3.44-8.94-.73-4.2-3.22-8-5.65-11.38a64.77 64.77 0 0 0 -20.82-18.7 63.71 63.71 0 0 0 -14.66-6.07.83.83 0 0 0 -.44 1.6 61.32 61.32 0 0 1 23 12 64.05 64.05 0 0 1 9 9.14c2.57 3.22 5.27 6.89 6.79 10.75 1.23 3.12 2.2 8.28-1.64 9.95l1 1.67c1.68-.88 3.44.47 4.25 1.92 1 1.83.39 4-.56 5.74a39.61 39.61 0 0 1 -4.13 5.62l-4.68 5.83q-9.51 11.85-19 23.73-19 23.73-38 47.51-10.71 13.46-21.4 26.93c-.51.64.38 1.56.91.91z"/><path d="m845.84 500.87c3.21 17.55 6.78 35 10.23 52.54s6.82 34.84 10.38 52.23l6 29.63a1 1 0 0 0 1.18.67l4.06-1.09-1.2-.91c0 2.36.12 4.72.2 7.09a.82.82 0 0 0 1.64 0c0-2.37.07-4.73 0-7.09a1 1 0 0 0 -1.19-.91l-4.07 1.06 1.18.67q-5.16-26.25-10.43-52.48t-10.63-52.16c-2-9.87-4-19.76-6.16-29.6-.18-.86-1.45-.49-1.29.35z"/><path d="m884.06 646.85 2-2a.72.72 0 0 0 0-1 .71.71 0 0 0 -1 0l-2 2a.68.68 0 0 0 0 1 .69.69 0 0 0 1 0z"/></g></svg>