<?xml version="1.0" ?><svg viewBox="0 0 1000 1000" xmlns="http://www.w3.org/2000/svg"><path d="m509.55 661.31a164.62 164.62 0 0 0 65.39 19.57 114.94 114.94 0 0 0 22.18.07c7-.77 14-2.64 19.77-6.76a41.08 41.08 0 0 0 12-14.08 85.58 85.58 0 0 0 6.89-17.74c2.12-7.53 3.8-15.19 5.2-22.88 5.69-31.21 6.41-63 7.37-94.66s2.11-63.28 8.78-94.21c1.48-6.85 3.49-13.6 4.63-20.52 1-5.9 1.44-12.13-.27-18a20.54 20.54 0 0 0 -11.3-13.09c-5.64-2.51-12-2.66-18.07-2.08a86.29 86.29 0 0 0 -9.33 1.5c-1.76.38-1 2.91.73 2.65 11.07-1.67 26.19-4 33.1 7.37 3.05 5 3.3 11.07 2.76 16.74-.6 6.31-2.32 12.43-3.8 18.58-7.16 29.74-8.92 60.43-10 90.89-1 30.65-1.28 61.46-5.64 91.87-2 14.24-4.67 28.78-9.5 42.37a55.89 55.89 0 0 1 -8.62 16.38 32.53 32.53 0 0 1 -15.68 10.8c-6.8 2.14-14 2.43-21 2.38a159.45 159.45 0 0 1 -22.26-1.68 164 164 0 0 1 -42.72-12.39c-3.3-1.46-6.54-3.05-9.73-4.73-1.05-.55-2 1-.94 1.6z"/><path d="m456.11 425.49c8 4.6 14.74 11.11 21.24 17.67a756.46 756.46 0 0 1 59.41 67.47 26.69 26.69 0 0 1 3.42 5.18c1.7 3.75 1.61 8.07.92 12.13-1.35 8-4.83 15.49-8.67 22.64a216.94 216.94 0 0 1 -19.81 30.42c-6.05 7.78-13.41 15.61-23.13 17.31-9.33 1.63-18.92-3-25.36-10s-10.2-15.93-13.25-24.9"/><path d="m455.66 426.27c7.78 4.75 14.34 11.1 20.68 17.59q10 10.27 19.71 20.88 19.44 21.33 37.28 44c2.89 3.69 6.08 7.23 6.55 12.1.43 4.51-.63 9.13-2 13.4-2.81 8.87-7.57 17.15-12.37 25.06a198.51 198.51 0 0 1 -15.81 22.7c-5 6.06-10.94 12.19-18.75 14.24s-16.18-.9-22.28-6c-6.68-5.54-10.76-13.35-14-21.26-.8-2-1.55-4-2.26-6s-3.76-1.13-3.11.86c2.82 8.68 6.37 17.23 12.31 24.27 5.48 6.49 13.27 11.3 21.82 12.12 8.73.83 16.57-3.5 22.7-9.36a85 85 0 0 0 8.48-9.78q4.49-5.83 8.57-12a181 181 0 0 0 14.46-25.45 64.62 64.62 0 0 0 4.64-13.58c.94-4.54 1.42-9.51-.27-13.94a24.09 24.09 0 0 0 -3.75-6.15q-2.31-3-4.65-5.89-4.7-5.9-9.5-11.69-9.71-11.69-19.92-22.92c-6.74-7.44-13.62-14.78-20.68-21.92-6.66-6.73-13.32-13.64-21-19.2a57.91 57.91 0 0 0 -5.94-3.72.9.9 0 0 0 -.91 1.56z"/><g fill="#32a16b"><path d="m579.79 627.63a1487.68 1487.68 0 0 0 52-352.67c.31-11.74 4.46-27.5 16.19-26.9 3.26.17 6.28 1.78 9 3.63 10.86 7.44 18.16 18.94 27.52 28.2s22.91 16.57 35.37 12.33c14.76-5 20.39-23.11 32.93-32.38 13.05-9.64 33.47-7.15 43.82 5.34 6.65 8 10 19.8 19.78 23.55s20.53-3 26.82-11.3 10.14-18.42 17.4-25.9 20.17-11.35 27.9-4.37c2.83 2.56 4.49 6.17 5.7 9.79 4.61 13.82 3.6 28.81 2.33 43.32a1599.42 1599.42 0 0 1 -49.47 278.85c-4.9 18.13-10.56 36.94-23.57 50.47s-35.7 19.67-50.86 8.61c-7.29-5.32-11.86-13.73-19.17-19-14.08-10.13-34.12-5.81-49 3.08s-27.28 21.72-42.8 29.48c-24.75 12.32-56.37 9.38-78.42-7.3-4.32-3.27-6.33-9.65-3.47-16.83"/><path d="m580.69 627.88a1487.8 1487.8 0 0 0 33.11-150.35 1466.15 1466.15 0 0 0 17.12-152.53q1.16-19.12 1.81-38.27c.33-9.63-.28-20 3.89-28.94 1.58-3.39 4-6.79 7.72-8 5.31-1.69 10.4 1.64 14.42 4.79 8.66 6.76 15 15.89 22.49 23.83 7.08 7.49 16 14.27 26.48 16 9.55 1.54 18.06-2.2 24.64-9 6.2-6.42 10.59-14.35 16.88-20.69a31.65 31.65 0 0 1 47.92 3.28c5 7 8.35 16.15 16.13 20.69 8.68 5.07 18.75 1.27 25.78-4.84 8.11-7.06 12-17.41 18.13-26 5.5-7.77 15.19-15.28 25.36-12.41 5.14 1.46 8.12 5.88 9.87 10.67a64.72 64.72 0 0 1 3.56 18.18c.78 12.3-.72 24.7-1.87 36.94q-1.8 19.15-4.07 38.27-9.12 77-25.72 152.94-8.21 37.6-18.23 74.79c-5.42 20.1-11.7 43.51-29.45 56.43-7.69 5.6-17.21 9.11-26.79 8.8a29.94 29.94 0 0 1 -13.64-3.65c-4.49-2.52-8-6.31-11.31-10.14s-6.88-8-11.25-11a32.41 32.41 0 0 0 -13.67-5.25c-9.87-1.45-19.94.93-28.94 4.94-20.42 9.1-34.94 27.82-56 35.82a75.76 75.76 0 0 1 -60-3.07c-4.15-2.07-9.15-4.56-12.32-8-3.56-3.89-3.4-9.43-1.64-14.09.63-1.66-2-2.37-2.65-.73-1.71 4.53-2 9.6.28 14 2.2 4.18 6.86 6.76 10.81 9.06a77.51 77.51 0 0 0 28.81 9.7 78.43 78.43 0 0 0 30.92-2.05c10.75-3 20.25-8.58 29.18-15.15 17.44-12.82 35.38-29.86 58.77-28a30.78 30.78 0 0 1 14.54 4.87c4.66 3.07 8.17 7.53 11.81 11.68 3.36 3.84 7 7.54 11.47 10a32.53 32.53 0 0 0 12.88 3.82c9.5.85 19.25-2.11 27.28-7.11 8.87-5.52 15.51-13.85 20.41-23 5.22-9.7 8.59-20.27 11.54-30.83 3.48-12.45 6.69-25 9.8-37.51q9.49-38.31 17.1-77.06 7.63-38.92 13.33-78.2 5.64-38.87 9.38-78c1.21-12.64 2.8-25.46 2.14-38.18a72.3 72.3 0 0 0 -3-17.76c-1.48-4.76-3.62-9.53-7.76-12.55-7.61-5.57-18.35-2.61-25.29 2.62-8.68 6.55-12.85 17.25-18.74 26.05-5.52 8.26-15.71 17.42-26.51 14-9.29-3-13-13.77-18.18-21-10.54-14.66-32.79-18.86-47.51-7.82-14 10.53-20.94 35.14-42 33.17-11.48-1.07-21-9-28.47-17.2s-14.11-17.42-23.3-23.9c-4-2.82-8.69-5-13.68-3.87a14 14 0 0 0 -8.22 6.08c-5 7.32-5.59 16.75-5.83 25.31q-1.12 39.27-4.32 78.46-3.23 39.57-8.57 78.94-5.29 38.94-12.55 77.58t-16.57 76.82q-4.53 18.62-9.55 37.1a.94.94 0 0 0 1.81.5z"/><path d="m135.3 975c-9.21-41.93-15.7-89-10-131.59s21.05-84.24 47.3-118.21c1.81-2.35 3.76-4.73 6.39-6.09 3.75-2 8.23-1.54 12.45-1.32 17.47.93 34.87-2.2 52.28-3.88 23.06-2.22 46.28-1.9 69.44-1.58l63.73.88c16 .22 32.53.57 46.93 7.47 2.71 1.3 5.41 2.9 7.14 5.35 1.38 2 2.09 4.34 3.67 6.13s4.67 2.66 6.27.89c1.88 2.47-1.16 5.61-2.08 8.57-.64 2-.21 4.22.22 6.3 15.61 75.67 43.39 153.18 65.96 227.08"/><path d="m136.24 974.74c-7.3-35-12.82-70.55-11.61-106.37a260.36 260.36 0 0 1 22.65-97.93 223 223 0 0 1 25-42.41c2.39-3.17 4.88-6.86 8.81-8.19s8.43-.57 12.52-.43a195.56 195.56 0 0 0 28-1.48c9.34-1 18.66-2.27 28-3s18.89-1.08 28.35-1.22c19-.26 38.09.21 57.13.48l28.83.4c9 .13 18.12.1 27.16.58 8.59.46 17.22 1.53 25.41 4.28 3.84 1.29 8.13 2.85 11.25 5.52 2.9 2.48 3.49 6.57 6.4 9 2.26 1.89 5.58 2.36 7.83.24l-2.53-.33c.89 1.38-.19 2.94-.85 4.21a13.87 13.87 0 0 0 -1.7 4.57c-.46 3.59.85 7.46 1.58 10.94q2.57 12.1 5.48 24.12c3.94 16.22 8.29 32.34 12.9 48.39 9.26 32.24 19.6 64.14 29.93 96.06 5.72 17.69 11.56 35.38 17 53.17a1.2 1.2 0 0 0 2.32-.64c-9.78-32-19.92-63.88-29.83-95.84-10-32.18-19.74-64.43-27.86-97.14q-3.37-13.58-6.38-27.25-.72-3.3-1.42-6.62c-.43-2.07-.91-4.22-.13-6.27 1.16-3 3.85-6 1.74-9.32a1.64 1.64 0 0 0 -2.53-.33c-1.32 1.26-3.33 0-4.23-1.19-1.26-1.59-1.89-3.57-3-5.25-2.18-3.24-5.62-5.17-9.11-6.73a79.19 79.19 0 0 0 -24.14-6.07c-8.81-.95-17.69-1-26.54-1.09l-29.21-.39c-19.33-.27-38.67-.7-58-.63a504.55 504.55 0 0 0 -57.23 3.55 278.68 278.68 0 0 1 -28 2.31c-4.56.07-9.1-.34-13.65-.34-3.88 0-7.62.76-10.69 3.25s-5.16 5.71-7.4 8.74q-3.66 5-7 10.14a225.45 225.45 0 0 0 -12.43 21.66 258.8 258.8 0 0 0 -26.46 95.74c-2.75 35.79 1.88 71.91 9 106.95.86 4.25 1.8 8.48 2.77 12.7.28 1.23 2.14.71 1.88-.52z"/></g><path d="m431.6 262.86c-.15-6.44 5.21-66.61-43.22-73.58-18.28-2.63-36.84 1.76-52.6 11.37-4.91 3-14.12-13.12-18.63-9.53-24.66 19.63-39.66 59-33.25 97.75 6.23 37.63 32.89 74.66 77.08 86.4 25.38 6.74 37.4-6 48.54-17.95s17.33-28.15 20.1-44.57 2.38-33.22 1.98-49.89z" fill="#fff"/><path d="m339.81 257.57a25.28 25.28 0 0 0 7-.18c2.48-.25 4.94-.57 7.42-.74a128.22 128.22 0 0 1 14.67-.11c3.2.15 3.19-4.82 0-5a107.53 107.53 0 0 0 -14.91.33c-2.44.22-4.9.48-7.32.89s-5.17.93-7.19 2.26c-.9.6-.92 2.29.33 2.52z"/><path d="m425.76 255.38c-1.5-1.35-4-2-5.92-2.39a56.18 56.18 0 0 0 -6.45-.89 70.24 70.24 0 0 0 -13 0 2.56 2.56 0 0 0 -2.49 2.49 2.5 2.5 0 0 0 2.49 2.48 81.49 81.49 0 0 1 12.5-.19c2 .13 4.05.41 6.08.65s4.27.69 6.15.2a1.39 1.39 0 0 0 .61-2.3z"/><path d="m355.93 276.77a1.48 1.48 0 0 0 -1.32-1.41 2.8 2.8 0 0 0 -1.79.51 6.55 6.55 0 0 0 -2.43 2.78 5.2 5.2 0 0 0 -.34 3.85 4.38 4.38 0 0 0 2.81 2.86 4.54 4.54 0 0 0 5.65-3.21 4.24 4.24 0 0 0 -1.32-4.07 3.92 3.92 0 0 0 -4.49-.4 3.53 3.53 0 0 0 -1.62 2.1 3.82 3.82 0 0 0 .32 2.66 3 3 0 0 0 2.44 1.69 2 2 0 0 0 2-2 2.15 2.15 0 0 0 -.07-.62 2.47 2.47 0 0 0 -1.06-1.3l.41.32-.53-.41.41.32a2.13 2.13 0 0 1 -.26-.26l.32.41a1.71 1.71 0 0 1 -.22-.4l.2.49a2.24 2.24 0 0 1 -.1-.37l.07.54a1.77 1.77 0 0 1 0-.46l-.01.61a2.42 2.42 0 0 1 .1-.36l-.2.48a2.54 2.54 0 0 1 .16-.28l-.31.41a2 2 0 0 1 .28-.3l-.4.32a2 2 0 0 1 .37-.27l-.48.2a2.07 2.07 0 0 1 .49-.12l-.53.07a2.09 2.09 0 0 1 .5 0l-.53-.08a2.75 2.75 0 0 1 .49.14l-.48-.2c.11.05.2.13.3.18-.27-.23-.34-.27-.19-.14l.09.09c.1.12.05 0-.17-.22a.71.71 0 0 1 .1.14 2.48 2.48 0 0 1 .17.32l-.2-.47a2.61 2.61 0 0 1 .16.61l-.07-.52a2.22 2.22 0 0 1 0 .63l.07-.52a2.55 2.55 0 0 1 -.15.54l.2-.47a2.29 2.29 0 0 1 -.14.27l-.08.13c-.12.2.15-.21.17-.21s-.17.17-.21.21-.11.08-.11.1.44-.3.17-.14a2.26 2.26 0 0 1 -.26.16l-.13.07c-.17.1.42-.15.24-.1a6.42 6.42 0 0 1 -.63.15l.5-.06a3.09 3.09 0 0 1 -.68 0l.5.07-.44-.11c-.29-.08.42.22.17.07l-.2-.11c-.26-.15.31.29.1.07l-.19-.18c-.23-.23.23.35.07.09 0-.08-.1-.15-.14-.23a.8.8 0 0 1 -.08-.16l.11.27a.75.75 0 0 1 -.09-.25 5.11 5.11 0 0 1 -.13-.53c-.08-.33 0 .43 0 .11 0-.09 0-.18 0-.28s0-.18 0-.27a1.1 1.1 0 0 1 0-.18c0 .29 0 .36 0 .23a3.92 3.92 0 0 1 .15-.59.58.58 0 0 1 .05-.14c.05-.13 0-.13 0 0s-.06.13 0 0a.61.61 0 0 1 .07-.14 4.68 4.68 0 0 1 .3-.54c.05-.09.11-.17.17-.26l.09-.13c-.14.19.08-.1.11-.14s.24-.3.35-.46l.17-.25.08-.12c-.11.14-.13.18-.07.1s.24-.16.07-.08c.1-.05.09-.05 0 0l.21-.09c.08 0 .07 0 0 0a.66.66 0 0 1 -.7-.1 1 1 0 0 0 1.6-.66z"/><path d="m409 278.42a1.48 1.48 0 0 0 -1.32-1.41 2.74 2.74 0 0 0 -1.79.51 6.55 6.55 0 0 0 -2.43 2.78 5.2 5.2 0 0 0 -.34 3.85 4.38 4.38 0 0 0 2.8 2.85 4.53 4.53 0 0 0 5.66-3.21 4.23 4.23 0 0 0 -1.32-4.06 3.93 3.93 0 0 0 -4.49-.41 3.58 3.58 0 0 0 -1.62 2.11 3.84 3.84 0 0 0 .32 2.66 3 3 0 0 0 2.44 1.69 2 2 0 0 0 2-2 2.15 2.15 0 0 0 -.08-.62 2.41 2.41 0 0 0 -1.05-1.3l.41.32-.53-.41.41.32a1.66 1.66 0 0 1 -.26-.27l.32.42a1.74 1.74 0 0 1 -.23-.4l.21.49a1.56 1.56 0 0 1 -.1-.37l.07.54a1.77 1.77 0 0 1 0-.46l-.08.54a2.54 2.54 0 0 1 .1-.37l-.2.49a2.54 2.54 0 0 1 .16-.28l-.32.41a2.06 2.06 0 0 1 .29-.3l-.4.32a2 2 0 0 1 .43-.25l-.48.2a2.07 2.07 0 0 1 .49-.12l-.53.07a2.09 2.09 0 0 1 .5 0l-.53-.07a2.75 2.75 0 0 1 .49.14l-.48-.2c.11 0 .2.13.3.18-.28-.23-.34-.27-.19-.14l.09.09c.1.12.05 0-.17-.23l.1.15a2 2 0 0 1 .17.32l-.2-.47a2.61 2.61 0 0 1 .16.61l-.07-.52a3.31 3.31 0 0 1 0 .63l.07-.52a2.72 2.72 0 0 1 -.15.54l.2-.47-.14.27a.57.57 0 0 0 -.08.13c-.12.2.15-.21.17-.22s-.17.18-.21.22-.11.08-.11.1.44-.31.17-.14a2.26 2.26 0 0 1 -.26.16l-.14.07c-.16.1.43-.15.25-.1a6.42 6.42 0 0 1 -.63.15l.5-.06a3.86 3.86 0 0 1 -.68 0l.5.06a3.48 3.48 0 0 1 -.44-.1c-.29-.08.42.22.17.07l-.2-.11c-.26-.15.31.29.1.07l-.19-.19c-.24-.22.23.36.07.1-.05-.08-.1-.15-.14-.23l-.08-.16.11.27a.8.8 0 0 1 -.09-.26c-.06-.17-.09-.35-.14-.52-.07-.33 0 .42 0 .11 0-.1 0-.19 0-.28a2.44 2.44 0 0 1 0-.27 1.1 1.1 0 0 1 0-.18c-.05.29-.06.36 0 .23a3.92 3.92 0 0 1 .15-.59.88.88 0 0 1 0-.15c.05-.12 0-.12 0 0l.06-.13c.1-.19.2-.37.31-.54s.11-.17.17-.26.23-.33.09-.13.08-.1.11-.14.24-.3.35-.46a2.2 2.2 0 0 1 .17-.25l.08-.12c-.11.14-.13.17-.07.1s.24-.16.07-.08c.1 0 .09 0 0 0l.2-.09c.09 0 .08 0 0 0a.68.68 0 0 1 -.7-.1 1 1 0 0 0 1.6-.66z"/><path d="m385.49 284.7c.17 2.87.29 5.74.41 8.62a12.61 12.61 0 0 0 .51 3.56 6.68 6.68 0 0 0 2 2.74 5.19 5.19 0 0 1 1.4 5.79 5 5 0 0 1 -1.87 2.26c-.95.63-2 .87-2.84 1.72-1.5 1.57.9 4 2.4 2.39.73-.78 2-1.07 2.91-1.77a8.17 8.17 0 0 0 2.24-2.78 8.27 8.27 0 0 0 0-7.17 8.36 8.36 0 0 0 -2.17-2.8c-.47-.4-1-.75-1.43-1.16a2.66 2.66 0 0 1 -.88-1.9c-.43-3.15-.68-6.34-1-9.5-.1-1.14-1.87-1.17-1.8 0z"/><path d="m390.33 324.37c-5.08 1.08-10.28.64-15.4.12-3.88-.39-8.1-2.14-12-1.07s-2 5.36-.52 7.61a19.6 19.6 0 0 0 12.59 8.06c2.94.53 6.12.13 8.1-2.31 2.29-2.83 1.87-6.65 1.6-10"/><path d="m390.33 323.5a59.11 59.11 0 0 1 -18.8-1.21c-3.91-.9-12.11-2.47-12.59 3.6-.34 4.28 3.39 8.43 6.51 10.82 3.86 3 9.37 5.15 14.28 4.08a8.46 8.46 0 0 0 6.08-5.21c1.12-2.81.78-5.9.49-8.83-.2-2-3.28-2.05-3.15 0 .22 3.62.7 9.06-3.69 10.46-3.73 1.19-8.26-.73-11.32-2.83a16.13 16.13 0 0 1 -4.37-4.42 7 7 0 0 1 -1.39-3.7c.07-1.59 2.33-1.47 3.52-1.46a53.86 53.86 0 0 1 7.15 1 63.87 63.87 0 0 0 8.63.51 28.94 28.94 0 0 0 8.89-1.06c.88-.28.79-1.8-.24-1.71z"/><path d="m341.48 369.38c9.19 4.44 19.36 8.18 29.62 8.92a38.26 38.26 0 0 0 22.08-5c5.91-3.44 10.82-8.29 15.47-13.23a78.19 78.19 0 0 0 15.16-22.74c8.55-19.78 9.58-41.58 9.3-62.83-.07-5-.29-10-.18-15.07.07-3.3.07-6.61-.07-9.92a95.84 95.84 0 0 0 -5.21-28.78c-3.86-10.55-10.4-20.11-20.07-26.09a49.13 49.13 0 0 0 -18.58-6.54 77.49 77.49 0 0 0 -29.91 1.45 82.8 82.8 0 0 0 -14.28 4.92q-3.6 1.6-7 3.53c-.93.52-1.82 1.19-2.79 1.63a1.53 1.53 0 0 1 -.83.12c-2.25-.3-4.35-2.6-5.93-4a39.86 39.86 0 0 0 -6.5-5.39 6.4 6.4 0 0 0 -3-1 4.9 4.9 0 0 0 -3.29 1.54 76.23 76.23 0 0 0 -8.72 8.42 95.12 95.12 0 0 0 -14.13 21.35 114.69 114.69 0 0 0 -11.37 54.5 112.74 112.74 0 0 0 1.44 14.07c.26 1.61 2.7.92 2.44-.68a112.75 112.75 0 0 1 4.85-55c5.45-15.69 14.57-30.55 27.55-41.1a1.58 1.58 0 0 1 2-.42 9.82 9.82 0 0 1 2.64 1.62c2.2 1.73 4.13 3.77 6.28 5.56 1.7 1.42 3.84 3.18 6.2 3.08 1.6-.07 3-1.23 4.29-2q3.24-1.83 6.63-3.37a78.79 78.79 0 0 1 28.94-7.06 62.39 62.39 0 0 1 24.18 3.26c10.63 3.91 18.79 11.93 23.83 22 4.44 8.82 6.57 18.72 7.47 28.5.56 6.22.45 12.41.4 18.64 0 3.7.17 7.4.22 11.09.09 5.51.1 11-.07 16.53a149.08 149.08 0 0 1 -4 31.56 87.07 87.07 0 0 1 -10.86 25.94 90 90 0 0 1 -15.16 17.33c-5 4.59-10.74 8.39-17.38 10.11-8.79 2.27-17.8.63-26.3-2a103.77 103.77 0 0 1 -14.06-5.56c-1.47-.71-2.76 1.48-1.28 2.19z"/><g fill="#18c4ff"><path d="m367.45 332.5c.79-.17 1.57-.38 2.37-.49h.1.21.48.5.2a7.9 7.9 0 0 1 .87.22l.45.16.2.08h.07a18.19 18.19 0 0 1 2.15 1.21 1.24 1.24 0 1 0 1.25-2.14 11.07 11.07 0 0 0 -4.73-1.85 10.56 10.56 0 0 0 -4.87 1.07.94.94 0 0 0 .72 1.72z"/><path d="m329 291.33a.93.93 0 0 0 0-1.85.93.93 0 0 0 0 1.85z"/><path d="m335.54 289.55.31-.3a.79.79 0 0 0 .2-.31.81.81 0 0 0 .08-.38.8.8 0 0 0 -.08-.37.79.79 0 0 0 -.2-.31l-.2-.15a.92.92 0 0 0 -.49-.13h-.25a1 1 0 0 0 -.43.25l-.3.31a.62.62 0 0 0 -.2.31.81.81 0 0 0 0 .74.58.58 0 0 0 .2.31l.19.15a.93.93 0 0 0 .49.14h.25a.89.89 0 0 0 .43-.25z"/><path d="m333.33 295.64a1 1 0 0 0 0-1.9 1 1 0 0 0 0 1.9z"/><path d="m416.06 287.93a.9.9 0 0 0 0-1.8.9.9 0 0 0 0 1.8z"/><path d="m419.34 287.65v.3a.78.78 0 0 0 .09.37.58.58 0 0 0 .2.31.64.64 0 0 0 .31.2.75.75 0 0 0 .37.09h.25a.89.89 0 0 0 .43-.25l.15-.19a.92.92 0 0 0 .13-.49v-.3a.74.74 0 0 0 -.08-.39.89.89 0 0 0 -.21-.33.79.79 0 0 0 -.33-.2.71.71 0 0 0 -.38-.09h-.27a.92.92 0 0 0 -.44.25l-.16.21a1 1 0 0 0 -.14.51z"/><path d="m417 294.42a1.26 1.26 0 0 0 0-2.52 1.26 1.26 0 0 0 0 2.52z"/></g><path d="m419.73 342.15a.89.89 0 0 0 0-1.77.89.89 0 0 0 0 1.77z"/><path d="m309 281.56c-1.59-7.1-10.67-11.08-17.28-8.05s-9.65 11.75-7 18.54 10 11.16 17.3 11l-1.69 22.22a7.87 7.87 0 0 1 -5 5.29c-5.81 1.86-9.27-5-10.69-10.48-5.2-20-17.56-37.61-21.13-58-2.55-14.56-2.43-30.06 4.07-43.62 6.73-14.05 18.91-24.62 31.38-33.52 12.26-8.76 27.63-16.89 41.76-11.66 12.43-9.07 28.22-11.88 43.39-14.44 3.61-.61 7.33-1.21 10.91-.47s7.07 3.15 8 6.69-1.76 7.89-5.42 7.77a41.73 41.73 0 0 1 32.4 6.71c6 4.18 3.23 13.83-4.08 14h-.15c10.85 2.7 22.18 5.65 29.52 14.75a19.77 19.77 0 0 1 4.45 15.9c-2 10.93-13.08 14.94-23 16-27 2.83-53.44-8.8-76.39-23.27 4.44 3.06 9.5 7.62 7.19 13a8.75 8.75 0 0 1 -7.8 5 39.85 39.85 0 0 1 -31.7-14c2.54 9.13 5.05 19 1.63 27.88-4.84 12.55-20.73 20.57-20.12 34"/><path d="m309.88 281.32c-1.92-8.88-13.52-12.89-20.79-7.77a16.43 16.43 0 0 0 -2.16 24.52 20.4 20.4 0 0 0 15.07 6.28l-1.35-1.35-1.14 14.9c-.18 2.29-.18 4.69-.54 7-.52 3.31-4.93 5.78-7.92 3.83-3.82-2.5-4.71-7.93-5.9-11.95a149.26 149.26 0 0 0 -6.15-16.55c-4.67-10.86-10-21.53-12.9-33s-3.76-24.31-1.24-36c2.47-11.55 8.71-21.52 16.89-29.91a119.18 119.18 0 0 1 12.71-11.15 132.27 132.27 0 0 1 14.32-9.75 55.27 55.27 0 0 1 16.22-6.65 30.62 30.62 0 0 1 8.54-.58 24.83 24.83 0 0 1 3.83.61c1.18.28 3 1.3 4.13.76a40.44 40.44 0 0 0 3.47-2.33q1.95-1.18 4-2.22a63.16 63.16 0 0 1 7.67-3.28 117.1 117.1 0 0 1 16.9-4.46c2.83-.57 5.68-1.07 8.53-1.55a53.68 53.68 0 0 1 9.69-1.18 11.93 11.93 0 0 1 7.35 2.31c1.77 1.42 3 3.62 2.42 5.92a4.31 4.31 0 0 1 -3.91 3.52l.41 3a39.69 39.69 0 0 1 22.8 2.06 38.94 38.94 0 0 1 5.24 2.54 16.33 16.33 0 0 1 4.13 2.89 6.15 6.15 0 0 1 1.11 6.17 5.82 5.82 0 0 1 -5.52 3.9 1.63 1.63 0 0 0 -.43 3.19c9.32 2.34 19.32 4.82 26.41 11.75 3.75 3.66 6.51 8.46 6.62 13.81a15.09 15.09 0 0 1 -4.85 11.46c-6.51 6-16.75 6.81-25.14 6.8a98.17 98.17 0 0 1 -32.81-6.14c-12.13-4.31-23.56-10.42-34.45-17.24-1.73-1.08-3.21 1.57-1.58 2.7 2.72 1.88 6.08 4.37 6.88 7.77s-2.14 6.42-5.35 7.14a19.86 19.86 0 0 1 -5.5.15 34.76 34.76 0 0 1 -5.63-.83 38.49 38.49 0 0 1 -20.86-12.66c-1-1.18-2.89.09-2.51 1.47 1.48 5.35 3.12 10.76 3.42 16.34a25.31 25.31 0 0 1 -3.28 14.28c-4.06 7-10.54 12.14-14.85 18.94a20.89 20.89 0 0 0 -3.58 11.92c.06 1.6 2.54 1.61 2.49 0-.29-8.16 5.85-14.39 10.87-20.09a61.3 61.3 0 0 0 7.34-9.61 27.41 27.41 0 0 0 3.6-13.85c0-6.35-1.43-12.63-3.12-18.71l-2.51 1.46a41.79 41.79 0 0 0 22.95 13.58 40.32 40.32 0 0 0 6.65.84 16.91 16.91 0 0 0 6.49-.62c3.87-1.38 7-5 6.54-9.32-.47-4.84-4.76-8.29-8.47-10.88l-1.58 2.7c20.24 12.79 43.17 23.54 67.53 24 9.44.18 20.25-.76 27.88-6.94a18.1 18.1 0 0 0 6.53-11.5 21.48 21.48 0 0 0 -4.5-16c-7.41-9.68-19.48-13-30.78-15.81l-.43 3.19a9.33 9.33 0 0 0 8.49-12.62c-1.46-3.71-5.25-5.7-8.64-7.39a44.31 44.31 0 0 0 -13-4.18 42.25 42.25 0 0 0 -15.45.41c-1.71.37-1.3 3 .41 3 4.81 0 8-5.26 6.9-9.71-1.33-5.22-6.86-7.81-11.81-8.12a42.9 42.9 0 0 0 -9.78 1c-2.92.49-5.83 1-8.74 1.56a128.84 128.84 0 0 0 -16.76 4.22 64.83 64.83 0 0 0 -17.4 8.69l1.14-.15c-9.08-3.28-18.73-1.29-27.29 2.56s-16.57 9.59-23.95 15.59a92.83 92.83 0 0 0 -19.08 20 59.59 59.59 0 0 0 -9.82 26.83 87.58 87.58 0 0 0 1.92 29.44c2.2 9.53 6.16 18.53 10.13 27.43s7.76 17.76 10.39 27.15c.93 3.34 2.4 7 5.07 9.33a7.53 7.53 0 0 0 9.73.35 8.7 8.7 0 0 0 3.51-6.17l.46-6.1 1.05-14.26.07-1a1.33 1.33 0 0 0 -1.34-1.34c-8.15.15-16.7-5.78-16.87-14.46a14.25 14.25 0 0 1 4.05-10.38 11 11 0 0 1 10.11-2.82 11.23 11.23 0 0 1 8.85 7.79.91.91 0 0 0 1.75-.48z"/><path d="m295.84 284.25c.76-.36 1.51.41 1.94 1a8.12 8.12 0 0 1 1.29 2.54c.08.26.14.52.2.79l.06.37v.19s0 .5 0 .74 0 .17 0 .06v.12a.27.27 0 0 1 .09-.12.49.49 0 0 1 .46-.06.51.51 0 0 1 .41.27c.05.14.06.14 0 0v-.09q0 .18 0 0v-.36c0-.33-.06.18 0-.14l.1-.34c.07-.26-.05.09.05-.14s.12-.26.17-.4q-.06.17 0 0a1.2 1.2 0 0 0 -.3-1.52 1.18 1.18 0 0 0 -1.55.1 3.86 3.86 0 0 0 -.67 3.91 1.7 1.7 0 0 0 2 1 2 2 0 0 0 1.45-1.59 6.07 6.07 0 0 0 -.1-2.08 10 10 0 0 0 -.48-1.68 8.91 8.91 0 0 0 -2-3.22 3.38 3.38 0 0 0 -4.08-.77.87.87 0 0 0 -.31 1.17.88.88 0 0 0 1.18.31z"/><path d="m286.48 395a519.62 519.62 0 0 0 10.13-59.55c.61-5.65 1.29-11.34 1.5-17 .08-2.14-3.06-2.05-3.28 0-.52 4.94-.8 9.9-1.26 14.84s-1 9.88-1.6 14.8c-1.21 9.9-2.52 19.78-4.21 29.61q-1.45 8.43-3.16 16.81c-.25 1.23 1.6 1.76 1.88.52z"/><path d="m370.89 401.86c1.07-7.84 2.57-15.56 4.18-23.3.34-1.62-2.15-2.3-2.47-.69-1.54 7.84-2.57 15.82-3.44 23.76-.11 1 1.6 1.22 1.73.23z"/><path d="m298 207.67c-23.17 8.69-67.57-3.6-91.24-10.83-15.39-4.7-31-10.15-43.32-20.49s-20.83-26.64-17.73-42.43a16.08 16.08 0 0 1 3.44-7.81 17.09 17.09 0 0 1 7.11-4.29 46 46 0 0 1 35.2 1.8 36.43 36.43 0 0 1 -30.36-21.47 16.79 16.79 0 0 1 -1.64-8.84c.92-6.71 8-11.16 14.82-11.43s13.23 2.57 19.41 5.36c-13-4.25-23.1-16.89-23.57-30.6s9.2-27.31 22.48-30.7c11.67-3 24 1.56 34.3 7.83a105.26 105.26 0 0 1 37.86 40.08c-4.35-12.58-8.16-28.08.81-37.9 6.74-7.38 18.75-8.07 27.69-3.59s15.15 13.07 19.41 22.1a86.8 86.8 0 0 1 3.16 65.63c1.79-2.33 2.37-5.37 3.77-8s4.39-4.86 7.13-3.79a6.58 6.58 0 0 1 2.87 2.64c7 10.47 2.11 24.53-3.38 35.86a484.39 484.39 0 0 1 -28.81 51.33"/><path d="m297.71 206.71c-5.77 2.06-11.93 2.64-18 2.73a132.25 132.25 0 0 1 -21.49-1.64c-14.37-2.14-28.47-5.78-42.41-9.82-15.25-4.43-31-9-44.41-17.68s-24.65-22.9-24.8-39.43c0-3.93.42-8.32 2.34-11.82 2.08-3.77 6.22-5.38 10.14-6.55a44.8 44.8 0 0 1 25.65 0 42.71 42.71 0 0 1 6 2.31l.72-2.68a35 35 0 0 1 -26-15c-3-4.33-6.13-10.46-4.08-15.77 1.74-4.5 6.61-7.2 11.17-7.92 7-1.11 14.13 2.2 20.36 5l1.13-2.66a33.62 33.62 0 0 1 -20.89-20.78 29.5 29.5 0 0 1 5.52-28.39 28.3 28.3 0 0 1 11.92-8.53 31.64 31.64 0 0 1 17.78-.65c11.54 2.67 22.09 9.6 31 17.23a104.46 104.46 0 0 1 24 29.93c.81 1.53 3.41.49 2.83-1.19-3.13-9.13-6.47-19.84-3.49-29.45a17.71 17.71 0 0 1 8.52-10.48 22.2 22.2 0 0 1 13.44-2.15c10.29 1.42 18.09 9.15 23.25 17.69a80.19 80.19 0 0 1 10.63 32.11 85.54 85.54 0 0 1 -4.36 38.5c-.68 1.89 2 2.66 3 1.27 2-2.74 2.39-6.38 4.48-9 .86-1.08 2.26-2.28 3.74-2.15 1.66.14 2.7 2 3.43 3.26 3.35 5.82 2.9 12.83 1.26 19.11-1.86 7.14-5.21 13.74-8.51 20.3q-5.43 10.83-11.41 21.37-6.78 12-14.25 23.57c-1.14 1.78 1.69 3.43 2.83 1.66a488.72 488.72 0 0 0 26.35-46.21c3.52-7 7.09-14.23 8.73-22 1.48-7 1.28-14.9-3.06-21a6.39 6.39 0 0 0 -10.21-1.47c-3.4 2.83-3.68 7.48-6.19 10.9l3 1.27c8.2-23.06 6.39-50-5.69-71.4-5.3-9.39-13.46-18.21-24.41-20.52-10-2.11-21.17 1.27-26.06 10.79-5.56 10.82-1.71 24.1 2 34.86l2.84-1.19a106.89 106.89 0 0 0 -22.59-28.8c-9.3-8.38-20.42-16-32.63-19.29a36.68 36.68 0 0 0 -19-.4 30.42 30.42 0 0 0 -13.6 8.12 32.84 32.84 0 0 0 -8.81 30 36.57 36.57 0 0 0 23.86 25.92c1.54.51 2.64-2 1.12-2.66-6.41-2.89-13.28-6-20.49-5.53-5.48.34-11.11 3-14.1 7.77-3.52 5.58-1.48 12.26 1.48 17.6a38.12 38.12 0 0 0 30.15 19.24 1.45 1.45 0 0 0 .73-2.68 47.69 47.69 0 0 0 -26.44-4.33 42 42 0 0 0 -12.87 3.54 14.9 14.9 0 0 0 -8.08 9.53c-4.94 16.4 4 34.21 16.05 45.07 13.24 11.94 30.71 17.68 47.46 22.72a357.73 357.73 0 0 0 42.79 10.44 167 167 0 0 0 22.86 2.49 70.68 70.68 0 0 0 20.06-1.79 41.3 41.3 0 0 0 4.21-1.36c1.17-.45.68-2.34-.53-1.91z"/><path d="m272 211.48a90.5 90.5 0 0 1 17.39-18.9 96.21 96.21 0 0 1 10.48-7.42q2.71-1.68 5.57-3.16a62.28 62.28 0 0 0 5.74-2.82 1.45 1.45 0 0 0 -1.11-2.64 23.37 23.37 0 0 0 -4.75 2.1c-1.55.78-3.07 1.6-4.58 2.47a80.92 80.92 0 0 0 -8.66 5.77 88.72 88.72 0 0 0 -14.82 14.23 91.85 91.85 0 0 0 -6.82 9.46c-.62 1 .91 1.86 1.56.91z" fill="#18c4ff"/><path d="m284.52 393.93c4.86 19.06 20.12 37.24 37.94 45.57 12.89 6 29.58 7.23 40.23-2.21 11.55-10.23 11.4-28 10.35-43.36 34.1 13.21 44.14 10.19 72.3 25.71 7.72 4.26 15.26 9.08 21.25 15.55 22.16 23.92 17.41 62.64 18.41 92.81.77 21.82.75 43.72-1.15 65.49s-8 41.46-12.41 62.6q-5.73 27.69-8.72 55.86c-.92 8.65-1.84 17.85-7.22 24.69-4.76 6.06-12.27 9.23-19.57 11.69-82.56 27.85-183.23 21.38-263.56-10.33-5.28-2.09-10.75-4.46-14.27-8.91-4.62-5.81-4.93-14.06-3.15-21.28s5.37-13.83 8-20.79c11.73-31.65 1.9-66.74-7.71-99.1-9.85-33.16-12.64-71.89-3.36-105.48 9.93-35.94 37.86-66.38 74.91-74.44 18-3.91 40-12.88 58.24-15.87"/><path d="m283.68 394.16c4.92 19.92 20 38.07 38.65 46.58 8.9 4.05 19.25 6 28.89 3.71a28.75 28.75 0 0 0 20.17-17.8c4.09-10.28 3.61-21.9 2.88-32.72l-1.56 1.19q12.38 4.78 25.14 8.44c6.34 1.8 12.74 3.38 19 5.31a135.43 135.43 0 0 1 19.74 7.75c8.27 4 16.59 8.55 23.67 14.47 26.77 22.38 22.67 61 23.22 92.27.17 10.24.59 20.47.57 30.71 0 11-.35 22.09-1.14 33.1a235.34 235.34 0 0 1 -4.48 31.72c-2.12 10-4.67 19.94-6.92 29.93a561.69 561.69 0 0 0 -10.33 63.71c-1 9-2.06 18.93-9 25.54-6.49 6.21-15.88 8.7-24.23 11.27-36.05 11.12-74.03 15.66-111.74 15.06a416.5 416.5 0 0 1 -112.8-17.28q-13-3.9-25.75-8.7c-8.24-3.12-18.2-6.28-21.18-15.56-3-9.5 1-19.19 4.72-27.85a98.61 98.61 0 0 0 7.94-28.52c2.18-20-1.81-40.18-6.94-59.44-2.59-9.74-5.76-19.33-8.19-29.12a219 219 0 0 1 -5.22-29.54c-3.77-35.55.63-74.56 23.39-103.47a100.46 100.46 0 0 1 36.39-29.23c7.57-3.51 15.44-5.34 23.48-7.38 9.24-2.34 18.29-5.34 27.41-8.12a203.59 203.59 0 0 1 25.94-6.58c2-.34 1.15-3.37-.84-3-19 3.17-36.87 10.8-55.54 15.26-8.09 1.94-15.88 4.17-23.4 7.81a98.48 98.48 0 0 0 -20.2 13.13 109 109 0 0 0 -28.7 38.08c-7.78 16.92-11.12 35.64-11.88 54.15a212.89 212.89 0 0 0 6.47 60.32c2.51 10 5.75 19.82 8.37 29.8a224.8 224.8 0 0 1 6.12 30.51 112.77 112.77 0 0 1 -.16 30.87 84.41 84.41 0 0 1 -3.73 14.86c-1.74 4.95-4 9.68-6 14.56-3.28 8.39-5.3 18.13-1.18 26.63 4 8.33 13.49 11.46 21.55 14.53a409.77 409.77 0 0 0 112 24.94c38.55 3.17 77.72 1.17 115.52-7.22 9.27-2.06 18.46-4.51 27.51-7.39 8.39-2.67 17.53-5.48 23.79-12 6.44-6.75 7.89-16.21 8.87-25.11 1.21-11.06 2.58-22.08 4.35-33.07 1.73-10.7 3.73-21.36 6.12-31.93 2.32-10.31 4.95-20.55 7.08-30.9 4.46-21.61 5.43-43.68 5.4-65.71 0-10.35-.5-20.69-.64-31-.11-8.29 0-16.59-.17-24.89-.37-16.23-1.73-33.08-8.78-47.94a57.77 57.77 0 0 0 -15.61-20c-7.31-6-15.74-10.62-24.23-14.7a137.58 137.58 0 0 0 -19.92-7.75c-6.45-1.95-13-3.54-19.5-5.37q-12.54-3.52-24.71-8.23a1.24 1.24 0 0 0 -1.57 1.2c1.16 17.13 1.19 40.73-18.52 47.41-18.78 6.37-38.94-5.23-51.41-18.65a70.37 70.37 0 0 1 -16.51-29 .87.87 0 0 0 -1.68.47z"/><path d="m202.54 545.69c15.19 46.43 48.69 87.17 84 120 14.25 13.26 28 11 44 .88 24.07-15.32 45.58-39.36 60.39-63.53 10.3-16.82 28-51 10.95-68.37-12.31-12.59-27.84-19.49-41.33-30.36-24.64-19.87-41.65-57-70.09-70.85-15.36-7.46-33.8-8.87-49.89-2.9"/><path d="m201.66 545.93a221.63 221.63 0 0 0 25.82 53.5 334.28 334.28 0 0 0 37.45 46.84c6.75 7.14 13.72 14.13 21 20.75 6.68 6.09 15 10.14 24.25 9.17 9.48-1 17.93-6.09 25.61-11.4a176.56 176.56 0 0 0 23.43-19.54 216.85 216.85 0 0 0 35.47-45.85 152.84 152.84 0 0 0 10.19-20.85c2.91-7.45 5.18-15.36 5.41-23.4.2-7.29-1.59-14.61-6.41-20.23a69.8 69.8 0 0 0 -10.75-9.63c-4-3.06-8.19-5.85-12.41-8.6-8.11-5.26-16.34-10.41-23.52-16.94a173.63 173.63 0 0 1 -17-18.53c-10.87-13.3-21-27.6-34.14-38.77a70.52 70.52 0 0 0 -22-12.89 66.44 66.44 0 0 0 -29.59-3.42 61.89 61.89 0 0 0 -14.21 3.35c-1.36.5-.77 2.7.61 2.19 18.08-6.63 39-4 55.18 6.29 14 8.92 24.45 22.49 34.62 35.34 5.22 6.61 10.42 13.26 16.07 19.51a116.36 116.36 0 0 0 18.81 16.94c8 5.69 16.48 10.59 24.36 16.41 6.64 4.89 13.93 10.49 16.44 18.69 2.16 7 1.31 14.69-.44 21.73a106.86 106.86 0 0 1 -8.57 22.2 206.68 206.68 0 0 1 -29.55 43.35 200.07 200.07 0 0 1 -21.47 21.12c-7.46 6.25-15.53 12.35-24.36 16.54-7.61 3.61-16.13 5.18-24.13 1.84-4.46-1.86-8.15-4.9-11.64-8.17s-6.94-6.6-10.33-10a367.34 367.34 0 0 1 -38.29-44.26c-11.45-15.78-21.56-32.64-29.14-50.62q-2.73-6.5-5-13.17c-.37-1.1-2.11-.64-1.76.48z"/><path d="m201.66 545.93a217.34 217.34 0 0 0 23.07 49.22 316.39 316.39 0 0 0 33.32 43.66q9.07 10.1 18.81 19.59c6.27 6.13 12.52 13 20.9 16.2 16.53 6.29 33.25-5.77 45.65-15.46a203.93 203.93 0 0 0 38.76-40.62c8.95-12.25 17-25.5 22.55-39.65 4.88-12.36 9-28.37 1.57-40.6a38.73 38.73 0 0 0 -7.93-8.68 117.23 117.23 0 0 0 -10.95-8.4c-7.55-5.2-15.48-9.82-22.83-15.29-12.74-9.47-22.53-22.12-32.32-34.45-9.6-12.07-19.39-24.49-32.08-33.49a66.19 66.19 0 0 0 -9.18-5.46c-1.3-.64-2.46 1.32-1.14 2 13.49 6.6 23.89 18 33.29 29.41 9.76 11.86 18.7 24.51 29.72 35.28a129.54 129.54 0 0 0 19.56 15.25c7.48 4.94 15.18 9.62 22.1 15.36 3.11 2.58 6.42 5.34 8.74 8.69a24.32 24.32 0 0 1 3.65 8.57c1.46 6.66.5 13.7-1.18 20.23-3.48 13.48-10.25 26.08-17.66 37.78a213.63 213.63 0 0 1 -34.94 42.19 165.4 165.4 0 0 1 -21.4 16.92c-6.86 4.52-14.58 8.89-23 9.35s-15.67-3.58-21.68-9.19q-9.7-9-18.88-18.62a346.63 346.63 0 0 1 -34.18-41.51 250.66 250.66 0 0 1 -26-46.63q-2.49-6-4.58-12.13c-.37-1.1-2.11-.64-1.76.48z" fill="#18c4ff"/><path d="m332.51 639.19a297.73 297.73 0 0 0 53.27 44.47c20.47 13.37 44 24.49 68.35 22.8 22.67-1.57 43.46-14.24 59.16-30.67s27-36.51 37.79-56.51q19.83-36.75 38.2-74.26c1.16-2.37 2.55-4.95 5-5.84 1.84-.66 3.87-.22 5.81.06a34.52 34.52 0 0 0 23.76-5.3c-2.32.91-1.15 4.89 1.27 5.47s4.8-.91 6.84-2.32c3.2-2.23 6.65-4.79 7.51-8.59s-2.9-8.49-6.45-6.87c4.42 2.65 11-.08 12.31-5.06s-3.18-10.57-8.33-10.37c3.27 4.51 11.6.8 11.83-4.76s-5.32-10-10.86-10.54c3.91-1.67 9.15 2.48 12.35-.33 2.66-2.33.7-6.73-1.71-9.31-13-13.92-34-16.18-53-16.87l15.13-1.93a6.45 6.45 0 0 0 3.21-1c1.9-1.45 1.57-4.59 0-6.35s-4-2.46-6.34-3.06c-8.14-2.09-16.52 1.27-24.71 3.14-10.09 2.31-15.48 10.12-21.42 18.6s-6.6 11.93-11.3 21.16c-20.51 40.25-60.56 73-95.21 101.95-1.26 1.06-1.82 5.48-3.45 5.68-2.45.29 9.53-9.17 7.68-10.79-10.41-9.08-35.3-27.85-48.12-33-4.07-1.65-2.46-4-6.69-2.79-2.47.71-5.87 3.77-7.91 5.34-22.55 17.4-51.48 49.53-63.79 75.22" fill="#fff"/><path d="m614.55 454.47c-2.59-2.72-6.89-3.72-10.49-4.07-4.35-.43-8.74.44-12.95 1.46-2.2.53-4.38 1.13-6.58 1.67a41 41 0 0 0 -5.63 1.59 27.81 27.81 0 0 0 -8.51 5.47 56.25 56.25 0 0 0 -6.72 7.82c-2.29 3.1-4.55 6.24-6.54 9.53-3.58 5.91-6 12.43-9.28 18.53-7.46 14.08-17.09 26.9-27.67 38.78a404.3 404.3 0 0 1 -34.86 34.16c-6.07 5.35-12.23 10.59-18.43 15.79l-9.12 7.6a32.28 32.28 0 0 0 -4.08 3.46 12.09 12.09 0 0 0 -1.66 3.45c-.15.35-.76 1.14-.76 1.47 0 0-.11.07-.11.1s.19-.14.22 0h.12c.33 0 .51.27.54.74-.15-.25.67.8.37.84.17 0 .89-1.1 1.15-1.38 1.43-1.52 2.94-3 4.35-4.51 1.06-1.18 2.62-2.7 2.8-4.38.2-2-2.52-3.42-3.83-4.5a321.73 321.73 0 0 0 -31.58-23.09c-2.55-1.61-5.14-3.17-7.79-4.6-1.11-.59-2.22-1.17-3.35-1.7s-2.5-1-3.63-1.66-1.56-1.67-2.55-2.26a5 5 0 0 0 -4-.08c-3.17 1-5.73 3.5-8.27 5.5a257.61 257.61 0 0 0 -32.18 30.39c-10.17 11.32-19.72 23.44-27.41 36.6-1.66 2.85-3.22 5.75-4.65 8.72-.76 1.57 1.59 2.95 2.35 1.37 6.31-13.11 15-25.07 24.27-36.23a271.6 271.6 0 0 1 31.64-32.44c2.5-2.15 5.07-4.23 7.67-6.27 1.34-1 2.64-2.16 4-3.15s2.84-2 4.49-2.1c.95 0 1.31.82 2 1.41a13.74 13.74 0 0 0 3.75 2.07 75.39 75.39 0 0 1 6.91 3.59 253 253 0 0 1 32 22.31q3.17 2.55 6.25 5.18a7.27 7.27 0 0 0 1.2 1c.34.17.07.13 0-.16s.11-.28-.05-.18-.73 1.22-1.05 1.61c-1.34 1.65-2.87 3.13-4.34 4.65-.9.93-2.42 2.14-2.72 3.47a1.55 1.55 0 0 0 1.31 1.91 2.71 2.71 0 0 0 2.49-1.37 21.66 21.66 0 0 0 1.59-3.58c.58-1.33 1.81-2.08 2.89-3 6-5.07 12.07-10.13 18-15.25 12.17-10.44 24.11-21.14 35.4-32.53a244.41 244.41 0 0 0 30.26-36.46 164.44 164.44 0 0 0 11.47-20.17c1.35-2.84 2.61-5.73 4.05-8.53a80.63 80.63 0 0 1 5.62-9.12c4-5.72 8.13-11.83 14.38-15.29 3.45-1.91 7.36-2.59 11.13-3.62 4.28-1.16 8.62-2.38 13.08-2.5 3.8-.11 8.86.45 11.7 3.26a.93.93 0 0 0 1.31-1.31z"/><path d="m649.41 480.79c-4.52-6-11.33-9.61-18.24-12.12a91.33 91.33 0 0 0 -22.53-4.84c-4.33-.41-8.69-.64-13-.81-1.75-.06-1.75 2.66 0 2.73 3.71.14 7.42.32 11.12.65a87.49 87.49 0 0 1 10.94 1.4c3.6.79 7.2 1.42 10.72 2.55a49.89 49.89 0 0 1 9.68 4.31 65.66 65.66 0 0 1 9.9 7.25c.74.63 2.13-.23 1.45-1.12z"/><path d="m331.86 639.84a273.85 273.85 0 0 0 61.74 50.26c11.17 6.6 23.1 12.23 35.74 15.33a78 78 0 0 0 37 .39c24-5.76 43.81-22.44 58.62-41.6 8-10.37 14.75-21.6 21.16-33 7-12.44 13.64-25.07 20.23-37.72q10-19.31 19.71-38.8c1.61-3.25 3.16-6.54 4.81-9.77a12.59 12.59 0 0 1 2.27-3.39 5.38 5.38 0 0 1 4.6-1.25 56.82 56.82 0 0 0 9.49.61 35.8 35.8 0 0 0 17.36-5.77 1.36 1.36 0 0 0 -1.38-2.35c-2.67 1.28-2.25 4.91-.44 6.75 2.87 2.94 7.19.63 9.93-1.25 1.43-1 .07-3.35-1.37-2.35s-4.24 3.11-6.19 2c-.89-.5-1.75-2.26-.55-2.84l-1.38-2.35a33.18 33.18 0 0 1 -22.71 5.17 21.78 21.78 0 0 0 -4.62-.43c-2.93.21-5 2.06-6.49 4.46-1.69 2.75-3 5.81-4.38 8.71q-2.41 4.88-4.85 9.74-4.8 9.6-9.7 19.14-9.88 19.23-20.13 38.26c-6.2 11.55-12.57 23-19.82 33.93-13.6 20.54-31.36 39.42-54.77 48.51a73.68 73.68 0 0 1 -35.85 4.49c-12.85-1.59-25.18-6.32-36.6-12.29a244 244 0 0 1 -32.94-21.21 325.7 325.7 0 0 1 -30.28-25.87q-3.49-3.36-6.88-6.84c-.84-.85-2.12.44-1.31 1.31z"/><path d="m620.47 515.83c3.34 1.23 6.7 2.43 10 3.69a22.19 22.19 0 0 1 4.43 2.17 24 24 0 0 1 3.6 3.16c.83.83 2.41-.28 1.68-1.3-2-2.81-5.19-4.6-8.36-5.84-3.56-1.39-7.27-2.42-10.91-3.59-1.1-.36-1.53 1.32-.47 1.71z"/><path d="m624.18 500.29a79.19 79.19 0 0 1 18.69 9c1.12.72 2.15-1.06 1-1.78a78 78 0 0 0 -19.25-8.92c-1.11-.34-1.57 1.38-.48 1.74z"/><path d="m630.12 486.21c2.86.33 5.56 1.64 8.14 2.86s5.25 2.6 7.79 4.06a1.09 1.09 0 0 0 1.1-1.87 92.07 92.07 0 0 0 -8.42-4.24 28.19 28.19 0 0 0 -8.61-2.69c-1.22-.11-1.19 1.74 0 1.88z"/><path d="m450 477.74c6.06 23.59 12.65 47 19.62 70.36q1.47 5 3 9.92.7 2.37 1.43 4.72a30.69 30.69 0 0 0 1.71 5c.53 1 2.45.6 2.3-.62-.39-3-1.61-6-2.49-8.86s-1.72-5.67-2.57-8.5q-2.62-8.75-5.2-17.5c-3.44-11.68-6.89-23.36-10.25-35.06-1.91-6.64-3.88-13.26-5.8-19.9a.9.9 0 0 0 -1.73.47z" fill="#32a16b"/><path d="m582.13 446.25c.78-5.66 1.58-11.32 2.33-17 .67-5.13 1.11-10.4 2.71-15.34a19.94 19.94 0 0 1 7.69-10.69 29.94 29.94 0 0 1 11.26-4.22 83.64 83.64 0 0 1 14.4-1.12l-1.34-1c2.75 8.44-3.83 18.59-12.8 19.19a1.41 1.41 0 0 0 -1 2.38 37.15 37.15 0 0 1 9.55 24.7 1.35 1.35 0 0 0 2.7 0c.36-9.74-3.74-19.57-10.28-26.67l-1 2.38c10.67-.71 18.88-12.47 15.49-22.72a1.45 1.45 0 0 0 -1.35-1c-8.69.14-18.2.58-25.87 5.15a21.07 21.07 0 0 0 -8.72 9.8c-2.1 4.92-2.59 10.34-3.21 15.61-.79 6.79-1.54 13.59-2.3 20.39-.11 1 1.58 1.2 1.71.23z"/><path d="m599.76 398.1c2.71-14.68 14.59-24.93 26-33.39 1.35-1 0-3.28-1.32-2.26-11.74 9-23.9 19.77-26.34 35.18-.17 1.09 1.48 1.58 1.69.47z"/><path d="m561.28 632.69a211.91 211.91 0 0 1 2.79-23.57q1-5.67 2.33-11.29c.92-3.88 2.1-7.74 2.88-11.66a1.13 1.13 0 0 0 -2.17-.59 82.17 82.17 0 0 0 -3.11 11.59q-1.28 5.88-2.19 11.82a198.14 198.14 0 0 0 -2.24 23.7c0 1.11 1.65 1.09 1.71 0z"/><path d="m770.89 153a65.83 65.83 0 0 0 -69.44-65.73c-33.76 1.8-61.14 29.86-62.19 63.64a65.4 65.4 0 0 0 18.26 47.53c12.87 13.43 25.39 27.21 36.41 42.19l6.12 8.32a6.22 6.22 0 0 0 10 0l1.12-1.52c12.95-17.61 27.54-33.89 42.34-50a65.42 65.42 0 0 0 17.38-44.43z"/><path d="m773.43 153a68.57 68.57 0 0 0 -12.32-39.15 69.38 69.38 0 0 0 -31.87-24.85 68.32 68.32 0 0 0 -78.69 105.12 124.81 124.81 0 0 0 8.73 9.81q4.92 5.19 9.73 10.48c6.4 7.06 12.61 14.29 18.46 21.81 3.22 4.13 6.28 8.38 9.38 12.6 1.49 2 2.95 3.85 5.43 4.71a8.88 8.88 0 0 0 10-3.34c5-6.67 10.08-13.29 15.42-19.72 6.12-7.38 12.46-14.57 18.9-21.68 5.93-6.56 12.28-12.81 16.92-20.39a67.27 67.27 0 0 0 8.75-22.82 70.31 70.31 0 0 0 1.16-12.58c0-3.26-5.07-3.27-5.08 0a63.44 63.44 0 0 1 -16.35 42.34c-12.46 13.7-24.94 27.38-36.34 42q-3.67 4.72-7.22 9.54l-.44.59c-.22.3.32-.27-.15.18a4.49 4.49 0 0 1 -1.51 1.05 3.57 3.57 0 0 1 -3.22-.33 4.31 4.31 0 0 1 -.62-.49c-.18-.17-.63-.72-.27-.25l-.37-.51-1.66-2.25-3.76-5.12a418.11 418.11 0 0 0 -33.73-39.57 111.14 111.14 0 0 1 -8-8.92 66.11 66.11 0 0 1 -6-9.51 61.92 61.92 0 0 1 -6.57-21.75 63.28 63.28 0 0 1 8.81-39.6 64.86 64.86 0 0 1 28.82-25.4 62.74 62.74 0 0 1 38.68-3.9 63.39 63.39 0 0 1 49.19 52.23 62.28 62.28 0 0 1 .71 9.64c.01 3.26 5.09 3.26 5.08.03z"/><g fill="#32a16b"><circle cx="705.06" cy="152.96" r="23.19"/><path d="m725.71 153a20.65 20.65 0 1 1 -16.71-20.31 20.82 20.82 0 0 1 16.71 20.31c0 3.27 5.1 3.28 5.07 0a25.72 25.72 0 1 0 -20.58 25.21c11.9-2.32 20.5-13.2 20.58-25.21.03-3.3-5.05-3.31-5.07 0z"/><path d="m202 534.19.63.08a.71.71 0 0 0 .38-.08.72.72 0 0 0 .31-.2.75.75 0 0 0 .21-.32.67.67 0 0 0 .08-.37v-.26a1 1 0 0 0 -.26-.44l-.19-.15a1 1 0 0 0 -.5-.13l-.63.08a.65.65 0 0 0 -.34.07.64.64 0 0 0 -.29.19 1 1 0 0 0 -.27.64v.23a.84.84 0 0 0 .23.4l.18.14a.89.89 0 0 0 .45.12z"/><path d="m202.07 523.89.64-.62a.77.77 0 0 0 .19-.31.67.67 0 0 0 .08-.37.64.64 0 0 0 -.08-.36.77.77 0 0 0 -.19-.31l-.2-.15a1 1 0 0 0 -.48-.13h-.25a.89.89 0 0 0 -.42.24l-.62.64a.64.64 0 0 0 -.19.3.77.77 0 0 0 0 .72.67.67 0 0 0 .19.31l.19.14a.88.88 0 0 0 .47.13h.25a1.1 1.1 0 0 0 .42-.24z"/></g><g fill="#fff"><path d="m139.83 794.46a51.88 51.88 0 0 0 24.79 17.09 51.22 51.22 0 0 0 15.29 2.45c6.06 0 12-1.28 18-1.94 11-1.23 21.32 1.62 31.51 5.56 9.69 3.75 19.23 8.25 29.5 10.21a49.33 49.33 0 0 0 15.62.57c5.73-.73 11.29-2.33 16.89-3.74s11.39-2.67 17.23-2.4c5.54.26 10.75 2.17 15.84 4.22 4.91 2 9.83 4.17 15.08 5.09a25.84 25.84 0 0 0 14.62-1.57c4.61-1.9 8.76-4.69 13.22-6.89a23.77 23.77 0 0 1 15.8-2.37c5.54 1.11 10.84 3.37 16.54 3.68a33.31 33.31 0 0 0 13.71-2.58c8.81-3.43 16.84-9.17 26.22-11.06a25.85 25.85 0 0 1 6.86-.43c1.66.11 1.66-2.48 0-2.59-9.48-.64-18 4.12-26.22 8.2a62 62 0 0 1 -13.28 5.26c-5.24 1.23-10.23.57-15.37-.84-5.38-1.47-10.79-3.24-16.43-2.46-4.82.68-9.18 3-13.37 5.35-4.36 2.45-8.78 5.11-13.78 6-5.21.94-10.45-.4-15.33-2.16-5.07-1.83-9.95-4.17-15.13-5.72a38.71 38.71 0 0 0 -16.09-1.25c-11.34 1.43-22.12 6.41-33.67 6.22-20.89-.32-38.46-14.6-59-16.7-11.57-1.19-22.81 3.17-34.39 1.84a50.94 50.94 0 0 1 -28.12-12.79 49.82 49.82 0 0 1 -5.22-5.55c-.73-.9-2 .38-1.27 1.27z"/><path d="m135.69 893.94a84.86 84.86 0 0 0 64.76 14.32c6.37-1.18 12.67-2.91 19.14-3.46a58 58 0 0 1 18 1.66c11.22 2.59 22.43 7 34.13 6.36 5.91-.35 11.37-2.33 16.88-4.36a53.24 53.24 0 0 1 18.85-3.79c12.39 0 24.48 3.74 36.9 3.27a41.47 41.47 0 0 0 15.53-3.31 29.68 29.68 0 0 0 6.69-4.21c2.18-1.79 4.28-3.91 7-4.86 5.13-1.77 10.52.8 15.24 2.66 5 2 9.85 3.32 15.26 2.51 10.73-1.61 20-9.31 31.24-7.4 5.65.95 10.84 2.42 16.62 1.6a31.23 31.23 0 0 0 14.17-5.81 30.53 30.53 0 0 0 5.35-5.06c1-1.21-.72-3-1.74-1.74-7.15 8.57-18.18 11.82-28.94 9.56a51 51 0 0 0 -8.76-1.43 27 27 0 0 0 -7.37.88c-5.12 1.29-9.88 3.66-14.87 5.36-5.16 1.77-10.22 2.45-15.53.85-5-1.5-9.66-4.17-14.87-4.87-5.38-.72-9.35 1.64-13.31 5a31.34 31.34 0 0 1 -14.6 7.08c-11.67 2.3-23.47-.61-35.07-1.88-6.33-.69-12.78-.89-19.05.43-5.83 1.22-11.22 3.84-16.9 5.56-11.64 3.54-23.09.44-34.45-2.63a114.72 114.72 0 0 0 -16.49-3.54 58.78 58.78 0 0 0 -18 1c-6.19 1.18-12.31 2.78-18.59 3.41a82.62 82.62 0 0 1 -16.64 0 83.86 83.86 0 0 1 -32.6-10.35c-2.42-1.37-4.76-2.87-7-4.47-1-.74-2 1-1 1.71z"/><path d="m137.62 967.41 16 2.88c1.18.21 1.68-1.6.49-1.81l-16.06-2.78c-1.12-.19-1.6 1.5-.47 1.71z"/><path d="m480 967.88a21.6 21.6 0 0 0 12.82-8.2 1 1 0 0 0 -.37-1.43 1.08 1.08 0 0 0 -1.43.37 19.52 19.52 0 0 1 -11.59 7.38c-1.26.27-.73 2.2.54 1.93z"/><path d="m713.38 311.38q-1.9 30.9-4.68 61.75-2.76 30.67-6.38 61.28-3.68 30.93-8.2 61.73-4.46 30.48-9.78 60.83c-3.57 20.34-7.49 40.6-11.55 60.84q-.75 3.78-1.53 7.55c-.24 1.21 1.6 1.73 1.86.52 4.3-20.19 8.19-40.47 11.83-60.78s7-40.89 10.12-61.4q4.57-30.45 8.25-61 3.7-30.74 6.55-61.57t4.83-62q.24-3.84.47-7.68c.07-1.16-1.72-1.15-1.79 0z"/><path d="m817.8 298.57q-1.06 30.14-3.62 60.19t-6.65 60.24q-4.06 29.88-9.59 59.53t-12.52 59q-7 29.34-15.44 58.29c-.72 2.44-1.42 4.87-2.1 7.32a1 1 0 0 0 1.92.52c6.18-19.19 11.15-38.87 16-58.45s9.12-39.36 12.94-59.19 7.14-39.77 9.95-59.77q4.17-29.7 6.89-59.6 2.73-30.17 4-60.45c.1-2.54.19-5.07.28-7.61 0-1.26-1.91-1.26-2 0z"/></g><g fill="#32a16b"><path d="m103.42 457.28a90 90 0 0 1 12.35-46 88.64 88.64 0 0 1 14.73-18.88c4.6-4.48 13.89-13.6 20.22-6.87a10.05 10.05 0 0 1 1.84 10.47c-1.6 4-5.33 6.94-9.25 8.54l1.42.57c-2.9-6-.86-12.91 1.86-18.57a107.58 107.58 0 0 1 9.82-16 135 135 0 0 1 25.38-26.6 132.72 132.72 0 0 1 17.48-11.78 1.32 1.32 0 0 0 -1.33-2.28 136.94 136.94 0 0 0 -30.88 23.88 139.39 139.39 0 0 0 -12.44 14.8 107.28 107.28 0 0 0 -10.27 16.67c-3.13 6.59-5.15 14.25-1.79 21.15a1.25 1.25 0 0 0 1.42.58c7.21-3 13.84-10.16 11.17-18.48a10.84 10.84 0 0 0 -7.1-7.34c-4.6-1.25-9.11 1.13-12.67 3.85-13.87 10.61-24.07 26.4-29.48 42.88a90.3 90.3 0 0 0 -4.54 29.44 1 1 0 0 0 2.06 0z"/><path d="m404.35 97.79 4.44 28.3c.21 1.31 2.21.76 2-.54l-4.59-28.27c-.2-1.21-2-.69-1.84.51z"/><path d="m488.44 102.49a187.2 187.2 0 0 0 -24.35 34.12c-.68 1.22 1.2 2.31 1.87 1.09a185 185 0 0 1 23.81-33.88c.8-.9-.52-2.23-1.33-1.33z"/><path d="m508.35 186.15a119.69 119.69 0 0 1 39.18-23.82 118.44 118.44 0 0 1 12.47-3.83 1.11 1.11 0 0 0 -.59-2.14 121.65 121.65 0 0 0 -52.5 28.33c-1 .9.48 2.35 1.46 1.46z"/><path d="m532.29 264.33a41.22 41.22 0 0 1 37.42-6.2c1.3.43 1.86-1.61.57-2a43.14 43.14 0 0 0 -39 6.48c-1 .79 0 2.55 1 1.76z"/></g></svg>