<svg viewBox="0 0 1000 1000" xmlns="http://www.w3.org/2000/svg"><path d="M975 766.72H668.79c-1.16 0-3.07-.38-4.18 0a2 2 0 0 1-.55 0l.9.9V173.49a65.84 65.84 0 0 0 0-8.07 8.68 8.68 0 0 1 0-1l-.9.89h306.21c1.16 0 3.07.38 4.18 0a2 2 0 0 1 .55 0l-.9-.89v578.71c0 7.82-.09 15.64 0 23.46v1a.9.9 0 0 0 1.8 0V188.88c0-7.81.09-15.64 0-23.46v-1a.91.91 0 0 0-.9-.9H676.71c-4 0-8.16-.42-12.1 0a5 5 0 0 1-.55 0 .91.91 0 0 0-.89.9v578.71c0 7.82-.1 15.64 0 23.46v1a.91.91 0 0 0 .89.89h298.3c3.94 0 8.16.42 12.09 0a5 5 0 0 1 .55 0 .9.9 0 0 0 0-1.76z" fill="#000000" class="fill-000000"></path><path d="M975 766.72H668.79c-1.16 0-3.07-.38-4.18 0a2 2 0 0 1-.55 0l.9.9V173.49a65.84 65.84 0 0 0 0-8.07 8.68 8.68 0 0 1 0-1l-.9.89h306.21c1.16 0 3.07.38 4.18 0a2 2 0 0 1 .55 0l-.9-.89v578.71c0 7.82-.09 15.64 0 23.46v1a.9.9 0 0 0 1.8 0V188.88c0-7.81.09-15.64 0-23.46v-1a.91.91 0 0 0-.9-.9H676.71c-4 0-8.16-.42-12.1 0a5 5 0 0 1-.55 0 .91.91 0 0 0-.89.9v578.71c0 7.82-.1 15.64 0 23.46v1a.91.91 0 0 0 .89.89h298.3c3.94 0 8.16.42 12.09 0a5 5 0 0 1 .55 0 .9.9 0 0 0 0-1.76z" fill="#000000" class="fill-000000"></path><path d="M933.13 480.38V425h-25v-96.21a11.15 11.15 0 0 0-16.61-9.72l-52.62 29.54a41.25 41.25 0 0 0-21.06 35.72c-.33 54.07-1 180.86.16 182 1.43 1.43-62.9 0-62.9 0v-63.87a10.14 10.14 0 0 0-10.1-10.14h-21.92V463.4A33.1 33.1 0 0 0 690 430.3h-25.94v336.53H975V480.38z" fill="#000000" class="fill-000000"></path><path d="M934 480.38V425a.91.91 0 0 0-.9-.9h-25l.9.9v-83.8c0-4 .06-8.06 0-12.09a12.18 12.18 0 0 0-18-10.75c-12.24 6.56-24.24 13.61-36.35 20.41L839 347.52a42.91 42.91 0 0 0-20 24.19c-1.81 5.63-2 11.31-2 17.17q0 6.94-.08 13.89-.09 16.11-.17 32.23-.15 35.06-.21 70.09c0 17.19-.06 34.4.22 51.59 0 2.15.08 4.31.16 6.46a12.52 12.52 0 0 0 .23 3.24c.43 1.23.62-.59.34-.71a8.65 8.65 0 0 0-2.08.18c-2.85.16-5.72.17-8.58.19-16 .12-32.12-.22-48.17-.55l-3.48-.07.89.9v-61.26a22 22 0 0 0-.32-5.25 11.21 11.21 0 0 0-10.86-8.39c-7.23-.15-14.49 0-21.72 0l.89.9v-16.91c0-6 .52-12.43-.6-18.4a34.23 34.23 0 0 0-17.78-23.82c-6.76-3.49-13.78-3.78-21.17-3.78h-20.45a.91.91 0 0 0-.89.89v322.84c0 4.36-.19 8.76 0 13.12v.57a.91.91 0 0 0 .89.9h298.3c4 0 8.1.22 12.11 0h.53a.92.92 0 0 0 .9-.9V492.11c0-3.72.24-7.53 0-11.24v-.49a.92.92 0 0 0-.9-.9h-41.87a.9.9 0 0 0 0 1.8H975l-.9-.9v282.1a17.79 17.79 0 0 0 0 3.86 2 2 0 0 1 0 .49l.9-.9H668.78a22.56 22.56 0 0 0-4.19 0 2.35 2.35 0 0 1-.53 0l.9.9V435.38a26.13 26.13 0 0 0 0-4.51 2.71 2.71 0 0 1 0-.57l-.9.9h16.49c6.62 0 13.34-.46 19.71 1.67a32.49 32.49 0 0 1 20.85 22.26c1.56 5.9 1.07 12.27 1.07 18.32v18.87a.91.91 0 0 0 .9.89H743c4.59 0 9 1.41 10.65 6.23a16.54 16.54 0 0 1 .51 5.52v61.36a.91.91 0 0 0 .9.89q19.49.43 39 .61c7 0 14 .2 21-.16.9 0 3.13.15 3.66-.83.31-.57-.1-.65-.15-1.14 0 .1.19.51.15.13 0 .12-.07-.78-.09-1.08-.78-12.56-.41-25.27-.43-37.86q-.07-33 .09-66 .12-32.61.31-65.2c0-4.56-.14-9.16.15-13.71a40.42 40.42 0 0 1 6.72-19.82c4.54-6.81 10.9-11.14 17.86-15l42-23.57c5.18-2.9 10.75-7.15 16.8-3.61 5.39 3.15 5.08 8.64 5.08 13.93V425a.91.91 0 0 0 .89.9h25l-.9-.9v55.43a.9.9 0 0 0 1.8-.05z" fill="#000000" class="fill-000000"></path><g fill="#32a16b" class="fill-18c4ff"><path d="M975 674.08c-7.43-2-16.5 1.17-21.51 7.42a29.16 29.16 0 0 0-5.79 13.5 9.81 9.81 0 0 0-8.68-2.58c-5.12 1.16-8.24 6.73-8.37 12a25.56 25.56 0 0 0 1.84 9.42 8 8 0 0 0-8.08-.71c-4.57 2.53-6.28 8.17-7.3 13.29-.76 3.76-1 8.23.14 11.79a5.3 5.3 0 0 0-1.12-.06c-3.21.15-6 2.43-7.83 5.05a20.71 20.71 0 0 0-3.73 11.07 18.85 18.85 0 0 0-13.92 12.58l-.37.75H975z"></path><path d="M975.24 673.22a22.31 22.31 0 0 0-18.14 3.69c-5.85 4.18-9.05 11-10.26 17.89l1.49-.4a11.06 11.06 0 0 0-8.54-3 10.48 10.48 0 0 0-6.94 4.12c-4.24 5.45-3.42 12.46-1.22 18.56l1.31-1a9 9 0 0 0-8.65-.89 12.88 12.88 0 0 0-5.78 6.5 34.61 34.61 0 0 0-2.56 9.15 24.4 24.4 0 0 0 .43 10.62l.87-1.14c-3.88-.47-7.3 2.18-9.49 5.12a21.75 21.75 0 0 0-4.09 11.84l.66-.86a19.89 19.89 0 0 0-12.84 9.34c-.82 1.41-1.26 3-2 4.39a.91.91 0 0 0 .78 1.35H975a.91.91 0 0 0 .9-.89v-89.7c0-1.21.09-2.46 0-3.67a.85.85 0 0 1 0-.16.9.9 0 0 0-1.8 0v92.12a5.9 5.9 0 0 0 0 1.26v.16l.9-.9h-84.72l.77 1.35c.62-1.23 1-2.55 1.64-3.76a18.06 18.06 0 0 1 12.12-9.16.9.9 0 0 0 .66-.86 20 20 0 0 1 3.37-10.29c1.87-2.76 4.86-5.33 8.41-4.89a.9.9 0 0 0 .86-1.14c-1.65-5.5-.52-12 1.48-17.27a13.16 13.16 0 0 1 4.38-6.24 7 7 0 0 1 8.07.16.9.9 0 0 0 1.31-1c-1.89-5.26-2.87-11.14.29-16.12a9.23 9.23 0 0 1 5.45-4.15 9 9 0 0 1 8 2.31.9.9 0 0 0 1.49-.4c1.13-6.44 4-12.91 9.44-16.81a20.58 20.58 0 0 1 16.74-3.45.9.9 0 0 0 .48-1.78zM353.12 164.4h310.94v603.22H353.12z"></path><path d="M664.06 766.72H357.85c-1.15 0-3.07-.38-4.17 0a2.1 2.1 0 0 1-.56 0l.9.9V173.49a65.84 65.84 0 0 0 0-8.07 8.68 8.68 0 0 1 0-1l-.9.89h306.21c1.16 0 3.07.38 4.18 0a2 2 0 0 1 .55 0l-.89-.89v578.71c0 7.82-.1 15.64 0 23.46v1a.9.9 0 0 0 1.79 0V188.88c0-7.81.1-15.64 0-23.46v-1a.91.91 0 0 0-.9-.9H365.77c-3.95 0-8.16-.42-12.09 0a5.23 5.23 0 0 1-.56 0 .91.91 0 0 0-.89.9v578.71c0 7.82-.1 15.64 0 23.46v1a.91.91 0 0 0 .89.89h298.3c4 0 8.16.42 12.09 0a5 5 0 0 1 .55 0 .9.9 0 0 0 0-1.76z"></path></g><rect height="10" rx="4.19" width="38.01" x="409.8" y="458.02" fill="#000000" class="fill-000000"></rect><path d="M443.63 467.13c-9.81 0-19.62.12-29.42 0a3.38 3.38 0 0 1-3.42-2.52c-.41-1.74-.18-4.18 1.45-5.19 1.35-.84 3.54-.5 5.06-.5H443.36a3.39 3.39 0 0 1 3.56 3.29c.11 2.32-.47 4.81-3.29 4.92-1.15.05-1.16 1.84 0 1.79a5.15 5.15 0 0 0 5-4.4 7.33 7.33 0 0 0-1-5.42c-1.69-2.16-4.12-2-6.54-2h-21c-2 0-4-.06-6 0-4.25.12-6.15 4.55-4.94 8.27a5.17 5.17 0 0 0 4.86 3.52h29.62a.9.9 0 0 0 0-1.76z" fill="#000000" class="fill-000000"></path><path d="M446.82 474h-2.34a6 6 0 0 1-6-6v-10h10.35a4 4 0 0 1 4 4v6a6 6 0 0 1-6.01 6z" fill="#000000" class="fill-000000"></path><path d="M446.82 473.09a12.74 12.74 0 0 1-4-.27 5.13 5.13 0 0 1-3.44-4.72c-.06-2.37 0-4.74 0-7.11v-3l-.89.9h9.85a3.87 3.87 0 0 1 2.06.42 3.2 3.2 0 0 1 1.53 2.86v5.39a5.57 5.57 0 0 1-.92 3.32 5.16 5.16 0 0 1-4.18 2.18.9.9 0 0 0 0 1.8 7 7 0 0 0 6.84-6.14 51.34 51.34 0 0 0 0-5.95 6.5 6.5 0 0 0-.48-2.89 4.92 4.92 0 0 0-4-2.76c-1.63-.15-3.33 0-5 0h-5.81a.91.91 0 0 0-.9.89v7.71a25.33 25.33 0 0 0 .05 3 7 7 0 0 0 3.73 5.39c1.74.86 3.58.75 5.46.75a.9.9 0 0 0 .1-1.77z" fill="#000000" class="fill-000000"></path><path d="M353.12 164.4h9.3v603.22h-9.3z" fill="#ffffff" class="fill-ffffff"></path><path d="M353.12 164.4h9.3v603.22h-9.3z" fill="#000000" class="fill-000000"></path><path d="M362.42 766.72h-9.3l.9.9V173.49a65.84 65.84 0 0 0 0-8.07 8.68 8.68 0 0 1 0-1l-.9.89h9.3l-.89-.89v578.71c0 7.82-.1 15.64 0 23.46v1a.9.9 0 0 0 1.79 0V188.88c0-7.81.1-15.64 0-23.46v-1a.91.91 0 0 0-.9-.9h-9.3a.91.91 0 0 0-.89.9v578.71c0 7.82-.1 15.64 0 23.46v1a.91.91 0 0 0 .89.89h9.3a.9.9 0 0 0 0-1.76z" fill="#000000" class="fill-000000"></path><path d="M664.06 164.4h9.3v603.22h-9.3z" fill="#ffffff" class="fill-ffffff"></path><path d="M664.06 164.4h9.3v603.22h-9.3z" fill="#ffffff" class="fill-ffffff"></path><path d="M673.36 766.72h-9.3l.9.9V173.49a65.84 65.84 0 0 0 0-8.07 8.68 8.68 0 0 1 0-1l-.9.89h9.3l-.89-.89v578.71c0 7.82-.1 15.64 0 23.46v1a.9.9 0 0 0 1.79 0V188.88c0-7.81.1-15.64 0-23.46v-1a.91.91 0 0 0-.9-.9h-9.3a.91.91 0 0 0-.89.9v578.71c0 7.82-.1 15.64 0 23.46v1a.91.91 0 0 0 .89.89h9.3a.9.9 0 0 0 0-1.76z" fill="#000000" class="fill-000000"></path><path d="M267.81 400.05c23 56.91 89.27 86 147.87 80.45a31.33 31.33 0 0 0 8.54-1.89 20.6 20.6 0 0 0 6.15-3.73 3.32 3.32 0 0 0-2.18-5.75h-.26a3.9 3.9 0 0 1-2.63-6.62 20.79 20.79 0 0 1 11-6 2.47 2.47 0 0 0 1.69-1.11 1.78 1.78 0 0 0-.47-2.67 10.8 10.8 0 0 0-13.14-.47 9.71 9.71 0 0 0 1-.44 2 2 0 0 0-1.17-3.76 10.64 10.64 0 0 0-6.73 3.33c1.69-.81.05-3.68-1.82-3.54s-3.24 1.73-4.76 2.82c-3.07 2.19-7.2 2.45-10.87 1.56-5.28-1.29-9.85-4.7-14.57-7.11-10.62-5.41-20.8-11.62-30.91-17.94-4.5-2.81-9.53-5.17-13.42-8.9a48 48 0 0 1-5.43-6.55l-30.44-41.4" fill="#ffffff" class="fill-ffffff"></path><path d="M400.39 451.55A53 53 0 0 1 390 446.4c-3.4-2-6.93-3.76-10.38-5.67-7.37-4.09-14.59-8.41-21.75-12.86-6.5-4-13.67-7.26-18.59-13.31-2.67-3.28-5.09-6.79-7.59-10.2l-7.79-10.66q-8.79-12-17.59-23.9c-.76-1-2.51 0-1.74 1 10.54 14.34 21 28.78 31.64 43a36.13 36.13 0 0 0 8 8.1c3.13 2.21 6.51 4 9.76 6 7.22 4.47 14.41 9 21.83 13.12 4.11 2.28 8.36 4.29 12.45 6.6 3.69 2.08 7.52 4.38 11.74 5.16a.67.67 0 0 0 .36-1.29zM417.17 451.86a1 1 0 0 0 .76.24 1.3 1.3 0 0 0 .89-.39 1.93 1.93 0 0 0 .6-1.25 2.46 2.46 0 0 0-.1-1 3.54 3.54 0 0 0-.22-.57 1.7 1.7 0 0 0-.57-.65l.36.36a4.2 4.2 0 0 0-1.28-1.34 2.81 2.81 0 0 0-1.78-.48 1 1 0 0 0-1 1 1 1 0 0 0 1 1 .81.81 0 0 1 .27 0h-.27a3.41 3.41 0 0 1 .55.14c.09 0 .25.12-.07 0l.14.07.23.14a1.48 1.48 0 0 1 .13.08c-.27-.18-.15-.11-.08-.06a2.28 2.28 0 0 1 .22.22l.07.09c.11.12-.17-.23 0-.05s.21.27 0 .06l.05.06.08.13-.14-.5.06.37v-.28a1.71 1.71 0 0 0 .15.59l.06.11-.11-.25a2.41 2.41 0 0 1 .17.58v-.29a1.55 1.55 0 0 1 0 .43v-.29c0 .18-.05.35-.07.53v-.28a2.1 2.1 0 0 0-.06.24s.13-.26.07-.16v.06l-.07.12a1.21 1.21 0 0 0-.16.41c0 .07.08-.18 0-.11a.75.75 0 0 0-.09.3.73.73 0 0 0 .2.64zM424.64 453a2 2 0 0 0 .73 0c.18-.05.36-.12.53-.18a2.57 2.57 0 0 0 1-.62 2.9 2.9 0 0 0 .77-1.53 1.82 1.82 0 0 0 0-.77c-.06-.19 0 .24 0 .1a1.09 1.09 0 0 0 0-.18 3.35 3.35 0 0 0-.28-1 3.15 3.15 0 0 0-1.05-1.24 2.72 2.72 0 0 0-1.9-.47 1.05 1.05 0 0 0-.71.29 1 1 0 0 0 .71 1.72 1.71 1.71 0 0 1 .32 0h.07-.16.15l.27.07c.11 0 .19.12-.06 0l.13.06s.2.09.22.14-.21-.17-.08-.05l.1.09.1.11c.12.13 0-.07-.06-.08s.12.19.15.24 0 0 0 .05-.08-.17-.06-.14a.29.29 0 0 1 .05.13 1.82 1.82 0 0 1 .07.25.61.61 0 0 0 0 .13v-.16.06c0 .17.06-.17 0-.11a.92.92 0 0 0-.07.26 1 1 0 0 1 0 .18 1.05 1.05 0 0 0 0-.18.7.7 0 0 0 0 .14.56.56 0 0 1 0 .12s-.08.21 0 0l-.06.11a.86.86 0 0 1-.07.1c-.08.13.19-.22 0 0a.52.52 0 0 1-.1.11s-.21.18-.05.05l-.26.2s-.19.16 0 0l-.13.09-.22.14a3 3 0 0 0-.54.52.76.76 0 0 0-.16.83.78.78 0 0 0 .69.47z" fill="#000000" class="fill-000000"></path><path d="M267.31 400.23c5.21 14.29 14.09 27.25 24.65 38.12a137.36 137.36 0 0 0 36.67 26.57 161 161 0 0 0 43.45 14.52 165.52 165.52 0 0 0 22.76 2.56 128.39 128.39 0 0 0 23.11-.76 24.94 24.94 0 0 0 13-5.38 4.39 4.39 0 0 0-1.06-7.47c-1.56-.63-3.3-.08-4.2-1.89s.33-3.24 1.64-4.41a20.11 20.11 0 0 1 6-3.69c1.74-.68 4.19-.66 5.46-2.17a2.89 2.89 0 0 0-.35-4.27c-1-.87-2.39.55-1.42 1.42s.39 1.78-.78 2.1-2.06.47-3.08.84a21.64 21.64 0 0 0-5.5 2.91c-2.68 2-5.61 4.75-3.74 8.31a4.85 4.85 0 0 0 3.45 2.51 5.36 5.36 0 0 1 2.1.42 2.39 2.39 0 0 1 1.11 1.83c.16 1.93-2.43 3.21-3.83 4a23.8 23.8 0 0 1-6.83 2.52 70.64 70.64 0 0 1-12 1.15c-3.68.16-7.37.18-11.05.07a160.09 160.09 0 0 1-63.94-15.41 139.22 139.22 0 0 1-36.32-24.75 121.48 121.48 0 0 1-25.75-35.15c-.8-1.68-1.57-3.37-2.33-5.07-.31-.68-1.49-.19-1.23.52zM271.46 322.22a114.6 114.6 0 0 1 20 18.73c6.14 7.35 12.25 15 17.9 22.77 2 2.72 3.89 5.9 3.41 9.23-.36 2.5-2 4.6-3.6 6.56l-12.63 15.6a15.71 15.71 0 0 1-4.05 3.92 7.8 7.8 0 0 1-5.43.86c-6.15-1.28-8.56-9.12-14.16-12" fill="#000000" class="fill-000000"></path><path d="M271 322.66a125.38 125.38 0 0 1 17.74 16.57c5.8 6.66 11.26 13.68 16.55 20.74 2.35 3.14 5.61 6.6 6.33 10.58.79 4.33-3 7.79-5.48 10.82q-4.29 5.19-8.54 10.4c-2.35 2.89-4.82 7-9 7-3.4 0-5.83-2.67-7.86-5.07-2.16-2.56-4.22-5.31-7.25-6.88-1.44-.75-2.72 1.41-1.28 2.19 5.51 3 7.63 10.33 14 12 4 1.05 7.56-.79 10.12-3.77 3.12-3.63 6-7.46 9-11.2l4.57-5.75a20.77 20.77 0 0 0 3.28-5.07c1.57-4-.13-7.86-2.4-11.14-5.37-7.74-11.42-15.12-17.48-22.32a114.52 114.52 0 0 0-21.53-20.08c-.57-.4-1.3.54-.75 1z" fill="#000000" class="fill-000000"></path><path d="M276.3 423.09c17.25 77.06 46.6 159.05 66.31 235.52 10.57 41 13.66 77.18 18.37 119.23 1.72 15.34 8.53 38 20.6 47.62 3 2.38 6.88 5.13 6.17 8.87a223.3 223.3 0 0 1-46.31.13 13.27 13.27 0 0 1-11.44-9.55c-9.57-33.64-11.09-42.14-19.71-67.07-10.26-29.65-31.22-63.35-33.21-94.66-.54-8.43 0-17-2.08-25.21-2-7.92-6.22-15-10.31-22.1-11.38-19.63-22-39.85-29.06-61.41-12-36.65-13.28-75.81-14.47-114.35" fill="#ffffff" class="fill-ffffff"></path><path d="M387.75 834.33c.71-3.74-3.19-6.49-6.17-8.87-12.07-9.62-18.88-32.28-20.6-47.62-.71-6.42-1.4-12.69-2.07-18.87l-9 2.42a9.22 9.22 0 0 0-4.24 2c-2.92 2.9-.92 8.22-3.1 11.71-3.05-2.36-4-7.21-7.62-8.44a9.64 9.64 0 0 0-4.28-.11l-16.73 2.09c5.68 17.48 8 28 16.09 56.3a13.27 13.27 0 0 0 11.42 9.55 223.3 223.3 0 0 0 46.3-.16z" fill="#32a16b" class="fill-18c4ff"></path><path d="M388.62 834.57c.82-5.38-4.93-8.21-8.23-11.34a44.61 44.61 0 0 1-8.58-11.85 96.43 96.43 0 0 1-9.47-30.09c-1.13-7.39-1.72-14.89-2.54-22.32a.9.9 0 0 0-1.13-.86l-8.3 2.22c-2.13.58-4.43 1.14-5.84 3-2.53 3.28-.72 7.85-2.75 11.31l1.41-.19c-3.33-2.7-4.23-8.21-9.08-8.9a16.89 16.89 0 0 0-4.43.22l-5.17.65-10.58 1.32a.9.9 0 0 0-.87 1.13c3.81 11.72 7 23.62 10.29 35.5q1.62 5.92 3.28 11.85 1 3.52 2 7a20.66 20.66 0 0 0 2.1 5.44 14.28 14.28 0 0 0 8.09 6.16 31.93 31.93 0 0 0 6.32.85c2.54.21 5.08.39 7.63.51a224.63 224.63 0 0 0 35-1c1.14-.12 1.15-1.91 0-1.79a225.15 225.15 0 0 1-30.06 1.18c-5-.15-10-.46-15-.94-3.85-.37-7.33-1.75-9.73-4.91a14.54 14.54 0 0 1-2.33-5c-.63-2.25-1.27-4.49-1.9-6.74q-1.63-5.87-3.25-11.73c-1.68-6.1-3.33-12.2-5-18.28q-2.64-9.35-5.63-18.6l-.86 1.14 9.59-1.2a81.16 81.16 0 0 1 9.31-1.08c4.86 0 5.88 5.87 9.09 8.47a.91.91 0 0 0 1.41-.18 11.44 11.44 0 0 0 1.3-5c.14-1.83 0-3.91.94-5.58 1.14-2.07 3.67-2.47 5.75-3l7.83-2.11L358 759c1.28 11.68 2.08 23.48 5.18 34.86 2.67 9.79 6.58 19.81 13.14 27.68a38 38 0 0 0 5.73 5.46c2.13 1.7 5.31 4 4.83 7.13-.16 1.09 1.56 1.58 1.74.44z" fill="#32a16b" class="fill-18c4ff"></path><path d="M275.62 423.27c6.29 28.65 14.08 56.94 22.26 85.1 8.39 28.84 17.29 57.53 25.83 86.33 8.33 28.1 16.86 56.34 22.83 85.06 5.89 28.36 9 57.17 12.11 85.94 1.3 11.91 2.58 23.58 6.53 35 3.48 10 8.44 19.7 16.86 26.39 2.29 1.83 5.17 4 4.75 7.27l1-1a220.16 220.16 0 0 1-25.55 1.3q-6.4-.06-12.79-.47c-3.94-.26-8.51-.09-12.12-1.89a12.45 12.45 0 0 1-6.29-7.37c-1.2-3.78-2.17-7.65-3.23-11.47q-2.5-9-4.95-18c-2.69-9.8-5.5-19.57-8.68-29.22a415.48 415.48 0 0 0-15.35-38.78c-6.24-14-12.63-28.07-16.82-42.87a103.21 103.21 0 0 1-3.92-21.42c-.51-8-.09-16.09-1.76-24s-5.52-14.77-9.45-21.57c-4.07-7-8.11-14.12-11.91-21.32-7.75-14.69-14.63-29.89-19.51-45.8-9.73-31.72-11.73-65.1-12.86-98.06-.14-4.11-.3-8.23-.43-12.35 0-1.22-1.94-1.23-1.9 0 1 33.43 2.07 67.21 10.23 99.82A239.09 239.09 0 0 0 247.55 586c3.68 7.58 7.65 15 11.77 22.36 4 7.07 8.44 14 11.78 21.37 3.61 8 4.47 16.27 4.72 25a122.59 122.59 0 0 0 2.33 22.45c3.22 14.93 9.22 29.12 15.36 43.05s12.38 27.5 17.24 41.82c3.36 9.88 6.37 19.86 9.16 29.92 1.59 5.75 3.15 11.51 4.74 17.26q1.47 5.32 3 10.64c.95 3.36 1.61 7 3.74 9.82 4.22 5.69 10.76 5.87 17.25 6.32a230 230 0 0 0 26.39.27q6.39-.3 12.75-1a1 1 0 0 0 1-1c.71-5.42-5.43-8.35-8.69-11.56a48.14 48.14 0 0 1-9.15-13.46 101.05 101.05 0 0 1-9-32.66c-3.21-28.69-6-57.47-11.19-85.89-5.32-28.92-13.6-57.25-21.87-85.44-8.45-28.79-17.33-57.45-25.89-86.2-8.45-28.38-16.5-56.87-23.45-85.66q-1.26-5.28-2.48-10.56c-.2-.88-1.54-.51-1.35.37z" fill="#000000" class="fill-000000"></path><path d="M245.11 423.05c12.51 43.48 8.9 89.68 10.45 134.89.66 19.39 2.26 39.11-2.48 57.92-5.11 20.25-17.25 38-30.79 53.94-42.76 50.2-100.4 85.37-147.38 131.67-5.83 5.74-11.75 12.13-13.3 20.16-.78 4-.62 8.79-3.74 11.49-2.89 2.51-7.53 1.92-10.62-.34s-5-5.77-6.66-9.2a211 211 0 0 1-14.54-39.05c-.88-3.34-1.66-7-.37-10.17 1.48-3.68 5.25-5.79 8.68-7.76 31.85-18.34 55.72-47.76 76.79-77.88s40.37-61.87 66.33-87.89c4.19-4.21 8.74-8.57 10.23-14.33 1-4 .45-8.28-.23-12.39-2.25-13.51-5.37-26.86-7.4-40.41a255.76 255.76 0 0 1 4.64-99.15" fill="#ffffff" class="fill-ffffff"></path><path d="M103.05 773.56 89 759.6l-13.38 11q2.31-5.8 4.6-11.61a5.7 5.7 0 0 0 .56-2.51 5.49 5.49 0 0 0-1.09-2.44l-9.79-14.93a177.33 177.33 0 0 1-35.54 27.49c-3.43 2-7.2 4.08-8.68 7.76-1.29 3.2-.51 6.83.37 10.17a211 211 0 0 0 14.54 39.05c1.68 3.43 3.57 6.95 6.66 9.2s7.73 2.85 10.62.34c3.12-2.7 3-7.44 3.74-11.49 1.55-8 7.47-14.42 13.3-20.16 9.41-9.28 19.26-18.11 29.33-26.7-.39-.41-.79-.77-1.19-1.21z" fill="#32a16b" class="fill-18c4ff"></path><path d="M103.69 772.93 89.61 759a.93.93 0 0 0-1.26 0L75 770l1.5.87q1.71-4.44 3.5-8.87c1-2.51 2.46-5 1-7.6s-3.34-5.13-5-7.67l-5.31-8.08a.9.9 0 0 0-1.4-.18 179.28 179.28 0 0 1-34.18 26.66c-2.69 1.58-5.58 3-7.79 5.28a10.88 10.88 0 0 0-3.17 8.1c.09 3.5 1.24 7 2.19 10.31 1 3.6 2.15 7.19 3.37 10.73a212.32 212.32 0 0 0 8.52 21.07c2.55 5.43 5.29 12.14 11.38 14.36a9.27 9.27 0 0 0 7.9-.48c2.46-1.5 3.59-4.21 4.12-6.92.58-3 .73-6 1.72-8.86a31.1 31.1 0 0 1 5-8.73c4.91-6.31 11.1-11.73 16.94-17.15 6.42-6 13-11.77 19.66-17.46a.92.92 0 0 0 0-1.27l-1.18-1.2a.9.9 0 0 0-1.27 1.27l1.18 1.2v-1.27c-11.07 9.46-22.15 19.11-32.23 29.63-4.22 4.41-8.21 9.36-10 15.27-1.44 4.66-.38 13.16-6.49 14.64-6.65 1.61-10.84-5.2-13.31-10.19a203.34 203.34 0 0 1-8.57-20A184.76 184.76 0 0 1 26.59 783c-.78-3.27-1.25-6.86.72-9.82 1.64-2.47 4.35-4 6.85-5.46a182.85 182.85 0 0 0 36.35-28l-1.4-.18q4.83 7.36 9.65 14.73c.79 1.2 1.33 2.17.88 3.64s-1.06 2.73-1.59 4.07c-1.11 2.79-2.21 5.57-3.31 8.36-.36.92.89 1.37 1.5.87l13.37-11h-1.26l14.07 14a.9.9 0 0 0 1.27-1.28z" fill="#32a16b" class="fill-18c4ff"></path><path d="M254.21 506.77c.17 16 0 32 .43 48 .43 15.4 1.68 30.87.11 46.24a102.39 102.39 0 0 1-13.66 41.19c-7.06 12.17-16 23.17-25.37 33.59-18.62 20.63-39.72 38.85-61.19 56.44-21.64 17.77-43.77 34.95-64.53 53.7q-7.78 7-15.27 14.35c-4.51 4.42-9.09 9.09-11.9 14.83a28.48 28.48 0 0 0-2.54 8.81c-.4 2.9-.67 6.47-3.09 8.49-2.67 2.26-6.8 1.42-9.41-.49-2.79-2-4.5-5.25-6-8.28a199.59 199.59 0 0 1-9.07-21.24c-2.51-6.94-5.21-14.25-6.43-21.55-.68-4.12.37-7.58 3.66-10.22 2.48-2 5.42-3.39 8.12-5a166.35 166.35 0 0 0 16.29-11.35c21.33-16.77 38.57-38.11 54.24-60.09 16.75-23.49 32-48.11 50.07-70.61 4.52-5.62 9.22-11.1 14.15-16.37 4.48-4.79 9.82-9.16 13.38-14.73 3.87-6 3.33-12.59 2.19-19.36-1.31-7.78-2.9-15.5-4.39-23.24a289.25 289.25 0 0 1-5.56-46.65 256 256 0 0 1 2.86-46.11q1.74-11.22 4.47-22.25c.31-1.3-1.68-1.85-2-.55a257.3 257.3 0 0 0-5.54 93.05c1.95 15.7 5.64 31.09 8.25 46.67.67 4 1.34 8.23.3 12.23a22.83 22.83 0 0 1-5.5 9.25c-4.75 5.3-10 10.17-14.68 15.5-19.43 21.94-35.23 46.72-51.81 70.8-15.89 23.09-32.8 45.85-53.94 64.45a176.53 176.53 0 0 1-16.53 12.93q-4.25 2.93-8.69 5.56c-2.7 1.6-5.58 3-7.9 5.18-5.32 4.91-3.53 11.61-1.81 17.77a207.49 207.49 0 0 0 7.4 21.87q2.05 5.15 4.37 10.17a67.8 67.8 0 0 0 4.89 9.42c3 4.41 8.41 8.27 13.93 6 5.81-2.39 5.11-9.43 6.39-14.48 1.74-6.8 6.56-12.25 11.38-17.1 20.09-20.23 42.48-38.09 64.62-56s44.39-35.83 64.56-56c19.43-19.4 39-41.34 48.19-67.69 5-14.51 5.87-29.88 5.54-45.12-.35-16-1.15-32-1.32-48-.09-8-.15-16-.29-24a.66.66 0 0 0-1.32 0z" fill="#000000" class="fill-000000"></path><path d="M248 313.05a123.84 123.84 0 0 0-33.8.44c-10.16 1.53-20.25 4.38-29 9.73s-16.2 13.34-19.52 23.06c-2.22 6.48-2.57 13.44-2.51 20.29A179.6 179.6 0 0 0 176.55 433c1.06 2.58 2.2 5.35 1.61 8.08-.47 2.13-2 4.2-1.32 6.28.71 2.31 3.54 3.06 5.92 3.42a230.61 230.61 0 0 0 93.35-5.53c2.43-.66 5-1.43 6.72-3.23 2.41-2.48 2.75-6.25 2.95-9.7l.56-9.58c1.5-25.68 3-51.61-1.2-77a41.69 41.69 0 0 0-3.05-11.12c-2.42-5.1-6.61-9.18-11.29-12.32-6.47-4.34-14.32-8.25-22.06-9.24" fill="#000000" class="fill-000000"></path><path d="M248 312.33c-15.55-2.05-31.83-1.37-47 3-13.19 3.79-25.71 11.22-32.91 23.24-3.75 6.26-5.39 13.3-5.85 20.54a145.46 145.46 0 0 0 .68 23.33 180.64 180.64 0 0 0 10.53 45.64c.68 1.83 1.4 3.64 2.13 5.44a17.13 17.13 0 0 1 1.64 5.76c.11 3.28-3 6.44-.84 9.62 1.66 2.44 5 2.77 7.7 3.15 3.85.53 7.7 1 11.57 1.32a231.88 231.88 0 0 0 71.05-4.71c3.75-.84 7.52-1.7 11.19-2.83 3-.93 5.85-2.46 7.29-5.43s1.5-6.47 1.69-9.74q.34-6 .7-12c.47-8.23.9-16.45 1.12-24.69.44-16.25 0-32.59-2.66-48.65a43.27 43.27 0 0 0-2.93-10.74 27.25 27.25 0 0 0-5.73-8c-5-5-11.5-8.71-18-11.39a41.42 41.42 0 0 0-10.37-3.03c-1.17-.16-1.68 1.64-.49 1.8 7.33 1 14.18 4.23 20.37 8.19 5.64 3.61 10.73 8.36 13.12 14.78a54 54 0 0 1 2.42 10.53q.91 5.88 1.45 11.83c.71 7.77 1 15.57 1 23.38 0 15.61-1 31.2-1.95 46.77-.19 3.24-.06 6.89-1.49 9.89-1.53 3.22-4.86 4.18-8 5q-11 2.94-22.2 4.77a229 229 0 0 1-45.5 2.9 226.57 226.57 0 0 1-23.28-2c-2.42-.34-7.23-.72-6.67-4.27.24-1.5 1.07-2.84 1.39-4.33a10.91 10.91 0 0 0-.44-5.55c-1.11-3.57-2.75-7-4-10.5s-2.41-7.07-3.45-10.66a177.9 177.9 0 0 1-7-44.34c-.22-7.49-.2-15.18 2-22.41 3.82-12.68 14.38-22 26.14-27.31 13.59-6.15 29.24-7.91 44-7.61q5.82.12 11.59.79c.93.11.9-1.32 0-1.44z" fill="#000000" class="fill-000000"></path><path d="M155.56 377.8a98.29 98.29 0 0 0-16.38 53.11c-.07 6.27.49 12.65 2.77 18.5 2 5.2 5.33 9.81 8.89 14.12A127.7 127.7 0 0 0 197 498.59a3.64 3.64 0 0 0 5.43-1.44q5.88-7.66 11.22-15.73a3.82 3.82 0 0 0 .16-5.17q-14.4-24.28-30.22-47.68a6.69 6.69 0 0 1-1.35-2.94 6.62 6.62 0 0 1 1-3.6l15.44-30.83c1.6-3.2 3.15-7.23 1-10.11-1.82-2.45-5.34-2.66-8.39-2.65" fill="#ffffff" class="fill-ffffff"></path><path d="M155 377.48a96 96 0 0 0-16.9 55.73 48.91 48.91 0 0 0 2.32 15.19 46.33 46.33 0 0 0 7.28 12.9 122.52 122.52 0 0 0 19.13 19.83A128.47 128.47 0 0 0 190 496.38c2.13 1.09 4.28 2.15 6.47 3.12s4 1.18 5.74-.48a45.44 45.44 0 0 0 4.6-6q2.43-3.32 4.76-6.69c.78-1.13 1.55-2.26 2.31-3.4a11.75 11.75 0 0 0 1.74-3.11c.64-2.28-1.06-4.37-2.16-6.21q-4.23-7.11-8.6-14.14-8.72-14.06-17.92-27.81l-2.31-3.44c-.73-1.08-1.57-2.2-1.31-3.57a14.86 14.86 0 0 1 1.61-3.68l1.91-3.8 7.6-15.19 3.81-7.59a44.33 44.33 0 0 0 3-6.59c1.22-4 .27-8.17-4-9.69a17.29 17.29 0 0 0-5.94-.69 1 1 0 0 0 0 2c3.86 0 8.91.75 8.33 5.82a19.39 19.39 0 0 1-2.32 6.3l-3.58 7.15L186.6 413l-3.6 7.16c-1 2-2.29 4.07-1.67 6.34s2.41 4.17 3.65 6c1.45 2.16 2.88 4.32 4.31 6.49q4.29 6.51 8.46 13.08T206 465.3l4 6.66 1.87 3.14c.6 1 1.62 2.22 1.75 3.41s-.84 2.28-1.45 3.19c-.76 1.14-1.53 2.27-2.31 3.4-1.46 2.12-3 4.22-4.48 6.3a52.51 52.51 0 0 1-4.58 6c-1.78 1.8-4.74-.36-6.58-1.25a128.88 128.88 0 0 1-22.64-13.92 122.56 122.56 0 0 1-18.73-17.91 67 67 0 0 1-8.18-11.47 38 38 0 0 1-4.15-14.13c-1.92-18.71 3.08-38.19 12-54.58 1.12-2.05 2.3-4.05 3.54-6 .43-.69-.63-1.28-1.08-.63z" fill="#000000" class="fill-000000"></path><path d="M241.6 304.88a132.45 132.45 0 0 0-5.34 19.36 3.07 3.07 0 0 1-.58 1.51 2.88 2.88 0 0 1-2.18.72 27.86 27.86 0 0 1-13.5-3.35 41.67 41.67 0 0 1-11-8.67 82.27 82.27 0 0 0 9.93-19.14c.1-.27.13-.67-.15-.73" fill="#ffffff" class="fill-ffffff"></path><path d="M241 304.55a66.11 66.11 0 0 0-3.88 10.59c-.53 1.81-1 3.64-1.49 5.48a38.14 38.14 0 0 0-1.12 5.28 1.1 1.1 0 0 0 .56 1 1.13 1.13 0 0 0 1.34-.18 1.74 1.74 0 0 0 .41-.74 1.12 1.12 0 0 0-.51-1.25 1.17 1.17 0 0 0-1.35.18c-.76.71-2.08.52-3 .48a22.19 22.19 0 0 1-3.63-.42 28.37 28.37 0 0 1-7.22-2.45 40.81 40.81 0 0 1-11.4-8.79l.17 1.3a83.28 83.28 0 0 0 6.32-10.9c.9-1.83 1.72-3.69 2.49-5.58.47-1.16 2-3.55.72-4.61-.95-.78-2.31.57-1.36 1.36l.18.16-.28-.68a6.21 6.21 0 0 1-.79 2.42c-.36.9-.73 1.79-1.12 2.68q-1.08 2.48-2.33 4.87a84.22 84.22 0 0 1-5.68 9.2 1.09 1.09 0 0 0 .16 1.3 40.91 40.91 0 0 0 13.42 9.9 29.64 29.64 0 0 0 7.94 2.24c2.26.3 5.21.78 7-.91l-1.35.17-.51-1.26.16-.24 1.35-.17.55 1a36.1 36.1 0 0 1 1.15-5.1q.66-2.66 1.39-5.3c1-3.48 2.08-6.93 2.91-10.45.17-.68-.85-1.19-1.19-.5z" fill="#000000" class="fill-000000"></path><path d="M255.63 260.22a35.64 35.64 0 0 0 6.54 15.59c1.14 1.54 2.38 3.82 1 5.13a8.61 8.61 0 0 1-1.41.84c-2 1.27-2 4.14-1.92 6.51.27 5.07-.09 10.75-3.79 14.22s-9.25 3.49-14.15 2.58c-13.46-2.5-26.22-12-29.43-25.33a36.84 36.84 0 0 1 1-19c1.35-4.58 3.44-9.07 6.92-12.34 6.26-5.91 16.2-6.71 24.21-3.54 5.47 2.17 10.75 9.43 11.1 15.31" fill="#ffffff" class="fill-ffffff"></path><path d="M213.07 279.59a34.52 34.52 0 0 1 5.8-26.7 20.44 20.44 0 0 1 25.87-6.56 17.71 17.71 0 0 1 10.15 13.89c.12.91 1.49 1 1.48 0-.12-12.31-13.42-19.39-24.49-17.68-10.38 1.6-17.36 10.79-20 20.42a32.77 32.77 0 0 0-.08 17 .64.64 0 0 0 1.24-.34z" fill="#000000" class="fill-000000"></path><path d="M255 260.22a34.08 34.08 0 0 0 3.8 12.14c1 1.79 2.31 3.37 3.32 5.13.43.75 1 1.88.41 2.64s-1.65.94-2.28 1.67c-2.29 2.65-1.24 6.9-1.35 10.08-.12 3.79-1 7.94-4.1 10.42-3.62 2.87-8.6 2.5-12.9 2.05-.83-.08-1 1.25-.19 1.45a18.47 18.47 0 0 0 11.95-.54c3.77-1.68 6-5.23 6.76-9.18a28.86 28.86 0 0 0 .47-6.29c0-1.85-.37-3.89.28-5.68s3.08-1.94 3.54-4-.89-3.74-1.92-5.18a39.15 39.15 0 0 1-6.52-14.91c-.14-.7-1.36-.55-1.27.17z" fill="#000000" class="fill-000000"></path><path d="M253.88 270.13a2.49 2.49 0 0 0-.28.15 2.14 2.14 0 0 0-.39.28 2 2 0 0 0-.5.61 2.32 2.32 0 0 0-.16.44 2.2 2.2 0 0 0 0 .36c0 .11 0 .23.05.35a1.45 1.45 0 0 0 .47.82l.2.15a.77.77 0 0 0 .36.12 1 1 0 0 0 .61-.12 1.33 1.33 0 0 0 .19-.14.9.9 0 0 0 .18-.15 1.73 1.73 0 0 0 .36-.61 1.4 1.4 0 0 0 .08-.49 1.47 1.47 0 0 0 0-.36.5.5 0 0 0 0-.13 1.13 1.13 0 0 0-.26-.45l-.21-.16a1 1 0 0 0-.89-.05 1 1 0 0 0-.54.54 1 1 0 0 0 .06.89s0 0 0 .05L253 272a.42.42 0 0 1 0 .15v-.26.11-.27a.75.75 0 0 1 0 .16l.1-.24a1.09 1.09 0 0 1-.08.15l.15-.2a.57.57 0 0 1-.11.11l.2-.15h1l.2.15a.63.63 0 0 1-.12-.11l.15.19a.64.64 0 0 1-.08-.14l.1.23a.89.89 0 0 1-.08-.32v.25a1.13 1.13 0 0 1 0-.26v.23a1.29 1.29 0 0 1 .08-.28l-.08.2a4.08 4.08 0 0 1 .44-.72l.07-.15a.57.57 0 0 0 0-.26.68.68 0 0 0-.18-.38.7.7 0 0 0-.79-.1zM233.31 273h.06-.05.08c.07 0-.12-.06 0 0h.07l.08.07.05.06c.06.05-.08-.13 0 0l.09.15a.36.36 0 0 0 0 .09v-.06l.06.2c0 .12.06.25.08.38a.28.28 0 0 1 0 .09 1.15 1.15 0 0 1 0 .19.67.67 0 0 1 0 .2v.26c0 .06-.06.14 0 .05l.95-.25.08.06.06.08s-.05-.13 0 0a1 1 0 1 1 0 .11v-.05s-.05.21 0 .08 0 .07 0 .07c0-.05 0 0-.07.08.08-.08-.16.1-.05 0a.74.74 0 0 0 .26-1 .73.73 0 0 0-1-.26 1.15 1.15 0 0 0-.41.44 1.22 1.22 0 0 0-.14.59 1.24 1.24 0 0 0 .55 1 .7.7 0 0 0 .95-.25 2.49 2.49 0 0 0 .24-1.23 4.2 4.2 0 0 0-.22-1.12 2.16 2.16 0 0 0-.77-1.08 1.48 1.48 0 0 0-1.22-.23.64.64 0 0 0-.45.78.65.65 0 0 0 .78.44zM249.64 264.62h.09l-.44-.18c.38.4 1 .22 1.48.14l1.11-.17c.77-.11 1.55-.19 2.3-.36a.87.87 0 0 0 .6-1.06.9.9 0 0 0-1.06-.6c-.74.11-1.48.31-2.22.47l-1.09.24c-.41.09-1 .15-1.22.59l.37-.29h-.08a.61.61 0 0 0-.43.67.59.59 0 0 0 .59.52z" fill="#000000" class="fill-000000"></path><path d="M236.6 268.39c3.16 4.82 3.13 11 3.18 16.73q.08 7.59.6 15.16a14.66 14.66 0 0 0 1.2 5.73c1.36 2.66 4.19 4.29 7.08 5A18.35 18.35 0 0 0 269 301.9a8.82 8.82 0 0 0 1.05-6.14c-.63-2.38-2.65-4.07-4.25-5.95a19.18 19.18 0 0 1-3.1-5.08 6 6 0 0 0-1-1.87 4.54 4.54 0 0 0-3.78-1.07 14.23 14.23 0 0 0-4.26 1 26.74 26.74 0 0 1-4.13 1.69 4 4 0 0 1-4.09-1.11 5.55 5.55 0 0 1-.84-2.46c-.67-3.85-1.33-7.82-.46-11.62a23.53 23.53 0 0 0 1.07-5.06c0-1.73-1-3.65-2.68-4a4.91 4.91 0 0 0-2.33.29 29.88 29.88 0 0 0-12.86 8c1.24.65 2.59-.56 3.91-1a5.15 5.15 0 0 1 5.33 1.7 15.32 15.32 0 0 1 2.7 5.25" fill="#000000" class="fill-000000"></path><path d="M236.06 268.7c2.83 4.85 2.7 10.57 2.73 16 0 3.23.07 6.47.2 9.71a78.43 78.43 0 0 0 .61 8.67c1.63 10.51 15.11 11.22 22.68 7 3.93-2.19 7.43-5.9 8.62-10.32a8.13 8.13 0 0 0-1.18-7c-1.57-2.22-3.66-4-5.05-6.33-1.14-2-1.55-4.58-3.94-5.43s-5.29-.13-7.51.78c-1.95.8-6.1 3.38-7.38.25a17.29 17.29 0 0 1-.77-3.77 32.7 32.7 0 0 1-.45-5.13 18.31 18.31 0 0 1 .72-4.93 13.36 13.36 0 0 0 .76-4.38c-.14-2.26-1.63-4.59-4.09-4.65a11.93 11.93 0 0 0-4.46 1.19 33.49 33.49 0 0 0-4 1.9 30.93 30.93 0 0 0-7 5.53 1 1 0 0 0 .43 1.65c2.44 1 4.27-1.9 6.78-1s3.64 3.84 4.49 6.22c.42 1.16 2.3.66 1.88-.52-1-2.65-2-5.5-4.6-7a5.91 5.91 0 0 0-3.67-.85c-1.37.17-3 1.77-4.35 1.25l.44 1.66a29.05 29.05 0 0 1 12.65-7.85c1.34-.39 2.47-.26 3.15 1.06a5.24 5.24 0 0 1 .16 3.62 30.38 30.38 0 0 0-1.22 7.58 50.79 50.79 0 0 0 .94 7.86c.39 2.13 1.56 3.7 3.8 4 2.4.35 4.4-1 6.53-1.82 1.88-.76 5.81-2 7.18.21.58.93.88 2.06 1.4 3a20.79 20.79 0 0 0 2 3.05c1.43 1.8 3.51 3.38 4.27 5.62 1.46 4.32-2.62 9.21-5.9 11.53a17.65 17.65 0 0 1-11.76 3.25 13.12 13.12 0 0 1-6.15-2.11 8.32 8.32 0 0 1-3.5-6.36c-.68-6.12-.73-12.36-.83-18.51-.1-5.29-.51-10.9-3.61-15.39-.45-.65-1.49-.07-1.08.63z" fill="#000000" class="fill-000000"></path><path d="M242.31 261.56a18.38 18.38 0 0 0 5.75-14.56l4.62 3.28a1.5 1.5 0 0 0 1.1.39 1.39 1.39 0 0 0 .7-.48c1.16-1.26 2-3.13 1.24-4.67a5.16 5.16 0 0 0-2.43-2.1 33.74 33.74 0 0 0-22.1-3.46 18.77 18.77 0 0 0-9.83 4.88c-2.64 2.59-4.72 5.67-7.34 8.27-3.35 3.32-6.36 7.11-8 11.54a21.68 21.68 0 0 0 .79 16.4c2.85 6 8.39 10.49 11 16.61.12.29-.33.45 0 .54s.29-.16.55-.46c2.56-3 6.18-5.9 8.61-9 2.17-2.78 4.28-5.73 5.19-9.14a2.3 2.3 0 0 0 0-1.42 3.13 3.13 0 0 0-1-1.07 6.53 6.53 0 0 1-2.2-6.54 5 5 0 0 1 5.55-3.6 22.46 22.46 0 0 0 2.24.6 3.17 3.17 0 0 0 3.3-3.31" fill="#000000" class="fill-000000"></path><path d="M242.77 262a18.62 18.62 0 0 0 6.23-15l-1.46.84 2.69 1.92a11 11 0 0 0 2.75 1.8c1.6.48 2.76-1.14 3.39-2.41a4.58 4.58 0 0 0 0-4.45c-.93-1.52-2.8-2.3-4.34-3-7.22-3.32-15.56-4.47-23.28-2.24a20 20 0 0 0-9.27 5.76c-1.4 1.51-2.67 3.14-4 4.71s-2.86 3-4.25 4.56c-5.42 6-8.61 13.53-7.06 21.72.83 4.37 3.08 8.09 5.75 11.58 1.3 1.7 2.66 3.35 3.91 5.09.62.87 1.21 1.75 1.75 2.66.27.46.53.92.77 1.4a5.2 5.2 0 0 0 .26.53c.11.42.18.49.21.19s.05-.22 0-.05a1 1 0 0 0 .16 1.25c1.42 1.14 2.22-.54 3.08-1.46 1.29-1.38 2.66-2.68 4-4a42.63 42.63 0 0 0 7-8.84 17.3 17.3 0 0 0 2-4.86c.41-1.89-.56-2.52-1.74-3.78A5.41 5.41 0 0 1 230 271a4 4 0 0 1 3.43-3 10.32 10.32 0 0 1 2.73.63 4.17 4.17 0 0 0 2.54-.23 4.32 4.32 0 0 0 2.63-4.18 1.18 1.18 0 0 0-2.35 0 2.06 2.06 0 0 1-1.76 2.11c-1 .09-2-.57-2.94-.63a6.12 6.12 0 0 0-4.5 1.76c-2.74 2.58-2.3 6.84 0 9.54.32.37.74.65 1.05 1a1.51 1.51 0 0 1 .26 1.69 17.49 17.49 0 0 1-1.18 2.87 34.73 34.73 0 0 1-3.91 5.73c-2.69 3.3-6.44 5.8-8.82 9.33l.89-.51h-.25l.74.31-.1-.08.16 1.25c.61-1.23-.21-2.35-.82-3.46a36 36 0 0 0-2.74-4.16c-2-2.68-4.2-5.21-6-8.05a20.91 20.91 0 0 1-.78-20.82 36.2 36.2 0 0 1 6.44-8.29c2.65-2.67 4.78-5.81 7.5-8.4 5.05-4.82 12.93-5.65 19.56-4.69a32.85 32.85 0 0 1 11.44 3.79 2.81 2.81 0 0 1 1.72 2.12 3.78 3.78 0 0 1-1 2.62c-.46.48-.63.2-1.14-.15l-1.34-.95-2.9-2a1 1 0 0 0-1.46.84 18.58 18.58 0 0 1-5.24 14.12c-.58.6.3 1.46.92.92z" fill="#000000" class="fill-000000"></path><path d="M254 286a.68.68 0 0 0-.3.74 3.77 3.77 0 0 0 1.14 1.76 4.46 4.46 0 0 0 .9.58 5.77 5.77 0 0 0 .58.22l.22.06a1.51 1.51 0 0 0 .6 0 .72.72 0 0 0 .42-.28.73.73 0 0 0 .17-.49.8.8 0 0 0-.11-.4.78.78 0 0 0-.48-.37 1.57 1.57 0 0 0-.43-.09h.21a3.44 3.44 0 0 1-.76-.21l.19.08a2.81 2.81 0 0 1-.54-.29l-.21-.15c.2.14 0 0 0 0l-.11-.11a1.39 1.39 0 0 1-.21-.21l-.08-.09c-.07-.09.11.14 0 0a3.4 3.4 0 0 1-.31-.52.55.55 0 0 0-.31-.27.67.67 0 0 0-.42 0 .2.2 0 0 0-.15.06z" fill="#ffffff" class="fill-ffffff"></path><path d="M185.17 323.22c-19.07 9-32.77 40.94-42.25 62.54-.84 1.9-1.69 3.94-1.36 6s1.64 3.57 3 5a74.44 74.44 0 0 0 41.91 22.77 4.36 4.36 0 0 0 5.43-2.3 303.08 303.08 0 0 0 20.51-33.42c4.26-8.06 8.21-16.48 9.39-25.52s-.75-18.88-7-25.51" fill="#000000" class="fill-000000"></path><path d="M184.85 322.67c-5.69 2.54-10.42 6.81-14.5 11.45a107.47 107.47 0 0 0-12.14 17.54c-3.71 6.46-7 13.15-10.09 19.91-1.48 3.2-2.91 6.43-4.34 9.66s-3.86 7.09-3.24 10.8a10.37 10.37 0 0 0 2.72 4.9c1.33 1.52 2.76 3 4.23 4.34a74.32 74.32 0 0 0 9.54 7.6 75.92 75.92 0 0 0 22 10.19c2 .56 4.05 1 6.11 1.42 1.82.33 3.83.76 5.51-.29s2.74-3.1 3.84-4.68q2-2.92 4-5.88Q206.34 397.69 213 385c7.69-14.48 15.2-32.84 5.94-48.47a25.14 25.14 0 0 0-3.46-4.51c-1-1-2.4.49-1.5 1.5 5.11 5.65 7.17 13.34 6.95 20.85-.25 8.58-3.5 16.79-7.26 24.39-4 8-8.42 15.76-13.14 23.32q-3.56 5.72-7.38 11.27c-.62.91-1.25 1.81-1.89 2.72a6.69 6.69 0 0 1-2 2.21c-1.54.82-4.17-.14-5.77-.48a73.17 73.17 0 0 1-21.53-8.34c-6.53-3.82-13-8.73-17.81-14.66a6.22 6.22 0 0 1-1.43-5.85 39 39 0 0 1 2.1-5.2c1.31-3 2.61-5.94 4-8.9 2.87-6.36 5.87-12.66 9.17-18.81 6-11.23 13.26-23 24-30.27a33.38 33.38 0 0 1 3.46-2c.74-.37.09-1.42-.64-1.09z" fill="#000000" class="fill-000000"></path><path d="M172.71 417.31a85.24 85.24 0 0 0 14.11 2.48c2.18.24 3.87-.07 5.29-1.85a30 30 0 0 0 3.26-5.45c2.1-4.21 4-8.53 6.14-12.71s4.36-8.12 6.73-12.08c2.77-4.61 5.72-9.11 8.8-13.51.66-.94-.86-1.79-1.51-.89a187.8 187.8 0 0 0-13.95 22.26q-3.14 5.9-5.87 12c-.86 1.9-1.71 3.8-2.69 5.64s-2.13 4.66-4.28 5a15.48 15.48 0 0 1-3.83-.26c-1.35-.16-2.7-.34-4-.53-2.62-.37-5.21-.86-7.82-1.27a.63.63 0 0 0-.33 1.21zM277.93 343.32a124.74 124.74 0 0 1 9.73 44.17c.16 4.2 0 8.36-.12 12.56 0 1.07 1.51 1 1.63 0 .87-7.56.27-15.49-.7-23a125.89 125.89 0 0 0-4.91-22.46 113.76 113.76 0 0 0-4.56-11.9c-.33-.74-1.39-.1-1.08.63z" fill="#32a16b" class="fill-18c4ff"></path><path d="M193 504.57c3.59.92 6.92-3 9.12-5.28a98.17 98.17 0 0 0 7.6-9.18c2.33-3.09 4.84-6.13 6.24-9.79 1.57-4.07 1.92-8.42 2.62-12.69.14-.85-1.11-1.23-1.31-.36-.46 2-1 3.85-1.55 5.77-.5 1.74-.82 3.52-1.32 5.26-1 3.57-3.18 6.39-5.36 9.34s-4.4 5.85-6.79 8.62c-1.17 1.36-2.4 2.66-3.65 3.95s-3.1 3.52-5.27 3.13c-.79-.14-1.14 1-.33 1.23zM74.26 804.9c-2.35-1.77-4.82-5.55-2.05-8.11 1.32-1.22 3.08-.69 4.24.47s1.73 3.15 2.2 4.84l1.74-1a7.09 7.09 0 0 1 0-9c1-1.14 2.81-2.67 4.39-2 1.8.8 2 3.28 2.12 5l2.15-.29a13.65 13.65 0 0 1-.8-8.2 2.76 2.76 0 0 1 2.31-2.35 2.36 2.36 0 0 1 2.44 2.21c.15 1.09 1.9 1 2.12 0 .26-1.2.54-2.4.75-3.61s-1.72-1.94-2.07-.58c-.31 1.2-.55 2.4-.8 3.6h2.12a4.48 4.48 0 0 0-7.83-2.24c-2.54 3-1.65 8.39-.35 11.72.41 1 2.27 1 2.15-.29-.21-2.46-.61-5.25-2.91-6.67s-4.81-.22-6.57 1.39a9.23 9.23 0 0 0-.65 12.77c.7.83 2-.06 1.75-1-.68-2.44-1.51-5-3.7-6.53a4.72 4.72 0 0 0-5.86.21 5.72 5.72 0 0 0-1.74 5.47 8.74 8.74 0 0 0 4.21 5.29c.71.44 1.27-.62.64-1.09zM362.88 780.17c-4.48-1.41-10.68 3-9.58 7.91 1.16 5.13 7.41 6 10.94 2.76.86-.78-.06-2-1.06-1.82a9.85 9.85 0 0 0-5.44 3.08c-1.35 1.51-2.74 3.9-1.74 5.9 2.12 4.13 8.28 2.2 10.56-.64.93-1.16-.6-2.8-1.67-1.67-2.15 2.26-4.63 5.62-2.66 8.8.87 1.42 2.48 2.2 3.93 2.92a22.18 22.18 0 0 0 5.19 2c1.16.24 2.08-1.48.86-2-2.37-1.11-5.08-1.75-7.19-3.36-2.59-2 0-5 1.54-6.67l-1.67-1.67a5.88 5.88 0 0 1-3.43 2.22c-1 .22-3 .19-3.47-1.08s1.13-3 2-3.8a7.84 7.84 0 0 1 3.81-1.91l-1.05-1.82c-2.38 2.22-6.67 1.78-7.45-1.76s4.08-6.56 7.22-5.91a.76.76 0 0 0 .4-1.46z" fill="#000000" class="fill-000000"></path><g fill="#32a16b" class="fill-18c4ff"><path d="M201.94 506.83q6.26 33.8 11.13 67.82 1.4 9.75 2.67 19.51l.37-.64a6.91 6.91 0 0 1-7.73 0l.16 1.29c.62-.73 1.66.26 1.67 1 0 1.16-1.28 2.16-2.1 2.77-1.51 1.12-3.06 2.18-3.56 4.1a.94.94 0 0 0 .65 1.14l5.82 1.43-.43-1.61a403.15 403.15 0 0 0-28.11 31c-8.24 10.18-16.15 20.62-23.9 31.17-15.61 21.23-30.75 42.88-47.83 63a310.26 310.26 0 0 1-30.87 31.82c-.87.77.4 2 1.27 1.27 19.72-17.42 36.45-37.84 52.2-58.85s30.7-43 47.38-63.49c9.83-12.08 20.39-23.4 31.23-34.56a1 1 0 0 0-.42-1.62l-5.85-1.35.65 1.14c.76-3.12 5.41-3.63 5.58-7.2.1-2.15-2.89-4.35-4.53-2.33a.84.84 0 0 0 .16 1.29 8.52 8.52 0 0 0 9.31-.18.72.72 0 0 0 .37-.64q-4.57-34.27-10.54-68.35-1.71-9.67-3.51-19.32c-.16-.82-1.39-.47-1.24.34zM259.55 567.42l26.81 45.73 7.68 13.1.7-1.22a5.54 5.54 0 0 0-4.57 1.55c-1.11 1.07-2.07 2.73-.91 4a4.63 4.63 0 0 0 7.28-.74c.54-1-1-1.85-1.5-.87-1.41 2.56-3 5.71-1.82 8.66.9 2.19 3.19 3.83 5.58 3.1l-1.09-1.09c-2.12 8.86-.75 18 1.63 26.65 2.52 9.21 5.81 18.23 8.81 27.3q9.19 27.76 18.41 55.52L337 780.48c.38 1.17 2.24.67 1.85-.51l-18.21-54.8q-4.53-13.65-9.07-27.28c-3-9.07-6.16-18.1-9-27.22-3.07-9.82-5.51-20.27-3.09-30.51a.89.89 0 0 0-1.09-1.09c-1.81.56-3.44-1.14-3.73-2.83-.38-2.24.91-4.47 1.94-6.35L295 629a2.85 2.85 0 0 1-4.84 0l.09.65a4 4 0 0 1 4.45-3c.63.08 1-.74.7-1.22l-27.06-45.59-7.75-13.05a.63.63 0 0 0-1.08.63zM272.63 460.1a51 51 0 0 0 3.88 13.63 44.67 44.67 0 0 0 7.49 12.35c.57.63 1.68-.2 1.19-.92a74.29 74.29 0 0 1-7.19-11.79 60.06 60.06 0 0 1-4.06-13.44c-.14-.71-1.36-.56-1.27.17zM744.75 290.05c10.16-.23 20.32-.56 30.48-.67a.83.83 0 0 0 .22-1.62c-2-.61-1.85-3.56-.62-4.85 2.14-2.22 5.85-.32 7.61 1.39.73.71 2.06-.22 1.45-1.11-3.48-5.07-2.24-13.4 3.55-16.29s13.71 2.18 13.13 8.66l2-.54a15.47 15.47 0 0 1-.39-13.9 18.6 18.6 0 0 1 10.15-9.23c4.57-1.8 10.2-2.25 14.58.31 3.4 2 5.43 5.49 6.55 9.18a50.52 50.52 0 0 1 1.72 13.91h2.5c-.31-4 4-8 8-6.43a6.44 6.44 0 0 1 3 8.92c-.84 1.41 1.28 2.61 2.18 1.27a7.62 7.62 0 0 1 4.82-3.22l-1.23-.32a5.2 5.2 0 0 1 .64 5.09c-.33.86.48 1.52 1.22 1.61l5 .62c1.62.2 1.6-2.34 0-2.54l-5-.62 1.22 1.61a7.75 7.75 0 0 0-1.29-7.56 1.26 1.26 0 0 0-1.24-.33 10.21 10.21 0 0 0-6.32 4.39l2.18 1.27a9 9 0 0 0-4.55-12.61c-5.49-1.94-11.63 3.18-11.19 8.85.12 1.59 2.53 1.64 2.5 0-.14-8.62-1-19.65-9-24.82-9.16-5.91-22.93-.6-27.89 8.47a17.84 17.84 0 0 0-.08 17.17 1.09 1.09 0 0 0 2-.55c.51-6.12-5.14-11-10.91-11.51-6.23-.53-10.93 4.75-11.72 10.57a13.31 13.31 0 0 0 2.19 9.5l1.45-1.12c-2.61-2.48-7.76-4.43-10.46-.95-1.77 2.28-1.43 6.47 1.72 7.3l.22-1.62c-10.15.47-20.32.73-30.48 1.08a.62.62 0 0 0 0 1.24zM719.42 405.11l17.18 1.18a.84.84 0 0 0 .72-1.25 3.42 3.42 0 0 1 1-4.61c1.74-1.29 4.16-1.12 6.16-.75a1 1 0 0 0 1.15-1.14c-.3-1.85-.2-4.38 1.49-5.59a2.63 2.63 0 0 1 3.88.68 1 1 0 0 0 1.82-.76c-1-3 .7-5.77 2.83-7.78 2.28-2.17 5.61-4.12 8.84-4.06 3 .06 5.31 2.36 6.41 5 1.33 3.26 1 6.93.72 10.35-.07 1 1.17 1.29 1.81.75l2.81-2.4 1-.9c.51-.43.92-1 1.5-.44s.85 2.08 1.07 2.85a23.12 23.12 0 0 1 .71 3.87c.05.52.45 1.15 1.07 1.07 1.68-.22 3.38-.39 5-.77a1 1 0 0 0-.26-1.91 50.55 50.55 0 0 0-5.06.58l1.35 1a25.42 25.42 0 0 0-1.06-5.33c-.4-1.24-.86-2.81-2.06-3.51s-2.46-.06-3.45.76c-1.42 1.18-2.81 2.41-4.21 3.61l1.81.74c.31-4.12.56-8.5-1.44-12.28a9.13 9.13 0 0 0-8.23-5.18c-6.39.22-15.74 7.23-13.17 14.44l1.82-.77c-1.14-2.3-4.23-2.72-6.33-1.51-2.71 1.58-3 5.13-2.56 7.91l1.15-1.15c-2.75-.49-6.06-.56-8.22 1.53-1.7 1.65-2.4 4.48-.87 6.47l.72-1.25c-5.73-.24-11.45-.5-17.18-.75-.79 0-.78 1.18 0 1.23zM930.81 360.18q6.65-.37 13.29-.68a.94.94 0 0 0 .89-1.16c-.39-2.11.37-4.89 2.56-5.73 1.78-.69 4.5.87 4 2.95l2 .54a20.31 20.31 0 0 1 1.57-5.44c.58-1.27 1.76-4.36 3.5-4 1.53.28 2.66 1.64 4.25 1.92a3.19 3.19 0 0 0 3.36-1.26l-2.1-.89-.36 2.05c-.24 1.33 1.7 1.91 2.05.57l.52-2c.27-1-1.14-2-1.91-1.11-1.06 1.25-3.16-.59-4.22-1.07a3.74 3.74 0 0 0-4.31.5 13.48 13.48 0 0 0-2.79 4.64 22.18 22.18 0 0 0-1.53 5.59c-.18 1.27 1.69 1.87 2 .54.71-3.33-2.71-6.23-5.94-5.56-3.65.76-5 5-4.4 8.29l.88-1.16q-6.65.68-13.29 1.3c-.77.07-.79 1.25 0 1.21zM679.56 713.94a5.64 5.64 0 0 1 7.75.85 5.56 5.56 0 0 1-1.17 7.6l1.38 1.07c1.58-3 4.24-6.53 7.63-7.59 1.42-.44 3.09-.34 3.85 1.09.52 1 .6 2.27-.51 2.79l1.48 1.14a80.86 80.86 0 0 1 10.76-20.09 78.17 78.17 0 0 1 7.55-8.81c2.64-2.66 5.66-5.54 9.44-6.39 7.86-1.75 10.36 8.19 11 14a44.19 44.19 0 0 1-2.44 20.06 43.21 43.21 0 0 1-13.14 18.63l1.83 1.41a19.17 19.17 0 0 1 7.93-7.7c2.61-1.35 7.56-3.32 9 .45 1.19 3 0 6.63-1 9.52a37.05 37.05 0 0 1-6.1 10.77 1.22 1.22 0 0 0 1.48 1.9c3.2-1.78 7.67-4.2 11.09-1.51s-.33 6.76-2.62 8.81c-.91.82.33 2.49 1.34 1.73a12.85 12.85 0 0 0 4.72-5.53 6 6 0 0 0-1.35-6.39c-4.18-4.16-10.09-1.61-14.41.8l1.47 1.9a40.72 40.72 0 0 0 5.88-9.73c1.27-3 2.46-6.37 2.38-9.69-.06-2.71-1-5.67-3.76-6.74-3.16-1.26-7.22.47-10 2a21.22 21.22 0 0 0-8.08 8.2 1.17 1.17 0 0 0 1.83 1.41A46.44 46.44 0 0 0 741 700.3c-.61-6.18-2.52-15.39-9.79-16.87-4-.81-7.76 1.22-10.79 3.63a59.73 59.73 0 0 0-8.72 9 81.41 81.41 0 0 0-13.7 24.3c-.32.9.76 1.49 1.49 1.14a3.63 3.63 0 0 0 1.7-4.31 4.53 4.53 0 0 0-3.72-3.44c-5.15-.77-9.46 4.81-11.49 8.82a.88.88 0 0 0 1.38 1.06 6.92 6.92 0 1 0-8.67-10.79c-.62.49.21 1.58.85 1.1zM212.49 317.6a30.87 30.87 0 0 0 12.39 7.95 25.36 25.36 0 0 0 7.68 1.25 24.4 24.4 0 0 0 3.82-.31 10.07 10.07 0 0 0 3.87-1.08 1 1 0 0 0-.5-1.86 27.36 27.36 0 0 0-3.3.71 21.53 21.53 0 0 1-3.67.36 25.6 25.6 0 0 1-7.38-1 29.39 29.39 0 0 1-12-7 .65.65 0 0 0-.92.93zM102 323.72c-9.6 16.5-18.15 33.91-23 52.46a114.52 114.52 0 0 0-3.89 27.74 91.56 91.56 0 0 0 .89 13.74 58.43 58.43 0 0 0 3.14 13.24 21.73 21.73 0 0 0 7.07 9.88 14.21 14.21 0 0 0 11 2.78c3.74-.75 6.7-3.42 8.71-6.56a21.62 21.62 0 0 0 3.5-10.07c.16-2.87-.38-6.34-2.66-8.33-2.87-2.51-6.61-1.07-9.16 1.14C91.61 425 87.36 432.6 85 440.18A48 48 0 0 0 83.87 464a22.6 22.6 0 0 0 4.53 10.2c2 2.45 5.07 4.83 8.42 4.76a6.9 6.9 0 0 0 4.19-1.65l-1.63-.67c.92 8.84 1.88 18.18 6.53 26 3.86 6.47 10.26 11.65 18 12.19 1.18.09 1.17-1.73 0-1.83-7.25-.58-13.23-5.86-16.69-12-4.15-7.38-5-16.1-5.91-24.36a1 1 0 0 0-1.63-.68c-2.68 2.14-6 .68-8.23-1.34a17.77 17.77 0 0 1-5.17-8.72A45.33 45.33 0 0 1 86 444a46 46 0 0 1 9.65-19.46c2-2.39 5.57-6.8 9.18-5.12 2.5 1.17 3 4.65 2.91 7.07a19.31 19.31 0 0 1-3.06 9.32c-1.92 3.15-4.9 5.85-8.72 6.22-8.48.81-13.89-7.18-16.06-14.3-4.91-16.08-3.6-33.93.42-50 4.2-16.81 11.46-32.72 19.81-47.84 1-1.82 2-3.64 3.07-5.44a.67.67 0 0 0-1.15-.67z"></path></g><g fill="#ffffff" class="fill-ffffff"><path d="M426.6 412.1c.21 2.25.59 4.49.92 6.73s.65 4.54 1 6.8c.15.93 1.53.52 1.4-.39-.31-2.23-.67-4.45-1-6.66s-.65-4.45-1.12-6.64c-.14-.67-1.27-.54-1.21.16zM453.41 406.58A111.88 111.88 0 0 1 446.7 425c-.41.87.89 1.63 1.28.76a112.56 112.56 0 0 0 6.63-18.89.62.62 0 0 0-1.2-.33zM460.5 437a85.85 85.85 0 0 1 16.08-17.69c.68-.57-.29-1.5-1-1a78.2 78.2 0 0 0-16.24 18c-.45.7.66 1.34 1.12.65zM469.74 452.09a45.66 45.66 0 0 0 12.86-8.74c.74-.71-.38-1.84-1.12-1.12a44.7 44.7 0 0 1-12.54 8.51c-.91.41-.12 1.76.8 1.35z"></path></g><g fill="#32a16b" stroke="#32a16b" stroke-miterlimit="10" stroke-width="1.19" class="fill-18c4ff stroke-18c4ff"><rect height="5" rx="1.07" width="5" x="840.16" y="385.69"></rect><rect height="5" rx="1.07" width="5" x="860.17" y="385.69"></rect><rect height="5" rx="1.07" width="5" x="880.17" y="385.69"></rect><rect height="5" rx="1.07" width="5" x="840.16" y="402.8"></rect><rect height="5" rx="1.07" width="5" x="860.17" y="402.8"></rect><rect height="5" rx="1.07" width="5" x="880.17" y="402.8"></rect><rect height="5" rx="1.07" width="5" x="840.16" y="419.92"></rect><rect height="5" rx="1.07" width="5" x="860.17" y="419.92"></rect><rect height="5" rx="1.07" width="5" x="880.17" y="419.92"></rect><rect height="5" rx="1.07" width="5" x="840.16" y="437.03"></rect><rect height="5" rx="1.07" width="5" x="860.17" y="437.03"></rect><rect height="5" rx="1.07" width="5" x="880.17" y="437.03"></rect><rect height="5" rx="1.07" width="5" x="840.16" y="454.15"></rect><rect height="5" rx="1.07" width="5" x="860.17" y="454.15"></rect><rect height="5" rx="1.07" width="5" x="880.17" y="454.15"></rect><rect height="5" rx="1.07" width="5" x="840.16" y="471.26"></rect><rect height="5" rx="1.07" width="5" x="860.17" y="471.26"></rect><rect height="5" rx="1.07" width="5" x="880.17" y="471.26"></rect><rect height="5" rx="1.07" width="5" x="840.16" y="488.38"></rect><rect height="5" rx="1.07" width="5" x="860.17" y="488.38"></rect><rect height="5" rx="1.07" width="5" x="880.17" y="488.38"></rect><rect height="5" rx="1.07" width="5" x="840.16" y="505.5"></rect><rect height="5" rx="1.07" width="5" x="860.17" y="505.5"></rect><rect height="5" rx="1.07" width="5" x="880.17" y="505.5"></rect><rect height="5" rx="1.07" width="5" x="840.16" y="522.61"></rect><rect height="5" rx="1.07" width="5" x="860.17" y="522.61"></rect><rect height="5" rx="1.07" width="5" x="880.17" y="522.61"></rect><rect height="5" rx="1.07" width="5" x="840.16" y="539.73"></rect><rect height="5" rx="1.07" width="5" x="860.17" y="539.73"></rect><rect height="5" rx="1.07" width="5" x="880.17" y="539.73"></rect><rect height="5" rx="1.07" width="5" x="840.16" y="556.84"></rect><rect height="5" rx="1.07" width="5" x="860.17" y="556.84"></rect><rect height="5" rx="1.07" width="5" x="880.17" y="556.84"></rect></g><path d="M580.72 332 550 308.69a5 5 0 0 0-8 4v46.57a5 5 0 0 0 8 4l30.76-23.29a5 5 0 0 0-.04-7.97z" fill="#ffffff" class="fill-ffffff"></path><rect fill="#ffffff" height="29.31" rx="4.82" transform="rotate(180 525.7 335.95)" width="59.51" x="495.94" y="321.3" class="fill-ffffff"></rect><path d="M230.86 386.76a210 210 0 0 1 18.67-29.12c1.12-1.48 2.48-3.06 4.32-3.25 2-.21 3.73 1.27 5.11 2.71a59.48 59.48 0 0 1 14 24.31 7.61 7.61 0 0 1 .33 4.34c-.74 2.32-3.33 3.44-5.66 4.16a78.08 78.08 0 0 1-33.93 2.73c-1.78-.25-3.84-.79-4.52-2.45" fill="#32a16b" class="fill-18c4ff"></path><path d="M231.44 387.1a229.93 229.93 0 0 1 12.89-20.79c1.2-1.7 2.42-3.39 3.66-5.05a36.4 36.4 0 0 1 3.7-4.66 3.53 3.53 0 0 1 4.95-.29 24.32 24.32 0 0 1 4 4.12 58.14 58.14 0 0 1 10.84 19.45c.59 1.79 1.61 4.17.73 6-.73 1.49-2.48 2.27-4 2.79a66.47 66.47 0 0 1-11.82 2.82 77.3 77.3 0 0 1-14 .88c-2.35-.07-4.7-.24-7-.52-1.79-.21-4.4-.3-5.29-2.16-.56-1.17-2.29-.15-1.74 1a5.44 5.44 0 0 0 3.93 2.71 44 44 0 0 0 6.37.78A77.87 77.87 0 0 0 253 394a78.74 78.74 0 0 0 13.85-2.73c3.24-1 7.34-2.4 7.69-6.34.19-2.14-.68-4.34-1.37-6.33a60 60 0 0 0-2.27-5.65 59.36 59.36 0 0 0-6.48-10.9 62.13 62.13 0 0 0-4-4.84 11.76 11.76 0 0 0-4.54-3.5c-4.12-1.4-6.75 2.9-8.79 5.7a202.32 202.32 0 0 0-16.77 27c-.4.78.75 1.46 1.17.69z" fill="#32a16b" class="fill-18c4ff"></path><path d="M409.15 722.18a241.29 241.29 0 0 0 35.54-15.74 251.21 251.21 0 0 0 32.75-21.24 261.55 261.55 0 0 0 29.07-25.88 267.17 267.17 0 0 0 24.94-29.93 260.77 260.77 0 0 0 20.39-33.56 252.47 252.47 0 0 0 14.91-35.92q3-9.3 5.3-18.81 1.13-4.71 2.06-9.47c.31-1.61.61-3.23.89-4.85.11-.61.38-1.32 0-1.87a12.9 12.9 0 0 0-2.47-2.17l-5-4.34c-.5-.45-1.2-1.35-1.87-1.52s-1.65.4-2.28.63a73.24 73.24 0 0 0-9.18 4.11 85.4 85.4 0 0 0-16.32 11.45c-10.32 9.09-18.73 20.17-26.18 31.66a353.53 353.53 0 0 0-22.56 40c-6.88 14.44-12.39 29.67-14.56 45.57-2.09 15.36-1.19 31.36 4.36 45.95 2.53 6.66 5.93 13.44 11.52 18.06a26.9 26.9 0 0 0 18.7 5.84c14.45-.75 27.4-9.18 38.77-17.4A224.42 224.42 0 0 0 581.51 673a221.69 221.69 0 0 0 14.29-17.21 156.55 156.55 0 0 0 12.63-19c3.58-6.59 6.48-14 6.27-21.6a20.82 20.82 0 0 0-2.42-9.89c-1.47-2.53-4-4.64-7.09-4.24-3.32.44-5.48 3.37-7.33 5.86q-3.47 4.67-6.47 9.64a124.49 124.49 0 0 0-9.95 20.56 121.83 121.83 0 0 0-6 22.22c-1.23 7.26-1.52 15 2.71 21.43a26.69 26.69 0 0 0 14.58 10.42 33.87 33.87 0 0 0 20.1-.47c7-2.22 13.38-6.1 19.23-10.51 1.06-.8 0-2.62-1-1.81-7.45 5.62-16 10.48-25.46 11.63-7.85 1-16.18-1.11-22.11-6.51a19.64 19.64 0 0 1-5.92-9.62c-1.29-5-.62-10.28.29-15.29a121.86 121.86 0 0 1 22.54-51.48c1.23-1.61 2.78-3.53 4.88-3.95s3.79 1 4.89 2.58c2.49 3.65 2.8 8.72 2.38 13-.93 9.63-6.26 18.36-11.52 26.23a219.43 219.43 0 0 1-16.9 22.01 221.64 221.64 0 0 1-41.29 37c-7.43 5.12-15.22 9.83-23.92 12.44-8 2.41-17 2.88-24.44-1.65-7.94-4.85-12.13-14.19-14.88-22.71a88.19 88.19 0 0 1-4-28.46c.31-20 6.53-39.28 15-57.21 4.26-9 9.08-17.74 14.08-26.35 4.3-7.42 8.8-14.75 13.75-21.76 9.64-13.69 21.25-26.58 36.1-34.7a70.72 70.72 0 0 1 11.21-4.92l-.87-.24 8.85 7.71-.23-.87a242.37 242.37 0 0 1-14.2 50.18 255.38 255.38 0 0 1-24.37 46.08 262.56 262.56 0 0 1-33.11 40.35 258.28 258.28 0 0 1-40.61 33.01 242.24 242.24 0 0 1-46.38 23.83c-2 .76-4 1.5-6 2.2-.78.28-.45 1.52.34 1.25z" fill="#ffffff" class="fill-ffffff"></path></svg>