<svg viewBox="0 0 1000 1000" xmlns="http://www.w3.org/2000/svg"><g fill="#32a16b" class="fill-18c4ff fill-32a16b"><path d="M938.25 626.85c-8 5.53-19.12 8.47-27.18 10.47Q874 646.52 836 652c-24.22 3.47-48.43 6.2-72.92 4.94 3.46 11.21-1.88 24.07-7.08 35.1a1381.85 1381.85 0 0 0-64.7 164H975s-9.61-155.58-36.75-229.19z"></path><path d="M937.29 625.21c-8 5.41-17.48 8-26.72 10.27q-17.49 4.34-35.16 7.83A682.82 682.82 0 0 1 803.85 654a291.53 291.53 0 0 1-40.73 1 1.92 1.92 0 0 0-1.84 2.41c3.78 12.67-3.27 25.89-8.5 37.08q-8.85 18.93-17.12 38.13-16.62 38.6-30.87 78.14-8 22.23-15.28 44.7a1.92 1.92 0 0 0 1.83 2.41h272.15c3.67 0 7.35.07 11 0h.51a1.92 1.92 0 0 0 1.9-1.91c-.33-5.37-.74-10.73-1.16-16.1q-1.62-20.54-3.72-41-2.85-27.9-6.67-55.69c-2.74-19.78-5.91-39.52-9.87-59.1-3.56-17.62-7.69-35.23-13.48-52.27q-.93-2.73-1.92-5.43c-.84-2.28-4.51-1.29-3.67 1 6.06 16.46 10.3 33.58 14 50.71 4.16 19.47 7.45 39.13 10.3 58.83 2.69 18.63 5 37.31 6.94 56q2.28 21.55 4 43.15.54 6.75 1 13.5c.15 2 .07 4.16.42 6.14a2.46 2.46 0 0 1 0 .26l1.9-1.9H702.85c-3.65 0-7.38-.2-11 0h-.48l1.83 2.41q13.13-40.53 28.65-80.24 15.43-39.43 33.33-77.86c5.92-12.72 14.11-27.52 9.8-42l-1.83 2.41c24.5 1.23 48.93-1.5 73.15-5q36.08-5.18 71.54-13.76c10.77-2.61 22.1-5.26 31.4-11.58 1.98-1.32.08-4.62-1.95-3.23zM25 355.58V679a41.12 41.12 0 0 0 41.13 41.13h590.33A41.12 41.12 0 0 0 697.59 679V355.58A41.13 41.13 0 0 0 677 320L381.86 149.55a41.12 41.12 0 0 0-41.13 0L45.57 320A41.12 41.12 0 0 0 25 355.58z"></path><path d="M23.1 355.58v318.74a88.27 88.27 0 0 0 .21 8.91 43.45 43.45 0 0 0 27.55 36c7.83 3 15.71 2.81 23.86 2.81h571c5.48 0 11.16.32 16.59-.41A43.41 43.41 0 0 0 697.15 693c1.91-5.49 2.34-11.15 2.34-16.89V380.54c0-8.24.07-16.48 0-24.72a43.67 43.67 0 0 0-18.56-35.63c-2.22-1.55-4.62-2.84-7-4.19l-31.19-18-53.1-30.65-63.34-36.57-62.9-36.32-50.7-29.3-27.74-16c-6.17-3.56-12.66-6.16-19.85-6.83-9.48-.88-18.56 1.68-26.72 6.39l-25.79 14.87-49.53 28.59-62.45 36.06L137 265l-54.18 31.25-33 19.06c-1.72 1-3.45 2-5.16 3a43.7 43.7 0 0 0-21.56 37.27c0 2.45 3.77 2.45 3.8 0a39.88 39.88 0 0 1 20-34.19c2.25-1.31 4.51-2.6 6.77-3.91l35-20.21 54.88-31.68L206.89 229l61.19-35.32 48.18-27.82q12.18-7 24.34-14.05c10.16-5.84 21.88-7.59 33.13-3.86a57.42 57.42 0 0 1 10.61 5.22l30 17.33L466 200.32l62.48 36.07L591 272.47l51.64 29.81 29.95 17.29a60.59 60.59 0 0 1 9.2 6 40.1 40.1 0 0 1 13.94 30.88v320.18c0 6.74-.91 13.31-3.9 19.46a39.67 39.67 0 0 1-35.39 22.16H74.55c-8.66 0-16.94.16-25.09-3.7a39.72 39.72 0 0 1-22.56-35.62V355.58a1.9 1.9 0 0 0-3.8 0z"></path></g><path d="M180.28 697.27c4.32-13.57-40.82-216.1-43.63-230.07l-15.38-76.49c-.44-2.23-.86-4.71.31-6.67 1-1.7 3-2.57 4.79-3.33a1344.2 1344.2 0 0 1 266.8-79.59c40.91-7.7 82.59-13.5 124.09-10.2 4 .32 8.14.79 11.45 3 3.9 2.66 5.88 7.29 7.64 11.67q41.32 102.54 73.12 208.57" fill="#ff9999" class="fill-ffffff"></path><path d="M534.75 470.33a23.74 23.74 0 0 1-17.83-3 32.68 32.68 0 0 1-12.09-13.75c-1-2-1.8-4.08-3.44-5.53-2.23-2-5.44-2.32-8.42-2.47a7.93 7.93 0 0 1 2.92.88 2.74 2.74 0 0 1 1.43 2.52 2.62 2.62 0 0 1-2.58 2.05 5.36 5.36 0 0 1-3.28-1.29 16.69 16.69 0 0 1-4.75-6.31 7.94 7.94 0 0 1-1-3.91c.23-2.89 3-4.82 5.47-6.33-3.08-1.23-3.61-5.73-1.82-8.53s5-4.29 8.06-5.59a5.64 5.64 0 0 1 4.51-9.58c-1.09-.68-.8-2.5.23-3.29a6 6 0 0 1 3.7-.82l9.05-.06c5.34 0 10.76-.05 15.93 1.28a10.69 10.69 0 0 0 3.11.54 10.07 10.07 0 0 0 2.23-.47c3.41-.94 7.19-1.38 10.38.15a18.39 18.39 0 0 1 4.33 3.28c3 2.77 6 5.61 7.85 9.22a31.13 31.13 0 0 1 2.63 9.37 138.82 138.82 0 0 1 1.67 19 23.55 23.55 0 0 1-.65 7.16" fill="#ff9999" class="fill-ffffff"></path><path d="M677 414.32 381.86 584.73a41.12 41.12 0 0 1-41.13 0L45.57 414.32A41.12 41.12 0 0 1 25 378.7v-23.12V679a41.12 41.12 0 0 0 41.13 41.13h590.33A41.12 41.12 0 0 0 697.59 679V378.7A41.13 41.13 0 0 1 677 414.32z" fill="#000000" class="fill-000000"></path><path d="M676.07 412.68 642 432.33l-79.77 46.06-92 53.09-70.6 40.77-16.81 9.75c-13 7.5-27.92 8.57-41.25 1-12.56-7.09-25-14.43-37.49-21.64l-81.34-47-91.65-52.86L62.67 422l-15-8.65a43.08 43.08 0 0 1-11.35-9.12c-7.2-8.35-9.44-18.41-9.44-29.14v-19.51a1.9 1.9 0 0 0-3.8 0V678c0 14.1 6.2 27.26 17.64 35.7 7.86 5.79 17.21 8.3 26.87 8.3h565.14c7.78 0 15.58.05 23.37 0a43.66 43.66 0 0 0 37.06-20.56c4.92-8 6.33-16.85 6.33-26V378.7c0-2.45-3.77-2.45-3.8 0a39.86 39.86 0 0 1-19.62 34c-2.11 1.25-.2 4.54 1.92 3.28a43.73 43.73 0 0 0 21.5-37.26h-3.8v276.8c0 14.83 2.12 31.77-6.28 44.8-7.41 11.49-20.16 17.89-33.68 17.93H67.81c-9.5 0-18.63-2.53-26.16-8.56-10-8-14.75-19.84-14.75-32.46V355.58a1.9 1.9 0 0 0-3.8 0V376c0 10.4 2.34 20.21 8.73 28.62 5 6.6 11.56 10.61 18.51 14.62l56.41 32.57 89.8 51.85 87.73 50.65 52.12 30.09 3.28 1.9a43.72 43.72 0 0 0 33.48 4.15c6.14-1.76 11.51-5.17 17-8.33L449.38 548l90.33-52.15 86.93-50.19 49-28.32L678 416c2.11-1.26.19-4.55-1.93-3.32zM681.18 272.76c2.15 9.45 5.87 18.46 8.21 27.86a52.61 52.61 0 0 1 1.93 13.77 45.36 45.36 0 0 1-1 7.53 54.79 54.79 0 0 0-1.28 6.69 6.32 6.32 0 0 0 4 5.91 10.42 10.42 0 0 0 6 .39l-1.24-.51c4.75 10.5 9.66 21.14 16.73 30.31 3 3.94 6.43 8.18 11.13 10.13s9.92 1.44 14.71.14c6.45-1.77 12.58-4.83 18.51-7.87 1.1-.56.14-2.11-1-1.63-5.37 2.37-10.62 5-16.23 6.8-4.52 1.45-9.51 2.4-14.16.91s-8.09-5.74-11-9.53a95.43 95.43 0 0 1-8.21-12.81c-3.13-5.72-5.88-11.63-8.59-17.56a1.11 1.11 0 0 0-1.24-.5 7.5 7.5 0 0 1-5-.49 4.49 4.49 0 0 1-2.06-2.36 6.61 6.61 0 0 1 .26-3.46c.92-4.43 1.84-9 1.64-13.57-.38-9.13-3.63-18-6.53-26.6-1.55-4.59-3.15-9.19-4.3-13.9-.21-.85-1.49-.49-1.3.35z" fill="#000000" class="fill-000000"></path><path d="M707 300.32s-.08.14 0 .05v-.05l.06-.05c0 .06-.13.09 0 0l.13-.08h.06s-.19.06 0 0h.14-.1.1s.15 0 0 0l.15.05h-.09l.09.06h.07c.1.06 0 0-.05 0a1.09 1.09 0 0 0 .11.1l.07.08c-.09-.12 0 0 0 .06l.11.19v.07s-.07-.19 0-.1a1.66 1.66 0 0 0 .06.21c0 .07 0 .13.05.2s0 .06 0 .1 0 .18 0 0v.14a1.34 1.34 0 0 1 0 .2v.95-.14.08c0 .03.1-.18 0-.08s0 .06 0 .06.13-.16.16-.18.05 0 0 0 .24-.09.14-.06.26 0 .14 0h.16c-.03 0-.12-.05 0 0s.05 0 0 0c-.18-.12.16.15 0 0l-.06-.06c-.11-.11.07.09.06.09s-.1-.17-.11-.19a.25.25 0 0 1 0-.07c-.06-.11.08.24 0 .1a7.36 7.36 0 0 1-.25-1v.29a7.53 7.53 0 0 1-.07-1.16 1.07 1.07 0 0 0-1.07-1.07 1.11 1.11 0 0 0-1.07 1.07 5.59 5.59 0 0 0 .11 1.58 4.57 4.57 0 0 0 .5 1.38 2.37 2.37 0 0 0 1.26 1 1.55 1.55 0 0 0 1.75-.74 2.74 2.74 0 0 0 .21-1.47 5.51 5.51 0 0 0-.22-1.51 2.69 2.69 0 0 0-2.08-1.9 2 2 0 0 0-1.55.49 1.61 1.61 0 0 0-.47 1.51.67.67 0 0 0 .74.48.7.7 0 0 0 .59-.66zM717.67 342.48c.36-.35.7-.73 1.09-1.07l.15-.13s.14-.11.07 0l.1-.08.16-.11a6.48 6.48 0 0 1 .67-.39l.14-.07.11-.05h.11l.15-.06c.24-.08.49-.15.74-.21h1.37a1.06 1.06 0 0 0 1.05-1.05 1.08 1.08 0 0 0-1.05-1.05 5 5 0 0 0-1.87.24 7.73 7.73 0 0 0-1.72.75 5.37 5.37 0 0 0-2.46 2.79.71.71 0 0 0 1.19.69zM743.89 294.48c-6.14-1.47-11.32-5.7-15.14-10.72s-6.44-10.83-9-16.58l-23.79 9.08-2.11-3.12a44.18 44.18 0 0 1-24.61 13.77A62.91 62.91 0 0 1 671 246a74.39 74.39 0 0 1 25.21-32.49 28.74 28.74 0 0 1 7.94-4.48c2.39-.8 5-1.09 7.18-2.32a31.51 31.51 0 0 0 3.75-2.8c10.37-8.07 25.15-6.6 37.85-3.2a164.63 164.63 0 0 1 38.85 16c8.39 4.79 16.44 10.4 22.78 17.69s10.89 16.4 11.47 26c.86 14.15-6.65 27.29-13.91 39.46-2.44 4.08-3.08 9-5.75 12.95-3.27 4.82-9.18 5.56-14.55 5a88.74 88.74 0 0 1-16.8-3.69c-4.18-1.27-9.24-2.85-10.47-7.65-1.34-5.25 3.4-10.28 3.24-15.69-.12-3.73-2.56-7-5.24-9.57-1.78-1.71-3.85-3.32-6.29-3.66-3.68-.52-7.24 2.06-9 5.31s-2.26 7.14-2.62 10.86" fill="#000000" class="fill-000000"></path><path d="M744.1 293.73c-12.61-3.42-18.62-16.14-23.52-27.06a1 1 0 0 0-1.12-.45l-23.79 9.07 1.13.46-2.11-3.12a1 1 0 0 0-1.58-.2 43.68 43.68 0 0 1-24.17 13.5l1.25.71a62.3 62.3 0 0 1 2.39-41.83 73.33 73.33 0 0 1 23.49-29.89 29.12 29.12 0 0 1 8.74-5c3.23-1 6.25-1.5 9-3.65a33 33 0 0 1 7.75-4.91 31.55 31.55 0 0 1 8.88-2.12 58.09 58.09 0 0 1 18.43 1.56 145.68 145.68 0 0 1 19.88 6.2 160.36 160.36 0 0 1 19.69 9.12 110.65 110.65 0 0 1 17.26 11.33c10.11 8.32 18.55 20 19.21 33.47.69 14.16-6.94 26.68-13.78 38.46-3.1 5.35-3.42 13.24-9.55 16.27a16.62 16.62 0 0 1-8 1.34 56.8 56.8 0 0 1-10.9-1.75c-3.2-.77-6.39-1.66-9.52-2.71-2.42-.81-5.08-1.9-6.59-4.07-1.7-2.44-1.23-5.32-.32-7.95 1-2.81 2.34-5.5 2.6-8.51a12.33 12.33 0 0 0-2.67-8.21 20.35 20.35 0 0 0-7-6.36c-5.8-2.79-11.54 1.41-13.72 6.79a34.39 34.39 0 0 0-1.9 9.53c-.15 1.44 2.11 1.43 2.26 0 .36-3.58.73-7.37 2.6-10.53 1.53-2.56 4.38-4.8 7.51-4.49S762 282 764 284.45c2.11 2.64 3.23 5.69 2.45 9.05-1.28 5.42-5.43 11.06-1.43 16.38a13.67 13.67 0 0 0 6.37 4.25 90 90 0 0 0 9.37 2.8c6.13 1.56 13.18 3.23 19.44 1.49a12.61 12.61 0 0 0 6.71-4.39c2-2.67 3-5.95 4.18-9a62.81 62.81 0 0 1 5-9.43c1.77-3.08 3.49-6.2 5-9.41a59.19 59.19 0 0 0 6-19.62c1.36-13.69-5.12-26.58-14.64-36-10.06-10-23.15-17-36.06-22.62a169.53 169.53 0 0 0-20.49-7.36 83.2 83.2 0 0 0-18.9-3.54c-6.13-.28-12.41.5-18 3.21a25.34 25.34 0 0 0-3.58 2.12c-1.47 1-2.76 2.33-4.3 3.27-2.9 1.76-6.51 1.92-9.57 3.34a42.14 42.14 0 0 0-8.37 5.56 78.12 78.12 0 0 0-7.21 6.52 75.18 75.18 0 0 0-11.78 15.69 66 66 0 0 0-8.19 40.1 60.52 60.52 0 0 0 2.18 10.32 1 1 0 0 0 1.25.71 45.46 45.46 0 0 0 25.06-14l-1.58-.2 2.1 3.12a1 1 0 0 0 1.14.46l23.85-9.13-1.12-.46c5.12 11.32 11.52 24.52 24.8 27.56a.78.78 0 0 0 .42-1.51z" fill="#000000" class="fill-000000"></path><path d="M699.61 289.4c1.41.33 2.84.62 4.27.82.74.11 1.48.18 2.22.25a9.19 9.19 0 0 0 2.4 0 1.1 1.1 0 0 0 0-2.1 12.9 12.9 0 0 0-2.24-.13c-.72 0-1.45-.07-2.18-.11-1.42-.08-2.84-.2-4.25-.38-.92-.12-1.11 1.4-.22 1.61zM756.75 288c-3.36.53-4.14 5.13-3.7 7.88a3 3 0 0 0 1.11 2.05 1.9 1.9 0 0 0 2.14 0 1.67 1.67 0 0 0 .31-2.55 2.32 2.32 0 0 0-2.71-.45 1.07 1.07 0 0 0 0 1.83 1.68 1.68 0 0 0 1 .29 1.21 1.21 0 0 1 .18 0c.08 0 .07 0 0 0h-.06c-.17-.24-.24-.8.12-.87h.18s-.12-.1 0 0a3.77 3.77 0 0 1-.47-2.4c.06-1.62.49-4 2.33-4.51.82-.21.45-1.36-.35-1.24zM817 236.14a64.39 64.39 0 0 1-10.13-51.52c1.72-7.27 4.82-14.37 10-19.78 9-9.47 23-12.5 36.08-12s25.8 4.08 38.76 5.71c9.7 1.23 19.53 1.37 29.18 2.94 1.92.32 4 .79 5.2 2.34a8 8 0 0 1 1.2 4.29 175 175 0 0 1-.85 35.3c-.43 3.35-1.07 6.95-3.49 9.31-4.91 4.8-13.15 1.54-19.87 2.93a17.6 17.6 0 0 0 11.38 4.82 3.8 3.8 0 0 1 2.39.59 3.11 3.11 0 0 1 .8 2.25 22.93 22.93 0 0 1-13.46 21.93c-8.08 3.47-17.33 1.92-26 .3l-46.49-8.67c-5.5-1-11.79-1.88-16.17 1.6" fill="#000000" class="fill-000000"></path><path d="M817.65 235.75A64.9 64.9 0 0 1 807 190.16c1.17-7.88 3.78-16 8.82-22.25a36.06 36.06 0 0 1 18.63-11.78c16.88-4.76 34.19.09 51 2.84 9.26 1.51 18.61 1.92 27.93 2.89 2.39.25 4.78.53 7.16.93 1.66.28 3.77.59 4.7 2.19s.8 4.2.91 6.09c.14 2.37.24 4.74.28 7.12.09 4.74 0 9.5-.31 14.24a99.79 99.79 0 0 1-1.5 13.57c-.74 3.65-2.49 6.76-6.31 7.71-3.37.84-7 .26-10.4.22a26.44 26.44 0 0 0-5.25.41 1.39 1.39 0 0 0-.6 2.3 19.32 19.32 0 0 0 10.94 5.14c.73.09 2.2-.13 2.81.31s.43 2 .42 2.7a20.27 20.27 0 0 1-.8 5.36 21.45 21.45 0 0 1-15.79 15.06c-8.92 2-18.43-.54-27.2-2.18-9.95-1.86-19.9-3.7-29.85-5.59-5.09-1-10.19-2.17-15.34-2.77-4.29-.5-9-.25-12.53 2.47a1.62 1.62 0 0 0-.57 2.14 1.57 1.57 0 0 0 2.15.56c3.34-2.55 7.53-2.57 11.54-2.06 4.93.62 9.83 1.72 14.71 2.61 10.29 1.88 20.56 3.83 30.84 5.74 9.17 1.71 19 4.16 28.27 1.53a24.31 24.31 0 0 0 16.27-15.88 22.59 22.59 0 0 0 1.13-6.27c.08-2 .15-4.69-1.83-5.86a6.9 6.9 0 0 0-3.21-.58 15.94 15.94 0 0 1-3.63-.68 16.38 16.38 0 0 1-6.39-3.69l-.61 2.29c6.81-1.33 15.75 2.27 21-3.86 2.75-3.2 3.13-7.64 3.58-11.65a174.702 174.702 0 0 0 .82-30.17 24.61 24.61 0 0 0-.77-6.52 6.24 6.24 0 0 0-3.78-3.8 26.46 26.46 0 0 0-6.3-1.25c-2.42-.32-4.85-.58-7.28-.8-5-.45-10.08-.75-15.11-1.26-18.49-1.86-36.84-8.33-55.57-5.39-7.76 1.21-15.36 4.07-21.41 9.18-6.43 5.42-10.35 13.19-12.46 21.22a64.56 64.56 0 0 0 6.69 48.55c1.08 1.82 2.26 3.58 3.52 5.29.58.78 1.9.05 1.33-.78zM766.44 388.49c-.94-3.64-1.67-7.39-2.83-11s-2.8-7-4.24-10.49c-.48-1.17-2.42-.65-1.93.53 1.46 3.48 3.17 6.89 4.48 10.43s2.17 7.25 3.25 10.85a.66.66 0 0 0 1.27-.35zM821.27 351.48c-3.67-5.86-7.32-11.75-10.49-17.89a136.66 136.66 0 0 1-7-16.33c-.67-1.86-1.34-3.72-2-5.59a54.17 54.17 0 0 0-2.3-6.48c-.55-1.11-2.11-.29-1.9.8a42.24 42.24 0 0 0 2 5.87q.92 2.58 1.87 5.13c1.09 2.87 2.23 5.72 3.47 8.52a136.41 136.41 0 0 0 8.2 15.61c2.25 3.73 4.6 7.39 7 11 .47.72 1.63.06 1.17-.68z" fill="#000000" class="fill-000000"></path><path d="M808.57 226.09c2 2.6 4 5.16 6 7.7 1.86 2.31 3.77 4.72 6.3 6.33 1.17.75 2.29-.89 1.43-1.85-2.14-2.37-4.26-4.75-6.44-7.08a38.58 38.58 0 0 0-6.72-5.91c-1.3-.85-2.45 1.19-1.21 2.07a102.89 102.89 0 0 1 14.92 13c1.06 1.12 2.76-.58 1.69-1.7a105.24 105.24 0 0 0-15.4-13.34l-1.14 2.04a36 36 0 0 1 6.41 5.73c2.12 2.27 4.19 4.58 6.29 6.85l1.43-1.85c-2.42-1.5-4.14-3.88-6-6-2.12-2.31-4.24-4.61-6.42-6.86-.53-.54-1.55.2-1.07.83z" fill="#32a16b" class="fill-18c4ff fill-32a16b"></path><path d="m762.31 417.65-10.87-16a370.76 370.76 0 0 1 69.25-49.78c4.48-2.5 10.89-4.59 14.08-.56 1.56 1.95 1.62 4.66 2.35 7.05 2.74 8.92 13.61 11.67 22.26 15.19 37.73 15.32 62.79 55.17 71.07 93.77 9.95 46.41 16.42 93.87 18.09 141.32.66 18.68-23.18 25.19-37.47 28.73Q874 646.52 836 652c-25.41 3.64-50.8 6.47-76.52 4.74-4.7-.32-9.67-2.05-12.23-6-4-6.14-2.18-16.4-2.69-23.39-.64-8.74-1.81-17.43-3.27-26.07-3-17.64-7.13-35-10.6-52.57-1.94-9.86-3.67-19.82-3.79-29.86-.11-10.48 1.53-20.91 3.63-31.18 5.11-25 16.07-49.86 31.74-70" fill="#ff9999" class="fill-ffffff"></path><path d="M762.88 417.31c-3.53-5.4-7-10.85-10.6-16.21l-.15 1.19a375.53 375.53 0 0 1 34.6-27.78q9-6.39 18.36-12.23 4.68-2.92 9.44-5.7a93 93 0 0 1 9-4.95c2.44-1.09 5.59-2.14 8.25-1.22 3.31 1.14 3.41 4.88 4.19 7.74 1.39 5.07 5.4 8.55 9.9 10.93 4.95 2.61 10.37 4.18 15.48 6.44a96.29 96.29 0 0 1 15.65 8.79c20.13 13.88 35 34.79 44.28 57.2 5 12 7.89 24.43 10.46 37.13q4.72 23.42 8.2 47.05 3.47 23.79 5.49 47.77 1 11.89 1.63 23.81c.21 3.89.46 7.8.52 11.69a18.3 18.3 0 0 1-1.17 6.87c-3.38 8.87-13.28 13.54-21.63 16.5-4.28 1.51-8.67 2.71-13.07 3.8q-11 2.76-22.11 5.16-23.36 5.07-47 8.68c-15.91 2.43-31.9 4.54-48 5.58-8 .52-16 .75-24 .59-3.92-.07-7.88-.15-11.79-.53a16.13 16.13 0 0 1-8.68-3.23c-4.7-3.89-4.57-11-4.51-16.51 0-2.86.16-5.72 0-8.57-.26-4-.69-7.94-1.17-11.89-1.94-15.81-5.22-31.41-8.53-47s-7.28-31.32-7.84-47.27a120.39 120.39 0 0 1 1.8-23.9 198.74 198.74 0 0 1 4.75-21.72 173.25 173.25 0 0 1 16.75-39.69 155.66 155.66 0 0 1 11.71-17.4c.89-1.14-.71-2.76-1.61-1.61-18.24 23.5-29.3 51.74-33.92 81a121.25 121.25 0 0 0-1.66 23.91 163.33 163.33 0 0 0 3.1 23.73c3.09 16.26 7 32.36 10 48.63 1.53 8.25 2.87 16.54 3.79 24.88.39 3.56.81 7.14.86 10.72.05 3.13-.12 6.26 0 9.39.14 5.61 1 11.77 5.84 15.33 5.51 4.07 13.22 3.6 19.71 3.76a337.52 337.52 0 0 0 49-2.81q24.51-3 48.8-7.47 23.21-4.3 46.14-10c9.15-2.32 18.77-5.08 26.48-10.74a24.65 24.65 0 0 0 8.44-10.15c2.39-5.72 1.38-12.2 1.09-18.21q-1.17-24.6-4-49.07-2.76-24.18-6.94-48.16-2.09-12.06-4.51-24c-1.38-6.83-2.73-13.68-4.65-20.38-6.84-23.81-19.42-46.6-37.44-63.76a102.23 102.23 0 0 0-30.41-20.29c-5.2-2.21-10.75-3.78-15.64-6.67a17.28 17.28 0 0 1-6-5.48c-1.65-2.63-1.63-5.68-2.81-8.48-2.44-5.76-9-4.94-13.79-2.9a84.34 84.34 0 0 0-9 4.91q-5 2.91-9.91 6a366.79 366.79 0 0 0-36.55 26.09q-8.57 6.94-16.7 14.4a1 1 0 0 0-.16 1.18c3.64 5.35 7.42 10.6 11.14 15.89.49.69 1.62.06 1.15-.67z" fill="#000000" class="fill-000000"></path><path d="M776 579.15c-1.18 2-2.35 3.93-3.54 5.89-10.05 16.59-19.83 35.18-34.77 47.56-52.15 43.24-116.57-4.08-147.48-49.77-24.1-35.63-47.21-70.57-60.07-112.16-1.11-3.6-2.08-7.75-.07-10.93a12.9 12.9 0 0 1 4.44-3.81 185.13 185.13 0 0 1 23.8-12.37c1.36-.59 2.94-1.16 4.29-.54a5.56 5.56 0 0 1 2.15 2.32A202 202 0 0 0 613.28 499c24.19 18.58 52.58 31.64 74.78 52.57.86.8 1.77 1.78 1.72 3s-1.77 2.09-2.42 1.11l11.3-22" fill="#ff9999" class="fill-ffffff"></path><path d="M564.16 445.68c10.84 18.93 25.62 35.62 42.39 49.51 17 14.12 36.46 24.77 54.77 37.06 5.1 3.42 10.12 7 14.95 10.77q3.65 2.85 7.12 5.9 1.79 1.56 3.51 3.19a6.83 6.83 0 0 1 1.43 1.56c.14.23.35.6.21.88s-.28.29-.34.22l.19 1.46q5.65-11 11.32-22c.71-1.38-1.38-2.61-2.09-1.22l-11.3 22a1.24 1.24 0 0 0 .19 1.45c1.41 1.62 4 .38 4.41-1.51.55-2.66-2.54-4.77-4.23-6.3-4.23-3.81-8.68-7.38-13.25-10.78-9.36-7-19.25-13.14-29.11-19.37S624.59 506 615.27 499a206.89 206.89 0 0 1-25.78-23.28A236.21 236.21 0 0 1 565.34 445a.68.68 0 0 0-1.18.69z" fill="#000000" class="fill-000000"></path><path d="M776.73 581.05c-13.33 21.36-27.45 44.08-49.46 57.52a68.9 68.9 0 0 1-30.76 10.09 78.62 78.62 0 0 1-30.38-4.12c-20.84-6.91-39.14-20.61-54.26-36.28A187.91 187.91 0 0 1 591.54 583c-7.28-10.76-14.52-21.56-21.42-32.57-13.64-21.73-26-44.4-34.5-68.65q-1.59-4.56-3-9.18c-.46-1.48-2.79-.85-2.33.64 7.79 25.19 19.72 48.81 33.39 71.28 6.82 11.2 14 22.15 21.35 33 6.41 9.52 12.9 18.85 20.56 27.42 14.76 16.58 32.76 31.06 53.41 39.58a86.6 86.6 0 0 0 31.15 6.79 70.3 70.3 0 0 0 31.13-6.69c11.22-5.27 20.83-13.44 29.07-22.61a193.27 193.27 0 0 0 22.35-31.31c1.76-3 3.47-6 5.19-9a.68.68 0 0 0-1.18-.69z" fill="#000000" class="fill-000000"></path><path d="M794 404.79c-8.79 5.14-18.76 7.93-27.8 12.62-24.15 12.52-39.34 37-53.35 60.31l-24.28 40.44c-3.1 5.16-6.31 10.79-5.76 16.79.5 5.44 4 10.09 7.71 14.12A109.05 109.05 0 0 0 754.23 583c9.3 1.39 19.78 1.23 26.88-4.94 3.25-2.82 5.45-6.63 7.58-10.36l38.61-67.38" fill="#ff9999" class="fill-ffffff"></path><path d="M793.65 404.24c-6 3.31-12.41 5.59-18.73 8.16a93.55 93.55 0 0 0-16.34 8.28c-9.58 6.32-17.68 14.51-24.76 23.45-7.33 9.23-13.62 19.22-19.72 29.29-7.35 12.15-14.63 24.33-21.94 36.5-1.87 3.12-3.78 6.23-5.62 9.37a41.1 41.1 0 0 0-4.15 8.92c-1.79 6.1-.23 11.92 3.39 17A78.33 78.33 0 0 0 698 558.15a110 110 0 0 0 47.17 24.4c10.63 2.52 23.54 4.57 33.49-1.21 5.36-3.12 8.48-8.44 11.45-13.69q5.44-9.65 10.89-19.28 10.79-19.07 21.64-38.09l5.42-9.52a.87.87 0 0 0-1.51-.88q-10.69 18.54-21.4 37.08-5.35 9.25-10.74 18.51l-5.41 9.26c-1.57 2.71-3.08 5.49-4.89 8a21.72 21.72 0 0 1-13.9 9c-5.54 1.13-11.34.68-16.88-.22a107.73 107.73 0 0 1-32.53-10.85A109 109 0 0 1 693 550c-4-4.13-8.5-9-9.07-15-.63-6.58 3.39-12.54 6.62-17.91l22-36.62c5.89-9.82 11.79-19.64 18.48-28.94 6.58-9.14 14-17.79 22.86-24.83a81.4 81.4 0 0 1 14.43-9.18c5.76-2.88 11.82-5.08 17.67-7.77a84.45 84.45 0 0 0 8.33-4.35.64.64 0 0 0-.65-1.11zM532.71 471a36.8 36.8 0 0 1-6.63-.34 23.43 23.43 0 0 1-5.91-2.06 30.86 30.86 0 0 1-9.85-7.95 55.24 55.24 0 0 1-6.86-10.88c-.8-1.61-1.33-3.49-3.28-3.93a58.7 58.7 0 0 0-7.49-.92c-1.26-.12-1.57 2.05-.3 2.24s2.46.34 3.69.49l1.94.24a5 5 0 0 1 2 .34c.67.46 1.07 2 1.43 2.7.44.87.9 1.74 1.38 2.59a49.83 49.83 0 0 0 7.6 10.51 29.93 29.93 0 0 0 10.25 7c3.58 1.43 8.39 2.51 12.18 1.23a.65.65 0 0 0-.17-1.27zM493.21 433.06a38 38 0 0 1 12.31 0c1.07.2 1.52-1.44.45-1.62a30.83 30.83 0 0 0-13.11.35c-.85.22-.47 1.39.35 1.28zM499.63 419.84a19.35 19.35 0 0 1 11.73 1.2c.93.41 1.73-1 .8-1.37a20.35 20.35 0 0 0-12.88-1.09c-.82.2-.47 1.43.35 1.26zM508.29 406.14l11.51.53c3.54.16 7.2.1 10.62 1.11s6 3.34 8.44 5.75a56.62 56.62 0 0 1 6.57 8.15 1.13 1.13 0 0 0 2-1.14 40.11 40.11 0 0 0-6.64-8.59c-2.54-2.56-5.37-5.08-8.86-6.19s-7.24-1-10.85-1h-12.74a.73.73 0 0 0 0 1.46zM546.48 407.4c6.76 2.46 11 8.91 13.12 15.5a60.36 60.36 0 0 1 2.33 12.52c.23 2.19.42 4.38.65 6.57s.21 4.65 1 6.59a1.08 1.08 0 0 0 2.12-.28 24.84 24.84 0 0 0-.46-3.73c-.17-1.25-.3-2.5-.43-3.75-.24-2.35-.45-4.7-.73-7a52.41 52.41 0 0 0-2.72-12.7c-2.59-6.7-7.31-13-14.51-14.94a.65.65 0 0 0-.35 1.26z" fill="#000000" class="fill-000000"></path><path d="M698.41 446.53c15.71-8.6 31.43-17.23 47.92-24.29a57.6 57.6 0 0 1 7.07-2.72 13.35 13.35 0 0 1 3.38-.56 23.62 23.62 0 0 1 3.65.44c1.32.17 1.9-2 .69-2.55-4-1.76-8.42-.17-12.18 1.48-4.29 1.89-8.51 3.95-12.7 6.05q-12.53 6.3-24.76 13.15-6.91 3.86-13.79 7.77a.71.71 0 0 0 .72 1.23zM339.55 364.56 287.38 518.9a7.27 7.27 0 0 0 8.32 9.46l159.75-32a7.28 7.28 0 0 0 4-11.94L351.91 362.09a7.28 7.28 0 0 0-12.36 2.47z" fill="#000000" class="fill-000000"></path><path d="m337.72 364.05-3.39 10-8.6 25.44-11.42 33.79-11.94 35.3-10.15 30-6 17.68a14.26 14.26 0 0 0-1.15 5.31 9.3 9.3 0 0 0 8.51 8.75 10.92 10.92 0 0 0 3.07-.28q7.08-1.4 14.14-2.83l28.56-5.72 36-7.2 36.11-7.23 29-5.8 14.84-3c4.42-.89 7.83-4.33 7.92-9 .06-3-1.49-5.25-3.35-7.37l-11.44-13-20.35-23.14-24.5-27.75-23.89-27.17-18.37-20.9c-2.67-3-5.3-6.12-8-9.11a9.16 9.16 0 0 0-15.58 3.25c-.83 2.31 2.84 3.3 3.67 1a5.42 5.42 0 0 1 7.57-2.94 7 7 0 0 1 1.9 1.64q1.59 1.78 3.16 3.59l14.54 16.54 21.83 24.83 24.46 27.82 22.49 25.58 15.9 18.09 4 4.59c1.63 1.84 2.78 4 1.71 6.53-1 2.4-3.18 3-5.45 3.49l-6.19 1.24-23.78 4.76-33.5 6.71-36.32 7.27-32.2 6.44-21.53 4.31-4.48.89a5.44 5.44 0 0 1-6.34-7.08c1.16-3.65 2.45-7.26 3.68-10.88l8.58-25.37 11.3-33.44 11.78-34.84 10-29.53 6-17.86.81-2.38c.84-2.33-2.83-3.33-3.61-1.02z" fill="#000000" class="fill-000000"></path><g fill="#32a16b" class="fill-18c4ff fill-32a16b"><path d="M359.7 465.92a86.37 86.37 0 0 1-11.18-29.08c-.74-3.95-1.2-8.06-.19-11.95s3.77-7.54 7.63-8.62a6.64 6.64 0 0 1 5.14.48 9.42 9.42 0 0 1 3.27 4.08c6.42 12.66 7.25 27.57 5.06 41.59a9.23 9.23 0 0 1-.92 3.19 5 5 0 0 1-6.85 1.58"></path><path d="M360.3 465.57a85.92 85.92 0 0 1-9.17-21.33 66.62 66.62 0 0 1-2.33-11.77c-.33-3.78 0-7.7 2-11 1.74-2.76 5.07-5.23 8.51-4.39 1.86.46 3 2 3.81 3.56a43.13 43.13 0 0 1 2.34 5.19 63.53 63.53 0 0 1 3.94 22 85.33 85.33 0 0 1-.83 12.77c-.25 1.8-.32 4.2-1.89 5.4a4 4 0 0 1-4.49.21c-1.21-.75-2.31 1.15-1.11 1.9a6.13 6.13 0 0 0 8.18-1.71c1.12-1.7 1.25-3.91 1.51-5.87.29-2.19.52-4.39.65-6.59a69.31 69.31 0 0 0-2.89-25.61 56 56 0 0 0-2.28-5.89 20.52 20.52 0 0 0-2.92-5.08c-2.6-3-7-2.93-10.19-.95-7.51 4.65-6.81 14.48-5.24 21.95a87.24 87.24 0 0 0 11.17 27.88.7.7 0 0 0 1.2-.7zM370.91 478.54c-5.55-2.09-7.12 7.82-5.52 11.22a7.17 7.17 0 0 0 8.1 3.95c8.1-2.36 3.05-13-3-14.53"></path><path d="M371.08 477.89c-6.58-2.61-8.58 8.54-6.42 12.67a8.07 8.07 0 0 0 11.12 3.33c2.9-1.74 3.54-5.16 2.53-8.2-1.13-3.41-3.93-6.65-7.48-7.59a1.12 1.12 0 0 0-.6 2.16 9.11 9.11 0 0 1 5.49 4.87c1 1.93 1.45 4.53-.14 6.19-2.41 2.52-6.51 1.68-8.55-.84-1.47-1.82-1.46-4.57-1-6.91s1.83-5.3 4.69-4.38c.84.27 1.14-1 .35-1.3zM241.52 677.74Q265.15 661.24 289 645t48.12-32.16c9.06-5.94 18.17-11.8 27.23-17.73.94-.62.07-2.13-.89-1.52-16.25 10.25-32.26 20.89-48.23 31.57s-32 21.59-47.83 32.62q-13.33 9.29-26.54 18.74c-.72.52 0 1.71.7 1.2zM229.81 682.06v1.41a.72.72 0 0 0 .73.72.71.71 0 0 0 .46-.19.74.74 0 0 0 .21-.51v-1.41a.72.72 0 1 0-1.43 0zM219 687.25c0 .47-.05.94-.05 1.41v1.42a.74.74 0 0 0 .73.73.75.75 0 0 0 .74-.73v-1.42c0-.47 0-.94-.05-1.41a.68.68 0 1 0-1.35 0zM208.56 693.92a4.61 4.61 0 0 0-2.8 5.32.8.8 0 0 0 1 .56.82.82 0 0 0 .57-1c0-.11 0-.22-.06-.33s0 .2 0 0v-.15a2.22 2.22 0 0 1 0-.63c0 .1 0 .12 0 0v-.15l.09-.32c0-.09.06-.19.1-.28s-.07.14 0 0 0-.11.07-.17a5.39 5.39 0 0 1 .3-.52l.11-.14c-.06.08-.05.05 0 0a2.09 2.09 0 0 1 .2-.22l.24-.23h.13a3.2 3.2 0 0 1 .57-.32.73.73 0 0 0 .3-.92.72.72 0 0 0-.86-.42z"></path></g><g fill="#ff9999" class="fill-ffffff"><path d="M759.32 686.24c3 2.14 6.27 4.12 10 4.41a9.71 9.71 0 0 0 8.36-3.23 9.52 9.52 0 0 0 1.88-4.54 16.5 16.5 0 0 0 .2-2.44 9.25 9.25 0 0 1 0-1.39c.14-.75.61-.55 1.17-.36a13.38 13.38 0 0 0 4.75 1.09 9.48 9.48 0 0 0 4.73-1.33 9 9 0 0 0 4.07-9.48l-1.79 1a7.92 7.92 0 0 0 10.23.7 8.36 8.36 0 0 0 3-5.45c.47-2.62.92-6 0-8.56a.94.94 0 0 0-1.83.25c-.22 2.15.13 4.32-.12 6.49-.21 1.85-.58 4-2.05 5.28a5.74 5.74 0 0 1-7.72-.23 1.09 1.09 0 0 0-1.8 1 6.92 6.92 0 0 1-6.93 8.15 7.82 7.82 0 0 1-2.74-.51 8.23 8.23 0 0 0-2.47-.76c-1.85-.08-2.56 1.36-2.5 3 .07 2.09.09 4.2-1 6.08a6.94 6.94 0 0 1-4.61 3.29c-4.43 1.06-8.65-1.35-12.17-3.77-.74-.51-1.41.68-.7 1.2zM750.9 717.71a16.57 16.57 0 0 0 21 3.52c1.9-1.18 3.41-2.85 5.26-4.08 2.24-1.48 4.59-1.49 7.17-1.14 4.13.56 8.31.84 11.15-2.77 2.67-3.4 3.08-8.16 3.15-12.33l-1.59.92a15.63 15.63 0 0 0 13.55-.24A14.79 14.79 0 0 0 816 697c1.37-1.88 2.48-4.32 4.61-5.48 1.14-.62 2.49-.64 3.68-1.15a6.59 6.59 0 0 0 2.66-2.22c.7-.93 1.25-2 1.91-2.93a13.39 13.39 0 0 1 2.93-2.94 25.89 25.89 0 0 0 8.73-11.87 39.66 39.66 0 0 0 2-17.09.84.84 0 0 0-1.68 0c0 9.36-1.2 19.62-8.81 26.08-1.88 1.61-3.81 2.93-5.19 5.05a28.11 28.11 0 0 1-1.76 2.68 5.34 5.34 0 0 1-3.32 1.77 8.86 8.86 0 0 0-5.18 3.55c-1.36 1.8-2.4 3.81-4.08 5.34a13.45 13.45 0 0 1-14.4 2.21 1.08 1.08 0 0 0-1.6.91c-.06 3.4-.31 7.17-2.1 10.16a6.55 6.55 0 0 1-3.77 3c-2.15.62-4.47.1-6.65-.15a11.74 11.74 0 0 0-6 .56 19.53 19.53 0 0 0-4.82 3.46 14.94 14.94 0 0 1-21.26-1.25c-.59-.69-1.54.29-1 1zM840.27 737.27A24.85 24.85 0 0 0 822 741.6c-4.88 3.54-9.61 10.07-6.7 16.29 1.38 3 4.37 5.21 7.73 4.94l-.93-1.63a12 12 0 0 0 .87 12.27 19.17 19.17 0 0 0 10.52 7.24c7.78 2.33 17.56.29 20.62-8.06a11.29 11.29 0 0 0-1.83-11.44L852 763c3.17-1.73 6.07-4.23 7.43-7.66a9.73 9.73 0 0 0-1.37-9.85c-.58-.66-1.27-1.2-1.87-1.83a6.47 6.47 0 0 1-1.37-2.57 6 6 0 0 0-3.37-3.53c-3.61-1.55-7.51 0-10.6 2-.86.55-.31 2.19.75 1.75 2.77-1.15 6-3 9-1.68 1.68.76 1.91 2.11 2.58 3.65a10.43 10.43 0 0 0 2.61 3.12 7.37 7.37 0 0 1 1.49 8.17c-1.18 2.92-3.76 5-6.45 6.45a1.15 1.15 0 0 0-.23 1.78 8.8 8.8 0 0 1 1.56 8.3 10.88 10.88 0 0 1-6 6.95c-6.41 3-15.2.86-20-4.14-2.94-3-4.3-7.73-2.26-11.63a1.09 1.09 0 0 0-.93-1.62c-3.27.29-6-2.5-6.46-5.61-.59-3.68 1.58-7.32 4.06-9.84a22.86 22.86 0 0 1 19.25-6.46c1 .14 1.4-1.33.41-1.49z"></path><path d="M794.6 726.41c-10.24 2.42-17.75 12.47-16.67 23a22.9 22.9 0 0 0 6.63 13.9 21 21 0 0 0 2.88 2.35 11 11 0 0 1 1.77 1.24 3.46 3.46 0 0 1 .77 2.55 63 63 0 0 0 .83 9.41c2 11.13 9.17 22.18 20.76 25 3.06.73 6.26.51 9.32 1.22s5.26 2.83 7.78 4.57c4.93 3.41 11.15 4 16.89 2.66 6.86-1.56 12.8-5.74 18.26-10 4.73-3.7 9.95-9 8.57-15.55l-.52 1.29a27.35 27.35 0 0 0 12.82-15.18 29.16 29.16 0 0 0 1.37-10.53 16.69 16.69 0 0 1 .8-6.59c.72-1.93 1.76-3.73 2.49-5.66 5.26-13.82-5.08-30.26-17.44-36.33-7.32-3.6-16.36-3.84-23.32.75l1.37.18c-7.73-8-22.16-7.57-29.33 1l1.91.5a6.26 6.26 0 0 0-4.2-4.4 9.78 9.78 0 0 0-7.16.6 73.09 73.09 0 0 0-7.88 4.38c-2.8 1.65-5.6 3.31-8.38 5a1 1 0 0 0 1.06 1.81c4.59-2.55 9.09-5.26 13.65-7.85 2-1.12 4.25-2.32 6.61-2.1a4.41 4.41 0 0 1 4.1 3.16 1.15 1.15 0 0 0 1.9.5c6.38-7.61 19.2-8.15 26.12-1a1.15 1.15 0 0 0 1.37.18c5.77-3.81 13.19-4 19.5-1.43s11.62 7.76 15.07 13.61 5.3 13.06 3.24 19.7c-1.11 3.56-3.33 6.6-3.72 10.39-.37 3.58.26 7.1-.52 10.67a25.07 25.07 0 0 1-12.58 16.67 1.15 1.15 0 0 0-.52 1.29c1.15 5.48-3.82 10-7.68 13.09-4.6 3.64-9.58 7.17-15.19 9-5.21 1.7-11.26 1.89-16.14-.89-2.45-1.39-4.45-3.48-7-4.7s-5.58-1.4-8.47-1.64c-11.41-1-19.23-10.17-22.09-20.73a44.93 44.93 0 0 1-1.43-8.78c-.17-2.54.37-5.67-1.81-7.51-.88-.74-1.94-1.26-2.85-2a20.2 20.2 0 0 1-2.81-2.66 20.89 20.89 0 0 1-3.79-6.45A19.58 19.58 0 0 1 782 738a21 21 0 0 1 13-10.25.71.71 0 0 0-.37-1.36z"></path><path d="M763.37 726.63a22.21 22.21 0 0 0-12.49 12.7c-2.87 7.09-2.47 15.06-1 22.44 1.27 6.44 3.41 13.13 8.09 17.94 1.18 1.21 2.62 2.1 3.81 3.28 1.5 1.51 1.22 3.37 1 5.31a34.34 34.34 0 0 0 .38 9.11 39 39 0 0 0 21.22 28 35.78 35.78 0 0 0 8.89 2.86 21.12 21.12 0 0 1 5.43 1.43 19.38 19.38 0 0 1 4.36 3.24c5 4.47 11.24 7 18 6.39a26.59 26.59 0 0 0 9.46-3c1.64-.81 3.44-1.61 5.28-1s3.36 1.59 5.16 2.12c7 2 14.58 0 20.64-3.72a49.54 49.54 0 0 0 8.3-6.62c1.3-1.26 2.49-2.66 3.86-3.84a12 12 0 0 1 5.12-2.28 24.27 24.27 0 0 0 14.61-10.66 23.94 23.94 0 0 0 3.31-8.34 22.49 22.49 0 0 0 .4-4.56c0-1.61-.64-3.82.74-5 1.15-1 2.69-1.58 3.92-2.5a22.24 22.24 0 0 0 3.24-2.89 27.39 27.39 0 0 0 4.76-7.31 46 46 0 0 0 3.71-17.73c.1-3.58-.61-7.42.36-10.91a24 24 0 0 1 2.48-5 15 15 0 0 0 1.74-4.86c1.07-6.8-1.84-14.14-4.78-20.16a44.91 44.91 0 0 0-11.67-15.17 34.73 34.73 0 0 0-8.44-5.1c-1.82-.76-3.69-1.42-5.46-2.3a31.56 31.56 0 0 1-4.79-3 40 40 0 0 0-9.26-5.61 28.57 28.57 0 0 0-10-1.93 28.19 28.19 0 0 0-10.08 1.74l1.22.32a24.87 24.87 0 0 0-22.71-6.51c-1.52.32-.87 2.65.65 2.33a22.55 22.55 0 0 1 20.28 6 1.22 1.22 0 0 0 1.23.32 26.3 26.3 0 0 1 20 .7c3.26 1.51 6 3.83 8.88 5.87s6.36 3.22 9.68 4.7c11.63 5.17 19 17.19 22.14 29.14.91 3.5 1.42 7.36 0 10.82a38.89 38.89 0 0 1-2.23 4.11 14.24 14.24 0 0 0-1.67 5.15c-.41 3.37.06 6.79-.06 10.18a49.79 49.79 0 0 1-1.08 8.77c-1.21 5.45-3.5 10.84-7.61 14.74a19.06 19.06 0 0 1-3.24 2.48c-1.31.8-2.84 1.43-3.68 2.79a7.4 7.4 0 0 0-.7 4.54 21.27 21.27 0 0 1-9.16 19.21 24.21 24.21 0 0 1-8.11 3.5 13.18 13.18 0 0 0-4.49 2 35 35 0 0 0-3.84 3.67c-5 5-10.87 9.47-17.93 10.88a20 20 0 0 1-10.13-.49c-1.64-.54-3.1-1.56-4.77-2a8.06 8.06 0 0 0-5.12.52c-1.55.62-3 1.49-4.53 2.12a19.55 19.55 0 0 1-4.74 1.27 21 21 0 0 1-9.09-.79 22.33 22.33 0 0 1-8.36-5.04 24.24 24.24 0 0 0-3.82-3 16.62 16.62 0 0 0-5.22-1.77 42.42 42.42 0 0 1-8.71-2.39 34.06 34.06 0 0 1-7.6-4.5 37.92 37.92 0 0 1-10.76-13.47 33.68 33.68 0 0 1-3.31-17.21 12.18 12.18 0 0 0-.14-4.85 7.5 7.5 0 0 0-2.78-3.4 23.07 23.07 0 0 1-6.31-7.27c-3.29-6-4.81-13.41-5.13-20.2-.33-7 1.16-14.24 5.78-19.68a18.5 18.5 0 0 1 7.23-5.32c.79-.32.46-1.6-.36-1.3zM924.94 636.61a16.84 16.84 0 0 0 12.06 9.52c1.09.2 1.55-1.48.46-1.67a15.34 15.34 0 0 1-11.32-8.56c-.39-.83-1.58-.11-1.22.71zM901.66 644.3a10.35 10.35 0 0 0 5.18 9.92c.94.53 2 .81 2.61 1.76a17.72 17.72 0 0 1 1.38 3.26 17.74 17.74 0 0 0 3.54 5.88 9.17 9.17 0 0 0 5.27 2.77 8.43 8.43 0 0 0 3.2-.29 5.23 5.23 0 0 1 1.79-.31c.83.09 1.09.65 1.46 1.31a11.77 11.77 0 0 0 10.22 6 16.44 16.44 0 0 1 4 .41 24.46 24.46 0 0 1 3.62 1.81c2 1 4.4 1.29 6.12-.35 1-1-.48-2.4-1.53-1.52-1.66 1.4-4-.31-5.46-1.12a12.82 12.82 0 0 0-5.9-1.4 11.67 11.67 0 0 1-6-1.47c-1.77-1.12-2.53-2.67-3.69-4.31s-2.92-1.7-4.75-1.24a6.41 6.41 0 0 1-5.92-1 13.12 13.12 0 0 1-3.74-5.22c-.79-1.73-1.32-4-2.8-5.25a11.61 11.61 0 0 0-2.48-1.33 8.68 8.68 0 0 1-2.53-2 9.51 9.51 0 0 1-2.25-6.31c0-.87-1.24-.83-1.32 0zM871.71 649.23a22.88 22.88 0 0 0 4.29 21.62 21.9 21.9 0 0 0 4.31 3.9c1.84 1.28 3.38 2.44 4.26 4.58a32.45 32.45 0 0 0 2.09 5.06 7 7 0 0 0 4.22 3.05c1.84.5 3.87.38 5.62 1.18 2 .93 2.52 3.44 3.69 5.15a14.94 14.94 0 0 0 9.71 6.23 14.25 14.25 0 0 0 2.84.21c1.15 0 2.29-.33 3.44-.31 2.39 0 3.67 2.07 5.18 3.63 2.83 3 6.58 4.7 10.36 6.09 2.15.8 4.34 1.49 6.49 2.28a63 63 0 0 1 6.43 2.92c3.53 1.76 8.82 4.05 11.78.19.6-.78-.59-2-1.37-1.37-3.28 2.5-7.26.21-10.42-1.42a84.11 84.11 0 0 0-10.87-4.3c-3.65-1.28-7.4-2.76-10.25-5.48-1.34-1.28-2.42-2.84-4-3.87-1.91-1.25-3.91-.87-6-.69a12.62 12.62 0 0 1-10.33-4c-1.4-1.54-2-3.46-3.14-5.13a6.77 6.77 0 0 0-4.33-2.7c-1.75-.38-3.69-.34-5.32-1.13s-2.37-2.54-3-4.18a16.07 16.07 0 0 0-2.23-4.6c-1.23-1.54-3-2.45-4.56-3.6a21.54 21.54 0 0 1-7.53-22.88.7.7 0 0 0-1.34-.37z"></path><path d="M844.57 655.62c-.34 6.85-.23 13.92 2.64 20.28a27.26 27.26 0 0 0 12.09 12.85c.94.48 1.76-.91.83-1.42a26.73 26.73 0 0 1-11.52-12.24c-2.77-6.06-2.89-12.93-2.65-19.47 0-.89-1.34-.89-1.39 0zM919.22 735.35c1.71 2.78 5.41 4.55 8.49 5.24a15.77 15.77 0 0 0 5.26.28c2.46-.28 4.55-.74 6.87.45 3.57 1.83 6.93 3.44 10.94 4.06a30 30 0 0 0 11.63-.51 1 1 0 0 0-.51-1.86 27.31 27.31 0 0 1-11.24.42 28.48 28.48 0 0 1-5.28-1.45c-1.82-.7-3.44-1.73-5.21-2.53-3.53-1.58-7.06.13-10.73-.29a14.41 14.41 0 0 1-5-1.55 28.27 28.27 0 0 1-4.12-3.07c-.56-.44-1.5.11-1.06.81zM962.17 853.08a35.13 35.13 0 0 1 9.72-11 1 1 0 0 0 .33-1.25.93.93 0 0 0-1.25-.33 34.46 34.46 0 0 0-9.97 11.91c-.39.75.72 1.42 1.14.67zM933 853.18c1.4-.08 2-1.23 2.3-2.49.41-1.84.57-3.49 1.65-5.12a9.4 9.4 0 0 1 4.62-3.54 6 6 0 0 0 3.8-3.51 14.69 14.69 0 0 1 7.89-8.14c1.63-.66 3.69-.67 4.22-2.68.25-.91.09-1.9.27-2.83a9.79 9.79 0 0 1 1.16-3c2.6-4.45 7.55-6.23 12-8.23 1-.45.4-1.86-.53-1.92l-1-.07c-1.09-.06-1.36 1.75-.26 1.93l1 .16v-2c-3.86 1.43-7.88 3.2-10.81 6.18a13.93 13.93 0 0 0-3.08 4.71 10.28 10.28 0 0 0-.65 2.72c0 .45 0 .89-.07 1.34-.06.89-.65 1-1.41 1.19a16.09 16.09 0 0 0-8.55 6.06 15.07 15.07 0 0 0-1.39 2.36 11.92 11.92 0 0 1-1.33 2.76 6.11 6.11 0 0 1-2.39 1.36 10.19 10.19 0 0 0-2.38 1.36 10.88 10.88 0 0 0-3.45 4.52 10.11 10.11 0 0 0-.72 2.81c-.06.62 0 2.58-.88 2.7s-.9 1.42 0 1.36zM905 851.06c1.66-7.1 2.62-14.4 7-20.51 2.14-3 5-5.34 7.09-8.41 1.6-2.39 2.79-5 4.42-7.4a8.79 8.79 0 0 1 6.74-4.27c2.87-.23 6.09-.47 7.09-3.7.48-1.57.19-3.23.49-4.83a4.59 4.59 0 0 1 2.13-3c2.24-1.46 4.93-2 7.2-3.45 3.19-2 4.47-5.74 7.18-8.25a17.89 17.89 0 0 1 10.32-4.71c1.21-.12 1.24-2 0-1.92a19.79 19.79 0 0 0-9.43 3.12 18.34 18.34 0 0 0-3.79 3.29c-1.15 1.32-2 2.83-3 4.25-1.89 2.61-4.8 3.44-7.6 4.71-2.46 1.11-4.67 2.77-5.15 5.58-.28 1.58.13 3.56-.62 5s-2.76 1.56-4.25 1.68a10.54 10.54 0 0 0-7.5 3.34c-2 2.17-3.27 4.87-4.69 7.41-1.85 3.29-4.43 5.82-6.8 8.72-5.24 6.4-7.26 15.09-8.16 23.15-.08.79 1.21 1 1.39.19zM874.8 854.2c.79-6.64 1.3-13.58 4.67-19.54a19.91 19.91 0 0 1 2.87-3.9c1.14-1.2 2.38-2.22 3-3.8s.74-3.55 1.32-5.27a16 16 0 0 1 2.78-4.89c.81-1-.57-2.46-1.46-1.45a16.33 16.33 0 0 0-2.86 4.64 36.33 36.33 0 0 0-1.32 5.25c-.51 2.09-2 3.18-3.34 4.73a22.1 22.1 0 0 0-2.78 4.08c-3.23 6.09-4 13.37-4.22 20.15 0 .88 1.23.83 1.33 0z"></path><path d="M909.26 786.34c1.74-2 3.5-3.93 5.22-5.91s3.11-3.8 4.8-5.58a9.83 9.83 0 0 1 5.76-3.24c2.08-.32 4.2-.36 6.08-1.43 3.33-1.89 4.63-5.74 7-8.52a14.84 14.84 0 0 1 5-3.75c1.82-.83 4-1 5.55-2.3 1.78-1.49 2.52-3.8 4.38-5.25s4.18-2 6.57-2.39c1.26-.21.76-1.9-.28-2-4-.53-8.16 2.22-10.32 5.39a9.71 9.71 0 0 1-2 2.7 11.31 11.31 0 0 1-3.1 1.19 17.4 17.4 0 0 0-5.37 3 19.2 19.2 0 0 0-3.88 4.63 22.9 22.9 0 0 1-3.44 4.73c-1.66 1.53-3.76 1.73-5.91 2a11.13 11.13 0 0 0-5.91 2.52 45.29 45.29 0 0 0-5.24 5.91c-2 2.41-3.92 4.88-5.88 7.32-.53.67.37 1.62 1 1zM697.87 836.6a6.66 6.66 0 0 1 5 8.52.93.93 0 0 0 1.14 1.13 4.13 4.13 0 0 1 4.09.71 4.19 4.19 0 0 1 1.24 3.78l1.52-.87v-.06a.92.92 0 0 0-1.78-.49 2 2 0 0 0 .6 2.14 1 1 0 0 0 1.69-.45 5.87 5.87 0 0 0-7.81-6.54l1.13 1.14c1.39-4.42-1.75-9.65-6.39-10.29-.83-.11-1.21 1.12-.36 1.28zM709.39 819.1a9.53 9.53 0 0 1 8.78 6.7 14.43 14.43 0 0 1 .44 6.13 2.64 2.64 0 0 0 2 3.06c1.6.48 3.26.27 4.86.87A11.91 11.91 0 0 1 730 839a15.89 15.89 0 0 1 3.11 5.19 22.53 22.53 0 0 1 .82 2.65c.12.48.23 1 .33 1.45 0 .25.21 1.2.23 1.17l.72-.29H735l.71.3.12.54-1 .73h.17c1.23-.16 1.3-2.07 0-2h-.14a1 1 0 0 0-.95.73 1.26 1.26 0 0 0 2 1.43c1.18-1 .31-3.2 0-4.4a19.39 19.39 0 0 0-5.21-9.58 14 14 0 0 0-4.23-2.73 19.89 19.89 0 0 0-4.89-.9c-.36 0-.91-.11-1.12-.45s0-1.11 0-1.5a15.49 15.49 0 0 0 0-3.12 13.3 13.3 0 0 0-1.67-5.14 10.57 10.57 0 0 0-9.42-5.41.72.72 0 0 0 0 1.44zM719.92 790.25c4.42-2.39 9 1.67 11.1 5.31 1.27 2.24 2.17 4.65 3.3 7a26.31 26.31 0 0 0 4 6c3.67 4.18 7.83 8 11.75 11.93s8.06 7.89 12 11.9c3.64 3.67 7.61 8.2 7 13.75-.11 1.06 1.7 1.31 1.87.26.82-5.06-1.66-9.43-4.83-13.17-3.83-4.53-8.4-8.53-12.66-12.64s-9-8.29-13.2-12.73a27.62 27.62 0 0 1-4.84-7.16 50.56 50.56 0 0 0-3.72-7.2c-2.66-3.87-8-7-12.54-4.46a.74.74 0 0 0 .75 1.28zM729.47 758.77c6 .87 11.62 5.45 13 11.48a.85.85 0 0 0 .81.62 7.24 7.24 0 0 1 6.32 2.16c1.17 1.25 1.85 3.93 4.06 3.35a.89.89 0 0 0-.48-1.72c-.59.16-1.57-1.94-1.9-2.36a8.68 8.68 0 0 0-2.35-2 8.85 8.85 0 0 0-5.87-1.08l1 .59a17.68 17.68 0 0 0-14.4-12.44c-.79-.11-1 1.29-.19 1.4zM798.35 833.06a11.66 11.66 0 0 1 4.24 6.75c.46 2.12-.36 4.86 2.17 5.81 1 .36 2.08.3 3 .71a2.64 2.64 0 0 1 1.35 2.27c.33 2 .24 4 2 5.34.76.58 1.72-.68 1-1.32-1.47-1.35-.95-3.89-1.59-5.63-.81-2.21-2.66-2.37-4.68-2.8a1.9 1.9 0 0 1-1.24-.6c-.38-.54-.22-1.48-.26-2.11a12.47 12.47 0 0 0-.79-3.58 13.24 13.24 0 0 0-4.44-5.9c-.61-.45-1.42.59-.82 1.06zM835 837.28c1.49-.37 2.53 2.48 3 3.48q1.08 2.24 1.93 4.55a73.52 73.52 0 0 1 2.53 9.67c.22 1 1.91.8 1.81-.24a39.25 39.25 0 0 0-3.27-11.47 36.75 36.75 0 0 0-2.66-5.28c-.79-1.26-2.15-2.52-3.74-2a.64.64 0 0 0 .34 1.24zM741.28 733.21a8.35 8.35 0 0 1 3 1.3 7.67 7.67 0 0 1 1.17 1 6.76 6.76 0 0 1 1 1.23.86.86 0 0 0 1.14.3.85.85 0 0 0 .3-1.14 9.82 9.82 0 0 0-6.19-4 .72.72 0 0 0-.86.5.7.7 0 0 0 .49.86z"></path></g><g fill="#32a16b" class="fill-18c4ff fill-32a16b"><path d="M777 406.41c13.34-9.45 26.94-18.53 40.9-27q6-3.67 12.13-7.22a1 1 0 0 0 .44-1.08 5.4 5.4 0 0 0-1.45-2.94l-1.17 1.53c.93.56 1.85 1.13 2.8 1.67a1 1 0 0 0 1-1.66c-.92-.59-1.86-1.13-2.79-1.69a1 1 0 0 0-1.18 1.53 3.76 3.76 0 0 1 1 2.07l.44-1.09Q808 383 787.84 397a462.09 462.09 0 0 0-11.47 8.26c-.67.5 0 1.64.67 1.14zM838.69 370a.76.76 0 0 0 0-1.51.76.76 0 0 0 0 1.51zM828.9 503c4 28.31 7.59 56.66 10.69 85.08q.64 5.93 1.26 11.86c.19 1.82.47 3.66.51 5.49 0 1.44-.09 3.17-1.36 4.09a.91.91 0 0 0-.19 1.4c2 2.22 1.79 5.51 1.81 8.31a86.54 86.54 0 0 0 .73 10.54 75.45 75.45 0 0 0 5.11 19.73c.39.9 1.89.26 1.58-.66a101.46 101.46 0 0 1-5.04-21.2c-.38-3.47-.45-6.94-.53-10.42-.06-2.74-.42-5.5-2.34-7.59l-.18 1.4c2.1-1.52 2.37-4.07 2.19-6.5-.26-3.52-.72-7-1.1-10.55q-1.2-11.13-2.51-22.23-2.6-22.07-5.61-44.08-1.73-12.55-3.63-25.07c-.13-.88-1.46-.5-1.34.37zM682.45 569a26.46 26.46 0 0 1 5.14-10 .79.79 0 0 0 0-1.1.78.78 0 0 0-1.1 0 26.76 26.76 0 0 0-5.28 10.74.64.64 0 0 0 1.24.34zM676.62 564.24a18.18 18.18 0 0 1 3.87-7.13c.61-.68-.4-1.7-1-1a16.74 16.74 0 0 0-4.1 7.8.64.64 0 0 0 1.24.34z"></path></g></svg>