<svg viewBox="0 0 1000 1000" xmlns="http://www.w3.org/2000/svg"><g fill="#32a16b" class="fill-18c4ff"><path d="M240.08 203.52c-4.4-9.61-9.74-19-17.34-26.35-24.24-23.49-67.35-9-72.18 25-1.77 12.46 2.72 24.31 6.79 35.84a103.74 103.74 0 0 1 6 29.19c1.09 22.72 16.29 44.84 34.61 57.58 8.2 5.7 19.78 5 28.33-.2s14.32-14.06 17.62-23.49 13.75-40.92-3.85-97.52M566.33 918.07c-2-84.59-3.88-168.55-5.83-253.15-.11-4.69-.26-9.55-2.33-13.76-5.4-10.92-20.5-12.21-32.45-9.86-24.06 4.7-45.57 17.7-66.52 30.45l-132.8 80.84c-31.29 19-64.18 39.8-80.37 72.67-13.4 27.24-11.37 62.5-9.77 92.81"></path><path d="M561 918.07c1.95-84.59 3.88-168.55 5.83-253.15.11-4.69.26-9.55 2.34-13.76 5.39-10.92 20.49-12.21 32.44-9.86 24.07 4.72 45.58 17.7 66.52 30.45l132.8 80.84c31.29 19 64.19 39.8 80.37 72.67 13.41 27.24 11.37 62.5 9.77 92.81"></path></g><path d="M419.48 327.79c-6.34 39-12.85 78.48-29.55 114.24-7 14.93-15.66 29.07-21.47 44.49s-8.55 32.74-3.2 48.32c7.94 23.14 34.95 37.87 58.71 32 2.64 9.28 10.37 16.44 19.07 20.62s18.38 5.79 27.92 7.24c61 9.25 124.1 13.8 183.62-2.35 17.43-4.72 36.62-13.5 41.42-30.91.83-3-1.61-7.82-3.87-5.67-1 5.08 6.24 7.32 11.38 6.84a77.47 77.47 0 0 0 49.19-24.77c10.15-11.05 17.3-25.84 15.77-40.74-1-10.12-5.82-19.4-10.3-28.53a579.48 579.48 0 0 1-50.87-157.11c-2-11.67-3.88-24-11.1-33.35-4.22-5.47-10-9.54-15.79-13.28-8.32-5.34-17.16-10.24-26.86-12.16s-20.47-.48-28.12 5.78" fill="#000000" class="fill-000000"></path><path d="M418.74 327.59c-3.73 20.66-7.16 41.39-12.23 61.78a279.84 279.84 0 0 1-21.59 59.25c-9.42 18.58-20.56 36.93-23.52 57.91-1.38 9.78-1 19.93 2.32 29.3A49.35 49.35 0 0 0 376.31 555c12.64 12 31.07 17.77 48.16 13.72l-2.33-1.32c3.18 10.76 12.15 18.55 22.21 22.87 12.18 5.23 25.88 6.48 38.9 8.29 27.53 3.85 55.28 6.54 83.11 6.61 27.43.07 55.08-2.42 81.75-9 18.89-4.68 43.06-12.54 49.42-33.35.94-3.09-.17-10.3-4.92-9.24-2.27.51-2.71 2.68-2.19 4.68a7.38 7.38 0 0 0 3.59 4.35c4.33 2.53 9.41 2.06 14.15 1.33a74.4 74.4 0 0 0 16.78-4.67c21.25-8.65 41.34-27.62 44.95-51.15 2-12.94-2.55-24.65-8.17-36.07-6-12.24-11.87-24.54-17.1-37.14a578.89 578.89 0 0 1-25.85-77.08c-3.4-13.12-6.44-26.34-8.91-39.68-2.18-11.8-3.33-24.36-9-35.14-5.82-11.06-17-18.12-27.63-24C662.8 253.09 651 249 639 251.05a31.54 31.54 0 0 0-14.49 6.46c-1.34 1.07.56 2.95 1.89 1.89 8.94-7.14 21.42-7.33 31.92-4.1a76.89 76.89 0 0 1 16.31 7.55 101.94 101.94 0 0 1 14.67 10 39 39 0 0 1 10.39 13.73 73.52 73.52 0 0 1 4.69 16.07c2.33 12 4.23 24 6.79 35.89a559.6 559.6 0 0 0 20.75 72Q738.17 428 745.53 445c5 11.47 10.64 22.59 15.75 34 2.53 5.65 4.69 11.59 5.39 17.77a42 42 0 0 1-1.67 16.71c-3.21 10.73-10 20.16-18.16 27.68a76.28 76.28 0 0 1-28.34 16.53 60.72 60.72 0 0 1-15.71 3.16 13.8 13.8 0 0 1-6.13-1 5.51 5.51 0 0 1-2.26-1.63 9.85 9.85 0 0 1-.48-1c0-.05 0-.53-.07-.54-.19-.08-.55.45-.55.49s.57.85.65 1a5.18 5.18 0 0 1 .36 1.39 7.31 7.31 0 0 1-.65 3.22 28.84 28.84 0 0 1-3 6.1 37 37 0 0 1-9.5 9.74c-7.81 5.64-17.06 9.08-26.3 11.6-24.5 6.69-49.84 9.84-75.2 10.6-25.56.77-51.15-.89-76.55-3.82-12.71-1.47-25.45-3.12-38.07-5.29-11.21-1.92-22.88-4.93-31.36-13a28.51 28.51 0 0 1-7.89-12.42 1.92 1.92 0 0 0-2.32-1.32c-14.79 3.59-30.81-.91-42.36-10.61a46.66 46.66 0 0 1-13.37-18c-3.65-9.06-4.25-19.1-3-28.71 2.67-20.28 13.24-38.17 22.31-56.12a273.74 273.74 0 0 0 20.66-56.52C413.3 373 417 350.5 420.22 328c.14-1-1.31-1.4-1.48-.41z" fill="#000000" class="fill-000000"></path><path d="M667.74 686.74c-6.91-10.15-20.39-13.83-28.39-23.15-8.14-9.47-9.22-23-9.6-35.43a734.86 734.86 0 0 1 4.38-105.4l-70.49 5.62-70.49-5.62a733.41 733.41 0 0 1 4.38 105.4c-.38 12.48-1.46 26-9.6 35.43-8 9.32-21.47 13-28.38 23.15-6 8.77-5.57 20.68-1.63 30.54 20.05 50 80.45 100.11 136 76.91 31.64-13.22 62.74-45.11 75.48-76.91 3.91-9.86 4.31-21.77-1.66-30.54z" fill="#ffffff" class="fill-ffffff"></path><path d="M632.3 541.16c.22-2.47.44-4.94.68-7.41l-28.75-8.6-40.59 3.23-70.49-5.62a732.8 732.8 0 0 1 4.67 90.57 52 52 0 0 0 11.74 1.24c21.06-.07 40.75-10.14 58.51-21.47a370.87 370.87 0 0 0 64.23-51.94z" fill="#000000" class="fill-000000"></path><path d="M670.43 717.57c4.57-11.55 4.29-25.52-4.6-35-8-8.52-20.3-12-27.2-21.75-7.65-10.76-7.6-25-7.9-37.66q-.56-23.55.4-47.08 1.08-26.75 4.12-53.37a1.11 1.11 0 0 0-1.12-1.11l-23.86 1.9-38 3c-2.82.22-5.7.63-8.53.68-1.87 0-3.79-.29-5.64-.43l-36.28-2.9c-9.4-.74-18.82-1.75-28.24-2.25h-.45a1.12 1.12 0 0 0-1.12 1.11 735.38 735.38 0 0 1 4.63 95c-.12 7-.17 14.15-.89 21.17-.64 6.28-1.92 12.69-4.89 18.32-2.81 5.32-7.07 9.28-12 12.65S469 676 464.57 679.7a28.44 28.44 0 0 0-10.15 16.89 38.77 38.77 0 0 0 2.43 21c.52 1.32 2.68.74 2.15-.6a37.21 37.21 0 0 1-2.56-19 26.09 26.09 0 0 1 8.63-15.75c4.26-3.82 9.31-6.6 14.05-9.77s9.4-7 12.54-12.06c6.8-11 6.83-24.71 7.12-37.17q.57-23.79-.42-47.58-1.1-26.49-4.1-52.87l-1.11 1.12 23.86 1.9 38 3c2.83.22 5.7.63 8.54.68 1.86 0 3.78-.28 5.64-.43l36.28-2.89 18.27-1.46c3.29-.26 6.69-.3 10-.79a3.42 3.42 0 0 1 .45 0l-1.19-1.16a734.83 734.83 0 0 0-4.64 94.5c.11 7.08.16 14.21.86 21.27a56.85 56.85 0 0 0 4.23 17.76 34.83 34.83 0 0 0 11.14 13.63c4.64 3.53 9.81 6.3 14.49 9.77 5.48 4 9.7 9.21 11.29 15.95 1.67 7.1.54 14.63-2.11 21.34-.53 1.34 1.63 1.92 2.15.59z" fill="#000000" class="fill-000000"></path><path d="M690.17 383.59c.4-6.66 8.47-11.56 14.56-8.85 4.56 2 7 7 8.37 11.79 5 18.26-2.61 39.32-18.2 50.08-2.78 1.92-5.92 3.57-9.3 3.6s-7-2-7.76-5.26" fill="#ffffff" class="fill-ffffff"></path><path d="M691 383.59c.62-6.1 8.3-10.4 13.76-7.47 6.14 3.28 7.93 12 8.44 18.34a46.6 46.6 0 0 1-14.09 37c-2.94 2.79-6.45 5.62-10.37 6.85-3.53 1.11-8.48.37-9.62-3.75a1.32 1.32 0 0 0-2.55.7c1 3.72 4.64 6 8.36 6.22 4.46.3 8.67-2.24 12.09-4.83a47.23 47.23 0 0 0 14.5-18.32 49.21 49.21 0 0 0 4.32-23.19c-.48-7.35-2.49-16.88-9.37-20.92-7-4.14-16.67 1.27-17.14 9.33-.06 1.08 1.57 1.05 1.67 0z" fill="#000000" class="fill-000000"></path><path d="M703.15 391.73c-1.12-2.5-4.61-.18-5.72 1.09-2 2.3-3.1 5.47-4 8.32-2.22 6.67-2.65 13.46-2.36 20.44a1.33 1.33 0 0 0 2.46.66 8.65 8.65 0 0 0 1.45-4.52 9 9 0 0 0-.2-2.31 10.34 10.34 0 0 0-.3-1.09c-.11-.35 0-.87-.3-.53a1.32 1.32 0 0 0-1.59-2.07c-1.67 1-1.13 2.59-.68 4.08a6.76 6.76 0 0 1-.66 5.11l2.41.32a42.25 42.25 0 0 1 .88-16.3 48.41 48.41 0 0 1 2.41-7.52 14.17 14.17 0 0 1 1.67-3.09c.29-.38 2.61-2.79 3.12-1.73s1.9.13 1.46-.86z" fill="#000000" class="fill-000000"></path><path d="M437.11 383.59c-.4-6.66-8.47-11.56-14.56-8.85-4.55 2-7 7-8.36 11.79-5.05 18.26 2.6 39.32 18.19 50.08 2.78 1.92 5.93 3.57 9.3 3.6s7-2 7.76-5.26" fill="#ffffff" class="fill-ffffff"></path><path d="M438 383.59c-.4-6.91-7.81-12.3-14.54-10.45-7.92 2.17-10.72 11.86-11.66 19a48.9 48.9 0 0 0 16.1 42.66c3.6 3.1 7.88 6.16 12.73 6.67 4.26.45 8.89-1.85 10.09-6.17a1.33 1.33 0 0 0-2.56-.7c-.94 3.38-4.82 4.7-8 4.15-3.75-.64-7.13-3.07-10-5.46a45.56 45.56 0 0 1-12.16-16.4 46.64 46.64 0 0 1-4-19.89 42 42 0 0 1 1.48-10.09c.93-3.34 2.33-6.75 4.89-9.17a8.94 8.94 0 0 1 9.66-1.81c3.2 1.27 5.94 4.18 6.3 7.7.1 1.05 1.74 1.09 1.67 0z" fill="#000000" class="fill-000000"></path><path d="M425.59 392.59c.47-1 2.69 1.19 3 1.53a12.39 12.39 0 0 1 1.71 3 46.17 46.17 0 0 1 2.52 7.78 42.06 42.06 0 0 1 .88 16.3l2.41-.32a6.71 6.71 0 0 1-.65-5.11c.44-1.49 1-3.13-.69-4.08a1.32 1.32 0 0 0-1.59 2.07c-.29-.34-.17.07-.25.37s-.23.7-.31 1.06a9.15 9.15 0 0 0-.24 2.5 8.74 8.74 0 0 0 1.45 4.52 1.33 1.33 0 0 0 2.46-.66c.29-7-.14-13.77-2.36-20.44-.93-2.8-2-5.89-3.93-8.18-1.09-1.29-4.68-3.82-5.84-1.23-.44 1 1 1.85 1.46.86z" fill="#000000" class="fill-000000"></path><path d="M694.07 319.07c-4.67-37.9-30.37-70.07-64.3-86.4-28.78-13.86-62.17-16.65-93.62-11-24.81 4.42-49.07 14.15-68.17 30.6-55.67 48-32.12 130.72-22.86 193.6 3.51 23.86 7.25 48.58 20.43 68.78 15.27 23.41 41 37.46 65.7 50.57 9.09 4.82 18.51 9.75 28.78 10.55 14.23 1.11 27.71-5.83 40.29-12.57 18.74-10 37.9-20.39 52-36.3 14.64-16.51 22.75-37.9 27.31-59.5s5.84-43.73 8.6-65.63c3.46-27.49 9.18-55.6 5.84-82.7z" fill="#ffffff" class="fill-ffffff"></path><path d="M695.19 319.07c-3.74-29.65-20.23-56.31-43.8-74.4-27.08-20.78-62.08-28.69-95.75-26.53-33.41 2.15-68.13 13.51-92.63 37.11a98 98 0 0 0-22.68 33.63c-5.09 12.48-7.68 25.85-8.7 39.25-2.17 28.26 2.24 56.62 6.9 84.42q3.53 21 6.77 42c2.64 17.09 5.92 34.35 13.4 50.06 14.47 30.4 44.58 47 73.1 62.1 7.83 4.15 16 8.31 24.82 9.71s17.46-.3 25.65-3.42 16.12-7.53 23.93-11.75c7.61-4.11 15.18-8.34 22.43-13.09 14.27-9.36 26.69-20.87 35.46-35.63s14-31.46 17.31-48.27c3.77-19.3 5.15-38.94 7.45-58.44s5.92-38.86 7-58.48a160.93 160.93 0 0 0-.69-28.28c-.17-1.41-2.41-1.43-2.24 0 2.3 19.08.25 38.31-2.34 57.25-1.28 9.38-2.69 18.74-3.82 28.14-1.16 9.59-2.07 19.21-3.14 28.82-3.81 34.31-10.46 71.22-35.81 96.72-12 12.06-26.86 20.71-41.71 28.76-15.07 8.17-32 18.6-49.85 15.36-8.74-1.58-16.7-5.79-24.47-9.92-7.06-3.75-14.11-7.52-21-11.58-13.68-8-26.94-17.28-37.36-29.39-21.76-25.28-24.13-59.41-29.32-90.9-4.5-27.28-9.84-54.57-10.69-82.27-.82-26.44 2.73-53.89 17.36-76.53 17.38-26.9 47.8-42.58 78.35-49.37 33.78-7.51 70.73-5.31 101.94 10.39 26 13.08 47.23 35.84 56.9 63.43a102.54 102.54 0 0 1 5 21.09c.17 1.41 2.41 1.43 2.23.01z" fill="#000000" class="fill-000000"></path><path d="M434.53 376.83c15.81 2 31.45-4.39 45.41-12.08 34.78-19.15 63.95-46.85 92.7-74.23-2 4.8-4.14 9.86-3.68 15.06s4.39 10.5 9.61 10.57c3 0 5.7-1.57 8.2-3.17A177.65 177.65 0 0 0 624 281a121.59 121.59 0 0 0 39.54 74.6c7.14 6.32 15 11.77 22.83 17.19 1.44 1 4.14 4.8 5.72 4 .82-.39.75-.37 1.23-1.14 11.44-18.37 13.84-44.93 9.8-66.19-3.07-16.21-8.47-32.28-17.84-46-10.41-15.21-24.06-22.24-40.14-30.31-4.64-2.33-8.47-6-12.48-9.27-34-27.9-84.46-30.84-124.5-12.72s-69.88 54.76-86.16 95.57c-6.73 16.8-11.18 36.61-2.33 52.39 3.13 5.56 13 11.62 14.91 17.71" fill="#000000" class="fill-000000"></path><path d="M434.53 377.62c11.06 1.45 22-1 32.21-5.19a183.86 183.86 0 0 0 28.73-15.52c18.3-11.71 35.06-25.68 51.14-40.22 9.13-8.26 18.06-16.74 27-25.22l-2.11-1.63c-2.41 5.64-5.11 12-3.45 18.24 1.25 4.7 5.05 9.1 10.15 9.41 3.05.19 5.91-1.25 8.43-2.81 2.7-1.67 5.33-3.48 7.91-5.32a178.45 178.45 0 0 0 30.4-27.42l-2.32-1a123.86 123.86 0 0 0 25.31 60.08 130.81 130.81 0 0 0 25 23.9c2.55 1.91 5.14 3.76 7.74 5.58a45.08 45.08 0 0 1 6.39 4.84c1.22 1.22 2.77 3 4.66 3 2.23-.05 3.26-2.51 4.18-4.15 5.3-9.37 8.21-19.94 9.6-30.56a110.11 110.11 0 0 0-.54-32.27 135.18 135.18 0 0 0-10.16-33.91c-4.69-10.29-11-20-19.51-27.45-7.79-6.85-17-11.79-26.16-16.45a58.1 58.1 0 0 1-7.38-4.15c-2.42-1.71-4.65-3.68-6.92-5.59a105.18 105.18 0 0 0-12.83-9.19c-17.74-10.81-38.56-16-59.25-16.25a131.78 131.78 0 0 0-60.44 14c-18.83 9.48-35.38 23.17-49 39.21A198 198 0 0 0 421 305.56c-4.31 10.64-7.72 22-7.63 33.6a43.93 43.93 0 0 0 3 16.12 26.69 26.69 0 0 0 3.55 6.56 48.25 48.25 0 0 0 4.77 5c3.09 2.95 7.21 6.12 8.61 10.31.55 1.64 3.16.94 2.6-.71-1.39-4.14-4.87-7.29-7.94-10.22-1.74-1.66-3.51-3.29-5.09-5.08a22 22 0 0 1-3.57-5.87c-4.5-10.29-3.67-22-1.05-32.7 2.55-10.38 6.8-20.35 11.53-29.91a198.36 198.36 0 0 1 15.63-26.29 166.4 166.4 0 0 1 43.44-42.86 131.75 131.75 0 0 1 56.49-21.32c20-2.49 40.63-.39 59.42 7a100.05 100.05 0 0 1 25.91 14.9c4.41 3.52 8.5 7.58 13.56 10.19 4.57 2.36 9.19 4.62 13.68 7.15 8.7 4.93 16.77 10.84 23.1 18.65 7.23 8.91 12.27 19.67 15.84 30.5 6.82 20.66 9.05 43 3.59 64.21a77 77 0 0 1-5.25 14.52c-.51 1-1 2-1.59 3-.44.8-1.06 2.49-1.82 3-.29.2-.05.11-.34 0a4.49 4.49 0 0 1-1.08-.81c-.75-.68-1.42-1.44-2.15-2.13a57.16 57.16 0 0 0-6.52-4.67q-3.79-2.65-7.52-5.42a138.66 138.66 0 0 1-13.58-11.45 120.59 120.59 0 0 1-32.14-54.69 115.56 115.56 0 0 1-3.06-15.2c-.14-1.05-1.45-2-2.32-1a177.09 177.09 0 0 1-25 23.41 120.31 120.31 0 0 1-14 9.67c-2.38 1.34-5.14 2.29-7.8 1.17a9.64 9.64 0 0 1-4.63-4.63c-3-5.92-.09-12.84 2.29-18.45.56-1.33-.93-2.75-2.11-1.62-15.48 14.77-31 29.55-47.55 43.14-8.35 6.85-17 13.36-25.93 19.41a210.91 210.91 0 0 1-27.83 16.24c-11.11 5.24-23.46 9-35.85 7.68-1-.11-1 1.45 0 1.58z" fill="#000000" class="fill-000000"></path><path d="m694.9 344.54-18.67 4a119.36 119.36 0 0 0 5 59 33.78 33.78 0 0 0 5.18 10.27c.56-5.36 1.15-10.72 1.82-16.06 2.39-18.96 5.85-38.2 6.67-57.21zM440.59 418.09a32.93 32.93 0 0 0 5.41-10.58 119.37 119.37 0 0 0 5-59l-18.85-4c.24 24.43 4.41 49.76 8.44 73.58zM514 405.45a4.85 4.85 0 0 0-4.19.53 3.67 3.67 0 0 0-1.57 4.1 3.12 3.12 0 0 0 3.88 2.12 5 5 0 0 0 3-3.32 4.47 4.47 0 0 0-.52-4 3 3 0 0 0-4.62-.14 7 7 0 0 0-1.71 4.53A3.4 3.4 0 0 0 509 412a2.81 2.81 0 0 0 2.76.68c1.94-.57 2.51-2.61 2.62-4.41s-.19-3.81-1.75-4.74a2.45 2.45 0 0 0-3.29.78 5.34 5.34 0 0 0-.78 2.17 7.17 7.17 0 0 0 .63 4.84 3.48 3.48 0 0 0 4.55 1.61c1.5-.74 2.08-2.46 2.22-4a7.53 7.53 0 0 0-1.1-4.51c-1-1.55-2.94-2.89-4.74-1.73-1.44.94-2.06 2.89-2.25 4.51a6.06 6.06 0 0 0 1.21 4.55 3.34 3.34 0 0 0 2.33 1.24 2.85 2.85 0 0 0 2.45-1.14c1-1.24.92-3 .75-4.48a11.55 11.55 0 0 0-.49-2.53 1.74 1.74 0 0 0-2.11-1.2 2.5 2.5 0 0 0-1.73 3 1.58 1.58 0 0 0 3.09-.42.85.85 0 0 1-.9.81l-1.65-1.25a10.45 10.45 0 0 1 .36 1.66V408.83a3.5 3.5 0 0 0 0 .72s.08-.44 0-.16c0 .1 0 .2-.07.3v.09c-.06.17 0 .13.07-.14a1.19 1.19 0 0 0-.13.25l.15-.2-.13.13c.24-.17.27-.21.12-.12l.23-.1c-.34.13.41 0 .06 0h.27c-.17 0-.13 0 .13.07h-.09c-.15-.1-.12-.07.1.09a1.7 1.7 0 0 0-.24-.22c-.27-.25.14.24 0 0l-.16-.24-.05-.1c-.08-.17-.07-.13 0 .11l-.14-.44c-.01-.03-.05-.24-.07-.36-.1-.41 0 .4 0 0V407.42v.1c-.07-.13.11-.56.15-.71l.12-.35v-.11c.07-.18.06-.15 0 .08 0-.17.26-.5.35-.64l.06-.11-.07.08a1.1 1.1 0 0 1 .15-.16l-.19.13q.24-.13-.12 0h-.15c-.29 0-.33-.06-.15 0 .35.11-.31-.22 0 0l.1.06c.12.09.12.09 0 0l-.09-.06.17.16.08.09q.18.21-.06-.09c.14.05.32.5.39.63a1 1 0 0 1 .16.33c-.08-.21-.1-.26 0-.14l.06.17a5.75 5.75 0 0 1 .2.71c0 .06.1.3.07.36v-.22 1.22-.1.24s-.1.37-.16.56.21-.39 0-.08l-.16.27c-.17.31.28-.26 0 0l-.07.08c-.13.12-.09.09.13-.09h-.08c-.17.09-.12.07.15 0h-.15.22-.1.18-.09c-.17-.06-.12 0 .16.07a2.07 2.07 0 0 0-.25-.15c.31.11.23.19.06 0a.91.91 0 0 0-.13-.16l.15.19a1.63 1.63 0 0 1-.11-.17c-.06-.1-.1-.19-.15-.28s-.07-.13 0 .12a1.18 1.18 0 0 1-.07-.2 3.9 3.9 0 0 1-.14-.59c-.06-.27 0 .43 0 0V407.48c0-.45-.08.38 0-.06 0-.13 0-.26.08-.39s.14-.5.22-.76c.14-.42-.17.35 0 0l.06-.09a1 1 0 0 1-.64.49 1.31 1.31 0 0 1-.59 0l-.26-.11c.15.1.1.06-.14-.11.26.23-.18-.35 0 0a1.62 1.62 0 0 1 .1.18c-.1-.26-.12-.3-.05-.13s.09.41.13.61c.09.46 0-.38 0 .09v.42a7.85 7.85 0 0 1 0 .84v.14-.06a1.29 1.29 0 0 1-.08.39c0 .11-.05.23-.08.34v.11c-.06.17-.05.14.05-.11a2.28 2.28 0 0 1-.17.3l.14-.18c-.14.13-.1.11.12-.07l-.17.1.24-.1h.38c-.18-.05-.12 0 .17.08a1 1 0 0 1 .36.36c-.2-.3.1.39 0 0 .1.44 0 .27 0 .15v-1.18c-.09.46 0 0 0-.08a8 8 0 0 1 .2-.81 1.73 1.73 0 0 0 .11-.32l-.09.21.09-.19c.05-.1.12-.19.17-.28.18-.33-.27.26 0 0 0 0 .09-.1.14-.15.24-.25-.34.17 0 0 .12-.06.4-.15-.06 0h-.33a1.14 1.14 0 0 0 .25.06c-.28 0-.34-.16-.19-.06-.4-.26-.21-.17-.1-.06s-.2-.36-.07-.09.06.28 0-.09c0 .08.07.17.09.25a1.74 1.74 0 0 0 0 .22v-.21a1.11 1.11 0 0 1 0 .19v.64-.07l-.09.31c0 .1-.07.43 0 0a1.79 1.79 0 0 1-.2.39l-.18.29c-.1.13-.08.12.05-.06a2.09 2.09 0 0 1-.14.17l-.15.15-.16.13c.18-.13.2-.15.07-.06l-.09.05c-.14.07-.11.06.1 0l-.18.06h.12-.3.2l-.2-.06.17.06-.17-.1c.16.12.19.13.07 0s-.09-.1 0 .06a1.07 1.07 0 0 1-.16-.27c.08.18.08.2 0 .05v-.2.07c-.07-.06.08-.53 0-.17a1.84 1.84 0 0 1 .47-.85 2.3 2.3 0 0 1 1-.66 3.07 3.07 0 0 1 1.53-.18.86.86 0 0 0 .23-1.69z" fill="#000000" class="fill-000000"></path><path d="M504.3 413.21a113.28 113.28 0 0 1 14.73.85 1 1 0 0 0 1-.95 1 1 0 0 0-1-1 84.26 84.26 0 0 0-14.73-.45c-1 .05-1 1.53 0 1.51zM493.54 382.11A133.9 133.9 0 0 1 524 379.4c-.4-2.45-3.27-3.55-5.72-3.93a37.51 37.51 0 0 0-25.39 5.16.75.75 0 0 0 .92.37" fill="#000000" class="fill-000000"></path><path d="M493.77 382.94a132.22 132.22 0 0 1 30.23-1.88 1.69 1.69 0 0 0 1.61-2.11c-.51-2.7-3.11-4.21-5.57-4.87a30.75 30.75 0 0 0-9.42-.72 34.41 34.41 0 0 0-18.4 6.13 1.35 1.35 0 0 0-.27 2.08 2.05 2.05 0 0 0 2.18.58c1.24-.38 1.08-2.44-.32-2.35l.22.16-.48 1.81a43.53 43.53 0 0 1 15.79-4.87 37.09 37.09 0 0 1 8.09.18c1.8.23 4.47.69 5 2.76l1.61-2.11a141.15 141.15 0 0 0-30.65 3.55c-1.09.25-.62 1.84.46 1.66zM613.54 407.14a3.14 3.14 0 0 1 1.3.1 2.06 2.06 0 0 1 .35.12c-.06 0-.09-.05.07 0l.31.18.2.14c-.09-.07-.09-.06 0 0a5.23 5.23 0 0 1 .45.49s-.13-.2 0 0 .11.19.16.28c.16.28 0-.22 0 .09 0 .07.07.41 0 .07v.31-.07.2-.05a1.07 1.07 0 0 1-.16.27l.1-.14-.14.15.14-.1-.17.1c.07.06.28-.14 0 0s.36 0 0 0h-.1.12l-.19-.05h.1s-.27-.12-.26-.15l.15.12-.16-.13-.15-.15-.07-.08c-.11-.13-.09-.11 0 .06-.14-.08-.27-.43-.34-.57l-.05-.1v.07a1.18 1.18 0 0 0-.1-.3c0-.1-.05-.2-.07-.3-.09-.32 0 .41 0 .07a5 5 0 0 1 0-.55v-.11a2.58 2.58 0 0 1 .08-.26c.08-.28-.18.4 0 0s-.29.28-.07.09c.05 0 .24-.24 0 0l-.11.09c.15-.09.09-.06-.19.06a1 1 0 0 0 .25-.06H614.57c.33.07-.33-.23-.05 0l.08.05c.15.1.11.07-.1-.09a1.52 1.52 0 0 0 .22.22c.25.27-.2-.33 0 0a2.61 2.61 0 0 1 .17.28v.1c.08.17.06.13 0-.12a1.73 1.73 0 0 0 .11.32c.07.22.13.45.18.67a2 2 0 0 1 .07.41v-.06.99s-.08.36 0-.09c-.08.36.23-.33 0 0a1.07 1.07 0 0 1 .61-.47c-.33.1.46 0 .11 0s.42.11.09 0c.25.12.32.14.2.08a.36.36 0 0 1-.12-.08l.19.15c-.13-.14-.11-.11.06.1l-.17-.3.09.21-.08-.21c0-.11-.06-.23-.08-.34s0-.17-.05-.25c-.1-.45 0 .38 0-.08v-1.42c0-.45 0 .26 0 0s.09-.45.15-.68-.22.33 0 0c.07-.11.29-.35 0 0 .23-.26-.36.18-.06 0a1.21 1.21 0 0 1-.85.12l-.51-.3c-.16-.23-.18-.26-.08-.1.18.35-.13-.42 0 0 .08.26.17.5.23.76v.39-.07a2.57 2.57 0 0 1 0 .92v.39-.07a1.9 1.9 0 0 1-.14.66v.1q-.09.27.06-.12c-.06.05-.1.21-.14.28a2.92 2.92 0 0 0-.17.27c0-.09.28-.31 0 0s-.25.09.06 0a2.07 2.07 0 0 0-.25.15l.25-.1h-.18.28-.2s.46.08.17 0 .36.2.06 0 .26.3 0 0 .1.22 0-.05c-.05-.09-.1-.18-.16-.27-.15-.25.06.08.05.13a1.51 1.51 0 0 0-.1-.3c0-.1-.06-.21-.08-.31v-.12.1-.36a6.09 6.09 0 0 1 0-.74v-.12.1c0-.06 0-.3.07-.36a5.75 5.75 0 0 1 .2-.71 1 1 0 0 0 .09-.22l-.08.19a1.51 1.51 0 0 1 .11-.22c.05-.11.11-.22.17-.33s.18-.38.27-.41l-.14.18.16-.18.17-.16-.17.13.19-.13c.3-.22-.36.11 0 0h.1a.72.72 0 0 1-.5 0c.36.09-.34-.19 0 0-.34-.2-.18-.11-.07 0l-.1-.13.12.2a3.21 3.21 0 0 1 .19.31l.11.22q.12.25 0-.09a2.31 2.31 0 0 1 .23.7 3.59 3.59 0 0 1 .08.35 2 2 0 0 1 0 .24v-.1V408.33v-.1c0 .08 0 .16-.05.24a3.59 3.59 0 0 1-.08.35 1.42 1.42 0 0 1-.07.22c-.06.18 0 .14 0-.1l-.16.3-.06.09c-.11.15-.09.13.07-.08 0 0-.22.22-.23.24l.1-.08-.18.1.23-.1c-.18.05-.13.05.17 0-.33 0 .37.12.07 0l.22.1q-.22-.14.12.12l-.13-.13c.17.23.2.27.11.12v-.08q-.12-.24.06.15a1.9 1.9 0 0 0-.11-.39 1.62 1.62 0 0 0 0-.2v.16-.19a14.3 14.3 0 0 1 .06-1.85c0-.47-.07.37 0-.1 0-.19.06-.37.1-.56s.16-.64.24-1l-1.4 1.44a.85.85 0 0 1-.9-.81 1.58 1.58 0 0 0 3.09.42 2.5 2.5 0 0 0-1.73-3 1.74 1.74 0 0 0-2.11 1.2 12.07 12.07 0 0 0-.5 2.6 10 10 0 0 0 0 2.12 4.31 4.31 0 0 0 .93 2.46 2.82 2.82 0 0 0 2.32 1 4.11 4.11 0 0 0 3.41-3.52 7.83 7.83 0 0 0-.58-4.84 4.61 4.61 0 0 0-1.55-1.94 3 3 0 0 0-3 0 6 6 0 0 0-2.63 4 7 7 0 0 0 .45 4.67 3.37 3.37 0 0 0 4.53 1.61 4.91 4.91 0 0 0 2.33-4 8.32 8.32 0 0 0-.09-2.44 5.31 5.31 0 0 0-.93-2.35 2.43 2.43 0 0 0-3.19-.58 3.61 3.61 0 0 0-1.48 2.16 8.12 8.12 0 0 0 .38 5.24 3.25 3.25 0 0 0 2 1.73 2.8 2.8 0 0 0 2.79-.71 3.48 3.48 0 0 0 .76-2.68 9.17 9.17 0 0 0-.49-2.49c-.55-1.54-1.83-3.21-3.66-3.06a3 3 0 0 0-2.31 1.33 4.07 4.07 0 0 0-.61 2c-.23 2.76 2.65 6.59 5.65 4.87a3.37 3.37 0 0 0 1.33-4.19 4.27 4.27 0 0 0-3.6-2.52 4.71 4.71 0 0 0-2 .22.88.88 0 0 0-.62.94.85.85 0 0 0 .85.75z" fill="#000000" class="fill-000000"></path><path d="M623 411.7a84.29 84.29 0 0 0-14.73.45 1 1 0 0 0-1 1 1 1 0 0 0 1 .95 113.28 113.28 0 0 1 14.73-.85c1 0 1-1.46 0-1.51zM633.74 382.11a133.9 133.9 0 0 0-30.42-2.71c.4-2.45 3.27-3.55 5.72-3.93a37.54 37.54 0 0 1 25.4 5.16.76.76 0 0 1-.93.37" fill="#000000" class="fill-000000"></path><path d="M634 381.28a141.15 141.15 0 0 0-30.65-3.55l1.61 2.11c.47-2 3-2.49 4.76-2.74a37.07 37.07 0 0 1 8.29-.2 43.53 43.53 0 0 1 15.79 4.87l-.5-1.77.21-.16c-1.38-.09-1.57 2-.31 2.35a2 2 0 0 0 2.17-.58 1.35 1.35 0 0 0-.27-2.08 34.5 34.5 0 0 0-18.4-6.13 30.66 30.66 0 0 0-9.41.72c-2.46.66-5.07 2.17-5.58 4.87a1.69 1.69 0 0 0 1.61 2.11 132.34 132.34 0 0 1 30.2 1.88c1.07.18 1.55-1.41.45-1.66zM549.06 453.44c-4.72 4 5.09 7.67 7.75 8.43a29.2 29.2 0 0 0 12.09.72 22.18 22.18 0 0 0 7.36-2.17c2.47-1.31 4.39-3.83 3.06-6.66-.65-1.39-2.58-.35-2.34 1 .44 2.33-2 3.26-3.84 3.85a30.74 30.74 0 0 1-8.74 1.21 29.88 29.88 0 0 1-10.35-1.69c-1.18-.43-5.35-1.75-3.84-3.53a.81.81 0 0 0-1.15-1.15zM550.27 498.31c1.19-.69 2.23-1.64 3.39-2.38a39.37 39.37 0 0 1 3.63-2.06 43 43 0 0 1 7.91-2.87 75.72 75.72 0 0 1 8.95-1.77c1.56-.22 3.13-.4 4.71-.56a41 41 0 0 0 4.95-.55c2-.46 1.52-3.51-.48-3.54a37.7 37.7 0 0 0-5.18.6c-1.56.21-3.13.43-4.68.69a67 67 0 0 0-9.7 2.28 45.8 45.8 0 0 0-8 3.47c-2.41 1.34-5.22 3-6.89 5.27-.65.87.59 1.92 1.43 1.43z" fill="#000000" class="fill-000000"></path><path d="m584 483.24.09 2.26a19.54 19.54 0 0 0 .16 2.42.93.93 0 0 0 1.83-.25 18.13 18.13 0 0 0-.19-2.21l-.24-2.22a.85.85 0 0 0-.83-.82.83.83 0 0 0-.82.82zM565 509.33a49.23 49.23 0 0 1 9.27-3.39.85.85 0 0 0-.45-1.64 52.51 52.51 0 0 0-9.62 3.66c-.91.46-.11 1.81.8 1.37zM386.14 394.47c-16.73-4.38-30.14-18.08-40.21-31.47l-1.79 1.38c2.25 2.45 7.19-5.38 8.08-6.58 3.19-4.28 6.22-8.71 9-13.25a74.48 74.48 0 0 0 4.45-9.11q3.07-7 5.46-14.35a186 186 0 0 0 7.09-30.55c3-20.39 3-41 1.48-61.49-1.44-19.53-4-39.18-10.16-57.83a121.35 121.35 0 0 0-29.43-48.4A132.78 132.78 0 0 0 295 93.84c-16.46-6.48-33.82-9.78-51.36-11.6a302.07 302.07 0 0 0-51.74-.89 264.8 264.8 0 0 0-51.8 8.57 195 195 0 0 0-47.63 19.72c-15.08 8.88-28.82 20.24-39.55 34.11-12.36 15.92-19.92 34.42-24.39 53.94a195.26 195.26 0 0 0-4.11 60.16 186.66 186.66 0 0 0 14.63 58.35 135.9 135.9 0 0 0 69 70.95c17.12 8 35.49 12.73 54.11 15.66a310.49 310.49 0 0 0 66.67 2.94 408.35 408.35 0 0 0 66.53-9.75q8.22-1.87 16.37-4a28.1 28.1 0 0 1 14.62 0c4.45 1.14 8.7 2.92 13.06 4.31a70.07 70.07 0 0 0 15.06 2.88 91.35 91.35 0 0 0 31.7-2.83 1 1 0 0 0-.52-1.91 89.76 89.76 0 0 1-32.81 2.19 69.48 69.48 0 0 1-14.92-3.37 110 110 0 0 0-12.49-4 29 29 0 0 0-13.4.12c-5.35 1.34-10.67 2.74-16 4q-15.84 3.64-31.9 6.15c-42.46 6.54-87.07 6.68-128.68-5-31.76-8.89-60.71-26.77-79.86-54-22-31.3-30.87-71.41-29-109.25 1-19.57 4.75-39.46 12.13-57.66a121.72 121.72 0 0 1 32.94-45.79c25.44-22.19 58.25-34.41 91.14-40.25a285.48 285.48 0 0 1 100.6.1c35.39 6.5 69.25 23.94 89.62 54.46 10.68 16 16.73 34.52 20.24 53.31a326.52 326.52 0 0 1 5.18 58.22c.08 20.43-2 41-7.65 60.67a139 139 0 0 1-10.82 27.88 113.94 113.94 0 0 1-7.41 11.31c-1.53 2.19-3.1 4.37-4.81 6.42a20 20 0 0 1-1.91 2.1c-.13.12-.56.38-.61.51s-.19-.06-.11.07.53.05.67.2c-.85-.93-2.57.33-1.78 1.38 10.48 13.95 24.21 27.76 41.71 32a.87.87 0 0 0 .46-1.68z" fill="#000000" class="fill-000000"></path><g fill="#32a16b" class="fill-18c4ff"><path d="M888.43 331.89a98 98 0 0 0-9.68 11.64 69 69 0 0 0-5.65 9.22c-1.43 2.81-2.61 5.72-3.83 8.63-.68 1.63-1.3 3.29-1.85 5a69.19 69.19 0 0 0-2.52 10.21c-1.4 8.32-2 16.62-.95 25a79.51 79.51 0 0 0 8 28.22 67.38 67.38 0 0 0 5.26 9.38c1.77 2.64 3.74 5.13 5.7 7.63q1.71 2.18 3.6 4.22c.62.67 1.26 1.34 1.91 2a12.42 12.42 0 0 0 5.35 3.43 14.94 14.94 0 0 0 12.8 0 12.42 12.42 0 0 0 5.35-3.43l2.6-3.37a16.55 16.55 0 0 0 2.27-8.38c-.2-1.48-.4-2.95-.59-4.42a16.65 16.65 0 0 0-4.28-7.34q-2.38-2.39-4.53-5a69.51 69.51 0 0 1-6.79-11.61 69.65 69.65 0 0 1-3.6-13.43 70.78 70.78 0 0 1 0-14.11 69.85 69.85 0 0 1 3.61-13.38 69.91 69.91 0 0 1 6.79-11.61c1.43-1.73 2.94-3.4 4.53-5a16.06 16.06 0 0 0 3.44-18.15 12.44 12.44 0 0 0-3.44-5.35l-3.36-2.6a16.58 16.58 0 0 0-8.39-2.27l-4.42.59a16.61 16.61 0 0 0-7.33 4.28z"></path><path d="M858.89 290.74a16.61 16.61 0 0 0-7.33 4.28 149 149 0 0 0-15.09 18 120.63 120.63 0 0 0-9.84 16.07 137.79 137.79 0 0 0-14.37 79.34 130.51 130.51 0 0 0 12.37 43.28 120.35 120.35 0 0 0 9.18 16.36 148.2 148.2 0 0 0 14.42 18.34c1.09 1.18 2.2 2.33 3.33 3.47a17.11 17.11 0 0 0 23.5 0c2.91-3.17 5.07-7.33 4.87-11.75l-.59-4.42a16.56 16.56 0 0 0-4.28-7.33 124 124 0 0 1-9-10.05A120.93 120.93 0 0 1 852.47 433a121 121 0 0 1-6.39-21.74c-.31-1.61-.58-3.23-.83-4.85a122.64 122.64 0 0 1-.47-23c.13-1.69.3-3.38.5-5.06a121.39 121.39 0 0 1 5.54-22c.53-1.49 1.1-3 1.69-4.45a121.16 121.16 0 0 1 13.58-23.27 125.53 125.53 0 0 1 9-10 18.47 18.47 0 0 0 4.87-11.75 18.41 18.41 0 0 0-4.9-11.88c-3.17-2.91-7.32-5.07-11.75-4.87z"></path><path d="M826 252.81a17.36 17.36 0 0 0-11.76 4.87 199.29 199.29 0 0 0-20.22 24 169.44 169.44 0 0 0-13.93 22.93 184.4 184.4 0 0 0-17.59 53.23 182.63 182.63 0 0 0-.57 60.29 191.18 191.18 0 0 0 49.34 102.26c1.56 1.68 3.15 3.34 4.77 5a17.14 17.14 0 0 0 11.76 4.87 16.92 16.92 0 0 0 11.75-4.87c2.91-3.17 5.06-7.32 4.87-11.75a17.33 17.33 0 0 0-4.87-11.75 182.79 182.79 0 0 1-13.45-15.06 177 177 0 0 1-17.55-28.42c-1.08-2.21-2.11-4.43-3.1-6.68a175.12 175.12 0 0 1-9.89-32.93c-.48-2.47-.91-5-1.28-7.45a175 175 0 0 1-.88-34.25q.29-3.78.73-7.55a171.86 171.86 0 0 1 8-32.45q1.3-3.69 2.78-7.32a169.81 169.81 0 0 1 19.78-33.9 173.7 173.7 0 0 1 13.09-14.7 17.13 17.13 0 0 0 4.86-11.75 17 17 0 0 0-4.86-11.75c-3.22-2.91-7.38-5.06-11.78-4.87z"></path></g><rect height="13.49" rx="4.39" transform="rotate(-45 951.5 391.536)" width="60.62" x="921.19" y="384.78" fill="#000000" class="fill-000000"></rect><path d="m933.32 413.05-2.26-2.26c-.74-.74-1.72-1.45-1.71-2.6s.83-1.72 1.52-2.41l8.15-8.15 23.27-23.28 3.34-3.33c.61-.61 1.24-1.44 2.12-1.61 1.21-.23 1.94.6 2.7 1.36s1.73 1.65 2.53 2.53c1.11 1.24.63 2.5-.39 3.53l-19.3 19.3-11.46 11.46c-1.81 1.8-3.55 3.74-5.45 5.44a2.17 2.17 0 0 1-3.06 0c-2.11-1.94-5.28 1.21-3.16 3.16a6.77 6.77 0 0 0 9.53-.17c.83-.81 1.63-1.63 2.45-2.45L953 402.76l22.2-22.2a9.71 9.71 0 0 0 2.55-3.45 6.73 6.73 0 0 0-1.55-6.93c-.82-.88-1.71-1.71-2.56-2.56a7.94 7.94 0 0 0-4.18-2.57 6.82 6.82 0 0 0-6 1.81c-.59.56-1.15 1.15-1.72 1.73l-23.33 23.32-9.9 9.91c-.56.56-1.15 1.11-1.69 1.69a6.8 6.8 0 0 0-1.75 6.28 8.63 8.63 0 0 0 2.66 4l2.42 2.42c2.04 2.03 5.2-1.12 3.17-3.16z" fill="#000000" class="fill-000000"></path><rect height="60.62" rx="4.39" transform="rotate(-45 951.5 391.536)" width="13.49" x="944.76" y="361.22" fill="#000000" class="fill-000000"></rect><path d="m930 373.34 2.26-2.26c.74-.73 1.45-1.71 2.6-1.7s1.72.82 2.42 1.52l8.14 8.15 23.28 23.27 3.33 3.33c.61.61 1.44 1.25 1.61 2.13.23 1.21-.59 1.93-1.36 2.7s-1.65 1.73-2.53 2.53c-1.23 1.11-2.5.63-3.52-.39l-19.33-19.31-11.45-11.45c-1.81-1.81-3.74-3.55-5.45-5.45a2.19 2.19 0 0 1 0-3.07c1.95-2.1-1.2-5.27-3.16-3.15a6.76 6.76 0 0 0 .18 9.53c.8.83 1.63 1.63 2.44 2.45L940.27 393l22.2 22.19a9.62 9.62 0 0 0 3.45 2.56 6.73 6.73 0 0 0 6.93-1.55c.88-.82 1.71-1.71 2.57-2.56a8 8 0 0 0 2.57-4.18 6.8 6.8 0 0 0-1.82-6c-.55-.59-1.15-1.15-1.72-1.72l-23.33-23.33-9.91-9.9c-.56-.57-1.1-1.15-1.68-1.69a6.82 6.82 0 0 0-6.29-1.75 8.6 8.6 0 0 0-4 2.66l-2.42 2.42c-2.03 2.07 1.18 5.23 3.18 3.19z" fill="#000000" class="fill-000000"></path><g fill="#ffffff" class="fill-ffffff"><path d="M415.17 704.35c-3.33-.89-4.12 4-4.44 6.18a24.85 24.85 0 0 0 .58 10.85c.85 2.72 2.67 5.36 5.67 5.84 3.26.52 6.4-1.51 8.08-4.2a10.57 10.57 0 0 0 .57-10 1.45 1.45 0 0 0-2.25-.29c-5.64 4.75-7.43 13.87-2.83 19.95a10 10 0 0 0 9.91 4c3.7-.81 6.39-4.17 8.08-7.34 2-3.73 3.06-8.41.64-12.19a1.38 1.38 0 0 0-2.37 0 14.44 14.44 0 0 0-2.11 9.72 8.82 8.82 0 0 0 5.27 6.5 6.84 6.84 0 0 0 7.39-1.47c2-2 3-4.87 3.44-7.59h-2.25a6.25 6.25 0 0 0 8.9 3.38 1 1 0 0 0-1-1.73 4.14 4.14 0 0 1-5.64-2.27c-.33-1-2-1.2-2.25 0-.7 3.5-2.93 9.24-7.59 7.35-5.25-2.13-4.09-8.64-1.78-12.51h-2.37c2.11 3.43.37 7.63-1.64 10.68s-5.16 5.79-9.08 4.18c-3.55-1.44-5.25-5.53-5.19-9.16a12.72 12.72 0 0 1 4.5-9.43l-2.25-.29a7.8 7.8 0 0 1-.67 7.68c-1.6 2.3-5 3.77-7.26 1.47-2-2.05-2.38-5.49-2.52-8.19a28.33 28.33 0 0 1 .21-5.21c.1-.76.45-4.41 1.8-4.18 1.07.17 1.55-1.37.46-1.66zM379.14 812.33c-6.66-4.72-6.58-14.77-4.14-21.71 2.49-7.1 8.75-14.14 16.9-13.64a7.51 7.51 0 0 1 6 3c1.07 1.69 1.42 4.11.09 5.76l2.17.57c-1-3.77 2.16-7.23 5.51-8.46a12.42 12.42 0 0 1 10.22 1.19 15.57 15.57 0 0 1 6.91 7.96 16.63 16.63 0 0 1-.07 11 20.84 20.84 0 0 1-7.65 10.23l2.14 1.64a2.44 2.44 0 0 1 2.8-1.32c1.49.24 2.47 1.67 3 3a13.55 13.55 0 0 1-.66 9.91 15 15 0 0 1-6.77 7.29c-3.5 1.81-7.6 2.36-11.45 2.84-2.16.27-4.6.53-6.66-.36a4.39 4.39 0 0 1-2.88-4.29l-2.92.79c1.22 2.26-1.4 4.22-3.31 4.72a18.71 18.71 0 0 1-7.23.16 10.91 10.91 0 0 1-6-2.56c-2-1.92-2.37-4.72-2.57-7.34a7.52 7.52 0 0 0-.06-1.67v-.15c-.51-.08-.62 0-.35.12.05-.09.13.2.12.22a2.49 2.49 0 0 1-2.48.54 6.48 6.48 0 0 1-4.42-3.91c-2-4.52 1.13-8.92 5.2-10.85a9.82 9.82 0 0 1 8.09-.39c2.36 1.12 3.94 4.43 1.84 6.57a1.06 1.06 0 0 0 1.49 1.5c2.42-2.35 2-6.39-.25-8.7-2.62-2.67-6.92-3-10.36-2.07-6.89 1.83-11.84 9.18-8.2 16 1.51 2.84 4.63 5.18 8 4.89a4.37 4.37 0 0 0 3.94-2.62 3.33 3.33 0 0 0-1.8-4 2.72 2.72 0 0 0-3.76 2.22 17.07 17.07 0 0 0 .46 6 10.84 10.84 0 0 0 6.76 8.18 21.1 21.1 0 0 0 12.45.84c4-1 7.39-5.19 5.19-9.3-.79-1.48-2.79-.64-2.92.8-.5 5.38 5.25 8.06 9.79 8a49.85 49.85 0 0 0 7.78-1 29.38 29.38 0 0 0 7.51-2.28 18 18 0 0 0 8.9-9.89c1.53-4 1.86-9.25-.52-13a6.38 6.38 0 0 0-5.64-3.18 5.13 5.13 0 0 0-4.83 3.49 1.47 1.47 0 0 0 2.13 1.65c7.37-5.27 12.19-15.19 9.1-24.17-2.77-8.06-12.37-14.55-20.9-11.26-4.58 1.77-8.62 6.56-7.12 11.7a1.32 1.32 0 0 0 2.37.31c2.89-3.84.77-9.4-3.21-11.5-4.27-2.24-9.59-1.35-13.63 1-8 4.59-12.23 14.77-11.61 23.74.35 5.16 2.32 10.27 6.71 13.26.94.64 1.79-.86.88-1.5zM273.39 803.09c-.63-.14-1.25-.27-1.86-.45a.83.83 0 0 0-.93 1.21 13.93 13.93 0 0 0 5.12 5.3c2.08 1.3 4.83 2.48 7.29 1.72a7.08 7.08 0 0 0 4.3-4.49c1.07-2.92.25-6-.28-9l-1.52 1.51c2 .83 3.31 2.6 5.62 2.81a7.45 7.45 0 0 0 5.38-1.87c3.81-3.2 3.43-8.68 2-13l-2.6.72a7.07 7.07 0 0 0 12.59 1.17 11.28 11.28 0 0 0 .82-8.82 34 34 0 0 0-1.88-5c-.63-1.39-1.52-2.3-3.12-2.07-1.2.16-1 2 0 2.26.69.19 1.2 2.17 1.42 2.73a23.82 23.82 0 0 1 1.11 3.41 8.28 8.28 0 0 1-.56 5.75 4.17 4.17 0 0 1-4 2.35 4.44 4.44 0 0 1-3.76-2.55c-.64-1.56-3.17-1-2.6.72 1.12 3.34 1.86 7.89-1.26 10.41a4.53 4.53 0 0 1-4 1c-1.67-.5-2.77-2.05-4.49-2.51a1.24 1.24 0 0 0-1.52 1.51c.69 2.27 1.31 4.85.67 7.2a4.71 4.71 0 0 1-3.45 3.64c-2 .33-4.2-.82-5.81-1.88a18.63 18.63 0 0 1-4.17-4.19l-.58 1.41c.56.07 1.12.19 1.68.29.94.17 1.36-1.24.4-1.46zM244.47 890c2.61-5.64 8.31-12.23 15.33-9.83 3 1 4.95 3.83 5.76 6.79 1 3.78.25 7.76-.73 11.45l1.46-.83c-1.7-.32 1.46-5.49 1.93-6.19A16.79 16.79 0 0 1 274 886c4.5-2.47 10.69-2.14 14.32 1.73 3.06 3.25 3.19 9.14-.26 12.19a12.77 12.77 0 0 1-1.25 1c-.18-.08.1-.87.15-1a11.29 11.29 0 0 1 2.47-3.29c1.82-2 4.11-3.87 7-3.7 3.41.19 4.27 3.41 4.49 6.32.21 2.66-.12 5.86-2.58 7.44l1.94 1.49c.51-1.63 1.06-3.59 2.52-4.63s3.28-.55 4.61.4c3.64 2.59 2.88 7.82 2.38 11.64-.21 1.65 2.39 1.64 2.61 0 .67-5.17.89-11.67-4.53-14.42a6.34 6.34 0 0 0-6.4.11c-2.12 1.39-3 3.88-3.73 6.19a1.33 1.33 0 0 0 1.94 1.49c3-1.92 4-5.42 3.94-8.84s-.95-7.76-4.56-9.25-7.32.06-10 2.49a23.46 23.46 0 0 0-3.83 4.37c-.77 1.19-1.36 2.94-.69 4.3 1.8 3.67 6.19-.66 7.3-2.68a11.72 11.72 0 0 0 .75-9.38c-2.43-6.93-11-9.55-17.49-7.11a19 19 0 0 0-9.25 7.83 14.06 14.06 0 0 0-2.3 5.4c-.19 1.6.32 3.53 2.14 3.85a1.21 1.21 0 0 0 1.46-.83c1.08-4.22 1.83-8.79.5-13a11.79 11.79 0 0 0-6.89-7.77 12.16 12.16 0 0 0-10.76 1.58 21 21 0 0 0-7 9.24c-.42 1 1 1.86 1.47.86zM425.74 909.38c-2-2-1.65-5-.92-7.52s1.74-5.4 3.51-7.32c2.12-2.3 5.43-1.72 7.62.17s3.3 5 4.24 7.81l2.32-.64c-3.57-8.56 4.49-16 11.25-19.74 2.09-1.16 3.66-.77 5 1.16a21.06 21.06 0 0 1 2.67 5.65 27.73 27.73 0 0 1 1.1 12.82l2.73.37c.31-4.53 5.71-8.18 10-6.34a7.7 7.7 0 0 1 3.23 10.84l2.43 1.42c1.18-2.69 4.27-8 7.5-4.34 2.77 3.17 2.44 8.08.53 11.58a1.14 1.14 0 0 0 2 1.15c3.26-4.27 3-11.5-1.09-15.22a5.54 5.54 0 0 0-6.87-.6 13.4 13.4 0 0 0-4.47 6 1.41 1.41 0 0 0 2.43 1.42 10.51 10.51 0 0 0-4.89-14.95c-6.13-2.37-13.13 2.7-13.55 9-.1 1.53 2.49 1.92 2.73.37a30.91 30.91 0 0 0-.53-12.23c-.89-3.49-2.4-7.86-5.27-10.22-3.44-2.84-7.17-.28-10.2 1.84a25.58 25.58 0 0 0-8.15 8.44 14 14 0 0 0-.79 12.46c.56 1.23 2.68.36 2.2-.92-1.29-3.45-2.68-7.16-5.81-9.37-2.8-2-6.67-2.33-9.33.07a11.86 11.86 0 0 0-2.68 4.09 30.34 30.34 0 0 0-1.82 5c-.76 3.09-.79 6.53 1.65 8.89a.86.86 0 0 0 1.22-1.22zM567.12 820.37a24.91 24.91 0 0 0-22.61 17.83 23.2 23.2 0 0 0 .45 14.95 11.74 11.74 0 0 0 4.29 5.51 10.74 10.74 0 0 0 7.69 1.27 17.68 17.68 0 0 0 12.82-9.8 1.32 1.32 0 0 0-.46-1.76c-4.62-2.66-8.16 3.31-9 7-1.16 5-.46 10.6 3.69 14.05s9.68 4 14.8 2.84c4.88-1.07 10-3.36 13.59-6.94a13 13 0 0 0 3.8-12.17 9.75 9.75 0 0 0-3.07-5.2c-1.51-1.27-3.78-2.28-5.71-1.33-2.56 1.28-1.64 4.35-.78 6.44a16.69 16.69 0 0 0 3.83 5.66 13.57 13.57 0 0 0 12.71 3.52 12.13 12.13 0 0 0 9-9.84 33 33 0 0 0 .35-7.75 19.2 19.2 0 0 0-1.79-8c-2.11-4.09-7.43-7-11.61-4a6 6 0 0 0-2.65 5.81c.51 2.76 3 2.83 5.29 2.24a12.72 12.72 0 0 0 8.92-9.84 16.72 16.72 0 0 0-4.43-14.16c-3.22-3.45-8.51-5.92-13.23-4.22-3.85 1.4-6.83 5.54-6.18 9.72.33 2.12 1.72 4.37 3.93 4.89a5.26 5.26 0 0 0 5.45-2.57c2.92-4.65-1.88-9.68-5.83-11.62a17.29 17.29 0 0 0-14.3-.46c-4.12 1.77-8.08 6-6.44 10.84a6.17 6.17 0 0 0 4.25 4.12 1.4 1.4 0 0 0 1.35-2.33 4.31 4.31 0 0 0-6.88.8c-.82 1.5 1.47 2.84 2.29 1.34a1.58 1.58 0 0 1 2.63-.17l1.35-2.33a3.62 3.62 0 0 1-2.45-3.14 5.26 5.26 0 0 1 1.67-4.24c2.49-2.57 6.32-3.54 9.8-3.33s7.23 1.74 9.37 4.54c1 1.35 1.74 3.32.54 4.79a2 2 0 0 1-3.5-.3c-1.38-2.58.38-5.81 2.63-7.23 3-1.91 6.8-.82 9.5 1.1 5.9 4.18 8.34 13.63 2.6 19a8.81 8.81 0 0 1-4.48 2.27c-.86.14-1.21.14-1.1-.85a3.39 3.39 0 0 1 1.2-2.08c2.9-2.53 6.6.25 8 3 1.69 3.45 1.61 8 1.29 11.8s-1.77 7-5.17 8.77c-6.51 3.31-13.63-1.43-15.68-7.84-.19-.6-.69-1.63.07-1.89s1.57.36 2.06.71a6.49 6.49 0 0 1 2.36 3.36 9.63 9.63 0 0 1-1.53 8.67c-2.11 2.92-5.43 4.86-8.71 6.2-3.81 1.57-8.16 2.71-12.28 1.78-3.55-.8-6.79-3.07-7.88-6.68-1-3.34-.57-8 1.51-10.87.8-1.11 2.19-2.49 3.63-1.67l-.47-1.77a15.37 15.37 0 0 1-9.16 8.18 10 10 0 0 1-7 0 8.65 8.65 0 0 1-4-4.43c-3.81-8.25-.49-18.9 6.08-24.72a23 23 0 0 1 13.76-5.78c1.09-.07 1.1-1.76 0-1.7zM495.84 780.07c-3 3.08-3.73 8.49 0 11.37a5.29 5.29 0 0 0 5.54.72 5.07 5.07 0 0 0 3-4.72 1.15 1.15 0 0 0-1.71-1c-4.32 3 2 8.81 4.71 10.34a6.78 6.78 0 0 0 6.64.35 10.22 10.22 0 0 0 4.64-5.39 1.12 1.12 0 0 0-1.86-1.08c-1.18 1.08-1.77 2.67-3 3.72a4.2 4.2 0 0 1-4.54.65 13.18 13.18 0 0 1-4.08-3.23c-.5-.53-2.34-2.68-1.34-3.39l-1.71-1a2.89 2.89 0 0 1-2 2.88 3.39 3.39 0 0 1-3.59-1.12c-2.25-2.47-1-5.76.71-8.08.6-.8-.68-1.73-1.35-1zM663.65 907.53c-1.84-.26-1.32-3.46-1.14-4.71a21.06 21.06 0 0 1 1.48-5.28c1.41-3.24 3.94-6.36 7.44-7.4a10 10 0 0 1 8.83 1.58 6.7 6.7 0 0 1 2.38 3.5c.3 1.18.1 3.62-1.55 3.6l1.11.64c-1.47-3.43.41-7.23 3-9.56a20.27 20.27 0 0 1 4.74-3.07c1.58-.78 3.6-1.92 5.37-1.12 3 1.38 4.11 6 4.25 8.95a16.1 16.1 0 0 1-3 10.16l2.49.33a13.06 13.06 0 0 1 .23-9.47 8.09 8.09 0 0 1 6.8-4.76 6 6 0 0 1 6.4 4.26c.87 3-.05 6.29-1.47 9l2.64.71c.18-1.61 1.84-2.67 3.33-2.91a4.56 4.56 0 0 1 4.56 2.42c2.56 4.31-.19 9-3.14 12.31h2.06a3.3 3.3 0 0 1-1.29-2.11c-.21-1.55-2.54-1.67-2.51 0a5.83 5.83 0 0 0 1.74 4.17 1.47 1.47 0 0 0 2.06 0c4.33-4.53 7.29-11.83 2.56-17.21-3.74-4.26-11.53-2.63-12.2 3.33-.17 1.42 2 1.9 2.63.72 2.71-5.09 3.64-13.09-2.34-16.34-5.56-3-12.32.37-14.56 5.9a15.76 15.76 0 0 0-.13 10.75 1.39 1.39 0 0 0 2.5.33c4-5.61 4.75-14.21.71-20a8 8 0 0 0-3.62-3 7.23 7.23 0 0 0-5.41.5c-3.32 1.41-6.63 3.28-8.89 6.17a10.72 10.72 0 0 0-1.69 11 1.24 1.24 0 0 0 1.1.63c4 0 4.82-4.88 3.61-7.81a10.48 10.48 0 0 0-7.53-5.9c-7.81-1.74-14.12 4.2-16.06 11.39-.7 2.58-2.24 10.13 2.32 10.14.92 0 1.2-1.53.22-1.67zM715.05 768.86a13 13 0 0 0-10.28 4.66c-3 3.36-4.34 7.75-5.09 12.1-1.19 6.81-2.24 17.52 6.22 20.06 3.27 1 7.32.16 8.88-3.16.59-1.26-.94-2.67-2-1.56-3.06 3.13-3.08 8-1 11.69 2.3 4.2 7.07 6.13 11.63 6.62 8.63.93 20-3.12 21.16-12.91.52-4.4-1.31-9.25-5.47-11.26a1.48 1.48 0 0 0-2 .52c-2.75 5.16 1.08 10.57 6 12.33 4.8 1.71 10.43.89 14.87-1.43A16.26 16.26 0 0 0 766.7 795c1-5.9-1.35-11.77-4.51-16.65-2.65-4.1-7-9.6-12.48-9.24-5.12.34-7.18 5.76-5.15 10 2.24 4.74 8.31 5.16 12.41 2.65 4.89-3 6.34-9.17 6-14.56a28.66 28.66 0 0 0-5.82-15.63c-1.63-2.11-3.58-4.36-6.16-5.28-2.8-1-5.87.18-8.32 1.57-4.68 2.65-8.24 7.56-7.6 13.13.26 2.3 1.37 5.74 3.77 6.66 2.74 1 4.41-2 4.8-4.21a12.86 12.86 0 0 0-5.4-12.44c-4.2-3-10-2.66-14.33-.22a15.67 15.67 0 0 0-7.73 13.06c-.24 4.84 1.4 10.94 6.38 12.85a4.44 4.44 0 0 0 5.75-2 6.81 6.81 0 0 0-1-6.77 9.51 9.51 0 0 0-11.46-2.92c-4.36 2.16-5.26 7.54-4 11.82a17.33 17.33 0 0 0 3.48 6.35c1.66 1.94 4.07 3.88 6.78 3.64a4.32 4.32 0 0 0 4-5c-.28-1.66-2.81-.95-2.54.7.14.83-1 1.43-1.66 1.47a4.54 4.54 0 0 1-3-1.38 13.65 13.65 0 0 1-3.29-4.22c-1.44-2.81-2.19-6.74 0-9.4 1.9-2.35 5.29-2.31 7.71-.81a5.25 5.25 0 0 1 2.4 3.12c.41 1.7-.38 3.32-2.24 2.52-3.54-1.53-4.37-6.36-4.24-9.76a12.71 12.71 0 0 1 5.17-10 11.3 11.3 0 0 1 10.48-1.48 10 10 0 0 1 5.89 7.83c.08.66 0 4.57-1 4.35-.46-.1-1.13-1.79-1.28-2.22a8.31 8.31 0 0 1-.48-2.84c0-4.18 3-7.51 6.51-9.41 1.85-1 4.15-1.92 6.15-.83a14.52 14.52 0 0 1 4.33 4.29 26 26 0 0 1 4.78 11.85c.5 3.88.23 8.43-2.26 11.64-2 2.57-6.6 4.45-9.33 1.84-2-1.95-2.09-6.35 1.25-6.92 3.79-.65 7.26 3.6 9.15 6.29 4.66 6.6 8.23 16.19 1.6 22.79a16.47 16.47 0 0 1-9.73 4.56c-3.64.41-8.46-.22-10.55-3.64a5.17 5.17 0 0 1-.38-5.06l-2 .52a7.83 7.83 0 0 1 4.15 7.36 10.34 10.34 0 0 1-4.73 8.43 19.91 19.91 0 0 1-11 3.2c-3.73 0-7.82-.77-10.57-3.46s-3.63-7.46-.87-10.35l-2-1.56c-1 2.27-3.62 2.72-5.86 2.11-3-.8-4.59-3.38-5.21-6.29-.73-3.38-.25-7 .27-10.4a26 26 0 0 1 3.57-10.52c2.15-3.25 5.73-5.67 9.72-5.53 1.11 0 1.1-1.66 0-1.73zM675.25 714.35c2 3.2 5.74 4.66 8.93 2.08 3.41-2.76 3.06-7.42 2-11.24-.4-1.48-2.45-.82-2.24.62a8.43 8.43 0 0 0 13.47 5.28 9.36 9.36 0 0 0 3.33-7.75 12.94 12.94 0 0 0-4.14-8.49c-1.18-1.15-3 .67-1.81 1.81 3.24 3.1 5.2 8.72 1.42 12.28a6.08 6.08 0 0 1-6.22 1.2 6.28 6.28 0 0 1-3.81-4.95l-2.24.62c.81 2.7 1.49 6.05-.47 8.44a4.05 4.05 0 0 1-3.23 1.63 5 5 0 0 1-3.57-2.37c-.62-.86-2-.08-1.45.84zM678.91 696.52l.56.55a.61.61 0 0 0 .3.2.73.73 0 0 0 .36.08.8.8 0 0 0 .37-.08.72.72 0 0 0 .3-.2l.15-.19a.94.94 0 0 0 .12-.47v-.25a.89.89 0 0 0-.24-.42l-.55-.55a.79.79 0 0 0-.31-.2.85.85 0 0 0-.72 0 .79.79 0 0 0-.31.2l-.14.19a.88.88 0 0 0-.13.47v.26a1.14 1.14 0 0 0 .24.41zM818.37 912a19.79 19.79 0 0 1-.2-9.73c.65-2.67 2.08-6.4 4.77-7.64s5.59 1 6.93 3.26c1.75 2.9 2.15 6.43 3.39 9.54.6 1.5 3 .9 2.46-.67-1.28-3.67-.7-7.51.74-11 1.31-3.21 3.33-6.75 6.37-8.61s6.28-.61 7.79 2.54c1.76 3.69.31 8-.92 11.6l2.17-.88c-2.92-1.31-.5-6.31.5-8.23 1.5-2.88 4.1-6.38 7.81-5.9 3.47.45 5.78 4.22 6.1 7.44.46 4.57-1.88 9-3.91 12.9l2.82.76c.45-3.53 3.1-8.29 7.41-7 2.09.61 2.9 2.81 3.33 4.74a15.26 15.26 0 0 1-.35 7.26l2.36-.62-2-1.91a1.29 1.29 0 0 0-1.83 1.82l1.83 2.08a1.42 1.42 0 0 0 2.36-.62c1.77-5 1.12-14.3-5.25-15.69a8.34 8.34 0 0 0-7.39 2.14 12.68 12.68 0 0 0-3.49 7.83c-.19 1.51 2.16 2 2.81.77 2-4 4.14-8.19 4.33-12.77a12.38 12.38 0 0 0-4.31-10.14 8.52 8.52 0 0 0-9.86-.79c-3.15 1.89-5.08 5.31-6.44 8.61-1.27 3.06-2.07 8.13 1.69 9.81a1.49 1.49 0 0 0 2.16-.88c1.24-3.69 2.46-7.76 1.42-11.66a9.38 9.38 0 0 0-6-6.73c-7.1-2.13-12.21 6.29-14.25 11.77a17.54 17.54 0 0 0-.48 12l2.46-.67c-1.52-3.73-2-8-4.56-11.26-2-2.54-5.52-4.43-8.78-3.15s-5.21 5.26-6.12 8.53a18.43 18.43 0 0 0 .43 11.58.87.87 0 0 0 1.68-.46zM842 790.55c.05-1.24-1.24-1.56-2.2-1.11-1.42.67-2.08 2.72-2.71 4-1.58 3.31-2.87 7-2.24 10.71s3.48 6.47 6.63 8.31c2.82 1.65 6.85 2.7 9.54.24 2.29-2.09 2.71-5.85.1-7.82a1.27 1.27 0 0 0-1.86.75c-1.49 5.9.35 13.26 5.53 16.87a5.84 5.84 0 0 0 7.95-1c2.37-2.78 2.16-6.44 1.75-9.84l-2.72.37c1.31 4.36 3.08 9.64 7.76 11.39 3.37 1.26 8.57.29 9.38-3.78.25-1.31-1.63-2.32-2.3-1a4.87 4.87 0 0 1-6.65 1.87c-3.33-1.63-4.53-6-5.52-9.25-.43-1.42-2.92-1.24-2.72.37.31 2.46.78 5.41-.7 7.6s-4 2-5.81.16a14 14 0 0 1-3.5-13.07l-1.87.75c1.84 1.37-.35 4.19-1.92 4.55-3 .67-6.33-1.6-8.4-3.56a8.87 8.87 0 0 1-2.41-8.55 23.3 23.3 0 0 1 1.52-4.66c.2-.45 1.61-4 2.18-3.8l-.53-.41v-.12a.86.86 0 0 0 1.72 0z"></path></g><circle cx="191.03" cy="404.01" r="39.09" fill="#000000" class="fill-000000"></circle><path d="M227.89 404a36.7 36.7 0 1 1-.41-5.62 37.76 37.76 0 0 1 .41 5.62c0 2.87 4.47 2.87 4.46 0a41.43 41.43 0 1 0-.52 6.46 43.63 43.63 0 0 0 .52-6.46c.01-2.87-4.45-2.87-4.46 0z" fill="#000000" class="fill-000000"></path><path d="M170.56 397.85h40.93v12.32h-40.93z" fill="#ffffff" class="fill-ffffff"></path><path d="M240.08 204.38a.86.86 0 0 0 0-1.72.86.86 0 0 0 0 1.72zM187.08 199.13c9.08-1.79 17.23 4.9 21.2 12.5a55.53 55.53 0 0 1 4.58 13.59c1.14 5.07 2.09 10.2 3 15.32a210.94 210.94 0 0 1 3.77 32.46q.1 4 0 8a36.39 36.39 0 0 1-.57 7.38 2.61 2.61 0 0 1-4.15 1.73c-1.82-1-2.76-3.33-3.44-5.2a32.63 32.63 0 0 1-1.58-16.81c.68-3.95 2.74-13.52 8.5-12.42 1.59.31 2.28-2.13.67-2.44-5.9-1.16-9 4.67-10.38 9.42a41.15 41.15 0 0 0-1.22 16.74c.6 4.64 1.64 11.58 6.48 13.76a6 6 0 0 0 6.43-.72c1.89-1.72 2.06-4.44 2.24-6.82 1-12.47-.11-25-2-37.3q-1.47-9.41-3.51-18.72a81.54 81.54 0 0 0-4.58-15.54A30.15 30.15 0 0 0 202 200.85a19.56 19.56 0 0 0-15.32-3.27c-1 .24-.58 1.75.42 1.55zM174.39 213.06a13.43 13.43 0 0 1 5.14-9.75.82.82 0 1 0-1-1.3 15.1 15.1 0 0 0-5.74 11.05c-.06 1 1.55 1 1.6 0zM183.22 200.64a.87.87 0 0 0 0-1.74.87.87 0 0 0 0 1.74z" fill="#000000" class="fill-000000"></path><path d="M198.38 231.27c4.79-4.26 11.82-1.81 14.53 3.51 1.5 2.94 2 6.46 2.81 9.63.45 1.72.93 3.44 1.4 5.15a31.84 31.84 0 0 0 1.52 4.89 1 1 0 0 0 1.84-.5 36.33 36.33 0 0 0-1.25-6c-.49-2-1-4.09-1.51-6.13-.91-3.49-1.56-7.32-3.87-10.21-4.07-5.11-11.76-6.19-16.59-1.48-.73.72.37 1.79 1.12 1.12zM218.26 255.16c-2.38-.51-4.83 1-6.17 3a17.13 17.13 0 0 0-2.21 6.89 54 54 0 0 0-.94 13 22.15 22.15 0 0 0 4.36 12.11c.87 1.09 2.19 2.16 3.52 1.73a3.61 3.61 0 0 0 2-2.48c2.6-7.35 1.38-15.42 1.39-23.21 0-3.85.15-8.17-2.5-10.95" fill="#000000" class="fill-000000"></path><path d="M218.47 254.39a7 7 0 0 0-6.71 2.43c-1.87 2.23-2.51 5.14-3 7.93-1.11 6.38-1.84 13.13.12 19.42a18.28 18.28 0 0 0 4.08 7.42c1.93 2 4.8 2.21 6.31-.35s1.84-5.71 2.12-8.48a72.24 72.24 0 0 0 .11-9.87c-.13-3.43-.06-6.88-.23-10.31-.14-2.88-.68-6-2.83-8.12-1-1-2.46.48-1.57 1.57 2.93 3.62 2.07 8.82 2.18 13.16.13 5.3.61 10.7-.38 15.95-.25 1.32-.89 6.28-3 5.5-1-.38-1.85-1.74-2.42-2.63a18.68 18.68 0 0 1-1.72-3.47c-1.84-5-1.71-10.42-1.05-15.65a35.35 35.35 0 0 1 1.7-8.54c1-2.47 3.24-4.77 6.09-4.4.88.11 1.07-1.37.21-1.56z" fill="#000000" class="fill-000000"></path></svg>