<svg viewBox="0 0 1000 1000" xmlns="http://www.w3.org/2000/svg"><path d="M680.42 364.16c3.52 10.3-5.45 20.3-13.59 27.52L577.33 471c-16.44 14.57-33.2 29.54-43.81 48.78-17.58 31.84-15.71 71.55-3.47 105.8s33.84 64.24 55.15 93.72c20.65 28.56 41.48 57.33 67.21 81.42C671 818.17 694.1 837.59 691.63 863c-.7 7.23-3.56 14.2-3.56 21.47s4.37 15.49 11.61 16c4.59.35 8.76-2.44 12.49-5.13q22.32-16.1 43.57-33.6c3.48-2.87 7-5.88 9-9.93 4.89-9.94-1.21-21.48-6.59-31.17-42.93-77.41-46.12-170-71.87-254.7-1.5-5-3.31-10.2-7.44-13.31l23.37-26.89" fill="#ffffff" class="fill-ffffff"></path><path d="M673.3 494.28A222.42 222.42 0 0 0 634 555a1.37 1.37 0 0 0 .2 1.6 6.47 6.47 0 0 0 8.34.09l-2.23-1.29c-2.27 5.47-2.24 12-2.06 17.84a110.92 110.92 0 0 0 2.75 21.84 56.75 56.75 0 0 0 2.8 8.92c1.55 3.72 3.85 7.12 5.78 10.64q7.71 14 14 28.76c8 18.82 14.34 38.33 20.07 58s10.87 39.14 16.85 58.56a464.1 464.1 0 0 0 22.08 58.86c1.16 2.5 2.36 5 3.62 7.43.72 1.42 2.78.18 2.11-1.23a470.71 470.71 0 0 1-23.17-59c-6.09-19.13-11.25-38.52-16.75-57.82S677 669.64 669.55 651c-3.81-9.6-8-19.05-12.65-28.27q-3.67-7.29-7.74-14.38a43.7 43.7 0 0 1-3.88-8.21 94.88 94.88 0 0 1-3.95-20.66c-.6-6.52-1-13.44.45-19.89a20.69 20.69 0 0 1 1.05-3.44c.57-1.39-1.33-2-2.23-1.3a3.71 3.71 0 0 1-4.58-.08l.21 1.6a227.77 227.77 0 0 1 38.47-60.63c.85-1-.54-2.36-1.4-1.41z" fill="#32a16b" class="fill-18c4ff"></path><path d="M679.46 364.42c2.59 8.8-3.59 16.66-9.48 22.51-6.73 6.7-14.24 12.68-21.35 19l-45.22 40c-14.22 12.57-28.75 24.87-42.54 37.92-12.3 11.64-23.88 24.53-31.27 39.92-14.54 30.24-13 65.94-2.91 97.27 11 34.18 31.76 64.12 52.57 93 21.37 29.66 42.69 59.83 69.13 85.28 11.2 10.79 23.53 20.82 32.43 33.71 4.2 6.07 7.54 12.79 8.81 20.11 1.54 8.85-1.37 16.9-2.71 25.54-1.06 6.85-.37 14.17 4.55 19.48s12 4.73 17.91 1.18c8.14-4.91 15.68-11.24 23.21-17s15-11.65 22.32-17.66c6.13-5 12.31-10.14 13.19-18.54.86-8.12-3-16.06-6.73-23a373.61 373.61 0 0 1-21.93-47.69c-12.07-32.8-19.6-67-26.57-101.19-7-34.43-13.47-69-23.31-102.82-2-6.91-3.68-15.06-9.58-19.79v2.22c7.79-9 15.49-18 23.28-27 1.21-1.4-.82-3.45-2-2-7.79 9-15.67 17.84-23.46 26.8a1.58 1.58 0 0 0 0 2.22c6.26 5 7.7 14.66 9.78 22Q691 588.06 694 600.5c4 16.65 7.49 33.43 10.88 50.22 6.77 33.57 13.19 67.29 23 100.14a393.23 393.23 0 0 0 17.16 47.06q5.16 11.61 11.26 22.76c4 7.32 9 15.42 8.57 24.09-.41 9.14-8.7 14.53-15.14 19.75q-11.52 9.36-23.37 18.31-5.6 4.21-11.26 8.35c-3.5 2.56-7.12 5.69-11.29 7.08-8.08 2.68-13.45-5.22-14-12.4-.69-8.66 3.46-17 3.68-25.64a43.9 43.9 0 0 0-4.33-19.57c-6.16-13.36-17.24-24-27.81-33.89a428.69 428.69 0 0 1-35.81-37.15c-11.66-13.91-22.46-28.52-33.12-43.21-20.67-28.49-42.19-57.12-56.16-89.66-13.11-30.55-19-65.83-8.88-98.15 10.63-34 39.88-56.46 65.46-79.21l43.88-39q11-9.75 21.92-19.53c6.32-5.66 13.23-11.06 18.29-17.93 4.08-5.53 6.7-12.18 4.47-19-.4-1.21-2.28-.71-1.92.52z" fill="#000000" class="fill-000000"></path><path d="M730.28 517.32c-20.41 127.21 11.29 256.93 52.32 379.06 5.13 15.28 10.29 32.63 2.73 46.86-3.82 7.19-10.89 14.33-8.34 22.06 2.39 7.26 11.59 9.26 19.22 9.56a173.09 173.09 0 0 0 56.37-7.1c3.94-1.17 8-2.61 10.76-5.68 3.77-4.24 4-10.45 4.13-16.13q1.63-117.68 3.28-235.34c.23-15.94.44-32-2-47.73-3.82-25-14.18-48.85-15.55-74.08-.9-16.74 2.19-33.39 4.6-50a617.74 617.74 0 0 0 6.28-76.36c.74-36.75-2.29-75.17-21.16-106.72" fill="#ffffff" class="fill-ffffff"></path><path d="M825.21 454.9c1.8 30.59-4.76 60.69-9.22 90.77-2.19 14.77-3.91 29.65-3.84 44.6a224.23 224.23 0 0 0 5.08 44c6.17 30 15.72 59.2 20.25 89.57 4.67 31.3 5.63 63 6 94.61.41 31.83.51 63.67.9 95.5l.15 12.16a1.17 1.17 0 0 0 2.34 0q-.24-48.1-.73-96.2c-.28-31.28-.81-62.63-4.52-93.72a407.4 407.4 0 0 0-8-45.34c-3.5-14.82-7.62-29.48-11.14-44.29s-6.51-30-7.52-45.31c-1-15.1 0-30.24 1.92-45.23 3.72-29.88 10.69-59.49 10.67-89.73q0-5.71-.36-11.42c-.08-1.27-2.06-1.28-2 0z" fill="#32a16b" class="fill-18c4ff"></path><path d="M729.34 517.06a537.19 537.19 0 0 0-5.8 116.32c2.12 38.87 7.81 77.53 15.87 115.6 8.22 38.82 18.91 77.09 30.85 114.92q4.41 14 9.07 27.92c2.93 8.77 6.1 17.55 7.51 26.73s.55 18.28-4.36 26.35c-3.67 6-9.33 12.82-7.2 20.39 1.74 6.14 7.77 9.15 13.59 10.35 8.21 1.69 17.09 1.16 25.38.62a177.2 177.2 0 0 0 28.63-4.26c7.32-1.72 17.21-3.24 22.19-9.53s4-15.77 4.1-23.31q.21-15.4.43-30.81l.88-62.22 1.76-124.46c.28-19.73 1.13-39.66-1.86-59.25-2.88-18.88-9.45-36.94-13.12-55.65a126.35 126.35 0 0 1-2.38-29.93c.45-10.23 2-20.37 3.52-30.48 3-20 5.3-40 6.49-60.21 2.12-36.05 2.63-74.1-9.76-108.55a133.22 133.22 0 0 0-10.67-22.75c-1.14-1.93-4.16-.18-3 1.75 18.08 30.54 21.41 66.81 21 101.6-.22 19.66-1.45 39.32-3.57 58.87s-6.31 38.94-7.32 58.58c-1 18.71 3.11 36.6 7.92 54.55 2.45 9.12 5 18.24 6.72 27.53a181.1 181.1 0 0 1 2.88 28.93c.56 19.86-.21 39.8-.48 59.66q-.42 30.18-.83 60.38-.84 60.38-1.67 120.75-.11 7.08-.2 14.17c-.06 4.43.17 9.07-.89 13.41-2.4 9.85-13.39 11.54-21.88 13.58a171.39 171.39 0 0 1-28.3 4.39c-8.51.58-17.94 1.33-26.31-.74-2.94-.73-6-1.92-8.1-4.22-3.22-3.57-2.6-8.25-.67-12.27 1.68-3.52 4.08-6.66 6-10a34.75 34.75 0 0 0 4.41-11.77c2.88-16.74-4.55-33.63-9.67-49.19-12-36.55-23.11-73.44-32.14-110.86-17.94-74.36-28-151.21-20.73-227.69q1.38-14.4 3.59-28.69c.19-1.23-1.68-1.77-1.88-.52zM695.8 251.61A302.52 302.52 0 0 1 594 321.36c-13.25 5.51-27.16 10.13-41.52 10.44s-29.31-4.2-39.17-14.63c-5.49-5.8-9.14-13.11-11.91-20.59-9.59-25.92-9.27-54.74-3.16-81.69S516 162.58 528.7 138c7.81-15.1 16.85-30.78 31.86-38.76 4.78-2.54 10.16-4.29 14-8.13 1.8-1.81 3.19-4 5.22-5.58 4.45-3.38 10.75-2.73 16.09-1.07a53.68 53.68 0 0 1 16.27 8.36c1.9 1.43 3.82 3.18 4.26 5.52.36 1.9-.33 3.81-.51 5.73-.23 2.53.41 5 .79 7.54 2.25 15-5.06 29.61-10.34 43.87a172.71 172.71 0 0 0-10.67 60.54 317 317 0 0 1 66.42-40.87c10-4.55 20.65-8.66 31.55-7.61s21.89 8.8 23.09 19.68" fill="#000000" class="fill-000000"></path><path d="M695.11 250.92a300.82 300.82 0 0 1-46 38.89 303 303 0 0 1-52.72 28.91c-18.75 8-39.79 14.88-60.22 9.56-8.93-2.28-17.17-6.95-23.17-14.06-6.56-7.79-10.28-17.85-12.94-27.56-5.65-20.64-5.54-42.58-1.73-63.54 3.89-21.38 11.57-41.9 20.68-61.57 4.42-9.53 9.1-19 14.1-28.21 4.39-8.11 9.25-16.12 15.65-22.82a51.45 51.45 0 0 1 10.33-8.45c4.08-2.49 8.66-4 12.7-6.61a23.76 23.76 0 0 0 5.33-4.62c1.55-1.81 3-3.73 5.15-4.84 4-2.07 9.06-1.16 13.18.12a51.87 51.87 0 0 1 13.91 6.78c1.8 1.23 3.94 2.61 5 4.6 1.21 2.31-.12 5.11-.16 7.56 0 2.75.74 5.44 1 8.16a41.9 41.9 0 0 1 .07 7.76 66.32 66.32 0 0 1-3.52 15.48c-3.46 10.33-8 20.23-11 30.72a175.44 175.44 0 0 0-6.08 32.62c-.49 5.41-.71 10.83-.69 16.26a1.7 1.7 0 0 0 2.87 1.19 316.7 316.7 0 0 1 48.26-31.79A221.11 221.11 0 0 1 671.54 173c8.56-3.21 18.21-5.44 27.22-2.7 7.63 2.33 15.35 8.55 16.36 16.94a1.64 1.64 0 0 0 1.59 1.59 1.59 1.59 0 0 0 1.59-1.59 21.15 21.15 0 0 0-4.49-10.91 27.37 27.37 0 0 0-9.25-7.32c-8.57-4.24-18.24-3.91-27.29-1.43-9.91 2.71-19.34 7.47-28.46 12.13s-17.89 9.68-26.46 15.15a324.55 324.55 0 0 0-27.89 20l2.87 1.19a171.14 171.14 0 0 1 3.3-34.24 192.28 192.28 0 0 1 9.84-32.44c3.95-10.09 8.15-20.5 8.28-31.5a45.57 45.57 0 0 0-.75-8.32 27.23 27.23 0 0 1-.5-4 28.22 28.22 0 0 1 .51-4.29 8.53 8.53 0 0 0-1.91-7 25.25 25.25 0 0 0-5.63-4.6 54.59 54.59 0 0 0-14.17-6.75c-4.47-1.39-9.65-2.18-14.15-.49a14.69 14.69 0 0 0-5.87 4.22 31.62 31.62 0 0 1-5 5.16c-4 2.85-8.67 4.39-12.88 6.81-17 9.78-26.1 28.6-34.59 45.41-10.1 20-19.28 40.66-25.13 62.36-5.71 21.2-8.1 43.47-5.11 65.3a115.56 115.56 0 0 0 8.64 31.32c4.11 9.2 10.19 17.25 18.86 22.56 18 11 40.25 9 59.47 2.57a241.8 241.8 0 0 0 29.55-12.39 297.69 297.69 0 0 0 27-15A304.91 304.91 0 0 0 685.82 263q5.48-5.21 10.67-10.69c.87-.91-.5-2.29-1.38-1.38z" fill="#000000" class="fill-000000"></path><path d="M854.69 231.8c-2.3-21.36-8.79-44.32-21.9-61.68-16.26-21.54-41.69-26.64-67.22-22.82s-52.42 10.7-73.68 25.85c-21.46 15.35-33.23 41-37.12 66.55-4.26 27.94-.22 56.4 3.82 84.37q1.59 11.07 3.19 22.14c.5 3.5 1 7.07 2.61 10.23 3.28 6.54 10.42 10.15 17.36 12.47 20.37 6.82 42.37 6.33 63.83 5.37 15-.67 30.08-1.54 44.83-4.42 20.4-4 41.45-13 52-30.88 6.36-10.79 8.18-23.58 9.69-36 2.9-23.63 5.13-47.52 2.59-71.18z" fill="#000000" class="fill-000000"></path><path d="M857.3 231.8c-2.49-22.89-9.09-46.51-23.64-64.79a60.88 60.88 0 0 0-25-18.48 76.33 76.33 0 0 0-30.15-5c-11.24.26-22.54 2.44-33.49 4.87a179.09 179.09 0 0 0-34.05 11c-10.49 4.6-20.57 10.6-28.91 18.48a91.65 91.65 0 0 0-19 26.16c-10.75 21.87-13.54 46.4-12.53 70.5.58 13.65 2.28 27.23 4.17 40.75.95 6.77 1.94 13.53 2.92 20.3.49 3.44 1 6.89 1.49 10.33a47.36 47.36 0 0 0 1.82 9c3.91 11.24 16 15.69 26.54 18.43 12.48 3.24 25.47 4.13 38.32 4.11 13.12 0 26.31-.65 39.39-1.69 12.43-1 25-2.54 37-6 10.09-2.95 20-7.26 28.32-13.69a55.73 55.73 0 0 0 19.09-26.62c4-11.89 5-24.78 6.4-37.2a347.44 347.44 0 0 0 2.43-40.78c-.06-6.55-.41-13.1-1.1-19.62a2.69 2.69 0 0 0-2.61-2.61 2.63 2.63 0 0 0-2.62 2.61 234.88 234.88 0 0 1 .51 39.78c-.82 12.86-2.16 25.77-4 38.52-1.63 11.16-4.29 22.37-11.06 31.61-5.84 8-14.23 13.74-23.08 17.9-9.59 4.5-20 7.07-30.42 8.75-12.7 2.05-25.58 2.74-38.41 3.31-12.54.56-25.12 1-37.64-.15a118.28 118.28 0 0 1-18-2.94c-5.34-1.32-10.77-2.92-15.54-5.69-4.31-2.51-7.58-6-8.93-10.85a73.67 73.67 0 0 1-1.58-9l-1.42-9.84c-1.89-13.1-3.89-26.2-5.28-39.36-2.56-24.26-3-49.31 4.56-72.78a101.15 101.15 0 0 1 13.82-27.91 80.51 80.51 0 0 1 22.84-21.29c19.28-12.1 41.83-17.91 64.09-21.49 9.92-1.59 20.05-2.34 30-.79a60.8 60.8 0 0 1 26.54 10.59c8.52 6.18 14.72 14.94 19.52 24.19a124.34 124.34 0 0 1 11 31.81q1.62 7.74 2.47 15.61a2.7 2.7 0 0 0 2.62 2.62 2.63 2.63 0 0 0 2.6-2.66z" fill="#000000" class="fill-000000"></path><g fill="#32a16b" class="fill-18c4ff"><path d="M674 184.26c-3.81.65-6.32 4.74-8.4 7.65a75.8 75.8 0 0 0-13.43 34.26 63.56 63.56 0 0 0-.45 14.19c.17 1.78 2.86 1.86 2.83 0a86.26 86.26 0 0 1 2.33-23 78.19 78.19 0 0 1 9.1-21.56c1.13-1.84 2.35-3.63 3.63-5.37s2.65-3.76 4.91-4.27c1.22-.27.69-2.06-.52-1.86zM620.32 560.88c-10-10-21.2-18.81-32.64-27.12a191.18 191.18 0 0 0-25.82-15.83c-7.88-4-16.06-7.34-24.2-10.75q-6.85-2.87-13.92-5.19a194.06 194.06 0 0 0-28.61-7.07c-23.3-3.91-46.56-5.73-70.05-2.65-13.77 1.8-27.31 3.72-40.66 7.58s-26 9.12-38.44 14.87a191.21 191.21 0 0 0-26.28 14.74c-7.4 4.95-14.4 10.47-21.39 16q-6.1 4.8-11.83 10.09-2.84 2.63-5.57 5.36a51.81 51.81 0 0 0-13.64 32.93 51.81 51.81 0 0 0 13.64 32.94l9.42 7.28a46.47 46.47 0 0 0 23.51 6.36l12.38-1.66a46.59 46.59 0 0 0 20.56-12q6.69-6.68 14-12.7a195 195 0 0 1 32.53-19 195.35 195.35 0 0 1 37.52-10.26 196.61 196.61 0 0 1 39.56 0 195 195 0 0 1 37.52 10.2 195.49 195.49 0 0 1 32.54 19q7.29 6 14 12.7a51.81 51.81 0 0 0 32.94 13.64 51.81 51.81 0 0 0 32.94-13.64l7.28-9.43a46.42 46.42 0 0 0 6.39-23.46q-.84-6.18-1.67-12.38a46.5 46.5 0 0 0-12.01-20.55z"></path><path d="M735.63 478.09a46.42 46.42 0 0 0-12-20.55C708.1 442 691 428.15 673.26 415.26a338.14 338.14 0 0 0-45.06-27.59c-34.15-17.39-70.81-30.49-108.66-36.85s-75.69-8.41-113.7-3.43c-21.09 2.76-41.84 6.2-62.29 12.12a418.08 418.08 0 0 0-59 22.57 337.27 337.27 0 0 0-45.85 25.71 417.55 417.55 0 0 0-51.41 40.41q-5 4.57-9.71 9.34a35 35 0 0 0-9.63 15 42.16 42.16 0 0 0 0 35.89 34.92 34.92 0 0 0 9.63 15c8.88 8.15 20.53 14.2 32.94 13.64l12.38-1.66a46.52 46.52 0 0 0 20.55-12 349.5 349.5 0 0 1 28.14-25.15 340.12 340.12 0 0 1 65.47-38.17A340.1 340.1 0 0 1 398 442.18c4.51-.87 9-1.62 13.58-2.31a342.59 342.59 0 0 1 64.42-1.33c4.74.36 9.46.85 14.18 1.4a340.58 340.58 0 0 1 61.76 15.52c4.2 1.48 8.35 3.09 12.49 4.74a340 340 0 0 1 65.21 38.06 349.5 349.5 0 0 1 28.14 25.15 51.81 51.81 0 0 0 32.94 13.64 51.81 51.81 0 0 0 32.93-13.64c8.15-8.88 14.2-20.53 13.64-32.93q-.82-6.19-1.66-12.39z"></path><path d="M841.93 385.84c-.55-12.35-4.72-24-13.64-32.94a556 556 0 0 0-67.38-56.67 470.93 470.93 0 0 0-64.26-39c-46.95-23.62-97.24-40.92-149.18-49.31-27.91-4.51-56.08-7.52-84.37-7.83s-56.48 2.35-84.6 6.24c-52.59 7.28-103.08 23.61-151.1 46.06-49.6 23.18-95.37 55-135.5 92.21Q84.81 351.12 78 358a48 48 0 0 0-13.64 32.94c0 11.42 5.07 25.07 13.64 32.93 8.88 8.15 20.53 14.2 32.94 13.64s24-4.73 32.93-13.64a505.92 505.92 0 0 1 42.21-37.68A492.56 492.56 0 0 1 265.72 337q9.27-4.56 18.71-8.71a491.18 491.18 0 0 1 92.3-27.71q10.39-2 20.87-3.6a488.86 488.86 0 0 1 96-2.44q10.61.78 21.17 2a480.91 480.91 0 0 1 90.94 22.34q10.34 3.64 20.51 7.79a475.93 475.93 0 0 1 95 55.43 488.87 488.87 0 0 1 41.18 36.68 48 48 0 0 0 32.93 13.65c11.43 0 25.07-5.08 32.94-13.65 8.17-8.88 14.22-20.54 13.66-32.94z"></path></g><path d="m501.518 683.225 42.696 42.695-145.438 145.438-42.695-42.696z" fill="#000000" class="fill-000000"></path><path d="m544.215 828.658-42.695 42.696-145.438-145.438 42.696-42.695z" fill="#000000" class="fill-000000"></path><path d="M649.45 83.36c-4.38 13.21 5.06 28.69-1.14 41.15a9.82 9.82 0 0 0-1.37 3.62c-.16 2.64 2.09 4.23 4.78 5.09a7.78 7.78 0 0 1 5.27 5.32 64.34 64.34 0 0 0 5.15 14.06c3.11 5.78 7.9 10.94 14.1 13.1s13.28 1.1 19.77-.54c1.66-.41 3.51-.84 5 0a6.54 6.54 0 0 1 2.17 2.59q4.77 8.34 9.31 16.82c.79 1.47 1.66 3 3.13 3.79 1.88 1 4.17.4 6.16-.3a60.47 60.47 0 0 0 34.46-31.52 6.17 6.17 0 0 0 .76-4.16c-.41-1.4-1.69-2.33-2.85-3.22-14.3-10.86-20.45-29.08-25.85-46.16l-5.16-16.35c-2.44-7.73-4.94-15.59-9.59-22.23s-11.88-12-20-12.31A39.78 39.78 0 0 0 685 53c-7.95 1.4-16.1 2.87-23 7s-12.5 11.58-12 19.64" fill="#ffffff" class="fill-ffffff"></path><path d="M648.48 83.09c-2 5.88-1.35 12.1-.53 18.12s2 12.35.66 18.37a18.22 18.22 0 0 1-1.5 4.23c-.74 1.48-1.61 2.94-1.59 4.66.05 2.87 2.34 4.75 4.79 5.75a10.27 10.27 0 0 1 3.72 2 8.33 8.33 0 0 1 1.92 4 70.63 70.63 0 0 0 3.53 10.23c2.57 5.76 6.47 11.12 11.89 14.48 6.07 3.78 13.24 3.91 20.09 2.68 1.66-.3 3.3-.69 4.93-1.09s3.5-.91 4.72.63a33.58 33.58 0 0 1 2.52 4.3c1 1.86 2.1 3.73 3.13 5.59 1.81 3.27 3.38 6.8 5.45 9.91 2 3 4.89 3.82 8.29 3a43.54 43.54 0 0 0 8.63-3.48 59.57 59.57 0 0 0 7.82-4.7A62.27 62.27 0 0 0 755 162q1.14-2 2.12-4a10.6 10.6 0 0 0 1.4-4.73c-.09-3.26-3.32-4.89-5.49-6.76a49.22 49.22 0 0 1-6.33-6.58c-7.82-9.74-12.09-21.86-15.87-33.6-2.28-7.09-4.5-14.21-6.77-21.32-2.14-6.68-4.4-13.45-8.16-19.42A32.84 32.84 0 0 0 702.33 53a23.07 23.07 0 0 0-8.75-2.21c-3.72-.16-7.43.65-11.07 1.31-12.4 2.23-27 6.15-32.2 19a19.87 19.87 0 0 0-1.41 8.49c.06 1.36 2.18 1.36 2.12 0-.27-5.9 3.1-11.42 7.32-15.29 4.73-4.34 10.92-6.6 17.07-8.1 3.29-.8 6.63-1.39 10-2s7-1.21 10.51-.58c5.78 1 10.8 4.54 14.58 8.92 4.36 5.06 7 11.41 9.16 17.66 2.29 6.72 4.3 13.54 6.42 20.31 3.59 11.45 7.17 23.11 13.27 33.52a57.16 57.16 0 0 0 10.85 13.67c1 .9 2 1.75 3.09 2.56s2.52 1.78 2.43 3.37a11.76 11.76 0 0 1-1.69 4.24q-1 2-2.22 4a59.41 59.41 0 0 1-25.46 22.79c-1.27.59-2.55 1.14-3.86 1.63a11.88 11.88 0 0 1-4.87 1.16c-1.61-.13-2.55-1.27-3.32-2.58-.86-1.47-1.63-3-2.44-4.49q-2.7-5-5.49-9.92c-1.45-2.58-2.82-6.35-6-7.09a9.6 9.6 0 0 0-4.29.3c-1.77.42-3.53.85-5.32 1.17a31.79 31.79 0 0 1-10.11.41c-6.22-.88-11.37-4.72-14.93-9.77a39 39 0 0 1-4.52-8.65c-1.18-3.07-1.84-6.3-3-9.37a9.4 9.4 0 0 0-5.72-5.51 8.34 8.34 0 0 1-3.29-1.73c-1.12-1.15-.86-2.48-.22-3.84a26.86 26.86 0 0 0 2.61-8.1 36.27 36.27 0 0 0 0-8.46c-.62-6-2.08-11.84-2.2-17.86a26.2 26.2 0 0 1 1.09-8.35c.38-1.24-1.54-1.75-1.94-.53z" fill="#000000" class="fill-000000"></path><path d="M662.24 112.29a1 1 0 0 1 .08-.14l-.16.22.11-.11-.23.17a.51.51 0 0 1 .16-.09l-.29.12a3.35 3.35 0 0 0 .38-.18l.13-.07-.29.13a.9.9 0 0 1 .22-.06h-.33.24-.33a1.34 1.34 0 0 1 .27.07l-.31-.13a1.49 1.49 0 0 1 .3.18l-.26-.21a2.76 2.76 0 0 1 .29.3l-.21-.28a2.43 2.43 0 0 1 .26.44l-.14-.32a1.56 1.56 0 0 1 .1.37l-.05-.37a.86.86 0 0 1 0 .32l.05-.37a1 1 0 0 1-.07.25l.14-.33a.76.76 0 0 1-.12.19l.22-.28-.1.11.28-.22-.15.08.34-.14a.83.83 0 0 1-.21.06h.38-.24.38a.79.79 0 0 1-.22-.06l.33.14a.6.6 0 0 1-.19-.08l.29.22-.09-.08a2.39 2.39 0 0 0-.35-.28l.28.22a.6.6 0 0 1-.08-.08l.22.28-.06-.08-.2-.27-.27-.21-.32-.13a1 1 0 0 0-.52 0 .63.63 0 0 0-.33.09.69.69 0 0 0-.3.17.84.84 0 0 0-.23.23 1 1 0 0 0-.24.45 1.79 1.79 0 0 0-.07.56 1.59 1.59 0 0 0 .21.77 1.74 1.74 0 0 0 .3.37 2.21 2.21 0 0 0 .78.46 2.44 2.44 0 0 0 .6.11 2.3 2.3 0 0 0 1.15-.25 2 2 0 0 0 .84-.82 2.38 2.38 0 0 0 .23-.63 2.21 2.21 0 0 0 0-.68 3.55 3.55 0 0 0-.12-.65 3.46 3.46 0 0 0-.28-.62 2.78 2.78 0 0 0-2.21-1.31 2.18 2.18 0 0 0-1.49.58 1.69 1.69 0 0 0-.43 1.66 1 1 0 0 0 .84.72 1 1 0 0 0 .52-.07.92.92 0 0 0 .48-.41zM657.69 108.74a1.89 1.89 0 0 0 .75-.44l.25-.25s.15-.1.17-.15-.28.2-.11.08a1.9 1.9 0 0 0 .33-.22c.11-.09-.32.08-.18.07h.16a3.31 3.31 0 0 0 .74-.34 7.76 7.76 0 0 1 .77-.37l-.5.21 1-.44-.53.22a5.1 5.1 0 0 1 1.24-.44 2.42 2.42 0 0 0 1.42-1.09 2.49 2.49 0 0 0 .24-1.83 2.4 2.4 0 0 0-2.92-1.65 15 15 0 0 0-4.71 2.9 2.46 2.46 0 0 0-.7 1.7 2.41 2.41 0 0 0 .52 1.46 2.21 2.21 0 0 0 1.25.86 2.3 2.3 0 0 0 1.85-.24 22.65 22.65 0 0 1 4.77-2.81l-.58.24a18.32 18.32 0 0 0 1.94-.79l-3.3-3.3-.29.52a2.19 2.19 0 0 0 2.46 3.19l.56-.16a2.54 2.54 0 0 0 1.44-1.11A2.42 2.42 0 0 0 663 101a7.85 7.85 0 0 0-1.31.54l-.82.37c-.53.26-1.06.51-1.57.79a24.64 24.64 0 0 0-3 1.92l2.92 3.78c.22-.19.45-.37.69-.56l-.49.38a13.68 13.68 0 0 1 1.42-1c.49-.3 1-.53 1.51-.82l-2.88-3.72a.69.69 0 0 1-.13.11l.47-.36a12.68 12.68 0 0 0-2.47 2 4.7 4.7 0 0 0-.46.56 2.78 2.78 0 0 0-.22.54v-.06c.14-.33 0 0-.08.1l-.13.28a2.83 2.83 0 0 0-.37 2 1.27 1.27 0 0 0 1.53.88zM667.23 138.57c.18-.07.38-.13.56-.22l.27-.22-.09.07.18-.12a5.14 5.14 0 0 1 .77-.41l-.3.13a5.18 5.18 0 0 1 1.15-.32l-.36.05c.26 0 .52-.06.77-.07h.37a3.68 3.68 0 0 0 .73-.07l.33-.14a1.12 1.12 0 0 0 .39-.36 1.37 1.37 0 0 0 .3-.84 1.46 1.46 0 0 0-1-1.34 3.55 3.55 0 0 0-1.83 0 5.1 5.1 0 0 0-1.36.52 6.31 6.31 0 0 0-1.17.82 4.16 4.16 0 0 0-.42.42 1.73 1.73 0 0 0-.38.62c0 .09-.06.19-.08.28a1 1 0 0 0 .25.94.92.92 0 0 0 .94.25zM691.47 100.67a38.45 38.45 0 0 1-7.36-17.73 21.33 21.33 0 0 1-18.33-15.22 109.4 109.4 0 0 1-13.24 11.09c-4.82 3.28-10.59 6-16.32 4.9a5.19 5.19 0 0 1-3-1.42 5.3 5.3 0 0 1-1-3.46c-.08-5 2.42-9.85 5.91-13.47s7.91-6.21 12.38-8.51a64.67 64.67 0 0 1 16.76-6.34 30.92 30.92 0 0 1 17.67 1.21 4.93 4.93 0 0 0 2.19.55 5.42 5.42 0 0 0 2.44-1.22c3.45-2.34 7.87-2.71 12-2.37 12.45 1 24.48 8.41 30 19.63 4.06 8.26 4.46 17.78 4.79 27l1 27a3.79 3.79 0 0 1-.29 2 3.72 3.72 0 0 1-2.64 1.4l-12.46 2.64a3.95 3.95 0 0 1-5.05-1.83l-10.42-13.35a1.85 1.85 0 0 1-.46-.94c0-.54.41-1 .78-1.35 3.4-3.6 2.39-9.62-.33-13.76-1.37-2.07-3.32-4-5.78-4.3a7.2 7.2 0 0 0-5.93 2.6 21 21 0 0 0-3.36 5.79" fill="#000000" class="fill-000000"></path><path d="M692.31 100.18a39.65 39.65 0 0 1-6.8-17.63c-.09-.67-.83-1-1.4-1.07a20 20 0 0 1-16.84-14.17 1.56 1.56 0 0 0-2.59-.68 114.37 114.37 0 0 1-11.63 9.91c-3.86 2.77-8.32 5.48-13.18 5.79-1.71.12-5 .24-5.79-1.72s-.14-4.63.47-6.54c1.42-4.39 4.62-8 8.26-10.73a70.28 70.28 0 0 1 12.65-7.14 51.07 51.07 0 0 1 14.45-4.54 29.36 29.36 0 0 1 14.82 1.68 5.09 5.09 0 0 0 3.21.4 12.84 12.84 0 0 0 3.11-1.74 14.1 14.1 0 0 1 6.28-1.76c8.22-.53 16.78 2.54 23.25 7.54 7 5.43 11 13.14 12.59 21.79a102.18 102.18 0 0 1 1.27 14.62c.2 5.36.38 10.73.57 16.09.09 2.71.23 5.41.36 8.11.07 1.31.15 2.62.2 3.94 0 .41.11.9-.18 1.24s-1.06.37-1.44.46c-2.54.6-5.11 1.12-7.66 1.68l-3.83.83c-1.15.25-2.47.78-3.48-.07a18.68 18.68 0 0 1-2.23-2.63c-.89-1.1-1.76-2.2-2.63-3.32l-5.06-6.47a14.33 14.33 0 0 0-1.22-1.57c-.35-.35-.27-.54-.39-.12 0-.15.29-.33.39-.45a10.38 10.38 0 0 0 1.65-2.44 11.17 11.17 0 0 0 .89-5.65 16 16 0 0 0-5.5-10.72c-3.63-2.89-8.34-2-11.32 1.4a23 23 0 0 0-3.45 5.93c-.78 1.73 1.78 3.24 2.56 1.5 1-2.25 2-4.71 4-6.32a4.8 4.8 0 0 1 6.12-.39 12.36 12.36 0 0 1 4.54 11.32 6.79 6.79 0 0 1-1.06 2.61c-.6.86-1.46 1.47-1.68 2.54s.47 2 1.15 2.9c.91 1.18 1.83 2.35 2.75 3.53 1.86 2.39 3.75 4.76 5.56 7.18 1.44 1.9 2.8 4.44 5.38 4.83a9.94 9.94 0 0 0 3.43-.33l4.56-.94c2.7-.56 5.47-1 8.13-1.68a5 5 0 0 0 2.67-1.57 5.55 5.55 0 0 0 .87-3.78q-.09-4.29-.2-8.6c-.13-5.82-.41-11.64-.62-17.45a133.4 133.4 0 0 0-1.19-15.48 42.21 42.21 0 0 0-4.67-14.4 35.49 35.49 0 0 0-8.52-10 39.93 39.93 0 0 0-24.52-9 21.61 21.61 0 0 0-7 1 15.84 15.84 0 0 0-3.26 1.52c-.45.28-.86.62-1.32.89a2 2 0 0 1-2 0 32.36 32.36 0 0 0-15.41-1.94 53.63 53.63 0 0 0-15.69 4.65 71.43 71.43 0 0 0-13.48 7.52A27.05 27.05 0 0 0 632 71.89c-1.51 3.73-2.79 10.37 1.67 12.63s10.15.68 14.33-1.26c4.79-2.23 9-5.63 13-9.07 2-1.74 4-3.54 5.89-5.37l-2.6-.68a22.77 22.77 0 0 0 19.83 16.25l-1.41-1.07a39.44 39.44 0 0 0 8.07 18.05c.69.86 2.18-.28 1.54-1.19z" fill="#000000" class="fill-000000"></path><path d="M700 100.66a3.28 3.28 0 0 0-1.64 1.34 4.38 4.38 0 0 0-.61 2.09 6.39 6.39 0 0 0 0 1.07 2.11 2.11 0 0 0 .53 1.25 1.62 1.62 0 0 0 1.47.42 1.4 1.4 0 0 0 1-1 1.49 1.49 0 0 0-1.09-1.73 1.77 1.77 0 0 0-1.87.72A1.09 1.09 0 0 0 698 106a1.12 1.12 0 0 0 1.15.4 1.4 1.4 0 0 0 .4-.16c.16-.11-.18 0 0 0H699.24a.73.73 0 0 1-.41-.32l-.08-.65a.7.7 0 0 1 .31-.45.8.8 0 0 1 .48-.17c-.18 0 .26.06.13 0s0 0 .17.07l.14.11c.1.14.13.18.09.11s0 0 0 .13v-.39.11a3.71 3.71 0 0 1 0-.38v-.77c0-.12 0-.09 0 0v-.22a3 3 0 0 1 .08-.32v-.09.1a.61.61 0 0 0 .07-.14 2.61 2.61 0 0 1 .17-.28c.07-.11 0 0 0 0a1.49 1.49 0 0 0 .12-.14l.11-.11c.1-.09 0 0 0 0 .11-.06.2-.14.31-.19a.93.93 0 0 0-.71-1.69zM710.45 159.81c-2.2 1.2-4.74 1.38-7.15 1.91a67.36 67.36 0 0 0-7.88 2.24 1.39 1.39 0 0 0-.94 1.66 1.36 1.36 0 0 0 1.66.94 67.22 67.22 0 0 1 8.07-2.62c2.45-.62 5-1.16 7.16-2.56a.91.91 0 0 0-.92-1.57zM769.76 144.72c31.43-4.11 62.81 11.82 85 34.48s36.72 51.49 50.94 79.82l13.81 27.52c8.43 16.78 17.07 34.54 16.11 53.29-.62 11.85-5.08 23.17-10.62 33.65-18.85 35.32-50.43 62.09-83.47 84.69-21 14.39-44.92 28-70.32 25.91a16 16 0 0 1-6.59-1.62c-2.8-1.55-4.58-4.43-6.05-7.27a76.38 76.38 0 0 1-7.8-24.34c-.26-1.83-.41-3.86.63-5.39s2.74-2 4.1-3.13c2.33-1.84 3.31-4.86 4.51-7.59 3.95-9 11.28-15.95 18.36-22.74q39.67-38 76.77-78.59c1.6-1.75 3.3-3.78 3.16-6.15-.1-1.77-1.22-3.29-2.31-4.69-22.14-28.49-49.74-55.95-54.88-91.66" fill="#000000" class="fill-000000"></path><path d="M769.76 145.66c25.76-3 51.14 7.25 71.07 23.09 21.07 16.74 35.93 39.68 48.64 63.07 6.64 12.23 12.76 24.73 19 37.16 6.61 13.16 13.87 26.21 19.21 39.95 5.15 13.26 7.77 27.2 4.44 41.26-3.13 13.21-10 25.49-17.48 36.68-14.34 21.32-33.32 39.18-53.58 54.8a383.21 383.21 0 0 1-32.46 22.68c-11.55 7.14-23.88 13.38-37.2 16.41a67.93 67.93 0 0 1-19.95 1.6c-3.38-.24-6.4-1-8.69-3.63s-3.58-5.79-4.9-8.8a66.75 66.75 0 0 1-5.61-20.1c-.14-1.47-.16-3 1-4.06s2.43-1.51 3.52-2.44c2.28-2 3.29-4.85 4.45-7.52 2.63-6 6.77-11.18 11.3-15.89 4.88-5.07 10.09-9.83 15.14-14.73q16.08-15.6 31.72-31.63t31.08-32.72c2.42-2.61 5-5.15 7.21-8 1.9-2.44 2.86-5.27 1.53-8.23-1.21-2.69-3.49-5-5.31-7.31-2-2.5-4-5-6-7.46-15.55-19.14-32.42-38.57-40.83-62.15a91.09 91.09 0 0 1-4.33-17.3c-.33-2.26-3.76-1.3-3.43.95 3.73 25.34 18.81 46.79 34.41 66.35 4.07 5.09 8.22 10.11 12.33 15.16q3 3.71 6 7.44c1.77 2.23 5.43 5.46 4.24 8.58a12.91 12.91 0 0 1-2.84 3.81l-4.2 4.58q-3.88 4.21-7.78 8.4-7.82 8.35-15.74 16.62-16.08 16.76-32.63 33.05-8.11 8-16.35 15.89c-4.75 4.54-9.49 9.12-13.39 14.43a44.3 44.3 0 0 0-5 8.71c-1.26 2.91-2.3 5.7-5.1 7.44-2.53 1.56-4.24 3.33-4.36 6.46-.13 3.34.84 7 1.62 10.2a71.22 71.22 0 0 0 7.6 19.43 15.11 15.11 0 0 0 6.63 6.51c3 1.32 6.43 1.47 9.64 1.57 27.87.95 52.91-15.45 74.75-30.87 21.53-15.19 42.1-32.19 58.76-52.72A167.64 167.64 0 0 0 929.4 369c6.23-13.08 9.59-27 7.48-41.45-2.08-14.31-8.49-27.55-14.88-40.36-6.76-13.52-13.49-27.06-20.38-40.52-12.58-24.57-26.36-49-46-68.8-18.06-18.2-42-32.17-67.89-34.51a82.1 82.1 0 0 0-18.27.45c-1 .14-.8 2 .25 1.85zM584.05 83.36A101.12 101.12 0 0 1 595.86 42a40.79 40.79 0 0 1 7.74-10.92c3.58-3.36 8.6-5.43 13.53-4.46a1.19 1.19 0 0 0 .63-2.29c-9.87-3.16-18.49 4.94-23.15 12.73a89 89 0 0 0-10.87 29 92 92 0 0 0-1.68 17.35 1 1 0 0 0 2 0zM620.7 33.89a10.94 10.94 0 0 1 10.46 3.42 1.21 1.21 0 0 0 1.71-1.71 12.1 12.1 0 0 0-12.66-3.49.92.92 0 0 0 .49 1.78zM624.26 44.84a8.39 8.39 0 0 1 8.24 3.34 1.22 1.22 0 0 0 1.62.42 1.19 1.19 0 0 0 .42-1.62 10.5 10.5 0 0 0-10.8-4 1 1 0 0 0-.69 1.2 1 1 0 0 0 1.21.69zM632 54.46a10.34 10.34 0 0 1 1.88 1.09c.25.19-.16-.13.08.07l.21.18.39.34c.26.25.51.52.75.79l.34.39.09.12.14.19a9.6 9.6 0 0 1 .6 1 4 4 0 0 1 .24.46l.11.21c0 .1.1.25 0 .06.16.42.35.82.52 1.23a1.12 1.12 0 0 0 1.41.47 1.16 1.16 0 0 0 .66-1.34 9.31 9.31 0 0 0-2.42-4.43 10.77 10.77 0 0 0-4.18-2.65 1 1 0 0 0-1.17.58 1 1 0 0 0 .4 1.24zM614.61 95.63c4.47-1.59 8.95-3.65 12.34-7A19 19 0 0 0 628 62.72c-2.59-3.12-7.6-6.65-11.65-3.9a6.7 6.7 0 0 0-2.61 6.18c.25 2.8 1.85 5.13 3.47 7.33l1.6-2.08c-4.94-1.38-8.53 2.79-10.83 6.56-.93 1.52 1.39 2.82 2.38 1.38 1.72-2.51 4.1-6.21 7.7-5.21 1.1.31 2.35-1 1.59-2.08a16.42 16.42 0 0 1-2.89-5c-.43-1.53-.29-3.55 1.06-4.59 3.07-2.34 7.37 2.15 8.93 4.42a16.71 16.71 0 0 1-1.84 21.15c-3.09 3.16-7 5.25-11 7-1 .44-.29 2.16.75 1.79z" fill="#000000" class="fill-000000"></path><path d="M750.81 448.22c-4.41-5.75-12.65-7.12-19.46-7.4-7.33-.31-16 1.9-19.33 9.15-.84 1.81 1.68 3.38 2.73 1.6 3.45-5.93 10.4-7.67 16.83-7.55 6.11.12 13.15.8 17.67 5.4.76.78 2.26-.29 1.56-1.2zM725.89 460.46a38.69 38.69 0 0 0-25 17.7c-1 1.68 1.63 3.23 2.63 1.54a38.34 38.34 0 0 1 22.9-17.38 1 1 0 0 0-.51-1.86zM719.62 480.45a19.59 19.59 0 0 0-4.08 6.44 19.34 19.34 0 0 0-1.55 7.45 1.16 1.16 0 0 0 2.31 0 22.18 22.18 0 0 1 4.81-12.74c.65-.89-.75-1.91-1.49-1.15zM730.17 488a20.75 20.75 0 0 0-2.51 8.74 21.56 21.56 0 0 0 .27 4.54c.23 1.4 1.63 2.8 3 1.6a1.14 1.14 0 1 0-1.61-1.62l-.11.09.5-.3h-.11.61c.32.05.07.27.06-.07a6 6 0 0 0-.12-.7 13.7 13.7 0 0 1-.17-1.57 19.54 19.54 0 0 1 .07-3.42 20 20 0 0 1 1.73-6.4c.49-1-1-2-1.57-.92zM738.85 500.86c-.61 3.42.21 7.71 2.74 10.26 2.79 2.82 6.33 0 6.76-3.24a24.17 24.17 0 0 0 .09-3.07c0-.34-.07-.79.16-1s1-.37 1.36-.49a20.56 20.56 0 0 0 4.72-2.51 28 28 0 0 0 7.37-8 52.61 52.61 0 0 0 5.85-13c.42-1.47-1.83-2.5-2.54-1.07-2 4.11-3.35 8.44-5.78 12.36a24.36 24.36 0 0 1-8.31 8.48 16.75 16.75 0 0 1-2.61 1.22 4.73 4.73 0 0 0-2.36 1.2c-1.3 1.66-.28 4.09-.69 6-.16.72-.74 1.84-1.64 1.73s-1.54-1.49-1.9-2.14a12.3 12.3 0 0 1-1.35-6.47c0-1.06-1.67-1.32-1.87-.26z" fill="#000000" class="fill-000000"></path><path d="M795.25 227.41c3.52 25.86 18.35 48.07 34.69 67.71 2.37 2.85 4.79 5.67 7.22 8.46q1.83 2.1 3.68 4.19a42.71 42.71 0 0 0 4.1 4.4c1.06.9 2.93-.27 2-1.58-1.85-2.76-4.37-5.16-6.57-7.64s-4.29-4.87-6.41-7.34c-4.29-5-8.47-10.12-12.4-15.43a146.71 146.71 0 0 1-18.87-33.08 96 96 0 0 1-5.58-20.22c-.2-1.27-2.08-.71-1.91.53zM847.5 319.65l1.11-2.19a1.28 1.28 0 0 0 .12-.9 1.25 1.25 0 0 0-.53-.69 1.18 1.18 0 0 0-1.59.42l-1.08 2.21a1.22 1.22 0 0 0-.12.88 1.16 1.16 0 0 0 .53.68 1.17 1.17 0 0 0 .88.12 1.16 1.16 0 0 0 .68-.53z" fill="#32a16b" class="fill-18c4ff"></path><path d="M693.3 849.41a201.78 201.78 0 0 0 45.44-25.06c1.94-1.42 3.86-2.86 5.73-4.35a48 48 0 0 0 5.73-4.81c1-1.08-.3-3-1.63-2.12-1.74 1.15-3.29 2.64-4.91 3.95s-3.37 2.69-5.09 4Q733.4 825 728 828.56a207.57 207.57 0 0 1-22.27 13c-4.32 2.16-8.71 4.22-13.15 6.13-1 .43-.28 2.16.74 1.77zM791.52 930a132.84 132.84 0 0 0 67.14-4.91c1.57-.53 3.13-1.11 4.68-1.71 1-.41 2.47-.75 3-1.84 1.27-2.44-2.87-3.89-3.2-1.11-.17 1.39 2.21 1.71 2.46.33l-.17.28-.89.37-.41-1.23-.28.16a4.68 4.68 0 0 0-.82.33l-1.69.65c-1.13.43-2.27.84-3.41 1.23q-3.42 1.2-6.9 2.21a131.67 131.67 0 0 1-13.85 3.24 134.57 134.57 0 0 1-28.77 1.86 136.26 136.26 0 0 1-16.41-1.68c-1.19-.2-1.72 1.61-.51 1.83z" fill="#000000" class="fill-000000"></path></svg>