<svg viewBox="0 0 1000 1000" xmlns="http://www.w3.org/2000/svg"><path d="M479.07 368.25c-2.9-4.18-5.93-8.72-7-13.79-.25-1.24-1.16-6.55 1-6.74.93-.08 1.64 2.34 1.95 3 .67 1.42 1.32 2.85 2 4.28.57 1.24 2.62.36 2.2-.93-2-6.39-3.6-13.82 0-20a12.42 12.42 0 0 1 1.35-1.88c.25-.28 1.23-1.35 1.74-1.1s0 1.62-.08 2.06a23.51 23.51 0 0 0-.61 2.64 21.77 21.77 0 0 0 .73 10 1.24 1.24 0 0 0 2.39-.66 16.77 16.77 0 0 1 2.54-13.78c.27-.37.71-1 1.21-1.11.68-.11.6.49.59 1 0 1.35-.15 2.7-.22 4.05l-.47 8.73H491a36.47 36.47 0 0 1 .35-7.67 33.49 33.49 0 0 1 .78-3.71c.18-.67.43-2 1.16-2.36 1.81-.85 1.65 5.15 1.67 6 .08 2.64 0 5.27-.12 7.9-.1 1.74 2.61 1.74 2.71 0l.48-7.76c.06-.94-.07-2.39.56-3.18.78-1 1.64.41 2.1 1.05 2.36 3.36 2.71 7.69 2.6 11.67a53.24 53.24 0 0 1-2.13 13.39 70.17 70.17 0 0 1-5.61 12.85 1.33 1.33 0 0 0 2.3 1.34c5-7 7.52-16.06 8.23-24.52a30.6 30.6 0 0 0-1-12c-.89-2.71-3.66-8.58-7.42-6.55-2 1.09-2.25 3.41-2.37 5.48l-.48 8.24h2.71a87.45 87.45 0 0 0-.05-10.86c-.17-2.5-1-6.22-4.38-5.74-2.82.41-3.5 3.92-4 6.2a40 40 0 0 0-.76 10.24 1.31 1.31 0 0 0 2.61 0l.58-11.64c.07-1.4.24-3-.94-4a3.24 3.24 0 0 0-3.78-.12 9.24 9.24 0 0 0-2.84 3.58 19.4 19.4 0 0 0-1.72 4.47 19.66 19.66 0 0 0 .05 9.52l2.39-.66a19.55 19.55 0 0 1-.94-6.79c.09-2.07.81-3.94 1.1-6 .25-1.67-.42-3.43-2.28-3.69-1.7-.24-3.16 1-4.16 2.24-5.52 6.8-4 16-1.57 23.75l2.2-.93c-.83-1.8-1.67-3.6-2.48-5.41-.59-1.31-1.16-2.76-2.71-3.13-3.5-.83-4.65 3.27-4.68 5.87-.07 6.95 4.29 12.75 8.3 18 .68.89 2.2.06 1.53-.89z" fill="#000000" class="fill-000000"></path><path d="M380.75 491.59c22.55.23 45.93-6.19 62.37-21.64a124.63 124.63 0 0 0 11.54-13c4.19-5.22 8.33-10.55 11.28-16.56 8-16.34 6.3-35.49 7.9-53.61.37-4.19 1.4-9.05 5.2-10.86a3.7 3.7 0 0 1-.1-4.56 9 9 0 0 1 4-2.85 34.46 34.46 0 0 1 14.57-2.92c1.54 0 3.43.45 3.82 1.94.2.76-.1 1.62.22 2.35.57 1.34 2.46 1.17 3.9 1.4 4.16.69 5.6 5.84 6.16 10 3.26 24.44 6.44 49.83-1 73.34-8.65 27.23-36 82.91-110.91 104.69-22.74 6.61 14-12.3-8.95-6.36-4.89 1.26-4.49 5.15-7.43 1" fill="#32a16b" class="fill-18c4ff"></path><path d="M380.75 492.46c21.47.48 43.59-4.94 60.33-18.91a95.28 95.28 0 0 0 12.38-12.94 139.37 139.37 0 0 0 11-14.72c6.29-10.17 8.5-21.8 9.36-33.56.48-6.6.61-13.22 1-19.83a56.07 56.07 0 0 1 .92-9.14c.56-2.52 1.59-5 4-6.21A1.38 1.38 0 0 0 480 375c-1.1-1.27 0-3 1.08-3.87a17.32 17.32 0 0 1 5.36-2.47c3.63-1.19 8-2.13 11.8-1.6.49.07 1.32.19 1.63.66s.05 1.83.31 2.57c.55 1.56 2.11 2 3.6 2.23a5.34 5.34 0 0 1 3.61 1.35 8.84 8.84 0 0 1 2 3.64c1.11 3.52 1.31 7.35 1.78 11 .53 4.19 1 8.38 1.45 12.58a194.1 194.1 0 0 1 1.08 25.4 104.51 104.51 0 0 1-3.59 24.93c-1 3.54-2.21 7-3.52 10.48a154 154 0 0 1-9.64 20.52 155.78 155.78 0 0 1-39.06 45.92 162 162 0 0 1-32 19.71 171.28 171.28 0 0 1-19.89 7.88c-3 1-6.08 1.94-9.17 2.71-.83.21-1.66.4-2.5.55a11.07 11.07 0 0 1-1.38.12c-.4 0-.06.07-.15 0s.3.22.28.19a1.35 1.35 0 0 1 .32.74v.22c0-.24-.19.33-.06.12s.13-.23.21-.34-.09.11 0 0l.18-.22c.3-.31.59-.63.9-.93 1.4-1.35 3-2.55 4.25-4s2.2-4-.37-4.69a9 9 0 0 0-3.68.09 22.7 22.7 0 0 0-6.9 1.87 18.76 18.76 0 0 0-2.42 1.71c-.16.13-.28.14-.25.17s.6 0 .55 0-.9-1-1-1.1c-1.25-1.71-4.13-.05-2.87 1.68.76 1 1.62 2.26 2.95 2.57a3.33 3.33 0 0 0 2.92-1 10 10 0 0 1 3.05-1.87 34.89 34.89 0 0 1 3.49-.87l1.31-.24a4.93 4.93 0 0 1 .8-.11h1.16c.25 0-.1-.14 0 0s.18 0 .22.06c-.13-.06-.33-.21-.16-.05a1.22 1.22 0 0 1-.51-.93v-.07c0-.09.18-.21-.07.1-.09.1-.44.58-.11.18-.13.16-.27.31-.4.46-.33.37-.68.71-1 1.05-.77.74-1.56 1.45-2.34 2.17-1.17 1.1-3.48 3-2.47 4.82 1.26 2.31 5.85.57 7.62.09a179.13 179.13 0 0 0 20.6-7.06 168.84 168.84 0 0 0 35.28-19.54 157.83 157.83 0 0 0 25.8-23.58 159.95 159.95 0 0 0 28.45-46.58q1.8-4.53 3.28-9.18a102.1 102.1 0 0 0 4.47-25.3 178.2 178.2 0 0 0-.71-26.54c-.41-4.44-.92-8.86-1.47-13.28-.49-3.9-.79-7.92-1.66-11.75-.65-2.89-1.92-6.14-4.64-7.66-1.39-.78-2.8-.69-4.3-1-1-.23-.7-.88-.77-1.75a3.53 3.53 0 0 0-.87-2.13 6 6 0 0 0-4.23-1.57 33.67 33.67 0 0 0-6.18.4c-3.88.57-8.34 1.7-11.59 4-2.69 1.88-4.2 5.54-1.79 8.29l.27-2.15c-4.3 2.18-5.41 7.31-5.83 11.7-.58 5.88-.71 11.8-1 17.7-.51 11.55-1.29 23.51-6.12 34.19a76 76 0 0 1-9.87 15.34 149.12 149.12 0 0 1-12.07 14 75.33 75.33 0 0 1-27.14 16.83 104.51 104.51 0 0 1-35.59 6.15.88.88 0 0 0 0 1.75z" fill="#32a16b" class="fill-18c4ff"></path><path d="M669.36 364.86c-3.91-2.85-8.06-6-10.66-10.15a16.61 16.61 0 0 1-1.54-3c-.39-1-1.13-2.86-.37-3.87s2.32 1.07 2.91 1.67c1.16 1.18 2.3 2.38 3.45 3.57.92 1 2.73-.34 1.89-1.46-4.09-5.45-8.17-12.19-6.52-19.3.14-.59 1.3-4.41 2.21-3.19.36.47.23 1.46.27 2a24 24 0 0 0 .28 2.41 21.32 21.32 0 0 0 3.91 9.08c.93 1.25 3 .12 2.14-1.25a16.86 16.86 0 0 1-2.19-13.83 2.84 2.84 0 0 1 .73-1.48c.59-.43.76.08.92.59.42 1.29.76 2.6 1.13 3.9l2.43 8.4 2.5-.69a39.26 39.26 0 0 1-2.16-7.2 35.21 35.21 0 0 1-.51-3.71c-.06-.75-.31-2.23.26-2.86 1.38-1.51 3.24 4.14 3.52 4.85 1 2.51 1.79 5.06 2.53 7.64a1.35 1.35 0 0 0 2.61-.72l-2.1-7.49c-.25-.89-.84-2.21-.56-3.17.37-1.24 1.51-.37 2.21.11 3.24 2.21 5 6 6.22 9.63a52.8 52.8 0 0 1 2.58 13.66 69.86 69.86 0 0 1-1 14.22 1.33 1.33 0 0 0 2.56.71c2.49-8.45 1.87-18.19-.42-26.61a30.05 30.05 0 0 0-4.72-10.41c-1.71-2.24-6-6.65-8.94-3.91-1.76 1.63-1.24 4-.66 6l2.26 8 2.61-.72a88.47 88.47 0 0 0-3.53-10c-1-2.33-2.91-5.84-6.05-4.33-2.57 1.25-2.1 4.74-1.81 7.05a39 39 0 0 0 2.64 10c.61 1.5 3 1 2.5-.69l-3.27-11.19c-.39-1.35-.73-2.9-2.14-3.53a3.18 3.18 0 0 0-3.63 1 8.68 8.68 0 0 0-1.55 4.3 18.74 18.74 0 0 0-.18 4.79 19.48 19.48 0 0 0 3.11 9l2.14-1.25a19.63 19.63 0 0 1-3-5.63 29.86 29.86 0 0 1-1-6c-.18-1.55-.93-3.21-2.72-3.33s-3 1.4-3.63 2.84c-3.6 8.28 1 17 6 23.58l1.89-1.47q-2.24-2.31-4.46-4.65c-1-1.07-2.14-2.08-3.73-1.69-3.7.91-2.73 5.51-1.67 8.05 2.53 6.07 8.21 9.85 13.48 13.34 1 .64 1.8-.87.89-1.53z" fill="#000000" class="fill-000000"></path><path d="M591.36 492.88c25.44-5.2 50.13-20.05 61.25-43.52 10.08-21.26 7.87-46 9.65-69.43.44-5.79 1.29-11.95 5.09-16.35 4.74-5.5 13.33-6.71 20-3.79s11.36 9.29 13.51 16.23c.89 2.89 1.4 5.91 2.66 8.66 2.11 4.59 6.14 8 8.69 12.38a22.25 22.25 0 0 1 .66 20.78c-1.26 2.51-3 4.81-3.83 7.5-2.62 8.6 4.91 18.65.38 26.42-1.77 3.05-5.06 4.93-7 7.86-4.4 6.62-1 16.88-6.72 22.42-3.38 3.31-8.77 3.55-12.58 6.35-6.27 4.61-6.36 14.38-12.12 19.61-4.45 4-11.06 4.24-16.55 6.64-5.22 2.29-9.34 6.53-14.38 9.2-12.29 6.51-27.26 2.69-40.59-1.27" fill="#000000" class="fill-000000"></path><path d="M591.59 493.72a97 97 0 0 0 37.59-15.58c11.22-7.86 20.46-18.41 25.8-31.1 6.18-14.69 7.06-30.86 7.64-46.58.29-7.89.36-15.86 1.27-23.71.8-6.92 3.39-13.91 10.55-16.29a18.07 18.07 0 0 1 18.11 4.41 26 26 0 0 1 5.85 8.49c1.55 3.57 2 7.48 3.46 11.08s3.88 6.38 6.19 9.34a24.14 24.14 0 0 1 4.9 9.66 21 21 0 0 1-.46 10.79c-1.16 3.67-3.76 6.62-5 10.25-2.25 6.5.95 13.06 1.53 19.53.28 3.14-.22 6.08-2.38 8.49-2.35 2.62-5.27 4.65-6.77 7.95a29.07 29.07 0 0 0-2 9.23c-.29 2.89-.45 6-1.77 8.68-1.5 3-4.35 4.28-7.36 5.38s-6.29 2.34-8.63 4.86c-4.26 4.57-5.05 11.08-8.64 16.07-4.08 5.67-12 5.7-17.94 8.3-3.52 1.54-6.54 3.93-9.66 6.14a32.06 32.06 0 0 1-10.11 5.08c-7.4 2-15.26 1.07-22.63-.59-3.72-.84-7.46-1.79-11.12-2.88-2.32-.68-3.31 2.94-1 3.62 7.77 2.3 15.56 4.55 23.72 4.91a35.26 35.26 0 0 0 22.23-6.2c3.19-2.22 6.2-4.75 9.72-6.46 3.23-1.57 6.84-2.17 10.24-3.29a18.69 18.69 0 0 0 8.8-5.44 32.72 32.72 0 0 0 4.59-8.46c1.13-2.73 2.24-5.68 4.22-7.92 2.24-2.53 5.37-3.43 8.43-4.6 3.26-1.26 6.25-3 8-6.08 1.6-2.8 2-6.06 2.36-9.22s.45-6.3 1.66-9.19c1.37-3.32 4.52-5.21 6.71-7.91 4.72-5.82 2.59-12.9 1.22-19.52-.67-3.22-1.13-6.58 0-9.75a35.33 35.33 0 0 1 2.74-5.2 24.6 24.6 0 0 0 2.23-5.26 24 24 0 0 0-4.31-21.34c-2.32-3-5.07-5.79-6.73-9.27-1.74-3.64-2.18-7.77-3.77-11.48-2.68-6.32-7.54-11.9-14-14.44a19.33 19.33 0 0 0-18.62 2.5c-5.91 4.67-7 12.61-7.52 19.65-1.19 16.41-.38 33-3.4 49.28a75.42 75.42 0 0 1-7.64 22.42 68.61 68.61 0 0 1-12.65 16.4c-10.13 9.75-22.79 16.53-36.1 20.86q-4.92 1.59-10 2.71c-1.11.24-.63 1.89.46 1.68zM746.23 496.53c6.36-1.75 12.72-3.5 19.06-5.36a70.74 70.74 0 0 0 9-3.12 50 50 0 0 0 7.44-4.28c4.75-3.22 9.33-6.88 14.72-9s12.17-3.49 17.72-1.53c.31.11 1.37.37 1.43.68s-1.64 1.38-2 1.57a20.19 20.19 0 0 1-4.39 1.71c-3.51 1-7.05 2-10.57 2.95a1.21 1.21 0 0 0 .32 2.37 8.32 8.32 0 0 1 7.2 4.07 16.66 16.66 0 0 1 3 8.79c0 3-2.24 5-4.62 6.47-.81.51-2.58 2-3.51 1.27-1.24-1-.25-3.15.2-4.29l-2.44-.33a10.2 10.2 0 0 1-4.93 8.1 12.93 12.93 0 0 1-5.52 1.5 25.54 25.54 0 0 0-6.09 1.41c-4.08 1.5-8 3.44-12 5.28q-6.16 2.88-12.23 6c-4.54 2.29-9.07 4.63-13.48 7.17a1.16 1.16 0 0 0 1.17 2c8.39-4.41 16.75-8.81 25.35-12.8a111.36 111.36 0 0 1 13.15-5.67c3.84-1.21 8-.71 11.47-3.08a12.84 12.84 0 0 0 5.58-9.87c.08-1.5-2-1.55-2.44-.33-.75 1.9-1.35 4-.19 5.92a3.47 3.47 0 0 0 4.39 1.44c3.23-1.32 6.86-3.95 8.1-7.3 1.46-3.91-.4-8.8-2.44-12.19s-5.58-6.17-9.77-5.94l.32 2.38c3.52-1 7.06-1.93 10.56-3 2.54-.75 6-1.78 7.6-4.09 2-2.85-1.71-4.32-3.91-4.87a25.77 25.77 0 0 0-9.63-.2c-6.5.9-12.23 3.69-17.6 7.35s-10.73 7.66-17.1 9.86c-3.73 1.3-7.56 2.34-11.34 3.48-4 1.22-8.06 2.52-12.09 3.78a.89.89 0 0 0 .48 1.71z" fill="#000000" class="fill-000000"></path><path d="M875.14 67.14C824.6 87.1 769.3 91.35 715 92.11c-84.49 1.18-169.38-5.58-251.67-24.81-45.41-10.6-89.83-24.95-133.79-40.41-3.31-1.16-6.8-2.35-10.25-1.71-6.09 1.11-9.68 7.24-12.79 12.59a163.69 163.69 0 0 1-50.87 53.93c-2.4 1.59-5.07 3.44-5.6 6.27-.91 4.79 4.6 8.06 9.18 9.75 177.34 65.34 373.72 78 558 36 11.34-2.59 23.07-5.59 32-13.07 6.36-5.34 10.79-12.59 14.77-19.87a273.36 273.36 0 0 0 18.94-43.2 4.75 4.75 0 0 0-6.27 1.08" fill="#ffffff" class="fill-ffffff"></path><path d="M874.91 66.3c-42.57 16.6-88.31 22.23-133.7 24A1161.16 1161.16 0 0 1 599.89 87 938.45 938.45 0 0 1 458.3 64.65c-23-5.55-45.85-12-68.47-19.12q-17.26-5.41-34.4-11.23-8.42-2.85-16.82-5.78c-5.08-1.76-10.46-4.4-15.86-4.9-9.24-.86-14 7.44-18.05 14.31a162.27 162.27 0 0 1-18.38 25.19 162.09 162.09 0 0 1-22.84 21.21c-3.8 2.9-8.16 5.27-11.74 8.41-2.54 2.23-4.06 5.44-2.78 8.76s4.83 5.48 8 6.86c4.66 2 9.6 3.58 14.39 5.27q15.79 5.58 31.77 10.59 32.21 10.11 65.08 18a992.61 992.61 0 0 0 131.2 22.21 996 996 0 0 0 134.34 4.47 984.51 984.51 0 0 0 132.92-13.64q16.5-2.84 32.9-6.24c10.67-2.22 21.56-4.23 31.94-7.6 9.43-3.06 18-7.81 24.36-15.55 6.76-8.2 11.42-18 15.89-27.62a304.16 304.16 0 0 0 12.1-30.42 1 1 0 0 0-.45-1.1 5.84 5.84 0 0 0-7.45 1.23c-.83.94.54 2.32 1.38 1.38a3.92 3.92 0 0 1 5.08-.93l-.44-1.1a250.62 250.62 0 0 1-13.43 31.79c-4.79 9.51-9.78 19.83-17.23 27.56s-17.25 11.34-27.26 13.92c-10.4 2.7-21 4.83-31.51 6.94a972.61 972.61 0 0 1-130 17.08 991.72 991.72 0 0 1-130.95-.34 987.42 987.42 0 0 1-130.52-17.73A973.15 973.15 0 0 1 275.36 112c-5.26-1.83-10.57-3.62-15.76-5.65-3.8-1.49-11.1-5.29-7-10.28 1.46-1.79 3.67-3 5.55-4.24s4-2.82 6-4.29q5.83-4.38 11.28-9.25a165.17 165.17 0 0 0 20.07-21.56c3-3.84 5.81-7.8 8.45-11.89 2.47-3.84 4.56-8 7.19-11.69 3.35-4.73 7.55-7.55 13.54-6.21 5.66 1.27 11.19 3.75 16.66 5.64q16.23 5.61 32.56 10.93c22.15 7.2 44.48 13.89 67 19.76a914.55 914.55 0 0 0 135.21 24.24A1151.72 1151.72 0 0 0 715 93.32c43.69-.71 87.84-3.58 130.14-15.23A298.37 298.37 0 0 0 875.37 68c1-.41.59-2.1-.46-1.69z" fill="#000000" class="fill-000000"></path><path d="M875.14 114.68c-50.54 20-105.84 24.2-160.18 25-84.49 1.19-169.38-5.58-251.67-24.81-45.37-10.6-89.79-24.94-133.75-40.4-3.31-1.17-6.8-2.35-10.25-1.72-6.09 1.07-9.68 7.25-12.79 12.55a163.69 163.69 0 0 1-50.87 53.93c-2.4 1.6-5.07 3.44-5.6 6.27-.91 4.8 4.6 8.07 9.18 9.75 177.34 65.34 373.72 78 558 36 11.34-2.58 23.07-5.59 32-13.07 6.36-5.34 10.79-12.58 14.77-19.87a273 273 0 0 0 18.94-43.2 4.76 4.76 0 0 0-6.27 1.09" fill="#32a16b" class="fill-18c4ff"></path><path d="M874.91 113.83c-42.57 16.61-88.31 22.23-133.7 24a1165.21 1165.21 0 0 1-141.32-3.23 939.74 939.74 0 0 1-141.59-22.42c-23-5.55-45.85-12-68.47-19.12q-17.26-5.41-34.4-11.23Q347 79 338.61 76.06c-5.08-1.77-10.46-4.41-15.86-4.91-9.24-.86-14 7.45-18.05 14.32a163 163 0 0 1-41.22 46.4c-3.8 2.89-8.16 5.26-11.74 8.41-2.54 2.23-4.06 5.43-2.78 8.76s4.83 5.47 8 6.86c4.66 2 9.6 3.58 14.39 5.27q15.79 5.57 31.77 10.58 32.21 10.13 65.08 18a994.22 994.22 0 0 0 131.2 22.2 996 996 0 0 0 134.34 4.47 984.5 984.5 0 0 0 132.92-13.63q16.5-2.84 32.9-6.25c10.67-2.22 21.56-4.23 31.94-7.6 9.43-3.06 18-7.81 24.36-15.54 6.76-8.21 11.42-18 15.89-27.63a303.21 303.21 0 0 0 12.1-30.42 1 1 0 0 0-.45-1.1 5.86 5.86 0 0 0-7.45 1.24c-.83.93.54 2.32 1.38 1.38a3.91 3.91 0 0 1 5.08-.93l-.44-1.11a250.75 250.75 0 0 1-13.39 31.82c-4.79 9.5-9.78 19.83-17.23 27.56s-17.25 11.31-27.26 13.91c-10.4 2.71-21 4.83-31.51 6.95a974.24 974.24 0 0 1-130 17.08 995.16 995.16 0 0 1-130.95-.34 990.76 990.76 0 0 1-130.52-17.73 976.37 976.37 0 0 1-125.75-34.58c-5.26-1.84-10.57-3.62-15.76-5.66-3.8-1.48-11.1-5.28-7-10.27 1.46-1.79 3.67-3 5.55-4.25s4-2.81 6-4.29q5.83-4.38 11.28-9.25a165.73 165.73 0 0 0 20.07-21.55c3-3.85 5.81-7.81 8.45-11.9 2.47-3.84 4.56-8 7.19-11.68 3.35-4.73 7.55-7.56 13.54-6.21 5.66 1.26 11.19 3.75 16.66 5.64q16.23 5.6 32.56 10.93c22.15 7.19 44.48 13.89 67 19.76a917.16 917.16 0 0 0 135.22 24.28 1153.77 1153.77 0 0 0 138.88 5.8c43.69-.7 87.84-3.58 130.14-15.23a298.37 298.37 0 0 0 30.27-10.1c1-.41.59-2.1-.46-1.69z" fill="#32a16b" class="fill-18c4ff"></path><path d="M874.91 113.83c-42.57 16.61-88.31 22.23-133.7 24a1165.21 1165.21 0 0 1-141.32-3.23 939.74 939.74 0 0 1-141.59-22.42c-23-5.55-45.85-12-68.47-19.12q-17.26-5.41-34.4-11.23Q347 79 338.61 76.06c-5.08-1.77-10.46-4.41-15.86-4.91-9.24-.86-14 7.45-18.05 14.32a163 163 0 0 1-41.22 46.4c-3.8 2.89-8.16 5.26-11.74 8.41-2.54 2.23-4.06 5.43-2.78 8.76s4.83 5.47 8 6.86c4.66 2 9.6 3.58 14.39 5.27q15.79 5.57 31.77 10.58 32.21 10.13 65.08 18a994.22 994.22 0 0 0 131.2 22.2 996 996 0 0 0 134.34 4.47 984.5 984.5 0 0 0 132.92-13.63q16.5-2.84 32.9-6.25c10.67-2.22 21.56-4.23 31.94-7.6 9.43-3.06 18-7.81 24.36-15.54 6.76-8.21 11.42-18 15.89-27.63a303.21 303.21 0 0 0 12.1-30.42 1 1 0 0 0-.45-1.1 5.86 5.86 0 0 0-7.45 1.24c-.83.93.54 2.32 1.38 1.38a3.91 3.91 0 0 1 5.08-.93l-.44-1.11a250.75 250.75 0 0 1-13.39 31.82c-4.79 9.5-9.78 19.83-17.23 27.56s-17.25 11.31-27.26 13.91c-10.4 2.71-21 4.83-31.51 6.95a974.24 974.24 0 0 1-130 17.08 995.16 995.16 0 0 1-130.95-.34 990.76 990.76 0 0 1-130.52-17.73 976.37 976.37 0 0 1-125.75-34.58c-5.26-1.84-10.57-3.62-15.76-5.66-3.8-1.48-11.1-5.28-7-10.27 1.46-1.79 3.67-3 5.55-4.25s4-2.81 6-4.29q5.83-4.38 11.28-9.25a165.73 165.73 0 0 0 20.07-21.55c3-3.85 5.81-7.81 8.45-11.9 2.47-3.84 4.56-8 7.19-11.68 3.35-4.73 7.55-7.56 13.54-6.21 5.66 1.26 11.19 3.75 16.66 5.64q16.23 5.6 32.56 10.93c22.15 7.19 44.48 13.89 67 19.76a917.16 917.16 0 0 0 135.22 24.28 1153.77 1153.77 0 0 0 138.88 5.8c43.69-.7 87.84-3.58 130.14-15.23a298.37 298.37 0 0 0 30.27-10.1c1-.41.59-2.1-.46-1.69z" fill="#000000" class="fill-000000"></path><path d="M875.14 162.21c-50.54 20-105.84 24.2-160.18 25-84.49 1.18-169.38-5.59-251.67-24.81-45.37-10.61-89.79-25-133.75-40.41-3.31-1.16-6.8-2.35-10.25-1.72-6.09 1.12-9.68 7.24-12.79 12.6a163.69 163.69 0 0 1-50.87 53.93c-2.4 1.59-5.07 3.43-5.6 6.27-.91 4.79 4.6 8.06 9.18 9.75 177.34 65.34 373.72 78 558 36 11.34-2.59 23.07-5.59 32-13.07 6.36-5.35 10.79-12.59 14.77-19.87a273.36 273.36 0 0 0 18.94-43.2 4.75 4.75 0 0 0-6.27 1.08" fill="#000000" class="fill-000000"></path><path d="M874.91 161.37c-42.57 16.6-88.31 22.22-133.7 24a1165.21 1165.21 0 0 1-141.32-3.23 941 941 0 0 1-141.59-22.42c-23-5.55-45.85-12-68.47-19.13q-17.26-5.4-34.4-11.23-8.42-2.85-16.82-5.77c-5.08-1.77-10.46-4.4-15.86-4.9-9.24-.86-14 7.44-18.05 14.31a163.23 163.23 0 0 1-18.38 25.19 162.09 162.09 0 0 1-22.84 21.21c-3.8 2.89-8.16 5.26-11.74 8.41-2.54 2.23-4.06 5.43-2.78 8.76s4.83 5.48 8 6.86c4.66 2 9.6 3.58 14.39 5.27q15.79 5.56 31.77 10.59 32.21 10.11 65.08 18a990.94 990.94 0 0 0 131.2 22.2 992.71 992.71 0 0 0 134.34 4.47 982.89 982.89 0 0 0 132.92-13.63q16.5-2.84 32.9-6.25c10.67-2.21 21.56-4.22 31.94-7.59 9.43-3.07 18-7.81 24.36-15.55 6.76-8.2 11.42-18 15.89-27.62a305.12 305.12 0 0 0 12.1-30.42 1 1 0 0 0-.45-1.11 5.86 5.86 0 0 0-7.45 1.24c-.83.94.54 2.32 1.38 1.38a3.91 3.91 0 0 1 5.08-.93l-.44-1.1a251.23 251.23 0 0 1-13.39 31.81c-4.79 9.51-9.78 19.83-17.23 27.56s-17.29 11.25-27.3 13.9c-10.4 2.7-21 4.83-31.51 6.94a972.61 972.61 0 0 1-130 17.08 993.44 993.44 0 0 1-130.95-.34 990.76 990.76 0 0 1-130.54-17.73A974.76 974.76 0 0 1 275.36 207c-5.26-1.84-10.57-3.62-15.76-5.65-3.8-1.49-11.1-5.29-7-10.28 1.46-1.79 3.67-3 5.55-4.24s4-2.82 6-4.29q5.83-4.4 11.28-9.26a165.09 165.09 0 0 0 20.07-21.55c3-3.84 5.81-7.81 8.45-11.9 2.47-3.83 4.56-8 7.19-11.68 3.35-4.73 7.55-7.55 13.54-6.21 5.66 1.27 11.19 3.75 16.66 5.64q16.23 5.61 32.56 10.93c22.15 7.19 44.48 13.89 67 19.76a915.85 915.85 0 0 0 135.22 24.28A1155.84 1155.84 0 0 0 715 188.39c43.69-.71 87.84-3.59 130.14-15.24a298.31 298.31 0 0 0 30.27-10.09c1-.41.59-2.1-.46-1.69z" fill="#000000" class="fill-000000"></path><path d="M874.91 161.37c-42.57 16.6-88.31 22.22-133.7 24a1165.21 1165.21 0 0 1-141.32-3.23 941 941 0 0 1-141.59-22.42c-23-5.55-45.85-12-68.47-19.13q-17.26-5.4-34.4-11.23-8.42-2.85-16.82-5.77c-5.08-1.77-10.46-4.4-15.86-4.9-9.24-.86-14 7.44-18.05 14.31a163.23 163.23 0 0 1-18.38 25.19 162.09 162.09 0 0 1-22.84 21.21c-3.8 2.89-8.16 5.26-11.74 8.41-2.54 2.23-4.06 5.43-2.78 8.76s4.83 5.48 8 6.86c4.66 2 9.6 3.58 14.39 5.27q15.79 5.56 31.77 10.59 32.21 10.11 65.08 18a990.94 990.94 0 0 0 131.2 22.2 992.71 992.71 0 0 0 134.34 4.47 982.89 982.89 0 0 0 132.92-13.63q16.5-2.84 32.9-6.25c10.67-2.21 21.56-4.22 31.94-7.59 9.43-3.07 18-7.81 24.36-15.55 6.76-8.2 11.42-18 15.89-27.62a305.12 305.12 0 0 0 12.1-30.42 1 1 0 0 0-.45-1.11 5.86 5.86 0 0 0-7.45 1.24c-.83.94.54 2.32 1.38 1.38a3.91 3.91 0 0 1 5.08-.93l-.44-1.1a251.23 251.23 0 0 1-13.39 31.81c-4.79 9.51-9.78 19.83-17.23 27.56s-17.29 11.25-27.3 13.9c-10.4 2.7-21 4.83-31.51 6.94a972.61 972.61 0 0 1-130 17.08 993.44 993.44 0 0 1-130.95-.34 990.76 990.76 0 0 1-130.54-17.73A974.76 974.76 0 0 1 275.36 207c-5.26-1.84-10.57-3.62-15.76-5.65-3.8-1.49-11.1-5.29-7-10.28 1.46-1.79 3.67-3 5.55-4.24s4-2.82 6-4.29q5.83-4.4 11.28-9.26a165.09 165.09 0 0 0 20.07-21.55c3-3.84 5.81-7.81 8.45-11.9 2.47-3.83 4.56-8 7.19-11.68 3.35-4.73 7.55-7.55 13.54-6.21 5.66 1.27 11.19 3.75 16.66 5.64q16.23 5.61 32.56 10.93c22.15 7.19 44.48 13.89 67 19.76a915.85 915.85 0 0 0 135.22 24.28A1155.84 1155.84 0 0 0 715 188.39c43.69-.71 87.84-3.59 130.14-15.24a298.31 298.31 0 0 0 30.27-10.09c1-.41.59-2.1-.46-1.69z" fill="#000000" class="fill-000000"></path><path d="M875.14 209.75C824.6 229.7 769.3 234 715 234.71c-84.49 1.18-169.38-5.58-251.67-24.81-45.37-10.6-89.79-25-133.75-40.4-3.31-1.17-6.8-2.35-10.25-1.72-6.09 1.11-9.68 7.24-12.79 12.59a163.69 163.69 0 0 1-50.87 53.93c-2.4 1.59-5.07 3.44-5.6 6.27-.91 4.8 4.6 8.07 9.18 9.75 177.34 65.34 373.72 78 558 36 11.34-2.58 23.07-5.59 32-13.07 6.36-5.34 10.79-12.59 14.77-19.87a273.36 273.36 0 0 0 18.94-43.2 4.74 4.74 0 0 0-6.27 1.09" fill="#32a16b" class="fill-18c4ff"></path><path d="M874.91 208.9c-42.57 16.6-88.31 22.23-133.7 24a1161.16 1161.16 0 0 1-141.32-3.23 938.45 938.45 0 0 1-141.59-22.42c-23-5.55-45.85-12-68.47-19.12q-17.26-5.41-34.4-11.23-8.42-2.85-16.82-5.78c-5.08-1.76-10.46-4.4-15.86-4.9-9.24-.86-14 7.44-18.05 14.32a162.74 162.74 0 0 1-41.22 46.39c-3.8 2.9-8.16 5.27-11.74 8.42-2.54 2.22-4.06 5.43-2.78 8.75s4.83 5.48 8 6.86c4.66 2.06 9.6 3.58 14.39 5.27q15.79 5.58 31.77 10.59 32.21 10.13 65.08 18A992.61 992.61 0 0 0 499.36 307a996 996 0 0 0 134.34 4.47 984.51 984.51 0 0 0 132.92-13.64q16.5-2.83 32.9-6.24c10.67-2.22 21.56-4.23 31.94-7.6 9.43-3.06 18-7.81 24.36-15.55 6.76-8.2 11.42-18 15.89-27.62a304.16 304.16 0 0 0 12.1-30.42 1 1 0 0 0-.45-1.1 5.83 5.83 0 0 0-7.45 1.24c-.83.93.54 2.32 1.38 1.38a3.91 3.91 0 0 1 5.08-.94l-.44-1.1a251.37 251.37 0 0 1-13.39 31.82c-4.79 9.5-9.78 19.82-17.23 27.56s-17.25 11.31-27.26 13.91c-10.4 2.7-21 4.83-31.51 6.95a974.24 974.24 0 0 1-130 17.08 993.44 993.44 0 0 1-130.95-.35 987.42 987.42 0 0 1-130.52-17.73 973.15 973.15 0 0 1-125.69-34.57c-5.26-1.83-10.57-3.62-15.76-5.65-3.8-1.48-11.1-5.29-7-10.28 1.46-1.79 3.67-3 5.55-4.24s4-2.82 6-4.29q5.83-4.38 11.28-9.25a165.17 165.17 0 0 0 20.07-21.56c3-3.84 5.81-7.8 8.45-11.89 2.47-3.84 4.56-8 7.19-11.69 3.35-4.73 7.55-7.55 13.54-6.21 5.66 1.27 11.19 3.75 16.66 5.64q16.23 5.61 32.56 10.93c22.15 7.2 44.48 13.89 67 19.76a914.55 914.55 0 0 0 135.22 24.28A1151.72 1151.72 0 0 0 715 235.92c43.69-.7 87.84-3.58 130.14-15.23a298.37 298.37 0 0 0 30.27-10.1c1-.41.59-2.1-.46-1.69z" fill="#32a16b" class="fill-18c4ff"></path><path d="M874.91 208.9c-42.57 16.6-88.31 22.23-133.7 24a1161.16 1161.16 0 0 1-141.32-3.23 938.45 938.45 0 0 1-141.59-22.42c-23-5.55-45.85-12-68.47-19.12q-17.26-5.41-34.4-11.23-8.42-2.85-16.82-5.78c-5.08-1.76-10.46-4.4-15.86-4.9-9.24-.86-14 7.44-18.05 14.32a162.74 162.74 0 0 1-41.22 46.39c-3.8 2.9-8.16 5.27-11.74 8.42-2.54 2.22-4.06 5.43-2.78 8.75s4.83 5.48 8 6.86c4.66 2.06 9.6 3.58 14.39 5.27q15.79 5.58 31.77 10.59 32.21 10.13 65.08 18A992.61 992.61 0 0 0 499.36 307a996 996 0 0 0 134.34 4.47 984.51 984.51 0 0 0 132.92-13.64q16.5-2.83 32.9-6.24c10.67-2.22 21.56-4.23 31.94-7.6 9.43-3.06 18-7.81 24.36-15.55 6.76-8.2 11.42-18 15.89-27.62a304.16 304.16 0 0 0 12.1-30.42 1 1 0 0 0-.45-1.1 5.83 5.83 0 0 0-7.45 1.24c-.83.93.54 2.32 1.38 1.38a3.91 3.91 0 0 1 5.08-.94l-.44-1.1a251.37 251.37 0 0 1-13.39 31.82c-4.79 9.5-9.78 19.82-17.23 27.56s-17.25 11.31-27.26 13.91c-10.4 2.7-21 4.83-31.51 6.95a974.24 974.24 0 0 1-130 17.08 993.44 993.44 0 0 1-130.95-.35 987.42 987.42 0 0 1-130.52-17.73 973.15 973.15 0 0 1-125.69-34.57c-5.26-1.83-10.57-3.62-15.76-5.65-3.8-1.48-11.1-5.29-7-10.28 1.46-1.79 3.67-3 5.55-4.24s4-2.82 6-4.29q5.83-4.38 11.28-9.25a165.17 165.17 0 0 0 20.07-21.56c3-3.84 5.81-7.8 8.45-11.89 2.47-3.84 4.56-8 7.19-11.69 3.35-4.73 7.55-7.55 13.54-6.21 5.66 1.27 11.19 3.75 16.66 5.64q16.23 5.61 32.56 10.93c22.15 7.2 44.48 13.89 67 19.76a914.55 914.55 0 0 0 135.22 24.28A1151.72 1151.72 0 0 0 715 235.92c43.69-.7 87.84-3.58 130.14-15.23a298.37 298.37 0 0 0 30.27-10.1c1-.41.59-2.1-.46-1.69z" fill="#000000" class="fill-000000"></path><path d="M875.14 257.28c-50.54 20-105.84 24.2-160.18 25-84.49 1.19-169.38-5.58-251.67-24.81-45.37-10.6-89.79-24.94-133.75-40.4-3.31-1.16-6.8-2.35-10.25-1.72-6.09 1.11-9.68 7.24-12.79 12.59a163.69 163.69 0 0 1-50.87 53.93c-2.4 1.6-5.07 3.44-5.6 6.28-.91 4.79 4.6 8.06 9.18 9.75 177.34 65.33 373.72 78 558 36 11.34-2.58 23.07-5.59 32-13.07 6.36-5.34 10.79-12.58 14.77-19.87a272.56 272.56 0 0 0 18.94-43.2 4.76 4.76 0 0 0-6.27 1.09" fill="#ffffff" class="fill-ffffff"></path><path d="M874.91 256.44c-42.57 16.6-88.31 22.22-133.7 24a1165.21 1165.21 0 0 1-141.32-3.23 939.74 939.74 0 0 1-141.59-22.43c-23-5.54-45.85-12-68.47-19.12q-17.26-5.4-34.4-11.23-8.42-2.85-16.82-5.77c-5.08-1.77-10.46-4.41-15.86-4.91-9.24-.85-14 7.45-18.05 14.32a163 163 0 0 1-41.22 46.4c-3.8 2.89-8.16 5.26-11.74 8.41-2.54 2.23-4.06 5.43-2.78 8.76s4.83 5.47 8 6.86c4.66 2.05 9.6 3.58 14.39 5.27q15.79 5.57 31.77 10.58 32.21 10.13 65.08 18a994.22 994.22 0 0 0 131.2 22.2A994.34 994.34 0 0 0 633.7 359a984.5 984.5 0 0 0 132.92-13.63q16.5-2.83 32.9-6.25c10.67-2.22 21.56-4.23 31.94-7.6 9.43-3.06 18-7.81 24.36-15.54 6.76-8.2 11.42-18.05 15.89-27.63a303.21 303.21 0 0 0 12.1-30.42 1 1 0 0 0-.45-1.1 5.86 5.86 0 0 0-7.45 1.24c-.83.93.54 2.32 1.38 1.38a3.91 3.91 0 0 1 5.08-.93l-.44-1.1a251.23 251.23 0 0 1-13.39 31.81c-4.79 9.51-9.78 19.83-17.23 27.56s-17.25 11.31-27.26 13.91c-10.4 2.71-21 4.83-31.51 7a974.24 974.24 0 0 1-130 17.08 993.44 993.44 0 0 1-130.95-.34 990.76 990.76 0 0 1-130.52-17.73 976.37 976.37 0 0 1-125.71-34.61c-5.26-1.84-10.57-3.62-15.76-5.65-3.8-1.49-11.1-5.29-7-10.28 1.46-1.79 3.67-3 5.55-4.25s4-2.81 6-4.29q5.83-4.38 11.28-9.25a165.73 165.73 0 0 0 20.07-21.55c3-3.85 5.81-7.81 8.45-11.9 2.47-3.84 4.56-8 7.19-11.68 3.35-4.73 7.55-7.56 13.54-6.21 5.66 1.26 11.19 3.75 16.66 5.64q16.23 5.61 32.56 10.93c22.15 7.19 44.48 13.89 67 19.76a917.16 917.16 0 0 0 135.22 24.28 1153.77 1153.77 0 0 0 138.88 5.8c43.69-.7 87.84-3.58 130.14-15.23a298.37 298.37 0 0 0 30.27-10.1c1-.41.59-2.09-.46-1.68z" fill="#000000" class="fill-000000"></path><g fill="#32a16b" class="fill-18c4ff"><path d="M624.13 598.43c78.65 70 159.33 142.67 204.58 237.74 2.41 5.05 4.84 10.34 9.14 13.92 6.39 5.33 15 5.6 23.46 4.22a8.9 8.9 0 0 1 9.53 12.69 23.49 23.49 0 0 1-2.12 3.47c-3.88 5.28-9.45 9-14.9 12.65l-20.32 13.49c-3 2-6.12 4.06-9.65 4.94-12.31 3-22.78-8.66-30.64-18.61a312.77 312.77 0 0 0-49.09-49.58c-21-16.9-45.44-32.84-54.06-58.34-1.29-3.81-2.23-7.84-4.61-11.07-3.09-4.2-8.11-6.42-12.81-8.67a178.65 178.65 0 0 1-82.32-81.41c-11.63-23.59-17.54-52.8-4.42-75.6"></path><path d="M623.45 599.11c21.06 19.15 42.2 38.21 62.84 57.82 20.48 19.47 40.44 39.55 59.24 60.66a584.72 584.72 0 0 1 51.6 66.35c7.75 11.73 15 23.77 21.74 36.14 3.32 6.12 6.4 12.35 9.42 18.63s6.5 12.22 12.89 15.28c6.08 2.92 13 2.86 19.5 1.91 2.9-.42 5.57 0 7.65 2.21A7.28 7.28 0 0 1 870 865c-1 3.3-3.66 6.26-6.09 8.58a64.41 64.41 0 0 1-8.7 6.74c-6.63 4.49-13.32 8.88-20 13.32-5.65 3.77-11.46 8.1-18.64 6.52-6.25-1.37-11.36-5.9-15.62-10.43-4.74-5-8.81-10.64-13.27-15.92q-7.32-8.65-15.25-16.76A335 335 0 0 0 739.72 828c-10.16-8-20.57-15.77-29.66-25a90.79 90.79 0 0 1-11.78-14.46 73.49 73.49 0 0 1-7.93-17.54 25.79 25.79 0 0 0-4.42-8.88 25.23 25.23 0 0 0-7.8-5.85c-5.77-3-11.68-5.7-17.32-9a177.74 177.74 0 0 1-57.11-53.45 151.42 151.42 0 0 1-18.3-35.68c-4.43-13-6.88-27.12-4.62-40.78a55.41 55.41 0 0 1 6.43-18.36 1.52 1.52 0 0 0-2.63-1.54c-14.17 24.91-6.61 55.68 5.72 79.69A180.42 180.42 0 0 0 641.52 738a177.45 177.45 0 0 0 16.54 11.17c5.75 3.42 11.74 6.26 17.69 9.29a24 24 0 0 1 8 5.81c2.29 2.78 3.26 6.35 4.33 9.71a68.35 68.35 0 0 0 8.29 17.16c7.26 10.87 17.08 19.72 27.16 27.9 10.82 8.77 22 17 32.37 26.36a312.79 312.79 0 0 1 31.74 33.07c4.46 5.39 8.59 11.09 13.68 15.94 4.45 4.24 9.82 8.1 16.06 8.94 7.26 1 13.05-2.94 18.81-6.77 6.83-4.55 13.69-9.06 20.49-13.66 5.82-3.94 11.83-8.38 15.17-14.76a10.45 10.45 0 0 0-3.79-14c-2.74-1.62-5.5-1.49-8.53-1.07a38.34 38.34 0 0 1-10.59.17 20.46 20.46 0 0 1-9.61-3.82 25.29 25.29 0 0 1-6.51-8.22c-3.39-6.22-6.22-12.76-9.46-19.06s-6.69-12.59-10.27-18.76c-14.4-24.73-31.33-47.94-49.63-69.92a824.42 824.42 0 0 0-58.77-62.94c-20.79-20.25-42.36-39.69-64.09-58.93-5.26-4.65-10.55-9.25-15.84-13.85-.93-.81-2.29.52-1.36 1.36z"></path><path d="M607.76 602.73c3.72 9.53 12.25 38.18 18.51 46.27 25.76 33.3 50 78.26 56.54 120.29 5.84 37.67-12.6 73-37 100.37-13.9 15.57-29.86 29.12-46.26 42C583.77 924 566 933.32 550.4 945.81c-5.57 4.46-10.08 11-10 18.1.06 3.91.89 9-2.66 10.68a6 6 0 0 1-3.73.22c-5.85-1.2-10-6.26-13.54-11.06-5-6.7-9.84-13.64-12.54-21.52s-3-17 1-24.29c3-5.51 8.05-9.53 12.73-13.7 39.52-35.24 58.64-89.73 100.24-122.5-80.11-57.51-76.61-104-76.71-158.74 0-11.14 0 0 5.06-9.92"></path><path d="M606.93 603c2.71 7.3 5 14.77 7.53 22.11 2.67 7.59 5.28 15.6 9.45 22.53 2.51 4.17 5.82 7.93 8.63 11.9q5.15 7.28 9.9 14.79a335.43 335.43 0 0 1 18.28 32.58 257.79 257.79 0 0 1 13.92 34.48c3.61 11.34 6.65 23.2 7.55 35.1 1.77 23.38-5.83 46.22-17.87 66-12.77 21-30.28 38.6-48.92 54.42a343.33 343.33 0 0 1-31 23.81c-10.64 7.12-21.62 13.76-31.8 21.55-4.46 3.4-8.7 7-11.29 12.14a21.41 21.41 0 0 0-2.24 7.24c-.28 2.44.08 4.87 0 7.31-.11 2.7-1.05 5-4.22 4.56a13.92 13.92 0 0 1-7.24-3.68c-4.33-3.83-7.69-9-10.89-13.76-6.74-10-12.35-22.79-7.74-34.91 2.11-5.54 6.58-9.65 10.92-13.48 4.13-3.65 8.17-7.38 12-11.37 15-15.68 27.09-33.88 39.19-51.83s24.34-36 39.84-51.15a148.11 148.11 0 0 1 12-10.56 1.44 1.44 0 0 0-.29-2.24c-25.84-18.6-50.67-41.14-64.07-70.61-9.6-21.12-11.65-44.11-11.88-67-.06-6.48 0-13 0-19.46a27.74 27.74 0 0 0 0-5c0-.18.09-.16 0-.21.17.13-1 1.07-1.35.75.14.13.67.13.81.13 2.68.08 4.32-3.34 5.33-5.28.86-1.65-1.63-3.11-2.49-1.46a11.2 11.2 0 0 1-2.5 3.71c-.2.17-.48.19-.23.15-.33.06.29 0 0 0a2.93 2.93 0 0 0-.41-.07c-2-.07-2.08 1.8-2.11 3.37-.12 6.18 0 12.38 0 18.55a286.54 286.54 0 0 0 1.73 34.66 133.5 133.5 0 0 0 8.76 34.4 135.75 135.75 0 0 0 21 34.46c13.16 15.95 29.17 29.36 45.9 41.39l-.29-2.24c-17.42 13.78-31.07 31.49-43.64 49.64-12.77 18.44-24.61 37.62-39.13 54.78-3.63 4.29-7.42 8.45-11.41 12.41s-8.52 7.61-12.61 11.61-7.48 8.76-8.8 14.48a34.55 34.55 0 0 0 .92 17.76 63.05 63.05 0 0 0 8.49 16.54c3.19 4.7 6.52 9.76 10.74 13.61 3.29 3 9.47 6.8 13.84 3.77 3.8-2.64 2.57-8.17 2.65-12.07.13-6 3.71-11.28 8-15.16 4.82-4.38 10.42-8 15.81-11.69 11-7.42 22.41-14.27 33-22.34 20.41-15.6 40.29-32.76 56.2-53 14.43-18.39 26-39.87 29.39-63.24 3.54-24.08-3-48.35-11.65-70.69a308.63 308.63 0 0 0-36.1-66.37c-3.18-4.49-6.73-8.73-9.85-13.25a55.51 55.51 0 0 1-4.9-9.51c-3.69-8.54-6.65-17.39-9.71-26.17-1.09-3.14-2.21-6.28-3.46-9.36-.4-1-2.05-.6-1.66.45z"></path></g><path d="M384.48 606.3A193.48 193.48 0 0 1 414 723.15c-1.53 21.25-7.1 43.16-21.34 59-13.3 14.8-33 22.79-52.77 25s-39.78-1-59.13-5.61a393.65 393.65 0 0 1-115.86-48.29c-8.91-5.52-19.7-11.61-29.23-7.22-5.47 2.52-11.68 8.24-16.33 4.4-3-2.47-2.4-7.13-1.41-10.87A152.55 152.55 0 0 1 128.68 711c1.74-3.51 3.72-7.07 6.88-9.37 5-3.61 11.68-3.35 17.82-2.93l114.47 7.84c13.28.9 27.54 2.2 37.68 10.8 8.86 7.52 16.48 20.95 27.77 18.22a272.27 272.27 0 0 1-17.1-130.88" fill="#ffffff" class="fill-ffffff"></path><path d="M383.69 606.76A197.47 197.47 0 0 1 409.8 674a190 190 0 0 1 3.35 35.85 154.26 154.26 0 0 1-3.63 34.74c-2.55 11-6.71 21.69-13.28 30.93A68.6 68.6 0 0 1 371 796.78c-22.56 11.37-48.64 11.27-73 7-25-4.38-49.56-12-73.05-21.5q-17.53-7.1-34.33-15.88-8.28-4.33-16.35-9c-5.28-3.08-10.38-6.52-15.8-9.37-5-2.63-10.55-4.92-16.29-4.76a18.7 18.7 0 0 0-7.93 2c-2.36 1.18-4.55 2.68-6.92 3.84-2 1-4.57 2-6.65.67s-2.37-4-2.15-6.35a44.63 44.63 0 0 1 2-8.33q1.44-4.79 3.19-9.48a112.62 112.62 0 0 1 7.83-17.3 16.87 16.87 0 0 1 5.62-6.21 17.71 17.71 0 0 1 8-2.26c6.21-.42 12.58.45 18.78.87l21.05 1.44q41.45 2.88 82.9 5.8c10.92.77 22.57 1.61 32.22 7.29 8.54 5 13.46 14.24 21.82 19.47a15.45 15.45 0 0 0 11.8 2.25 1.49 1.49 0 0 0 1-1.82A272.08 272.08 0 0 1 315.91 634a268.42 268.42 0 0 1 1.8-29.31c.22-1.93-2.8-1.91-3 0a273.73 273.73 0 0 0 7.9 103.41 270.78 270.78 0 0 0 9.29 27.86l1-1.82c-4.49 1-8.58-.93-12-3.72-3.9-3.17-7.14-7.07-10.66-10.64a40.89 40.89 0 0 0-12.8-9.11 62 62 0 0 0-16.18-4.28c-6-.85-12.08-1.19-18.13-1.59l-21.24-1.41-42.49-2.85-42.48-2.88c-5.78-.4-12-1.19-17.57.65s-8.83 6.2-11.37 11.2a148.12 148.12 0 0 0-7.8 18.3c-1.1 3.15-2.11 6.33-3 9.54a26.9 26.9 0 0 0-1.36 7.74c.1 4.83 3.6 8.69 8.64 7.82 5.43-.94 9.43-5.48 14.78-6.68 6-1.35 12.19 1.09 17.43 3.81 5.58 2.89 10.82 6.44 16.25 9.61q16.59 9.72 34.09 17.76a395.79 395.79 0 0 0 72.6 25.24c25.33 6.11 52.4 9.89 77.86 2.35a81.58 81.58 0 0 0 29.7-15.63A72.17 72.17 0 0 0 406.75 762a117.46 117.46 0 0 0 8.09-33.56 185.26 185.26 0 0 0 .08-36.78 194.71 194.71 0 0 0-20.6-70.32 177.33 177.33 0 0 0-9.05-15.49c-.64-1-2.2-.08-1.58.92z" fill="#000000" class="fill-000000"></path><path d="M295.89 592.25c-8.88 29.15-10.46 61-1.23 90 12.39 39 42.64 69.62 59.82 106.73C373 828.93 376 875.63 400.35 912.26c6.71 10.1 14.87 19.14 23 28.14l20.14 22.32a13.58 13.58 0 0 0 4.56 3.75c2.89 1.2 6.18.28 9.13-.75a141.24 141.24 0 0 0 36.56-19.17c3-2.2 6.17-4.91 6.59-8.61.55-4.81-3.87-8.83-8.4-10.56s-9.56-2.13-13.8-4.49c-7.69-4.29-10.67-13.67-13-22.17Q449 841.6 432.94 782.5c-6.37-23.37-12.76-46.81-22.11-69.14-16.22-38.73-41.18-73.77-53.09-114" fill="#ffffff" class="fill-ffffff"></path><path d="M295 592c-7.9 25.58-10.3 53.09-4.58 79.39 5.25 24.17 17.95 45.48 31.36 65.94s27.35 40.6 36.22 63.54 13.92 47.15 21.73 70.47a193.68 193.68 0 0 0 14.24 33.22c6.34 11.32 14.49 21.36 23.09 31 4.68 5.26 9.41 10.46 14.13 15.67l7.37 8.16c2.13 2.35 4.14 5 6.63 7 5.1 4.05 11.51 1.17 16.82-.89a144 144 0 0 0 17.58-8.21 123.47 123.47 0 0 0 16.12-10.41c4-3.09 7.56-7.59 5.55-12.88-1.94-5.13-7.27-7.69-12.22-9-3.12-.85-6.38-1.42-9.3-2.85a17.49 17.49 0 0 1-6.1-5c-3.39-4.3-5.12-9.73-6.59-14.93-1.94-6.84-3.76-13.71-5.63-20.57l-11.61-42.52c-7.59-27.8-14.83-55.72-22.94-83.37A415.85 415.85 0 0 0 413.29 716c-5.21-12.84-11.46-25.18-17.89-37.45-3.21-6.15-6.49-12.27-9.73-18.4-.7-1.33-2.71-.16-2 1.17 6.42 12.18 12.88 24.31 18.84 36.72a332.65 332.65 0 0 1 15.55 38.35c8.81 26.27 15.46 53.28 22.73 80l22.53 82.92c2.68 9.69 5.68 21.19 15.8 25.63 5.26 2.32 11.63 2.33 16.25 6 2.15 1.71 4 4.28 3.5 7.17-.48 2.72-2.72 4.77-4.79 6.4-10.05 7.89-21.92 14-33.84 18.54-2.86 1.08-6.08 2.58-9.2 2.52-3.52-.07-5.57-2.86-7.73-5.26l-14-15.52c-9-9.95-18.25-19.73-25.95-30.72a151.36 151.36 0 0 1-16.66-31.87c-8.7-22.2-13.7-45.64-21.09-68.29a219.57 219.57 0 0 0-13.44-32.84 345 345 0 0 0-18.4-30.61c-13-19.76-26.84-39.32-35.34-61.54-9.45-24.69-10.82-51.79-6.1-77.67a179.87 179.87 0 0 1 4.5-18.74A1 1 0 0 0 295 592zM333.9 304.09c-.63-5.52-1.2-11.47.49-16.87.44-1.42 2.21-6.67 4.46-5.9 1.08.36.48 3 .43 3.89-.1 1.72-.22 3.44-.33 5.15-.08 1.34 2.12 1.67 2.37.32 1.37-7.27 3.8-15.37 10.66-19.29.84-.48 3.2-1.9 4.2-1.13s-2.43 3.64-2.93 4.27a23.31 23.31 0 0 0-4.48 9.86c-.3 1.55 2 2.22 2.4.66a18.39 18.39 0 0 1 8.73-11.47c.55-.31 3.23-1.76 3.15-.27 0 .63-.91 1.62-1.22 2.13l-1.27 2.08-5.11 8.33 2.25 1.32a41.6 41.6 0 0 1 3.93-6.66 38.62 38.62 0 0 1 2.51-3.07c.66-.73 1.86-2.37 3-2.26 2.27.22-.89 5.62-1.34 6.52-1.31 2.6-2.74 5.14-4.27 7.62-.93 1.49 1.41 2.85 2.34 1.37l3.56-5.7c.55-.9 1.09-1.8 1.67-2.68.41-.63 1.2-1.92 2.14-1.71 1.36.31 1.06 4.07 1 5.08a19.6 19.6 0 0 1-1.56 5.77 52 52 0 0 1-13 17.6 79.24 79.24 0 0 1-9.92 7.38 1.33 1.33 0 0 0 1.34 2.3c7.74-3.82 14.39-10.43 19.32-17.43a38.15 38.15 0 0 0 6.05-12.05 17.84 17.84 0 0 0 .5-6.78c-.27-2-.93-4.17-3.16-4.58-2.56-.47-4.21 1.68-5.4 3.6l-4.84 7.83 2.34 1.37a96.74 96.74 0 0 0 5.37-10c1.14-2.46 2.58-6.36-.73-7.9-3.05-1.42-5.84 2.21-7.49 4.24a42.43 42.43 0 0 0-5.56 8.8 1.31 1.31 0 0 0 2.25 1.32l6.6-10.85c.86-1.42 1.93-3.08.9-4.71a3.69 3.69 0 0 0-4.09-1.33c-3 .75-5.9 3.25-7.87 5.54a21.07 21.07 0 0 0-4.47 8.57l2.4.66a20.8 20.8 0 0 1 4.45-9.59c1-1.23 2.55-2.32 3.05-3.9a2.84 2.84 0 0 0-1.39-3.45c-2.61-1.34-6.08.72-8.14 2.24a22 22 0 0 0-6.29 7.48A43.46 43.46 0 0 0 339 290l2.37.32q.21-3.27.43-6.56c.12-1.59.28-3.27-1.13-4.34-3.06-2.34-6 1.16-7.33 3.66-3.41 6.59-2.25 14.2-1.17 21.21.15 1 1.85.76 1.74-.24zM600.77 492.25a267.61 267.61 0 0 0-49.68 8.75c-5.4 1.49-10.88 3.21-15.41 6.51-12.14 8.82-14.17 26-13.58 41a218.72 218.72 0 0 0 8.47 52.18c2 6.94 4.72 14.25 10.64 18.38 5.48 3.82 12.59 4.13 19.27 4.25 20.11.35 50-.26 65.17-13.49a26 26 0 0 0 6.91-8.85c1.59-3.61 2-7.62 2.35-11.55 1.47-16.32-5.38-33-4.8-49.33.34-9.5.49-19.26-2.73-28.21s-11.3-20.94-24.75-19.59" fill="#000000" class="fill-000000"></path><path d="M600.77 491.4a259.91 259.91 0 0 0-47.93 7.75c-7 1.81-14.07 3.82-19.69 8.52a32.41 32.41 0 0 0-9.46 14.39c-4.4 12.55-3.46 26.62-2.17 39.61a221.52 221.52 0 0 0 3.76 24.19c1.55 7.31 3.26 14.8 6 21.76 2.41 6.09 6.13 11.74 12.32 14.48s13 2.64 19.52 2.72c12 .13 24.12-.22 36-2.38 11.29-2.07 23.31-6 31-15a23.37 23.37 0 0 0 5-9.52 54.53 54.53 0 0 0 1.42-11.46c.25-7.73-1.12-15.42-2.46-23s-2.77-15.5-2.52-23.38c.24-7.72.41-15.51-1.23-23.1-2.23-10.37-8.61-21.68-19.23-25.24a20.75 20.75 0 0 0-8.5-.93c-1.87.18-1.89 3.12 0 2.94a18.84 18.84 0 0 1 14.6 5 33.05 33.05 0 0 1 8 11.78c2.75 6.57 3.47 13.74 3.52 20.8 0 3.69-.22 7.37-.2 11.05a82.82 82.82 0 0 0 .86 10.9c1 7.38 2.65 14.65 3.55 22s1.12 15.14-.83 22.28c-3.18 11.62-15.88 17.53-26.54 20.38-11.15 3-22.84 3.74-34.34 3.89-5.79.07-11.66.17-17.43-.34-6.46-.58-12.48-2.77-16.29-8.28s-5.42-12.2-7.07-18.53a221.14 221.14 0 0 1-4.59-22.68 215.07 215.07 0 0 1-2.22-23.08 86.24 86.24 0 0 1 .82-17.81 40.84 40.84 0 0 1 5.68-15.68c3.48-5.33 8.6-8.84 14.52-11a164.61 164.61 0 0 1 21.74-5.9c7.5-1.65 15.08-3 22.69-4.08 3.89-.54 7.79-1 11.7-1.34 1.07-.1 1.1-1.77 0-1.7z" fill="#000000" class="fill-000000"></path><path d="M395.9 504.78c-5.15-4.44-11.23-7.65-17.24-10.82-9.41-5-19-10-29.37-12.19s-22-1.28-30.62 4.89c-9.52 6.77-14 18.46-17.92 29.47-7.59 21.23-15.16 43.14-14.23 65.66.22 5.48 1 11.07 3.53 15.94 3.59 6.91 10.33 11.62 17.21 15.27a106.44 106.44 0 0 0 66.23 11c4.94-.79 10.07-2.06 13.73-5.47 6.65-6.22 6-16.69 6.07-25.8a96.66 96.66 0 0 1 6.35-33.38c3.46-9.07 8.34-17.79 9.51-27.42s-2.71-20.88-11.81-24.27" fill="#32a16b" class="fill-18c4ff"></path><path d="M396.51 504.17c-5.64-4.95-12.29-8.55-18.87-12.08-6.78-3.65-13.65-7.27-21-9.73-13.06-4.4-28.6-4.93-40 3.93-10.7 8.33-14.88 22.31-19.21 34.58-5.34 15.13-10.3 30.56-12 46.59-.8 7.68-1.06 15.77.56 23.36A29.93 29.93 0 0 0 297 608.14c5.49 4.4 11.91 7.62 18.38 10.33a107.17 107.17 0 0 0 21.35 6.41 109.19 109.19 0 0 0 22.17 1.91A103.54 103.54 0 0 0 370 626a56 56 0 0 0 10.44-2 19.87 19.87 0 0 0 8.57-5.13 19.41 19.41 0 0 0 4.28-7.82c1.77-6.06 1.37-12.5 1.47-18.73a95.36 95.36 0 0 1 3.38-23.63c2.07-7.53 5.35-14.54 8.27-21.76 2.6-6.43 4.82-13.34 4.33-20.36-.4-5.69-2.32-11.5-6.26-15.72a18.06 18.06 0 0 0-6.78-4.51c-1.72-.66-2.47 2.11-.76 2.77 5.06 1.94 8.32 6.76 9.81 11.8 1.74 5.86 1.17 11.85-.51 17.65-2.05 7.06-5.44 13.61-8.05 20.45a97.47 97.47 0 0 0-5.51 21.73c-.91 6.76-.74 13.48-1 20.28-.21 5.72-1 12.06-5.29 16.27-4.73 4.63-12.32 5.38-18.58 6a105.75 105.75 0 0 1-21.42 0A103.44 103.44 0 0 1 306.61 611c-5.61-3.12-11.13-7-14.51-12.61-3.75-6.2-4.21-13.75-4.18-20.81.08-15.35 3.93-30.37 8.67-44.87q3.38-10.33 7.18-20.54c2.22-5.91 4.75-11.8 8.47-16.94a30.22 30.22 0 0 1 14.65-11.09 40.88 40.88 0 0 1 19.43-1.44c7.2 1.12 14.11 3.75 20.7 6.8s13 6.29 19.3 9.86a62.43 62.43 0 0 1 9 6.06c.84.7 2.06-.48 1.22-1.22z" fill="#32a16b" class="fill-18c4ff"></path><path d="M365.15 469.69a14.09 14.09 0 0 1-9.53 1.66 7.24 7.24 0 0 1-4.17-2 3.73 3.73 0 0 1-.59-4.37c-2.61-.83-5.33-1.75-7.17-3.77s-2.34-5.53-.32-7.37c-3 .46-5.77-2.24-6.3-5.21s.64-6 2.21-8.56a10.9 10.9 0 0 1 2.58-16.54 3.71 3.71 0 0 0 1.4-1.13 3.6 3.6 0 0 0 .36-1.5 11.09 11.09 0 0 1 11.77-9.35c.21-3.43 3.79-5.55 7-6.71a17.7 17.7 0 0 1 6.55-1.33 7.83 7.83 0 0 1 5.94 2.68 12.58 12.58 0 0 1 18.17-.06 8.5 8.5 0 0 1 14.09 7.62 4.49 4.49 0 0 1 4.44 7.78 4.39 4.39 0 1 1 1.56 8.58 3.75 3.75 0 0 1-.86 7.36 3.48 3.48 0 0 1 .07 4.71 6.56 6.56 0 0 1-4.69 2c.37 1-.88 1.9-1.94 2.2a14.71 14.71 0 0 1-10.26-.85" fill="#000000" class="fill-000000"></path><path d="M364.68 468.88a13.36 13.36 0 0 1-8.31 1.35c-2-.31-5.91-1.89-4.35-4.61a1.37 1.37 0 0 0-.81-2c-2.29-.77-4.89-1.58-6.53-3.47-1.26-1.45-1.8-3.91-.31-5.38.8-.79.26-2.56-1-2.42a4.63 4.63 0 0 1-4.8-3.66c-.74-2.76.58-5.64 2-8a1.5 1.5 0 0 0-.23-1.76 9.57 9.57 0 0 1-1.84-8.93 9.46 9.46 0 0 1 2.35-3.88c1.08-1.09 2.79-1.64 3.63-2.93s.63-2.82 1.15-4.17a9.71 9.71 0 0 1 9.79-6c.89.08 1.45-.79 1.54-1.54.34-3.07 4.27-4.61 6.77-5.44 3.34-1.11 7.5-1.79 10 1.26a1.68 1.68 0 0 0 2.34 0c4.23-4.29 11.56-4.51 15.74 0a1.79 1.79 0 0 0 2.15.28c2.21-1.66 5.3-2.4 7.82-.95a7.27 7.27 0 0 1 3.34 7c-.16 1.67 1.82 2.35 3.07 1.76 2.51-1.2 4.56 2.64 2.37 4.24-1.8 1.33-.81 4.38 1.59 3.77a2.33 2.33 0 1 1 1 4.52 2.08 2.08 0 0 0-.55 4.07 1.68 1.68 0 0 1-.31 3.25 2.14 2.14 0 0 0-1.48 3.6c.51.53.23 1.39-.18 1.92a4.33 4.33 0 0 1-3 1.3 2 2 0 0 0-1.9 2.5c-.17-.69.28-.51-.47-.22a8.55 8.55 0 0 1-1.11.27 12.16 12.16 0 0 1-2.62.23 13.4 13.4 0 0 1-5.14-1.1 2 2 0 0 0-2.62.69 1.94 1.94 0 0 0 .69 2.62 16.49 16.49 0 0 0 9.17 1.57c2.87-.35 6.5-1.52 5.91-5.11l-1.91 2.5c2.6-.09 5.38-.94 6.86-3.25a5.56 5.56 0 0 0-.75-6.9l-1.49 3.59a5.84 5.84 0 0 0 1.41-11.46l-.55 4.07c3.74-.44 6.81-3.87 6-7.77a6.7 6.7 0 0 0-8.08-4.87l1.59 3.77a6.53 6.53 0 0 0-6-11.53l2.5 2.51a10.34 10.34 0 0 0-17.31-9.42h2.51a15.36 15.36 0 0 0-10.32-4.29 14.87 14.87 0 0 0-10.26 4.54h2.34c-3.42-4.06-9.16-3.49-13.67-1.9-4 1.39-8.19 3.8-8.55 8.43l1.53-1.54a12.54 12.54 0 0 0-13 9.47c-.19.83 0 2-.77 2.48a15.89 15.89 0 0 0-4.09 3.62 12.26 12.26 0 0 0-2.15 4.85 12.77 12.77 0 0 0 2.91 10.67l-.22-1.77c-1.89 3.17-3.4 7.21-2 10.86 1.13 3 4 5.45 7.35 5.07l-1-2.42c-2.21 2.21-2.12 5.76-.49 8.29 1.92 3 5.43 4.15 8.63 5.15l-.8-2c-2 3.61 1 7 4.43 8a14.77 14.77 0 0 0 11.5-1.79.94.94 0 0 0-.95-1.62z" fill="#000000" class="fill-000000"></path><path d="M593 484.45a124.14 124.14 0 0 0-5.06 18.36 3 3 0 0 1-.55 1.43 2.8 2.8 0 0 1-2.07.68 26.32 26.32 0 0 1-12.83-3.17 39.46 39.46 0 0 1-10.49-8.22 78.32 78.32 0 0 0 9.42-18.16c.09-.25.11-.63-.15-.69" fill="#ffffff" class="fill-ffffff"></path><path d="M582 506.59a1 1 0 0 0 0-2 1 1 0 0 0 0 2z" fill="#ffffff" class="fill-ffffff"></path><path d="M592.23 484a50.25 50.25 0 0 0-4.18 11.44c-.53 2-1 4-1.4 6-.17.85 0 1.81-1 1.93a14.26 14.26 0 0 1-2.77 0c-7.82-.62-14.57-5.29-19.8-10.86l.23 1.77a78.65 78.65 0 0 0 6-10.43c.83-1.7 1.6-3.44 2.31-5.2.53-1.28 2-3.71.63-4.87s-3.14.77-1.84 1.85l.17.14-.38-.92a6 6 0 0 1-.77 2.28c-.32.79-.65 1.58-1 2.36q-1 2.34-2.22 4.62a78.94 78.94 0 0 1-5.42 8.7 1.47 1.47 0 0 0 .23 1.77c5.92 6.34 13.65 11.36 22.53 11.84 1.75.09 4 .21 5.15-1.39a6.76 6.76 0 0 0 .89-2.73c.26-1.25.54-2.49.83-3.73 1.07-4.63 2.59-9.19 3.45-13.87.17-.93-1.1-1.61-1.62-.68z" fill="#000000" class="fill-000000"></path><path d="M404.53 438.56c3.74 6.57.36 15.82 5 21.79a5.4 5.4 0 0 1 1.12 1.78c.36 1.39-.67 2.48-2 3.22-2.14 1.19-1.92 4.22-1.9 6.3 0 4 0 8.19-1.56 11.88a7.94 7.94 0 0 1-7.19 4.84c-3.28.21-6.66-1.41-9.89-.53-2.55.7-3.78 3.09-4.54 5.44s-1.08 3.53-1.8 5.89a4.53 4.53 0 0 1-1.26 2.35 4.29 4.29 0 0 1-3.31.5 32.86 32.86 0 0 1-21.71-13.11 3.32 3.32 0 0 1-.84-2.14 3.77 3.77 0 0 1 1.17-2 44.54 44.54 0 0 0 9.54-19.1c2.61-11-2.38-25.45 6.1-34.69a14.74 14.74 0 0 1 7.6-4.37 25.54 25.54 0 0 1 14.75 1.39c4.13 1.63 9.45 4.81 10.14 9.65M606.29 442.1a34 34 0 0 0 6.21 14.78c1.08 1.46 2.26 3.62.93 4.86a7.54 7.54 0 0 1-1.34.8c-1.91 1.21-1.93 3.92-1.82 6.18.25 4.8-.09 10.19-3.59 13.48s-8.78 3.31-13.42 2.45c-12.77-2.37-24.87-11.41-27.91-24a35 35 0 0 1 .89-18c1.29-4.34 3.27-8.6 6.56-11.7 6-5.6 15.37-6.36 23-3.35 5.2 2.06 10.2 8.94 10.53 14.52" fill="#ffffff" class="fill-ffffff"></path><path d="M566.19 460.39a33 33 0 0 1 5.61-25.07 19.88 19.88 0 0 1 10.06-7.23 19.67 19.67 0 0 1 13.77 1.12 16.91 16.91 0 0 1 9.7 13.15c.18 1.15 1.95.83 2-.26.18-12.08-13.21-18.9-23.87-17.13-9.87 1.64-16.51 10.44-19 19.62a30.77 30.77 0 0 0 .06 16.27.88.88 0 0 0 1.69-.47z" fill="#000000" class="fill-000000"></path><path d="M605.42 442.1a31.39 31.39 0 0 0 3.4 11.51c.95 1.75 2.21 3.28 3.21 5 .31.51.93 1.53.51 2.11-.25.33-.78.45-1.13.67a5.49 5.49 0 0 0-1 .85c-2.33 2.59-1.32 6.73-1.42 9.87-.12 3.51-.9 7.36-3.81 9.64-3.35 2.63-7.95 2.18-11.91 1.91-1.15-.08-1.32 1.65-.27 2a17.21 17.21 0 0 0 11.63-.46 12 12 0 0 0 6.56-8.77 27.25 27.25 0 0 0 .5-6c0-1.77-.39-3.75.21-5.45.36-1 1.07-1.27 1.91-1.81a3.33 3.33 0 0 0 1.49-2.12c.39-1.9-.84-3.71-1.88-5.17a38.3 38.3 0 0 1-6.27-14c-.21-.95-1.83-.76-1.72.23z" fill="#000000" class="fill-000000"></path><path d="M604.71 451.17a3.24 3.24 0 0 0-.73.34 3.65 3.65 0 0 0-.43.35 3.92 3.92 0 0 0-.25.32 1 1 0 0 0-.08.11 2.37 2.37 0 0 0-.2.5 1.83 1.83 0 0 0 0 .87 1.91 1.91 0 0 0 .19.52 1.56 1.56 0 0 0 .35.45l.27.2a1 1 0 0 0 .48.16.69.69 0 0 0 .35 0 1 1 0 0 0 .49-.16 1.12 1.12 0 0 0 .22-.16 1 1 0 0 0 .22-.18 2 2 0 0 0 .44-.75.42.42 0 0 0 0-.1.15.15 0 0 1 0-.07v-.4a1.63 1.63 0 0 0-.08-.58 1.4 1.4 0 0 0-.35-.6l-.28-.21a1.31 1.31 0 0 0-.69-.19 1 1 0 0 0-.53.12 1.2 1.2 0 0 0-.72.72 1 1 0 0 0-.12.53 1.31 1.31 0 0 0 .19.69l-.14-.33a.83.83 0 0 1 0 .15l-.05-.36a.38.38 0 0 1 0 .15l.05-.36a.85.85 0 0 1 0 .17l.13-.32a1 1 0 0 1-.08.14l.21-.27-.09.09.26-.2h1.32-.06l.27.2a.38.38 0 0 1-.09-.09l.2.26a.6.6 0 0 1-.09-.15l.13.31a2 2 0 0 1-.09-.35l.05.33a1 1 0 0 1 0-.24v.31a1.11 1.11 0 0 1 .08-.3l-.11.27c.05-.11.11-.21.16-.31l.16-.3a.89.89 0 0 0-.07-1 .85.85 0 0 0-.35-.27.89.89 0 0 0-.58-.05zM585.2 454.44h.08-.23.19-.23l.19.05-.21-.09a1.32 1.32 0 0 1 .2.12l-.18-.14a1.26 1.26 0 0 1 .2.2l-.14-.18a1.28 1.28 0 0 1 .17.3l-.09-.22a2.85 2.85 0 0 1 .2.8v-.25a2.36 2.36 0 0 1 0 .65v-.24a1.7 1.7 0 0 1-.1.37l.1-.23-.06.12 1.29-.34.19.15-.06-.06.15.19a.53.53 0 0 1-.06-.1l.1.22v-.08.25a.76.76 0 0 1 0-.15v.26a.83.83 0 0 1 0-.15l-.1.23.06-.1-.15.2.07-.06-.2.16a1 1 0 0 0 .27-1.45.9.9 0 0 0-.64-.37.78.78 0 0 0-.4 0 .94.94 0 0 0-.43.25 1.28 1.28 0 0 0-.38.59 1.27 1.27 0 0 0-.08.51 1.5 1.5 0 0 0 .67 1.18.94.94 0 0 0 1.29-.34 2.59 2.59 0 0 0 .26-1.31 4.37 4.37 0 0 0-.23-1.13 2.36 2.36 0 0 0-.85-1.18 1.63 1.63 0 0 0-1.37-.24.87.87 0 0 0-.6 1.06.89.89 0 0 0 1.06.6zM600.2 446.41a2.13 2.13 0 0 0 1.57.12l1.1-.15a19 19 0 0 0 2.14-.32 1.15 1.15 0 0 0 .84-1.27 1.06 1.06 0 0 0-.32-.67 1.1 1.1 0 0 0-.83-.35c-.8.11-1.58.32-2.37.5l-1 .24-.55.13a1.53 1.53 0 0 0-.84.64.84.84 0 0 0 .29 1.13zM602.47 467.37a.86.86 0 0 0 1.56-.22.91.91 0 0 0-1.14-1.11c-.9.31-.84 1.33-.72 2.08a4.26 4.26 0 0 0 .52 1.46 4.05 4.05 0 0 0 .52.73 3.74 3.74 0 0 0 .74.57 1.07 1.07 0 0 0 1.29-1.67 4.73 4.73 0 0 1-.79-.82l.17.22a3.74 3.74 0 0 1-.46-.77l.11.24a3.14 3.14 0 0 1-.24-.86v.26l-.09-.74v.24-.06.24l-.07.16-.31.31-.16.07h-.4l-.37-.22-.12-.92.49-.37.63.08a.9.9 0 0 0-.51-.09.74.74 0 0 0-.47.22.83.83 0 0 0-.13 1zM403.72 439c3.06 5.78.85 12.71 3 18.75a19.17 19.17 0 0 0 2.32 4.08c1.05 1.62-1.15 2.16-2.08 3.1-2.05 2.08-1.57 5.53-1.59 8.18 0 3.54 0 7.69-1.94 10.81s-5.37 3.35-8.54 2.86c-3.42-.54-7.26-1.29-10 1.41-2.33 2.29-3 5.9-3.91 8.91a24.41 24.41 0 0 1-.74 2.43 1.93 1.93 0 0 1-2.28 1.21 23.49 23.49 0 0 1-5-1 31.94 31.94 0 0 1-9.25-4.52 27.55 27.55 0 0 1-7.34-7.3c-.61-1-.34-1.42.35-2.23s1.23-1.46 1.81-2.22a41.11 41.11 0 0 0 3-4.57 43.71 43.71 0 0 0 5.88-19.77c.26-6.3-.61-12.75.75-19a17.68 17.68 0 0 1 4.1-8.33 14.69 14.69 0 0 1 9.77-4.48c6.61-.54 14.34 1.74 18.94 6.71a7.55 7.55 0 0 1 2 3.81c.25 1.27 2.08.7 1.91-.53-.92-6.81-8.83-10.44-14.76-11.8-7.78-1.79-16.29-.34-21.13 6.5-4.05 5.72-4.16 13.07-4.12 19.81a90.08 90.08 0 0 1-.27 10.26 38.88 38.88 0 0 1-3.13 11.08 40.27 40.27 0 0 1-6.34 10.3c-1.25 1.46-2.37 2.92-1.5 4.91a17.63 17.63 0 0 0 3.36 4.44 34.08 34.08 0 0 0 19.25 10.36c1.74.28 3.74.51 5.18-.75s1.72-3.32 2.22-5c.94-3.16 1.69-8.07 5.71-8.52 2.09-.23 4.19.41 6.25.66a11.81 11.81 0 0 0 5.44-.49c3.4-1.24 5.29-4.06 6.19-7.46 1-3.82.78-7.72.83-11.63 0-1.57.18-2.83 1.55-3.73a4.41 4.41 0 0 0 2.38-3.83c-.09-1.74-1.66-2.93-2.44-4.39a14.59 14.59 0 0 1-1.43-4.89c-.49-3.44-.37-6.95-1.06-10.37a15.93 15.93 0 0 0-1.74-4.73.94.94 0 0 0-1.62.94z" fill="#000000" class="fill-000000"></path><path d="M402.11 455.22a.89.89 0 0 0 .06-.39 1.39 1.39 0 0 0-.18-.66 1.57 1.57 0 0 0-1.71-.6 1.09 1.09 0 0 0-.23.09l-.24.1a2.07 2.07 0 0 0-.69.69 1.89 1.89 0 0 0-.19.44 2.36 2.36 0 0 0-.09.52.43.43 0 0 0 0 .16 2.83 2.83 0 0 0 .06.42 2.89 2.89 0 0 0 .15.39 1.8 1.8 0 0 0 .29.39 1.16 1.16 0 0 0 .37.29 1.61 1.61 0 0 0 .43.17 1.91 1.91 0 0 0 .48 0 1.79 1.79 0 0 0 .79-.21 1.42 1.42 0 0 0 .39-.29 2 2 0 0 0 .25-.32 1.28 1.28 0 0 0 .14-.34l.05-.35a1.36 1.36 0 0 0-.05-.36 1.49 1.49 0 0 0-.39-.65 1.15 1.15 0 0 0-.54-.32 1.45 1.45 0 0 0-.95.12 1.27 1.27 0 0 0-.44.45l.2-.25.26-.2a2.43 2.43 0 0 0-.32.24 1.54 1.54 0 0 0-.24.33l.21-.27-.07.06.27-.21a.21.21 0 0 1-.1.06l.32-.13a.28.28 0 0 1-.13 0h.35-.12.35-.1l.31.13h-.07l.27.2a.2.2 0 0 1-.09-.09l.2.26a.24.24 0 0 1-.06-.11l.13.31a.88.88 0 0 1-.05-.15l.05.34a.81.81 0 0 1 0-.22v.34a1.08 1.08 0 0 1 0-.21l-.12.3.15-.38-.12.3a.72.72 0 0 1 .11-.19l-.19.24.12-.12-.24.18.14-.08-.28.12a.23.23 0 0 1 .11 0h-.3.14-.3H401.14h-.28.08l-.24-.1h.07l-.19-.15a.82.82 0 0 0 .41.24 1.06 1.06 0 0 0 .5 0 .82.82 0 0 0 .41-.24.91.91 0 0 0 .24-.41zM405.38 449.85a1.8 1.8 0 0 0-.5-.85c-.1-.1-.2-.2-.31-.29l.25.33a1.78 1.78 0 0 0-.34-.47 2.23 2.23 0 0 0-.91-.52l-.42-.15a8 8 0 0 0-1.46-.21l.57.07h-.06l.52.22h-.05l-1.11 4.11c.38 0 .75-.05 1.13-.05a10.54 10.54 0 0 1 1.13.1l-.59-.08h.07l.6-4.41a12.57 12.57 0 0 0-1.94 0c-.32 0-.63.06-.95.09l-.47.05a4.87 4.87 0 0 0-1 .16 2.26 2.26 0 0 0-1 .58l-.36.46a2.18 2.18 0 0 0-.11 2 2.11 2.11 0 0 0 1.19 1.19 2.17 2.17 0 0 0 2-.11l.23-.15a2 2 0 0 0 1-1.49 2 2 0 0 0-.55-1.7l-.19-.2-1.59 3.85a11 11 0 0 0 1.61-.27l-.59.08a12.83 12.83 0 0 1 2.77 0 2.22 2.22 0 0 0 1.58-.66 2.33 2.33 0 0 0 .62-1.29 2.16 2.16 0 0 0-.26-1.43 2.23 2.23 0 0 0-1.34-1 11.76 11.76 0 0 0-1.77-.16h-.63a6 6 0 0 0-1.13.15 2.23 2.23 0 0 0-1.32 3.24 2.32 2.32 0 0 0 1.32 1 2.36 2.36 0 0 0 1.18 0 2.33 2.33 0 0 0 1-.57l-1 .55c.29-.1.59-.16.88-.24l.43-.11a1.83 1.83 0 0 0 1-.55l-.34.27h.05l-.4.17a2.3 2.3 0 0 1 .28-.06l-.4.06a4.15 4.15 0 0 0 .79-.07 1.31 1.31 0 0 0 .75-.57 1.39 1.39 0 0 0 .12-1zM379.19 454.49h.12l-.21-.08a1.16 1.16 0 0 1 .24.14l-.18-.14a1.81 1.81 0 0 1 .24.24l-.15-.19a1.57 1.57 0 0 1 .19.33l-.1-.23a1.91 1.91 0 0 1 .14.52v-.26a3 3 0 0 1 0 .67v-.28a.51.51 0 0 1 0 .13l.1-.25a.22.22 0 0 1 0 .08l.16-.21.21-.16.24-.1h-.07.28-.05.28-.07l.25.1.21.17.16.21.1.25v.56a.08.08 0 0 1 0-.05l-.11.25v-.05l-.16.21-.21.17-.25.1h.07-.28.11-.28.12a1.06 1.06 0 0 0 .61 0 1 1 0 0 0 .66-.59.71.71 0 0 0 .09-.4 1 1 0 0 0-.14-.52.61.61 0 0 0-.09-.13 1 1 0 0 0-.42-.32.83.83 0 0 0-.22-.08 1.51 1.51 0 0 0-.76 0 1.41 1.41 0 0 0-.56.34 1.31 1.31 0 0 0-.34.71 1.17 1.17 0 0 0 .85 1.29 1.27 1.27 0 0 0 1.23-.32 1.82 1.82 0 0 0 .29-1.77 2.91 2.91 0 0 0-.63-1.22 2.17 2.17 0 0 0-.52-.43 1.77 1.77 0 0 0-.64-.24.56.56 0 0 0-.34 0 .53.53 0 0 0-.32.1.88.88 0 0 0-.4.51.87.87 0 0 0 .6 1.06z" fill="#000000" class="fill-000000"></path><path d="M388.94 448.88a30.31 30.31 0 0 1-4.23 8.21 6.14 6.14 0 0 0-4.25-7.25 4.25 4.25 0 0 0-3.38.44 4.86 4.86 0 0 0-1.81 4.09 9 9 0 0 0 3.75 7.22 32.62 32.62 0 0 1-15 9.16c.43-.12 0-4.56-.07-5.06a45.86 45.86 0 0 0-.95-5.44c-.81-3.57-1.88-7.07-2.6-10.66-1.82-9.06 1.49-19.17 10.51-22.89 5.62-2.31 11.9-1.74 17.71-.62s11.79 3.26 16 7.67c.72.76 1.35 2.09.53 2.74a1.89 1.89 0 0 1-1 .31c-4.93.65-10-.42-14.92.19a8.5 8.5 0 0 1-.29 11.08" fill="#000000" class="fill-000000"></path><path d="M388.12 448.66a30.49 30.49 0 0 1-4.35 7.88l2 .84c1.25-4.8-3.56-10.72-8.69-8.52-2.57 1.1-3.33 4.1-3 6.66a11 11 0 0 0 4 7.07v-2a40.08 40.08 0 0 1-6.63 5.34 31.66 31.66 0 0 1-7.79 3.42l1.11 2.64c1.54-1.07.86-4 .71-5.58a61 61 0 0 0-1.81-9.56c-.9-3.48-2-7-2.25-10.62a21.86 21.86 0 0 1 1.06-8.34A16.33 16.33 0 0 1 375.05 427a31.63 31.63 0 0 1 11.23.17 42.84 42.84 0 0 1 9.82 2.65 24.57 24.57 0 0 1 5 2.85 18.79 18.79 0 0 1 2.13 1.86 3.35 3.35 0 0 1 .7.93c.14.29 0 0 .14-.08-.18.13-.68.09-.9.11-4.65.44-9.32-.42-14 .1a1.46 1.46 0 0 0-1 2.45 7.08 7.08 0 0 1-.28 9.06c-1.24 1.35.76 3.36 2 2a10 10 0 0 0 .31-13.1l-1 2.45c4.5-.49 9 .29 13.49 0 1.73-.12 3.95-.29 4.2-2.44.21-1.74-1.14-3.14-2.33-4.22-5.7-5.19-13.71-7.14-21.2-7.88-7.26-.72-15.1.72-20 6.56a22.9 22.9 0 0 0-4.71 17.7c.62 4.71 2.25 9.23 3.21 13.87a39.78 39.78 0 0 1 .7 5c.06.64.1 1.28.12 1.93v.94c0 .8-.19.17.53-.32a1.45 1.45 0 0 0 1.11 2.64c5.8-1.65 11.73-4.87 15.64-9.56a1.44 1.44 0 0 0-.28-2.21 7 7 0 0 1-3-4.46c-.34-1.48-.33-3.74 1.14-4.64s3.45 0 4.51 1.11a5 5 0 0 1 1.26 4.41 1.1 1.1 0 0 0 2 .84 32.43 32.43 0 0 0 4.1-8.53c.33-1.06-1.26-1.46-1.64-.45zM397.57 469.93a1.3 1.3 0 0 0 0 .62 1.81 1.81 0 0 0 .18.4c.07.12.15.24.23.35a6.09 6.09 0 0 0 .68.84 7.69 7.69 0 0 0 .83.68 2 2 0 0 0 .61.32l.41.1a1.06 1.06 0 0 0 .78-.1 1.07 1.07 0 0 0 .41-.48 1 1 0 0 0 .05-.65 1.19 1.19 0 0 0-.46-.6l-.18-.13.21.16a4.87 4.87 0 0 0-.43-.33l-.28-.16a3.74 3.74 0 0 1-.53-.35l.21.16a5.19 5.19 0 0 1-.85-.84l.16.2a2.48 2.48 0 0 1-.19-.26 1.3 1.3 0 0 0-.4-.41 3.27 3.27 0 0 0-.33-.14.85.85 0 0 0-.68.09.87.87 0 0 0-.41.53z" fill="#000000" class="fill-000000"></path><path d="M301.09 534c-9.72-13.91 11.19 17-1.09 5.33-49.4-47.14-33.16-126.63-22.69-162.12 6.28-21.33 18.69-40.3 31.91-58.18 3.42-4.62 7.54-9.58 13.26-10.25 1.63-.19 3.39 0 4.81-.86s2.25-2.45 3.74-3.24c3.8-2 7.92-.92 11.38 1.25 2.14 1.34 13.12 9.23 7.22 11.71 3.76 2.21 3.29 7.79 1.78 11.88-3.13 8.55-8.49 16-13 23.95a133.87 133.87 0 0 0-14.75 92.32c1.68 8.17 4.2 16.33 9 23.16s12.16 12.19 20.46 13c-4.69 8.21-7.69 17.29-12.48 25.44s-12 15.62-21.23 17.48" fill="#32a16b" class="fill-18c4ff"></path><path d="M301.83 533.53c-.73-1.09-1.45-2.19-2.23-3.25-.47-.65-1.69-1.61-2.07-.23-.16.57.32 1.22.58 1.69l1.42 2.57a46.73 46.73 0 0 1 3 6.06 7.93 7.93 0 0 1 .33 1.08c0 .2.05.06 0-.05a.41.41 0 0 1 0 .19c.1-.13 0-.29.3-.53a1.52 1.52 0 0 1 .5-.18h.12c-.06 0 0 0-.23-.1a9.28 9.28 0 0 1-1.18-.88 81 81 0 0 1-11.7-12.9 103.19 103.19 0 0 1-9.67-15.63 120.2 120.2 0 0 1-10.82-33.79A172.75 172.75 0 0 1 268 443a230.48 230.48 0 0 1 3.34-32.21c1.55-9 3.57-18 6-26.85a157 157 0 0 1 5-15.86 151.74 151.74 0 0 1 10.32-21.13c4-6.9 8.41-13.55 13-20.05 2.16-3.05 4.3-6.14 6.63-9.05 2.07-2.58 4.45-5.2 7.53-6.57a15.37 15.37 0 0 1 4.9-.93 7.69 7.69 0 0 0 4.89-2.08c1.34-1.28 2.21-2.34 4.11-2.76a9.15 9.15 0 0 1 5.48.69 22.38 22.38 0 0 1 5.08 3.19 22.81 22.81 0 0 1 4.49 4.34 7 7 0 0 1 .68 1.15s.16.71.15.53c0 .26.16.06-.12.35.14-.14-.09 0-.09 0a6 6 0 0 1-.66.35c-1.23.55-1 2.33 0 2.94 4.31 2.68 1.19 9.9-.33 13.28-2.7 6-6.31 11.51-9.68 17.14a135.13 135.13 0 0 0-17.87 90.38 95.54 95.54 0 0 0 4.46 18.42c4.54 12.35 13.93 23.82 27.77 25.37l-1.47-2.57c-7.15 12.61-10.72 28.48-22.86 37.58a24.85 24.85 0 0 1-9.83 4.55c-2.16.45-1.25 3.75.91 3.3 15.12-3.18 22.77-18.15 28.52-31 1.94-4.31 3.87-8.62 6.2-12.74a1.72 1.72 0 0 0-1.47-2.56c-11.92-1.33-20.26-11.73-24.26-22.25-4.42-11.61-6-24.55-6.13-36.91a133.85 133.85 0 0 1 19.41-70.67c3.77-6.25 7.73-12.42 10.42-19.23 1.91-4.82 3.11-11.81-2.08-15.06v2.94a4 4 0 0 0 2.4-4.86 12.46 12.46 0 0 0-3.64-5.16c-3.54-3.39-8-6.71-13-7.18a10.8 10.8 0 0 0-5.67 1.06c-1.57.75-2.41 2.14-3.75 3.17s-3.51.74-5.16 1a13.92 13.92 0 0 0-4.7 1.71 26.84 26.84 0 0 0-7.48 7c-2.38 3-4.62 6.17-6.85 9.3-9.19 12.9-17.59 26.45-23.47 41.2a191 191 0 0 0-8.37 28.64 271.44 271.44 0 0 0-5.09 30.24 200.8 200.8 0 0 0-1 33.88 146.7 146.7 0 0 0 6.13 34.78 109.65 109.65 0 0 0 16.11 32.42 100.6 100.6 0 0 0 12.45 14c.93.86 4.31 4.42 5.57 2.11a2.05 2.05 0 0 0 .13-1.36 4.64 4.64 0 0 0-.3-1 27.18 27.18 0 0 0-1.41-3c-1-2-2.22-3.92-3.37-5.86l-.51-.86c-.32-.57 0-.28-.14.24l-.43.56-.72.09c-.47-.09-.35-.35-.18 0a3.38 3.38 0 0 0 .39.52c.66.89 1.31 1.79 2 2.69s2.11.06 1.48-.87z" fill="#32a16b" class="fill-18c4ff"></path><path d="M549.63 507.79c17.88-7 37.93-5.22 56.85-1.9s37.9 8.07 57 6.67c22.36-1.64 43.16-11.53 64.77-17.5 7.15-2 14.81-3.51 21.9-1.34S763.39 503 762 510.25c-1.19 6.22-7.06 10.34-10.12 15.89-2 3.65-2.77 7.84-4.3 11.72-3.67 9.35-13.23 17-23.16 15.53-2.57-.37-5.07-1.32-7.66-1.25-5.19.15-9.27 4.23-13.28 7.53-6.62 5.46-15.79 9.46-23.69 6.11-4-1.68-7.19-5.06-11.41-5.88-9.17-1.78-18.57 9.16-26.77 4.68-1.9-1-3.33-2.78-5.15-4-8.63-5.53-20 4-29.93 1.49-5.52-1.4-9.5-6.27-14.79-8.36-5.71-2.25-12.14-1-18.24-1.66a29.67 29.67 0 0 1-25.23-23.44" fill="#000000" class="fill-000000"></path><path d="M549.86 508.62c16.54-6.21 34.7-5 51.82-2.24 18.22 3 36.29 7.77 54.86 7.76 17.87 0 34.82-5.58 51.56-11.25 8.41-2.84 16.86-5.88 25.54-7.77 8-1.75 17.27-2 23.36 4.39a12.6 12.6 0 0 1 3.8 9.14c-.16 3.55-2.34 6.59-4.5 9.25-2.3 2.84-4.79 5.58-6.33 8.93-1.76 3.82-2.47 8-4.26 11.85-3 6.29-8.65 11.7-15.6 13.15a15.9 15.9 0 0 1-5.11.17c-2.16-.26-4.23-1-6.39-1.23-3.92-.46-7.48 1.09-10.59 3.35s-5.86 5-9.14 7.1a26.06 26.06 0 0 1-10.75 4.17 16 16 0 0 1-10.69-2.58c-3.16-2-6.16-4.17-10-4.56-6.5-.65-12.11 3.72-18.12 5.38-3.07.85-5.93.64-8.48-1.41a28.68 28.68 0 0 0-4.49-3.43 13.05 13.05 0 0 0-4.56-1.35c-6.69-.78-13 2.78-19.5 3.45a15.07 15.07 0 0 1-9.77-2.24c-3.14-1.92-5.93-4.42-9.3-6-7.65-3.46-16.26-.72-24.14-3.12a28.55 28.55 0 0 1-15.76-12.25 26.84 26.84 0 0 1-3.55-9.12c-.37-2-3.35-1.13-3 .82a30.64 30.64 0 0 0 10.74 17.71 31.75 31.75 0 0 0 9.22 5.3 33.15 33.15 0 0 0 11.27 1.86c4.44 0 9.12-.32 13.33 1.38 3.54 1.43 6.4 4.11 9.63 6.08a17.64 17.64 0 0 0 10.11 2.69 49.1 49.1 0 0 0 10.44-2.12c3.17-.86 6.47-1.79 9.78-1.5a9.58 9.58 0 0 1 4.4 1.49c1.72 1.1 3.06 2.7 4.81 3.75 6 3.62 12.62-.29 18.28-2.61 2.91-1.19 6.21-2.37 9.39-1.7 3.81.82 6.72 3.71 10.16 5.36 7.4 3.55 15.77 1.08 22.31-3.18 3.3-2.15 6.05-5 9.27-7.24a15.07 15.07 0 0 1 5.14-2.5c2.2-.51 4.36 0 6.51.48a20.85 20.85 0 0 0 11-.16 24.43 24.43 0 0 0 9.32-5.53 27.66 27.66 0 0 0 6.45-9c1.75-4 2.44-8.31 4.4-12.16 3.27-6.42 10.32-10.88 10.78-18.6.45-7.43-5.66-13.85-12.28-16.19-8.64-3.05-18.2-.41-26.62 2.07-17.39 5.12-34.23 12.4-52.19 15.43-19.17 3.23-38.19-.39-57-3.95-17.6-3.31-35.78-6.28-53.6-2.85A68.75 68.75 0 0 0 549.4 507c-1 .41-.59 2.06.46 1.66z" fill="#000000" class="fill-000000"></path><path d="M585.76 459.81a6.31 6.31 0 0 1-3.9-4.87 4.79 4.79 0 0 1 3.2-5.09 3.89 3.89 0 0 1 4.81 3.11 12 12 0 0 1 .92-6.19 7.73 7.73 0 0 1 7.52-4.44l-.21-5.65a7.81 7.81 0 0 1 2.42 4.5 36.26 36.26 0 0 0 8.86-1.1 16.41 16.41 0 0 0-6.59-12.28 24.43 24.43 0 0 0-13.4-4.68 18.2 18.2 0 0 0-9.89 1.74c-2.34 1.27-4.22 3.26-6.45 4.72-2 1.32-4.3 2.2-6.38 3.42a20 20 0 0 0-8.28 9.17c-1.38 3.18-1.82 6.67-2.55 10.06-1.68 7.72-5.26 15.39-11.64 20.06-2.84 2.07-6.31 3.67-7.9 6.8a10.26 10.26 0 0 0-.69 6.36 19 19 0 0 0 8.24 12 33.66 33.66 0 0 0 13.93 5.07 27.52 27.52 0 0 0 12.48-.47 21.39 21.39 0 0 0 11.26-8.94 31.16 31.16 0 0 0 4.48-13.8 82 82 0 0 0 .15-9.92l-.24-8.76" fill="#32a16b" class="fill-18c4ff"></path><path d="M586.18 459.09c-2.35-1.23-4.27-4-2.78-6.61 1.34-2.35 5-2.11 5.39.78.17 1.23 2.28.95 2.19-.3-.17-2.43.07-5 1.67-7a6.48 6.48 0 0 1 5.66-2.45 1.17 1.17 0 0 0 1.17-1.17c-.07-1.88-.13-3.77-.2-5.65l-2 .83a7.09 7.09 0 0 1 2.13 4 1.18 1.18 0 0 0 1.12.85 41.61 41.61 0 0 0 9.17-1.13 1.19 1.19 0 0 0 .87-1.13c-.2-6.87-4.83-12.79-10.91-15.68s-14.62-4-20.8-.66a28.18 28.18 0 0 0-4.19 3 27.39 27.39 0 0 1-4.83 3.14c-3.24 1.64-6.32 3.27-8.83 6a21.56 21.56 0 0 0-4.94 8.93c-1 3.52-1.43 7.16-2.49 10.66-1.94 6.37-5.4 12.41-11 16.19-2.6 1.76-5.49 3.33-7.2 6.06-1.89 3-1.75 6.9-.7 10.19 2.13 6.63 7.75 11.28 14.05 13.79a41.83 41.83 0 0 0 10.64 2.55 26.71 26.71 0 0 0 11.49-.8c6.51-2.14 11.41-7.54 14-13.75 3-7.26 2.73-15 2.47-22.73-.07-2.11-.16-4.21-.27-6.32a1.11 1.11 0 0 0-2.21 0c0 7.33.87 14.95-.66 22.17-1.34 6.3-4.58 12.37-10.14 15.88-5.83 3.68-13 3.25-19.43 1.72-6.14-1.46-12.18-4.48-15.54-10-1.58-2.62-2.68-6-2-9s3.28-4.71 5.71-6.31a30.68 30.68 0 0 0 11.51-13.64 45.63 45.63 0 0 0 2.78-8.52c.74-3.35 1.11-6.84 2.42-10a18.23 18.23 0 0 1 5.87-7.5c2.68-2 5.92-3.07 8.68-5 3.09-2.13 5.56-4.81 9.34-5.69a23.61 23.61 0 0 1 11.11.44c7 1.83 13.38 7.22 13.71 14.86l.86-1.14a34.8 34.8 0 0 1-8.55 1.09l1.11.85a9.25 9.25 0 0 0-2.7-5 1.18 1.18 0 0 0-2 .83c.06 1.88.14 3.77.22 5.65l1.16-1.16a8.66 8.66 0 0 0-7.26 3.14 11.8 11.8 0 0 0-2.3 8.65l2.19-.3a4.87 4.87 0 0 0-3.66-3.87 5 5 0 0 0-5.24 1.95c-2.79 3.68-.44 8.37 3.5 9.88.88.34 1.47-1.1.64-1.53z" fill="#32a16b" class="fill-18c4ff"></path><path d="M294.47 535.37c2 1.89 4.18 3.65 6.28 5.46a1 1 0 0 0 1.32 0 .92.92 0 0 0 0-1.32c-2.12-1.79-4.22-3.62-6.41-5.32a.87.87 0 0 0-1.19 0 .85.85 0 0 0 0 1.18zM408.81 533.41q-2.28 6.69-4.67 13.35c-.77 2.13-1.53 4.28-2.31 6.41-.39 1.07-.79 2.13-1.19 3.2a19.46 19.46 0 0 0-1.3 3.66 1.06 1.06 0 0 0 1.92.81 17.24 17.24 0 0 0 1.43-3.4l1.2-3.2c.81-2.21 1.61-4.42 2.36-6.65 1.52-4.55 2.9-9.12 4.15-13.75a.82.82 0 0 0-1.59-.43z" fill="#000000" class="fill-000000"></path><path d="M588.46 507.13c19.33 4.48 39.43 8.46 59.36 7.31a96 96 0 0 0 16.52-2.37c1.37-.32.79-2.39-.58-2.1-19.25 4.08-39.09 2.06-58.28-1.35-5.53-1-11-2.1-16.57-3.1-1-.19-1.51 1.36-.45 1.61zM585.51 556.21c4.28-1.07 7.93 2.79 11.17 5a23.86 23.86 0 0 0 11 4.21c4.16.35 7.62-1.34 11.11-3.4 3.25-1.92 7.17-4 10.77-1.7 1.22.78 2.76-1.11 1.58-2-3.14-2.48-7.37-1.76-10.74-.15-4 1.93-7.37 4.9-12.12 4.77-4.41-.12-8.43-2.32-12-4.78-3.24-2.25-7.16-4.89-11.27-3.47a.84.84 0 0 0 .45 1.61z" fill="#32a16b" class="fill-18c4ff"></path><path d="M153.38 698.69c-6.14-.42-12.84-.68-17.82 2.93-3.16 2.3-5.14 5.86-6.88 9.37a152.55 152.55 0 0 0-10.75 28.57c-1 3.74-1.57 8.4 1.41 10.87 4.65 3.84 10.86-1.88 16.33-4.4 9.53-4.39 20.32 1.7 29.23 7.22 1 .62 2 1.22 3 1.83a128.75 128.75 0 0 1 14.42-54.4zM493.74 946.55c3-2.2 6.17-4.91 6.59-8.61.55-4.81-3.87-8.83-8.4-10.56s-9.56-2.13-13.8-4.49c-7.69-4.29-10.67-13.67-13-22.17q-1.72-6.29-3.43-12.57a93.84 93.84 0 0 0-27.08 13.77 125.9 125.9 0 0 0-24.28 23.65c4.18 5.06 8.58 10 13 14.83l20.14 22.32a13.58 13.58 0 0 0 4.56 3.75c2.89 1.2 6.18.28 9.13-.75a141.24 141.24 0 0 0 36.57-19.17z" fill="#000000" class="fill-000000"></path><g fill="#32a16b" class="fill-18c4ff"><path d="M143 737.35a12.26 12.26 0 0 0-2.91 7.38c-.08 1.24-.12 2.79.86 3.71a2.07 2.07 0 0 0 2 .46 1.87 1.87 0 0 0 1.3-1.69 1.18 1.18 0 0 0-1-1.18 1.2 1.2 0 0 0-1.32.86.65.65 0 0 1 .52-.42c-.15 0-.08 0 0 0l.19.13c.07 0 0-.13 0-.06v-.17c0-.03-.05-.24 0-.16s0-.17 0-.19a11.4 11.4 0 0 1 .07-2.61 15.66 15.66 0 0 1 1.81-5c.45-.86-.69-1.85-1.4-1.08zM151.58 739.15a5.81 5.81 0 0 0-2.68 2.49 8.42 8.42 0 0 0-1.26 3.28 4.79 4.79 0 0 0 .7 3.9 2.49 2.49 0 0 0 3.68.36 1.16 1.16 0 0 0 .18-1.38 1.15 1.15 0 0 0-1.29-.52l-.25.08h.05-.11c0-.05.2 0 0 0a1.38 1.38 0 0 1-.27-.08c.2.09-.07-.08 0 0l-.14-.13c.09.1 0 0 0-.06-.15-.24 0 .09-.09-.18a4.65 4.65 0 0 1 .06-2.19 7.7 7.7 0 0 1 .88-2.24c.44-.76 1.08-1.33 1.54-2.08a.86.86 0 0 0-1-1.25zM156.57 742.48a13.69 13.69 0 0 0-1.09 4.37 13.11 13.11 0 0 0 .21 4.42 1.08 1.08 0 0 0 1.17.77 1 1 0 0 0 .92-1 23.12 23.12 0 0 1-.24-4 21.56 21.56 0 0 1 .69-3.82.92.92 0 0 0-.53-1.08.9.9 0 0 0-1.13.38zM455.86 906.61a9.28 9.28 0 0 1 1.29-1.22l.2-.15.37-.24a8.46 8.46 0 0 1 .77-.44l.36-.18.22-.1c.15-.07-.14 0 0 0s.55-.21.83-.29a15.25 15.25 0 0 1 1.77-.44 1.07 1.07 0 0 0-.29-2.09 8.05 8.05 0 0 0-2 .4 11 11 0 0 0-1.91.87 10.65 10.65 0 0 0-3 2.56 1 1 0 0 0 0 1.35 1 1 0 0 0 1.34 0zM460.42 913.83a8.34 8.34 0 0 1 1.21-1.24l.18-.15.07-.05.34-.24c.25-.16.51-.31.77-.45l.75-.38h.07l.17-.07.44-.15a11.49 11.49 0 0 1 1.74-.38 1 1 0 0 0 .72-1.1 1 1 0 0 0-1-.87 9 9 0 0 0-6.82 4.06.86.86 0 0 0 1.35 1zM464.26 920.33a7.35 7.35 0 0 1 1.09-1.14l.16-.14.31-.22c.23-.15.46-.29.7-.42l.35-.17.15-.07c.24-.09.48-.18.72-.25a14.47 14.47 0 0 1 1.59-.33 1 1 0 0 0-.28-2 8.23 8.23 0 0 0-6.35 3.58 1 1 0 0 0 1.53 1.18zM447.13 969.39a93.7 93.7 0 0 1 37.45-24.51 111.82 111.82 0 0 1 12.33-3.38c1.28-.29.72-2.18-.54-2-14.92 2.66-29.28 9.92-40.94 19.5a87.26 87.26 0 0 0-9.5 9.14c-.73.81.45 2 1.2 1.2z"></path></g><path d="m648.68 683.2 14 31.37c4.5 10.08 9.48 20 13.21 30.43a87.82 87.82 0 0 1 4.29 17.42c.19 1.31 2.46 1 2.34-.32-.9-10.63-5.25-20.83-9.57-30.45-4.7-10.48-9.59-20.86-14.42-31.28l-8.38-18c-.47-1-1.94-.13-1.49.87zM619.56 782.72a8.16 8.16 0 0 0 2.51 2.75 8.49 8.49 0 0 0 3.29 1.46 1 1 0 0 0 .51-1.86c-.27-.07-.53-.15-.79-.24l-.38-.14-.16-.05h-.07a9 9 0 0 1-1.4-.76l-.31-.22-.1-.07c.1.07-.08-.07-.09-.08-.21-.18-.42-.36-.61-.55a15.81 15.81 0 0 1-1.09-1.22.83.83 0 0 0-1.1-.07.85.85 0 0 0-.21 1.08zM624 779.89a15.62 15.62 0 0 0 5 4.28.93.93 0 0 0 .93-1.6c-.45-.27-.87-.56-1.31-.85-.22-.16-.45-.31-.66-.48l-.14-.1c.15.11 0 0 0 0l-.32-.26a16.28 16.28 0 0 1-2.22-2.25.91.91 0 0 0-1.29 0 .94.94 0 0 0 0 1.29zM531.33 891.93A50 50 0 0 0 547 933.27c3.16 2.93 7.13 6.41 11.52 7.1 1.58.26 2.26-2.17.67-2.42-3.71-.57-7-3.38-9.74-5.8a48.18 48.18 0 0 1-7.21-8 50.66 50.66 0 0 1-8.41-19.91 46 46 0 0 1-.67-12.29c.1-1.18-1.7-1.15-1.82 0zM774.32 860.56a88.87 88.87 0 0 0 39.8-27.56 46.81 46.81 0 0 0 4.11-5.6c1.15-1.9 2.4-4.29 2.37-6.57a1.14 1.14 0 0 0-2.22-.3 32.64 32.64 0 0 1-2.29 5.62 45.22 45.22 0 0 1-3.44 4.81 89.91 89.91 0 0 1-7.81 8.51A92.57 92.57 0 0 1 786 853.3a88.41 88.41 0 0 1-12.1 5.6c-1 .38-.6 2 .46 1.66zM576.15 640.81c1.13 11-5.79 20.21-12.31 28.24-1 1.19.74 2.89 1.68 1.69 6.74-8.56 13.87-18.4 12.43-29.93-.14-1.12-1.92-1.16-1.8 0zM633.71 620.71c1.41 8.24 11.82 9 17.45 13 1.13.8 2.14-1 1.08-1.84-3-2.31-6.76-3.19-10.14-4.78-2.93-1.38-5.94-3.56-6.75-6.88-.26-1.07-1.82-.6-1.64.46zM548.62 958.71c.51 0 .62 0 .33-.16a.52.52 0 0 1-.15-.18 3.81 3.81 0 0 1-.37-.61 5.84 5.84 0 0 1-.53-1.52 6.24 6.24 0 0 1-.11-1.36c0-.3 0-1.09.27-1.32s1.5 1.22 1.72 1.51a7.83 7.83 0 0 1 1.29 2.92l1.1-1.45c.28 0 .19.17 0-.2a3.76 3.76 0 0 1-.17-.68 9.18 9.18 0 0 1-.2-1.73 10.12 10.12 0 0 1 .56-3.62 5.52 5.52 0 0 0 .27-.67l.07-.12c-.37 0-.47 0-.28.18s.41.44.54.6a6 6 0 0 1 .44.59 9.52 9.52 0 0 1 1.34 3l2.24-.95a7.17 7.17 0 0 1-1.16-3.89 11.17 11.17 0 0 1 1-4 1.17 1.17 0 0 0-1.95-1.13c-2.37 2.75-1.92 7.42-.05 10.3a1.23 1.23 0 0 0 2.24-.94 11.6 11.6 0 0 0-2.59-4.82 2.56 2.56 0 0 0-2.4-1.19 2.61 2.61 0 0 0-1.76 1.7 12 12 0 0 0-.83 5.77c.16 1.6.54 4.11 2.62 4.13a1.16 1.16 0 0 0 1.11-1.45 9.8 9.8 0 0 0-2.73-4.82 3.62 3.62 0 0 0-2.51-1.28 2.34 2.34 0 0 0-2.06 1.61 7.14 7.14 0 0 0 .41 5.25 4.29 4.29 0 0 0 1.58 2.09 1.4 1.4 0 0 0 2-.5c.36-.8-.64-1.82-1.33-1zM827.16 831.53a1 1 0 0 1 1.34-.85 1.5 1.5 0 0 1 1 1.56c0 1.63-1.45 2.87-2.59 3.84l2.09 1.22a5.73 5.73 0 0 1 1.7-3.07c.33-.3 1.12-1 1.61-.88s.69.9.82 1.24a5 5 0 0 1-2.66 6.35l1.65.22c.42.34-.12.43.24.05a10.26 10.26 0 0 0 .59-1 3.94 3.94 0 0 1 1.23-1.24c1-.56 1.79-.07 2.09 1 .65 2.27-.45 5.24-3 5.62-1.44.22-1.1 2.62.35 2.54a5.79 5.79 0 0 0 5.16-4 7.29 7.29 0 0 0-.6-6.51c-1.51-2.06-4.24-2-6.11-.47-1.35 1.1-3.86 4.37-1.89 6a1.46 1.46 0 0 0 1.66.21 7.69 7.69 0 0 0 3.2-10.78 3.41 3.41 0 0 0-2.3-1.75 4.23 4.23 0 0 0-3.06.94 7.45 7.45 0 0 0-3.1 4.92c-.16 1.15 1.12 2.19 2.09 1.22 2-2 4.33-5 2.42-7.8a3.49 3.49 0 0 0-3.35-1.49 2.83 2.83 0 0 0-2.29 2.74c-.08 1 1.45 1.16 1.71.23z" fill="#000000" class="fill-000000"></path><g fill="#32a16b" class="fill-18c4ff"><path d="M389.58 317.79c5.22-4.07 4.2-13.33-1.6-16.37a1 1 0 0 0-1.54.88c-.62 6 3.16 12.91 9.93 12.54a7 7 0 0 0 6.25-4.31 6.55 6.55 0 0 0-1.32-7.17 1.15 1.15 0 0 0-1.94.8c-.31 2.4 2.18 3.92 4.32 3.85 3-.1 4.53-3 5.06-5.64.75-3.77 1-7.7 1.43-11.51.49-4.22 1-8.44 1.48-12.66.16-1.43-2.06-1.4-2.23 0-.79 6.37-1.53 12.74-2.28 19.11-.29 2.38-.22 5.61-1.85 7.54a2.25 2.25 0 0 1-2.38.81c-.81-.19-1.39-.63-1.27-1.5l-1.95.81a4.31 4.31 0 0 1 .71 5 4.92 4.92 0 0 1-5.08 2.66c-5.15-.46-7.12-5.8-6.83-10.3l-1.54.89c5 2.39 5.72 10 1.41 13.38-.87.69.35 1.89 1.22 1.22zM429.32 331.79A439.3 439.3 0 0 1 446.06 286c.48-1.11-1.13-2.08-1.64-1a323.37 323.37 0 0 0-16.73 46.27.85.85 0 0 0 1.63.46zM446 334.15a479.9 479.9 0 0 1 14.62-46.59c.46-1.25-1.55-1.81-2-.55a484.13 484.13 0 0 0-14.28 46.68.87.87 0 0 0 1.67.46zM463.14 339.57q3.12-12.69 7.19-25.13 2-6.09 4.23-12.12 1.15-3.12 2.37-6.22c.81-2.05 1.77-4.08 2.45-6.18.37-1.12-1.39-1.89-1.92-.81a115.06 115.06 0 0 0-4.72 12.22q-2.22 6.15-4.2 12.37-4 12.57-7 25.43c-.24 1 1.36 1.49 1.62.44z"></path></g></svg>