<svg viewBox="0 0 1000 1000" xmlns="http://www.w3.org/2000/svg"><path d="M452 422.3c21-11.84 21.85-38.68 26.9-55.79 3.84-13 8.36-25.88 12.88-38.71 2-5.69 4-11.41 7-16.65 4.14-7.31 10-13.48 15.87-19.5A176.46 176.46 0 0 1 583.71 248c4.56-1.53 6-6.63 10.76-5.69s9.19 4.57 9.73 9.35c.45 4-1.8 7.73-4.14 11-16.52 23-41.76 43.15-64.27 60.33a12.94 12.94 0 0 0-2.52 2.32 7.76 7.76 0 0 0-1.71 3.74c-4.32 42.16-6.09 79.8-9.16 115-.44 5-12.64-5.56-16.45-2.3" fill="#32a16b" class="fill-18c4ff"></path><path d="M452.39 423c11.88-6.69 18-18.85 21.55-31.54 1.7-6 2.9-12.19 4.33-18.29 1.89-8 4.59-15.88 7.23-23.68 3.17-9.33 6.34-18.7 9.9-27.89a67.14 67.14 0 0 1 6.39-12.77 84.35 84.35 0 0 1 8.47-10.57 184.31 184.31 0 0 1 40.13-33.19 169.88 169.88 0 0 1 23.05-11.74c1.94-.81 3.91-1.58 5.88-2.31s4-1.27 5.88-2.14a15.91 15.91 0 0 0 3.94-2.88 8.69 8.69 0 0 1 3.31-2.3c1.58-.41 3.44.33 4.82 1a11 11 0 0 1 4.13 3.46c2.55 3.69 1.2 7.87-1 11.37a94.51 94.51 0 0 1-7.78 10.35c-2.78 3.36-5.69 6.61-8.69 9.77-12.31 12.93-26.1 24.37-40.16 35.33-3.37 2.64-6.94 5.1-10.19 7.89a10 10 0 0 0-3.35 5.33c-.46 2.33-.52 4.82-.75 7.19q-1.43 14.7-2.58 29.43c-1.45 18.24-2.65 36.49-4 54.73q-.47 6.46-1 12.94l-.51 6.28c-.09 1-.17 2.08-.26 3.12 0 .36-.29 2.21-.24 2.24-.16-.12.33-.14.11-.2a4.37 4.37 0 0 1-.63 0 14.51 14.51 0 0 1-2.78-1 62 62 0 0 0-6.86-2.8c-2-.57-4.1-.78-5.79.58-1.35 1.08.56 3 1.9 1.9a2.9 2.9 0 0 1 1.94-.15 15.86 15.86 0 0 1 3.2 1c2.25.91 4.4 2.1 6.71 2.84 1.69.54 3.89.76 4.76-1.16.65-1.42.47-3.39.6-4.92q.27-3.24.53-6.48c1.46-18.12 2.63-36.26 4-54.39.73-9.74 1.49-19.47 2.34-29.19q.66-7.51 1.39-15c.12-1.23.25-2.46.37-3.69a11.44 11.44 0 0 1 .66-3.73c1-2.16 3-3.45 4.78-4.85 14.3-10.94 28.45-22.16 41.37-34.73a199 199 0 0 0 17.91-19.71c4.75-6.07 11.83-14.59 6-22.25a14.24 14.24 0 0 0-9.29-5.39c-3.39-.4-5.55 2-7.89 4a14 14 0 0 1-4.91 2.49c-2 .69-4 1.43-5.91 2.2q-6.16 2.43-12.13 5.33A178.89 178.89 0 0 0 520 284.5a147.57 147.57 0 0 0-18.3 19.68c-5.79 7.76-8.89 16.78-12 25.83-3.35 9.68-6.68 19.36-9.7 29.15-2.05 6.64-3.72 13.28-5.16 20.08-2.69 12.69-5.76 26.35-15 36a36.36 36.36 0 0 1-8.15 6.34.81.81 0 0 0 .82 1.4z" fill="#32a16b" class="fill-18c4ff"></path><path d="M541.57 419.78a31.1 31.1 0 0 1 1.79-7.81 21.85 21.85 0 0 1 4.07-6.13c3.5-3.81 7.79-6.86 12-9.86 1.22-.86.12-2.87-1.2-2-4.74 3-9.43 6-12.9 10.53a26.18 26.18 0 0 0-3.71 6.47 34.53 34.53 0 0 0-1.77 8.6c-.12 1 1.59 1.22 1.73.24z" fill="#000000" class="fill-000000"></path><g fill="#32a16b" class="fill-18c4ff"><path d="M555.89 429.76c-6.19-8.1-16.25-12.1-25.88-15.43-13-4.48-26.52-8.49-40.14-7-12.92 1.4-24.76 7.62-36.1 14-10.89 6.09-21.66 12.42-32.06 19.31-7.12 4.72-14.74 10.86-15.27 19.38-.33 5.29 2.23 10.3 4.89 14.89a214.12 214.12 0 0 0 55.47 62.89 20.36 20.36 0 0 0 5.62 3.36c4 1.35 8.32.3 12.26-1.14 14.88-5.42 27.33-15.95 38.49-27.19 18.38-18.53 34.81-41 37.49-67a24.62 24.62 0 0 0-4.77-16.07"></path><path d="M556.75 429.25c-4.07-5.3-9.65-9-15.67-11.78a158.2 158.2 0 0 0-20.68-7.53 89.19 89.19 0 0 0-23.5-4.23 60.43 60.43 0 0 0-22.71 4.09 152 152 0 0 0-20.74 10.06c-7.19 4-14.32 8.11-21.34 12.41-6.29 3.86-12.85 7.68-18.43 12.55-4.7 4.11-8.69 9.55-8.71 16.05 0 7.45 4.72 14.29 8.5 20.37a216.47 216.47 0 0 0 42.26 49.43q4.18 3.6 8.54 7c2.87 2.23 5.81 4.67 9.49 5.33s7.7-.27 11.3-1.58a75 75 0 0 0 9.77-4.39c12.77-6.86 23.6-17 33.46-27.49 9.6-10.24 18.37-21.49 24.67-34.09a89.19 89.19 0 0 0 7.19-19.45c1.45-6.21 2.49-12.51.66-18.75a24.62 24.62 0 0 0-4.17-8.21c-.83-1.08-2.33.43-1.5 1.5 3.66 4.71 4.94 11.13 4.17 16.95a81.08 81.08 0 0 1-5.17 19.22c-5 12.51-12.8 23.81-21.56 34-8.91 10.35-18.85 20.33-30 28.21a78.77 78.77 0 0 1-18.24 9.78c-3.49 1.26-7.4 2.36-11.08 1.27-3.29-1-6.12-3.64-8.76-5.73a214.34 214.34 0 0 1-29.86-28.85q-6.75-7.93-12.71-16.51A165.48 165.48 0 0 1 410.84 471c-1.69-3.27-3.1-6.85-3-10.6a15.51 15.51 0 0 1 2.83-8.08c3.59-5.32 9.28-8.91 14.55-12.33 6.58-4.27 13.29-8.34 20.07-12.27 6.54-3.8 13.11-7.6 19.89-11a82.39 82.39 0 0 1 20.62-7.47 60.73 60.73 0 0 1 22.88.27 156 156 0 0 1 22.12 6.24c6.1 2.11 12.22 4.48 17.54 8.2a31.88 31.88 0 0 1 6.83 6.44c.69.88 2.25-.31 1.56-1.21z"></path><path d="M531.32 426.9c2.84-6.4 12.08-5.88 18.71-3.62 18.11 6.18 34.05 17.26 50.64 26.8s34.8 17.83 53.93 17.47c18.67-.35 36.1-8.87 52.78-17.28 3.41-1.73 8.81-2.71 10 .93 2.3-4.23 8.58-4.8 12.72-2.33s6.55 7 8.43 11.44c1.13 2.66 2.16 5.59 1.4 8.37s-4.12 5-6.61 3.51c-4.8 10.14-13.79 17.64-23 24-25.28 17.27-56.15 28.49-86.43 24-21.89-3.23-41.73-14.26-61-25.09L514.64 468"></path><path d="M532 427.31c2.28-4.77 8.15-5.1 12.76-4.33a42.24 42.24 0 0 1 8.34 2.54q4.88 1.89 9.58 4.15c12.69 6.11 24.43 13.93 36.6 21 11.88 6.89 24.42 13.15 37.9 16.21a71.75 71.75 0 0 0 20.55 1.75 83.78 83.78 0 0 0 20.47-4.18 173 173 0 0 0 21.64-9.07c1.77-.86 3.54-1.74 5.3-2.62a35.84 35.84 0 0 1 4.48-2.11c1.82-.63 5.64-1.6 6.53.9a1.23 1.23 0 0 0 2.23.29c1.5-2.6 4.62-3.49 7.47-3.12 3.38.44 6.07 2.75 8 5.45a31 31 0 0 1 4.82 10.4c.43 1.87.43 4-.92 5.49-1 1.06-2.48 1.8-3.83 1.08a1.26 1.26 0 0 0-1.7.44c-6.41 13.36-19.72 22.25-32.11 29.54A136.85 136.85 0 0 1 656.88 518a97.86 97.86 0 0 1-46-2c-15.45-4.47-29.72-12.15-43.69-20q-23-12.88-45.87-26.1l-5.82-3.35c-1.87-1.07-3.57 1.85-1.69 2.89 15.92 8.75 31.84 17.48 47.68 26.38 14.26 8 28.65 16.09 44.23 21.26a101.08 101.08 0 0 0 46.79 4.19c15.58-2.29 30.57-7.91 44.35-15.45a154.9 154.9 0 0 0 19.48-12.54c5.86-4.47 11.34-9.54 15.38-15.75a42.35 42.35 0 0 0 2.65-4.75l-1.69.45c2.84 1.5 6.12 0 7.71-2.63 2.14-3.52.51-7.88-1-11.3-2.69-6.22-7.09-13.05-14.65-13.15a9.41 9.41 0 0 0-8.47 4.41l2.23.29c-1.92-5.4-8.87-3.12-12.56-1.26-6.68 3.37-13.38 6.7-20.32 9.51-13.58 5.51-27.95 8.72-42.61 6.43-29.13-4.56-52.2-24.64-78-37.18-3.57-1.73-7.2-3.35-10.91-4.75a42.1 42.1 0 0 0-9.39-2.6c-5.21-.68-11.66.09-14.09 5.46-.43.94.94 1.77 1.4.82z"></path><path d="M533.45 402.21a24.1 24.1 0 0 1 11.76 6.37 3.26 3.26 0 0 1 1.06 1.66 3.46 3.46 0 0 1-.51 2l-4.55 9.33a3.39 3.39 0 0 1-.85 1.25 3.23 3.23 0 0 1-2.84.25c-3.91-1-7.2-3.6-10.37-6.12-2-1.57-4-3.25-5-5.6-.24-.6-.5-1.33-1.13-1.47"></path><path d="M533.23 403a25 25 0 0 1 10.77 6.19c.42.42 1 .86.94 1.53a4.61 4.61 0 0 1-.59 1.3c-.6 1.17-1.21 2.34-1.79 3.52l-1.53 3.1-.87 1.78a3.51 3.51 0 0 1-.71 1.23c-.67.52-2-.1-2.74-.35a17.27 17.27 0 0 1-2.65-1.24 42.38 42.38 0 0 1-5.2-3.62 21.91 21.91 0 0 1-4.44-4.1c-1.1-1.53-1.18-3.54-3.38-3.81-1.52-.19-1.68 1.88-.71 2.58.5.36.74 1.58 1 2.1a11.91 11.91 0 0 0 1.68 2.19 35.55 35.55 0 0 0 4.34 3.69c3 2.3 6.19 4.63 9.91 5.48 1.77.4 3.6.2 4.69-1.4a44.56 44.56 0 0 0 2.94-6c.47-1 .92-1.94 1.37-2.91a13.32 13.32 0 0 0 1.22-3.05c.37-2-1.08-3.37-2.49-4.54a23.73 23.73 0 0 0-11.37-5.3.83.83 0 0 0-.44 1.61z"></path></g><path d="m633.04 482.75 144.11-89.35-94.1 2.94" fill="#000000" class="fill-000000"></path><path d="m634.14 484.62 14.36-8.91 34.5-21.38 41.49-25.73 36-22.35c5.82-3.6 11.75-7.08 17.48-10.83l.24-.15c1.76-1.09 1.12-4.11-1.1-4l-9.39.29-22.42.71-27.24.85-23.44.73c-3.81.12-7.64.12-11.44.36h-.17c-2.79.09-2.8 4.43 0 4.34l9.39-.29 22.42-.71 27.24-.85 23.44-.73 7.75-.24c1.21 0 2.49 0 3.69-.12h.17l-1.09-4-14.37 8.9-34.45 21.31-41.49 25.72-36 22.35c-5.83 3.61-11.75 7.09-17.48 10.84l-.24.15c-2.37 1.46-.19 5.21 2.19 3.74z" fill="#000000" class="fill-000000"></path><path d="M968 166 523.61 271.28a5.72 5.72 0 0 0-2.2 10.07l110.49 86.32a5.69 5.69 0 0 1 2.17 5.09l-10.93 105.53a5.72 5.72 0 0 0 9.9 4.46l60.16-65.59a5.71 5.71 0 0 1 7.54-.79l128.58 92.14a5.72 5.72 0 0 0 8.62-2.47L974.56 173.7A5.72 5.72 0 0 0 968 166z" fill="#32a16b" class="fill-18c4ff"></path><path d="M631.38 398.74 972.5 166.8a5.64 5.64 0 0 0-4.5-.8L523.61 271.28a5.72 5.72 0 0 0-2.2 10.07l110.49 86.32a5.69 5.69 0 0 1 2.17 5.09z" fill="#ffffff" class="fill-ffffff"></path><path d="m973.41 167.6-.23-.24c-80.09 49.11-269.37 158.56-339.71 202.28a5.65 5.65 0 0 1 .6 3.12l-10.93 105.53a5.72 5.72 0 0 0 9.9 4.46l39.3-42.85c6.09-8.17 12.23-16.3 18.74-24 16.53-19.43 35.95-36.17 55.29-52.82z" fill="#000000" class="fill-000000"></path><path d="M674.21 441c7.64-10.24 15.39-20.4 24-29.87 8.36-9.21 17.34-17.84 26.55-26.19 19.35-17.53 39.41-34.28 59.19-51.31l61-52.54 61.26-52.76 61-52.54 7.72-6.65a2.19 2.19 0 0 0 0-3.07l-.23-.23a2.18 2.18 0 0 0-2.62-.34c-19.21 11.78-38.55 23.33-57.91 34.85q-36.17 21.48-72.34 42.81-38.46 22.68-76.92 45.34Q729 309.68 693.19 331c-18.59 11.08-37.16 22.19-55.58 33.55-1.75 1.08-3.49 2.15-5.23 3.24a2.23 2.23 0 0 0-.78 3 4.15 4.15 0 0 1 .3 2c-.14 2.79 4.2 2.78 4.34 0a8.94 8.94 0 0 0-.89-4.22l-.78 3c17.64-11 35.47-21.65 53.3-32.31q34.93-20.86 70-41.51 38.39-22.65 76.79-45.26 36.93-21.78 73.81-43.65c20-11.89 40-23.81 59.9-35.93l5.91-3.62-2.62-.34.23.24v-3.07l-61.53 53-61.26 52.76-61.52 53c-20 17.18-40.08 34.18-59.8 51.63-9.31 8.24-18.45 16.7-27.07 25.68A326.2 326.2 0 0 0 676.33 431q-3 3.89-5.86 7.8c-1.67 2.23 2.09 4.4 3.74 2.18z" fill="#000000" class="fill-000000"></path><path d="m754.71 458.51 29.71 21.29 40.48 29c1.08.77 2.15 1.59 3.26 2.33a8 8 0 0 0 11.84-3.72c.45-1.06.88-2.13 1.32-3.19l8.92-21.71 15.5-37.72 19.91-48.42 22.14-53.85 22.18-54 20.06-48.8 15.76-38.32 9.28-22.57c.51-1.24 1.06-2.47 1.53-3.72a8 8 0 0 0-6.79-10.67 9.77 9.77 0 0 0-3.09.36c-5.75 1.34-11.49 2.72-17.23 4.08l-36.29 8.6-49.4 11.75-56.17 13.31-57 13.51L699 228.29l-40.3 9.55-22.83 5.42-3 .7c-2.72.64-1.57 4.83 1.15 4.18l12.09-2.86 32.18-7.63 46.32-11 54.55-12.93L836 200.26l53.37-12.65 43.52-10.31 28.23-6.69 6.39-1.52c.32-.07.64-.17 1-.23 3.19-.55 5 2.44 3.9 5.2-1.71 4.45-3.63 8.82-5.44 13.23l-12.77 31.07-18.13 44.09-21.16 51.46-22.3 54.26-21.14 51.42-17.92 43.59L841 493.77c-1.7 4.12-3.17 8.43-5.12 12.44-1 2.09-3.67 2.49-5.72 1-1.29-.9-2.57-1.83-3.85-2.75l-17.63-12.64-43.48-31.15-8.29-5.95c-2.28-1.63-4.44 2.13-2.19 3.75zM601.84 251.32l-15.75 3.73-32.34 7.67-26.57 6.28c-1.56.37-3.21.63-4.73 1.15a7.94 7.94 0 0 0-2.45 13.66c3.28 2.63 6.63 5.18 9.94 7.77l21.45 16.75 26.66 20.82 26.09 20.39 19.42 15.17 5.33 4.16c1.6 1.25 3.16 2.32 3 4.7-.32 4.35-.9 8.7-1.35 13.05l-3.1 29.95-3.5 33.8-2.51 24.26c-.15 1.47-.33 2.94-.46 4.41-.6 7.09 8.11 11.22 13.27 6.37 1.07-1 2-2.16 3-3.23l7.28-7.93 21.74-23.71 21-22.88 6.09-6.65 1.27-1.38a3.69 3.69 0 0 1 5-.57c7.23 4.9 14.23 10.19 21.33 15.28l6.94 5a2.17 2.17 0 1 0 2.19-3.74l-20.89-15c-2.46-1.77-4.88-3.6-7.39-5.3a8 8 0 0 0-10.18 1.13c-.31.32-.6.66-.9 1l-14.64 16-22.7 24.76-18.28 19.92c-1.18 1.29-2.35 2.61-3.55 3.88a3.54 3.54 0 0 1-4.58.8 3.63 3.63 0 0 1-1.68-3.8c.45-5.07 1-10.12 1.57-15.18l3.22-30.81 3.45-33.27 2.36-22.73c.13-1.26.34-2.53.38-3.79.1-3.19-1.74-5.39-4-7.19L619 355.63l-23-17.93-27-21.11-24.86-19.42L527 283.8l-3.7-2.89a5.17 5.17 0 0 1-1.54-1.62 3.59 3.59 0 0 1 2.43-5.11c5.38-1.41 10.83-2.57 16.24-3.85l32.2-7.63 26.28-6.23 4.08-1c2.71-.64 1.56-4.82-1.16-4.18z" fill="#000000" class="fill-000000"></path><path d="M638.9 473.08a323.4 323.4 0 0 1 39.2-42.68c15.24-13.89 31.51-26.67 47.37-39.85l27.3-22.68c1.37-1.13-.59-3.07-1.95-1.94q-24.45 20.24-48.82 40.54c-7.82 6.52-15.7 13-23.22 19.88q-10.8 9.86-20.64 20.68a308.88 308.88 0 0 0-20.53 25.27c-.6.81.74 1.57 1.34.78z" fill="#32a16b" class="fill-18c4ff"></path><path d="M542.88 348.54c1.24 3.86 4.24 7.1 7.49 9.42a21.35 21.35 0 0 0 5.2 2.73 12.53 12.53 0 0 0 2.34.59c.72.11 2.12.16 2.64.77s-.41 1.92-.56 2.67a8.29 8.29 0 0 0 0 3.29c.47 2.39 1.79 4.56 2.89 6.7a21.69 21.69 0 0 1 2.61 9.37c.09 4.05-1.67 7.33-5.45 9-1.14.5-.32 2.46.85 2a10.23 10.23 0 0 0 6.72-7.84 19.78 19.78 0 0 0-1.1-10.21 49.24 49.24 0 0 0-2.64-5.6c-1.21-2.38-2.26-4.84-1.17-7.47 2-4.83-4.47-4.64-7.3-5.79-4.43-1.8-9.29-5.49-11.09-10.05-.35-.9-1.78-.56-1.48.41z" fill="#000000" class="fill-000000"></path><path d="M540.54 340a24.65 24.65 0 0 1 1.46 17.32c-1.31 4.56-4 9.21-2.57 13.74a7.47 7.47 0 0 0-2.26-3.24c-2.5-1.72-4.36.88-4.83 3.17-.8 3.86 1.86 6.25 4.78 8.15-.18 2.59-.08 5.18 0 7.77.39 15.29.57 29.54-4.52 44a7.83 7.83 0 0 1-2 3.45 8 8 0 0 1-3.52 1.47c-12.31 2.88-25.81 3.79-37.09-1.93-2.79-1.41-5.7-3.83-5.42-6.94.29-3.31 4.06-5.38 4.73-8.63-3.91 3.15-8.54 6.51-13.47 5.55-3.09-.6-5.58-2.81-7.85-5a172.91 172.91 0 0 1-16-17.64 3.42 3.42 0 0 1-.91-1.78 3.33 3.33 0 0 1 .94-2.17 32.34 32.34 0 0 1 6.45-6.24c-3.89 1.41-8.5 2.74-11.92.42a12.05 12.05 0 0 1-3.1-3.52 59.83 59.83 0 0 1-5-9.4c-1.26-3-2.24-6.58-.65-9.44s4.87-3.84 7.9-4.69q9.74-2.43 19.36-5.27c14.88-4.39 30.87-6.48 44.79-13.78 5.06-2.65 10.19-6.7 16.16-6.65 2 0 4 .55 6 .28 3.45-.46 6.37-3.25 9.85-3.24s6.59 3.21 7.26 6.73-.58 7.15-2.47 10.19l-1.51-1.5" fill="#000000" class="fill-000000"></path><path d="M539.88 340.41a24.43 24.43 0 0 1 1.34 16c-1.28 4.93-4.22 9.69-2.78 14.93l1.94-.82c-.88-1.9-2.13-4.13-4.47-4.34-2.12-.19-3.6 1.6-4.3 3.4-1.8 4.61 1.33 8.15 5 10.55l-.57-1c-.26 4.15 0 8.32.08 12.47.07 3.91.09 7.82 0 11.73a94.17 94.17 0 0 1-3.37 23.43 29.59 29.59 0 0 1-1.87 5.36c-.94 1.77-2.6 2.17-4.41 2.59a84.18 84.18 0 0 1-11.26 1.85c-7.35.67-14.92.19-21.83-2.57-2.79-1.11-8-3.4-7.41-7.22.25-1.53 1.42-2.78 2.35-3.95a11.27 11.27 0 0 0 2.32-4.2 1.26 1.26 0 0 0-2.09-1.22c-2.73 2.2-5.76 4.55-9.29 5.2-3.71.69-6.76-1.4-9.35-3.8a162 162 0 0 1-15.92-17.21c-.62-.77-1.81-1.76-1.39-2.81a9.9 9.9 0 0 1 1.91-2.43 32.47 32.47 0 0 1 4.68-4.24c1-.77.49-2.82-1-2.3a19.93 19.93 0 0 1-7.59 1.63c-2.74-.14-4.47-1.8-5.91-4a58.75 58.75 0 0 1-4.19-7.44c-1.12-2.42-2.36-5.15-2.23-7.88.29-5.55 7.43-6.42 11.6-7.5 5.78-1.49 11.51-3.17 17.25-4.79 10.67-3 21.63-5 32.12-8.6a81.7 81.7 0 0 0 14.4-6.57c4.5-2.62 8.88-5.14 14.26-4.6a17.47 17.47 0 0 0 4.68.08 15.31 15.31 0 0 0 3.77-1.3c2.35-1.09 4.92-2.58 7.54-1.44a7.39 7.39 0 0 1 4.12 5.89c.35 3.1-.88 6.09-2.42 8.71l2-.25-1.53-1.48a1.23 1.23 0 0 0-1.74 1.74l1.48 1.53a1.28 1.28 0 0 0 2-.26c2.93-4.62 4.24-10.9.54-15.5a8.54 8.54 0 0 0-5.74-3.27c-2.71-.27-5.12 1.07-7.49 2.16a10.21 10.21 0 0 1-4 1.11c-1.7.05-3.38-.34-5.08-.35a18.53 18.53 0 0 0-7.59 1.79 84.34 84.34 0 0 0-7.47 4.08 68.32 68.32 0 0 1-8.28 4c-11.27 4.53-23.31 6.59-35 9.8-6.5 1.78-13 3.72-19.47 5.39-4.71 1.21-11.17 2.5-12.31 8.16-.62 3.08.44 6.15 1.64 9a57.35 57.35 0 0 0 5 9.3c1.68 2.52 3.76 4.5 6.87 4.95s6.39-.53 9.35-1.59l-1-2.3a35.4 35.4 0 0 0-4.75 4.15c-1.24 1.31-3.1 3-3.25 4.95-.17 2.09 1.95 4 3.16 5.44q2.22 2.72 4.56 5.34 4.65 5.24 9.72 10.08c3 2.8 6.36 5.5 10.65 5.36 4.75-.15 8.77-3.24 12.32-6.09l-2.03-1.24c-.73 3-3.82 4.81-4.6 7.86-.89 3.49 1.53 6.39 4.27 8.2a32.2 32.2 0 0 0 10.71 4.16 50.8 50.8 0 0 0 12.05 1.11 76 76 0 0 0 12.21-1.33c3.42-.63 7.94-1 9.92-4.25a25.7 25.7 0 0 0 2.17-5.85c.61-2.06 1.14-4.14 1.57-6.24a94.18 94.18 0 0 0 1.71-12.66c.34-4.85.38-9.73.31-14.59-.07-5.08-.48-10.19-.17-15.26a1.15 1.15 0 0 0-.57-1c-2.31-1.53-4.74-3.55-4.3-6.64.16-1.07.77-2.93 2-3.12 1.59-.24 2.56 2.09 3.08 3.21s2.27.32 1.94-.82c-1.55-5.36 2.29-10.74 3.11-15.94a25.32 25.32 0 0 0-2.41-15.19c-.44-.89-1.7-.11-1.31.76z" fill="#000000" class="fill-000000"></path><path d="m536.19 374 1.11.81a.57.57 0 0 0 .28.08.48.48 0 0 0 .29 0 .74.74 0 0 0 .45-.34.78.78 0 0 0 .08-.58l-.08-.17a.7.7 0 0 0-.27-.27l-1.12-.79a.62.62 0 0 0-.27-.09.57.57 0 0 0-.29 0 .74.74 0 0 0-.44.33.76.76 0 0 0-.08.57l.08.18a.72.72 0 0 0 .26.26zM547.84 361.24a4.76 4.76 0 0 0-.11.64 1 1 0 0 0 0 .24 1.69 1.69 0 0 0 .08.39 1.06 1.06 0 0 0 .16.34 1.32 1.32 0 0 0 .24.29 1.59 1.59 0 0 0 .5.3 1.27 1.27 0 0 0 .39.06.85.85 0 0 0 .75-.43 2 2 0 0 0 .17-.4 1.46 1.46 0 0 0 0-.22v-.32a1.75 1.75 0 0 0-.05-.33v-.11a2.88 2.88 0 0 0-.13-.31.75.75 0 0 0-.24-.26.62.62 0 0 0-.31-.16.67.67 0 0 0-.37 0 .63.63 0 0 0-.35.11.92.92 0 0 0-.42.55.91.91 0 0 0 .09.72.64.64 0 0 1 .08.14l-.09-.21a.83.83 0 0 1 .06.21v-.24a.74.74 0 0 1 0 .21v-.24a.66.66 0 0 1-.06.2l.85-.64H549h.23a.2.2 0 0 1-.11 0l.2.09-.12-.07.17.13-.11-.11.13.17a.51.51 0 0 1-.09-.16l.08.2a.9.9 0 0 1-.06-.22v.21a2.44 2.44 0 0 1 0-.54.6.6 0 0 0-.06-.3.62.62 0 0 0-.17-.25l-.15-.12a.63.63 0 0 0-.29-.1h-.21a.63.63 0 0 0-.29.1.76.76 0 0 0-.36.46zM546.06 359.52a4 4 0 0 1 .15-.45l-.08.18a4.3 4.3 0 0 1 .5-.85l-.13.16a4.63 4.63 0 0 1 .7-.7l-.2.14a6.49 6.49 0 0 1 .55-.36.84.84 0 0 0 .3-1.14.85.85 0 0 0-1.14-.3 4.57 4.57 0 0 0-2.14 2.93.77.77 0 0 0 .53.93.77.77 0 0 0 .93-.53zM556.21 374.87a2.9 2.9 0 0 0 .71.49 4.14 4.14 0 0 0 .49.19 3.09 3.09 0 0 0 .53.09.67.67 0 0 0 .31-.07.6.6 0 0 0 .25-.16.79.79 0 0 0 .23-.56.77.77 0 0 0-.23-.56.83.83 0 0 0-.56-.23h-.2.21a2.23 2.23 0 0 1-.56-.16l.18.08a2 2 0 0 1-.47-.27.46.46 0 0 0-.27-.09.61.61 0 0 0-.3 0l-.17.08a.55.55 0 0 0-.21.19.69.69 0 0 0-.15.44.72.72 0 0 0 .21.52z" fill="#000000" class="fill-000000"></path><path d="M550 423.28c18.11 6.18 34.05 17.26 50.64 26.8s34.8 17.83 53.93 17.47c18.67-.35 36.1-8.87 52.78-17.28 3.41-1.73 8.81-2.71 10 .93 2.3-4.23 8.58-4.8 12.72-2.33s6.55 7 8.43 11.44c1.13 2.66 2.16 5.59 1.4 8.37s-4.12 5-6.61 3.51c-4.8 10.14-13.79 17.64-23 24-25.28 17.27-56.15 28.49-86.43 24-21.89-3.23-41.73-14.26-61-25.09L514.64 468" fill="#32a16b" class="fill-18c4ff"></path><path d="M549.81 424.07c23.16 8.22 42.45 24.1 64.51 34.56 10.74 5.1 22.16 9 34.08 9.93 12.2.93 24.23-1.83 35.56-6.19 6.4-2.46 12.62-5.38 18.76-8.42 2.63-1.3 5.25-3 8.12-3.69 1.68-.42 4.59-.83 5.33 1.27a1.24 1.24 0 0 0 2.23.29c1.5-2.61 4.62-3.49 7.47-3.12 3.38.44 6.08 2.74 8 5.45a31 31 0 0 1 4.82 10.4c.43 1.87.44 4-.91 5.5-1 1.05-2.49 1.79-3.84 1.07a1.25 1.25 0 0 0-1.69.45c-6.41 13.35-19.73 22.24-32.12 29.54A137.07 137.07 0 0 1 656.88 518a97.86 97.86 0 0 1-46-2c-15.45-4.48-29.72-12.16-43.69-20q-23-12.88-45.87-26.1l-5.82-3.35c-1.87-1.07-3.57 1.85-1.69 2.89 15.92 8.74 31.84 17.48 47.68 26.38 14.26 8 28.65 16.09 44.24 21.26a100.89 100.89 0 0 0 46.78 4.18c15.57-2.28 30.57-7.91 44.35-15.45a154.5 154.5 0 0 0 19.48-12.54c5.86-4.46 11.34-9.53 15.37-15.74a43.33 43.33 0 0 0 2.66-4.75l-1.69.44c2.84 1.51 6.12 0 7.71-2.62 2.14-3.52.5-7.88-1-11.3-2.69-6.22-7.1-13-14.65-13.14a9.37 9.37 0 0 0-8.46 4.4l2.22.29c-1.56-4.38-6.92-3.68-10.39-2.27-2.62 1.06-5.12 2.51-7.65 3.76-2.79 1.37-5.6 2.72-8.44 4-11.38 5.16-23.49 9.43-36.09 9.94-25.27 1-47.76-13-68.63-25.47-11.86-7.09-23.9-14-37.08-18.35-1-.33-1.41 1.22-.43 1.57z" fill="#32a16b" class="fill-18c4ff"></path><path d="M730.06 446.09c1.14-3.36 2.43-6.79 4.7-9.57 1.88-2.3 4.58-4.25 7.61-4.5 1.68-.14 1.68-2.78 0-2.62a13.16 13.16 0 0 0-9.16 5.29c-2.48 3.19-3.66 7.13-4.63 11a.77.77 0 0 0 1.48.41zM743.1 438.53a17 17 0 0 1 7-4.32 17.53 17.53 0 0 1 3.93-.77 15.44 15.44 0 0 1 2 0 1.93 1.93 0 0 1 .72.1c.25.1.42.32.67.44a1.16 1.16 0 0 0 1.73-1c.07-2-2.67-2.11-4.08-2.06a16.49 16.49 0 0 0-4.93.88 17.53 17.53 0 0 0-8.13 5.68c-.59.74.37 1.79 1.07 1.07zM753.25 441a14.83 14.83 0 0 1 2-.66 5.73 5.73 0 0 1 .91-.15 5.81 5.81 0 0 1 .59 0h.28a2.77 2.77 0 0 1 .41.12c-.1 0-.07 0 0 0l.21.12.16.1c.07.05.16.13 0 0a2.81 2.81 0 0 1 .31.29s.14.16.06.06.06.09.07.11l.09.16c.14.22 0-.12 0 0a1.09 1.09 0 0 1 0 .17c0 .12 0 .16 0 0a2.26 2.26 0 0 1 0 .45 1.1 1.1 0 0 0 1.1 1.1 1.12 1.12 0 0 0 1.09-1.1 3.62 3.62 0 0 0-2.84-3.61c-1.87-.5-3.64.4-5.22 1.3-.74.42-.24 1.74.6 1.42zM757.4 447.76l.12-.07c.08-.05-.13 0 0 0a1.17 1.17 0 0 0 .38-.17c.07 0 .34-.14.09-.06l.24-.08.25-.07h.14s.17 0 0 0h.66-.11.14a4 4 0 0 1 .5.11c.1 0 .36.18.07 0l.23.11.22.14.09.06c-.26-.16-.11-.08 0 0a1.09 1.09 0 1 0 1.53-1.54 4 4 0 0 0-2.89-.92 4.49 4.49 0 0 0-1.52.43 4.86 4.86 0 0 0-.54.33 1.91 1.91 0 0 0-.42.43c-.06.09-.13.18-.18.27a.76.76 0 0 0 .11.9.79.79 0 0 0 .91.12zM761.17 453.66c3.31-.13 1.25 6.81-1 3.33-.78-1.22-1.26-2.64-2.58-3.41a3.17 3.17 0 0 0-3.44 0c-1.12.81-1.63 2.46-2.36 3.6a22.5 22.5 0 0 1-6.12 6.33 10.7 10.7 0 0 1-2.1 1.21 7.47 7.47 0 0 1-2.3.27 1.29 1.29 0 0 0-.64 2.38c1.65 1.08 4 .05 5.51-.86a24.53 24.53 0 0 0 4.57-3.67 26.14 26.14 0 0 0 3.4-4.3c.51-.82.85-1.81 1.39-2.59s1.41.16 1.81.78c.95 1.48 1.74 3.23 3.68 3.55a3.38 3.38 0 0 0 3.44-1.86 5.13 5.13 0 0 0 .21-4.64 2.84 2.84 0 0 0-3.87-1.55.76.76 0 0 0 .38 1.41zM595.49 247.69c.08-4.46 4.43-6.93 8-8.62 3.72-1.77 7.85-3.19 12-3.06a13.39 13.39 0 0 1 9.66 4.12c2.66 3 3.36 7.22 3.29 11.08l1.51-1.14c-.35-.07-.69-.14-1-.19-1.45-.23-2.1 1.87-.62 2.24.34.09.68.17 1 .24a1.2 1.2 0 0 0 1.5-1.15 20 20 0 0 0-2.19-10.28 14.05 14.05 0 0 0-7.61-6.28c-7.1-2.58-14.92.11-21.06 3.9-3.24 2-6.14 5.07-5.92 9.14a.73.73 0 0 0 1.45 0z" fill="#000000" class="fill-000000"></path><path d="M601.16 250.44a2.72 2.72 0 0 1 1.07-.12h.19l.32.07.27.08s.25.09.13 0a3.78 3.78 0 0 1 .53.28s.27.19.16.1l.2.18a1.89 1.89 0 0 1 .2.2l.12.14c-.05-.07-.05-.07 0 0a4.86 4.86 0 0 1 .33.54c.05.08.09.17.13.25s.12.28.06.11c.08.21.16.43.23.64.12.41.23.82.35 1.23s.23.82.38 1.22a4.79 4.79 0 0 0 .81 1.4 1.05 1.05 0 0 0 1.65-1.27s-.19-.41-.09-.18c-.07-.15-.13-.3-.2-.44l-.17-.35c.09.21 0-.06 0-.1-.16-.43-.3-.87-.44-1.31a8.31 8.31 0 0 0-1.33-2.78 4.76 4.76 0 0 0-5.25-1.38.76.76 0 0 0 .4 1.46zM612.55 247.07a11.48 11.48 0 0 1 1 3.34 16.56 16.56 0 0 1 0 3.45c-.07 1.09 1.59 1.27 1.87.26a9.89 9.89 0 0 0 0-4.16 10.94 10.94 0 0 0-1.38-3.75.85.85 0 0 0-1.46.86zM620 245.48a9.45 9.45 0 0 1 .93 7.36 1 1 0 0 0 1.93.53 10 10 0 0 0-1.4-8.74.87.87 0 0 0-1.16-.31.86.86 0 0 0-.3 1.16zM521.77 475a242 242 0 0 1 22.76 12.28 1 1 0 0 0 1-1.66 195.93 195.93 0 0 0-23-11.92c-.87-.39-1.65.89-.76 1.3zM410.54 462.35c30.28 8.63 54.66 35.28 60.57 66.21-.23-1.17-6.65 4.43-7 4.93-5.29 6.87-5.63 16.94-7.08 25.25q-2.6 14.84-4.46 29.8c-3.14 25.24-4.25 50.66-5.86 76-1.32 20.92-3.83 43.56-20.27 58.5-23.8 21.64-41.06 30.28-72.55 40.16s-83.35 23.7-111.43 41c-3.46 2.14-7 4.57-8.86 8.17-2.13 4-1.88 8.88-3 13.31s-4.69 9.07-9.21 8.4c-2.75-.4-4.81-2.65-6.52-4.85a80 80 0 0 1-15.95-37.79c-.55-4-.74-8.23 1.22-11.72s5.6-5.48 9.07-7.36q76.55-41.31 149-89.72c3.65-2.43 7.43-5 9.46-8.93 1.6-3.07 1.93-6.62 2.22-10.07 4-48 4.22-97.6 23.66-141.61 8.23-18.63 20-37 19.11-57.34l-1.51 9" fill="#000000" class="fill-000000"></path><path d="M410.34 463.1a88 88 0 0 1 53.22 46.15 81.66 81.66 0 0 1 6.4 19.62l2.29-.63c-1.32-3.25-7.14 2.65-8.36 3.76-4.22 3.85-5.61 10.78-6.52 16.15-2.83 16.66-5.43 33.41-7.2 50.23-1.87 17.74-2.9 35.56-4 53.36-.88 14.77-1.22 29.9-5.29 44.22a60.55 60.55 0 0 1-8.43 18.3c-4.18 6-9.9 10.67-15.47 15.28a151.45 151.45 0 0 1-31.51 20.39c-12 5.71-24.64 9.8-37.29 13.69s-25.08 7.53-37.57 11.47c-13.39 4.24-26.73 8.72-39.77 14-6 2.42-12 5-17.82 7.9-5.28 2.62-10.74 5.4-15.42 9a17.48 17.48 0 0 0-6.15 8.1c-1.27 3.66-1.18 7.59-2.13 11.32-.75 3-2.72 6.55-5.91 7.37-3.95 1-6.81-3.15-8.81-5.88a78.5 78.5 0 0 1-13.76-31.4c-.77-3.9-1.61-8.22-.72-12.17s3.83-6.43 7.2-8.41 7.09-3.87 10.63-5.81q11.58-6.32 23.06-12.81 22.65-12.79 44.94-26.23t44.19-27.49q10.95-7 21.8-14.21c3.44-2.28 7-4.48 10.28-7a20.87 20.87 0 0 0 6.75-7.56c1.58-3.38 1.86-7.14 2.17-10.8q.49-6.18.94-12.36c.59-8.16 1.13-16.33 1.74-24.49 1.21-16.37 2.67-32.76 5.34-49a236.89 236.89 0 0 1 12.24-46.78c5.74-14.89 14.26-28.63 19.18-43.85a61.48 61.48 0 0 0 3.31-21.84c-.07-1.41-2.37-1.91-2.61-.35-.47 3-.9 6.05-1.41 9.06-.26 1.54 2.09 2.2 2.35.65.51-3 1.09-6 1.63-9l-2.62-.35c.43 16.28-6.59 30.91-13.52 45.23A228.5 228.5 0 0 0 381.05 555c-7.81 31.72-9.25 64.53-11.62 97-.3 4.11-.6 8.22-.95 12.33s-1 8.19-3.81 11.43c-2.56 3-6 5-9.25 7.2q-5.49 3.64-11 7.27-21.76 14.28-43.91 27.94-44.6 27.51-90.71 52.45c-3 1.61-6.12 3.18-8.55 5.6a13.83 13.83 0 0 0-3.94 8.91c-.32 3.86.44 7.87 1.21 11.64a78.91 78.91 0 0 0 3.06 10.89 81.31 81.31 0 0 0 10.47 20c1.93 2.67 4 5.73 7.11 7.13a7.6 7.6 0 0 0 7.81-1c6.08-4.57 4.76-12.32 6.87-18.74s9.4-10 15-13.06c11.63-6.34 24-11.24 36.48-15.72 25.46-9.18 51.67-16 77.3-24.59 12.11-4.08 24-8.86 35.07-15.36a150.47 150.47 0 0 0 15.43-10.47A163.07 163.07 0 0 0 429 722.32c9.76-9.77 14.49-23 16.72-36.39 2.58-15.48 2.8-31.36 3.76-47 1.09-17.81 2.38-35.62 4.67-53.32 1.17-9.07 2.62-18.08 4.12-27.1 1.15-6.87 1.47-14.19 4.51-20.57a15 15 0 0 1 3.92-5.23c.83-.71 1.67-1.4 2.55-2.05.34-.24.68-.49 1-.71a2.35 2.35 0 0 0 .45-.26c.57-.74.43 2.09-.77-.83a1.19 1.19 0 0 0 2.29-.63c-4.8-24.42-20.75-46.11-42.22-58.57a80.35 80.35 0 0 0-19.28-8.07.78.78 0 0 0-.41 1.5z" fill="#000000" class="fill-000000"></path><path d="M410.54 462.35c-69.38 13.59-78.06 79.39-127.46 95.32-12.75 4.11-30-.62-43.37.71-47.65 4.77-69.56 10.11-117.21 14.87-32.56 3.26-44.68-15.32-67.86 7.76-3.44 3.42-29.9 30.79-29.64 35.64.43 7.8 9.94 12.16 17.66 10.94s14.32-6 21.5-9.08c21.72-9.3 45.45-2.46 67.81-.09 53 5.61 77.2 14 130.14 6.47 27.08-3.87 64.19-10.62 87.12-25.81 26.24-17.39 46.37-46.46 66.1-71" fill="#000000" class="fill-000000"></path><path d="M410.34 461.61a101.05 101.05 0 0 0-37.65 14.73c-10 6.45-18.71 14.53-26.69 23.28-14.74 16.16-27.15 35.41-45.43 48a69.59 69.59 0 0 1-14.08 7.54c-7.35 2.86-14.76 3.24-22.57 2.82-8.6-.47-17.13-1.55-25.75-.68q-13.78 1.41-27.54 3.17c-15.3 2-30.55 4.31-45.84 6.45q-12.45 1.74-24.93 3.21c-8.89 1-17.91 2.44-26.88 2.26a115.09 115.09 0 0 1-19.48-2.47c-5.16-1-10.41-2.09-15.69-1.9-10.79.4-19.07 6.93-26.3 14.37s-14.15 14.79-20.62 22.71c-2.43 3-5.31 6.15-6.77 9.76-1.84 4.53 2.48 9.52 6.11 11.64 6.46 3.78 13.76 2.83 20.38 0 4-1.69 7.82-3.9 11.76-5.79A55.76 55.76 0 0 1 76 616.28c18.59-3.61 37.53 1.44 56 3.44 32.33 3.51 64.58 10.29 97.23 9.4 16.86-.45 33.62-2.74 50.23-5.62 16-2.77 31.95-6.29 47.19-11.91a118.43 118.43 0 0 0 20.52-9.59 127.47 127.47 0 0 0 19.4-14.82c12.73-11.56 23.67-24.93 34.31-38.39 5.16-6.54 10.27-13.12 15.49-19.61 1.17-1.46-.9-3.55-2.08-2.08-10.63 13.23-20.7 26.91-31.84 39.72-10.83 12.46-22.81 24.65-37.08 33.18-13.35 8-28.57 12.67-43.61 16.3a410.93 410.93 0 0 1-47.13 8.32 261.39 261.39 0 0 1-49.16 1.38c-15.38-1.06-30.62-3.41-45.88-5.49-8.94-1.21-17.89-2.34-26.86-3.31s-18.11-2.57-27.19-3.65c-8.9-1.06-17.92-1.59-26.83-.34a59.22 59.22 0 0 0-13.23 3.37c-4 1.57-7.78 3.66-11.63 5.6-6.89 3.48-14.81 6.32-22.1 2.21-2.65-1.5-5.58-4.41-5.45-7.73a7.93 7.93 0 0 1 1.2-2.66 86 86 0 0 1 8.5-10.94c3.6-4.19 7.33-8.28 11.11-12.31 6.42-6.86 13-14.84 22-18.37 10.19-4 21-.28 31.31 1.35 16 2.53 32.09-.1 48-2.11 15.21-1.91 30.36-4.21 45.53-6.36q12.18-1.74 24.4-3.24c8.83-1.07 17.87-2.6 26.77-2.6 8.45 0 16.85 1.32 25.31 1.25a48.87 48.87 0 0 0 19.57-4.25c19.8-8.63 33.39-26.12 46.82-42.3 15.24-18.38 31.82-35.83 54.38-45a124.3 124.3 0 0 1 19.6-6c1-.22.55-1.65-.41-1.48z" fill="#000000" class="fill-000000"></path><g fill="#32a16b" class="fill-18c4ff"><path d="M280 282.84q25.26-.75 50.54-.08c1.17 0 1.34-1.43.55-2-6.2-4.6-8.84-13.05-6.93-20.45 2-7.66 9-12.68 16.74-13.2a18.68 18.68 0 0 1 12.06 3.22c.89.62 2-.4 1.78-1.36-3.2-11.38-4.58-23.81-.95-35.27 2.9-9.18 9.15-17.58 18-21.7 8.49-3.94 18.55-3 26.89.85A43.47 43.47 0 0 1 419 213c5.36 10.54 7.16 22.59 7.13 34.31a1.56 1.56 0 0 0 2.88.77 60.46 60.46 0 0 1 6.46-10.19c2.34-2.85 5.21-5.62 8.75-6.89 8.3-3 15.67 3.59 18.26 11.1 1.89 5.48 2 11.34 2.08 17.08a1.61 1.61 0 0 0 3.14.42c1.73-6.2 11.28-8 15.29-3.05 1.19 1.48 3.27-.63 2.09-2.1-5.54-6.88-18.11-4.18-20.46 4.3l3.14.43c-.19-10.26-.88-21.88-9.73-28.67a15.58 15.58 0 0 0-12.45-3.11c-4.23.78-7.89 3.46-10.78 6.55a57 57 0 0 0-8.46 12.58l2.88.78c0-21.32-6.7-45.19-26.82-55.89-8.7-4.63-19.22-6.44-28.71-3.25-9.78 3.28-17.13 11.39-21.07 20.74-5.47 12.93-4.09 27.47-.29 40.65l1.77-1.36c-7.1-4.93-17.18-4.59-24.26.22-7.31 5-10.05 14.11-7.82 22.5a20.72 20.72 0 0 0 7.98 11.69l.55-2q-25.28-.32-50.54.7a.77.77 0 0 0 0 1.54zM576.75 621.68a120.78 120.78 0 0 1 38.79-.47c.94.14 1.94-1 1-1.79-4.57-4-5.17-11.2-2.11-16.29 3.31-5.49 10.29-6.47 15.7-3.58a12 12 0 0 1 6.22 7.71c.37 1.51 2.68.87 2.33-.65-3.24-13.83.07-30.59 12.5-39a28.25 28.25 0 0 1 18.9-4.81c6.72.8 12.44 4.71 16.45 10 4.7 6.27 7.36 13.81 9.83 21.16a1.45 1.45 0 0 0 2.77 0 43.37 43.37 0 0 1 20.24-26.45c2.87-1.63 6.22-3.2 9.61-2.81 2.84.32 5.12 2.15 6.91 4.28a40.4 40.4 0 0 1 4.89 8 72.44 72.44 0 0 1 3.8 9 74.32 74.32 0 0 1 3.93 22.26 1.53 1.53 0 0 0 2.58 1.07c5.27-5.68 12.19-12.67 20.71-10.23a9.77 9.77 0 0 1 4.23 2.37 9.17 9.17 0 0 1 2.25 4.41 13.38 13.38 0 0 0 2 5 6.25 6.25 0 0 0 5.2 2.33 64.6 64.6 0 0 0 8.3-1l9.12-1.19c1.57-.22 1.21-3-.38-2.8-5.32.67-10.67 1.58-16 2-2.26.18-3.83-.37-4.61-2.59-.61-1.73-.86-3.55-1.62-5.22-3.34-7.31-13-8-19.47-4.92-4.67 2.22-8.36 6-11.82 9.78l2.58 1.07a76.83 76.83 0 0 0-3.65-21.79c-2.1-6.51-5-13.29-9.18-18.74a15.41 15.41 0 0 0-7.3-5.57c-3.36-1.06-6.93-.3-10.08 1.05a42.74 42.74 0 0 0-15.1 11.33 46.05 46.05 0 0 0-9.86 18.62h2.77c-4.52-13.36-10.89-29.62-26.43-32.81a30.16 30.16 0 0 0-20.75 3.64 32.81 32.81 0 0 0-14.23 17 44.72 44.72 0 0 0-1.39 26.23l2.33-.65c-1.71-7-9.22-11.68-16.28-11-7.49.74-12.28 7.52-12.09 14.78a14.26 14.26 0 0 0 4.71 10.52l1.05-1.8a121.56 121.56 0 0 0-39.78 1c-1 .19-.58 1.72.42 1.55zM260.38 453.25a48.23 48.23 0 0 0 8.57.57c2.95-.08 5.83-.63 8.77-.9a1.12 1.12 0 0 0 1.06-1.4c-1.37-6.07.2-14 6.23-17.08 4.68-2.38 11.93-.55 13.4 4.92a1.22 1.22 0 0 0 2.38-.32c0-10.5 5.3-21.32 14.51-26.71 4.14-2.42 9.09-3.51 13.71-1.85a17.35 17.35 0 0 1 9 8 15.38 15.38 0 0 1 1.12 13.25c-.47 1.17 1 2 2 1.52 6.67-3.52 9.4-11.1 15.4-15.35 7.71-5.47 16.62.9 19.43 8.63 2 5.42 2 11.27 2 17a1.48 1.48 0 0 0 2.49 1c2.08-1.69 4.44-3.65 7.2-4a5.06 5.06 0 0 1 5.26 2.55c.67 1.38 3 .4 2.5-1.05a7.26 7.26 0 0 0-7.3-4.46c-3.8.13-6.91 2.6-9.72 4.89l2.49 1c-.07-10.19-.72-22-10.23-28.13a13.81 13.81 0 0 0-12.64-1.52c-3.66 1.49-6.35 4.46-8.76 7.49-2.8 3.51-5.46 7.43-9.52 9.6l2 1.52c3.51-8.86-1.7-19.51-10-23.59-10.67-5.25-22.11 2.36-27.89 11.3a34.48 34.48 0 0 0-5.48 18.9l2.38-.33c-1.42-5.2-6.93-8-12.08-7.63-6 .42-10.34 5.08-11.89 10.68a21.08 21.08 0 0 0-.13 10.35l.77-1.36c-5.1 1.9-11.3 1.73-16.62 1-1-.14-1.43 1.37-.42 1.53zM59.78 734.72c12.23.41 24.47.8 36.7 1.25a1 1 0 0 0 .73-1.76c-3.37-3.33-3.39-9.54.26-12.71a8.88 8.88 0 0 1 12.34 1.33c.6.79 2.35.7 2.18-.6-1.71-13.62 5.14-27.59 16.4-35.27 6-4.07 13.53-6.66 20.8-5.69a16.73 16.73 0 0 1 9.62 4.62 26.21 26.21 0 0 1 5.07 7.66c3.13 6.71 4.8 14.1 9 20.28a1.38 1.38 0 0 0 2.54-.68c.92-12 10.86-22.21 22.4-24.88 11.88-2.75 23.38 3.89 29 14.29a27 27 0 0 1 2.84 18.9c-.37 1.58 1.9 2.69 2.71 1.14a9.7 9.7 0 0 1 11-4.8c4.4 1.28 7 6 6.77 10.36-.08 1.45 2.32 1.82 2.58.35a12.27 12.27 0 0 0-8.36-13.51 12.69 12.69 0 0 0-14.52 6.15l2.71 1.14c2.95-12.72-3.52-26.38-14.42-33.23a27.53 27.53 0 0 0-18.55-4 32 32 0 0 0-17.36 8.6 30.11 30.11 0 0 0-9.52 19.52l2.53-.69c-7.54-11-7.82-29.33-23.06-33.25-7.61-2-16 .19-22.71 4.06a41.1 41.1 0 0 0-15.05 15.45 38.23 38.23 0 0 0-4.76 23.51l2.18-.59c-3.64-4.75-11-5.85-15.71-1.94s-4.74 11.8-.37 16l.73-1.76c-12.23-.25-24.47-.56-36.7-.84a.83.83 0 0 0 0 1.65zM381.19 531.71q-3.07 19.6-6.14 39.22c-.16 1.05 1.45 1.5 1.62.44q3-19.62 6-39.26c.15-1-1.31-1.36-1.46-.4zM392.09 473.35c2.07.21 3.45 2 4.61 3.53 1.4 1.88 2.71 3.89 4.68 5.24 1 .66 1.9-.93.92-1.58-3.74-2.5-5.09-8.41-10.21-8.72-1-.06-1 1.44 0 1.53zM423.64 495.7a52.91 52.91 0 0 0 12.64 9.35c1 .55 2-1 .92-1.58a54.63 54.63 0 0 1-12.46-8.87c-.73-.69-1.82.39-1.1 1.1zM374.74 675l10.67 5.54c.9.46 1.7-.91.79-1.37l-10.71-5.46c-.85-.44-1.61.84-.75 1.29zM381.44 668.88a9.18 9.18 0 0 0 5.74 4.81.79.79 0 0 0 1-.55.82.82 0 0 0-.55-1 7.46 7.46 0 0 1-.84-.26h-.13c.07 0-.11-.05-.13-.06l-.39-.19a7.74 7.74 0 0 1-.73-.43 6.32 6.32 0 0 1-.62-.45 7.54 7.54 0 0 1-2.05-2.58.73.73 0 0 0-1.27.74zM285.17 561.87l2.52 4.93a.84.84 0 0 0 1.14.3.86.86 0 0 0 .3-1.15l-2.62-4.87a.78.78 0 0 0-1.06-.28.79.79 0 0 0-.28 1.07zM290.51 561.35l1.5 3.29a.84.84 0 0 0 1.16.3.87.87 0 0 0 .3-1.16l-1.61-3.22a.78.78 0 0 0-1.07-.28.81.81 0 0 0-.28 1.07zM124.5 578c1.14-.08.33 8.24.19 9.19a42.59 42.59 0 0 1-2.24 8.89 40.49 40.49 0 0 1-4.23 8.29 61.38 61.38 0 0 1-6.12 7.26 1 1 0 0 0 1.39 1.39 31.7 31.7 0 0 0 6.93-8.27 42.55 42.55 0 0 0 4.51-9.81 40.32 40.32 0 0 0 1.85-10.62 34.5 34.5 0 0 0-.18-5.47c-.14-1.13-.72-2.54-2.1-2.41-1 .1-1 1.63 0 1.56zM26.54 616.69c4.22 3.18 9.85-.09 13.72-2.26A121.84 121.84 0 0 0 55 604.55c4.66-3.59 9.13-7.41 13.54-11.3 2.21-1.94 4.44-3.86 6.58-5.87A18.74 18.74 0 0 0 80 581c1-2.33 1.41-5.81-.21-8-1-1.31-4.26-1.49-3.57.81a1 1 0 0 0 1.92-.52l-.45.66h.18c0-.05.3.19.33.22a3.69 3.69 0 0 1 .53 1.65 7.76 7.76 0 0 1-.27 3.45 14.31 14.31 0 0 1-3.83 5.8c-3.36 3.37-7.07 6.46-10.65 9.59a161.79 161.79 0 0 1-22.87 17.25c-3.61 2.17-9.6 6.46-13.76 3.39-.84-.62-1.63.77-.81 1.38zM202.74 781.5c2-1.12 4.39 1.77 5.57 3.09a31.08 31.08 0 0 1 3.75 5.29 51.24 51.24 0 0 1 4.65 11.91 158.53 158.53 0 0 1 4.74 29.68c.09 1.23 2 1.26 1.94 0a134.69 134.69 0 0 0-3.76-26.19c-1.71-7.15-4-14.46-8.64-20.3-1.87-2.36-5.63-6.86-9.05-4.85a.79.79 0 0 0 .8 1.37zM253.28 752.17c2.94 1 5 3.44 6.65 6a69.14 69.14 0 0 1 4.45 8.75c2.92 6.62 5 13.69 4.79 21a1 1 0 0 0 2.08 0c.25-7.82-2.09-15.37-5.37-22.39-2.59-5.56-5.75-12.95-12.2-14.82-.94-.27-1.31 1.14-.4 1.46z"></path></g><g fill="#ffffff" class="fill-ffffff"><path d="M442.56 459.46A365.07 365.07 0 0 1 477 433.88c1-.64.06-2.23-.92-1.58a347.89 347.89 0 0 0-34.54 26.11c-.73.63.33 1.67 1.05 1zM610.22 502.27l5.36-9.11a.79.79 0 0 0-1.36-.79l-5.29 9.14a.75.75 0 0 0 1.29.76zM616.33 504.56l3.79-6.08c.53-.85-.8-1.62-1.32-.78l-3.8 6.08c-.54.85.81 1.64 1.34.78zM510.78 307.65l1.52 2.28a.88.88 0 0 0 .49.38.82.82 0 0 0 .93-1.21l-1.52-2.28a.83.83 0 0 0-1.13-.3.84.84 0 0 0-.29 1.13zM519.86 302.88a8.44 8.44 0 0 0 2.43 4.21.84.84 0 1 0 1.19-1.2 9.45 9.45 0 0 1-.76-.79l-.07-.09v-.05s-.11-.15-.15-.2-.21-.31-.3-.47-.18-.31-.26-.46-.09-.17-.12-.26l-.06-.11c0-.09 0 0 0 0a6.92 6.92 0 0 1-.35-1.06.8.8 0 0 0-1-.56.82.82 0 0 0-.56 1z"></path></g></svg>