<svg viewBox="0 0 1000 1000" xmlns="http://www.w3.org/2000/svg"><path d="M648.8 514.13c55.12 38 102.18 87 141.71 141.12 18.65 25.51 36.16 53.43 39.88 84.81 1.07 9 .93 18.31-2.19 26.8-5.15 14-17.81 24-31.42 30a95.11 95.11 0 0 1-72.61 1.47c-11.34-4.48-21.69-11.13-31.81-17.94a858.3 858.3 0 0 1-125.63-103.17" fill="#32a16b" class="fill-18c4ff"></path><path d="M648.42 514.79a569.34 569.34 0 0 1 48.22 38.14 596.27 596.27 0 0 1 43.72 42.93q20.92 22.74 39.64 47.38c12.4 16.25 24.56 32.93 34 51.1a150.86 150.86 0 0 1 11.46 28.15c2.86 10 4.73 20.69 4.05 31.15a43.08 43.08 0 0 1-11 26.46 65.9 65.9 0 0 1-22.24 15.55 93.74 93.74 0 0 1-60.52 5c-20.95-5.29-38.88-18.54-56.29-30.76q-26.65-18.72-51.83-39.44t-48.59-43.11c-3.83-3.67-7.67-7.33-11.44-11.07a1.29 1.29 0 0 0-1.82 1.82q23.52 23.37 48.7 44.93t51.93 40.87q13.51 9.83 27.4 19.1c9.19 6.15 18.59 12.01 28.79 16.17a96.51 96.51 0 0 0 61.28 3.68c17.64-4.77 36.22-15.08 44.2-32.34 4.54-9.81 4.84-20.85 3.48-31.41a123.78 123.78 0 0 0-7.82-29.71c-7.7-19.48-19.29-37.12-31.58-54s-25.25-33.08-39-48.71a608.69 608.69 0 0 0-43.54-44.88 502 502 0 0 0-48-39.62q-6.2-4.46-12.51-8.72c-.81-.55-1.55.75-.76 1.31z" fill="#32a16b" class="fill-18c4ff"></path><path d="M404 196.23c-14.12 25-26.06 69.35-49.73 95.21-6.16 6.72-13 13.45-15.39 22.24-2.26 8.34-.09 17.31 3.58 25.13a69.19 69.19 0 0 0 37.72 34.93c3.12 1.18 6.87 2.06 9.6.14s1.83-7.56-1.49-7.2c-5.72 6.5-.33 16.65 5.85 22.72 28.06 27.6 70.26 35.35 109.64 34.67 20.58-.35 41.35-2.69 60.65-9.85s37.1-19.48 48.27-36.76c2.17-3.36 2.59-9.68-1.41-9.56-1.26 1-.61 3.22.81 4s3.15.45 4.71.05c17.89-4.58 31.27-19.58 40.64-35.49 8.26-14 14.37-31.19 8.43-46.33-5.55-14.14-19.87-22.41-30.74-33-15.08-14.71-23.84-34.51-33.12-53.42-5.94-12.11-20.48-36.47-33.24-40.82" fill="#000000" class="fill-000000"></path><path d="M403.39 195.89c-5.83 10.12-10.3 21-14.89 31.67-5.2 12.15-10.41 24.33-16.66 36a162.6 162.6 0 0 1-10.22 16.76 153.1 153.1 0 0 1-12.55 14.94c-4.59 5-9.07 10.49-11.15 17.08-2.34 7.39-1.17 15.42 1.48 22.55a69.3 69.3 0 0 0 24.28 31.37 61.29 61.29 0 0 0 17.82 9.27c2.95.89 6.55 1.27 9.13-.76a5.81 5.81 0 0 0 1.77-6c-.47-1.8-2.35-4-4.47-3.29-1.07.34-1.88 2.08-2.31 3a11.43 11.43 0 0 0-1 4.15c-.32 6.18 3.57 12.24 7.62 16.58 9.11 9.77 21.1 17.22 33.25 22.58 25.22 11.13 53.4 14.19 80.74 13.51 30.5-.77 62.26-6.43 87.07-25.37a90 90 0 0 0 15-14.29c3.39-4.13 8.16-9.32 7.22-15.13-.33-2-1.67-3.83-3.86-3.9-2.81-.09-2.55 3.88-1.26 5.39 2.17 2.53 6 1.36 8.7.54a50.5 50.5 0 0 0 9-3.75c12-6.39 21.17-17 28.34-28.32 7.64-12.06 14.35-26.54 12.93-41.17a36.87 36.87 0 0 0-7.37-18.61c-3.89-5.2-8.73-9.54-13.66-13.71-5.15-4.36-10.41-8.58-15-13.51a110.15 110.15 0 0 1-13.51-18.12c-13.24-21.69-21-47.15-39.23-65.57-3.29-3.32-7-6.46-11.51-8-1.36-.48-1.94 1.68-.59 2.15 6.41 2.27 11.46 8.09 15.6 13.23a140.56 140.56 0 0 1 13.08 19.76c4.05 7.23 7.43 14.81 11.13 22.22a192 192 0 0 0 14.39 25 107.74 107.74 0 0 0 18.58 20.11c6.55 5.57 13.57 10.94 18.71 17.92a36 36 0 0 1 6.72 26.11c-1.16 9.88-5.4 19.28-10.42 27.76-8.92 15.1-21.71 29.93-39.3 34.58a8 8 0 0 1-3.55.42c-.88-.18-2.16-1.35-1.23-2.23l-.9.36c3.15.06 1.43 5.69.58 7.21a59.6 59.6 0 0 1-7.94 10.43 92.9 92.9 0 0 1-20.28 16.68c-16.83 10.36-36.23 15.58-55.74 17.81a245.43 245.43 0 0 1-56 0c-17.2-2-34.37-6.19-50-13.87a105.68 105.68 0 0 1-21.56-14c-5.94-5-13.69-12.05-13.34-20.6a8.64 8.64 0 0 1 2.07-5.31l-.88.36c1.25-.06 1.76 1.05 1.84 2.16a3.13 3.13 0 0 1-2.43 3.43c-3.62 1.12-8.08-1.21-11.28-2.7a68.19 68.19 0 0 1-32.22-31.28c-3.85-7.76-6.43-16.91-4.09-25.51 2.13-7.84 7.86-14 13.22-19.78a124.23 124.23 0 0 0 13-16.71c8-12.45 14.16-26 19.92-39.61 5.86-13.85 11.09-28.14 18.35-41.34.42-.77-.74-1.45-1.17-.69zM709.78 589c-2.92-21.09-10.76-41.68-24.91-57.83-15.07-17.19-36-27.68-56-38.12l-69.21-36.25-8.1-4.24-4.42-2.31c-1.07-.56-2.71-1.89-3.91-2-.81-.09-1.77.63-2.47 1l-12.84 6.55-28.42 14.49h1l-29-14.76c-4.45-2.27-8.89-4.57-13.36-6.81a4 4 0 0 0-.8-.4c-1.05-.22-2.15.73-3.06 1.21l-5.15 2.7-19.88 10.41-39.4 20.63c-12.56 6.58-25.25 13-37.62 19.92-11.09 6.22-22 13.12-31.23 21.9a96.17 96.17 0 0 0-21.25 30.09c-6.95 15.31-9.94 31.62-10.59 48.29-.62 15.72-.57 31.47-.44 47.2q.19 26.42 1 52.84c.22 7.06.48 14.12.83 21.18.25 5 .34 10 1.05 14.91.88 6.09 6.9 6 11.85 6.55q11 1.15 22.09 2 21.94 1.65 43.95 2a763.19 763.19 0 0 0 88.29-3.64c5.73-.56 11.51-.65 17.26-.73l-.92-.7c.09.4.19.81.28 1.21a1 1 0 0 0 .93.7 270.72 270.72 0 0 1 49.2 0 1 1 0 0 0 .93-.7c.09-.4.19-.81.28-1.21l-.92.7c15 .22 29.78 2 44.7 3q24.84 1.57 49.74 1.51 24.67-.06 49.32-1.72 12.5-.84 25-2.1c5.4-.55 13.7.11 14.71-6.85.81-5.59.88-11.35 1.15-17 .39-8.26.67-16.53.91-24.8q.86-29.85.92-59.73c0-15.19.24-30.56-1.16-45.7-.09-1-.2-2.06-.34-3.09-.16-1.2-2.08-1.22-1.91 0 .71 5.32.88 10.72 1.07 16.08.28 8.14.38 16.29.41 24.43.09 19.51-.18 39-.65 58.52-.38 15.25-.74 30.54-1.82 45.76-.08 1.12-.16 2.23-.26 3.34a19.27 19.27 0 0 1-.31 2.52c-.55 2.4-2.29 3.26-4.54 3.67-3.89.7-7.93.9-11.86 1.27s-7.9.73-11.86 1q-24.2 1.93-48.47 2.32-24.47.39-48.94-.79-12.1-.6-24.2-1.57c-7-.56-13.92-1.43-20.9-1.74-3.56-.16-7.12-.23-10.68-.29a1 1 0 0 0-.93.71c-.09.4-.18.81-.28 1.21l.92-.7a270.72 270.72 0 0 0-49.2 0l.92.7c-.1-.4-.19-.81-.28-1.21a1 1 0 0 0-.93-.71c-10.59.16-21 1.18-31.58 2q-18.24 1.47-36.53 2.06-36.39 1.19-72.78-1.14-9-.57-18-1.36c-5.95-.53-12.1-.78-18-1.84a6.46 6.46 0 0 1-3.42-1.38c-1-1-1.19-2.51-1.34-3.86-.09-.8-.15-1.61-.21-2.41-.15-1.88-.27-3.76-.38-5.63-.69-11.45-1.05-22.92-1.38-34.38-.78-28-1.27-56.16-.62-84.23.24-10.33.61-20.59 2.67-30.75 4.07-20 13.1-39.15 27.85-53.56 15.65-15.29 35.95-24.93 55.12-35l64.8-33.93 16.2-8.49h-1l38.11 19.43c1.51.77 3.23 2 4.87 2.48 1.25.34 2.89-1 4-1.51l22-11.23 18-9.17h-1l85.79 44.93c12.75 6.68 25.64 13.3 37.37 21.71A98.61 98.61 0 0 1 693.87 547c7.58 13 12 27.64 14.06 42.52.17 1.19 2.01.67 1.85-.52z" fill="#000000" class="fill-000000"></path><path d="M708.85 589.24c-3.05-22.45-11.75-44.91-29-62.06-13.52-13.41-31.51-22.89-49.19-32.15L543 449.14l-43 21.91-43-21.91L369.38 495c-17.68 9.26-35.67 18.74-49.19 32.15-17.29 17.15-26 39.61-29 62.06s-.86 126.55 1.33 149.08c.16 1.6.37 3.33 1.63 4.53s3.65 1.66 5.73 1.89a758.46 758.46 0 0 0 158.42.72c3.67-.37 9.76-.59 16.85-.69.1.41.19.81.29 1.22 5-.53 14.3-.92 24.6-1.13 10.3.21 19.65.6 24.6 1.13.1-.41.19-.81.29-1.22 7.09.1 13.18.32 16.85.69a758.46 758.46 0 0 0 158.42-.72c2.08-.23 4.34-.55 5.73-1.89s1.47-2.93 1.63-4.53c2.15-22.5 4.35-126.6 1.29-149.05z" fill="#32a16b" class="fill-18c4ff"></path><path d="M710.7 588.73c-2.94-21.26-10.9-42-25.15-58.24-15.12-17.26-36.17-27.8-56.17-38.27L560.16 456l-8.1-4.25-4.42-2.31c-1.24-.65-2.76-1.84-4.14-2.12-1.1-.23-2.25.59-3.2 1.07l-12.84 6.55L499 469.4h2l-29-14.76c-4.45-2.27-8.88-4.58-13.35-6.81a6.46 6.46 0 0 0-.92-.44c-1.41-.45-2.69.61-3.91 1.25l-5.15 2.7-19.89 10.41-39.38 20.63c-12.57 6.59-25.26 13-37.63 19.92-11.16 6.27-22.09 13.22-31.42 22.05A97.14 97.14 0 0 0 299 554.63c-7 15.47-10.06 31.93-10.72 48.78-.62 15.72-.57 31.47-.44 47.2q.21 26.42 1 52.84c.22 7.06.48 14.12.84 21.18.24 5 .36 10 1 14.91.36 2.56 1.48 4.76 3.89 5.92 2.69 1.3 6 1.28 8.92 1.59q11 1.16 22.09 2 21.94 1.65 43.95 2a765.42 765.42 0 0 0 88.29-3.64c5.73-.57 11.51-.65 17.26-.73l-1.84-1.41c.09.41.18.81.28 1.22a1.91 1.91 0 0 0 1.85 1.4 270.72 270.72 0 0 1 49.2 0 1.91 1.91 0 0 0 1.85-1.4c.1-.41.19-.81.28-1.22l-1.84 1.41c15 .22 29.78 2 44.7 3q24.84 1.58 49.74 1.51 24.67-.06 49.32-1.72 12.5-.86 25-2.11c3.48-.35 7.43-.31 10.76-1.46a7.22 7.22 0 0 0 4.91-6.34c.77-5.6.88-11.34 1.14-17 .39-8.26.68-16.53.92-24.8q.85-29.85.92-59.73c0-15.19.24-30.56-1.16-45.7-.09-1-.2-2.06-.34-3.09-.32-2.41-4.16-2.44-3.83 0 .71 5.32.89 10.72 1.07 16.08.28 8.14.38 16.29.42 24.43.08 19.51-.18 39-.66 58.52-.37 15.25-.77 30.54-1.77 45.73-.07 1.12-.16 2.23-.26 3.34a16.81 16.81 0 0 1-.27 2.26c-.47 2.07-1.95 2.66-3.88 3-3.8.67-7.75.87-11.6 1.24s-7.9.72-11.86 1q-24.2 1.94-48.47 2.33-24.47.39-48.94-.8-12.1-.59-24.2-1.57c-7-.56-13.92-1.43-20.9-1.74-3.56-.16-7.12-.23-10.68-.28a1.94 1.94 0 0 0-1.85 1.4c-.09.41-.19.81-.28 1.22l1.84-1.41a270.72 270.72 0 0 0-49.2 0l1.84 1.41c-.09-.41-.19-.81-.28-1.22a1.92 1.92 0 0 0-1.85-1.4c-10.59.15-21 1.17-31.58 2Q425.29 746.37 407 747q-36.39 1.17-72.78-1.14-9-.59-18-1.37c-5.87-.52-11.93-.76-17.73-1.8a5.64 5.64 0 0 1-3-1.14 5.08 5.08 0 0 1-1.06-3.18c-.09-.8-.15-1.61-.21-2.41q-.22-2.82-.39-5.63c-.68-11.45-1.05-22.92-1.37-34.38-.78-28-1.28-56.16-.62-84.23.24-10.24.59-20.42 2.63-30.49 4-19.9 13-38.84 27.6-53.14 15.6-15.23 35.84-24.83 54.93-34.83l64.8-33.94 16.2-8.48h-2l38.11 19.43c1.6.81 3.2 1.82 4.87 2.48s3.48-.78 4.93-1.51L526 460l18-9.17h-2l85.78 44.93c12.76 6.68 25.65 13.3 37.38 21.71a97.44 97.44 0 0 1 27.85 30c7.55 13 11.92 27.49 14 42.29.33 2.42 3.99 1.39 3.69-1.03z" fill="#32a16b" class="fill-18c4ff"></path><path d="M577.17 478.12c-5.16-7.59-15.23-10.34-21.21-17.3s-6.89-17.15-7.18-26.48a548.52 548.52 0 0 1 3.28-78.78l-52.69 4.2-52.69-4.2a547.08 547.08 0 0 1 3.32 78.78c-.28 9.33-1.09 19.4-7.17 26.48s-16.05 9.71-21.22 17.3c-4.46 6.56-4.16 15.46-1.21 22.82 15 37.41 60.13 74.83 101.61 57.49 23.65-9.88 46.9-33.72 56.42-57.49 2.91-7.36 3.21-16.26-1.26-22.82z" fill="#ffffff" class="fill-ffffff"></path><g fill="#32a16b" class="fill-18c4ff"><path d="M335.35 514.13c-55.12 38-102.18 87-141.7 141.12-18.65 25.51-36.16 53.43-39.89 84.81-1.06 9-.93 18.31 2.2 26.8 5.14 14 17.81 24 31.42 30a95.08 95.08 0 0 0 72.6 1.47c11.35-4.48 21.7-11.13 31.81-17.94a857.77 857.77 0 0 0 125.63-103.17"></path><path d="M335 513.48a489.22 489.22 0 0 0-49.15 38.11 592.43 592.43 0 0 0-44.64 43.74c-14.15 15.37-27.53 31.44-40.2 48S176 677 166.57 695.69a148 148 0 0 0-11.11 28.7c-2.68 10.18-4.39 21.07-3.27 31.59a45.45 45.45 0 0 0 11.56 26 67.29 67.29 0 0 0 22.37 15.8 96.64 96.64 0 0 0 61 6c21.43-4.91 39.65-18 57.38-30.41q27.09-18.92 52.69-39.89t49.58-44c3.89-3.73 7.7-7.54 11.53-11.34a1.29 1.29 0 0 0-1.82-1.82c-15.35 15.26-31.35 29.91-47.82 44s-33.56 27.58-51.1 40.39q-13.17 9.62-26.7 18.73c-9 6.07-18.22 12-28.21 16.39a93.87 93.87 0 0 1-60.75 4.76c-17.56-4.54-36.18-14.63-43.87-31.94-4.38-9.86-4.17-21.14-2.6-31.6a126.21 126.21 0 0 1 8.32-29.2c7.85-19 19.43-36.22 31.52-52.72s24.91-32.62 38.45-48a608.88 608.88 0 0 1 42.65-44 583.85 583.85 0 0 1 47.19-39.39q6-4.51 12.15-8.84c.78-.56.05-1.86-.77-1.31z"></path><path d="M286.37 775.56c-35.67 37.44-89 52.51-140.47 57.69-12.64 1.27-25.6 2-37.86-1.3-22.41-6.05-39.74-25.58-46.6-47.76s-4.21-46.49 3.72-68.31c9.91-27.25 27.57-51 46.39-73C144.18 604.6 181.22 569.9 223 542c4.43-3 9.31-6 14.64-5.76 3.07.12 6.13 1.32 9.13.71 3.18-.64 5.59-3.13 8.29-4.93 9.44-6.29 22.68-3.63 31.72 3.22s14.82 17 20.36 26.95c2.39 4.29 4.85 8.76 5.15 13.66s-2.26 10.35-7 11.73c8.35 2.57 12.46 12.62 11.28 21.27s-6.29 16.2-11.27 23.38q-43.45 62.73-87.58 125"></path><path d="M285.83 775c-14.82 15.34-32.94 27.11-52.38 35.74-19.68 8.74-40.69 14.34-61.87 18-11.13 1.9-22.37 3.35-33.63 4.14-12.11.85-24.5.49-35.91-4.06-18.65-7.43-32.71-24.43-39-43.22-7.78-23.24-4.64-48.84 3.93-71.39 8.47-22.29 22.14-42.2 37.09-60.61a600.39 600.39 0 0 1 48.18-52.6A521.83 521.83 0 0 1 207 554.58q7.2-5.28 14.59-10.28c4.75-3.21 10-7.16 16-6.93 3 .12 5.9 1.23 8.92.77 2.54-.39 4.64-1.83 6.65-3.35 4.23-3.19 8.66-5.14 14-5.18 11.06-.07 20.43 6.49 27.16 14.79a105.87 105.87 0 0 1 9.45 14.42c2.79 4.9 6.24 10.06 7.06 15.76.64 4.55-1.15 10.21-5.94 11.73a1.28 1.28 0 0 0 0 2.44c4.66 1.51 7.86 5.52 9.38 10.06a23.72 23.72 0 0 1-.37 15.34c-2 5.84-5.45 11.05-8.93 16.09q-6 8.64-12 17.23-24.37 35-48.91 69.88c-9.18 13-18.27 26.17-27.49 39.18-.95 1.34 1.25 2.6 2.18 1.28 8.54-12 17.18-24 25.68-36.1s17-24.16 25.43-36.26 16.9-24.21 25.3-36.35c4.14-6 8.3-11.94 12.41-17.94 3.54-5.18 7-10.55 8.93-16.56a25.92 25.92 0 0 0 0-17.23c-1.94-5.09-5.63-9.36-10.91-11.06v2.44c4.58-1.47 7.26-5.86 7.8-10.47.69-5.84-2.24-11.37-5-16.3-5.55-10-11.38-20.32-20.55-27.44-8-6.19-19.45-9.55-29.21-5.77a27.49 27.49 0 0 0-6.7 4c-2.42 1.82-4.74 3.31-7.89 3.12s-6-1.14-9.17-.7a23.63 23.63 0 0 0-8.11 3 177 177 0 0 0-15.17 10.19q-7.6 5.4-15 11.09-14.58 11.24-28.32 23.47a594.9 594.9 0 0 0-52.05 52.68c-16.09 18.38-31.62 37.65-43 59.35-11.54 21.91-18.85 46.82-16.42 71.76 2.09 21.5 12 42.1 29.31 55.44a62.18 62.18 0 0 0 29.35 12.43c12.52 1.78 25.28.43 37.76-1.06 22.15-2.64 44.19-7.1 65.23-14.61 20.51-7.32 40.06-17.56 56.71-31.7a145.78 145.78 0 0 0 11.69-11.09c.68-.71-.39-1.8-1.08-1.08z"></path></g><path d="M198.51 781.17q24.81-30 46.88-62.18c4.18-6.1 8.55-12.18 12.27-18.58.69-1.19-1.05-2.16-1.83-1.06-3.73 5.27-7.09 10.84-10.68 16.22s-7.24 10.72-11 16q-11.13 15.9-23 31.29-6.74 8.76-13.68 17.32c-.56.68.4 1.66 1 1zM332.54 582.76c-1.71-.28-2-2-2.38-3.41-.47-1.9-1-3.78-1.52-5.69-.93-3.73-1.88-7.45-2.65-11.22a1.11 1.11 0 0 0-2-.26c-2.88 4.67-8.07 6.27-13.22 7-5.59.84-11.28.9-16.8 2.18a22.61 22.61 0 0 0-8.37 3.64c-1 .75-.1 2.43 1 1.72 9.82-6.27 22.2-3.2 32.55-7.9a16.75 16.75 0 0 0 6.72-5.53l-2-.55a69.66 69.66 0 0 0 3 13.38 43.38 43.38 0 0 0 2.27 5.68 3.73 3.73 0 0 0 3.22 2.28c.74 0 .93-1.19.18-1.31z" fill="#000000" class="fill-000000"></path><path d="M310.12 569.88c4.11 6.93-.5 14.72-5.09 20a1.06 1.06 0 0 0-.16 1.25c3.66 4.75 7.09 10 8.14 16a17.19 17.19 0 0 1-.45 7.91 24.8 24.8 0 0 1-1.38 3.66 11.89 11.89 0 0 1-2.71 3l1.7-.22a9 9 0 0 0-1.71-.75 1.22 1.22 0 0 0-1.18 2 8.91 8.91 0 0 0 1.47 1.14 1.42 1.42 0 0 0 1.7-.21 17.51 17.51 0 0 0 2.58-3.52 12.86 12.86 0 0 0 1.85-4 22.16 22.16 0 0 0 .44-8.81c-.93-6.65-4.73-12.43-8.83-17.57v1.46c5-6 9.71-14.61 4.75-22.11a.65.65 0 0 0-1.12.65z" fill="#000000" class="fill-000000"></path><path d="M282.77 643.21c11.44-39.49 43.79-72.21 83.12-84.21 19.44-5.91 40-7 60.31-7.46 21.93-.54 43.88-.48 65.82-.43l109.16.28c15.18 0 30.88.19 44.74 6.36 27.4 12.21 40.12 44.82 40.83 74.8.55 23.46-5.8 49-24.46 63.21-11.88 9.07-27.07 12.33-41.73 15.31" fill="#000000" class="fill-000000"></path><path d="M283.16 643.32c10.11-33.73 35.21-62.48 67-77.49 19-9 39.93-12 60.76-13 23.24-1.2 46.57-1 69.84-1s46.55.13 69.83.2l35.32.11c10.89 0 21.83-.22 32.7.48 10.48.68 21.06 2.57 30.41 7.58a59 59 0 0 1 18.57 15.8c10.39 13.31 15.84 30.18 17.66 46.81 1.89 17.21.28 35.65-7.15 51.47a55.77 55.77 0 0 1-15.92 20.47c-8 6.25-17.73 9.78-27.48 12.28-4.74 1.22-9.54 2.25-14.33 3.29-.91.19-.52 1.55.38 1.38 19.21-3.67 39.08-8.76 51.67-24.93 10.84-13.92 14.88-32.15 15.19-49.49.59-32.92-13.35-71.79-47.52-82.66-10.2-3.25-21-3.88-31.65-4-12.05-.17-24.1-.08-36.15-.1q-36.13-.07-72.25-.15c-24.21-.06-48.43-.19-72.64.38-22.26.53-45 1.59-66.23 9-33.46 11.7-61.12 38.2-74.54 71a119.56 119.56 0 0 0-4.26 12.37.41.41 0 0 0 .79.22z" fill="#000000" class="fill-000000"></path><path d="M697.78 775.56c35.68 37.44 89 52.51 140.47 57.69 12.64 1.27 25.61 2 37.87-1.3 22.41-6.05 39.73-25.58 46.59-47.76s4.21-46.49-3.72-68.31c-9.91-27.25-27.56-51-46.38-73C840 604.6 802.93 569.9 761.15 542c-4.44-3-9.31-6-14.65-5.76-3.06.12-6.12 1.32-9.13.71-3.18-.64-5.59-3.13-8.28-4.93-9.44-6.29-22.69-3.63-31.73 3.22s-14.82 17-20.35 26.95c-2.4 4.29-4.85 8.76-5.15 13.66s7.51 13.89 12.23 15.26c-8.35 2.57-12.59 13.44-11.41 22.09s1.16 11.85 6.13 19q43.46 62.73 87.58 125" fill="#32a16b" class="fill-18c4ff"></path><path d="M697.24 776.1c15.39 16.27 34.35 28.58 54.84 37.45 20.77 9 42.85 14.59 65.17 18.08a279.57 279.57 0 0 0 35.8 3.72c12.12.32 24.21-1.33 35.09-6.93 18.93-9.75 32.15-28.7 37.07-49.17 6-24.8.91-51-9.29-73.93-10.09-22.72-25.16-42.8-41.14-61.68a609 609 0 0 0-52.08-54.48 505.51 505.51 0 0 0-58.7-46.74c-4.93-3.34-10.24-7.2-16.42-7.42-3.18-.11-6.31 1.25-9.47.81-2.82-.39-5-2.44-7.23-4.06-8.82-6.48-20.62-5.36-29.85-.33-10.24 5.58-16.92 15.88-22.57 25.72-2.92 5.08-6.44 10.4-7.5 16.26a10.43 10.43 0 0 0 .45 6.08 22.67 22.67 0 0 0 3.25 5.43c2.33 3 5.42 6.21 9.14 7.38v-2.45c-9.45 3.06-13.53 14.44-12.34 23.57.63 4.81 1 9.69 3.12 14.14a50 50 0 0 0 4.49 7.28l6.46 9.35q25.2 36.42 50.7 72.63 7.23 10.29 14.47 20.56c4.84 6.85 9.8 13.6 14.65 20.44.94 1.32 3.13.06 2.19-1.28-8.3-11.71-16.47-23.53-24.74-35.27q-12.24-17.37-24.43-34.77-12.37-17.65-24.72-35.33-6.09-8.71-12.15-17.44c-3-4.25-5.53-8.28-6.49-13.43-1-5.41-1.85-11-.35-16.38 1.4-5 4.6-9.94 9.76-11.62a1.28 1.28 0 0 0 0-2.45c-3.65-1.14-6.81-4.84-8.88-7.89a12.88 12.88 0 0 1-2.4-5.28c-.34-2.63.85-5.67 1.89-8a131.85 131.85 0 0 1 8.45-15.25 70.55 70.55 0 0 1 10.6-13.77c7.47-7.27 18.59-12.19 29.06-9.11a21.33 21.33 0 0 1 6.86 3.58c2 1.52 4.09 3.21 6.61 3.85 3 .76 5.86-.16 8.81-.48a16.19 16.19 0 0 1 8.85 1.76c5.43 2.62 10.38 6.46 15.29 9.92s9.81 7 14.61 10.69q14.61 11.13 28.38 23.3a588.6 588.6 0 0 1 51.38 51.47c16 18 31.42 36.86 43.13 58 11.9 21.47 19.79 45.81 18.3 70.6-1.3 21.74-10.67 42.82-27.87 56.59a60.51 60.51 0 0 1-28.87 12.63c-12.47 1.86-25.3.44-37.74-1-21.81-2.59-43.49-7-64.24-14.31-20.5-7.2-40.15-17.39-56.86-31.37A146.3 146.3 0 0 1 698.33 775c-.69-.72-1.77.37-1.09 1.08z" fill="#32a16b" class="fill-18c4ff"></path><path d="M786.62 780.2q-24.54-30.27-46.3-62.67c-4-6-7.81-12.26-12-18.18-.77-1.1-2.52-.14-1.82 1.06 3.28 5.65 7.12 11 10.8 16.43s7.44 10.79 11.25 16.12q11.22 15.7 23.14 30.89 6.87 8.74 14 17.32c.56.69 1.52-.29 1-1z" fill="#000000" class="fill-000000"></path><path d="M707.91 563.34a102.57 102.57 0 0 0 10.24-25.76c.81-3.28 1.45-6.77.4-10-.95-2.92-3.19-5.23-5.45-7.32-24.5-22.64-60.87-31.61-93.08-23a20.47 20.47 0 0 0-7.48 3.25 19.38 19.38 0 0 0-4.41 5.5 110.89 110.89 0 0 0-12.26 30.18c-1.77 7.21-3 14.89-1.19 22.14a22.9 22.9 0 0 0 6.53 11.26 5.2 5.2 0 0 0 8.52-2.6 50.8 50.8 0 0 0 1.64-12.15c2.37 6-1.53 13.09 2.4 19.06a5.57 5.57 0 0 0 6.86 2.19c2.38-1.09 2.74-3.5 3-5.7l1.9-15.39a31.28 31.28 0 0 0 6.87 22.64c.92 1.12 2.15 2.26 3.58 2.08a4.31 4.31 0 0 0 2.74-2.19 27.63 27.63 0 0 0 4.33-19.53 30.15 30.15 0 0 0 5.8 24 3.6 3.6 0 0 0 2.94 1.43c1.73-.09 2.36-1.57 2.83-2.91a105 105 0 0 0 4.6-17.77c7.67 11.78 27.33 5 38.83 13.12" fill="#ffffff" class="fill-ffffff"></path><path d="M651.79 584.07a3.73 3.73 0 0 0 3.22-2.28 43.44 43.44 0 0 0 2.28-5.68 69.66 69.66 0 0 0 3-13.38l-2 .55c6.86 9.57 20.25 7.74 30.43 9.93a26.64 26.64 0 0 1 8.84 3.5c1.1.71 2-1 1-1.72-9.17-6.82-21.71-3.3-31.8-7.41a13.46 13.46 0 0 1-6.59-5.4 1.1 1.1 0 0 0-2 .26c-.77 3.77-1.72 7.49-2.66 11.22-.46 1.83-1 3.63-1.47 5.46-.37 1.49-.63 3.35-2.43 3.64-.74.12-.57 1.36.18 1.31z" fill="#000000" class="fill-000000"></path><path d="M708.49 563.67a103.08 103.08 0 0 0 9.94-22.94c1.15-4 2.39-8.21 1.57-12.34-.74-3.69-3.35-6.52-6-9a97.39 97.39 0 0 0-37-21.22 105.33 105.33 0 0 0-42.32-4.51 96.78 96.78 0 0 0-10.57 1.66c-3.55.76-7.34 1.54-10.52 3.36-3.35 1.91-5.36 5.18-7.23 8.44a110.39 110.39 0 0 0-5.64 11.38 105.22 105.22 0 0 0-7.22 24.1c-1.3 7.91-1.17 16.59 3.4 23.5a22.68 22.68 0 0 0 3.63 4.25c.94.86 2.34-.52 1.41-1.41-5.85-5.56-7.53-13.62-6.95-21.41.59-8 2.92-15.93 5.68-23.39a107.72 107.72 0 0 1 4.84-11.14c1.71-3.38 3.46-7.08 6-10s6-4 9.57-4.94a94.52 94.52 0 0 1 9.85-2 98.53 98.53 0 0 1 40.57 2.53A100.14 100.14 0 0 1 707.38 517a58 58 0 0 1 7.54 6.9 12.12 12.12 0 0 1 2.66 4.69 14.61 14.61 0 0 1 0 6.21 92.93 92.93 0 0 1-3.11 11.7 88.4 88.4 0 0 1-4.47 11.22q-1.26 2.67-2.69 5.28a.67.67 0 0 0 1.16.67z" fill="#000000" class="fill-000000"></path><path d="M645 542a77.57 77.57 0 0 0-1.88 33.71c.2 1.2 2 .69 1.83-.5a82.83 82.83 0 0 1 1.36-32.85.68.68 0 0 0-1.31-.36zM627.72 538a75.38 75.38 0 0 0-2.78 17.41c-.3 5.27-.43 11 2.24 15.72.59 1 2.11.13 1.59-.92-2.35-4.7-2.18-10.16-1.94-15.28a134.41 134.41 0 0 1 2.17-16.59.65.65 0 0 0-1.25-.34zM615.59 533.82a75 75 0 0 0-4.8 18c-.82 5.91-1.25 12.26-.28 18.18.17 1.06 1.89.8 1.86-.25-.1-3-.39-6-.34-9a79 79 0 0 1 4.83-26.58c.29-.81-1-1.12-1.27-.35zM672.91 569.23c-5 7.5-.27 16.09 4.76 22.11v-1.46c-4.11 5.14-7.9 10.92-8.84 17.57a22 22 0 0 0 .44 8.81 13.08 13.08 0 0 0 1.75 3.79 17.1 17.1 0 0 0 2.68 3.68 1.42 1.42 0 0 0 1.7.21 8.51 8.51 0 0 0 1.47-1.14 1.22 1.22 0 0 0-1.18-2 9 9 0 0 0-1.71.75l1.71.22a11.89 11.89 0 0 1-2.71-3 23.3 23.3 0 0 1-1.33-3.48 17.3 17.3 0 0 1-.51-8.09c1.05-6 4.49-11.25 8.14-16a1 1 0 0 0-.16-1.25c-4.59-5.28-9.19-13.07-5.09-20 .43-.72-.66-1.34-1.12-.65zM550.69 389.59q.24-2.77.51-5.54l-21.49-6.43-30.34 2.38-52.69-4.2a546.67 546.67 0 0 1 3.5 67.69 39.12 39.12 0 0 0 8.77.92c15.74-.05 30.46-7.58 43.73-16a277 277 0 0 0 48.01-38.82z" fill="#000000" class="fill-000000"></path><path d="M579.31 501.2c3.37-8.57 3.24-18.91-3.24-26-6-6.52-15.26-9.12-20.49-16.4-5.77-8-5.72-18.71-5.94-28.16q-.42-17.62.3-35.26.81-20 3.08-39.82a1 1 0 0 0-1-.95L534.27 356l-28.45 2.27c-2.1.17-4.25.48-6.36.51-1.39 0-2.82-.21-4.2-.32l-27.05-2.16-13.66-1.09c-2.49-.2-5-.5-7.5-.6h-.37a1 1 0 0 0-.95.95 550.53 550.53 0 0 1 3.46 70.89c-.09 5.22-.13 10.47-.64 15.67a37.74 37.74 0 0 1-3.66 13.88c-4.32 8.21-13.17 11.25-19.89 17a21.16 21.16 0 0 0-7.38 12.47 29.18 29.18 0 0 0 1.82 15.75c.44 1.13 2.29.64 1.84-.51a27.65 27.65 0 0 1-1.88-14.35 19.44 19.44 0 0 1 6.54-11.66c6.56-5.78 15.26-8.72 19.94-16.54 4.93-8.23 4.93-18.45 5.14-27.75q.42-17.62-.31-35.25-.82-19.84-3.07-39.58l-1 1 17.79 1.42 28.45 2.27c2.11.16 4.25.47 6.36.5 1.39 0 2.82-.21 4.2-.32l27.06-2.15 13.66-1.09 4.81-.39a20.31 20.31 0 0 0 2.69-.21 2.1 2.1 0 0 1 .36 0l-1-1a551.9 551.9 0 0 0-3.47 70.4c.15 9.61-.23 20.08 3.66 29.09a26.07 26.07 0 0 0 8.23 10.37c3.39 2.62 7.18 4.68 10.65 7.18 4.22 3 7.56 6.87 8.82 12a26.87 26.87 0 0 1-1.53 16.08c-.45 1.15 1.4 1.64 1.85.51z" fill="#000000" class="fill-000000"></path><path d="M592.94 275.38c.3-4.9 6.24-8.51 10.73-6.52 3.35 1.49 5.18 5.15 6.15 8.68a34.76 34.76 0 0 1-13.39 36.88 12.71 12.71 0 0 1-6.85 2.65c-2.48 0-5.12-1.46-5.71-3.88" fill="#ffffff" class="fill-ffffff"></path><path d="M593.66 275.38c.5-4.49 6.17-7.52 10.12-5.28 4.38 2.48 5.63 8.87 6 13.46a34.17 34.17 0 0 1-10.23 26.88 21.48 21.48 0 0 1-7.42 5c-2.58.89-6.25.49-7.13-2.57a1.14 1.14 0 0 0-2.2.61 6.83 6.83 0 0 0 6.13 4.67c3.3.29 6.43-1.51 9-3.41a34.88 34.88 0 0 0 11-13.81 36.37 36.37 0 0 0 3.07-17.37c-.42-5.48-2-12.77-7.45-15.45s-11.95 1.47-12.31 7.27c-.05.93 1.34.9 1.44 0z" fill="#000000" class="fill-000000"></path><path d="M602.59 281.32c-.87-1.8-3.32-.34-4.24.63a16.31 16.31 0 0 0-3 5.89 41.35 41.35 0 0 0-1.93 15.51 1.14 1.14 0 0 0 2.11.57 6.55 6.55 0 0 0 1.09-3.32 6.92 6.92 0 0 0-.11-1.7c0-.16-.46-1.26-.35-1.4.71-.95-.63-2.07-1.54-1.55-1.17.67-1.05 1.83-.68 2.95a4.83 4.83 0 0 1-.36 3.88l2.06.27a30.88 30.88 0 0 1 .65-12 33.72 33.72 0 0 1 1.82-5.64 10.33 10.33 0 0 1 1.08-2c.2-.26 1.82-2 2.16-1.33.43.84 1.66.1 1.25-.74z" fill="#000000" class="fill-000000"></path><path d="M406.63 275.38c-.3-4.9-6.24-8.51-10.72-6.52-3.35 1.49-5.18 5.15-6.16 8.68a34.79 34.79 0 0 0 13.4 36.88 12.68 12.68 0 0 0 6.84 2.65c2.49 0 5.13-1.46 5.72-3.88" fill="#ffffff" class="fill-ffffff"></path><path d="M407.35 275.38a8.9 8.9 0 0 0-10.55-7.91c-6 1.34-8.25 8.69-9 14a36.15 36.15 0 0 0 12.24 32c2.7 2.26 5.9 4.5 9.52 4.72a7 7 0 0 0 7.22-4.69 1.14 1.14 0 0 0-2.19-.61c-.77 2.69-3.92 3.42-6.34 2.81a17.93 17.93 0 0 1-6.89-4.06 33.4 33.4 0 0 1-8.72-11.82 34 34 0 0 1-2.92-14.47c.1-4.7 1-10.69 4.56-14.12a6.47 6.47 0 0 1 7-1.39 7.09 7.09 0 0 1 4.57 5.54c.1.9 1.5.94 1.44 0z" fill="#000000" class="fill-000000"></path><path d="M398.24 282.06c.33-.64 2 1.07 2.15 1.33a10.13 10.13 0 0 1 1.09 2 33.72 33.72 0 0 1 1.82 5.61 30.88 30.88 0 0 1 .64 12l2.07-.27a4.88 4.88 0 0 1-.37-3.88c.37-1.11.49-2.28-.67-2.95-.91-.52-2.26.6-1.55 1.55.13.17-.27 1-.32 1.23a7.34 7.34 0 0 0-.14 1.87 6.57 6.57 0 0 0 1.1 3.32 1.14 1.14 0 0 0 2.1-.57 41.14 41.14 0 0 0-1.92-15.51 16.31 16.31 0 0 0-3-5.89c-.92-1-3.38-2.43-4.25-.63-.4.84.82 1.58 1.26.74z" fill="#000000" class="fill-000000"></path><path d="M595.82 227.88c-3.44-27.9-22.37-51.59-47.35-63.62-21.18-10.2-45.77-12.25-68.92-8.13-18.27 3.26-36.13 10.42-50.19 22.53-41 35.3-23.65 96.24-16.84 142.54 2.59 17.56 5.35 35.77 15.05 50.64 11.24 17.23 30.19 27.57 48.37 37.23 6.69 3.55 13.63 7.18 21.19 7.77 10.48.81 20.4-4.3 29.66-9.26 13.8-7.38 27.91-15 38.29-26.72 10.78-12.16 16.75-27.91 20.11-43.81s4.31-32.2 6.33-48.32c2.54-20.2 6.76-40.9 4.3-60.85z" fill="#ffffff" class="fill-ffffff"></path><path d="M596.77 227.88C594 206 581.86 186.34 564.46 173c-20-15.31-45.75-21.14-70.57-19.54-24.63 1.58-50.23 9.95-68.29 27.35a72.37 72.37 0 0 0-16.73 24.82 95.79 95.79 0 0 0-6.41 28.94c-1.6 20.81 1.65 41.71 5.09 62.19q2.58 15.45 5 30.93c1.94 12.59 4.36 25.31 9.88 36.89 10.66 22.4 32.85 34.64 53.87 45.77 5.77 3.06 11.77 6.13 18.3 7.16s12.91-.21 19-2.52 11.89-5.55 17.65-8.66c5.61-3 11.18-6.14 16.51-9.64 10.53-6.91 19.69-15.4 26.16-26.28s10.34-23.19 12.76-35.57c2.78-14.22 3.8-28.7 5.49-43.07s4.36-28.6 5.17-43.05a117.74 117.74 0 0 0-.51-20.82c-.14-1.21-2.06-1.23-1.91 0 1.69 14 .18 28.18-1.72 42.11-.95 6.92-2 13.82-2.82 20.76S588.8 304.89 588 312c-2.8 25.23-7.69 52.37-26.33 71.12-8.82 8.87-19.76 15.23-30.68 21.15s-23.46 13.67-36.59 11.3c-6.43-1.17-12.28-4.26-18-7.29-5.2-2.76-10.39-5.54-15.46-8.53-10.07-5.92-19.82-12.71-27.49-21.61-16-18.59-17.73-43.72-21.55-66.87-3.31-20.07-7.23-40.15-7.86-60.54-.6-19.44 2-39.62 12.76-56.27 12.77-19.78 35.14-31.3 57.6-36.29 24.83-5.52 52-3.91 74.95 7.64 19.1 9.61 34.72 26.33 41.83 46.62a75.41 75.41 0 0 1 3.66 15.49c.16 1.16 2.09 1.18 1.93-.04z" fill="#000000" class="fill-000000"></path><path d="m597.7 235.13-13.7 2.93a87.73 87.73 0 0 0 3.69 43.44 24.85 24.85 0 0 0 3.81 7.55c.42-3.94.85-7.89 1.34-11.82 1.71-13.93 4.26-28.1 4.86-42.1zM407.92 289.28a24.37 24.37 0 0 0 4-7.78 88 88 0 0 0 3.69-43.44l-13.87-2.95c.14 17.99 3.2 36.64 6.18 54.17zM463.25 296.85a3.74 3.74 0 0 0-3.19.36 2.87 2.87 0 0 0-1.25 3.2 2.48 2.48 0 0 0 3.08 1.69 3.88 3.88 0 0 0 2.34-2.57 3.45 3.45 0 0 0-.41-3.09 2.36 2.36 0 0 0-1.8-.94 2.65 2.65 0 0 0-1.91.81 5.34 5.34 0 0 0-1.32 3.49 2.71 2.71 0 0 0 .64 2.15 2.28 2.28 0 0 0 2.24.55c1.54-.46 2-2 2.1-3.46s-.18-2.94-1.4-3.67a2 2 0 0 0-2.71.65 4.22 4.22 0 0 0-.61 1.65 5.59 5.59 0 0 0 .49 3.73 2.78 2.78 0 0 0 3.64 1.26 3.68 3.68 0 0 0 1.74-3.13 5.73 5.73 0 0 0-.83-3.43 3.8 3.8 0 0 0-1.38-1.38 2.39 2.39 0 0 0-2.4 0 4.76 4.76 0 0 0-1.77 3.5 4.67 4.67 0 0 0 1 3.5 2.7 2.7 0 0 0 1.86 1 2.31 2.31 0 0 0 2-.93 4.73 4.73 0 0 0 .6-3.42 8.36 8.36 0 0 0-.37-1.92 1.49 1.49 0 0 0-1.81-1 2 2 0 0 0-1.4 2.44 1.35 1.35 0 0 0 2.64-.36.79.79 0 0 1-.12.42c-.15.17-.19.22-.11.14s0 0-.15.12a1 1 0 0 1-.47.13l-1.42-1.08c0 .2.11.4.15.61a2.2 2.2 0 0 1 .12.61v-.18V299.44a1.34 1.34 0 0 1 0 .53s.08-.41 0-.17v.22s-.15.2 0-.08a.64.64 0 0 0-.1.18l.15-.19-.1.09c.22-.15.26-.19.13-.12l.22-.09c-.26.11.37 0 .1 0h.25c-.14 0-.09 0 .15.08h-.06c-.13-.08-.09 0 .11.1l-.18-.16c-.21-.19.15.23.05.07a1.63 1.63 0 0 0-.11-.17v-.08c-.06-.14-.05-.1 0 .13a2 2 0 0 0-.1-.32c0-.09 0-.18-.05-.26-.07-.32 0 .36 0 0V298.39v.13a4.37 4.37 0 0 0 .12-.52 2.58 2.58 0 0 1 .08-.26v-.08c.06-.15 0-.11 0 .11a.9.9 0 0 0 .12-.24c.05-.08.09-.16.14-.23s.2-.26 0-.06l-.18.13c.13-.07.09-.06-.14.05h-.17c-.27 0-.32-.05-.16 0s-.3-.2-.06 0h.06c-.21-.12 0 0 0 .05l.05.07c.11.12.08.08-.07-.11 0 .07.11.17.15.23a1.71 1.71 0 0 1 .13.23 1.34 1.34 0 0 0 .12.24l-.06-.15c0 .05 0 .09.05.13a4.44 4.44 0 0 1 .15.52.81.81 0 0 0 .05.27v-.22.63a2.45 2.45 0 0 0 0 .27v-.13.17c0 .14-.08.28-.12.41s.18-.35 0-.11a2.12 2.12 0 0 0-.11.21c-.14.24.25-.25 0-.07v.05c-.11.11-.07.07.14-.09h-.06c-.14.07-.08.05.16-.06h-.11.22-.02.19-.07c-.15-.05-.09 0 .17.07l-.18-.11c.31.16.2.17.08.05a.58.58 0 0 0-.1-.12c.28.25.15.19.06.05s-.07-.13-.11-.2c-.12-.23.13.37 0 0 0-.15-.07-.29-.1-.44s0 .39 0 .06a2.83 2.83 0 0 0 0-.29v-.58c0-.35-.07.35 0 0 0-.09 0-.19.05-.29s.11-.37.17-.55-.16.31 0 0v-.06a.92.92 0 0 1-.6.45 1.14 1.14 0 0 1-.55 0l-.24-.1c.12.08.08 0-.14-.11.2.18-.18-.32-.05-.07s-.05-.26 0 0 .07.29.1.44c.07.35 0-.35 0 0v1.03-.1a1.47 1.47 0 0 1-.05.29c0 .08 0 .16-.07.25v.08-.13a1.14 1.14 0 0 0-.12.22l.13-.18c-.11.11-.07.09.14-.08l-.13.07a.5.5 0 0 1 .43-.11H461h.2c-.15-.05-.09 0 .17.08a.86.86 0 0 1 .34.34c-.15-.24.11.36 0 .08.1.4 0 .28 0 .16v-.57a2.53 2.53 0 0 1 0-.3v.2-.2a5.66 5.66 0 0 1 .15-.59c0-.08.06-.17.08-.24-.07.34-.1.21 0 .06l.12-.21c.14-.25-.24.25 0 0l.1-.11c.19-.2-.3.17-.06 0s.31-.11-.1 0h-.18.15-.25.11c-.2 0-.32-.15-.18-.07s-.29-.25-.12-.08-.19-.32-.08-.1.07.24 0-.12l.06.18v.16-.07a3.85 3.85 0 0 1 0 .48v-.11l-.06.23a1 1 0 0 0-.08.23c.08-.2.1-.24 0-.11a1 1 0 0 1-.07.15l-.13.21c-.08.11-.06.09.07-.08l-.11.12-.11.11a.52.52 0 0 1-.11.1c.17-.13.2-.15.08-.07h-.06c-.12.07-.08.05.12 0h-.14.14-.05.19l-.15-.05.17.07-.13-.07c.16.12.18.14.09.05s-.07-.07.05.08l-.12-.2c.07.18.08.2 0 .08v-.14.09a.76.76 0 0 1 0-.15v.07s0-.21.06-.23 0-.1 0 .05a1.09 1.09 0 0 1 .08-.15s.06-.12.09-.13c-.14.17-.1.12.1-.13-.09.11-.1.12 0 0l.17-.18.12-.11c-.09.08-.09.08 0 0l.23-.14s.26-.12.11-.06a2.94 2.94 0 0 1 .6-.16h.49a.73.73 0 0 0 .73-.64.76.76 0 0 0-.53-.81z" fill="#000000" class="fill-000000"></path><path d="M456.1 302.76a85.25 85.25 0 0 1 10.84.65.82.82 0 0 0 .82-.82.84.84 0 0 0-.82-.82 61.31 61.31 0 0 0-10.84-.31.65.65 0 0 0 0 1.3zM450.37 275.38a196 196 0 0 1 22.4-1c-.3-.9-2.41-1.31-4.22-1.45a51.77 51.77 0 0 0-18.69 1.9.85.85 0 0 0 .68.14" fill="#000000" class="fill-000000"></path><path d="M450.37 276.12q5.56-.37 11.14-.48c3.76-.06 7.5.11 11.26.19a1.46 1.46 0 0 0 1.24-2.17c-.68-1.5-2.78-1.85-4.23-2.05a42.17 42.17 0 0 0-6.93-.29 37.39 37.39 0 0 0-13.29 2.44 1.14 1.14 0 0 0 0 2.17 2.13 2.13 0 0 0 1.25 0c1.2-.24.81-1.93-.27-2l.11.09-.49 1.89a78.41 78.41 0 0 1 11.43-1.6 55.48 55.48 0 0 1 5.91 0c.73 0 3.65 0 4 .75l1.25-2.16a164.36 164.36 0 0 0-22.6 1.72c-.82.11-.63 1.51.2 1.45zM536.52 298.3a1.93 1.93 0 0 1 .93.1s.28.11.11 0l.16.08.23.14c.1.07.1.07 0 0l.12.11.17.18v.06l.1.13c-.19-.24.11.13.1.19v-.13V299.39v-.07.23-.09.14-.08l-.12.2.1-.14a.57.57 0 0 1-.11.11l.14-.1-.12.07s.28-.12.05 0 .34 0 .09 0h-.07.13-.14l.12.05a.72.72 0 0 0-.19-.11l.15.11-.12-.1-.11-.11-.05-.06c-.09-.11-.07-.08.06.08 0 0-.11-.16-.13-.2l-.12-.22c-.14-.25.1.3 0 0 0-.07-.05-.15-.08-.23s0-.14 0-.21c-.06-.26 0 .37 0 .1v-.41c0-.14 0-.29 0 0v-.19c.07-.24-.16.37 0 .06s-.25.27-.08.1-.28.18-.13.09.08 0-.17.06h.06-.19.07-.18c.26.06-.31-.2-.09-.05h.07c.12.08.08.05-.12-.1 0 .05.11.11.16.16.19.21-.19-.3 0 0l.13.21c.07.15 0 .28 0-.06 0 .07.06.16.08.24s.09.32.13.49c0 0 .06.3 0 .3v-.1.73c0 .18-.07.28 0-.12-.07.28.2-.32 0-.08a1 1 0 0 1 .58-.44c-.26.08.42 0 .14 0s.39.09.12 0l.2.09-.09-.06.19.14c-.11-.12-.08-.08.08.12a1.16 1.16 0 0 0-.13-.22l.09.21-.06-.16-.06-.25v-.18c-.08-.35 0 .35 0 0v-1.03c0-.35-.05.26 0 0s.07-.33.11-.49-.19.31 0 .07.23-.25-.06.06c.18-.2-.33.16-.09.06a1.14 1.14 0 0 1-.79.1l-.47-.27q-.22-.32-.09-.12c.15.27-.12-.37 0 0a5 5 0 0 1 .17.55 1.62 1.62 0 0 1 0 .19v.1-.11.29a2.54 2.54 0 0 1 0 .39v.29-.11a2.75 2.75 0 0 0-.11.49c0 .14-.16.25 0-.07 0 .06-.06.14-.1.21s-.08.17-.12.19l.14-.18-.1.12c-.12.12-.23.11.09-.05l-.18.11.23-.09h-.13.26-.14s.41.07.18 0 .33.17.09 0 .25.26.07.05.13.24 0 0l-.12-.21c-.12-.2.06.14.06.15a1.37 1.37 0 0 1-.13-.45v-.09.14a1.18 1.18 0 0 0 0-.27 4.87 4.87 0 0 1 0-.54v-.09.13a2.16 2.16 0 0 0 0-.27 4.44 4.44 0 0 1 .15-.52l.06-.17c-.12.4 0 .13 0 0s.08-.16.13-.24.18-.21.2-.3l-.13.17.11-.13s.12-.1.12-.12l-.16.13.14-.09c.23-.18-.34.1-.06 0h.07a.79.79 0 0 1-.48 0c.28.07-.32-.18-.06 0-.3-.18-.2-.14-.1 0s0 0-.11-.14a1.3 1.3 0 0 1 .1.15l.13.23a.8.8 0 0 1 .08.16c.07.14 0 .11 0-.11 0 .16.13.34.17.51l.06.26v.17-.13a4.42 4.42 0 0 1 0 .63v.18-.13.17l-.06.26a1.09 1.09 0 0 1 0 .17c-.05.14 0 .1.06-.13a1.55 1.55 0 0 0-.12.22v.07c-.09.13-.07.09.08-.1l-.17.17.11-.09a.57.57 0 0 1-.13.08l.22-.1h.19c-.27 0 .35.1.1 0l.22.09c-.13-.07-.09 0 .13.12-.22-.3.12.27 0 0v-.06c-.07-.14-.05-.08.06.16 0-.1-.06-.19-.08-.29s0-.1 0-.14c.12.45 0 .18 0 0a8.8 8.8 0 0 1 0-1.36c0-.36-.06.34 0 0 0-.14 0-.28.08-.41s.12-.48.17-.71l-1.42 1.08a.94.94 0 0 1-.46-.13c-.18-.16-.23-.19-.15-.12s0 0-.11-.14a.8.8 0 0 1-.13-.42 1.35 1.35 0 0 0 2.65.36 2 2 0 0 0-1.4-2.44 1.49 1.49 0 0 0-1.81 1 8.8 8.8 0 0 0-.38 2 6.78 6.78 0 0 0 0 1.56 3.41 3.41 0 0 0 .74 2 2.31 2.31 0 0 0 1.86.78 3.25 3.25 0 0 0 2.72-2.75 6.1 6.1 0 0 0-.46-3.72 3.51 3.51 0 0 0-1.21-1.51 2.42 2.42 0 0 0-2.44 0 4.64 4.64 0 0 0-2 3.05 5.33 5.33 0 0 0 .35 3.6 2.69 2.69 0 0 0 3.62 1.26 3.84 3.84 0 0 0 1.83-3.13 6.06 6.06 0 0 0-.08-1.85 4.05 4.05 0 0 0-.72-1.8 2 2 0 0 0-2.62-.48 2.85 2.85 0 0 0-1.19 1.72 6.23 6.23 0 0 0 .3 4 2.43 2.43 0 0 0 3.87.79 2.75 2.75 0 0 0 .63-2.12 7.12 7.12 0 0 0-.37-1.89c-.44-1.22-1.45-2.52-2.9-2.4a2.44 2.44 0 0 0-1.88 1.08 3.27 3.27 0 0 0-.47 1.56c-.17 2.17 2.12 5.1 4.45 3.74a2.67 2.67 0 0 0 1-3.31 3.27 3.27 0 0 0-2.8-1.91 3.45 3.45 0 0 0-1.53.18.75.75 0 0 0-.53.81.72.72 0 0 0 .72.64z" fill="#000000" class="fill-000000"></path><path d="M543.47 301.46a61.37 61.37 0 0 0-10.84.31.85.85 0 0 0-.82.82.82.82 0 0 0 .82.82 85.47 85.47 0 0 1 10.84-.65.65.65 0 0 0 0-1.3zM549.21 275.38a196 196 0 0 0-22.4-1c.29-.9 2.41-1.31 4.21-1.45a51.83 51.83 0 0 1 18.7 1.9.85.85 0 0 1-.68.14" fill="#000000" class="fill-000000"></path><path d="M549.41 274.67a164.48 164.48 0 0 0-22.6-1.72l1.24 2.16c.36-.75 3.09-.7 3.81-.74a57 57 0 0 1 6.13 0 78.6 78.6 0 0 1 11.43 1.6l-.5-1.89.08-.08c-1.08.09-1.49 1.77-.27 2a2.13 2.13 0 0 0 1.25 0 1.14 1.14 0 0 0 0-2.17 37.48 37.48 0 0 0-13.3-2.44 42 42 0 0 0-6.73.26c-1.5.2-3.71.52-4.42 2.08a1.46 1.46 0 0 0 1.24 2.17c3.76-.08 7.49-.25 11.26-.19s7.43.23 11.14.48c.82.06 1-1.33.2-1.45zM491.41 331.05c-1.77 1.39-.1 3.19 1.28 4a15.23 15.23 0 0 0 7.1 1.94 15 15 0 0 0 6.81-1.24c1.72-.77 3.42-2.56 2.34-4.54-.49-.91-2.17-.56-2 .55.06.59.16.84-.32 1.23a4.71 4.71 0 0 1-1.43.68 17.45 17.45 0 0 1-4.93.67 16.68 16.68 0 0 1-5.74-.87 8.8 8.8 0 0 1-1.64-.7c-.46-.28-.7-.4-.34-.88.53-.68-.53-1.29-1.09-.85z" fill="#000000" class="fill-000000"></path><path d="M25 829.15h950v24.31H25z" fill="#32a16b" class="fill-18c4ff"></path><path d="M25 830.11h911.44c12.3 0 24.64.25 36.94 0H975a1 1 0 0 0 0-1.92H63.56c-12.3 0-24.64-.25-36.94 0H25a1 1 0 0 0 0 1.92z" fill="#000000" class="fill-000000"></path><path d="M599.83 354.82a.64.64 0 0 0 0-1.28.64.64 0 0 0 0 1.28z" fill="#32a16b" class="fill-18c4ff"></path><path d="M512.88 350.64a105.2 105.2 0 0 1-24.18.84 14.58 14.58 0 0 0-4.89.1 4.65 4.65 0 0 0-3.51 3.09 6.17 6.17 0 0 0 .73 4 24.74 24.74 0 0 0 11.67 12.24 18.14 18.14 0 0 0 16.6-.44c3.77-2.22 6.44-5.91 8.58-9.73 1.17-2.08 2.24-4.4 1.85-6.76s-2.87-4.47-5.09-3.6" fill="#000000" class="fill-000000"></path><path d="M512.68 349.93a123.17 123.17 0 0 1-25.32.49c-3-.2-6.8.39-7.92 3.65-1.05 3.05 1.34 6.69 3 9.11 3.73 5.49 9.39 9.58 16.07 10.38a18.62 18.62 0 0 0 9.91-1.49 20.21 20.21 0 0 0 7.55-6.46c2.25-3 5.07-7.07 4.82-11-.19-3-3.09-6.32-6.36-5.11-1 .39-.64 2 .47 1.7a3.06 3.06 0 0 1 3.43 1.63 5.59 5.59 0 0 1 0 4.76 28.28 28.28 0 0 1-4.67 7.71 16.49 16.49 0 0 1-15.38 6.18 20.94 20.94 0 0 1-13.83-9 28.33 28.33 0 0 1-2-3.3c-.7-1.37-1.71-3.22-1-4.76 1.48-3 6.06-2.05 8.7-1.89a104.79 104.79 0 0 0 22.93-1.17c.94-.15.53-1.55-.4-1.42zM559.71 173.94c-7.43 12.73-19.33 22.16-31.28 30.79-31.23 22.57 4.2 53.92-117.93 63.41-2.14.16-11.33-10.61-12.89-9.14-1.38 1.31-2.9.72 5.41-.24 4-.46 9.67 5.94 7.48 9.38-.38.59-.89 1.24-1.6 1.25s-1.28-.7-1.67-1.34c-6.18-10.37-7.66-22.81-8.48-34.86-.46-6.75-.75-13.56.18-20.26 2.28-16.32 11.91-31.11 24.69-41.52s28.53-16.71 44.64-20.2 32.68-4.27 49.16-4.61c9.53-.2 19.43-.17 28.05 3.9s15.5 13.4 13.64 22.75" fill="#000000" class="fill-000000"></path><path d="M559 173.51c-6.93 11.66-17.51 20.44-28.34 28.34-4.13 3-8.09 6-11.3 10-4.49 5.65-7 12.31-10.19 18.71A42.56 42.56 0 0 1 493.89 248a74.22 74.22 0 0 1-16.32 7.56 174.88 174.88 0 0 1-25.74 6.33c-12.41 2.2-24.95 3.59-37.51 4.63l-2.85.23c-.34 0-.71.08-1.05.08.34 0 .09 0 0 0 .21.08-.3-.17-.4-.22a9.34 9.34 0 0 1-.91-.64c-1.56-1.19-3-2.57-4.43-3.88a44.13 44.13 0 0 0-4.21-3.5c-1.14-.77-2.43-1.41-3.67-.53a6.07 6.07 0 0 1-.61.45 1.76 1.76 0 0 0-.86.92 1.27 1.27 0 0 0 .88 1.56 5 5 0 0 0 1.94-.26 34.46 34.46 0 0 1 5.13-.74c2.82-.08 5.71 2.94 6.38 5.51a2.67 2.67 0 0 1 0 1.7c-.09.22-.45.94-.69.94-.42 0-.89-1.16-1.06-1.45a44.51 44.51 0 0 1-3-6.29 68.94 68.94 0 0 1-3.52-13.72c-.76-4.78-1.15-9.62-1.47-14.44a108.74 108.74 0 0 1-.12-15.94 58.94 58.94 0 0 1 8.4-25.38c9.51-15.81 25.11-26.75 42.16-33.2 19.3-7.3 40.06-9.12 60.53-9.74 9.78-.3 20.09-1 29.58 1.89 8 2.46 15.58 8.48 17.42 17a15.25 15.25 0 0 1 .08 6c-.28 1.5 2 2.15 2.31.63 1.67-8.95-3.67-17.42-10.95-22.25-8.63-5.73-19.68-6.1-29.69-6-22.34.32-45.2 1.49-66.51 8.79-18.61 6.38-35.84 17.61-46.42 34.52a61.74 61.74 0 0 0-9.3 26.91 108.45 108.45 0 0 0 .1 17.38 153.71 153.71 0 0 0 1.68 15.44 66.15 66.15 0 0 0 4.18 14.74c.91 2.12 1.9 4.75 3.47 6.47s3.64 1 4.74-.84c1.79-3-.38-6.67-2.62-8.72a9.25 9.25 0 0 0-4.4-2.42c-1.92-.36-4.07.19-6 .48-.58.09-1.17.19-1.74.31a2.57 2.57 0 0 0-.4.08c-.33.11-.43-.16.42 0l.88 1.57-.59.76c.16-.12.37-.2.54-.31a4.73 4.73 0 0 0 .57-.43c.56-.49-.32.22-.37 0 0 0 1 .49 1.24.68a23.71 23.71 0 0 1 2.16 1.73c1.49 1.29 2.92 2.64 4.41 3.93a12.88 12.88 0 0 0 3.9 2.78 6.82 6.82 0 0 0 2.81 0c1.95-.16 3.9-.32 5.84-.5q5.16-.47 10.31-1c6.06-.67 12.1-1.45 18.12-2.41a204.69 204.69 0 0 0 27.79-6.11 87.87 87.87 0 0 0 18-7.46A44.67 44.67 0 0 0 510 234c3.32-6.17 5.55-12.88 9.54-18.69a40.59 40.59 0 0 1 8.25-8.73c4.46-3.51 9.12-6.74 13.47-10.4a95.81 95.81 0 0 0 13.9-14 67.36 67.36 0 0 0 5.32-7.79.85.85 0 0 0-1.46-.86z" fill="#000000" class="fill-000000"></path><path d="M537.37 196.47A109.43 109.43 0 0 0 587 265.13c1.77 1.06 3.85 2.11 5.82 1.47 2.32-.75 3.3-3.45 3.91-5.82 3.73-14.44 5.43-29.51 3.68-44.31s-7.1-29.35-16.41-41c-4.86-6.07-11-11.44-18.34-13.89s-16.18-1.52-22 3.68c-3.88 3.49-6.08 8.51-7.27 13.59" fill="#000000" class="fill-000000"></path><path d="M536.65 196.67A109.61 109.61 0 0 0 583.22 264c3 2 7.21 5.32 10.91 3.2 3.35-1.93 3.93-6.93 4.71-10.32a142.38 142.38 0 0 0 2.54-14.36 108.45 108.45 0 0 0-.24-29.35 86.22 86.22 0 0 0-7.93-25.42c-3.83-7.71-9-15.13-15.65-20.68-6.19-5.17-14-8.64-22.16-7.91a22 22 0 0 0-10.87 3.84 22.63 22.63 0 0 0-7.42 9.62 34.48 34.48 0 0 0-1.87 5.89c-.36 1.56 2 2.22 2.4.66a28.2 28.2 0 0 1 4.88-10.83 17.79 17.79 0 0 1 9.14-6c7.53-2.14 15.31.08 21.59 4.43 6.65 4.61 11.83 11.31 15.83 18.27a81 81 0 0 1 8.81 23.33 99.26 99.26 0 0 1 1.85 27.08 124.34 124.34 0 0 1-1.65 13.87 79.67 79.67 0 0 1-3 13c-.57 1.59-1.58 3.37-3.48 3.42s-3.92-1.4-5.55-2.41a102.45 102.45 0 0 1-9.35-6.55 110 110 0 0 1-37.24-55.09c-.52-1.78-1-3.57-1.41-5.37-.22-.94-1.65-.55-1.44.39z" fill="#000000" class="fill-000000"></path><path d="M251.31 623.84h497.38v204.74H251.31z" stroke="#000000" stroke-miterlimit="10" stroke-width="1.28" fill="#000000" class="fill-000000 stroke-000000"></path><path d="M251.31 623.84h497.38v204.74H251.31z" fill="#ffffff" class="fill-ffffff"></path><path d="M748.69 827.63H258.81a56.74 56.74 0 0 0-6.65 0 8 8 0 0 1-.85 0l1 1V626.94a9.67 9.67 0 0 0 0-2.74 1.09 1.09 0 0 1 0-.36l-1 1h489.88a56.74 56.74 0 0 0 6.65 0 8 8 0 0 1 .85 0l-1-1v196.43a68.19 68.19 0 0 0 0 8 2 2 0 0 1 0 .35 1 1 0 0 0 1.92 0V632.16a68.19 68.19 0 0 0 0-8 2.16 2.16 0 0 1 0-.36 1 1 0 0 0-1-1H271.5c-6.45 0-12.9-.1-19.34 0h-.85a1 1 0 0 0-1 1v196.47a68.19 68.19 0 0 0 0 8 2 2 0 0 1 0 .35 1 1 0 0 0 1 1H728.5c6.45 0 12.9.09 19.34 0h.85a1 1 0 0 0 0-1.99z" fill="#000000" class="fill-000000"></path><path d="M251.31 623.84 151.25 485.6v95.13l100.06 145.48" fill="#000000" class="fill-000000"></path><path d="m252.14 623.36-10-13.76-23.92-33-28.92-40-25-34.53c-4-5.57-8-11.18-12.11-16.73l-.16-.22a1 1 0 0 0-1.78.48v88.45c0 2.16-.17 4.39 0 6.54a5 5 0 0 0 1.21 2.2L161.94 598l18.37 26.7 22 32L224 688.21l17.29 25.15 8.78 12.76.39.58c.7 1 2.36 0 1.66-1l-6.08-8.84-15.6-22.67-20.94-30.46-22.36-32.5-19.55-28.43-12.78-18.58a38.9 38.9 0 0 0-2.58-3.75c-.42-.49-.11.41 0 0a13.47 13.47 0 0 0 0-2.29V485.6l-1.78.49 10 13.76 23.91 33 28.93 40 25 34.53c4 5.57 8 11.18 12.11 16.72l.16.23c.72 1 2.38 0 1.66-1zM748.69 623.84 848.75 485.6v95.13L748.69 726.21" fill="#000000" class="fill-000000"></path><path d="m749.52 624.33 10-13.76 23.91-33.05 28.93-40 25-34.52 8.23-11.36 2.55-3.53a15.92 15.92 0 0 0 1.33-1.84 1.77 1.77 0 0 1 .16-.22l-1.78-.49v92.74a10.3 10.3 0 0 0 0 2.22c.11.44-.25-.34.12-.29 0 0-.16.24-.18.26a14.9 14.9 0 0 0-1 1.39l-10.56 15.35-18.3 26.61-22 32-21.64 31.47L757 712.4l-8.77 12.75-.4.58c-.7 1 1 2 1.66 1l6.15-9 15.58-22.65 21-30.58 22.41-32.5 19.52-28.39 12.77-18.57c.83-1.21 1.73-2.39 2.5-3.63.53-.85.28-2.14.28-3.1V485.6a1 1 0 0 0-1.78-.48l-10 13.76-23.91 33-28.93 40-25 34.53-8.22 11.36c-1.29 1.78-2.69 3.52-3.88 5.37l-.17.22c-.72 1 .94 2 1.66 1z" fill="#000000" class="fill-000000"></path><g fill="#32a16b" class="fill-18c4ff"><path d="M300.26 756.12a13.56 13.56 0 0 0 8-8.54c.5-1.6.83-3.68-.25-5.13a3 3 0 0 0-4.39-.29c-1.79 1.46-2.46 3.88-2.78 6.07a16.06 16.06 0 0 0 .55 7c1.14 3.64 4.39 7.7 8.66 7 5.19-.83 7.47-7.47 6.88-12-.11-.78-1.22-1.34-1.66-.45a6.38 6.38 0 0 0 1.71 8 6.45 6.45 0 0 0 4.13 1.25c1.89-.1 3.2-1.37 5-1.77 2-.45 4.39-.12 6.46-.12H352.52c5 0 10 0 15-.09a.77.77 0 0 0 0-1.54c-10-.21-20-.1-29.94-.13h-7.48c-2.2 0-4.25-.11-6.26.92s-4 1.53-5.92 0a4.6 4.6 0 0 1-1.07-5.53l-1.66-.45A10.88 10.88 0 0 1 314 757c-1 1.77-2.63 3.59-4.83 3.58-4.51 0-6.61-5.88-6.77-9.54a12 12 0 0 1 1.29-6.48c.54-.89 1.85-2.36 3-1.37.74.64.67 1.93.53 2.8a12 12 0 0 1-7.27 8.85c-.79.32-.45 1.63.36 1.31zM300.08 776.22c10 .28 20 .19 29.93.2h29.93a.89.89 0 0 0 0-1.77h-29.93c-10 0-20-.08-29.93.2a.66.66 0 0 0 0 1.31zM300.08 792.2c10 .27 20 .19 29.93.2h29.93a.89.89 0 0 0 0-1.77h-29.93c-10 0-20-.08-29.93.2a.66.66 0 0 0 0 1.32z"></path></g><path d="M276.25 563.34A102.2 102.2 0 0 1 266 537.58c-.81-3.28-1.45-6.77-.4-10 .95-2.92 3.18-5.23 5.44-7.32 24.5-22.64 60.88-31.61 93.09-23a20.42 20.42 0 0 1 7.47 3.25 19.24 19.24 0 0 1 4.42 5.5 111.21 111.21 0 0 1 12.26 30.18c1.76 7.21 3 14.89 1.18 22.14a22.75 22.75 0 0 1-6.53 11.26 5.19 5.19 0 0 1-8.51-2.6 50.3 50.3 0 0 1-1.64-12.15c-2.37 6 1.52 13.09-2.41 19.06a5.56 5.56 0 0 1-6.86 2.19c-2.38-1.09-2.73-3.5-3-5.7L358.62 555a31.24 31.24 0 0 1-6.87 22.64c-.91 1.12-2.14 2.26-3.58 2.08a4.36 4.36 0 0 1-2.74-2.19A27.63 27.63 0 0 1 341.1 558a30.11 30.11 0 0 1-5.79 24 3.63 3.63 0 0 1-2.95 1.43c-1.72-.09-2.35-1.57-2.83-2.91a104 104 0 0 1-4.59-17.77c-7.68 11.78-27.33 5-38.84 13.12" fill="#ffffff" class="fill-ffffff"></path><path d="M276.82 563a103.81 103.81 0 0 1-8.9-22.4c-1-3.79-2.38-8.1-1.34-12 .92-3.47 3.79-6 6.36-8.33a100.15 100.15 0 0 1 34.95-20.2 98.47 98.47 0 0 1 40.25-4.63 94.94 94.94 0 0 1 10.08 1.5 47.42 47.42 0 0 1 10.09 2.84c3.6 1.65 5.62 4.67 7.53 8a109.24 109.24 0 0 1 12.49 33.56c1.5 7.87 1.64 16.32-2.65 23.38a20.72 20.72 0 0 1-3.45 4.25c-.93.89.47 2.27 1.42 1.41 6-5.47 8.07-13.53 7.72-21.42-.38-8.4-2.78-16.84-5.65-24.7a112 112 0 0 0-4.92-11.5 58.2 58.2 0 0 0-6.16-10.51c-2.39-3-5.63-4.56-9.25-5.59a90.16 90.16 0 0 0-10.65-2.3 103.5 103.5 0 0 0-42.36 2.34 100.52 100.52 0 0 0-38.12 19.15 44.78 44.78 0 0 0-7.86 7.64c-2.41 3.27-2.84 7.08-2.2 11 1.33 8.15 4.74 16.25 8.43 23.59.95 1.9 2 3.77 3 5.6a.67.67 0 0 0 1.15-.67z" fill="#000000" class="fill-000000"></path><path d="M337.88 542.32a82.46 82.46 0 0 1 1.36 32.85c-.19 1.19 1.63 1.71 1.83.5a77.57 77.57 0 0 0-1.88-33.67.68.68 0 0 0-1.31.36zM355.18 538.34a132.53 132.53 0 0 1 2.14 16.59c.24 5.12.42 10.58-1.93 15.28-.53 1 1 2 1.58.92 2.67-4.73 2.55-10.45 2.25-15.72a74.86 74.86 0 0 0-2.79-17.41.65.65 0 0 0-1.25.34zM367.3 534.17a82.14 82.14 0 0 1 4.25 17.63 84.53 84.53 0 0 1 .57 8.72c.05 3.08-.24 6.12-.34 9.19 0 1 1.69 1.32 1.87.25 1-5.92.53-12.27-.28-18.18a75.43 75.43 0 0 0-4.8-18c-.31-.77-1.56-.46-1.27.35z" fill="#000000" class="fill-000000"></path><g fill="#ffffff" class="fill-ffffff"><path d="M244 545.45a81.79 81.79 0 0 0 16 46.14 75.44 75.44 0 0 0 9.24 10.4c.75.69 1.87-.41 1.13-1.13a82 82 0 0 1-25-55.41c0-.85-1.36-.86-1.34 0zM276.33 604.85l2.4-1.88a.77.77 0 0 0 0-1.08.76.76 0 0 0-.55-.23.87.87 0 0 0-.54.23l-2.38 1.89a.76.76 0 0 0-.22.54.77.77 0 0 0 .22.53.75.75 0 0 0 .54.22.87.87 0 0 0 .53-.22zM285.37 609.14l3.37-3.75a.72.72 0 0 0 0-1 .71.71 0 0 0-1 0l-3.29 3.83a.67.67 0 0 0 0 .93.65.65 0 0 0 .93 0zM742.41 544c1.26 19.53-9.72 36.62-22.28 50.56-3.62 4-7.51 7.78-11.15 11.77a1 1 0 0 0 1.34 1.34 174 174 0 0 0 19.6-22c5.74-7.77 10.42-16.42 12.69-25.86a47.64 47.64 0 0 0 1.22-15.81c-.09-.89-1.48-.92-1.42 0zM703.25 607.63l1.44 7.12a.73.73 0 0 0 .89.51.74.74 0 0 0 .51-.9l-1.54-7.09c-.18-.86-1.48-.5-1.3.36zM694.56 611.73a11.93 11.93 0 0 0 1.46 6.11.8.8 0 1 0 1.38-.8 10.37 10.37 0 0 1-1.32-5.31.76.76 0 0 0-1.52 0zM61.12 746c11.73-.25 22.16 7 28.87 16.14a76.51 76.51 0 0 1 8.51 15.42 116.74 116.74 0 0 1 6.11 17.79A59.91 59.91 0 0 1 106 817c-.11.94 1.48 1.15 1.67.22 2.69-13-1.85-26.84-6.77-38.78-4.6-11.14-11-22-21.43-28.62a32.48 32.48 0 0 0-18.35-5.24.72.72 0 0 0 0 1.44z"></path><path d="M89.6 778.16c.5-.75.85-1.61 1.29-2.4s.91-1.56 1.41-2.32a41.12 41.12 0 0 1 3.41-4.44 43.67 43.67 0 0 1 8.29-7.3c.83-.57.07-1.91-.8-1.36a39.63 39.63 0 0 0-8.69 7.65 42.34 42.34 0 0 0-3.36 4.52 22.47 22.47 0 0 0-2.77 5.18c-.23.75.81 1.12 1.22.52zM97.69 782.24a40.77 40.77 0 0 1 3.68-6 26 26 0 0 1 5.11-4.82c.85-.6 0-2-.82-1.41a25.1 25.1 0 0 0-5.51 5.13 19.4 19.4 0 0 0-3.68 6.57.67.67 0 0 0 1.22.52zM861.9 819.08c1-10.75 6.1-20.51 12-29.34s12.5-17.92 21.41-23.92a38.46 38.46 0 0 1 16.17-6.17c1-.16.8-1.9-.25-1.85-10.89.6-20.58 8.08-27.53 15.91a128.45 128.45 0 0 0-10.1 13.35 100.77 100.77 0 0 0-8.31 14.42 53 53 0 0 0-4.84 17.6c-.08.93 1.35.91 1.44 0z"></path><path d="M866.53 776.14c1.11.9 2.29 1.7 3.36 2.65a35.86 35.86 0 0 1 3 3 38.75 38.75 0 0 1 4.93 7 .77.77 0 0 0 1.33-.77 34.15 34.15 0 0 0-5.13-7.2 36.27 36.27 0 0 0-3.15-3.05 23.28 23.28 0 0 0-3.57-2.68c-.63-.35-1.41.56-.81 1zM871.41 766a84.31 84.31 0 0 0 15.77 20.12c.71.65 1.76-.38 1.07-1.07a121.34 121.34 0 0 1-8.45-9.27 91.34 91.34 0 0 1-7.2-10.48.69.69 0 0 0-1.19.7z"></path></g><g fill="#32a16b" class="fill-18c4ff"><path d="M235.82 313.51c-10.47 5.4-18.32 14.57-24.27 24.56a126.14 126.14 0 0 0-13.44 32.17c-5.7 21.52-5.87 45.82 5.59 65.55 5.8 10 14.69 19.54 26.67 21.15a28.31 28.31 0 0 0 28.19-13.46 29.24 29.24 0 0 0 3.95-16c-.22-4.6-1.68-12.34-7.79-12-5.39.32-8.72 6.3-10.75 10.61a48 48 0 0 0-4.11 13.7c-2.7 18.86 4.84 39.36 20.28 50.85a46.61 46.61 0 0 0 6 3.76c1.17.63 2.21-1.15 1-1.77-16-8.53-25.38-26.77-25.62-44.55-.12-8.87 2-18.14 6.93-25.61 1.39-2.1 3.69-4.68 6.41-4.8 2.92-.13 4.2 2.91 4.79 5.27a26.15 26.15 0 0 1-26 32.12c-11.81-.2-20.79-8.68-26.83-18.1-11.59-18.09-12.54-40.83-8.08-61.33a126.69 126.69 0 0 1 10.89-30.42c5-9.81 11.37-19.33 20.25-26a48.1 48.1 0 0 1 6.77-4.26c1-.5.11-1.95-.85-1.45zM312.09 411.94a341.06 341.06 0 0 0 21.49 42.7q3.51 5.89 7.24 11.65c.55.83 1.89.06 1.35-.79A362 362 0 0 1 319 423.92q-2.94-6.19-5.66-12.49c-.3-.67-1.5-.18-1.21.51zM365.77 407.3a212.33 212.33 0 0 0 19.3 43.25.73.73 0 0 0 1.26-.74A226.06 226.06 0 0 1 367 407c-.26-.79-1.51-.45-1.25.35zM714.71 248.08c7.73-3 16.25-1 23.11 3.21s12 10.77 15.34 18c6.82 14.65 6.47 32 2.33 47.31a103.41 103.41 0 0 1-24.39 43.6 101.53 101.53 0 0 1-9.19 8.65c-3 2.48-7.2 6.21-11.29 4-3-1.65-4.51-5.52-4.11-8.82.53-4.41 3.51-8.12 6.42-11.28 9.73-10.57 28.71-22.76 41.7-10.16 5.32 5.16 7.51 12.84 8.25 20a83 83 0 0 1-1.75 25.86 92.07 92.07 0 0 1-9.62 25.39 77 77 0 0 1-7.32 11 27.59 27.59 0 0 1-9.74 8.09c-6.91 3.11-16.59.64-17.5-7.91-1-8.92 6.61-15.06 13.72-18.74 6.19-3.21 14.73-5.89 21.41-2.55 7.5 3.74 7.55 12.65 5.24 19.62-2.56 7.75-7.75 14.8-13.06 20.9a92 92 0 0 1-18.78 16.37 88.44 88.44 0 0 1-10.57 6c-1.2.57-.15 2.36 1.05 1.79a92 92 0 0 0 39.57-36c4-6.73 7.39-15.82 4.16-23.5a14.08 14.08 0 0 0-8.13-7.72 21.52 21.52 0 0 0-11.48-.52 40 40 0 0 0-11.56 4.33 31 31 0 0 0-10.21 8.27c-4.91 6.52-5.28 17.23 2.78 21.51 7.8 4.13 16.57.17 22.21-5.65a64 64 0 0 0 8.44-11.39 94.13 94.13 0 0 0 13.32-41.31c.67-8.5.42-17.5-2.71-25.55-2.88-7.43-8.55-13.68-16.63-15.26-8.41-1.64-16.94 1.88-23.77 6.57a61.31 61.31 0 0 0-10.19 8.81c-3.06 3.29-6.1 7-7 11.56a11.65 11.65 0 0 0 2.73 10.31c2.84 3 6.92 3.24 10.47 1.33a33.8 33.8 0 0 0 5.53-4.07q2.61-2.19 5.07-4.56a102.39 102.39 0 0 0 9.31-10.22 106.2 106.2 0 0 0 14.1-23.3c7-16 10.4-34.18 6.65-51.48-3.49-16.11-14.83-32.66-32.29-35.09a23.34 23.34 0 0 0-11.93 1.37c-.76.3-.44 1.55.35 1.25zM832.67 416a343.44 343.44 0 0 1-32.09 47.86q-5.12 6.33-10.47 12.48c-.69.79.44 1.94 1.16 1.16a303.89 303.89 0 0 0 34.4-46.46c2.86-4.71 5.6-9.48 8.17-14.36.4-.77-.74-1.44-1.17-.68zM881.75 419.91a232 232 0 0 1-34.45 40.78q-5.59 5.22-11.52 10c-.87.7.37 1.93 1.22 1.23a225.57 225.57 0 0 0 37.17-38.84c3.06-4.07 5.94-8.27 8.68-12.56.44-.7-.65-1.32-1.1-.65zM138.92 423.23l27 38.5c.52.74 1.75 0 1.23-.71l-27.12-38.46c-.49-.7-1.65 0-1.15.67zM86 431.88a111.68 111.68 0 0 0 36.15 37c.83.52 1.59-.79.77-1.31A112.41 112.41 0 0 1 87.2 431.2a.68.68 0 0 0-1.17.68z"></path></g></svg>