<svg viewBox="0 0 1000 1000" xmlns="http://www.w3.org/2000/svg"><path d="M253.3 608.28Q162.4 734.93 84.17 870c-9.19 15.87-20.36 33.4-38.36 36.9-7.46 1.45-17.11 1.34-20.09 8.34-3.11 7.28 4.46 14.44 11.22 18.56a325.63 325.63 0 0 0 43.62 22.29c6.82 2.86 14.33 5.52 21.46 3.56 11.26-3.1 16.3-15.72 22-25.9 10.55-18.85 27.68-32.94 44.16-46.91 53.76-45.58 107.2-99.37 120.61-168.57" fill="#32a16b" class="fill-18c4ff"></path><path d="M252.4 607.76q-25.87 35.93-50.76 72.56t-48.72 73.94q-23.76 37.17-46.43 75-11.43 19.05-22.6 38.26c-5.79 10-11.71 20.2-20.23 28.12A39.39 39.39 0 0 1 50 904.21c-5 1.74-10.33 1.85-15.44 3.1-4.53 1.1-8.88 3.39-10.52 8-1.94 5.48 1.37 10.85 5.2 14.56 4.77 4.6 10.91 7.74 16.63 11q9.52 5.37 19.4 10.09c6.33 3 12.75 6 19.35 8.43 6.15 2.23 13 3.65 19.39 1.28 10.07-3.75 15-14.26 19.74-23.12 6.12-11.43 14.26-21.26 23.58-30.23s19.32-17 29.06-25.4c9.44-8.14 18.72-16.46 27.72-25.08 18-17.19 34.9-35.57 49.33-55.86 14.09-19.79 25.8-41.48 32.82-64.81q2.58-8.58 4.3-17.38c.45-2.31-3.08-3.29-3.54-1-4.6 23.53-13.88 45.93-26.37 66.37-12.71 20.8-28.43 39.62-45.38 57.09-17.12 17.67-35.65 33.75-54.35 49.75-9.73 8.3-19.4 16.81-27.58 26.68A102.94 102.94 0 0 0 122.66 933c-2.61 4.67-4.91 9.51-7.82 14-2.75 4.25-6.21 8.34-11 10.4-6.31 2.74-13.22 1-19.35-1.33A276.08 276.08 0 0 1 46 937.38c-5.56-3.17-11.58-6.23-15.91-11.06-1.82-2-3.48-4.62-3.53-7.43a7.64 7.64 0 0 1 3.38-6.4c4-2.76 9.42-3 14-3.69a38.55 38.55 0 0 0 14.49-5.29c9.3-5.81 16.06-14.91 21.81-24 7.16-11.39 13.62-23.25 20.46-34.84q22.08-37.39 45.17-74.19t47.13-73q24-36 48.89-71.37 6.11-8.67 12.28-17.29c.78-1.09-1-2.13-1.8-1z" fill="#32a16b" class="fill-18c4ff"></path><path d="M29.39 919.91a152.33 152.33 0 0 1 29 9.15 137 137 0 0 1 26.11 15.13 129.6 129.6 0 0 1 13.19 11.13c1.1 1.06 2.78-.61 1.68-1.68a132.22 132.22 0 0 0-52.58-31.53 111.38 111.38 0 0 0-16.9-4c-1.17-.18-1.72 1.57-.5 1.83z" fill="#000000" class="fill-000000"></path><path d="M36.56 932.07a29 29 0 0 1 4.56-4.37 36 36 0 0 1 5.45-3.32 1 1 0 0 0 .36-1.35 1 1 0 0 0-1.36-.36 28.78 28.78 0 0 0-10.28 8.13.93.93 0 0 0 0 1.27.91.91 0 0 0 1.27 0zM47.57 938.32a110.56 110.56 0 0 1 11.55-7.72 1.08 1.08 0 0 0-1.12-1.87A94.4 94.4 0 0 0 46.28 937a.91.91 0 0 0 0 1.28.93.93 0 0 0 1.29 0zM59.9 945.39a60 60 0 0 1 12.95-7.46 1 1 0 1 0-.77-1.83 61.56 61.56 0 0 0-13.27 7.9c-.79.62.28 2 1.09 1.41zM76.31 953.29q2.4-1.69 4.65-3.55a50.48 50.48 0 0 0 4.27-3.88 1 1 0 0 0-1.46-1.45c-1.35 1.29-2.67 2.61-4.08 3.84s-2.82 2.37-4.3 3.46a.94.94 0 0 0-.32 1.25.91.91 0 0 0 1.24.33zM90.7 959.1a11.72 11.72 0 0 1 .89-1.53l.24-.33c.15-.21-.11.14 0-.07L92 957c.19-.23.38-.45.59-.66s.4-.4.61-.59l.33-.28.16-.13c.21-.17-.15.11.07-.05a11 11 0 0 1 1.49-.94 1 1 0 1 0-1-1.64 12.18 12.18 0 0 0-5.13 5.47.91.91 0 0 0 .32 1.21.9.9 0 0 0 1.21-.31zM99.48 960.17a1 1 0 0 0 0-2 1 1 0 0 0 0 2zM76.9 883.24c3.66 1.93 8.35 4.06 9.11 8.64.32 1.92-1.15 4 .34 5.69a6.42 6.42 0 0 0 2.12 1.36c1.08.51 2.15 1 3.22 1.57a111.3 111.3 0 0 1 21.94 14.36 115 115 0 0 1 10.8 10.37c1 1.07 2.55-.51 1.58-1.58a113.36 113.36 0 0 0-20-17.55 112.19 112.19 0 0 0-11.37-6.87c-1-.53-2-1-3-1.52a31.83 31.83 0 0 1-3-1.38c-.65-.41-.65-.63-.52-1.36a13.72 13.72 0 0 0 .26-1.45 8.05 8.05 0 0 0-.34-3c-1.47-4.79-6.1-7.24-10.41-9-1-.42-1.69 1.25-.74 1.76z" fill="#000000" class="fill-000000"></path><path d="M746.7 608.28Q837.6 734.93 915.83 870c9.19 15.87 20.36 33.4 38.36 36.9 7.46 1.45 17.11 1.34 20.09 8.34 3.11 7.28-4.46 14.44-11.22 18.56a325.63 325.63 0 0 1-43.62 22.29c-6.82 2.86-14.33 5.52-21.46 3.56-11.26-3.1-16.3-15.72-22-25.9-10.55-18.85-27.68-32.94-44.16-46.91-53.76-45.58-107.2-99.37-120.61-168.57" fill="#32a16b" class="fill-18c4ff"></path><path d="M745.8 608.81q25.26 35.33 49.55 71.32T843 752.78q23.2 36.51 45.47 73.61 11.18 18.63 22.07 37.4c5.89 10.14 11.53 20.58 19.29 29.45 7.13 8.15 15.89 14 26.71 15.63 4.56.71 10.11.94 13.92 3.85 5.07 3.88 2.8 10.08-.86 14-4.45 4.76-10.53 7.81-16.12 11q-9.36 5.32-19.07 10c-6.38 3.08-12.85 6.12-19.5 8.57-6.11 2.25-13 3.82-19.17.92-9.52-4.48-13.66-15.88-18.5-24.47-6.24-11.06-14.81-20.61-24-29.28s-19.06-16.6-28.6-24.87c-9.28-8-18.4-16.27-27.25-24.78-17.65-17-34.31-35.11-48.44-55.14-13.74-19.47-24.93-40.81-31.72-63.71q-2.5-8.46-4.18-17.12c-.46-2.32-4-1.34-3.54 1 4.69 24 14.46 46.53 27.22 67.28 13 21.08 29 40.19 46.2 57.88 17.53 18 36.51 34.3 55.57 50.6 9.94 8.49 19.75 17.3 27.87 27.6a106.53 106.53 0 0 1 10.12 15.8c2.54 4.77 5 9.63 8.34 13.93a25.32 25.32 0 0 0 11.6 8.91c6.45 2.22 13.37.64 19.56-1.67a274.33 274.33 0 0 0 38.71-18.62c5.69-3.22 11.79-6.35 16.45-11 3.81-3.82 6.81-9.22 4.62-14.64-1.83-4.52-6.29-6.62-10.78-7.66-5.14-1.18-10.45-1.33-15.45-3.15-10.57-3.84-18.34-12.9-24.48-21.94-7.49-11-13.76-22.88-20.53-34.33q-22.42-38-45.91-75.32t-48.21-74.27q-24.63-36.8-50.27-72.9-6.24-8.79-12.54-17.53c-.78-1.08-2.58 0-1.8 1z" fill="#32a16b" class="fill-18c4ff"></path><path d="M970.11 918.08a119 119 0 0 0-29.59 8.78 131.6 131.6 0 0 0-26.79 15.53 134.89 134.89 0 0 0-13.1 11.25c-1.09 1.07.58 2.74 1.68 1.68a136.63 136.63 0 0 1 51.71-31 164.58 164.58 0 0 1 16.59-4.37c1.22-.26.68-2-.5-1.83z" fill="#000000" class="fill-000000"></path><path d="M964.71 930.8a28.78 28.78 0 0 0-10.28-8.13 1 1 0 0 0-1.36.36 1 1 0 0 0 .36 1.35 36 36 0 0 1 5.45 3.32 29 29 0 0 1 4.56 4.37.91.91 0 0 0 1.27 0 .93.93 0 0 0 0-1.27zM953.72 937a94.4 94.4 0 0 0-11.72-8.27 1.08 1.08 0 0 0-1.09 1.87 110.56 110.56 0 0 1 11.55 7.72.93.93 0 0 0 1.29 0 .91.91 0 0 0 0-1.28zM941.19 944a61.56 61.56 0 0 0-13.27-7.88 1 1 0 1 0-.77 1.83 60 60 0 0 1 13 7.46c.8.61 1.89-.79 1.09-1.41zM924.61 951.71c-1.48-1.09-2.92-2.25-4.3-3.46s-2.73-2.55-4.08-3.84a1 1 0 0 0-1.46 1.45 52.24 52.24 0 0 0 4.27 3.88q2.25 1.86 4.65 3.55a.91.91 0 0 0 1.24-.33.94.94 0 0 0-.32-1.25zM910.83 958.2a12.18 12.18 0 0 0-5.13-5.47 1 1 0 0 0-1 1.64 11 11 0 0 1 1.49.94c.14.1-.05 0 0 0l.15.13c.12.09.23.19.34.29s.44.4.64.61.39.41.57.63l.15.18.26.36a11.09 11.09 0 0 1 .89 1.53.88.88 0 0 0 1.21.31.92.92 0 0 0 .32-1.21zM900.52 960.17a1 1 0 0 0 0-2 1 1 0 0 0 0 2zM922.36 881.48c-3.86 1.6-8 3.68-9.86 7.64a9 9 0 0 0-.63 5.85c.12.6.2.87-.37 1.27a8.3 8.3 0 0 1-1.2.58c-1.09.49-2.17 1-3.24 1.54A112.95 112.95 0 0 0 874 923.65c-1 1.07.61 2.65 1.58 1.58a112.49 112.49 0 0 1 20-17.29 113.65 113.65 0 0 1 11.25-6.68c1.88-1 3.93-1.76 5.76-2.84a3.47 3.47 0 0 0 1.64-1.82 5.18 5.18 0 0 0-.2-2.81c-1-5.49 5.18-8.49 9.09-10.55.94-.5.28-2.19-.74-1.76z" fill="#000000" class="fill-000000"></path><path d="M292.1 58.22c-6.06 21-25.49 35.31-45.36 44.35s-41.47 14.5-60 26.11c-10.34 6.51-19.88 15.39-23.68 27-1.51 4.62-2 9.75-.36 14.31s5.94 8.36 10.8 8.5c3 .09 6.51-2.76 5-5.28a4.75 4.75 0 0 0-2.78-1.75c-9.63-3-20.18.5-28.68 5.92-12.91 8.24-23.07 21.75-24.51 37s7.37 31.66 21.91 36.49c3.21 1.07 7 1.48 9.72-.59s2.52-7.32-.77-8.11a5.83 5.83 0 0 0-4.07.88c-8.36 4.62-10.63 16.5-6.67 25.19s12.57 14.46 21.53 17.76c16 5.89 34 5.25 50.06-.43s30.17-16.16 41.4-29c8.81-10 16.25-23.65 12-36.29-2.41-.25-4.08 2.85-3.28 5.14s3.15 3.66 5.45 4.41c8.87 2.92 18.62-.71 26.41-5.86a71.56 71.56 0 0 0 31-49.53c-1.76 4.6 3.77 9.35 8.64 8.67s8.55-4.7 11.35-8.75c11.87-17.2 15.68-38.66 17.27-59.49 1.2-15.71 1.12-32.36-6.63-46.07s-25.53-22.9-39.78-16.18" fill="#32a16b" class="fill-18c4ff"></path><path d="M291.27 58c-5.69 17.68-20.58 30.29-36.44 38.89-18.38 10-39 15-57.71 24.16-9 4.39-17.73 9.7-24.78 16.87-6.69 6.8-12.35 16-12.39 25.83a17.13 17.13 0 0 0 5.34 13c3.23 2.88 8.25 4.75 12.27 2.34a5.65 5.65 0 0 0 3.06-4.82c-.12-2.49-2.3-3.86-4.44-4.53a29.32 29.32 0 0 0-15.08-.33c-9.55 2.11-18.34 7.79-25.21 14.62a51.77 51.77 0 0 0-14 23.67 39.8 39.8 0 0 0 2 25.63c3.3 7.66 9.2 14.46 16.87 17.95 4 1.84 9.1 3.3 13.3 1.07a7.1 7.1 0 0 0 2.94-9.45c-2.53-4.45-8-2.17-11 .33a19.13 19.13 0 0 0-6.16 9.94c-2.26 8.51.58 17.13 6.44 23.49 6.59 7.14 16.1 11.24 25.41 13.38 20.86 4.8 42.85-.2 60.84-11.37a108.43 108.43 0 0 0 22.73-19c6.7-7.32 12.9-16 14.79-26a27.53 27.53 0 0 0-.74-13.84 1.78 1.78 0 0 0-1.66-1.26c-3.29-.15-5.52 3.23-5.15 6.27.44 3.6 3.91 5.72 7.06 6.72 7.51 2.39 15.6.33 22.42-3.12 12.82-6.49 23.29-18 29.73-30.73a72.14 72.14 0 0 0 7.2-22.8 1.72 1.72 0 0 0-3.31-.92c-2 5.79 4.15 11.14 9.63 10.93 6.56-.26 11.17-6.05 14.48-11.07 7.53-11.45 11.72-24.78 14.09-38.19 1.19-6.74 2-13.54 2.5-20.36a141.71 141.71 0 0 0 .36-21c-.89-12.88-4.61-26.23-14.24-35.37-9.3-8.82-23.08-13.45-35.21-7.84-2.1 1-.27 4.07 1.81 3.1 9.34-4.32 20.36-1 28.11 5 9.37 7.29 13.84 18.58 15.39 30.07 1.68 12.49.55 25.46-1 37.9S357 152 351.58 163.32a78.29 78.29 0 0 1-5.19 9.13 25.45 25.45 0 0 1-6.32 7.11c-2.35 1.63-5.23 2.56-7.95 1.27-2.25-1.07-4.15-3.33-3.27-5.9l-3.31-.92A69.83 69.83 0 0 1 311 208.07 69.12 69.12 0 0 1 297.52 221c-5.42 3.9-11.69 7.29-18.43 8-3.45.38-7.38.14-10.5-1.52-1.23-.65-2.71-1.73-2.76-3.26 0-1.06.6-2.29 1.76-2.24l-1.66-1.26c2.89 8.77-.09 17.82-4.71 25.41-4.75 7.87-11.32 14.63-18.22 20.56-14.31 12.25-32.14 20.62-51.12 21.59a67.75 67.75 0 0 1-28.83-4.6c-7.7-3.11-15.08-8.31-18.72-16-2.91-6.16-2.46-14.52 2-19.88 1.21-1.45 6.45-6.29 7.78-2.88a3.79 3.79 0 0 1-.52 3.49c-1.12 1.45-3.32 1.65-5 1.54-3.76-.24-7.53-2.19-10.56-4.32a30.6 30.6 0 0 1-7.79-8.09 36.06 36.06 0 0 1-6-21.79c.9-17.09 13.69-32.16 28.53-39.58a36.54 36.54 0 0 1 13.18-4 25.16 25.16 0 0 1 6.93.32c1 .2 4.43.62 4.28 2.1s-2.74 2.16-3.93 2.08a9.28 9.28 0 0 1-5.12-2.18c-3.55-2.93-4.8-7.44-4.56-11.9.47-8.74 5.83-16.83 11.85-22.84 6.53-6.5 14.5-11.36 22.69-15.46 17.28-8.65 36.1-13.72 53.4-22.34 14.77-7.36 29-17.72 37.11-32.47a49.1 49.1 0 0 0 4.39-11.09.86.86 0 0 0-1.66-.45z" fill="#32a16b" class="fill-18c4ff"></path><path d="M293.48 91.33c5.57 8 9.43 17.06 14.16 25.6s10.6 16.81 18.94 21.88 19.58 6.31 27.7.9l16.56 19.69a81.51 81.51 0 0 0 33.94-25.65 5 5 0 0 0 1.31-2.73 5 5 0 0 0-1.61-3.32c-10.09-11.62-25-19.47-31.33-33.49-3.16-7-4.89-14.29-8.74-21-6.11-10.66-15.15-19.79-27.17-23.35C314.76 43.2 279.58 58 291 86.52" fill="#ffffff" class="fill-ffffff"></path><path d="M292.72 91.78c7 10.51 11.2 22.63 18.25 33.14 6.2 9.26 14.87 17.46 26.26 19.29A25 25 0 0 0 355 140.9l-1.67-.22 16.56 19.69a1.34 1.34 0 0 0 1.34.36 84 84 0 0 0 23.27-14.14A82 82 0 0 0 404 137c1.32-1.6 3.2-3.42 3.47-5.57s-1.24-3.87-2.59-5.38c-5.62-6.27-12.4-11.32-18.54-17a61.28 61.28 0 0 1-8.34-9.29 52.14 52.14 0 0 1-6-12.26 110.3 110.3 0 0 0-5.66-13.79A62 62 0 0 0 359 63a45.54 45.54 0 0 0-20.28-14.17c-11.59-3.81-25.29-2.07-35.91 3.76a30.63 30.63 0 0 0-12.41 11.86 24.63 24.63 0 0 0-2.12 17.35 36 36 0 0 0 1.61 5c.55 1.38 2.83.78 2.27-.63-2.19-5.54-2.94-11.64-.93-17.35a25.15 25.15 0 0 1 9.85-12.08A44.39 44.39 0 0 1 334 50.45c16.24 3.36 27.64 17.4 33.27 32.25 1.66 4.37 3.08 8.85 5.13 13.06a43.83 43.83 0 0 0 6.51 9.57c5.22 6 11.57 10.83 17.44 16.14 1.5 1.35 3 2.73 4.38 4.17s3.07 2.79 3.82 4.48-1.83 4.11-2.9 5.37a78.99 78.99 0 0 1-4.29 4.68 80.39 80.39 0 0 1-21 15.26q-2.87 1.44-5.83 2.64l1.34.36-16.57-19.69a1.36 1.36 0 0 0-1.66-.21c-9.14 5.95-21.09 3.28-29.33-2.95-9-6.83-14.48-17.14-19.66-26.94a158.09 158.09 0 0 0-10.35-17.76c-.65-.91-2.17-.06-1.53.9z" fill="#000000" class="fill-000000"></path><path d="M365.09 159.72a186 186 0 0 1 40.7-46.26c1.69-1.37 3.58-2.78 5.75-2.78a9.5 9.5 0 0 1 4.66 1.69 102.37 102.37 0 0 1 19.72 15.26c3.45 3.41 6.78 7.25 7.95 12S443.4 150 439 152.11" fill="#ffffff" class="fill-ffffff"></path><path d="M365.88 160.18c4.68-6.83 9.39-13.61 14.73-20a186.16 186.16 0 0 1 17.07-17.78c3-2.77 6.16-5.47 9.39-8 1.42-1.12 3.16-2.41 5.07-2.08s3.84 1.8 5.49 2.86A95.87 95.87 0 0 1 437 131.33c2.66 2.95 5.27 6.61 5.45 10.72.14 3.35-1.17 6.91-4.22 8.6-1.94 1.07-.24 3.8 1.7 2.91a10.93 10.93 0 0 0 5.95-8.34 16.63 16.63 0 0 0-2.37-11.29c-2.28-3.84-5.57-7-8.84-10.05a99.81 99.81 0 0 0-10.81-8.64q-2.83-2-5.81-3.75c-1.86-1.11-3.83-2.3-6.05-2.43-4.3-.24-7.92 3.77-10.9 6.36a186.46 186.46 0 0 0-19 19.2 155.38 155.38 0 0 0-17.72 24.64.91.91 0 0 0 1.58.92z" fill="#000000" class="fill-000000"></path><path d="M850.78 177.6c-49-.83-107.81-13.29-167.57-37.8-42.87-17.58-81-39.22-112.26-62.55a34.23 34.23 0 0 0-41 0c-31.25 23.33-69.39 45-112.26 62.55-59.76 24.51-118.53 37-167.57 37.8A34.37 34.37 0 0 0 216 211.83v399.65a269.65 269.65 0 0 0 123.58 226.64l171.88 110.76a71.94 71.94 0 0 0 78 0L761.3 838.12a269.65 269.65 0 0 0 123.57-226.64V211.83a34.37 34.37 0 0 0-34.09-34.23z" fill="#000000" class="fill-000000"></path><path d="M850.78 175.06c-37.76-.71-75.24-7.68-111.43-18.24a555.26 555.26 0 0 1-114-47.58 479 479 0 0 1-47.47-30c-7-5-13.44-9.65-22.19-10.92a37 37 0 0 0-22.42 3.86c-7.78 4.09-14.71 10.32-22 15.24Q499.91 95 488.11 102a538.54 538.54 0 0 1-52.17 27.15 536.45 536.45 0 0 1-118.79 38.48 400.82 400.82 0 0 1-54.36 6.95c-7.77.43-15.86-.19-23.37 2.17a37.36 37.36 0 0 0-16.78 10.86c-7.85 9-9.16 19.5-9.16 30.7v366.94c0 27.68.1 55 5.84 82.29a273.75 273.75 0 0 0 101.15 160.23c9.85 7.53 20.3 14.12 30.7 20.83l43.59 28.08 99.56 64.17c8.76 5.64 17.52 12.08 27.15 16.15 23.64 10 49.84 6.56 71.16-7.17l81.81-52.73 85-54.8c45.75-29.49 82.56-70.71 104.62-120.69a273.56 273.56 0 0 0 22.74-93c.57-8.87.55-17.74.55-26.62V274.27c0-20.45.08-40.9 0-61.35a37.52 37.52 0 0 0-36.62-37.86c-3.27-.11-3.26 5 0 5.07 16 .54 29.91 12.43 31.41 28.66.19 2 .14 4 .14 6v357.66c0 20 .74 40.22-.82 60.15a268.58 268.58 0 0 1-81.35 171.61c-23.83 22.87-52.4 39.62-80 57.41l-102.36 66-28.2 18.18c-23.57 15.15-53 16-76.85.93-22.22-14.06-44.21-28.49-66.32-42.73l-94.66-61c-11.23-7.24-22.42-14.44-32.87-22.81a268.19 268.19 0 0 1-63.34-73c-25-42.45-37-90.43-37-139.53V212.55A32.08 32.08 0 0 1 229 188.38a32.92 32.92 0 0 1 21.08-8.25c8.37-.28 16.71-.61 25.06-1.36a435.14 435.14 0 0 0 53.86-8.41 550.06 550.06 0 0 0 113.89-38.84 533.2 533.2 0 0 0 51-27.06q12-7.23 23.5-15.13c7.07-4.86 14-11.45 22.11-14.42a31.88 31.88 0 0 1 25.55 1.62c7.57 4 14.32 10 21.4 14.83a501.65 501.65 0 0 0 48.66 28.9 561.68 561.68 0 0 0 112.22 44.08c33.69 9.16 68.48 15.13 103.44 15.79 3.23.06 3.23-5.01.01-5.07z" fill="#000000" class="fill-000000"></path><path d="M785.42 251.11c-38.37-.65-84.35-10.4-131.1-29.57-33.54-13.76-63.38-30.69-87.83-48.94a26.79 26.79 0 0 0-32.1 0c-24.45 18.25-54.29 35.18-87.83 48.94-46.75 19.17-92.73 28.92-131.1 29.57a26.9 26.9 0 0 0-26.67 26.78v312.67a211 211 0 0 0 96.68 177.32L520 854.54a56.28 56.28 0 0 0 61 0l134.47-86.66a211 211 0 0 0 96.68-177.32V277.89a26.9 26.9 0 0 0-26.73-26.78z" fill="#ffffff" class="fill-ffffff"></path><g fill="#32a16b" class="fill-18c4ff"><path d="M513.93 640A35.17 35.17 0 0 1 489 629.68l-71.47-71.47a35.26 35.26 0 1 1 49.86-49.86l46.54 46.54 153.8-153.79a35.25 35.25 0 0 1 49.85 49.9L538.86 629.68A35.17 35.17 0 0 1 513.93 640z"></path><path d="M513.93 637.47a33.07 33.07 0 0 1-23.14-9.59l-2.55-2.55-16-16-22.94-22.94-20.69-20.69c-3.08-3.08-6.17-6.14-9.24-9.24A32.74 32.74 0 0 1 454.86 503c7.21 2.91 12.26 8.7 17.62 14l21.84 21.85 16.94 16.93.88.88a2.57 2.57 0 0 0 3.58 0l6.07-6.06 16-16 22.94-22.95 26.58-26.58 27.29-27.28 24.65-24.65 19.08-19.08 10.23-10.23a38.53 38.53 0 0 1 5.79-4.95 32.72 32.72 0 0 1 41.26 50.44l-2.28 2.28-11.55 11.55-19 19-24.14 24.14-26.81 26.81-27.26 27.26-25.5 25.5-21.31 21.31L543 621.92c-2 2-3.95 4-5.94 5.94a33.1 33.1 0 0 1-23.16 9.61c-3.26 0-3.27 5.09 0 5.07a38.34 38.34 0 0 0 26.73-11.08l1.64-1.64 10.64-10.64 18.55-18.55 23.93-23.93 27-27 27.72-27.7 26-26 21.73-21.73L713 459.09c2.1-2.1 4.21-4.19 6.3-6.3 12.31-12.42 14.71-32.28 5.19-47.08a37.78 37.78 0 0 0-49.82-12.94c-5.05 2.7-8.88 6.66-12.86 10.63L647.22 418 625 440.28l-26.51 26.51-27.7 27.7-25.5 25.51-20.1 20.1-11.54 11.54-1.51 1.51h3.58l-12.92-12.97L479.59 517c-4.78-4.78-9.42-10.17-14.88-14.22-13.37-9.93-32.37-9.44-45.44.72a38.06 38.06 0 0 0-11.77 44.1 39.43 39.43 0 0 0 8.67 12.83l4.42 4.42 18.81 18.81 23.75 23.74 19 19 4.58 4.57a39.66 39.66 0 0 0 14 9.17 38 38 0 0 0 13.27 2.41c3.19.01 3.2-5.06-.07-5.08zM320.46 49.05a32.34 32.34 0 0 1-3.66 28.37 8.45 8.45 0 0 1-2.8 2.85 3.51 3.51 0 0 1-3.8-.1c-1.8-1.44-1-4.3-.1-6.42.82 3.88-1.19 7.75-3.28 11.13-3.15 5.1-6.69 10.06-11.36 13.82a7.47 7.47 0 0 1-3.86 1.91 5.53 5.53 0 0 1-4.94-2.9 13.16 13.16 0 0 1-1.48-5.8c-.58-8 1-16 3.44-23.54 2.16-6.67 5.15-13.3 10.22-18.15s12.56-7.65 19.28-5.62a8.81 8.81 0 0 1 5.76-4.47 19.34 19.34 0 0 1 7.47-.24 49.6 49.6 0 0 1 36 23.62 30 30 0 0 1 3.14 7 42.29 42.29 0 0 1 1.25 7.6l1.81 17.2a3.17 3.17 0 0 1-.13 1.68c-.51 1.07-2 1.22-3.15 1.14a29.25 29.25 0 0 1-11.8-3.4 3 3 0 0 1-1.47-1.38 3.56 3.56 0 0 1 0-1.86c.66-4 1.28-8.72-.28-12.62-2.81-7-15.26-3.07-11.82 3.84-2.41-.46-2-1.45-3.63-3.25L326.6 63.53c-2.32-2.52-4.7-5.15-5.74-8.4"></path><path d="M319.64 49.28a32.33 32.33 0 0 1-.2 20.12c-1.05 3.06-2.61 6.53-4.92 8.86-.91.9-3.11 2-3.87.31-.54-1.22.18-3 .66-4.12l-2.54-.33c.66 3.62-1.31 7.08-3.15 10a67.49 67.49 0 0 1-6 8.45 39.78 39.78 0 0 1-3.54 3.69c-1.15 1-2.53 2.41-4.09 2.79-3.78.93-5.12-4-5.37-6.76-.67-7.53.69-15.09 2.88-22.26 1.94-6.36 4.55-12.79 9.13-17.74 4.77-5.16 12.1-8.49 19.12-6.44a1.36 1.36 0 0 0 1.52-.62c2.64-5.18 9.51-4.51 14.3-3.62a47.47 47.47 0 0 1 13.15 4.54 48.15 48.15 0 0 1 20.18 19.72c2.87 5.36 3.2 11.2 3.83 17.13.33 3.12.64 6.23 1 9.34l.24 2c0 .39.4 1.79.07 2.14-.59.63-2.6.18-3.31.1a27.12 27.12 0 0 1-8-2.27c-.93-.43-2.52-.86-2.48-2 0-1.34.44-2.74.59-4.08.47-4.1.6-9.8-2.92-12.69a8.76 8.76 0 0 0-9.56-.6 6.29 6.29 0 0 0-2.78 8.57l1.64-2.14a2.15 2.15 0 0 1-1.71-1.21A24.23 24.23 0 0 0 341 77l-7-7.61-6.77-7.39c-2-2.18-4-4.45-5-7.29-.61-1.78-3.43-1-2.83.77a23.11 23.11 0 0 0 5 7.85c2.44 2.74 4.95 5.41 7.44 8.1l7.67 8.31a32.45 32.45 0 0 1 2 2.64 4.65 4.65 0 0 0 2.91 1.7 1.48 1.48 0 0 0 1.72-2.08c-1.25-2.63.89-4.61 3.33-5.19a5.77 5.77 0 0 1 3.9.39c1.65.86 2.25 2.57 2.6 4.3a24.56 24.56 0 0 1-.16 8.42 9.72 9.72 0 0 0-.3 3.47A4.19 4.19 0 0 0 358 96a30.58 30.58 0 0 0 8 2.88c2.26.48 5.46 1.3 7.58 0 2.44-1.51 1.33-5.23 1.12-7.54-.31-3.28-.67-6.56-1-9.83-.31-2.94-.53-5.9-1.05-8.8a29.15 29.15 0 0 0-3-8.44 50.81 50.81 0 0 0-36.75-25.6c-5.67-.83-12.94-.69-15.89 5.23l1.53-.62c-7.1-2-14.66.63-20 5.43-5.69 5.1-8.92 12.37-11.24 19.5-2.62 8.11-4.44 17-3.26 25.59.48 3.5 2.33 7.36 6.15 8.1s7.09-2.62 9.5-5.1a61.89 61.89 0 0 0 8.08-10.69c2.41-3.86 4.61-8.07 3.75-12.75a1.4 1.4 0 0 0-2.54-.33c-1.05 2.46-2.08 5.86.23 8 2.66 2.45 6.24.42 8.06-2a32.4 32.4 0 0 0 6.07-19 31.7 31.7 0 0 0-2-11.24c-.38-1-2-.62-1.65.45z"></path></g><path d="M351.51 80.46a3.62 3.62 0 0 0-1.06 1 5.21 5.21 0 0 0-.64 4 1 1 0 0 0 .48.62 1.17 1.17 0 0 0 .8.11 1.29 1.29 0 0 0 1-1.34 1.37 1.37 0 0 0-.37-.9 1.3 1.3 0 0 0-.88-.39 1 1 0 0 0-.7.29 1 1 0 0 0-.27.57 1 1 0 0 0 .71 1.08.73.73 0 0 1-.58-.5v-.3c0 .09 0 0 .07-.17s.16-.2.09-.13c.4-.18.51-.25.33-.2l1.28.72a4.48 4.48 0 0 1-.11-.5v.06-.12a2.18 2.18 0 0 1 0-.25 4.67 4.67 0 0 1 0-.52v.06-.12l.06-.27c0-.08 0-.16.07-.23s.11-.21.1-.26-.09.19 0 .06a1.17 1.17 0 0 0 .05-.11c0-.08.08-.16.13-.24a8.33 8.33 0 0 1 .55-.9.83.83 0 0 0-.13-1 .85.85 0 0 0-1-.13zM291.48 104.62a28.34 28.34 0 0 0 7.95-5.28 46.14 46.14 0 0 0 5.85-8 56.7 56.7 0 0 0 4.51-8.68 27.67 27.67 0 0 0 2.38-9.57c0-1.47-2.32-1.86-2.62-.36a49.65 49.65 0 0 1-2.26 8.8 60.09 60.09 0 0 1-4.23 8.26 66.16 66.16 0 0 1-5.06 7.8c-2 2.42-4.76 4-7.45 5.44-1 .58-.12 2.12.94 1.59zM317.61 80.49a75.16 75.16 0 0 0 3.92-10.29 44.36 44.36 0 0 0 2-10.9c.09-1.65-2.44-1.63-2.57 0a82.25 82.25 0 0 1-1.39 10.37 45.63 45.63 0 0 1-3.48 10c-.46 1 1 1.86 1.48.86zM313.21 106.53v.24c0-.12.05-.23.05-.36a2.5 2.5 0 0 0-.07-.41v.29a.43.43 0 0 1 0-.16v.29a1.21 1.21 0 0 1 0-.18l-.11.27a.72.72 0 0 1 .12-.21l-.18.24a.9.9 0 0 1 .19-.2l-.24.19a1.48 1.48 0 0 1 .21-.13l-.3.13.4-.16-.31.13.22-.06h-.34.19-.34a1.11 1.11 0 0 1 .3.08l-.32-.13a.92.92 0 0 1 .27.16l-.27-.21a1.64 1.64 0 0 1 .3.29l-.21-.27a2.87 2.87 0 0 1 .28.48l-.14-.33a2.39 2.39 0 0 1 .15.54l-.05-.38a1.93 1.93 0 0 1 0 .34l.05-.39a1 1 0 0 1-.05.18l.14-.34-.06.1.23-.29-.11.1.29-.23a.27.27 0 0 1-.1.06l.34-.14h-.14.39-.09.39-.44a1.09 1.09 0 0 0-.56.12l-.22.11a1.3 1.3 0 0 0-.67 1.16 1.48 1.48 0 0 0 1.11 1.44 1.53 1.53 0 0 0 .67 0 1.78 1.78 0 0 0 .5-.14 1.58 1.58 0 0 0 .42-.24 1.31 1.31 0 0 0 .25-.22 2.82 2.82 0 0 0 .29-.39 2.72 2.72 0 0 0 .19-.5 2.32 2.32 0 0 0 0-1.08 3.76 3.76 0 0 0-.25-.69 3.66 3.66 0 0 0-.57-.84 2.61 2.61 0 0 0-.78-.62 2.45 2.45 0 0 0-1.24-.3 2.1 2.1 0 0 0-1.33.53 2.36 2.36 0 0 0-.58.94 2.72 2.72 0 0 0-.1.57 1.75 1.75 0 0 0 .44 1.21 1.15 1.15 0 0 0 1.11.29l.22-.09a.79.79 0 0 0 .25-.23 1 1 0 0 0 .2-.56zM329.26 94.47v.25-.36a2.33 2.33 0 0 0-.07-.41v.28a.43.43 0 0 1 0-.16v.3a.78.78 0 0 1 .05-.18l-.11.27a.72.72 0 0 1 .12-.21l-.18.23a.86.86 0 0 1 .19-.19l-.25.19.22-.13-.3.13.4-.17-.31.13a.9.9 0 0 1 .22-.06h-.34.19-.35a1.09 1.09 0 0 1 .31.08l-.32-.14a1.75 1.75 0 0 1 .27.16l-.27-.21a2.13 2.13 0 0 1 .3.3l-.22-.28a2.43 2.43 0 0 1 .29.49l-.14-.33a2.39 2.39 0 0 1 .15.54l-.05-.38a1.82 1.82 0 0 1 0 .33l.05-.38a1.21 1.21 0 0 1-.05.18l.14-.35-.06.1.22-.29a.52.52 0 0 1-.1.11l.29-.23-.1.06.34-.14a.58.58 0 0 1-.14 0h.39a.14.14 0 0 1-.09 0l.38.06h-.05l-.38-.06a1.18 1.18 0 0 0-.56.13l-.23.1a1.33 1.33 0 0 0-.66 1.17 1.49 1.49 0 0 0 1.11 1.44 1.39 1.39 0 0 0 .67 0 1.48 1.48 0 0 0 .5-.13 1.51 1.51 0 0 0 .42-.25 2.52 2.52 0 0 0 .25-.21 2.14 2.14 0 0 0 .28-.39 2.25 2.25 0 0 0 .2-.51 2.46 2.46 0 0 0 0-1.08 3.29 3.29 0 0 0-.26-.68 3.16 3.16 0 0 0-.56-.84 2.61 2.61 0 0 0-.78-.62 2.56 2.56 0 0 0-1.24-.31 2 2 0 0 0-1.33.54 2.32 2.32 0 0 0-.58.93 2.28 2.28 0 0 0-.1.57 1.7 1.7 0 0 0 .07.55 1.58 1.58 0 0 0 .37.67 1.15 1.15 0 0 0 1.11.29l.22-.09a.72.72 0 0 0 .25-.24 1 1 0 0 0 .2-.55zM324.76 114.05a4.49 4.49 0 0 0 3 .78 5.39 5.39 0 0 0 1.54-.35 3.88 3.88 0 0 0 1.52-1 1 1 0 0 0 .08-1.32 1 1 0 0 0-1.29-.25 3 3 0 0 0-.4.31c-.11.09.14-.1 0 0l-.12.08a6.22 6.22 0 0 1-.56.32c-.12.06.17-.07 0 0l-.16.06c-.09 0-.19.06-.28.09l-.31.08h-.14a1.46 1.46 0 0 0-.29 0h-.64c-.15 0 0 0 0 0h-.14c-.21 0-.42-.07-.63-.13l-.27-.08h-.19a.87.87 0 0 0-1.17.3.89.89 0 0 0 .31 1.18zM338.42 120.17a14.92 14.92 0 0 0 2.13-3.47 11.26 11.26 0 0 0 1.06-4.13 1.07 1.07 0 0 0-2.1-.29 24.61 24.61 0 0 1-.9 3.6 14.29 14.29 0 0 1-1.68 3.14.93.93 0 0 0 .24 1.22 1 1 0 0 0 1.25-.07zM358.46 131.48c.19.68-.47 1.58-.78 2.14a22.44 22.44 0 0 1-1.44 2.28 11.59 11.59 0 0 1-1.59 1.81 11.19 11.19 0 0 1-2 1.35 1.23 1.23 0 0 0-.49 1.52 1.19 1.19 0 0 0 1.43.7 10.4 10.4 0 0 0 4.78-4.31 20.91 20.91 0 0 0 1.4-2.7c.49-1.11 1-2.3.31-3.46a.87.87 0 0 0-1.59.67zM306.87 101.19l.07-.16c0-.11-.1.21 0 0l.12-.27q.13-.27.3-.54a6.37 6.37 0 0 1 .35-.55l.17-.24c.07-.1-.14.18 0 0l.1-.12a8.94 8.94 0 0 1 .85-.89c.15-.14.3-.28.46-.41l.13-.11.16-.13.25-.21a1.1 1.1 0 0 0 .08-1.44 1.09 1.09 0 0 0-1.41-.28 6.92 6.92 0 0 0-2.15 2.19 9.14 9.14 0 0 0-1.16 2.59.91.91 0 0 0 .63 1.12.93.93 0 0 0 1.12-.63zM321.12 87.74a7.51 7.51 0 0 1 .73-1.26c.12-.17-.12.14 0 0l.12-.15c.08-.09.16-.19.25-.28s.35-.34.54-.5a.58.58 0 0 0 .12-.1c-.17.21-.09.07 0 0l.31-.22c.21-.13.42-.24.64-.36l.31-.16.17-.08c.21-.1-.26.1 0 0l.57-.23h-.07l.21-.08a1.14 1.14 0 0 0 .78-1.38 1.16 1.16 0 0 0-1.38-.79 6.07 6.07 0 0 0-3.13 1.85 7.51 7.51 0 0 0-1.78 3 .88.88 0 0 0 .51 1 .87.87 0 0 0 1.1-.36z" fill="#000000" class="fill-000000"></path><path d="M211.69 401.86c-7.49-14.21-15.09-28.75-17.55-44.61-3.73-24 4.92-48.71 19.32-68.24s34.13-34.49 54.59-47.55a463.57 463.57 0 0 1 56-30.52c2.46-1.14 5.15-2.27 7.81-1.73 3 .61 5.07 3.12 7 5.47 4.17 5.2 8.48 10.73 9.52 17.32 1.56 9.86-4.53 19.14-10.32 27.27-26.8 37.59-54.14 75.76-90.67 104-14.51 11.21-31.92 23.39-33 41.69" fill="#ffffff" class="fill-ffffff"></path><path d="M212.6 401.33c-7.9-15.67-16.33-31.71-17.67-49.53-1.23-16.52 3.21-33 10.88-47.59 7.79-14.78 19-27.41 31.56-38.3 12.94-11.2 27.33-20.67 42-29.46q11.85-7.11 24.12-13.51 6.07-3.18 12.24-6.17 3.09-1.5 6.19-3a40.67 40.67 0 0 1 6.42-2.72 6.25 6.25 0 0 1 5.5.86 19.47 19.47 0 0 1 3.76 3.93 59.38 59.38 0 0 1 6.89 10 20.33 20.33 0 0 1 2.25 11.78 31.46 31.46 0 0 1-4.13 11.46 113.77 113.77 0 0 1-7.07 10.75c-2.45 3.44-4.91 6.89-7.38 10.32q-7.47 10.43-15.14 20.7a497.49 497.49 0 0 1-32.52 39.48 296.72 296.72 0 0 1-37 33.82c-11 8.48-23.38 17.56-28.63 31a32.64 32.64 0 0 0-2.14 9.8c-.14 2.1 3.14 2.09 3.27 0 1-14.8 13.21-25.42 24.05-34 6.3-5 12.72-9.73 18.79-15 6.59-5.68 12.9-11.69 19-17.94a453.88 453.88 0 0 0 33.78-39.75q8-10.44 15.68-21.12c5.12-7.07 10.37-14.09 15.22-21.36 4.62-6.94 8.8-15 7.63-23.64a28.14 28.14 0 0 0-4.62-11.48 67 67 0 0 0-7.53-9.72c-3.06-3.16-6.87-4.39-11.14-3a55.25 55.25 0 0 0-6.38 2.75q-3.11 1.45-6.19 2.94-12.75 6.19-25.11 13.18A368.8 368.8 0 0 0 244 256.25c-13.41 10.41-25.8 22.42-35.19 36.64-9.29 14-15.59 30.29-16.79 47.16a77.73 77.73 0 0 0 2.47 25.54 130.89 130.89 0 0 0 10.1 25.12c2 3.94 4.07 7.82 6.2 11.68.66 1.2 2.43.14 1.82-1.06z" fill="#000000" class="fill-000000"></path><path d="M329.19 211a64.82 64.82 0 0 1 22-21.54c2.57-1.52 5.37-2.89 8.35-2.94s6.18 1.58 7.09 4.42l-2.94 1.42c6.73-.28 13.6-.39 20.08 1.45a26 26 0 0 1 12.6 7.73 3.33 3.33 0 0 1-2.1 5.42 43 43 0 0 1-12.72 0c2.46.29 5 1.56 5.89 3.87s-1 5.47-3.42 5.12a5.44 5.44 0 0 1-1.93 10.54 8.62 8.62 0 0 1-11.19 10.54 5.74 5.74 0 0 1 2.21-4.13c-1.5 4.08-6.66 5.15-11 5.6l-23.25 2.42" fill="#ffffff" class="fill-ffffff"></path><path d="M330 211.46a66 66 0 0 1 16.1-17.07c3.07-2.26 6.49-4.65 10.14-5.87 3.1-1 7.81-.88 9.13 2.8l.63-1.56-3 1.42a1.39 1.39 0 0 0 .7 2.58c8.81-.36 18.25-.5 26.1 4.13a22.36 22.36 0 0 1 4.79 3.75c.93 1 1.75 2.26.57 3.41-.7.69-1.84.66-2.75.76-1.1.12-2.2.19-3.31.22a35 35 0 0 1-7.16-.43l-.76 2.75c1.82.31 4.08 1 4.84 2.9.56 1.38-.38 3.36-2 3.22-1.84-.17-1.83 2.37-.4 2.95a4.11 4.11 0 0 1 2.37 4.4 4.06 4.06 0 0 1-3.9 3.14 1.57 1.57 0 0 0-1.49 2 7.16 7.16 0 0 1-9.29 8.62l1.16 1.51a4.51 4.51 0 0 1 1.75-3l-2.64-1.54c-1.72 4.35-8.6 4.34-12.41 4.73q-10.17 1-20.27 2.02c-2.08.21-2.09 3.5 0 3.28 7.58-.83 15.17-1.61 22.76-2.42 5-.53 10.91-1.55 13-6.82.64-1.62-1.57-2.42-2.64-1.53a7.56 7.56 0 0 0-2.67 5.24 1.59 1.59 0 0 0 1.16 1.52 10.18 10.18 0 0 0 13.11-12.47l-1.5 2a7 7 0 0 0 2.33-13.54l-.4 2.95c3.28.28 5.57-3.26 5-6.27-.63-3.51-4.27-5.31-7.5-5.65-1.83-.19-1.8 2.65 0 2.85a42.56 42.56 0 0 0 13.09-.09 4.78 4.78 0 0 0 3.51-6.51 12 12 0 0 0-3.51-3.9 27.65 27.65 0 0 0-4.69-3.11 34.8 34.8 0 0 0-11.5-3.46 83.66 83.66 0 0 0-14.76-.34l.7 2.58 2.94-1.42a1.38 1.38 0 0 0 .64-1.56 8.3 8.3 0 0 0-6.5-5.27c-3.54-.62-7 .77-10 2.49a62.32 62.32 0 0 0-16.06 13.12 67.45 67.45 0 0 0-7 9.64c-.59 1 .91 1.84 1.52.89z" fill="#000000" class="fill-000000"></path><g fill="#32a16b" class="fill-18c4ff"><path d="M327.37 211.53c0 6.85.16 13.82 2.34 20.4 1.78 5.36 5 11.43 10.28 14.12a2 2 0 0 0 2.55-.51 2 2 0 0 0-.15-2.6 31.93 31.93 0 0 1-5.89-5.43 26.27 26.27 0 0 1-3.89-7c-2.3-6.05-2.88-12.62-3.53-19-.1-1.08-1.72-1.13-1.71 0zM299.05 232a90.94 90.94 0 0 0 12.49 36.73q1.74 2.88 3.68 5.61a30 30 0 0 0 4.07 5.16 1.06 1.06 0 0 0 1.66-1.28c-1.07-1.77-2.6-3.32-3.82-5s-2.41-3.44-3.52-5.22a89.63 89.63 0 0 1-6-11.29 88.15 88.15 0 0 1-6.84-24.71c-.14-1.08-1.84-1.1-1.72 0zM267 251.18a83.2 83.2 0 0 0 19.39 44 81.47 81.47 0 0 0 10 9.81c1 .86 2.55-.64 1.49-1.5a81.87 81.87 0 0 1-26.27-39.07 80.21 80.21 0 0 1-2.89-13.28c-.14-1.09-1.88-1.11-1.74 0zM237.09 272.55a71.17 71.17 0 0 0 6.24 26c3.86 8.53 9.6 15.93 15.52 23.11 3.51 4.25 7.1 8.49 10.93 12.46 1.15 1.19 2.9-.59 1.81-1.81-12.11-13.51-25-27.24-30.14-45.09a68.45 68.45 0 0 1-2.53-14.7c-.08-1.16-1.88-1.17-1.83 0zM205.11 315.53c2 7.36 4.14 14.8 7.75 21.59s9 12.44 14.56 17.84l5 4.83a43.51 43.51 0 0 0 5.16 4.82c.84.6 2.1-.61 1.46-1.46a35.79 35.79 0 0 0-4.1-4.16l-4.54-4.36c-2.69-2.58-5.39-5.15-7.91-7.89a57.19 57.19 0 0 1-11.69-19.34c-1.5-4-2.71-8.2-3.91-12.35a.9.9 0 0 0-1.73.48zM206.29 383.43a20.49 20.49 0 0 0 7.46 5.61 1 1 0 0 0 1.4-.47 1 1 0 0 0-.64-1.34 18.79 18.79 0 0 1-6.95-5.07.9.9 0 0 0-1.27 1.27z"></path></g><path d="m199.61 711 5 5.06a1 1 0 1 0 1.38-1.38l-5.07-5a.94.94 0 0 0-1.31 0 1 1 0 0 0 0 1.31z" fill="#000000" class="fill-000000"></path><path d="M575.58 77.17A74.09 74.09 0 0 1 669.91 145c.74 15.83-3.6 31.42-8.26 46.57-12.71 41.31-28.2 81.93-49.26 119.66-6.06 10.86-13 21.93-23.88 28s-26.55 5.28-33.61-5c-6-8.72-3.89-20.44-1.53-30.77Q577.2 199.25 601 95a59.61 59.61 0 0 1-24.76-15.19" fill="#ffffff" class="fill-ffffff"></path><path d="M575.84 78.09a75 75 0 0 1 54.43 6.45A73.44 73.44 0 0 1 668.18 152c-.47 11-3.11 21.83-6.2 32.39-6 20.49-12.91 40.75-20.67 60.64a540.08 540.08 0 0 1-26.49 58.05c-8 14.89-17.59 34.37-35.94 37.82-7.1 1.34-15.32.06-20.61-5.18-6.55-6.48-6.24-16.46-4.77-24.87.89-5.05 2.14-10 3.28-15l3.85-16.85 7.62-33.4 15.31-67.06 15.25-66.8q1.88-8.16 3.73-16.32a1.61 1.61 0 0 0-1.1-1.93 58.59 58.59 0 0 1-24.07-14.77c-1.41-1.43-3.61.78-2.2 2.21a62.18 62.18 0 0 0 25.44 15.59l-1.1-1.93q-7.87 34.41-15.74 68.83L568 232.47l-15.77 68.83c-2.08 9.08-4.53 19.18-1.46 28.32a22.13 22.13 0 0 0 17.53 14.71 32.43 32.43 0 0 0 23.24-4.88c8-5.19 13.78-12.93 18.67-20.95 5.5-9 10.36-18.48 15-27.95 4.88-9.9 9.4-20 13.66-30.14 8.48-20.25 15.82-41 22.42-61.88 6.46-20.51 13.17-42 9.14-63.69a74.94 74.94 0 0 0-81.53-61.26 74 74 0 0 0-13.6 2.68 1 1 0 0 0 .51 1.83z" fill="#000000" class="fill-000000"></path><path d="M585 321.91c-9.58-1.84-20.72-3.26-28 3.21-4.54 4-6.42 10.2-7.76 16.11a157.55 157.55 0 0 0-3.89 33.66c0 4.86.5 10.43 4.43 13.29a4.48 4.48 0 0 0 3.45 1c2.3-.5 3.16-3.26 3.59-5.57l3.81-20a5.18 5.18 0 1 0 9.8 1 5.94 5.94 0 1 0 11.72-1.79c.09 4.48 6.21 6.69 10.25 4.76s6.31-6.22 8.3-10.23c.76-1.54 1.54-3.32.89-4.91s-3.51-1.94-3.86-.26a18.86 18.86 0 0 0-6.78-29.89" fill="#ffffff" class="fill-ffffff"></path><path d="M585.21 321.07c-7.59-1.57-16.21-3.16-23.66-.19-7.88 3.14-11.47 10.67-13.37 18.46a155.63 155.63 0 0 0-4.18 30.22c-.17 4.21-.44 8.62.56 12.76.85 3.54 3.26 7.67 7.21 8.25 5.15.76 6.13-5.4 6.82-9.06l3.31-17.57a1.38 1.38 0 0 0-2.66-.73 6.82 6.82 0 0 0 5.2 8.94c4.43.61 8-3.77 7.27-8-.33-1.78-2.91-1-2.68.74a7.57 7.57 0 0 0 8.51 6.24c4.05-.69 6.56-4.87 5.9-8.77-.26-1.55-2.82-1.19-2.75.37.28 5.86 7.48 8.2 12.23 6 3-1.37 5.15-4 6.8-6.79a50.31 50.31 0 0 0 2.43-4.59c.75-1.62 1.38-3.43.81-5.22-.91-2.9-5.67-3.77-6.66-.46a1.43 1.43 0 0 0 2.38 1.39 20.3 20.3 0 0 0-7.06-32.06c-1.69-.74-3.17 1.77-1.46 2.51a18 18 0 0 1 10.27 11.79 17.75 17.75 0 0 1-3.77 15.84l2.39 1.39c0-.11.29-.09.56 0a.92.92 0 0 1 .71.89c.23 1.53-.91 3.23-1.58 4.54a22.66 22.66 0 0 1-4.81 6.87 7.15 7.15 0 0 1-6.43 1.85c-1.93-.45-3.9-1.71-4-3.88l-2.75.38a4.77 4.77 0 0 1-3.91 5.32 4.85 4.85 0 0 1-5.12-4.28l-2.68.74c.45 2.41-2 5-4.47 4.48a4.1 4.1 0 0 1-2.66-5.45l-2.66-.73-2.67 13.9c-.42 2.19-.79 4.39-1.27 6.57-.28 1.28-.65 3.09-1.86 3.83-1.58 1-3.53-.8-4.42-2a11.4 11.4 0 0 1-1.84-4.47c-.78-3.73-.5-7.71-.35-11.48a156.28 156.28 0 0 1 3.54-27.25c1.55-7 3.72-14.73 10.51-18.4 7.18-3.89 16.2-2.5 23.86-1.16 1.09.19 1.57-1.45.47-1.68z" fill="#000000" class="fill-000000"></path><g fill="#32a16b" class="fill-18c4ff"><path d="M564.48 292.08a42.78 42.78 0 0 1 23.52-1.27 43.62 43.62 0 0 1 11 4.07 41.66 41.66 0 0 1 5 3.15c1.64 1.2 3.06 2.61 4.61 3.91a1 1 0 0 0 1.47-1.47 32.41 32.41 0 0 0-7.62-6.05 46.08 46.08 0 0 0-8.63-4.1 44.67 44.67 0 0 0-19.08-2.32 41.93 41.93 0 0 0-10.75 2.43c-1 .38-.6 2 .45 1.65zM575.53 253.19a64 64 0 0 1 40.21 10.2 60.69 60.69 0 0 1 9.43 7.56 1.13 1.13 0 0 0 1.88-.5l.46-2.93c.23-1.41-1.93-2-2.16-.6l-.47 2.94 1.88-.5a64.59 64.59 0 0 0-38.85-18 63.22 63.22 0 0 0-12.38 0c-1.12.12-1.14 1.87 0 1.77zM583 211.65c16.67-1 35 .93 47.62 13a34.65 34.65 0 0 1 7.45 10.35c.59 1.26 2.46.16 1.87-1.1a39.37 39.37 0 0 0-15.75-16.76c-7.56-4.5-16.25-6.61-25-7.31a105.69 105.69 0 0 0-16.21.07c-1.11.08-1.13 1.81 0 1.74zM595.31 170.2c8.82-2.53 17.93.36 26.11 3.72 7.79 3.19 15.84 6.91 21.54 13.3a24.48 24.48 0 0 1 6 11.85c.24 1.33 2.28.77 2-.56-1.53-8.44-7.66-15.15-14.71-19.6a82.31 82.31 0 0 0-12.25-6.09 78.23 78.23 0 0 0-13.76-4.58 31.36 31.36 0 0 0-15.43.23.9.9 0 0 0 .48 1.73zM598.74 130.21a88.37 88.37 0 0 1 52.67 10.07 90.91 90.91 0 0 1 12.9 8.54c1 .8 2.48-.61 1.45-1.46a88.22 88.22 0 0 0-51.1-19.55 86.49 86.49 0 0 0-15.92.63c-1.1.15-1.13 1.91 0 1.77zM607.89 98.59a43.94 43.94 0 0 1 27.69.54c1.27.45 1.82-1.58.56-2a45.75 45.75 0 0 0-28.73-.29c-1.12.36-.65 2.11.48 1.76zM600.2 86.31a10.32 10.32 0 0 1 8.65-3.84c1.2.08 1.2-1.8 0-1.87a12 12 0 0 0-10 4.4 1 1 0 0 0 0 1.31.94.94 0 0 0 1.31 0z"></path></g></svg>