<svg viewBox="0 0 1000 1000" xmlns="http://www.w3.org/2000/svg"><g fill="#32a16b" class="fill-18c4ff"><path d="M812.29 220.85a138.09 138.09 0 0 0-83-4.43c-16 4.16-32.1 12-40.4 26.3-8.86 15.23-4.72 38.76 12.83 44.29a10.92 10.92 0 0 0 8.43-.6c7.89-4.23 3.21-15.32-4.14-17.18-6.5-1.64-13.24 1.79-18.36 6.11-11.06 9.34-17.93 24.35-15.1 38.55s16.78 26.08 31.14 24.24c4.11-.53 8.34-2.27 10.36-6a7.68 7.68 0 0 0 .78-5c-.71-4-3.68-5.13-6.58-5.53a20.28 20.28 0 0 0-13.79 3.11c-10.55 6.9-13.4 19.69-11.15 31s10.08 22.05 21.11 25.77a26.19 26.19 0 0 0 19.86-1.48c8.93-4.52 2.32-18.44-6.78-14.27a12 12 0 0 0-4.89 4c-4.94 7.06-2.06 17.8 5 22.69s17 4.39 24.52.17a101.62 101.62 0 0 1-31.65 39.8 76.68 76.68 0 0 0 48.3-39c6.81 10.81 21.52 14.88 33.88 11.62s22.4-12.58 29.32-23.32c3.65-5.65 6.69-12.75 2.14-18.9-3-4.05-8.09-4.33-11-.21-3.72 5.26 3.16 11.82 9.4 13.46 19.85 5.22 42.69-6.83 49.59-26.16 4.68-13.12 0-31.41-14.84-33.18a5.21 5.21 0 0 0-5.68 3.69c-.66 2.55 1.08 4.19 2.91 5.26 9.24 5.39 21.43-.15 28.23-8.39a42.37 42.37 0 0 0-19.57-67.24 12.06 12.06 0 0 0-6.41-.36c-9.88 2.34-6.17 14.91 1.3 16.88 6.3 1.67 12.9-2.2 17-7.29 13.12-16.36 3.14-45.66-18.3-49a11.72 11.72 0 0 0-7.44 1.13c-9.69 5.27-.69 18.33 7.85 16.35 7.53-1.75 11.27-11.16 9.18-18.6S858 196 851.4 192a74.56 74.56 0 0 0-51.16-9.75c-17.51 3-35.67 15.76-35.81 33.52-.09 12.34 9.87 24 22.07 25.79s25.12-6.41 28.62-18.25"></path><path d="M812.52 220a139.71 139.71 0 0 0-68.47-7.66C724.6 215 702.83 221.6 690.49 238a36.57 36.57 0 0 0-7.43 22.68c.12 7.6 2.56 15.36 7.77 21a24.31 24.31 0 0 0 9.37 6.27c4.41 1.66 10 1.4 13.29-2.37 5.21-5.92.28-15.13-6.29-17.44-4.82-1.7-10.25-.25-14.59 2.09a40.69 40.69 0 0 0-11.7 9.92c-6.31 7.62-10.45 17.28-10.45 27.26a32.94 32.94 0 0 0 11.33 24.9c6.85 5.95 16.62 9.35 25.57 6.61 4.62-1.41 8.9-4.92 9.12-10.07a8.29 8.29 0 0 0-2.57-6.52 9.91 9.91 0 0 0-5.23-2.17c-10.26-1.48-19.89 4.76-24.35 13.82-8.14 16.54-.49 39.5 16.16 47.58a27.23 27.23 0 0 0 15.31 2.55 28.79 28.79 0 0 0 7.92-2.19 10.83 10.83 0 0 0 4.76-3.55c3.92-5.5 0-14.07-6.62-14.9-4.37-.55-8.7 2.42-10.94 6a16.79 16.79 0 0 0-1.92 12.11 19.43 19.43 0 0 0 6.5 11.06 21.89 21.89 0 0 0 13.5 4.75 27.79 27.79 0 0 0 14-3.54l-2.12-2.11A100.74 100.74 0 0 1 709.75 431c-1.28 1-.61 3.23 1.16 2.76a78.23 78.23 0 0 0 41.45-27.64A75.14 75.14 0 0 0 760 394h-2.45c7.14 11.11 21.61 15.29 34.12 12.57 13.93-3 25.54-14 32.57-26 3.58-6.12 5.7-14.58-.21-20.11a8 8 0 0 0-8.2-1.89 8 8 0 0 0-5.18 7c-.06 3 1.84 5.69 4 7.6a19.22 19.22 0 0 0 8.51 4.38 41.37 41.37 0 0 0 18.75-.12c12.22-2.85 23.43-10.95 29.34-22.1 5.17-9.77 6-23-.67-32.29-3.14-4.4-8.13-7.69-13.64-8a6.67 6.67 0 0 0-6.89 5.42c-.57 3.61 2.5 5.95 5.46 7.23 6.2 2.69 13.2 1.34 19-1.8a35.9 35.9 0 0 0 14.27-15.1 44.23 44.23 0 0 0 0-41.25 45.25 45.25 0 0 0-13.29-15.1 42.55 42.55 0 0 0-8.93-4.94c-3.51-1.44-7.29-2.4-11-1.18-4.89 1.6-7.16 6.34-5.79 11.22a11.8 11.8 0 0 0 11 8.77c7 .23 13.37-4.78 17-10.4a29.85 29.85 0 0 0 4.64-15c.47-10.51-4-21.61-12.23-28.31-4.25-3.45-9.79-6.1-15.36-6.17-6-.08-12.16 4.25-11.08 10.79a12.64 12.64 0 0 0 9.89 9.91c5.92 1 11.09-3.39 13.29-8.57a19.33 19.33 0 0 0-2-18.22c-4-6.16-10.29-10.52-16.68-13.89a76.26 76.26 0 0 0-45.71-8.11c-12.93 1.76-26 7.87-33.87 18.59a28.73 28.73 0 0 0-5.75 17.51 27.67 27.67 0 0 0 7.32 17.72 26.14 26.14 0 0 0 35.06 4.11 27.62 27.62 0 0 0 10.9-14.69c.43-1.41-1.77-2-2.2-.61-3.36 11-15.43 18.67-26.83 17.21s-20.8-12-21.24-23.39c-.44-11.57 7.63-21 17.09-26.65 11.13-6.61 24.39-8.4 37.13-7.11a73.65 73.65 0 0 1 20.19 5 58 58 0 0 1 17.19 10.29c4.35 4 8 9.28 7.85 15.38-.13 4.82-2.64 10.28-7.44 12-4.13 1.51-8.39-.95-10.39-4.63a6.54 6.54 0 0 1-.57-5.5c1-2.45 3.85-3.83 6.35-4.13 4.82-.56 10.09 1.81 13.9 4.61a29.47 29.47 0 0 1 8.6 10.43c4.08 8 5 18.19 1.17 26.49-2.33 5-6.46 9.7-11.83 11.52-2.56.87-5.67 1.15-8.14-.16a9.07 9.07 0 0 1-3.76-3.92c-1.71-3.28-1.29-7.49 2.44-9.06 3.16-1.32 6.43-.41 9.46.78a39.44 39.44 0 0 1 8 4.31 41.15 41.15 0 0 1 17.59 30.3c.91 12.45-3.9 26.35-14.08 34.06-4.53 3.44-10.42 5.95-16.2 5.14a14.25 14.25 0 0 1-3.94-1.14c-1.21-.55-2.77-1.33-3.36-2.61a3 3 0 0 1 1.09-3.44 4.66 4.66 0 0 1 3.85-.62c9.89 1.83 14.29 12.06 14.29 21.22 0 10.78-6 20.61-14.37 27.14-8.65 6.79-20.15 10.37-31.12 8.8a20.85 20.85 0 0 1-8.14-2.63c-2.21-1.37-4.61-3.49-5.18-6.14a5 5 0 0 1 3.59-5.53c2.92-.84 5.39 1.37 6.69 3.76 3.28 6.06-.93 13-4.36 18a58.22 58.22 0 0 1-13.11 13.83 40.24 40.24 0 0 1-16.81 7.53 32.58 32.58 0 0 1-16.88-1.6 25.53 25.53 0 0 1-12.69-10 1.43 1.43 0 0 0-2.45 0A75.76 75.76 0 0 1 723 426.12a72.28 72.28 0 0 1-12.93 4.74l1.16 2.76a103.45 103.45 0 0 0 32.22-40.33 1.56 1.56 0 0 0-2.11-2.11c-7.39 4.09-17.9 4.73-24.46-1.37-5.23-4.86-7.57-14.41-2.34-20.16 2.1-2.31 5.66-4.2 8.71-2.61a7.13 7.13 0 0 1 3.68 5.89c.15 3.35-2.14 5.23-5 6.42a24.81 24.81 0 0 1-14.24 1.46c-16.67-3.38-26.2-22.86-23-38.67 1.64-8.06 7-15.76 15.12-18.32a19 19 0 0 1 7.34-.81 8.06 8.06 0 0 1 4.67 1.54 5.71 5.71 0 0 1 1.24 6 8.51 8.51 0 0 1-4.21 4.49c-7.19 3.84-16.49 1.28-22.77-3.13a30 30 0 0 1-12.49-20.48c-1.1-8.81 1.54-17.73 6.3-25.12a44.93 44.93 0 0 1 8.89-10.07c3.58-3 8-5.64 12.8-6a10.2 10.2 0 0 1 9.22 3.94c1.69 2.27 2.76 5.56 1.42 8.25-1.95 3.92-7.08 4.3-10.77 3a21.34 21.34 0 0 1-8.26-5.24c-9.68-9.85-9.53-26.76-2.51-38 9.61-15.38 28.06-22.54 45-26.17a136.62 136.62 0 0 1 76.29 5.61c1.07.4 1.52-1.29.47-1.69z"></path><path d="M697.45 500.48c-5.56-2.93-11.16-6.36-14.48-11.7s-3.59-13 1-17.37c4-3.77 10-3.9 15.5-3.76 13.35.35 26.78 1 39.92 3.2V349.79a50.28 50.28 0 0 0-50.28-50.28H304.2a50.28 50.28 0 0 0-50.28 50.28v124.68c17.68-6.59 36-12 54.66-10.19 6.59.64 14.06 3 16.48 9.13 3.08 7.84-3.92 15.76-10.44 21.09a356.85 356.85 0 0 1-53.82 36.33c11.1-.05 20.74 7.9 27.19 16.93a61.81 61.81 0 0 1 4.83 8 50.2 50.2 0 0 0 11.38 1.31h384.88a50.28 50.28 0 0 0 49.48-41.38 170 170 0 0 1-41.11-15.21z"></path><path d="M698.48 498.73c-6-3.2-13.05-7.26-15.24-14.19-2.1-6.62.74-12.86 7.73-14.37 3.37-.73 6.91-.53 10.34-.44 4 .12 8.08.26 12.12.47a227.51 227.51 0 0 1 25.39 2.61 2.06 2.06 0 0 0 2.57-2V356.13c0-2.57.05-5.14 0-7.7a52.72 52.72 0 0 0-11.91-31.88c-10.17-12.44-25.46-19.07-41.39-19.07H308.83c-8.38 0-16.55.65-24.44 3.9a52.91 52.91 0 0 0-32.5 48.68v124.41a2 2 0 0 0 2.57 1.95c10.36-3.84 20.92-7.32 31.84-9.17a87.6 87.6 0 0 1 16.88-1.25c4.52.11 9.22.46 13.44 2.21 4 1.65 7.32 4.9 7.15 9.49-.18 5-3.94 9.26-7.33 12.52-7.7 7.38-16.86 13.62-25.62 19.68a360.92 360.92 0 0 1-31.05 19.2 2 2 0 0 0 1 3.78c8.68.1 16.11 5.14 21.77 11.38a55.24 55.24 0 0 1 7.7 11c1.3 2.41 2.26 2.58 5 3.05a55.22 55.22 0 0 0 7.14.75c1.71.06 3.42 0 5.12 0h379.19a70.36 70.36 0 0 0 10.15-.59 52.28 52.28 0 0 0 43.68-42.28 2.08 2.08 0 0 0-1.42-2.5 170.59 170.59 0 0 1-40.62-15c-2.32-1.21-4.37 2.29-2.05 3.51A175.78 175.78 0 0 0 738 517.67l-1.42-2.5a48.86 48.86 0 0 1-48.08 39.89H304.49a51.45 51.45 0 0 1-11.13-1.24l1.21.94c-6.57-12.82-18.31-25.78-33.77-26l1 3.78a356 356 0 0 0 31.05-19.2q7.33-5.06 14.4-10.49c4.61-3.54 9.45-7 13.46-11.25 3.3-3.46 6.34-7.69 7-12.55a13 13 0 0 0-4.58-11.68c-7.76-6.53-20.37-6-29.79-5.15-13.78 1.28-27 5.46-39.95 10.25l2.57 2V350.2a48.25 48.25 0 0 1 49-48.66h377.37c5.19 0 10.41-.17 15.54.79a48.77 48.77 0 0 1 39.46 47.49v121.03l2.57-2a222.61 222.61 0 0 0-22.75-2.54 208.28 208.28 0 0 0-22.06-.73c-5.67.24-11.69 1.84-14.73 7.08-2.76 4.75-2.28 10.8 0 15.61 3.16 6.55 9.83 10.63 16 13.92 2.37 1.27 4.43-2.19 2.12-3.46z"></path></g><path d="M689.08 555.06H319.83c-5 0-10-.1-15 0h-.66c-2.61 0-2.61 4.06 0 4.06h369.29c5 0 10 .1 15 0h.65c2.62 0 2.62-4.06 0-4.06zM256 463.92V353.85a70.17 70.17 0 0 1 .68-12.2 48.74 48.74 0 0 1 16.24-28.56c9.46-8.14 21.22-11.55 33.51-11.55h375.69a101.49 101.49 0 0 1 13.4.41 48.7 48.7 0 0 1 41.78 46.14c.27 8.1 0 16.25 0 24.35v93.88c0 2.62 4.06 2.62 4.06 0V354.67a97.69 97.69 0 0 0-.28-10.27 52.68 52.68 0 0 0-13.72-30.23c-10.23-11-24.54-16.69-39.46-16.69H311.53a122.62 122.62 0 0 0-12.72.28c-22.73 2.43-42 19.89-46 42.49-1.66 9.2-.88 19.09-.88 28.38v95.29c0 2.62 4.06 2.62 4.06 0zM25 880.05c30.57-96 63.75-190.52 121.81-272.84 3-4.24 6.22-8.6 10.87-10.91 5.08-2.52 11-2.21 16.69-1.72 37.62 3.25 76.77 13 103.74 39.47 5.82 5.71 11.1 12.36 13.22 20.23 2.29 8.56.64 17.62-1 26.32-12.43 64.92-26 134.53-38.47 199.45" fill="#000000" class="fill-000000"></path><path d="M25.73 880.25c7-21.74 14.13-43.44 21.68-65s15.39-42.77 24-63.82 17.69-41.61 27.82-61.83a664.31 664.31 0 0 1 33.35-59.14q4.59-7.2 9.39-14.27c3.09-4.55 6.08-9.33 9.69-13.5a19.54 19.54 0 0 1 13.91-7.22c5.18-.37 10.47.35 15.62.91 20.36 2.21 40.81 6.41 59.67 14.58a127 127 0 0 1 26.05 15c8.15 6.14 16.42 13.59 21.06 22.83 5.51 11 2.79 23.18.59 34.65q-3.39 17.73-6.81 35.45-6.94 36-13.92 72T254 862.66c-1.1 5.69-2.16 11.39-3.25 17.08-.28 1.46 2 2.09 2.25.62q7-36.36 14-72.69 7.11-36.72 14.2-73.44 3.49-18.12 7-36.24 1.72-8.94 3.43-17.86c1.12-5.93 2.21-12 2-18a34.71 34.71 0 0 0-4.27-15.75 56 56 0 0 0-9.74-12.47 113.86 113.86 0 0 0-24.27-18.31c-17.94-10.2-38.1-16-58.37-19.34-5.09-.84-10.2-1.52-15.32-2.08-5.29-.58-10.74-1.34-16.07-1a21.21 21.21 0 0 0-13.8 6c-3.79 3.82-6.74 8.53-9.79 12.92a619.78 619.78 0 0 0-35.77 59.08c-10.84 20.32-20.65 41.18-29.69 62.36s-17.26 42.53-25 64.13c-7.84 21.87-15.1 44-22.18 66.07q-2.58 8.06-5.11 16.11c-.3.93 1.17 1.33 1.46.4zM975 880.05c-30.57-96-63.75-190.52-121.81-272.84-3-4.24-6.22-8.6-10.87-10.91-5.08-2.52-11.05-2.21-16.69-1.72-37.62 3.25-76.77 13-103.74 39.47-5.82 5.71-11.1 12.36-13.22 20.23-2.29 8.56-.64 17.62 1 26.32 12.43 64.92 26 134.53 38.47 199.45" fill="#000000" class="fill-000000"></path><path d="M975.73 879.85c-7-22.18-14.14-44.32-21.72-66.31-7.52-21.79-15.53-43.43-24.23-64.78s-18-42.24-28.36-62.76a649.23 649.23 0 0 0-34.12-59.89q-4.71-7.29-9.62-14.44c-3-4.36-5.92-9.06-9.78-12.74a21.29 21.29 0 0 0-13.9-5.77c-5.33-.3-10.76.45-16 1-20.59 2.31-41 6.59-60 14.84a126.46 126.46 0 0 0-26.41 15.24c-8.11 6.15-16.27 13.47-21.13 22.56a35.1 35.1 0 0 0-4.06 16.13c-.08 6 1 11.91 2.14 17.76q3.43 18 6.9 35.92 7.07 36.63 14.16 73.27T743.69 863c1.11 5.78 2.25 11.55 3.35 17.33.29 1.47 2.53.85 2.25-.62q-6.84-35.68-13.72-71.35l-14-72.37q-3.45-17.88-6.89-35.75l-3.33-17.37c-1.14-5.92-2.4-11.86-2.59-17.9a33.37 33.37 0 0 1 3.49-16.64 52.8 52.8 0 0 1 9.64-12.65A111.11 111.11 0 0 1 746 617.47c17.72-10.05 37.61-15.73 57.61-19 5.19-.86 10.39-1.55 15.62-2.11s10.46-1.28 15.65-.83c5.69.5 10.08 3.23 13.72 7.54a159.77 159.77 0 0 1 9.68 13.57A628 628 0 0 1 893.24 675c10.57 20 20.19 40.46 29.07 61.26s17.05 42 24.73 63.4 15 43.08 22.1 64.78q2.58 7.91 5.13 15.83c.29.93 1.76.54 1.46-.4zM174.2 591.28a358.83 358.83 0 0 1 18.37-63c3.75-9.46 7.85-19.05 14.82-26.64 6.31-6.87 14.39-11.74 22.76-15.68 9-4.26 18.49-7.79 27.89-11.16 10.22-3.67 20.73-6.88 31.52-8.32a85.4 85.4 0 0 1 16.22-.64c4.08.24 8.33.77 12 2.62 3.41 1.7 6.17 4.65 6.26 8.65.11 4.54-2.88 8.61-5.85 11.76a98.23 98.23 0 0 1-11.48 9.77q-6.37 5-13 9.62-13.1 9.25-27 17.3c-2.26 1.31-4.54 2.6-6.83 3.85a1.69 1.69 0 0 0 .85 3.12c13.25.07 23.6 11.39 29.52 22.19s8.91 24.13 7 36.54c-1 6.81-3.41 13.82-7.56 19.4-.86 1.16 1.08 2.28 1.94 1.13a45.36 45.36 0 0 0 5.24-8.48 48.41 48.41 0 0 0 3.06-9.22 55.8 55.8 0 0 0 .49-20c-1.95-13.39-8.6-26.81-18.71-35.91-5.81-5.23-13-9-21-9l.84 3.12q14.64-8.09 28.52-17.44A310.28 310.28 0 0 0 316.76 495c6.62-5.63 14.6-15.39 8.83-24.31-5-7.77-16.16-8.48-24.46-8.46-11.22 0-22.33 2.34-33 5.61-10.48 3.2-20.75 7.19-30.87 11.38-9 3.73-17.87 8-25.53 14.12-8.1 6.46-13.59 14.92-17.71 24.34a290.94 290.94 0 0 0-11.46 31.84q-4.95 16.29-8.29 33c-.56 2.78-1.05 5.58-1.52 8.38-.16 1 1.28 1.38 1.47.41z" fill="#000000" class="fill-000000"></path><path d="M736.58 531.78a40 40 0 0 1-37.18 25.31H293.46a63.58 63.58 0 0 1 4.85 14.48H699.4a40 40 0 0 0 35.8-22.2 69.59 69.59 0 0 1 1.38-17.59z" fill="#000000" class="fill-000000"></path><path d="M734.62 531.24a38.28 38.28 0 0 1-34.56 23.81h-406.6a2.05 2.05 0 0 0-1.75 3.05 64.44 64.44 0 0 1 4.64 14 2 2 0 0 0 2 1.49h401A42.39 42.39 0 0 0 732.8 557a39.93 39.93 0 0 0 3-4.41 15.69 15.69 0 0 0 1.19-2.21 8 8 0 0 0 .21-3.13 69.33 69.33 0 0 1 1.38-14.94c.52-2.56-3.4-3.65-3.92-1.08a75.27 75.27 0 0 0-1.57 14.77 13.57 13.57 0 0 1 .07 2.91 9.63 9.63 0 0 1-1.22 2.19 37.8 37.8 0 0 1-3.5 4.92 38.24 38.24 0 0 1-18.59 12.06 44.08 44.08 0 0 1-12.3 1.46H316.67c-5.82 0-11.81-.41-17.62 0h-.74l2 1.49a69 69 0 0 0-5.06-15l-1.75 3.06c4.12.11 8.25 0 12.37 0H699a42 42 0 0 0 39.5-26.8c1.02-2.4-2.91-3.45-3.88-1.05z" fill="#000000" class="fill-000000"></path><path d="M300.42 643.06a390 390 0 0 0 61.28-56q3.82-4.35 7.54-8.8 1.86-2.22 3.68-4.47a20.92 20.92 0 0 0 3.49-5 1.39 1.39 0 0 0-2-1.55 18.73 18.73 0 0 0-3.54 3.84 468.46 468.46 0 0 1-3.38 4.15q-3.27 4-6.63 7.83-6.7 7.76-13.77 15.2-14.26 15-29.87 28.73c-5.8 5.08-11.69 10.07-17.73 14.87-.69.55.23 1.76.95 1.23zM822.82 577.4c-1.94-18.4-4.06-37.17-10.84-54.52a82.79 82.79 0 0 0-13.57-23.36 77.59 77.59 0 0 0-21.69-17.58c-18.18-10.08-39-13.62-59.49-14.94-5.6-.36-11.22-.56-16.83-.72-4.42-.12-9.08-.24-13.25 1.47a12.6 12.6 0 0 0-7.66 8.85 17.56 17.56 0 0 0 1.74 12c2.12 4 5.68 7.1 9.4 9.57a102.37 102.37 0 0 0 13.3 7.14 172.59 172.59 0 0 0 29.9 10.77c2.52.65 5.06 1.24 7.6 1.8l-.88-2.15c-8.78 17.65-9.23 39.06-1.86 57.28a66.74 66.74 0 0 0 8.1 14.56c1.19 1.62 4 .05 2.74-1.61a68.53 68.53 0 0 1-11.46-53.71 66.46 66.46 0 0 1 5-15 1.49 1.49 0 0 0-.88-2.15 162.79 162.79 0 0 1-29-8.78 165.3 165.3 0 0 1-14.06-6.47c-4-2.06-8-4.25-11.26-7.3A17.5 17.5 0 0 1 682 482c-.48-3.76.52-7.81 3.63-10.2 3.42-2.64 8.12-2.8 12.25-2.76 5.16.05 10.33.27 15.48.54 19.83 1 40 3.75 58 12.6a80.8 80.8 0 0 1 21.87 15.33 75.78 75.78 0 0 1 14.82 21.68c7.5 16.16 10.28 34.11 12.44 51.64.27 2.2.53 4.39.79 6.59.11.93 1.58 1 1.48 0zM711.23 634.56a113.07 113.07 0 0 1-46.8-46.08q-2.19-4-4-8.24c-1.26-2.88-2.09-6.07-3.59-8.83-.8-1.45-2.72-.38-2.5 1.05.45 2.82 1.89 5.65 3 8.26s2.33 5.09 3.64 7.57a107.53 107.53 0 0 0 9 14.19 112.51 112.51 0 0 0 24.08 23.65 102 102 0 0 0 16.45 9.67c.83.39 1.56-.81.73-1.24z" fill="#000000" class="fill-000000"></path><g fill="#ffffff" class="fill-ffffff"><rect height="16.91" rx="4.66" width="16.91" x="312.9" y="437.36"></rect><path d="M325.15 452.25h-7a3.77 3.77 0 0 1-1.64-.2c.25.1-.16-.08-.22-.11s-.31-.18-.46-.29c.09.06.18.16-.09-.1-.1-.1-.21-.2-.3-.31.18.21-.1-.15-.13-.2a4.45 4.45 0 0 1-.26-.48c.11.26-.17-.77-.13-.48a11 11 0 0 1 0-1.52V442a1.85 1.85 0 0 1 0-.24c0-.57-.08.19.06-.35a2.62 2.62 0 0 1 1.86-1.94 6.82 6.82 0 0 1 1.54-.1h2.71c1.45 0 3-.12 4.4 0 .39 0-.39-.12.24 0a3.06 3.06 0 0 1 .43.13l.12.05a3.58 3.58 0 0 1 .46.29 3.12 3.12 0 0 1 .48.47c-.05-.07-.16-.26.08.11a3.46 3.46 0 0 1 .31.57c-.08-.19.15.61.14.52s0 .43 0 .44v6.63a5.13 5.13 0 0 1-.19 2c0-.09.14-.27-.06.11a4 4 0 0 1-.35.56c.15-.19-.55.5-.34.34-.11.09-.24.16-.36.24s-.58.27-.31.16a2.23 2.23 0 0 1-1 .2c-2.6.06-2.61 4.12 0 4.06a6.8 6.8 0 0 0 6.69-6.73v-5.54c0-2.41 0-4.69-1.81-6.59a6.82 6.82 0 0 0-4.88-2.12H317.66a6.77 6.77 0 0 0-6.78 6.22c-.14 1.69 0 3.42 0 5.1 0 2.15-.23 4.4.91 6.34a6.76 6.76 0 0 0 5.2 3.28 22.07 22.07 0 0 0 2.3 0h5.87c2.61.1 2.61-3.96-.01-3.96z"></path><rect height="16.91" rx="4.66" width="16.91" x="342.11" y="437.36"></rect><path d="M354.37 452.25h-7a3.81 3.81 0 0 1-1.64-.2c.25.1-.16-.08-.21-.11a3.58 3.58 0 0 1-.46-.29c.08.06.17.16-.09-.1-.1-.1-.21-.2-.3-.31.17.21-.1-.15-.13-.2a3.2 3.2 0 0 1-.26-.48c.11.26-.18-.77-.14-.48a11 11 0 0 1 0-1.52v-6.8c0-.57-.08.19.06-.35a2.6 2.6 0 0 1 1.86-1.94 6.72 6.72 0 0 1 1.53-.1h2.72c1.45 0 2.95-.12 4.4 0 .38 0-.4-.12.24 0a3.52 3.52 0 0 1 .43.13c-.23-.09.09 0 .11.05a4.57 4.57 0 0 1 .47.29 4.47 4.47 0 0 1 .48.47c-.06-.07-.17-.26.07.11a2.88 2.88 0 0 1 .32.57c-.08-.19.15.61.14.52s0 .43 0 .44v6.63a4.93 4.93 0 0 1-.2 2c0-.09.14-.27-.06.11a3.22 3.22 0 0 1-.34.56c.15-.19-.55.5-.34.34a3.37 3.37 0 0 1-.37.24s-.58.27-.3.16a2.25 2.25 0 0 1-1 .2c-2.61.06-2.62 4.12 0 4.06a6.81 6.81 0 0 0 6.69-6.73v-5.54c0-2.41-.05-4.69-1.81-6.59a6.83 6.83 0 0 0-4.88-2.12h-7.49a6.78 6.78 0 0 0-6.78 6.22c-.13 1.69 0 3.42 0 5.1 0 2.15-.22 4.4.91 6.34a6.77 6.77 0 0 0 5.2 3.28 22.07 22.07 0 0 0 2.3 0h5.88c2.62.1 2.62-3.96-.01-3.96z"></path><rect height="16.91" rx="4.66" width="16.91" x="371.33" y="437.36"></rect><path d="M383.58 452.25h-7a3.77 3.77 0 0 1-1.64-.2c.25.1-.16-.08-.22-.11s-.31-.18-.46-.29c.09.06.18.16-.09-.1-.1-.1-.21-.2-.3-.31.17.21-.1-.15-.13-.2a4.45 4.45 0 0 1-.26-.48c.11.26-.17-.77-.13-.48a11 11 0 0 1 0-1.52V442.18a.85.85 0 0 1 0-.16 1.85 1.85 0 0 1 0-.24c0-.57-.08.19.06-.35a2.62 2.62 0 0 1 1.86-1.94 6.82 6.82 0 0 1 1.54-.1h2.71c1.45 0 3-.12 4.4 0 .39 0-.39-.12.24 0a3.06 3.06 0 0 1 .43.13l.12.05a3.58 3.58 0 0 1 .46.29 3.12 3.12 0 0 1 .48.47c-.05-.07-.16-.26.08.11a3.46 3.46 0 0 1 .31.57c-.08-.19.15.61.14.52s0 .43 0 .44v6.63a5.13 5.13 0 0 1-.19 2c0-.09.14-.27-.06.11a4 4 0 0 1-.35.56c.15-.19-.55.5-.34.34-.11.09-.24.16-.36.24s-.58.27-.31.16a2.23 2.23 0 0 1-1 .2c-2.6.06-2.61 4.12 0 4.06a6.8 6.8 0 0 0 6.69-6.73V444c0-2.41 0-4.69-1.81-6.59a6.82 6.82 0 0 0-4.88-2.12H376.09a6.77 6.77 0 0 0-6.78 6.22c-.14 1.69 0 3.42 0 5.1 0 2.15-.22 4.4.92 6.34a6.74 6.74 0 0 0 5.2 3.28 22.07 22.07 0 0 0 2.3 0h5.87c2.6.08 2.6-3.98-.02-3.98z"></path><rect height="16.91" rx="4.66" width="16.91" x="400.54" y="437.36"></rect><path d="M412.8 452.25h-7a3.79 3.79 0 0 1-1.64-.2c.25.1-.16-.08-.21-.11a3.58 3.58 0 0 1-.46-.29c.08.06.17.16-.09-.1-.1-.1-.21-.2-.3-.31.17.21-.1-.15-.13-.2a3.2 3.2 0 0 1-.26-.48c.1.26-.18-.77-.14-.48a11 11 0 0 1 0-1.52v-6.8c0-.57-.08.19.06-.35a2.6 2.6 0 0 1 1.86-1.94 6.72 6.72 0 0 1 1.53-.1h2.72c1.45 0 2.95-.12 4.4 0 .38 0-.4-.12.24 0a3.52 3.52 0 0 1 .43.13c-.23-.09.09 0 .11.05a4.57 4.57 0 0 1 .47.29 4.47 4.47 0 0 1 .48.47c-.06-.07-.17-.26.07.11a2.88 2.88 0 0 1 .32.57c-.08-.19.15.61.14.52s0 .43 0 .44V448.58a4.94 4.94 0 0 1-.19 2c0-.09.14-.27-.06.11a3.22 3.22 0 0 1-.34.56c.15-.19-.55.5-.34.34a3.37 3.37 0 0 1-.37.24s-.58.27-.3.16a2.25 2.25 0 0 1-1 .2c-2.61.06-2.62 4.12 0 4.06a6.81 6.81 0 0 0 6.69-6.73v-5.54c0-2.41-.05-4.69-1.81-6.59a6.83 6.83 0 0 0-4.88-2.12h-7.49a6.78 6.78 0 0 0-6.78 6.22c-.13 1.69 0 3.42 0 5.1 0 2.15-.22 4.4.91 6.34a6.77 6.77 0 0 0 5.2 3.28 22.07 22.07 0 0 0 2.3 0h5.88c2.59.1 2.6-3.96-.02-3.96z"></path><rect height="16.91" rx="4.66" width="16.91" x="429.76" y="437.36"></rect><path d="M442 452.25h-7a3.77 3.77 0 0 1-1.64-.2c.25.1-.16-.08-.22-.11a4.43 4.43 0 0 1-.46-.29c.09.06.18.16-.09-.1-.1-.1-.21-.2-.3-.31.17.21-.1-.15-.13-.2a4.45 4.45 0 0 1-.26-.48c.11.26-.17-.77-.13-.48a11 11 0 0 1 0-1.52V442.18a.85.85 0 0 1 0-.16 1.85 1.85 0 0 1 0-.24c0-.57-.08.19.06-.35a2.62 2.62 0 0 1 1.86-1.94 6.82 6.82 0 0 1 1.54-.1H438c1.45 0 3-.12 4.4 0 .38 0-.39-.12.24 0a3.06 3.06 0 0 1 .43.13l.12.05a3.58 3.58 0 0 1 .46.29 3.12 3.12 0 0 1 .48.47c0-.07-.16-.26.08.11a3.46 3.46 0 0 1 .31.57c-.08-.19.15.61.14.52s0 .43 0 .44v6.63a5.13 5.13 0 0 1-.19 2c0-.09.14-.27-.06.11a4 4 0 0 1-.35.56c.15-.19-.55.5-.34.34-.11.09-.24.16-.36.24s-.58.27-.31.16a2.23 2.23 0 0 1-1 .2c-2.6.06-2.61 4.12 0 4.06a6.8 6.8 0 0 0 6.69-6.73V444c0-2.41 0-4.69-1.81-6.59a6.82 6.82 0 0 0-4.88-2.12H434.57a6.77 6.77 0 0 0-6.78 6.22c-.14 1.69 0 3.42 0 5.1 0 2.15-.22 4.4.92 6.34a6.74 6.74 0 0 0 5.2 3.28 22.07 22.07 0 0 0 2.3 0H442c2.63.08 2.63-3.98 0-3.98z"></path><rect height="16.91" rx="4.66" width="16.91" x="458.97" y="437.36"></rect><path d="M471.23 452.25h-7a3.77 3.77 0 0 1-1.64-.2c.25.1-.16-.08-.21-.11a3.58 3.58 0 0 1-.46-.29c.08.06.17.16-.09-.1a2.91 2.91 0 0 1-.3-.31c.17.21-.1-.15-.13-.2a3.2 3.2 0 0 1-.26-.48c.1.26-.18-.77-.14-.48a11 11 0 0 1 0-1.52v-6.8c0-.57-.08.19.06-.35a2.6 2.6 0 0 1 1.86-1.94 6.72 6.72 0 0 1 1.53-.1h2.72c1.45 0 2.95-.12 4.4 0 .38 0-.4-.12.24 0a2.92 2.92 0 0 1 .42.13l.12.05a4.57 4.57 0 0 1 .47.29 4.47 4.47 0 0 1 .48.47c-.06-.07-.17-.26.07.11a2.88 2.88 0 0 1 .32.57c-.08-.19.15.61.13.52s0 .43 0 .44V448.58a4.94 4.94 0 0 1-.19 2c0-.09.14-.27-.06.11a3.22 3.22 0 0 1-.34.56c.15-.19-.55.5-.34.34a3.37 3.37 0 0 1-.37.24s-.58.27-.31.16a2.19 2.19 0 0 1-1 .2c-2.61.06-2.62 4.12 0 4.06a6.81 6.81 0 0 0 6.69-6.73v-5.54c0-2.41-.05-4.69-1.81-6.59a6.83 6.83 0 0 0-4.88-2.12h-7.47a6.78 6.78 0 0 0-6.78 6.22c-.13 1.69 0 3.42 0 5.1 0 2.15-.22 4.4.91 6.34a6.77 6.77 0 0 0 5.2 3.28 22.07 22.07 0 0 0 2.3 0h5.88c2.59.1 2.6-3.96-.02-3.96z"></path><rect height="16.91" rx="4.66" width="16.91" x="488.19" y="437.36"></rect><path d="M500.44 452.25h-7a3.77 3.77 0 0 1-1.64-.2c.25.1-.16-.08-.22-.11a3.58 3.58 0 0 1-.46-.29c.09.06.18.16-.09-.1-.1-.1-.21-.2-.3-.31.17.21-.1-.15-.13-.2a4.45 4.45 0 0 1-.26-.48c.11.26-.17-.77-.13-.48a11 11 0 0 1 0-1.52V442.18a.85.85 0 0 1 0-.16 1.85 1.85 0 0 1 0-.24c0-.57-.08.19.06-.35a2.62 2.62 0 0 1 1.86-1.94 6.82 6.82 0 0 1 1.54-.1h2.71c1.45 0 2.95-.12 4.4 0 .38 0-.39-.12.24 0a3.06 3.06 0 0 1 .43.13l.12.05a3.58 3.58 0 0 1 .46.29 3.12 3.12 0 0 1 .48.47c0-.07-.16-.26.08.11a3.46 3.46 0 0 1 .31.57c-.08-.19.15.61.14.52s0 .43 0 .44v6.63a5.13 5.13 0 0 1-.19 2c0-.09.14-.27-.06.11a4 4 0 0 1-.35.56c.15-.19-.55.5-.34.34-.11.09-.24.16-.36.24s-.58.27-.31.16a2.23 2.23 0 0 1-1 .2c-2.6.06-2.61 4.12 0 4.06a6.8 6.8 0 0 0 6.69-6.73V444c0-2.41 0-4.69-1.81-6.59a6.82 6.82 0 0 0-4.88-2.12H492.95a6.77 6.77 0 0 0-6.78 6.22c-.14 1.69 0 3.42 0 5.1 0 2.15-.22 4.4.92 6.34a6.74 6.74 0 0 0 5.2 3.28 22.07 22.07 0 0 0 2.3 0h5.87c2.6.08 2.6-3.98-.02-3.98z"></path><rect height="16.91" rx="4.66" width="16.91" x="517.4" y="437.36"></rect><path d="M529.66 452.25h-7a3.77 3.77 0 0 1-1.64-.2c.25.1-.16-.08-.21-.11a3.58 3.58 0 0 1-.46-.29c.08.06.17.16-.09-.1a2.91 2.91 0 0 1-.3-.31c.17.21-.1-.15-.13-.2a3.2 3.2 0 0 1-.26-.48c.1.26-.18-.77-.14-.48a11 11 0 0 1 0-1.52v-6.8c0-.57-.08.19.06-.35a2.6 2.6 0 0 1 1.86-1.94 6.72 6.72 0 0 1 1.53-.1h2.72c1.45 0 2.95-.12 4.4 0 .38 0-.4-.12.24 0a2.92 2.92 0 0 1 .42.13l.12.05a4.57 4.57 0 0 1 .47.29 4.47 4.47 0 0 1 .48.47c-.06-.07-.17-.26.07.11a2.88 2.88 0 0 1 .32.57c-.08-.19.15.61.13.52s0 .43 0 .44V448.58a4.94 4.94 0 0 1-.19 2c0-.09.14-.27-.06.11a3.22 3.22 0 0 1-.34.56c.15-.19-.55.5-.34.34a3.37 3.37 0 0 1-.37.24s-.58.27-.31.16a2.19 2.19 0 0 1-1 .2c-2.61.06-2.62 4.12 0 4.06a6.81 6.81 0 0 0 6.69-6.73v-5.54c0-2.41-.05-4.69-1.81-6.59a6.83 6.83 0 0 0-4.88-2.12h-7.49a6.78 6.78 0 0 0-6.78 6.22c-.13 1.69 0 3.42 0 5.1 0 2.15-.22 4.4.91 6.34a6.77 6.77 0 0 0 5.2 3.28 22.07 22.07 0 0 0 2.3 0h5.88c2.61.1 2.62-3.96 0-3.96z"></path><rect height="16.91" rx="4.66" width="16.91" x="546.61" y="437.36"></rect><path d="M558.87 452.25h-7a3.77 3.77 0 0 1-1.64-.2c.25.1-.16-.08-.22-.11a3.58 3.58 0 0 1-.46-.29c.08.06.18.16-.09-.1-.1-.1-.21-.2-.3-.31.17.21-.1-.15-.13-.2a4.45 4.45 0 0 1-.26-.48c.11.26-.17-.77-.13-.48a11 11 0 0 1 0-1.52V442.18a.85.85 0 0 1 0-.16 1.85 1.85 0 0 1 0-.24c0-.57-.08.19.06-.35a2.62 2.62 0 0 1 1.86-1.94 6.77 6.77 0 0 1 1.53-.1h2.72c1.45 0 2.95-.12 4.4 0 .38 0-.39-.12.24 0a3.06 3.06 0 0 1 .43.13l.12.05a3.58 3.58 0 0 1 .46.29 3.12 3.12 0 0 1 .48.47c-.05-.07-.16-.26.08.11a3.46 3.46 0 0 1 .31.57c-.08-.19.15.61.14.52s0 .43 0 .44v6.63a5.13 5.13 0 0 1-.19 2c0-.09.14-.27-.06.11a4 4 0 0 1-.35.56c.15-.19-.55.5-.34.34-.11.09-.24.16-.36.24s-.58.27-.31.16a2.23 2.23 0 0 1-1 .2c-2.61.06-2.61 4.12 0 4.06a6.8 6.8 0 0 0 6.69-6.73V444c0-2.41 0-4.69-1.81-6.59a6.82 6.82 0 0 0-4.88-2.12H551.38a6.77 6.77 0 0 0-6.78 6.22c-.14 1.69 0 3.42 0 5.1 0 2.15-.22 4.4.92 6.34a6.74 6.74 0 0 0 5.2 3.28 22.07 22.07 0 0 0 2.3 0h5.87c2.6.08 2.6-3.98-.02-3.98z"></path><rect height="16.91" rx="4.66" width="16.91" x="575.83" y="437.36"></rect><path d="M588.09 452.25h-7a3.77 3.77 0 0 1-1.64-.2c.25.1-.16-.08-.21-.11a3.58 3.58 0 0 1-.46-.29c.08.06.17.16-.09-.1a2.91 2.91 0 0 1-.3-.31c.17.21-.1-.15-.13-.2a3.2 3.2 0 0 1-.26-.48c.1.26-.18-.77-.14-.48a11 11 0 0 1 0-1.52v-6.8c0-.57-.08.19.06-.35a2.6 2.6 0 0 1 1.86-1.94 6.72 6.72 0 0 1 1.53-.1H584c1.45 0 3-.12 4.4 0 .38 0-.4-.12.24 0a2.92 2.92 0 0 1 .42.13l.12.05a4.57 4.57 0 0 1 .47.29 4.47 4.47 0 0 1 .48.47c-.06-.07-.17-.26.07.11a2.88 2.88 0 0 1 .32.57c-.08-.19.15.61.13.52s0 .43 0 .44V448.58a4.94 4.94 0 0 1-.19 2c0-.09.14-.27-.06.11a4 4 0 0 1-.34.56c.15-.19-.55.5-.34.34a3.37 3.37 0 0 1-.37.24s-.58.27-.31.16a2.19 2.19 0 0 1-1 .2c-2.61.06-2.62 4.12 0 4.06a6.81 6.81 0 0 0 6.69-6.73v-5.54c0-2.41 0-4.69-1.81-6.59a6.83 6.83 0 0 0-4.88-2.12h-7.49a6.78 6.78 0 0 0-6.78 6.22c-.13 1.69 0 3.42 0 5.1 0 2.15-.22 4.4.91 6.34a6.77 6.77 0 0 0 5.2 3.28 22.07 22.07 0 0 0 2.3 0h5.88c2.64.1 2.65-3.96.03-3.96z"></path><rect height="16.91" rx="4.66" width="16.91" x="605.04" y="437.36"></rect><path d="M617.3 452.25h-7a3.83 3.83 0 0 1-1.65-.2c.26.1-.15-.08-.21-.11a3.58 3.58 0 0 1-.46-.29c.08.06.18.16-.09-.1-.1-.1-.21-.2-.3-.31.17.21-.1-.15-.13-.2a4.45 4.45 0 0 1-.26-.48c.11.26-.17-.77-.13-.48a11 11 0 0 1 0-1.52V442.18a.85.85 0 0 1 0-.16 1.85 1.85 0 0 1 0-.24c0-.57-.08.19.06-.35a2.62 2.62 0 0 1 1.86-1.94 6.77 6.77 0 0 1 1.53-.1h2.72c1.45 0 3-.12 4.4 0 .38 0-.39-.12.24 0a3.06 3.06 0 0 1 .43.13l.12.05a3.58 3.58 0 0 1 .46.29 3.12 3.12 0 0 1 .48.47c0-.07-.16-.26.08.11a3.46 3.46 0 0 1 .31.57c-.08-.19.15.61.14.52s0 .43 0 .44v6.63a5.13 5.13 0 0 1-.19 2c0-.09.14-.27-.06.11a4 4 0 0 1-.35.56c.15-.19-.55.5-.34.34-.11.09-.24.16-.36.24s-.58.27-.31.16a2.23 2.23 0 0 1-1 .2c-2.61.06-2.62 4.12 0 4.06a6.8 6.8 0 0 0 6.69-6.73V444c0-2.41 0-4.69-1.81-6.59a6.82 6.82 0 0 0-4.88-2.12H609.81a6.77 6.77 0 0 0-6.78 6.22c-.14 1.69 0 3.42 0 5.1 0 2.15-.22 4.4.92 6.34a6.74 6.74 0 0 0 5.2 3.28 22.07 22.07 0 0 0 2.3 0h5.87c2.6.08 2.6-3.98-.02-3.98z"></path><rect height="16.91" rx="4.66" width="16.91" x="634.26" y="437.36"></rect><path d="M646.52 452.25h-7a3.77 3.77 0 0 1-1.64-.2c.25.1-.16-.08-.21-.11a3.58 3.58 0 0 1-.46-.29c.08.06.17.16-.09-.1a2.91 2.91 0 0 1-.3-.31c.17.21-.1-.15-.13-.2a3.2 3.2 0 0 1-.26-.48c.1.26-.18-.77-.14-.48a11 11 0 0 1 0-1.52v-6.8c0-.57-.08.19.06-.35a2.6 2.6 0 0 1 1.86-1.94 6.72 6.72 0 0 1 1.53-.1h2.72c1.45 0 2.95-.12 4.4 0 .38 0-.4-.12.24 0a2.92 2.92 0 0 1 .42.13l.12.05a4.57 4.57 0 0 1 .47.29 4.47 4.47 0 0 1 .48.47c-.06-.07-.17-.26.07.11a2.88 2.88 0 0 1 .32.57c-.08-.19.15.61.13.52s0 .43 0 .44V448.58a4.94 4.94 0 0 1-.19 2c0-.09.14-.27-.06.11a4 4 0 0 1-.34.56c.15-.19-.55.5-.34.34a3.37 3.37 0 0 1-.37.24s-.58.27-.31.16a2.19 2.19 0 0 1-1 .2c-2.61.06-2.62 4.12 0 4.06a6.79 6.79 0 0 0 6.68-6.73v-5.54c0-2.41 0-4.69-1.8-6.59a6.83 6.83 0 0 0-4.88-2.12h-7.49a6.78 6.78 0 0 0-6.78 6.22c-.13 1.69 0 3.42 0 5.1 0 2.15-.22 4.4.91 6.34a6.77 6.77 0 0 0 5.2 3.28 22.07 22.07 0 0 0 2.3 0h5.88c2.61.1 2.62-3.96 0-3.96z"></path><rect height="16.91" rx="4.66" width="16.91" x="663.47" y="437.36"></rect><path d="M675.73 452.25h-7a3.83 3.83 0 0 1-1.65-.2c.26.1-.15-.08-.21-.11a3.58 3.58 0 0 1-.46-.29c.08.06.18.16-.09-.1-.1-.1-.21-.2-.3-.31.17.21-.1-.15-.13-.2a4.45 4.45 0 0 1-.26-.48c.11.26-.18-.77-.13-.48a11 11 0 0 1 0-1.52v-6.38a.85.85 0 0 0 0-.16v-.24c0-.57-.08.19.06-.35a2.62 2.62 0 0 1 1.86-1.94 6.77 6.77 0 0 1 1.53-.1h2.72c1.45 0 3-.12 4.4 0 .38 0-.39-.12.24 0a3.06 3.06 0 0 1 .43.13l.12.05a3.58 3.58 0 0 1 .46.29 3.12 3.12 0 0 1 .48.47c0-.07-.16-.26.08.11a3.46 3.46 0 0 1 .31.57c-.08-.19.15.61.14.52s0 .43 0 .44v6.63a4.93 4.93 0 0 1-.2 2c0-.09.15-.27 0 .11a4 4 0 0 1-.35.56c.15-.19-.55.5-.34.34-.11.09-.24.16-.36.24s-.58.27-.31.16a2.23 2.23 0 0 1-1 .2c-2.61.06-2.62 4.12 0 4.06a6.8 6.8 0 0 0 6.69-6.73V444c0-2.41 0-4.69-1.81-6.59a6.82 6.82 0 0 0-4.88-2.12H668.24a6.77 6.77 0 0 0-6.78 6.22c-.14 1.69 0 3.42 0 5.1 0 2.15-.22 4.4.92 6.34a6.74 6.74 0 0 0 5.2 3.28 22 22 0 0 0 2.3 0h5.87c2.6.08 2.6-3.98-.02-3.98z"></path><rect height="16.91" rx="4.66" width="16.91" x="327.5" y="463.92"></rect><path d="M339.76 478.81h-7a3.83 3.83 0 0 1-1.65-.2c.26.1-.16-.08-.21-.11a3.58 3.58 0 0 1-.46-.29c.08.07.17.16-.09-.1a2.94 2.94 0 0 1-.3-.31c.17.21-.1-.15-.13-.2a4.45 4.45 0 0 1-.26-.48c.11.26-.18-.77-.13-.48a11 11 0 0 1 0-1.52V468.35c0-.58-.08.19.06-.36a2.62 2.62 0 0 1 1.86-1.94A6.77 6.77 0 0 1 333 466h2.72c1.45 0 3-.11 4.4 0 .38 0-.39-.12.24 0l.43.13c-.23-.09.09.05.12.06a2.69 2.69 0 0 1 .46.28 3.12 3.12 0 0 1 .48.47c0-.06-.16-.25.07.11a3.59 3.59 0 0 1 .32.57c-.08-.19.15.61.14.52s0 .43 0 .44v6.64a4.9 4.9 0 0 1-.2 2c0-.08.14-.27-.05.12a3.94 3.94 0 0 1-.35.55c.15-.19-.55.51-.34.34a2.82 2.82 0 0 1-.36.24s-.59.27-.31.16a2.1 2.1 0 0 1-1 .2c-2.61.06-2.62 4.12 0 4.06a6.8 6.8 0 0 0 6.69-6.73v-5.54c0-2.41 0-4.69-1.81-6.59a6.82 6.82 0 0 0-4.88-2.12h-7.48a6.78 6.78 0 0 0-6.78 6.23c-.14 1.68 0 3.41 0 5.09 0 2.16-.22 4.41.92 6.35a6.75 6.75 0 0 0 5.19 3.27 22.21 22.21 0 0 0 2.31 0h5.87c2.58.02 2.58-4.04-.04-4.04z"></path><rect height="16.91" rx="4.66" width="16.91" x="356.72" y="463.92"></rect><path d="M369 478.81h-7a3.77 3.77 0 0 1-1.64-.2c.25.1-.16-.08-.22-.11s-.31-.18-.46-.29c.09.07.18.16-.08-.1a2.2 2.2 0 0 1-.3-.31c.17.21-.1-.15-.14-.2a4.45 4.45 0 0 1-.26-.48c.11.26-.17-.77-.13-.48a11 11 0 0 1 0-1.52v-6.77c0-.58-.08.19.06-.36a2.62 2.62 0 0 1 1.87-1.94 6.72 6.72 0 0 1 1.53-.1h2.71c1.45 0 3-.11 4.4 0 .39 0-.39-.12.25 0l.42.13c-.23-.09.1.05.12.06a3.24 3.24 0 0 1 .47.28 4.47 4.47 0 0 1 .48.47c-.06-.06-.17-.25.07.11a4.59 4.59 0 0 1 .32.57c-.08-.19.15.61.13.52s0 .43 0 .44V475.17a5.1 5.1 0 0 1-.19 2c0-.08.14-.27-.06.12a3.87 3.87 0 0 1-.34.55c.15-.19-.55.51-.34.34a2.92 2.92 0 0 1-.37.24s-.58.27-.31.16a2.07 2.07 0 0 1-1 .2c-2.61.06-2.62 4.12 0 4.06a6.79 6.79 0 0 0 6.68-6.73v-5.54c0-2.41 0-4.69-1.81-6.59a6.79 6.79 0 0 0-4.87-2.12h-7.49a6.79 6.79 0 0 0-6.78 6.23c-.14 1.68 0 3.41 0 5.09 0 2.16-.23 4.41.91 6.35a6.79 6.79 0 0 0 5.2 3.27 22.07 22.07 0 0 0 2.3 0H369c2.59.07 2.59-3.99 0-3.99z"></path><rect height="16.91" rx="4.66" width="16.91" x="385.93" y="463.92"></rect><path d="M398.19 478.81h-7a3.83 3.83 0 0 1-1.65-.2c.26.1-.16-.08-.21-.11a3.58 3.58 0 0 1-.46-.29c.08.07.17.16-.09-.1a2.94 2.94 0 0 1-.3-.31c.17.21-.1-.15-.13-.2a4.45 4.45 0 0 1-.26-.48c.11.26-.18-.77-.13-.48a9.65 9.65 0 0 1 0-1.52V468.35c0-.58-.08.19.06-.36a2.62 2.62 0 0 1 1.86-1.94 6.77 6.77 0 0 1 1.53-.1h2.72c1.45 0 2.95-.11 4.4 0 .38 0-.4-.12.24 0l.43.13c-.23-.09.09.05.12.06a2.69 2.69 0 0 1 .46.28 3.67 3.67 0 0 1 .48.47c0-.06-.16-.25.07.11a3.59 3.59 0 0 1 .32.57c-.08-.19.15.61.14.52s0 .43 0 .44v6.64a4.9 4.9 0 0 1-.2 2c0-.08.14-.27-.06.12a3.14 3.14 0 0 1-.34.55c.15-.19-.55.51-.34.34a2.82 2.82 0 0 1-.36.24s-.59.27-.31.16a2.1 2.1 0 0 1-1 .2c-2.61.06-2.62 4.12 0 4.06a6.8 6.8 0 0 0 6.69-6.73v-5.54c0-2.41 0-4.69-1.81-6.59a6.82 6.82 0 0 0-4.88-2.12h-7.48a6.78 6.78 0 0 0-6.78 6.23c-.14 1.68 0 3.41 0 5.09 0 2.16-.22 4.41.92 6.35a6.75 6.75 0 0 0 5.19 3.27 22.21 22.21 0 0 0 2.31 0h5.87c2.6.07 2.6-3.99-.02-3.99z"></path><rect height="16.91" rx="4.66" width="16.91" x="415.15" y="463.92"></rect><path d="M427.41 478.81h-7a3.77 3.77 0 0 1-1.64-.2c.25.1-.16-.08-.22-.11s-.31-.18-.46-.29c.09.07.18.16-.09-.1a2.87 2.87 0 0 1-.29-.31c.17.21-.1-.15-.14-.2a4.45 4.45 0 0 1-.26-.48c.11.26-.17-.77-.13-.48a11 11 0 0 1 0-1.52v-6.77c0-.58-.08.19.06-.36a2.62 2.62 0 0 1 1.87-1.94 6.72 6.72 0 0 1 1.53-.1h2.71c1.45 0 3-.11 4.4 0 .39 0-.39-.12.25 0l.42.13c-.23-.09.1.05.12.06a3.24 3.24 0 0 1 .47.28 3.85 3.85 0 0 1 .47.47c-.05-.06-.16-.25.08.11a4.59 4.59 0 0 1 .32.57c-.08-.19.15.61.13.52s0 .43 0 .44V475.17a5.1 5.1 0 0 1-.19 2c0-.08.14-.27-.06.12a3.87 3.87 0 0 1-.34.55c.15-.19-.55.51-.34.34a2.92 2.92 0 0 1-.37.24s-.58.27-.31.16a2.07 2.07 0 0 1-1 .2c-2.61.06-2.62 4.12 0 4.06a6.79 6.79 0 0 0 6.68-6.73v-5.54c0-2.41 0-4.69-1.81-6.59a6.79 6.79 0 0 0-4.87-2.12h-7.49a6.79 6.79 0 0 0-6.78 6.23c-.14 1.68 0 3.41 0 5.09 0 2.16-.23 4.41.91 6.35a6.79 6.79 0 0 0 5.2 3.27 22.07 22.07 0 0 0 2.3 0h5.88c2.58.07 2.58-3.99-.01-3.99z"></path><rect height="16.91" rx="4.66" width="16.91" x="444.36" y="463.92"></rect><path d="M456.62 478.81h-7a3.83 3.83 0 0 1-1.65-.2c.26.1-.16-.08-.21-.11a3.58 3.58 0 0 1-.46-.29c.08.07.17.16-.09-.1a2.94 2.94 0 0 1-.3-.31c.17.21-.1-.15-.13-.2a4.45 4.45 0 0 1-.26-.48c.11.26-.18-.77-.13-.48a9.65 9.65 0 0 1 0-1.52v-6.54a2.3 2.3 0 0 1 0-.23c0-.58-.08.19.06-.36a2.62 2.62 0 0 1 1.86-1.94 6.77 6.77 0 0 1 1.53-.1h2.72c1.45 0 2.95-.11 4.4 0 .38 0-.4-.12.24 0l.43.13c-.23-.09.09.05.12.06a2.69 2.69 0 0 1 .46.28 3.67 3.67 0 0 1 .48.47c-.05-.06-.17-.25.07.11a3.59 3.59 0 0 1 .32.57c-.08-.19.15.61.14.52s0 .43 0 .44v6.64a4.9 4.9 0 0 1-.2 2c0-.08.14-.27-.06.12a3.14 3.14 0 0 1-.34.55c.15-.19-.55.51-.34.34a2.82 2.82 0 0 1-.36.24s-.59.27-.31.16a2.1 2.1 0 0 1-1 .2c-2.61.06-2.62 4.12 0 4.06a6.8 6.8 0 0 0 6.69-6.73v-5.54c0-2.41 0-4.69-1.81-6.59a6.82 6.82 0 0 0-4.88-2.12h-7.48a6.79 6.79 0 0 0-6.79 6.23c-.13 1.68 0 3.41 0 5.09 0 2.16-.22 4.41.92 6.35a6.75 6.75 0 0 0 5.19 3.27 22.21 22.21 0 0 0 2.31 0h5.87c2.6.07 2.61-3.99-.01-3.99z"></path><rect height="16.91" rx="4.66" width="16.91" x="473.58" y="463.92"></rect><path d="M485.84 478.81h-7a3.77 3.77 0 0 1-1.64-.2c.25.1-.16-.08-.22-.11s-.31-.18-.46-.29c.09.07.18.16-.09-.1a2.87 2.87 0 0 1-.29-.31c.17.21-.1-.15-.14-.2a4.45 4.45 0 0 1-.26-.48c.11.26-.17-.77-.13-.48a11 11 0 0 1 0-1.52v-6.77c0-.58-.08.19.06-.36a2.62 2.62 0 0 1 1.87-1.94 6.72 6.72 0 0 1 1.53-.1h2.71c1.45 0 3-.11 4.4 0 .39 0-.39-.12.25 0l.42.13c-.23-.09.1.05.12.06a3.24 3.24 0 0 1 .47.28 3.85 3.85 0 0 1 .47.47c-.05-.06-.16-.25.08.11a4.59 4.59 0 0 1 .32.57c-.08-.19.15.61.13.52s0 .43 0 .44V475.17a5.1 5.1 0 0 1-.19 2c0-.08.14-.27-.06.12a3.87 3.87 0 0 1-.34.55c.15-.19-.55.51-.34.34a3.87 3.87 0 0 1-.37.24s-.58.27-.31.16a2.07 2.07 0 0 1-1 .2c-2.61.06-2.62 4.12 0 4.06a6.79 6.79 0 0 0 6.68-6.73v-5.54c0-2.41 0-4.69-1.81-6.59a6.79 6.79 0 0 0-4.87-2.12h-7.49a6.79 6.79 0 0 0-6.78 6.23c-.14 1.68 0 3.41 0 5.09 0 2.16-.23 4.41.91 6.35a6.77 6.77 0 0 0 5.2 3.27 22.07 22.07 0 0 0 2.3 0h5.88c2.6.07 2.6-3.99-.01-3.99z"></path><rect height="16.91" rx="4.66" width="16.91" x="502.79" y="463.92"></rect><path d="M515.05 478.81h-7a3.83 3.83 0 0 1-1.65-.2c.26.1-.16-.08-.21-.11a3.58 3.58 0 0 1-.46-.29c.08.07.17.16-.09-.1a2.94 2.94 0 0 1-.3-.31c.17.21-.1-.15-.13-.2a4.45 4.45 0 0 1-.26-.48c.11.26-.18-.77-.13-.48a9.65 9.65 0 0 1 0-1.52v-6.54a2.3 2.3 0 0 1 0-.23c0-.58-.08.19.06-.36a2.62 2.62 0 0 1 1.86-1.94 6.77 6.77 0 0 1 1.53-.1H511c1.45 0 3-.11 4.4 0 .38 0-.4-.12.24 0l.43.13c-.23-.09.09.05.12.06a3.14 3.14 0 0 1 .46.28 3.67 3.67 0 0 1 .48.47c-.06-.06-.17-.25.07.11a3.59 3.59 0 0 1 .32.57c-.08-.19.15.61.14.52s0 .43 0 .44v6.64a4.9 4.9 0 0 1-.2 2c0-.08.14-.27-.06.12a3.14 3.14 0 0 1-.34.55c.15-.19-.55.51-.34.34a2.82 2.82 0 0 1-.36.24s-.59.27-.31.16a2.12 2.12 0 0 1-1 .2c-2.61.06-2.62 4.12 0 4.06a6.8 6.8 0 0 0 6.69-6.73v-5.54c0-2.41 0-4.69-1.81-6.59a6.82 6.82 0 0 0-4.88-2.12h-7.48a6.79 6.79 0 0 0-6.79 6.23c-.13 1.68 0 3.41 0 5.09 0 2.16-.22 4.41.91 6.35a6.79 6.79 0 0 0 5.2 3.27 22.21 22.21 0 0 0 2.31 0h5.87c2.59.07 2.6-3.99-.02-3.99z"></path><rect height="16.91" rx="4.66" width="16.91" x="532.01" y="463.92"></rect><path d="M544.27 478.81h-7a3.77 3.77 0 0 1-1.64-.2c.25.1-.16-.08-.22-.11s-.31-.18-.46-.29c.09.07.18.16-.09-.1a2.87 2.87 0 0 1-.29-.31c.17.21-.1-.15-.14-.2a4.45 4.45 0 0 1-.26-.48c.11.26-.17-.77-.13-.48a11 11 0 0 1 0-1.52v-6.77c0-.58-.08.19.06-.36a2.62 2.62 0 0 1 1.87-1.94 6.72 6.72 0 0 1 1.53-.1h2.71c1.45 0 3-.11 4.4 0 .39 0-.39-.12.25 0l.42.13c-.23-.09.1.05.12.06a3.24 3.24 0 0 1 .47.28 3.85 3.85 0 0 1 .47.47c-.05-.06-.16-.25.08.11a4.59 4.59 0 0 1 .32.57c-.08-.19.15.61.13.52s0 .43 0 .44V475.17a5.1 5.1 0 0 1-.19 2c0-.08.14-.27-.06.12a3.87 3.87 0 0 1-.34.55c.15-.19-.56.51-.34.34a3.87 3.87 0 0 1-.37.24s-.58.27-.31.16a2.07 2.07 0 0 1-1 .2c-2.61.06-2.62 4.12 0 4.06a6.79 6.79 0 0 0 6.68-6.73v-5.54c0-2.41 0-4.69-1.81-6.59a6.79 6.79 0 0 0-4.87-2.12h-7.49a6.79 6.79 0 0 0-6.78 6.23c-.14 1.68 0 3.41 0 5.09 0 2.16-.23 4.41.91 6.35a6.77 6.77 0 0 0 5.2 3.27 22.07 22.07 0 0 0 2.3 0h5.88c2.6.07 2.6-3.99-.01-3.99z"></path><rect height="16.91" rx="4.66" width="16.91" x="561.22" y="463.92"></rect><path d="M573.48 478.81h-7a3.81 3.81 0 0 1-1.64-.2c.25.1-.16-.08-.21-.11a3.58 3.58 0 0 1-.46-.29c.08.07.17.16-.09-.1a2.94 2.94 0 0 1-.3-.31c.17.21-.1-.15-.13-.2a4.45 4.45 0 0 1-.26-.48c.11.26-.18-.77-.13-.48a9.65 9.65 0 0 1 0-1.52v-6.54a2.3 2.3 0 0 1 0-.23c0-.58-.08.19.06-.36a2.62 2.62 0 0 1 1.86-1.94 6.72 6.72 0 0 1 1.53-.1h2.72c1.45 0 3-.11 4.4 0 .38 0-.4-.12.24 0l.43.13c-.23-.09.09.05.12.06a3.14 3.14 0 0 1 .46.28 3.67 3.67 0 0 1 .48.47c-.06-.06-.17-.25.07.11a3.59 3.59 0 0 1 .32.57c-.08-.19.15.61.14.52s0 .43 0 .44v6.64a4.9 4.9 0 0 1-.2 2c0-.08.14-.27-.06.12a3.14 3.14 0 0 1-.34.55c.15-.19-.55.51-.34.34a2.82 2.82 0 0 1-.36.24s-.59.27-.31.16a2.12 2.12 0 0 1-1 .2c-2.61.06-2.62 4.12 0 4.06a6.8 6.8 0 0 0 6.69-6.73v-5.54c0-2.41 0-4.69-1.81-6.59a6.82 6.82 0 0 0-4.88-2.12H566a6.79 6.79 0 0 0-6.79 6.23c-.13 1.68 0 3.41 0 5.09 0 2.16-.22 4.41.91 6.35a6.79 6.79 0 0 0 5.2 3.27 22.21 22.21 0 0 0 2.31 0h5.87c2.59.07 2.6-3.99-.02-3.99z"></path><rect height="16.91" rx="4.66" width="16.91" x="590.44" y="463.92"></rect><path d="M602.7 478.81h-7a3.77 3.77 0 0 1-1.64-.2c.25.1-.16-.08-.22-.11s-.31-.18-.46-.29c.09.07.18.16-.09-.1-.1-.09-.2-.2-.3-.31.18.21-.09-.15-.13-.2a4.45 4.45 0 0 1-.26-.48c.11.26-.17-.77-.13-.48a11 11 0 0 1 0-1.52v-6.77c0-.58-.08.19.06-.36a2.62 2.62 0 0 1 1.87-1.94 6.72 6.72 0 0 1 1.53-.1h2.71c1.45 0 3-.11 4.4 0 .39 0-.39-.12.25 0l.42.13c-.23-.09.1.05.12.06a3.24 3.24 0 0 1 .47.28 3.85 3.85 0 0 1 .47.47c0-.06-.16-.25.08.11a4.59 4.59 0 0 1 .32.57c-.08-.19.15.61.13.52s0 .43 0 .44V475.17a5.1 5.1 0 0 1-.19 2c0-.08.14-.27-.06.12a3.87 3.87 0 0 1-.34.55c.14-.19-.56.51-.34.34a3.87 3.87 0 0 1-.37.24s-.58.27-.31.16a2.07 2.07 0 0 1-1 .2c-2.61.06-2.62 4.12 0 4.06a6.79 6.79 0 0 0 6.68-6.73v-5.54c0-2.41 0-4.69-1.81-6.59a6.81 6.81 0 0 0-4.87-2.12h-7.49a6.79 6.79 0 0 0-6.78 6.23c-.14 1.68 0 3.41 0 5.09 0 2.16-.23 4.41.91 6.35a6.77 6.77 0 0 0 5.2 3.27 22.07 22.07 0 0 0 2.3 0h5.88c2.6.07 2.6-3.99-.01-3.99z"></path><rect height="16.91" rx="4.66" width="16.91" x="619.65" y="463.92"></rect><path d="M631.91 478.81h-7a3.81 3.81 0 0 1-1.64-.2c.25.1-.16-.08-.21-.11a3.58 3.58 0 0 1-.46-.29c.08.07.17.16-.09-.1a2.94 2.94 0 0 1-.3-.31c.17.21-.1-.15-.13-.2a4.45 4.45 0 0 1-.26-.48c.11.26-.18-.77-.13-.48a9.65 9.65 0 0 1 0-1.52v-6.54a2.3 2.3 0 0 1 0-.23c0-.58-.08.19.06-.36a2.62 2.62 0 0 1 1.86-1.94 6.72 6.72 0 0 1 1.53-.1h2.72c1.45 0 2.95-.11 4.4 0 .38 0-.4-.12.24 0l.43.13c-.23-.09.09.05.12.06a3.14 3.14 0 0 1 .46.28 3.67 3.67 0 0 1 .48.47c-.06-.06-.17-.25.07.11a3.59 3.59 0 0 1 .32.57c-.08-.19.15.61.14.52s0 .43 0 .44v6.64a4.9 4.9 0 0 1-.2 2c0-.08.14-.27-.06.12a3.14 3.14 0 0 1-.34.55c.15-.19-.55.51-.34.34a2.82 2.82 0 0 1-.36.24s-.59.27-.31.16a2.12 2.12 0 0 1-1 .2c-2.61.06-2.62 4.12 0 4.06a6.8 6.8 0 0 0 6.69-6.73v-5.54c0-2.41 0-4.69-1.81-6.59a6.82 6.82 0 0 0-4.88-2.12h-7.48a6.79 6.79 0 0 0-6.79 6.23c-.13 1.68 0 3.41 0 5.09 0 2.16-.22 4.41.91 6.35a6.79 6.79 0 0 0 5.2 3.27 22.21 22.21 0 0 0 2.31 0h5.87c2.59.07 2.6-3.99-.02-3.99z"></path><rect height="16.91" rx="4.66" width="16.91" x="648.87" y="463.92"></rect><path d="M661.13 478.81h-7a3.77 3.77 0 0 1-1.64-.2c.25.1-.16-.08-.22-.11s-.31-.18-.46-.29c.09.07.18.16-.09-.1-.1-.09-.2-.2-.3-.31.18.21-.09-.15-.13-.2a4.45 4.45 0 0 1-.26-.48c.11.26-.17-.77-.13-.48a11 11 0 0 1 0-1.52v-6.77c0-.58-.08.19.06-.36a2.62 2.62 0 0 1 1.87-1.94 6.72 6.72 0 0 1 1.53-.1h2.71c1.45 0 3-.11 4.4 0 .39 0-.39-.12.25 0l.42.13c-.23-.09.1.05.12.06a3.24 3.24 0 0 1 .47.28 3.85 3.85 0 0 1 .47.47c-.05-.06-.16-.25.08.11a4.59 4.59 0 0 1 .32.57c-.09-.19.15.61.13.52s0 .43 0 .44v6.64a5.1 5.1 0 0 1-.19 2c0-.08.14-.27-.06.12a3.87 3.87 0 0 1-.34.55c.14-.19-.56.51-.34.34a3.87 3.87 0 0 1-.37.24s-.58.27-.31.16a2.07 2.07 0 0 1-1 .2c-2.61.06-2.62 4.12 0 4.06a6.79 6.79 0 0 0 6.68-6.73v-5.54c0-2.41 0-4.69-1.81-6.59a6.81 6.81 0 0 0-4.87-2.12h-7.49a6.79 6.79 0 0 0-6.78 6.23c-.14 1.68 0 3.41 0 5.09 0 2.16-.23 4.41.91 6.35a6.77 6.77 0 0 0 5.2 3.27 22.07 22.07 0 0 0 2.3 0h5.88c2.6.07 2.6-3.99-.01-3.99z"></path><rect height="16.91" rx="4.66" width="16.91" x="342.11" y="490.49"></rect><path d="M354.37 505.37h-7a4 4 0 0 1-1.64-.19c.25.09-.16-.08-.21-.11a5.16 5.16 0 0 1-.46-.29c.08.06.17.15-.09-.1-.1-.1-.21-.21-.3-.32.17.21-.1-.14-.13-.2a2.77 2.77 0 0 1-.26-.48c.11.27-.18-.77-.14-.47a11.16 11.16 0 0 1 0-1.53V494.91c0-.58-.08.19.06-.36a2.62 2.62 0 0 1 1.86-1.94 6.81 6.81 0 0 1 1.53-.09h2.72c1.45 0 2.95-.12 4.4 0 .38 0-.4-.12.24.05l.43.13c-.23-.09.09.05.11.06a4.48 4.48 0 0 1 .47.28 5.84 5.84 0 0 1 .48.47c-.06-.06-.17-.25.07.11a3.59 3.59 0 0 1 .32.57c-.08-.19.15.61.14.53s0 .42 0 .43v6.64a4.9 4.9 0 0 1-.2 2c0-.08.14-.27-.06.12a3.22 3.22 0 0 1-.34.56c.15-.2-.55.5-.34.34a3.32 3.32 0 0 1-.37.23s-.58.27-.3.17a2.1 2.1 0 0 1-1 .19c-2.61.06-2.62 4.13 0 4.06a6.8 6.8 0 0 0 6.69-6.73v-5.54c0-2.4-.05-4.69-1.81-6.59a6.82 6.82 0 0 0-4.88-2.11h-7.49a6.78 6.78 0 0 0-6.78 6.22c-.13 1.68 0 3.41 0 5.1 0 2.15-.22 4.4.91 6.34a6.8 6.8 0 0 0 5.2 3.28c.76.07 1.54 0 2.3 0h5.88c2.62 0 2.62-4.06-.01-4.06z"></path><rect height="16.91" rx="4.66" width="16.91" x="371.33" y="490.49"></rect><path d="M383.58 505.37h-7a3.93 3.93 0 0 1-1.64-.19c.25.09-.16-.08-.22-.11s-.31-.18-.46-.29c.09.06.18.15-.09-.1-.1-.1-.21-.21-.3-.32.17.21-.1-.14-.13-.2a3.67 3.67 0 0 1-.26-.48c.11.27-.17-.77-.13-.47a11.16 11.16 0 0 1 0-1.53V495.28a.86.86 0 0 1 0-.16 1.85 1.85 0 0 1 0-.24c0-.58-.08.19.06-.36a2.64 2.64 0 0 1 1.86-1.94 6.9 6.9 0 0 1 1.54-.09h2.71c1.45 0 3-.12 4.4 0 .39 0-.39-.12.24.05l.43.13c-.23-.09.1.05.12.06a3.52 3.52 0 0 1 .46.28 3.72 3.72 0 0 1 .48.47c-.05-.06-.16-.25.08.11a4.51 4.51 0 0 1 .31.57c-.08-.19.15.61.14.53s0 .42 0 .43v6.64a5.1 5.1 0 0 1-.19 2c0-.08.14-.27-.06.12a4 4 0 0 1-.35.56c.15-.2-.55.5-.34.34l-.36.23s-.58.27-.31.17a2.08 2.08 0 0 1-1 .19c-2.6.06-2.61 4.13 0 4.06a6.79 6.79 0 0 0 6.69-6.73v-5.54c0-2.4 0-4.69-1.81-6.59a6.81 6.81 0 0 0-4.88-2.11H376.09a6.77 6.77 0 0 0-6.78 6.22c-.14 1.68 0 3.41 0 5.1 0 2.15-.22 4.4.92 6.34a6.77 6.77 0 0 0 5.2 3.28c.76.07 1.54 0 2.3 0h5.87c2.6.03 2.6-4.03-.02-4.03z"></path><rect height="16.91" rx="4.66" width="16.91" x="400.54" y="490.49"></rect><path d="M412.8 505.37h-7a4 4 0 0 1-1.64-.19c.25.09-.16-.08-.21-.11a5.16 5.16 0 0 1-.46-.29c.08.06.17.15-.09-.1-.1-.1-.21-.21-.3-.32.17.21-.1-.14-.13-.2a2.77 2.77 0 0 1-.26-.48c.1.27-.18-.77-.14-.47a11.16 11.16 0 0 1 0-1.53V494.91c0-.58-.08.19.06-.36a2.62 2.62 0 0 1 1.86-1.94 6.81 6.81 0 0 1 1.53-.09h2.72c1.45 0 2.95-.12 4.4 0 .38 0-.4-.12.24.05l.43.13c-.23-.09.09.05.11.06a4.48 4.48 0 0 1 .47.28 5.84 5.84 0 0 1 .48.47c-.06-.06-.17-.25.07.11a3.59 3.59 0 0 1 .32.57c-.08-.19.15.61.14.53s0 .42 0 .43V501.79a4.91 4.91 0 0 1-.19 2c0-.08.14-.27-.06.12a3.22 3.22 0 0 1-.34.56c.15-.2-.55.5-.34.34a3.32 3.32 0 0 1-.37.23s-.58.27-.3.17a2.1 2.1 0 0 1-1 .19c-2.61.06-2.62 4.13 0 4.06a6.8 6.8 0 0 0 6.69-6.73v-5.54c0-2.4-.05-4.69-1.81-6.59a6.82 6.82 0 0 0-4.88-2.11h-7.49a6.78 6.78 0 0 0-6.78 6.22c-.13 1.68 0 3.41 0 5.1 0 2.15-.22 4.4.91 6.34a6.8 6.8 0 0 0 5.2 3.28c.76.07 1.54 0 2.3 0h5.88c2.59 0 2.6-4.06-.02-4.06z"></path><rect height="16.91" rx="4.66" width="16.91" x="429.76" y="490.49"></rect><path d="M442 505.37h-7a3.93 3.93 0 0 1-1.64-.19c.25.09-.16-.08-.22-.11s-.32-.18-.46-.29c.09.06.18.15-.09-.1-.1-.1-.21-.21-.3-.32.17.21-.1-.14-.13-.2a3.67 3.67 0 0 1-.26-.48c.11.27-.17-.77-.13-.47a11.16 11.16 0 0 1 0-1.53V495.28a.86.86 0 0 1 0-.16 1.85 1.85 0 0 1 0-.24c0-.58-.08.19.06-.36a2.64 2.64 0 0 1 1.86-1.94 6.9 6.9 0 0 1 1.54-.09H438c1.45 0 3-.12 4.4 0 .38 0-.39-.12.24.05l.43.13c-.23-.09.1.05.12.06a3.52 3.52 0 0 1 .46.28 3.72 3.72 0 0 1 .48.47c0-.06-.16-.25.08.11a4.51 4.51 0 0 1 .31.57c-.08-.19.15.61.14.53s0 .42 0 .43v6.64a5.1 5.1 0 0 1-.19 2c0-.08.14-.27-.06.12a4 4 0 0 1-.35.56c.15-.2-.55.5-.34.34l-.36.23s-.58.27-.31.17a2.08 2.08 0 0 1-1 .19c-2.6.06-2.61 4.13 0 4.06a6.79 6.79 0 0 0 6.69-6.73v-5.54c0-2.4 0-4.69-1.81-6.59a6.81 6.81 0 0 0-4.88-2.11H434.57a6.77 6.77 0 0 0-6.78 6.22c-.14 1.68 0 3.41 0 5.1 0 2.15-.22 4.4.92 6.34a6.77 6.77 0 0 0 5.2 3.28c.76.07 1.54 0 2.3 0H442c2.63.03 2.63-4.03 0-4.03z"></path><rect height="16.91" rx="4.66" width="16.91" x="458.97" y="490.49"></rect><path d="M471.23 505.37h-7a3.93 3.93 0 0 1-1.64-.19c.25.09-.16-.08-.21-.11a5.16 5.16 0 0 1-.46-.29c.08.06.17.15-.09-.1a3 3 0 0 1-.3-.32c.17.21-.1-.14-.13-.2a2.77 2.77 0 0 1-.26-.48c.1.27-.18-.77-.14-.47a11.16 11.16 0 0 1 0-1.53V494.91c0-.58-.08.19.06-.36a2.62 2.62 0 0 1 1.86-1.94 6.81 6.81 0 0 1 1.53-.09h2.72c1.45 0 2.95-.12 4.4 0 .38 0-.4-.12.24.05l.42.13c-.22-.09.1.05.12.06a4.48 4.48 0 0 1 .47.28 5.84 5.84 0 0 1 .48.47c-.06-.06-.17-.25.07.11a3.59 3.59 0 0 1 .32.57c-.08-.19.15.61.13.53s0 .42 0 .43V501.79a4.91 4.91 0 0 1-.19 2c0-.08.14-.27-.06.12a3.22 3.22 0 0 1-.34.56c.15-.2-.55.5-.34.34a3.32 3.32 0 0 1-.37.23s-.58.27-.31.17a2 2 0 0 1-1 .19c-2.61.06-2.62 4.13 0 4.06a6.8 6.8 0 0 0 6.69-6.73v-5.54c0-2.4-.05-4.69-1.81-6.59a6.82 6.82 0 0 0-4.88-2.11h-7.49a6.78 6.78 0 0 0-6.78 6.22c-.13 1.68 0 3.41 0 5.1 0 2.15-.22 4.4.91 6.34a6.8 6.8 0 0 0 5.2 3.28c.76.07 1.54 0 2.3 0h5.88c2.61 0 2.62-4.06 0-4.06z"></path><rect height="16.91" rx="4.66" width="16.91" x="488.19" y="490.49"></rect><path d="M500.44 505.37h-7a3.93 3.93 0 0 1-1.64-.19c.25.09-.16-.08-.22-.11a5.16 5.16 0 0 1-.46-.29c.09.06.18.15-.09-.1-.1-.1-.21-.21-.3-.32.17.21-.1-.14-.13-.2a3.67 3.67 0 0 1-.26-.48c.11.27-.17-.77-.13-.47a11.16 11.16 0 0 1 0-1.53V495.28a.86.86 0 0 1 0-.16 1.85 1.85 0 0 1 0-.24c0-.58-.08.19.06-.36a2.64 2.64 0 0 1 1.86-1.94 6.9 6.9 0 0 1 1.54-.09h2.71c1.45 0 2.95-.12 4.4 0 .38 0-.39-.12.24.05l.43.13c-.23-.09.1.05.12.06a3.52 3.52 0 0 1 .46.28 3.72 3.72 0 0 1 .48.47c0-.06-.16-.25.08.11a4.51 4.51 0 0 1 .31.57c-.08-.19.15.61.14.53s0 .42 0 .43v6.64a5.1 5.1 0 0 1-.19 2c0-.08.14-.27-.06.12a4 4 0 0 1-.35.56c.15-.2-.55.5-.34.34l-.36.23s-.58.27-.31.17a2.08 2.08 0 0 1-1 .19c-2.6.06-2.61 4.13 0 4.06a6.79 6.79 0 0 0 6.69-6.73v-5.54c0-2.4 0-4.69-1.81-6.59a6.81 6.81 0 0 0-4.88-2.11H492.95a6.77 6.77 0 0 0-6.78 6.22c-.14 1.68 0 3.41 0 5.1 0 2.15-.22 4.4.92 6.34a6.77 6.77 0 0 0 5.2 3.28c.76.07 1.54 0 2.3 0h5.87c2.6.03 2.6-4.03-.02-4.03z"></path><rect height="16.91" rx="4.66" width="16.91" x="517.4" y="490.49"></rect><path d="M529.66 505.37h-7a3.93 3.93 0 0 1-1.64-.19c.25.09-.16-.08-.21-.11a5.16 5.16 0 0 1-.46-.29c.08.06.17.15-.09-.1a3 3 0 0 1-.3-.32c.17.21-.1-.14-.13-.2a2.77 2.77 0 0 1-.26-.48c.1.27-.18-.77-.14-.47a11.16 11.16 0 0 1 0-1.53V494.91c0-.58-.08.19.06-.36a2.62 2.62 0 0 1 1.86-1.94 6.81 6.81 0 0 1 1.53-.09h2.72c1.45 0 2.95-.12 4.4 0 .38 0-.4-.12.24.05l.42.13c-.22-.09.1.05.12.06a4.48 4.48 0 0 1 .47.28 5.84 5.84 0 0 1 .48.47c-.06-.06-.17-.25.07.11a3.59 3.59 0 0 1 .32.57c-.08-.19.15.61.13.53s0 .42 0 .43V501.79a4.91 4.91 0 0 1-.19 2c0-.08.14-.27-.06.12a3.22 3.22 0 0 1-.34.56c.15-.2-.55.5-.34.34a3.32 3.32 0 0 1-.37.23s-.58.27-.31.17a2 2 0 0 1-1 .19c-2.61.06-2.62 4.13 0 4.06a6.8 6.8 0 0 0 6.69-6.73v-5.54c0-2.4-.05-4.69-1.81-6.59a6.82 6.82 0 0 0-4.88-2.11h-7.49a6.78 6.78 0 0 0-6.78 6.22c-.13 1.68 0 3.41 0 5.1 0 2.15-.22 4.4.91 6.34a6.8 6.8 0 0 0 5.2 3.28c.76.07 1.54 0 2.3 0h5.88c2.61 0 2.62-4.06 0-4.06z"></path><rect height="16.91" rx="4.66" width="16.91" x="546.61" y="490.49"></rect><path d="M558.87 505.37h-7a3.93 3.93 0 0 1-1.64-.19c.25.09-.16-.08-.22-.11a5.16 5.16 0 0 1-.46-.29c.08.06.18.15-.09-.1-.1-.1-.21-.21-.3-.32.17.21-.1-.14-.13-.2a3.67 3.67 0 0 1-.26-.48c.11.27-.17-.77-.13-.47a11.16 11.16 0 0 1 0-1.53V495.28a.86.86 0 0 1 0-.16 1.85 1.85 0 0 1 0-.24c0-.58-.08.19.06-.36a2.64 2.64 0 0 1 1.86-1.94 6.85 6.85 0 0 1 1.53-.09h2.72c1.45 0 2.95-.12 4.4 0 .38 0-.39-.12.24.05l.43.13c-.23-.09.1.05.12.06a3.52 3.52 0 0 1 .46.28 3.72 3.72 0 0 1 .48.47c-.05-.06-.16-.25.08.11a4.51 4.51 0 0 1 .31.57c-.08-.19.15.61.14.53s0 .42 0 .43v6.64a5.1 5.1 0 0 1-.19 2c0-.08.14-.27-.06.12a4 4 0 0 1-.35.56c.15-.2-.55.5-.34.34l-.36.23s-.58.27-.31.17a2.08 2.08 0 0 1-1 .19c-2.61.06-2.61 4.13 0 4.06a6.79 6.79 0 0 0 6.69-6.73v-5.54c0-2.4 0-4.69-1.81-6.59a6.81 6.81 0 0 0-4.88-2.11H551.38a6.77 6.77 0 0 0-6.78 6.22c-.14 1.68 0 3.41 0 5.1 0 2.15-.22 4.4.92 6.34a6.77 6.77 0 0 0 5.2 3.28c.76.07 1.54 0 2.3 0h5.87c2.6.03 2.6-4.03-.02-4.03z"></path><rect height="16.91" rx="4.66" width="16.91" x="575.83" y="490.49"></rect><path d="M588.09 505.37h-7a3.93 3.93 0 0 1-1.64-.19c.25.09-.16-.08-.21-.11a5.16 5.16 0 0 1-.46-.29c.08.06.17.15-.09-.1a3 3 0 0 1-.3-.32c.17.21-.1-.14-.13-.2a2.77 2.77 0 0 1-.26-.48c.1.27-.18-.77-.14-.47a11.16 11.16 0 0 1 0-1.53V494.91c0-.58-.08.19.06-.36a2.62 2.62 0 0 1 1.86-1.94 6.81 6.81 0 0 1 1.53-.09H584c1.45 0 3-.12 4.4 0 .38 0-.4-.12.24.05l.42.13c-.22-.09.1.05.12.06a4.48 4.48 0 0 1 .47.28 5.84 5.84 0 0 1 .48.47c-.06-.06-.17-.25.07.11a3.59 3.59 0 0 1 .32.57c-.08-.19.15.61.13.53s0 .42 0 .43V501.79a4.91 4.91 0 0 1-.19 2c0-.08.14-.27-.06.12a4 4 0 0 1-.34.56c.15-.2-.55.5-.34.34a3.32 3.32 0 0 1-.37.23s-.58.27-.31.17a2 2 0 0 1-1 .19c-2.61.06-2.62 4.13 0 4.06a6.8 6.8 0 0 0 6.69-6.73v-5.54c0-2.4 0-4.69-1.81-6.59a6.82 6.82 0 0 0-4.88-2.11h-7.49a6.78 6.78 0 0 0-6.78 6.22c-.13 1.68 0 3.41 0 5.1 0 2.15-.22 4.4.91 6.34a6.8 6.8 0 0 0 5.2 3.28c.76.07 1.54 0 2.3 0h5.88c2.64 0 2.65-4.06.03-4.06z"></path><rect height="16.91" rx="4.66" width="16.91" x="605.04" y="490.49"></rect><path d="M617.3 505.37h-7a4 4 0 0 1-1.65-.19c.26.09-.15-.08-.21-.11a5.16 5.16 0 0 1-.46-.29c.08.06.18.15-.09-.1-.1-.1-.21-.21-.3-.32.17.21-.1-.14-.13-.2a3.67 3.67 0 0 1-.26-.48c.11.27-.17-.77-.13-.47a11.16 11.16 0 0 1 0-1.53V495.28a.86.86 0 0 1 0-.16 1.85 1.85 0 0 1 0-.24c0-.58-.08.19.06-.36a2.64 2.64 0 0 1 1.86-1.94 6.85 6.85 0 0 1 1.53-.09h2.72c1.45 0 3-.12 4.4 0 .38 0-.39-.12.24.05l.43.13c-.23-.09.1.05.12.06a3.52 3.52 0 0 1 .46.28 3.72 3.72 0 0 1 .48.47c0-.06-.16-.25.08.11a4.51 4.51 0 0 1 .31.57c-.08-.19.15.61.14.53s0 .42 0 .43v6.64a5.1 5.1 0 0 1-.19 2c0-.08.14-.27-.06.12a4 4 0 0 1-.35.56c.15-.2-.55.5-.34.34l-.36.23s-.58.27-.31.17a2.08 2.08 0 0 1-1 .19c-2.61.06-2.62 4.13 0 4.06a6.79 6.79 0 0 0 6.71-6.73v-5.54c0-2.4 0-4.69-1.81-6.59a6.81 6.81 0 0 0-4.88-2.11H609.83a6.77 6.77 0 0 0-6.78 6.22c-.14 1.68 0 3.41 0 5.1 0 2.15-.22 4.4.92 6.34a6.77 6.77 0 0 0 5.2 3.28c.76.07 1.54 0 2.3 0h5.87c2.58.03 2.58-4.03-.04-4.03z"></path><rect height="16.91" rx="4.66" width="16.91" x="634.26" y="490.49"></rect><path d="M646.52 505.37h-7a3.93 3.93 0 0 1-1.64-.19c.25.09-.16-.08-.21-.11a5.16 5.16 0 0 1-.46-.29c.08.06.17.15-.09-.1a3 3 0 0 1-.3-.32c.17.21-.1-.14-.13-.2a2.77 2.77 0 0 1-.26-.48c.1.27-.18-.77-.14-.47a11.16 11.16 0 0 1 0-1.53V494.91c0-.58-.08.19.06-.36a2.62 2.62 0 0 1 1.86-1.94 6.81 6.81 0 0 1 1.53-.09h2.72c1.45 0 2.95-.12 4.4 0 .38 0-.4-.12.24.05l.42.13c-.22-.09.1.05.12.06a4.48 4.48 0 0 1 .47.28 5.84 5.84 0 0 1 .48.47c-.06-.06-.17-.25.07.11a3.59 3.59 0 0 1 .32.57c-.08-.19.15.61.13.53s0 .42 0 .43V501.79a4.91 4.91 0 0 1-.19 2c0-.08.14-.27-.06.12a4 4 0 0 1-.34.56c.15-.2-.55.5-.34.34a3.32 3.32 0 0 1-.37.23s-.58.27-.31.17a2 2 0 0 1-1 .19c-2.61.06-2.62 4.13 0 4.06a6.79 6.79 0 0 0 6.68-6.73v-5.54c0-2.4 0-4.69-1.8-6.59a6.82 6.82 0 0 0-4.88-2.11h-7.49a6.78 6.78 0 0 0-6.78 6.22c-.13 1.68 0 3.41 0 5.1 0 2.15-.22 4.4.91 6.34a6.8 6.8 0 0 0 5.2 3.28c.76.07 1.54 0 2.3 0h5.88c2.61 0 2.62-4.06 0-4.06z"></path><rect height="16.91" rx="4.66" width="16.91" x="327.5" y="517.05"></rect><path d="M339.76 531.93h-7a4 4 0 0 1-1.65-.19c.26.1-.16-.08-.21-.11a3.58 3.58 0 0 1-.46-.29c.08.06.17.16-.09-.1-.1-.1-.21-.2-.3-.31.17.2-.1-.15-.13-.2s-.19-.32-.26-.48c.11.26-.18-.77-.13-.48a11.14 11.14 0 0 1 0-1.53V521.47c0-.57-.08.19.06-.35a2.65 2.65 0 0 1 1.86-2 7.5 7.5 0 0 1 1.53-.09h2.72c1.45 0 3-.12 4.4 0 .38 0-.39-.11.24.06a3.45 3.45 0 0 1 .43.12c-.23-.08.09.05.12.06a3.52 3.52 0 0 1 .46.28 3.37 3.37 0 0 1 .48.48c0-.07-.16-.26.07.1a3.28 3.28 0 0 1 .32.58c-.08-.19.15.6.14.52s0 .43 0 .43v6.64a4.88 4.88 0 0 1-.2 2c0-.08.14-.26-.05.12a4 4 0 0 1-.35.56c.15-.19-.55.5-.34.34-.11.09-.24.16-.36.24s-.59.26-.31.16a2.08 2.08 0 0 1-1 .19c-2.61.07-2.62 4.13 0 4.06a6.8 6.8 0 0 0 6.69-6.72v-5.54c0-2.41 0-4.69-1.81-6.6a6.85 6.85 0 0 0-4.88-2.11h-7.5a6.77 6.77 0 0 0-6.78 6.22c-.14 1.69 0 3.41 0 5.1 0 2.15-.22 4.4.92 6.34a6.77 6.77 0 0 0 5.19 3.28 22.22 22.22 0 0 0 2.31 0h5.87c2.62.06 2.62-4.01 0-4.01z"></path><rect height="16.91" rx="4.66" width="16.91" x="356.72" y="517.05"></rect><path d="M369 531.93h-7a3.93 3.93 0 0 1-1.64-.19c.25.1-.16-.08-.22-.11s-.31-.18-.46-.29c.09.06.18.16-.08-.1a2.91 2.91 0 0 1-.3-.31c.17.2-.1-.15-.14-.2s-.19-.32-.26-.48c.11.26-.17-.77-.13-.48a11.14 11.14 0 0 1 0-1.53v-6.77c0-.57-.08.19.06-.35a2.64 2.64 0 0 1 1.87-2 7.45 7.45 0 0 1 1.53-.09h2.71c1.45 0 3-.12 4.4 0 .39 0-.39-.11.25.06l.42.12c-.23-.08.1.05.12.06a4.48 4.48 0 0 1 .47.28 5 5 0 0 1 .48.48c-.06-.07-.17-.26.07.1a4.08 4.08 0 0 1 .32.58c-.08-.19.15.6.13.52s0 .43 0 .43V528.3a5.07 5.07 0 0 1-.19 2c0-.08.14-.26-.06.12a4 4 0 0 1-.34.56c.15-.19-.55.5-.34.34-.12.09-.24.16-.37.24s-.58.26-.31.16a2 2 0 0 1-1 .19c-2.61.07-2.62 4.13 0 4.06a6.79 6.79 0 0 0 6.68-6.72v-5.54c0-2.41 0-4.69-1.81-6.6A6.82 6.82 0 0 0 369 515h-7.49a6.78 6.78 0 0 0-6.78 6.22c-.14 1.69 0 3.41 0 5.1 0 2.15-.23 4.4.91 6.34a6.8 6.8 0 0 0 5.2 3.28 22.06 22.06 0 0 0 2.3 0H369c2.59.06 2.59-4.01 0-4.01z"></path><rect height="16.91" rx="4.66" width="16.91" x="385.93" y="517.05"></rect><path d="M398.19 531.93h-7a4 4 0 0 1-1.65-.19c.26.1-.16-.08-.21-.11a3.58 3.58 0 0 1-.46-.29c.08.06.17.16-.09-.1-.1-.1-.21-.2-.3-.31.17.2-.1-.15-.13-.2s-.19-.32-.26-.48c.11.26-.18-.77-.13-.48a9.75 9.75 0 0 1 0-1.53V521.47c0-.57-.08.19.06-.35a2.65 2.65 0 0 1 1.86-2 7.5 7.5 0 0 1 1.53-.09h2.72c1.45 0 2.95-.12 4.4 0 .38 0-.4-.11.24.06a3.45 3.45 0 0 1 .43.12c-.23-.08.09.05.12.06a3.52 3.52 0 0 1 .46.28 4 4 0 0 1 .48.48c0-.07-.16-.26.07.1a3.28 3.28 0 0 1 .32.58c-.08-.19.15.6.14.52s0 .43 0 .43v6.64a4.88 4.88 0 0 1-.2 2c0-.08.14-.26-.06.12a3.22 3.22 0 0 1-.34.56c.15-.19-.55.5-.34.34-.11.09-.24.16-.36.24s-.59.26-.31.16a2.08 2.08 0 0 1-1 .19c-2.61.07-2.62 4.13 0 4.06a6.8 6.8 0 0 0 6.69-6.72v-5.54c0-2.41 0-4.69-1.81-6.6a6.85 6.85 0 0 0-4.88-2.11h-7.48a6.77 6.77 0 0 0-6.78 6.22c-.14 1.69 0 3.41 0 5.1 0 2.15-.22 4.4.92 6.34A6.77 6.77 0 0 0 390 536a22.22 22.22 0 0 0 2.31 0h5.87c2.63 0 2.63-4.07.01-4.07z"></path><rect height="16.91" rx="4.66" width="16.91" x="415.15" y="517.05"></rect><path d="M427.41 531.93h-7a3.93 3.93 0 0 1-1.64-.19c.25.1-.16-.08-.22-.11s-.31-.18-.46-.29c.09.06.18.16-.09-.1-.1-.1-.2-.2-.29-.31.17.2-.1-.15-.14-.2s-.19-.32-.26-.48c.11.26-.17-.77-.13-.48a11.14 11.14 0 0 1 0-1.53v-6.77c0-.57-.08.19.06-.35a2.64 2.64 0 0 1 1.87-2 7.45 7.45 0 0 1 1.53-.09h2.71c1.45 0 3-.12 4.4 0 .39 0-.39-.11.25.06l.42.12c-.23-.08.1.05.12.06a4.48 4.48 0 0 1 .47.28 4.25 4.25 0 0 1 .47.48c-.05-.07-.16-.26.08.1a4.08 4.08 0 0 1 .32.58c-.08-.19.15.6.13.52s0 .43 0 .43V528.3a5.07 5.07 0 0 1-.19 2c0-.08.14-.26-.06.12a4 4 0 0 1-.34.56c.15-.19-.55.5-.34.34-.12.09-.24.16-.37.24s-.58.26-.31.16a2 2 0 0 1-1 .19c-2.61.07-2.62 4.13 0 4.06a6.79 6.79 0 0 0 6.68-6.72v-5.54c0-2.41 0-4.69-1.81-6.6a6.82 6.82 0 0 0-4.87-2.11h-7.49a6.78 6.78 0 0 0-6.78 6.22c-.14 1.69 0 3.41 0 5.1 0 2.15-.23 4.4.91 6.34a6.8 6.8 0 0 0 5.2 3.28 22.06 22.06 0 0 0 2.3 0h5.88c2.58.06 2.58-4.01-.01-4.01z"></path><rect height="16.91" rx="4.66" width="16.91" x="444.36" y="517.05"></rect><path d="M456.62 531.93h-7a4 4 0 0 1-1.65-.19c.26.1-.16-.08-.21-.11a3.58 3.58 0 0 1-.46-.29c.08.06.17.16-.09-.1-.1-.1-.21-.2-.3-.31.17.2-.1-.15-.13-.2s-.19-.32-.26-.48c.11.26-.18-.77-.13-.48a9.75 9.75 0 0 1 0-1.53V521.47c0-.57-.08.19.06-.35a2.65 2.65 0 0 1 1.86-2 7.5 7.5 0 0 1 1.53-.09h2.72c1.45 0 2.95-.12 4.4 0 .38 0-.4-.11.24.06a3.45 3.45 0 0 1 .43.12c-.23-.08.09.05.12.06a3.52 3.52 0 0 1 .46.28 4 4 0 0 1 .48.48c-.05-.07-.17-.26.07.1a3.28 3.28 0 0 1 .32.58c-.08-.19.15.6.14.52s0 .43 0 .43v6.64a4.88 4.88 0 0 1-.2 2c0-.08.14-.26-.06.12a3.22 3.22 0 0 1-.34.56c.15-.19-.55.5-.34.34-.11.09-.24.16-.36.24s-.59.26-.31.16a2.08 2.08 0 0 1-1 .19c-2.61.07-2.62 4.13 0 4.06a6.8 6.8 0 0 0 6.69-6.72v-5.54c0-2.41 0-4.69-1.81-6.6a6.85 6.85 0 0 0-4.88-2.11h-7.48a6.78 6.78 0 0 0-6.79 6.22c-.13 1.69 0 3.41 0 5.1 0 2.15-.22 4.4.92 6.34a6.77 6.77 0 0 0 5.19 3.28 22.22 22.22 0 0 0 2.31 0h5.87c2.6.06 2.61-4.01-.01-4.01z"></path><rect height="16.91" rx="4.66" width="16.91" x="473.58" y="517.05"></rect><path d="M485.84 531.93h-7a3.93 3.93 0 0 1-1.64-.19c.25.1-.16-.08-.22-.11s-.31-.18-.46-.29c.09.06.18.16-.09-.1-.1-.1-.2-.2-.29-.31.17.2-.1-.15-.14-.2s-.19-.32-.26-.48c.11.26-.17-.77-.13-.48a11.14 11.14 0 0 1 0-1.53v-6.77c0-.57-.08.19.06-.35a2.64 2.64 0 0 1 1.87-2 7.45 7.45 0 0 1 1.53-.09h2.71c1.45 0 3-.12 4.4 0 .39 0-.39-.11.25.06l.42.12c-.23-.08.1.05.12.06a4.48 4.48 0 0 1 .47.28 4.25 4.25 0 0 1 .47.48c-.05-.07-.16-.26.08.1a4.08 4.08 0 0 1 .32.58c-.08-.19.15.6.13.52s0 .43 0 .43V528.3a5.07 5.07 0 0 1-.19 2c0-.08.14-.26-.06.12a4 4 0 0 1-.34.56c.15-.19-.55.5-.34.34-.12.09-.25.16-.37.24s-.58.26-.31.16a2 2 0 0 1-1 .19c-2.61.07-2.62 4.13 0 4.06a6.79 6.79 0 0 0 6.68-6.72v-5.54c0-2.41 0-4.69-1.81-6.6a6.82 6.82 0 0 0-4.87-2.11h-7.49a6.78 6.78 0 0 0-6.78 6.22c-.14 1.69 0 3.41 0 5.1 0 2.15-.23 4.4.91 6.34a6.78 6.78 0 0 0 5.2 3.28 22.06 22.06 0 0 0 2.3 0h5.88c2.6.06 2.6-4.01-.01-4.01z"></path><rect height="16.91" rx="4.66" width="16.91" x="502.79" y="517.05"></rect><path d="M515.05 531.93h-7a4 4 0 0 1-1.65-.19c.26.1-.16-.08-.21-.11a3.58 3.58 0 0 1-.46-.29c.08.06.17.16-.09-.1-.1-.1-.21-.2-.3-.31.17.2-.1-.15-.13-.2s-.19-.32-.26-.48c.11.26-.18-.77-.13-.48a9.75 9.75 0 0 1 0-1.53V521.47c0-.57-.08.19.06-.35a2.65 2.65 0 0 1 1.86-2 7.5 7.5 0 0 1 1.53-.09H511c1.45 0 3-.12 4.4 0 .38 0-.4-.11.24.06a3.45 3.45 0 0 1 .43.12c-.23-.08.09.05.12.06a4.34 4.34 0 0 1 .46.28 4 4 0 0 1 .48.48c-.06-.07-.17-.26.07.1a3.28 3.28 0 0 1 .32.58c-.08-.19.15.6.14.52s0 .43 0 .43v6.64a4.88 4.88 0 0 1-.2 2c0-.08.14-.26-.06.12a3.22 3.22 0 0 1-.34.56c.15-.19-.55.5-.34.34-.11.09-.24.16-.36.24s-.59.26-.31.16a2.1 2.1 0 0 1-1 .19c-2.61.07-2.62 4.13 0 4.06a6.8 6.8 0 0 0 6.69-6.72v-5.54c0-2.41 0-4.69-1.81-6.6a6.85 6.85 0 0 0-4.88-2.11h-7.48a6.78 6.78 0 0 0-6.79 6.22c-.13 1.69 0 3.41 0 5.1 0 2.15-.22 4.4.91 6.34a6.8 6.8 0 0 0 5.2 3.28 22.22 22.22 0 0 0 2.31 0h5.87c2.59.06 2.6-4.01-.02-4.01z"></path><rect height="16.91" rx="4.66" width="16.91" x="532.01" y="517.05"></rect><path d="M544.27 531.93h-7a3.93 3.93 0 0 1-1.64-.19c.25.1-.16-.08-.22-.11s-.31-.18-.46-.29c.09.06.18.16-.09-.1-.1-.1-.2-.2-.29-.31.17.2-.1-.15-.14-.2s-.19-.32-.26-.48c.11.26-.17-.77-.13-.48a11.14 11.14 0 0 1 0-1.53v-6.77c0-.57-.08.19.06-.35a2.64 2.64 0 0 1 1.87-2 7.45 7.45 0 0 1 1.53-.09h2.71c1.45 0 3-.12 4.4 0 .39 0-.39-.11.25.06l.42.12c-.23-.08.1.05.12.06a4.48 4.48 0 0 1 .47.28 4.25 4.25 0 0 1 .47.48c-.05-.07-.16-.26.08.1a4.08 4.08 0 0 1 .32.58c-.08-.19.15.6.13.52s0 .43 0 .43V528.3a5.07 5.07 0 0 1-.19 2c0-.08.14-.26-.06.12a4 4 0 0 1-.34.56c.15-.19-.56.5-.34.34-.12.09-.25.16-.37.24s-.58.26-.31.16a2 2 0 0 1-1 .19c-2.61.07-2.62 4.13 0 4.06a6.79 6.79 0 0 0 6.68-6.72v-5.54c0-2.41 0-4.69-1.81-6.6a6.82 6.82 0 0 0-4.87-2.11h-7.49a6.78 6.78 0 0 0-6.78 6.22c-.14 1.69 0 3.41 0 5.1 0 2.15-.23 4.4.91 6.34a6.78 6.78 0 0 0 5.2 3.28 22.06 22.06 0 0 0 2.3 0h5.88c2.6.06 2.6-4.01-.01-4.01z"></path><rect height="16.91" rx="4.66" width="16.91" x="561.22" y="517.05"></rect><path d="M573.48 531.93h-7a4 4 0 0 1-1.64-.19c.25.1-.16-.08-.21-.11a3.58 3.58 0 0 1-.46-.29c.08.06.17.16-.09-.1-.1-.1-.21-.2-.3-.31.17.2-.1-.15-.13-.2s-.19-.32-.26-.48c.11.26-.18-.77-.13-.48a9.75 9.75 0 0 1 0-1.53V521.47c0-.57-.08.19.06-.35a2.65 2.65 0 0 1 1.86-2 7.45 7.45 0 0 1 1.53-.09h2.72c1.45 0 3-.12 4.4 0 .38 0-.4-.11.24.06a3.45 3.45 0 0 1 .43.12c-.23-.08.09.05.12.06a4.34 4.34 0 0 1 .46.28 4 4 0 0 1 .48.48c-.06-.07-.17-.26.07.1a3.28 3.28 0 0 1 .32.58c-.08-.19.15.6.14.52s0 .43 0 .43v6.64a4.88 4.88 0 0 1-.2 2c0-.08.14-.26-.06.12a3.22 3.22 0 0 1-.34.56c.15-.19-.55.5-.34.34-.11.09-.24.16-.36.24s-.59.26-.31.16a2.1 2.1 0 0 1-1 .19c-2.61.07-2.62 4.13 0 4.06a6.8 6.8 0 0 0 6.69-6.72v-5.54c0-2.41 0-4.69-1.81-6.6a6.85 6.85 0 0 0-4.88-2.11H566a6.78 6.78 0 0 0-6.79 6.22c-.13 1.69 0 3.41 0 5.1 0 2.15-.22 4.4.91 6.34a6.8 6.8 0 0 0 5.2 3.28 22.22 22.22 0 0 0 2.31 0h5.87c2.59.06 2.6-4.01-.02-4.01z"></path><rect height="16.91" rx="4.66" width="16.91" x="590.44" y="517.05"></rect><path d="M602.7 531.93h-7a3.93 3.93 0 0 1-1.64-.19c.25.1-.16-.08-.22-.11s-.31-.18-.46-.29c.09.06.18.16-.09-.1l-.3-.31c.18.2-.09-.15-.13-.2s-.19-.32-.26-.48c.11.26-.17-.77-.13-.48a11.14 11.14 0 0 1 0-1.53v-6.77c0-.57-.08.19.06-.35a2.64 2.64 0 0 1 1.87-2 7.45 7.45 0 0 1 1.53-.09h2.71c1.45 0 3-.12 4.4 0 .39 0-.39-.11.25.06l.42.12c-.23-.08.1.05.12.06a4.48 4.48 0 0 1 .47.28 4.25 4.25 0 0 1 .47.48c0-.07-.16-.26.08.1a4.08 4.08 0 0 1 .32.58c-.08-.19.15.6.13.52s0 .43 0 .43V528.3a5.07 5.07 0 0 1-.19 2c0-.08.14-.26-.06.12a4 4 0 0 1-.34.56c.14-.19-.56.5-.34.34-.12.09-.25.16-.37.24s-.58.26-.31.16a2 2 0 0 1-1 .19c-2.61.07-2.62 4.13 0 4.06a6.79 6.79 0 0 0 6.68-6.72v-5.54c0-2.41 0-4.69-1.81-6.6a6.84 6.84 0 0 0-4.86-2.11h-7.46a6.78 6.78 0 0 0-6.78 6.22c-.14 1.69 0 3.41 0 5.1 0 2.15-.23 4.4.91 6.34a6.78 6.78 0 0 0 5.2 3.28 22.06 22.06 0 0 0 2.3 0h5.88c2.56.06 2.56-4.01-.05-4.01z"></path><rect height="16.91" rx="4.66" width="16.91" x="619.65" y="517.05"></rect><path d="M631.91 531.93h-7a4 4 0 0 1-1.64-.19c.25.1-.16-.08-.21-.11a3.58 3.58 0 0 1-.46-.29c.08.06.17.16-.09-.1-.1-.1-.21-.2-.3-.31.17.2-.1-.15-.13-.2s-.19-.32-.26-.48c.11.26-.18-.77-.13-.48a9.75 9.75 0 0 1 0-1.53V521.47c0-.57-.08.19.06-.35a2.65 2.65 0 0 1 1.86-2 7.45 7.45 0 0 1 1.53-.09h2.72c1.45 0 2.95-.12 4.4 0 .38 0-.4-.11.24.06a3.45 3.45 0 0 1 .43.12c-.23-.08.09.05.12.06a4.34 4.34 0 0 1 .46.28 4 4 0 0 1 .48.48c-.06-.07-.17-.26.07.1a3.28 3.28 0 0 1 .32.58c-.08-.19.15.6.14.52s0 .43 0 .43v6.64a4.88 4.88 0 0 1-.2 2c0-.08.14-.26-.06.12a3.22 3.22 0 0 1-.34.56c.15-.19-.55.5-.34.34-.11.09-.24.16-.36.24s-.59.26-.31.16a2.1 2.1 0 0 1-1 .19c-2.61.07-2.62 4.13 0 4.06a6.8 6.8 0 0 0 6.69-6.72v-5.54c0-2.41 0-4.69-1.81-6.6a6.85 6.85 0 0 0-4.88-2.11h-7.48a6.78 6.78 0 0 0-6.79 6.22c-.13 1.69 0 3.41 0 5.1 0 2.15-.22 4.4.91 6.34a6.8 6.8 0 0 0 5.2 3.28 22.22 22.22 0 0 0 2.31 0h5.87c2.59.06 2.6-4.01-.02-4.01z"></path><rect height="16.91" rx="4.66" width="16.91" x="648.87" y="517.05"></rect><path d="M661.13 531.93h-7a3.93 3.93 0 0 1-1.64-.19c.25.1-.16-.08-.22-.11s-.31-.18-.46-.29c.09.06.18.16-.09-.1l-.3-.31c.18.2-.09-.15-.13-.2s-.19-.32-.26-.48c.11.26-.17-.77-.13-.48a11.14 11.14 0 0 1 0-1.53v-6.77c0-.57-.08.19.06-.35a2.64 2.64 0 0 1 1.87-2 7.45 7.45 0 0 1 1.53-.09h2.71c1.45 0 3-.12 4.4 0 .39 0-.39-.11.25.06l.42.12c-.23-.08.1.05.12.06a4.48 4.48 0 0 1 .47.28 4.25 4.25 0 0 1 .47.48c-.05-.07-.16-.26.08.1a4.08 4.08 0 0 1 .32.58c-.09-.19.15.6.13.52s0 .43 0 .43v6.64a5.07 5.07 0 0 1-.19 2c0-.08.14-.26-.06.12a4 4 0 0 1-.34.56c.14-.19-.56.5-.34.34-.12.09-.25.16-.37.24s-.58.26-.31.16a2 2 0 0 1-1 .19c-2.61.07-2.62 4.13 0 4.06a6.79 6.79 0 0 0 6.68-6.72v-5.54c0-2.41 0-4.69-1.81-6.6a6.84 6.84 0 0 0-4.87-2.11H653.64a6.78 6.78 0 0 0-6.78 6.22c-.14 1.69 0 3.41 0 5.1 0 2.15-.23 4.4.91 6.34A6.78 6.78 0 0 0 653 536a22.06 22.06 0 0 0 2.3 0h5.88c2.56 0 2.56-4.07-.05-4.07zM363.02 517.05h265.09v16.91H363.02z"></path><path d="M628.11 531.93H373.78c-3.42 0-6.89-.17-10.31 0h-.45l2 2v-16.88l-2 2h254.33c3.42 0 6.89.17 10.31 0h.45l-2-2V534c0 2.62 4.06 2.62 4.06 0v-16.95a2.06 2.06 0 0 0-2-2H373.78c-3.43 0-6.87-.07-10.31 0H363a2.06 2.06 0 0 0-2 2V534a2.06 2.06 0 0 0 2 2h254.35c3.43 0 6.87.07 10.31 0h.45c2.61 0 2.62-4.07 0-4.07z"></path></g><path d="M160.54 195c-23.82 8.15-46.39 21.8-61.32 42.07S78 284.81 86.55 308.48c8.46 23.38 30.54 40.41 54.75 46s50.07.81 72.47-10c2.73-1.31 5.66-2.75 8.64-2.23s5.17 2.77 7.34 4.8a75.59 75.59 0 0 0 38.41 19.21 167.85 167.85 0 0 1-27.82-34.56c26.7-11.32 49.41-33.75 57.08-61.72s-1.8-60.89-25.57-77.5c-23.06-16.11-50.7-14.34-78.17-8.23-8.34 1.86-25.78 6.34-33.14 10.68" fill="#000000" class="fill-000000"></path><path d="M160.31 194.15c-22.25 7.53-43.56 19.73-58.69 38-15 18.06-23.19 42.27-19.21 65.69 3.74 22 19 40.21 38.48 50.48 22 11.64 48.05 12.27 71.74 5.69a132.66 132.66 0 0 0 18.23-6.6c3-1.31 6-3.31 9.25-3.75s5.61 1.6 7.8 3.64a79.54 79.54 0 0 0 31 18.24 75.26 75.26 0 0 0 8.87 2.12c1.27.22 2.41-1.28 1.34-2.3a167.48 167.48 0 0 1-27.64-34.27l-.48 1.83a105.88 105.88 0 0 0 44.7-35.48c10.94-15.37 16.83-34 15.4-52.89-1.37-18.08-9-36-22.53-48.28a67.29 67.29 0 0 0-26.83-14.62c-10.23-2.89-21-3.46-31.57-2.72a188 188 0 0 0-30.46 5 159.43 159.43 0 0 0-25.13 7.75 40.09 40.09 0 0 0-4.65 2.29 1.2 1.2 0 0 0 1.21 2.08 55.63 55.63 0 0 1 10.45-4.37c4.24-1.42 8.55-2.64 12.88-3.78a217.12 217.12 0 0 1 27.41-5.56c10.32-1.33 20.89-1.7 31.18 0a68.41 68.41 0 0 1 28.7 11.72c14.45 10.36 23.26 27.08 26 44.42a77 77 0 0 1-10.68 52c-9.73 16-24.45 28.8-41.15 37.18-2.07 1-4.18 2-6.31 2.91a1.36 1.36 0 0 0-.48 1.83 171.8 171.8 0 0 0 28 34.87l1.33-2.3a75.13 75.13 0 0 1-32.76-14.55c-2.26-1.77-4.34-3.72-6.46-5.65s-4.43-3.66-7.34-3.94c-3.24-.31-6.25 1.23-9.08 2.58s-5.82 2.67-8.8 3.83c-23 9-49.24 11.65-72.68 2.82-19.71-7.42-37.09-22.87-44-43.1-7.57-22.19-2.07-47.23 10.73-66.37 13-19.43 33.3-33.14 54.71-41.81 2.61-1.06 5.26-2 7.92-3 1.06-.36.61-2.05-.47-1.69z" fill="#000000" class="fill-000000"></path><path d="m583.63 124.64-153.47-4.52c-21.44-.64-45.65-.19-60.43 15.34-10.29 10.82-13.37 26.5-14.93 41.34a315.65 315.65 0 0 0 8.69 113.39c1.85 7 4 14.13 8.41 19.9 7.45 9.83 20 14.19 31.94 17.19a266 266 0 0 0 62.05 8l5.77 31.09 8.3-25.66c.51-1.61 1.15-3.36 2.64-4.16a6.71 6.71 0 0 1 3.24-.53l57.08.38c9.59.07 19.31.11 28.59-2.3 17-4.43 31.18-17 40.56-31.86s14.5-32.08 18.27-49.28c4.49-20.51 6.86-41.4 8.63-62.3 1.4-16.45 4.07-36.42-8.42-49.55-11.63-12.23-31-14.63-46.92-16.43" fill="#ffffff" class="fill-ffffff"></path><path d="M583.63 123.9q-54.64-1.83-109.3-3.58c-17.43-.56-34.88-1.43-52.32-1.59-13.45-.12-27.5.68-39.91 6.38a42.86 42.86 0 0 0-15.94 12.48 54.56 54.56 0 0 0-9.16 19.07 128.19 128.19 0 0 0-3.7 21.76c-.86 8.62-1.37 17.29-1.51 26a317.69 317.69 0 0 0 3.44 52.2q1.9 12.87 4.88 25.55c1.81 7.73 3.6 15.73 7.13 22.89 6.61 13.4 20.4 19.36 34.12 23a262.11 262.11 0 0 0 51.33 8.1q6.58.39 13.19.45l-1.27-1 5.77 31.1c.25 1.36 2.18 1.14 2.55 0l6.9-21.39c.53-1.61 1-3.24 1.57-4.84s1.22-2.91 3-3.12a38.76 38.76 0 0 1 4.82 0h6.22l44.64.29c13.55.09 27.26.27 39.94-5.16 10.7-4.58 19.93-12.25 27.19-21.28 16.8-20.91 23.16-48.47 27.51-74.36 2.43-14.49 4-29.1 5.3-43.73 1-11.12 2.44-22.49.57-33.6a38.31 38.31 0 0 0-5.65-15 36.83 36.83 0 0 0-11.79-10.94c-9.5-5.7-20.82-7.94-31.68-9.28-2.61-.32-5.23-.57-7.85-.86-1.47-.17-1.46 2.14 0 2.3 20.53 2.34 46.92 6.39 53.47 29.59 3 10.51 1.8 21.73.85 32.45-1.25 14.13-2.58 28.26-4.72 42.29a292.82 292.82 0 0 1-8.8 40.71c-3.74 12.4-8.84 24.54-16.43 35.11-6.71 9.34-15.42 17.44-25.71 22.65a57.81 57.81 0 0 1-17.49 5.51c-7.06 1-14.23 1-21.34 1l-44.05-.3-10.74-.07c-2.95 0-6.36-.51-8.36 2.13-1.74 2.29-2.31 5.63-3.18 8.31l-3.46 10.69q-1.66 5.1-3.27 10.19h2.55l-5.77-31.09a1.34 1.34 0 0 0-1.28-1 265.46 265.46 0 0 1-52.05-5.69c-13.55-2.87-29.26-6.12-39.06-16.75-5.19-5.63-7.67-13-9.64-20.24-2.21-8.14-4.05-16.38-5.58-24.67a315 315 0 0 1-5.11-50.81q-.24-12.73.54-25.46a219 219 0 0 1 2.49-23.56C359.86 153 365 139.15 377 131c11.09-7.51 24.94-9.34 38-9.73 7.49-.22 15 .06 22.46.26l26.62.72q53.24 1.44 106.47 2.81l13 .33a.74.74 0 0 0 0-1.48z" fill="#000000" class="fill-000000"></path><path d="M812.52 220a139.71 139.71 0 0 0-68.47-7.66C724.6 215 702.83 221.6 690.49 238a36.57 36.57 0 0 0-7.43 22.68c.12 7.6 2.56 15.36 7.77 21a24.31 24.31 0 0 0 9.37 6.27c4.41 1.66 10 1.4 13.29-2.37 5.21-5.92.28-15.13-6.29-17.44-4.82-1.7-10.25-.25-14.59 2.09a40.69 40.69 0 0 0-11.7 9.92c-6.31 7.62-10.45 17.28-10.45 27.26a32.94 32.94 0 0 0 11.33 24.9c6.85 5.95 16.62 9.35 25.57 6.61 4.62-1.41 8.9-4.92 9.12-10.07a8.29 8.29 0 0 0-2.57-6.52 9.91 9.91 0 0 0-5.23-2.17c-10.26-1.48-19.89 4.76-24.35 13.82-8.14 16.54-.49 39.5 16.16 47.58a27.23 27.23 0 0 0 15.31 2.55 28.79 28.79 0 0 0 7.92-2.19 10.83 10.83 0 0 0 4.76-3.55c3.92-5.5 0-14.07-6.62-14.9-4.37-.55-8.7 2.42-10.94 6a16.79 16.79 0 0 0-1.92 12.11 19.43 19.43 0 0 0 6.5 11.06 21.89 21.89 0 0 0 13.5 4.75 27.79 27.79 0 0 0 14-3.54l-2.12-2.11A100.74 100.74 0 0 1 709.75 431c-1.28 1-.61 3.23 1.16 2.76a78.23 78.23 0 0 0 41.45-27.64A75.14 75.14 0 0 0 760 394h-2.45c7.14 11.11 21.61 15.29 34.12 12.57 13.93-3 25.54-14 32.57-26 3.58-6.12 5.7-14.58-.21-20.11a8 8 0 0 0-8.2-1.89 8 8 0 0 0-5.18 7c-.06 3 1.84 5.69 4 7.6a19.22 19.22 0 0 0 8.51 4.38 41.37 41.37 0 0 0 18.75-.12c12.22-2.85 23.43-10.95 29.34-22.1 5.17-9.77 6-23-.67-32.29-3.14-4.4-8.13-7.69-13.64-8a6.67 6.67 0 0 0-6.89 5.42c-.57 3.61 2.5 5.95 5.46 7.23 6.2 2.69 13.2 1.34 19-1.8a35.9 35.9 0 0 0 14.27-15.1 44.23 44.23 0 0 0 0-41.25 45.25 45.25 0 0 0-13.29-15.1 42.55 42.55 0 0 0-8.93-4.94c-3.51-1.44-7.29-2.4-11-1.18-4.89 1.6-7.16 6.34-5.79 11.22a11.8 11.8 0 0 0 11 8.77c7 .23 13.37-4.78 17-10.4a29.85 29.85 0 0 0 4.64-15c.47-10.51-4-21.61-12.23-28.31-4.25-3.45-9.79-6.1-15.36-6.17-6-.08-12.16 4.25-11.08 10.79a12.64 12.64 0 0 0 9.89 9.91c5.92 1 11.09-3.39 13.29-8.57a19.33 19.33 0 0 0-2-18.22c-4-6.16-10.29-10.52-16.68-13.89a76.26 76.26 0 0 0-45.71-8.11c-12.93 1.76-26 7.87-33.87 18.59a28.73 28.73 0 0 0-5.75 17.51 27.67 27.67 0 0 0 7.32 17.72 26.14 26.14 0 0 0 35.06 4.11 27.62 27.62 0 0 0 10.9-14.69c.43-1.41-1.77-2-2.2-.61-3.36 11-15.43 18.67-26.83 17.21s-20.8-12-21.24-23.39c-.44-11.57 7.63-21 17.09-26.65 11.13-6.61 24.39-8.4 37.13-7.11a73.65 73.65 0 0 1 20.19 5 58 58 0 0 1 17.19 10.29c4.35 4 8 9.28 7.85 15.38-.13 4.82-2.64 10.28-7.44 12-4.13 1.51-8.39-.95-10.39-4.63a6.54 6.54 0 0 1-.57-5.5c1-2.45 3.85-3.83 6.35-4.13 4.82-.56 10.09 1.81 13.9 4.61a29.47 29.47 0 0 1 8.6 10.43c4.08 8 5 18.19 1.17 26.49-2.33 5-6.46 9.7-11.83 11.52-2.56.87-5.67 1.15-8.14-.16a9.07 9.07 0 0 1-3.76-3.92c-1.71-3.28-1.29-7.49 2.44-9.06 3.16-1.32 6.43-.41 9.46.78a39.44 39.44 0 0 1 8 4.31 41.15 41.15 0 0 1 17.59 30.3c.91 12.45-3.9 26.35-14.08 34.06-4.53 3.44-10.42 5.95-16.2 5.14a14.25 14.25 0 0 1-3.94-1.14c-1.21-.55-2.77-1.33-3.36-2.61a3 3 0 0 1 1.09-3.44 4.66 4.66 0 0 1 3.85-.62c9.89 1.83 14.29 12.06 14.29 21.22 0 10.78-6 20.61-14.37 27.14-8.65 6.79-20.15 10.37-31.12 8.8a20.85 20.85 0 0 1-8.14-2.63c-2.21-1.37-4.61-3.49-5.18-6.14a5 5 0 0 1 3.59-5.53c2.92-.84 5.39 1.37 6.69 3.76 3.28 6.06-.93 13-4.36 18a58.22 58.22 0 0 1-13.11 13.83 40.24 40.24 0 0 1-16.81 7.53 32.58 32.58 0 0 1-16.88-1.6 25.53 25.53 0 0 1-12.69-10 1.43 1.43 0 0 0-2.45 0A75.76 75.76 0 0 1 723 426.12a72.28 72.28 0 0 1-12.93 4.74l1.16 2.76a103.45 103.45 0 0 0 32.22-40.33 1.56 1.56 0 0 0-2.11-2.11c-7.39 4.09-17.9 4.73-24.46-1.37-5.23-4.86-7.57-14.41-2.34-20.16 2.1-2.31 5.66-4.2 8.71-2.61a7.13 7.13 0 0 1 3.68 5.89c.15 3.35-2.14 5.23-5 6.42a24.81 24.81 0 0 1-14.24 1.46c-16.67-3.38-26.2-22.86-23-38.67 1.64-8.06 7-15.76 15.12-18.32a19 19 0 0 1 7.34-.81 8.06 8.06 0 0 1 4.67 1.54 5.71 5.71 0 0 1 1.24 6 8.51 8.51 0 0 1-4.21 4.49c-7.19 3.84-16.49 1.28-22.77-3.13a30 30 0 0 1-12.49-20.48c-1.1-8.81 1.54-17.73 6.3-25.12a44.93 44.93 0 0 1 8.89-10.07c3.58-3 8-5.64 12.8-6a10.2 10.2 0 0 1 9.22 3.94c1.69 2.27 2.76 5.56 1.42 8.25-1.95 3.92-7.08 4.3-10.77 3a21.34 21.34 0 0 1-8.26-5.24c-9.68-9.85-9.53-26.76-2.51-38 9.61-15.38 28.06-22.54 45-26.17a136.62 136.62 0 0 1 76.29 5.61c1.07.4 1.52-1.29.47-1.69z" fill="#ffffff" class="fill-ffffff"></path><g fill="#32a16b" class="fill-18c4ff"><path d="m190.39 229-24.47 8.6a6.26 6.26 0 0 0-3.15 1.88 6.14 6.14 0 0 0-.9 2.94l-4.18 32.31 13.36-3.6-3 21.65 15.43-3.57a111.7 111.7 0 0 0-.17 34.77q13.2-26.91 24.14-54.85a31.93 31.93 0 0 0-11 2.59l4.91-23a23.13 23.13 0 0 0-12 2.94l4-23.93"></path><path d="m190.18 228.17-13 4.45-6.37 2.19c-2.08.71-4.22 1.28-6.27 2.07a5.35 5.35 0 0 0-3.36 3.09c-.7 1.87-.72 4.11-1 6.08-.61 4.54-1.22 9.07-1.89 13.6-.75 5-1.58 10-2.22 15a1.58 1.58 0 0 0 2 1.52c4.43-1.34 8.84-2.64 13.32-3.76l-1.78-1.36c-.65 7.13-1.77 14.23-2.73 21.32a1.25 1.25 0 0 0 1.51 1.52l15.44-3.57-1.51-1.52a114.64 114.64 0 0 0-.17 35.42 1.24 1.24 0 0 0 2.24.29q13.26-27 24.25-55.13a1.23 1.23 0 0 0-1.17-1.55 34.47 34.47 0 0 0-11.62 2.76l1.79 1.37 4.9-23a1.23 1.23 0 0 0-1.17-1.54 24.8 24.8 0 0 0-12.59 3.1l1.78 1.38 4-23.94c.25-1.53-2.09-2.19-2.35-.64l-3.95 23.93a1.23 1.23 0 0 0 1.74 1.45 22.45 22.45 0 0 1 11.37-2.77l-1.18-1.54-4.91 22.95a1.24 1.24 0 0 0 1.8 1.38 31.45 31.45 0 0 1 10.39-2.42l-1.18-1.54q-10.87 27.75-24 54.55l2.24.29a110.84 110.84 0 0 1 .18-34.11 1.25 1.25 0 0 0-1.51-1.49l-15.43 3.56 1.52 1.52c1-7.21 1.82-14.45 3.11-21.6a1.42 1.42 0 0 0-1.73-1.73c-4.44 1.28-8.9 2.37-13.4 3.44l2 1.51c1.08-8.3 1.79-16.65 2.84-25l.77-6.12c.26-2 .37-3.66 2.38-4.62a124.17 124.17 0 0 1 11.74-4.34l13.62-4.9c1-.34.55-1.88-.43-1.55zM123.69 252.91c5 1.26 10.08 2.56 15.12 3.81a1.16 1.16 0 0 0 1.46-1.11 61.84 61.84 0 0 0-1.43-7.87l-2 1.14a32.05 32.05 0 0 0 7.5 6.33c1.31.79 2.49-1.24 1.2-2.05a31.06 31.06 0 0 1-7-5.94c-.81-.91-2.24.06-2 1.15a55.71 55.71 0 0 1 1.39 7.24l1.46-1.11c-5.09-1.08-10.19-2.13-15.29-3.21-1-.22-1.49 1.35-.44 1.62zM227.47 212a75.24 75.24 0 0 0-6.07 6.42c-2 2.19-3.87 4.43-5.77 6.68a1.1 1.1 0 0 0 .77 1.86 36.53 36.53 0 0 0 10.8-1.48l-1.4-1.4a30.43 30.43 0 0 1-7.89 12.09c-1 1 .46 2.33 1.51 1.51 4.12-3.18 7-8.09 8.58-13a1.16 1.16 0 0 0-1.41-1.41 41.69 41.69 0 0 1-10.19 1.5l.94 1.64q2.66-3.53 5.5-6.89c1.85-2.19 3.88-4.26 5.65-6.52a.72.72 0 0 0-1-1zM144.94 232.24l2.49 3.54a.79.79 0 0 0 1 .27.77.77 0 0 0 .28-1l-2.61-3.47a.69.69 0 0 0-1.2.7zM158.93 220l.93 4.55a.75.75 0 0 0 1.45-.4l-1-4.53a.72.72 0 1 0-1.39.38zM176.62 210.69l.49 4.53a.79.79 0 1 0 1.56-.21l-.62-4.51a.73.73 0 0 0-1.43.19zM201.38 203l-.64 4.5a.84.84 0 1 0 1.64.23l.43-4.53a.73.73 0 0 0-1.43-.2zM211.58 217.67a.93.93 0 0 0 0-1.86.93.93 0 0 0 0 1.86zM138 287.6h2a.85.85 0 0 0 .84-.84.85.85 0 0 0-.84-.83h-2a.87.87 0 0 0-.6.24.85.85 0 0 0 .6 1.45zM221.14 251.82l.33-.19.14-.07a3.69 3.69 0 0 1 .65-.18H223.42a5.28 5.28 0 0 1 .66.16l.32.12h.05l.17.09.29.17s.29.21.17.11a5.39 5.39 0 0 1 .54.53.86.86 0 0 0 1.21 0 .87.87 0 0 0 0-1.21 5.2 5.2 0 0 0-6.54-.87.79.79 0 1 0 .8 1.37zM224.72 269.63v2a1 1 0 0 0 .28.68.93.93 0 0 0 .68.28 1 1 0 0 0 1-1v-2a1 1 0 0 0-1-1 1 1 0 0 0-1 1z"></path><circle cx="500" cy="223.99" r="55.35"></circle></g><ellipse cx="481.3" cy="214.85" rx="4.53" ry="8.44" fill="#000000" class="fill-000000"></ellipse><path d="M483.8 214.85a12.21 12.21 0 0 1-.66 4.06 6.71 6.71 0 0 1-.65 1.33c-.06.09-.43.57-.21.31-.08.1-.17.19-.25.28s-.48.39-.13.14c-.12.09-.66.34-.23.18-.14.06-.69.3-.21.1a1.92 1.92 0 0 1-.24 0c-.27 0 .34.1.08 0l-.3-.08c-.11 0 .16.2 0 0a1.92 1.92 0 0 0-.28-.18c.31.22.06.05 0 0s-.52-.57-.3-.3a7 7 0 0 1-.83-1.44 12.45 12.45 0 0 1-.3-7.85 6.18 6.18 0 0 1 .58-1.46 6.52 6.52 0 0 1 .43-.72c0-.05.25-.29 0-.05.1-.12.21-.23.32-.34s.33-.28.13-.13.09 0 .14-.08c.4-.27-.2 0 .24-.12s-.2 0 .15 0h-.08l.45.13c-.5-.18.32.26.16.13s.09.09.13.13.22.22.32.34c-.21-.24 0 0 0 .05s.19.29.27.44a5.61 5.61 0 0 1 .45.88 12.42 12.42 0 0 1 .76 4.34c0 2.61 4.09 2.62 4.06 0 0-3.44-.93-7.73-4.05-9.73s-6.32.28-7.67 3.13a16.06 16.06 0 0 0-.64 11.63c1 3 3.59 6.36 7.18 5.22 4-1.29 5.15-6.61 5.18-10.25.09-2.71-3.97-2.71-4-.09z" fill="#000000" class="fill-000000"></path><ellipse cx="518.7" cy="214.85" rx="4.53" ry="8.44" fill="#000000" class="fill-000000"></ellipse><path d="M521.2 214.85a12.21 12.21 0 0 1-.66 4.06 6.71 6.71 0 0 1-.65 1.33c-.06.09-.43.57-.21.31-.08.1-.17.19-.25.28s-.48.39-.13.14c-.12.09-.66.34-.23.18-.14.06-.69.3-.21.1a1.92 1.92 0 0 1-.24 0c-.27 0 .34.1.08 0l-.3-.08c-.11 0 .16.2 0 0a1.92 1.92 0 0 0-.28-.18c.31.22.06.05 0 0s-.52-.57-.3-.3a7 7 0 0 1-.83-1.44 12.45 12.45 0 0 1-.3-7.85 6.18 6.18 0 0 1 .58-1.46 6.52 6.52 0 0 1 .43-.72c0-.05.25-.29 0-.05.1-.12.21-.23.32-.34s.33-.28.13-.13.09 0 .14-.08c.4-.27-.2 0 .24-.12s-.2 0 .15 0h-.08l.45.13c-.5-.18.32.26.16.13s.09.09.13.13.22.22.32.34c-.21-.24 0 0 0 .05s.19.29.27.44a5.61 5.61 0 0 1 .45.88 12.42 12.42 0 0 1 .76 4.34c0 2.61 4.09 2.62 4.06 0 0-3.44-.93-7.73-4-9.73s-6.31.28-7.67 3.13a16.06 16.06 0 0 0-.64 11.63c1 3 3.59 6.36 7.18 5.22 4-1.29 5.15-6.61 5.18-10.25.04-2.71-4.02-2.71-4.05-.09zM474.76 199.19c.59.51 1.26.92 1.86 1.41s1.21 1 1.82 1.47c1.22 1 2.48 1.92 3.7 2.9s2.37 1.93 3.53 2.92 2.44 2.51 3.95 3.15a1.73 1.73 0 0 0 1.72-.46l.11-.13a1.64 1.64 0 0 0-.32-2.52 6.87 6.87 0 0 0-.67-.33 9.06 9.06 0 0 1-1-.78c-.61-.5-1.24-1-1.86-1.46-1.24-1-2.51-1.9-3.79-2.81s-2.5-1.75-3.81-2.53c-.64-.39-1.27-.76-1.93-1.1s-1.44-.86-2.19-1.21-2 .73-1.14 1.48z" fill="#000000" class="fill-000000"></path><path d="M525.1 195.38a13.93 13.93 0 0 1-3.34 3.25c-1.56 1.1-3.1 2.21-4.63 3.36l-4.54 3.43-2.26 1.73c-.94.73-2 1.31-2.34 2.5a1.79 1.79 0 0 0 1.72 2.26 3.09 3.09 0 0 0 1.88-.79c.37-.31.72-.63 1.07-1l2.26-2c1.54-1.37 3.06-2.75 4.59-4.13s2.84-2.59 4.19-4a10.5 10.5 0 0 0 2.87-4.08c.28-.93-1-1.31-1.47-.62zM486.51 247.87a15.32 15.32 0 0 1 1-5.44 14.64 14.64 0 0 1 2.5-3.77 17.28 17.28 0 0 1 8-4.94 20 20 0 0 1 9.19-.56 12.5 12.5 0 0 1 6.94 3.89c1.58 1.63 4.19-.45 3.1-2.4-1.77-3.18-5.52-4.77-9-5.29a24 24 0 0 0-11.57 1.16 19.11 19.11 0 0 0-9.19 6.65c-2.07 2.84-3.83 7.42-2.53 10.91a.79.79 0 0 0 1.55-.21z" fill="#000000" class="fill-000000"></path><path d="M485.05 250.81a2.09 2.09 0 0 1 .08-.23l-.07.18a1.87 1.87 0 0 1 .22-.39l-.12.16a2 2 0 0 1 .36-.35l-.17.12a2.13 2.13 0 0 1 .46-.27l-.2.09a1.55 1.55 0 0 1 .48-.13h-.23a1.45 1.45 0 0 1 .36 0 1 1 0 0 0 .64-.27.91.91 0 0 0 0-1.27.9.9 0 0 0-.64-.26 3 3 0 0 0-1.05.26 2.77 2.77 0 0 0-1.5 2 .54.54 0 0 0 0 .28.62.62 0 0 0 .09.27.75.75 0 0 0 .43.33.72.72 0 0 0 .88-.5zM515.7 238.45l.12-.19-.26.26c-.21.12 0 0 0 0a.81.81 0 0 0 .3-.21l.18-.21.38-.39c.27-.25.53-.51.82-.74.1-.09 0 0-.07 0l.13-.1.23-.16c.14-.09.29-.19.44-.27a9.63 9.63 0 0 1 1-.5l-.25.1h.1a1.14 1.14 0 0 0 .62-.48 1 1 0 0 0 .11-.81 1.06 1.06 0 0 0-.48-.62 1 1 0 0 0-.81-.11 7.6 7.6 0 0 0-1.27.65 10 10 0 0 0-1.09.85 6.77 6.77 0 0 0-.91 1c-.11.17-.22.34-.32.51s-.09.16-.13.24a1 1 0 0 0-.14.47v.09l.1-.36-.11.19a.72.72 0 0 0 .26 1 .73.73 0 0 0 1-.25z" fill="#000000" class="fill-000000"></path><path d="M807.38 316.59a100 100 0 0 1-30.9 37.82c-2.55 1.88-5.85 3.71-8.71 2.35-3.84-1.85-3.29-7.47-1.84-11.48a85.88 85.88 0 0 1 9.67-18.94c1 1.35-.1 3.21-1.27 4.39a21.91 21.91 0 0 1-23.33 4.63c-2.71-1.14-5.41-3.18-5.85-6.09s2.85-6.08 5.39-4.59c-1.23 2.65-5.35 1.59-7.45-.44-2.77-2.65-4.6-6.53-4-10.31s4.09-7.16 7.91-6.85c-2.51 2.89-7.61 2.46-10.13-.42s-2.57-7.4-.74-10.77a16 16 0 0 1 8.8-7c.49 2.24-2 4.37-4.24 4a5.46 5.46 0 0 1-4.2-4.83 10.72 10.72 0 0 1 1.68-6.54c3.23-5.63 8.85-9.49 14.71-12.28a65.67 65.67 0 0 1 44-4.28" fill="#ffffff" class="fill-ffffff"></path><path d="M806.68 316.18a103.92 103.92 0 0 1-20.6 28.42q-3.18 3.09-6.61 5.88c-2.24 1.83-4.64 4-7.38 5-2.48.93-5 .23-5.72-2.49a12.3 12.3 0 0 1 .61-6.76 78.38 78.38 0 0 1 9.76-19.23h-2.27c.85 1.43-1.49 3.25-2.42 4a19.82 19.82 0 0 1-4.36 2.7 21.12 21.12 0 0 1-10.19 1.83c-3.3-.23-7.1-1.25-9.52-3.65-1.1-1.1-2-2.71-1.35-4.28.48-1.15 1.87-2.49 3.19-1.8l-.48-1.83c-.87 1.66-3.21.76-4.43 0a10.92 10.92 0 0 1-4.19-5.78 7.93 7.93 0 0 1 .64-6.72 6.27 6.27 0 0 1 5.58-3.1l-.94-2.28a5.41 5.41 0 0 1-6 1.17 6.37 6.37 0 0 1-3.88-5.49c-.57-5.68 4.19-9.78 9.06-11.61l-1.65-.93a2.29 2.29 0 0 1-1.62 2.21 2.76 2.76 0 0 1-2.88-.81c-1.86-1.85-1.54-4.67-.59-6.89 1.92-4.51 5.87-8 9.93-10.56a61.09 61.09 0 0 1 30-8.82 64.13 64.13 0 0 1 18.09 1.9c1.67.42 2.39-2.17.71-2.59a67.35 67.35 0 0 0-38.17 1.66 50.66 50.66 0 0 0-16 8.58c-4.14 3.46-9.09 9.4-7.66 15.23.67 2.72 3.09 5.27 6 5.17a5.05 5.05 0 0 0 4.85-5.75 1.34 1.34 0 0 0-1.65-.94c-6.46 2.42-12.33 8.13-10.81 15.61a8.81 8.81 0 0 0 5.95 6.75 8 8 0 0 0 8.24-2 1.35 1.35 0 0 0-.95-2.28 8.94 8.94 0 0 0-7.79 4.27 10.69 10.69 0 0 0-.74 9.67c1.14 2.95 3.29 5.91 6.26 7.2 2.41 1.05 5.6 1.1 7-1.53a1.35 1.35 0 0 0-.47-1.82c-3.1-1.61-6.56.81-7.29 4-.86 3.77 2.32 7 5.39 8.53 6.63 3.37 15 2.78 21.38-.86 2.9-1.65 8.45-5.56 6.09-9.5a1.33 1.33 0 0 0-2.27 0 85 85 0 0 0-9.8 19.25c-1.5 4.23-2.28 11 2.82 13.11 3.09 1.3 6.41-.25 9-2a82.43 82.43 0 0 0 7.3-5.89A97.88 97.88 0 0 0 797 335.72 96.62 96.62 0 0 0 808.08 317c.42-.94-.93-1.77-1.4-.82z" fill="#ffffff" class="fill-ffffff"></path><path d="M819.12 317.93a67.31 67.31 0 0 0 13.52-4.08 5 5 0 0 0 1.85-1.13c1.08-1.2.83-3.05.51-4.63q-4.56-22.5-10-44.8c-.61-2.51-1.47-5.33-3.8-6.46a8.28 8.28 0 0 0-3.87-.55c-6.58.18-13.4 1.51-18.61 5.54a4.06 4.06 0 0 0-1.58 1.95 4.46 4.46 0 0 0 .11 2.2q5 22.84 10 45.69c.48 2.17 1 4.44 2.46 6.12s4.18 2.49 6 1.15" fill="#000000" class="fill-000000"></path><path d="M819.31 318.62a59 59 0 0 0 8.73-2q2.15-.64 4.23-1.44a8 8 0 0 0 3-1.64c1.77-1.81 1.11-4.54.67-6.74-.62-3.07-1.24-6.13-1.88-9.19q-1.92-9.18-4-18.33c-1.33-5.9-2.49-11.92-4.18-17.74-.6-2.1-1.55-4.27-3.44-5.53-2.19-1.46-5.12-1.15-7.63-1a33.2 33.2 0 0 0-14.8 4.19c-2 1.21-4.45 2.77-4.41 5.41a22.73 22.73 0 0 0 .84 4.38l1 4.62 4 18.48c1.5 6.9 2.94 13.82 4.51 20.71.58 2.52 1.45 5.43 3.72 6.94s4.86 1.72 6.91.09c1.2-.95-.34-2.79-1.61-2.07-1.87 1.06-3.58-.15-4.65-1.72-1.22-1.79-1.51-4.2-2-6.27l-3.55-16-3.56-16-1.83-8.26c-.29-1.29-.6-2.59-.86-3.89a2.37 2.37 0 0 1 1.15-2.82 26.68 26.68 0 0 1 12.8-4.77 23.2 23.2 0 0 1 7-.27c2.18.42 3.1 2.42 3.68 4.35 1.51 5 2.51 10.17 3.69 15.24q1.86 7.94 3.6 15.89 1 4.46 1.93 8.92c.3 1.45.61 2.9.91 4.35a16.06 16.06 0 0 1 .63 4.07c-.09 1.52-1.17 2-2.41 2.54s-2.73 1.14-4.13 1.64a79.7 79.7 0 0 1-8.59 2.51c-.92.22-.51 1.51.38 1.38z" fill="#000000" class="fill-000000"></path><g fill="#32a16b" class="fill-18c4ff"><path d="M769.71 336.63c2.53-2.72 2.79-7 4.09-10.32a29.41 29.41 0 0 1 6.32-9.28c.86-.91-.41-2.09-1.35-1.34a22.62 22.62 0 0 0-6.51 9.07 34 34 0 0 0-1.66 5.4 23.78 23.78 0 0 1-2 5.61c-.34.69.54 1.48 1.12.86zM763.84 331.75c3.44-.74 4.9-5.08 3.58-8.1-1.66-3.83-6.64-4.82-10.24-3.47a1.09 1.09 0 0 0-.48 1.8c2.17 2 4.88-.45 6.44-2 2-2 3.88-4.64 3.6-7.6a7.22 7.22 0 0 0-4.81-5.83c-3.13-1.25-6.57-.57-9.75.13a1.22 1.22 0 0 0 .32 2.38c6-.42 13.6-5.41 12.76-12.3-1-8.25-11.48-6-16.74-3.8a1.23 1.23 0 0 0 .62 2.28 13.65 13.65 0 0 0 11.57-10.3c.63-2.73.54-5.83-2.52-6.88a10.88 10.88 0 0 0-9.24 1.2 1.08 1.08 0 0 0 1.09 1.86 9.68 9.68 0 0 1 7.2-.89c1.31.4 1.47 1.22 1.4 2.51a10 10 0 0 1-.62 2.9 11.2 11.2 0 0 1-8.88 7.16l.61 2.27c3.62-1.53 12.93-4 13.12 2.42.15 5.17-5.81 8.81-10.37 9.14l.33 2.38c3.52-.78 9.64-1.87 11.33 2.6.74 2-.32 4-1.52 5.56-.56.7-3.42 4.22-4.42 3.32l-.47 1.8c2.56-1 6.2-.77 7.71 1.89 1.24 2.15.41 5.33-2 6.23a.71.71 0 0 0 .38 1.37zM410.77 178.5c-5.55 1.19-8.52 6.84-10.95 11.44-3 5.72-5.58 11.86-6.05 18.37-.41 5.85 1 12 4.71 16.59a11.14 11.14 0 0 0 7 4.28 8.34 8.34 0 0 0 7.11-3.06c3.41-3.77 6.14-11 1.25-14.7a1.15 1.15 0 0 0-1.41.19c-6.49 7.4-12.43 17.61-8.62 27.68a16.24 16.24 0 0 0 8.29 9.32c3.88 1.7 9.1 1.47 12.07-1.9s2-9.39-2.58-10.7a1.18 1.18 0 0 0-1.33.54 21.42 21.42 0 0 0-.28 19.73 21.05 21.05 0 0 0 14.45 10.86c1.38.27 2-1.81.59-2.12a19.5 19.5 0 0 1-12.82-9.61 18.9 18.9 0 0 1 .1-17.66l-1.33.54c3.34 1 3.1 5.58.8 7.46-2.86 2.33-7.12 1.81-10.08 0a14.7 14.7 0 0 1-6-8.39 18.71 18.71 0 0 1 .59-11.57c1.63-4.68 4.61-8.81 7.83-12.53l-1.4.18c3.52 2.66.55 8.62-1.67 11.1-1.65 1.86-3.85 3-6.35 2.23a11.11 11.11 0 0 1-5.75-5c-5.88-9.31-2.54-20.86 2-29.94 2.25-4.5 4.89-10.63 10.29-11.91.95-.23.55-1.65-.4-1.45zM453.8 147.37a106.37 106.37 0 0 0 5.3 11.91c.49.94 1.93.1 1.43-.84-2-3.72-3.73-7.56-5.36-11.45-.34-.82-1.69-.5-1.37.38zM489.44 142.19c.13 2.86.25 5.71.41 8.56 0 1 1.63 1 1.56 0-.17-2.85-.39-5.71-.6-8.56-.06-.87-1.41-.89-1.37 0zM520.77 140.84a34 34 0 0 0-2.76 8.68.82.82 0 0 0 .55 1 .81.81 0 0 0 1-.55 39 39 0 0 1 2.44-8.41.72.72 0 0 0-.25-.95.7.7 0 0 0-1 .25zM549.49 147.15a33.41 33.41 0 0 0-6.29 9.92.87.87 0 0 0 .6 1.07.89.89 0 0 0 1.07-.6 31.22 31.22 0 0 1 5.75-9.25c.69-.77-.43-1.91-1.13-1.14zM569.71 164.85l-5.6 5.48a.8.8 0 1 0 1.13 1.14l5.49-5.6a.72.72 0 0 0-1-1zM594.63 189.53c3.33-1.61 6.09 1.75 6.83 4.64a13.93 13.93 0 0 1-.58 8.2c-2 5.38-6.65 9.54-11.79 11.84l1.06 1.81a4.7 4.7 0 0 1 5.36.19c2.26 1.58 2 4.16 1.16 6.5a23.6 23.6 0 0 1-4.1 7 18.78 18.78 0 0 1-6.11 5.14 3.57 3.57 0 0 1-3.44.06c-1.43-.92-.93-2.43.29-3.29a5.37 5.37 0 0 1 5.55 0c4.84 2.56 4.31 8.57 1.72 12.6-3.6 5.61-10.34 7.55-15.68 11-1.11.72-.4 2.84 1 2.27a64.76 64.76 0 0 0 10.27-5.54 20.77 20.77 0 0 0 7.43-7.75 12.39 12.39 0 0 0 .88-9.87 9.43 9.43 0 0 0-6-5.51 7.13 7.13 0 0 0-7.76 2.12c-2.14 2.8-.17 6.31 3.12 6.8s6.64-2.32 8.88-4.56a26.83 26.83 0 0 0 5.81-8.65c1.37-3.28 1.93-7.13-1.12-9.64a6.93 6.93 0 0 0-8.22-.61 1 1 0 0 0 1.06 1.81c6.15-2.87 11.69-8.38 13.16-15.19a13.74 13.74 0 0 0-1.24-9.81c-1.7-2.83-5.15-4.44-8.25-2.88-.93.47-.12 1.84.81 1.39zM449.45 275.4l1.11 6.63.56 3.31a26.82 26.82 0 0 0 .54 3.08 2.29 2.29 0 0 0 1.25 1.6 2.54 2.54 0 0 0 2.33-.47c1.92-1.18 3.83-2.39 5.75-3.59l-1.47-.59a24.14 24.14 0 0 0 5 8.35c.93 1 2.36-.47 1.48-1.48a24 24 0 0 1-4.53-7.4 1 1 0 0 0-1.47-.6l-4.68 3c-.39.25-.77.52-1.17.76-.23.13-.38.33-.6.14s-.21-.83-.25-1c-.09-.46-.17-.92-.26-1.39l-2-10.76c-.2-1.06-1.79-.61-1.61.44zM548.7 274.05a46 46 0 0 0-5.92 5.67c-1.92 2-3.72 4.18-5.43 6.39a1 1 0 0 0-.15 1.15 2.47 2.47 0 0 0 3 1.05 6.72 6.72 0 0 0 1.53-.79c.27-.16.74-.53 1.08-.39s0 .25-.21.49c-2.31 2.33-4.66 4.55-7.17 6.66-.89.75.3 2.34 1.25 1.63a42.6 42.6 0 0 0 4.35-3.69c.7-.68 1.38-1.36 2-2.07a9 9 0 0 0 1.81-2.18 2.08 2.08 0 0 0-1.92-2.84 3.47 3.47 0 0 0-2.09.6c-.39.24-1.62 1.26-2 .57v1c1.63-2.17 3.36-4.27 5.16-6.3s3.81-3.78 5.55-5.79c.49-.57-.16-1.62-.86-1.12zM500.55 290.38c1.29-.81 2.48-1.84 3.68-2.76l-1.18-.91a88.58 88.58 0 0 1-3.72 11.09 1 1 0 0 0 .93 1.22l6.92-.42-1-1.3a54.39 54.39 0 0 1-2.59 5.18 1 1 0 0 0 1.79 1 29.07 29.07 0 0 0 2.79-5.68 1 1 0 0 0-1-1.3l-6.92.56.92 1.21a83.75 83.75 0 0 0 3.43-11.17.82.82 0 0 0-1.35-.79c-1.18.95-2.47 1.86-3.56 2.91a.71.71 0 0 0 .85 1.12zM137.24 634c22.36-5.65 45.12 3 65.55 11.54 19.36 8.11 39 16.58 55.86 29.23 8.9 6.67 18.51 14.76 21.4 26a1.08 1.08 0 0 0 2.08-.57c-2.19-10.05-10.41-17.7-18.07-23.93A159.58 159.58 0 0 0 237 658.83c-9.67-5-19.69-9.36-29.74-13.57-10.7-4.48-21.49-8.9-32.76-11.73-12.31-3.09-25.23-4.18-37.63-.92a.74.74 0 0 0 .4 1.43zM102.28 673.07a260.82 260.82 0 0 1 73.43 12.69 268 268 0 0 1 66.65 32.36q8.79 5.88 17.07 12.48c5.48 4.38 10.67 9.06 15.91 13.73 1 .88 2.42-.52 1.46-1.47A220.08 220.08 0 0 0 247.54 719a263.24 263.24 0 0 0-32.19-19.18 266.63 266.63 0 0 0-71.09-24 259.48 259.48 0 0 0-42-4.31.74.74 0 0 0 0 1.48zM722.73 688.69c11.86-14.86 28.26-25.11 45.6-32.46 18.25-7.74 37.64-12.74 56.83-17.51 13.12-3.25 26.64-5.87 40.19-4.21 1.39.17 1.38-2 0-2.18-12.1-1.47-24.26.44-36 3.22-10.29 2.42-20.53 5.2-30.69 8.16-18.56 5.39-37.17 11.95-53.44 22.61a96.07 96.07 0 0 0-23.44 21.39c-.54.7.42 1.69 1 1zM730.2 742.3a295 295 0 0 1 58.5-32.79 302 302 0 0 1 64-18.8 359.24 359.24 0 0 1 37.59-4.21c1.29-.1 1.32-2.06 0-2a245.84 245.84 0 0 0-33.69 3.48 291.67 291.67 0 0 0-32.79 7.3 300.37 300.37 0 0 0-62.31 25.49 295.35 295.35 0 0 0-32 20.31c-.75.55 0 1.81.74 1.26z"></path></g></svg>