<svg width="72" height="60" viewBox="0 0 72 60" fill="none" xmlns="http://www.w3.org/2000/svg">
<path d="M36 28.3333C31.3977 28.3333 27.6667 24.6023 27.6667 20C27.6667 15.3976 31.3977 11.6666 36 11.6666C40.6024 11.6666 44.3333 15.3976 44.3333 20C44.3333 21.333 44.0203 22.593 43.4638 23.7104C43.3159 24.0073 43.2667 24.3467 43.3524 24.6671L43.8487 26.5222C44.0642 27.3275 43.3275 28.0641 42.5222 27.8487L40.6672 27.3524C40.3467 27.2666 40.0073 27.3159 39.7104 27.4637C38.593 28.0203 37.3331 28.3333 36 28.3333Z" stroke="#999999" stroke-width="1.25"/>
<path opacity="0.5" d="M39.3333 18.75H32.6667" stroke="#999999" stroke-width="1.25" stroke-linecap="round"/>
<path opacity="0.5" d="M39.3333 21.6666H34.75" stroke="#999999" stroke-width="1.25" stroke-linecap="round"/>
<path d="M26.0584 42.11C25.5084 42.11 24.9987 42.011 24.5294 41.813C24.0601 41.6077 23.6494 41.3253 23.2974 40.966C22.9527 40.6067 22.6851 40.1887 22.4944 39.712C22.3037 39.2353 22.2084 38.7257 22.2084 38.183C22.2084 37.633 22.3037 37.1197 22.4944 36.643C22.6851 36.1663 22.9527 35.752 23.2974 35.4C23.6494 35.0407 24.0564 34.762 24.5184 34.564C24.9877 34.3587 25.4974 34.256 26.0474 34.256C26.6487 34.256 27.1767 34.3587 27.6314 34.564C28.0861 34.7693 28.4894 35.048 28.8414 35.4L28.1264 36.115C27.8844 35.8437 27.5874 35.631 27.2354 35.477C26.8907 35.323 26.4947 35.246 26.0474 35.246C25.6441 35.246 25.2737 35.3193 24.9364 35.466C24.5991 35.6053 24.3057 35.807 24.0564 36.071C23.8071 36.335 23.6127 36.6467 23.4734 37.006C23.3414 37.3653 23.2754 37.7577 23.2754 38.183C23.2754 38.6083 23.3414 39.0007 23.4734 39.36C23.6127 39.7193 23.8071 40.031 24.0564 40.295C24.3057 40.559 24.5991 40.7643 24.9364 40.911C25.2737 41.0503 25.6441 41.12 26.0474 41.12C26.5241 41.12 26.9384 41.043 27.2904 40.889C27.6424 40.7277 27.9394 40.5113 28.1814 40.24L28.8964 40.944C28.5444 41.3107 28.1301 41.5967 27.6534 41.802C27.1841 42.0073 26.6524 42.11 26.0584 42.11ZM33.6866 42V38.953C33.6866 38.557 33.562 38.2307 33.3126 37.974C33.0633 37.7173 32.7406 37.589 32.3446 37.589C32.0806 37.589 31.846 37.6477 31.6406 37.765C31.4353 37.8823 31.274 38.0437 31.1566 38.249C31.0393 38.4543 30.9806 38.689 30.9806 38.953L30.5736 38.722C30.5736 38.326 30.6616 37.974 30.8376 37.666C31.0136 37.358 31.2593 37.116 31.5746 36.94C31.89 36.7567 32.2456 36.665 32.6416 36.665C33.0376 36.665 33.386 36.753 33.6866 36.929C33.9946 37.105 34.2366 37.3507 34.4126 37.666C34.5886 37.9813 34.6766 38.3443 34.6766 38.755V42H33.6866ZM29.9906 42V34.146H30.9806V42H29.9906ZM38.239 42.11C37.7623 42.11 37.3297 41.9927 36.941 41.758C36.5523 41.516 36.2443 41.1897 36.017 40.779C35.797 40.3683 35.687 39.9063 35.687 39.393C35.687 38.8797 35.797 38.4177 36.017 38.007C36.2443 37.5963 36.5487 37.27 36.93 37.028C37.3187 36.786 37.755 36.665 38.239 36.665C38.635 36.665 38.987 36.7493 39.295 36.918C39.6103 37.0793 39.8633 37.3067 40.054 37.6C40.2447 37.886 40.351 38.2197 40.373 38.601V40.174C40.351 40.548 40.2447 40.8817 40.054 41.175C39.8707 41.4683 39.6213 41.6993 39.306 41.868C38.998 42.0293 38.6423 42.11 38.239 42.11ZM38.404 41.175C38.8953 41.175 39.2913 41.01 39.592 40.68C39.8927 40.3427 40.043 39.9137 40.043 39.393C40.043 39.0337 39.9733 38.722 39.834 38.458C39.702 38.1867 39.5113 37.9777 39.262 37.831C39.0127 37.677 38.723 37.6 38.393 37.6C38.063 37.6 37.7697 37.677 37.513 37.831C37.2637 37.985 37.0657 38.1977 36.919 38.469C36.7797 38.733 36.71 39.0373 36.71 39.382C36.71 39.734 36.7797 40.0457 36.919 40.317C37.0657 40.581 37.2673 40.79 37.524 40.944C37.7807 41.098 38.074 41.175 38.404 41.175ZM39.977 42V40.592L40.164 39.316L39.977 38.051V36.775H40.978V42H39.977ZM43.2009 42V34.586H44.1909V42H43.2009ZM41.9139 37.677V36.775H45.4779V37.677H41.9139ZM48.0013 42.11C47.7079 42.11 47.4293 42.0733 47.1653 42C46.9086 41.9193 46.6703 41.8093 46.4503 41.67C46.2303 41.5233 46.0396 41.351 45.8783 41.153L46.5163 40.515C46.7069 40.7497 46.9269 40.9257 47.1763 41.043C47.4256 41.153 47.7043 41.208 48.0123 41.208C48.3203 41.208 48.5586 41.1567 48.7273 41.054C48.8959 40.944 48.9803 40.7937 48.9803 40.603C48.9803 40.4123 48.9106 40.2657 48.7713 40.163C48.6393 40.053 48.4669 39.965 48.2543 39.899C48.0416 39.8257 47.8143 39.756 47.5723 39.69C47.3376 39.6167 47.1139 39.525 46.9013 39.415C46.6886 39.305 46.5126 39.1547 46.3733 38.964C46.2413 38.7733 46.1753 38.5203 46.1753 38.205C46.1753 37.8897 46.2523 37.6183 46.4063 37.391C46.5603 37.1563 46.7729 36.9767 47.0443 36.852C47.3229 36.7273 47.6566 36.665 48.0453 36.665C48.4559 36.665 48.8189 36.7383 49.1343 36.885C49.4569 37.0243 49.7209 37.237 49.9263 37.523L49.2883 38.161C49.1416 37.9703 48.9583 37.8237 48.7383 37.721C48.5256 37.6183 48.2836 37.567 48.0123 37.567C47.7263 37.567 47.5063 37.6183 47.3523 37.721C47.2056 37.8163 47.1323 37.952 47.1323 38.128C47.1323 38.304 47.1983 38.4397 47.3303 38.535C47.4623 38.6303 47.6346 38.711 47.8473 38.777C48.0673 38.843 48.2946 38.9127 48.5293 38.986C48.7639 39.052 48.9876 39.1437 49.2003 39.261C49.4129 39.3783 49.5853 39.536 49.7173 39.734C49.8566 39.932 49.9263 40.1923 49.9263 40.515C49.9263 41.0063 49.7503 41.395 49.3983 41.681C49.0536 41.967 48.5879 42.11 48.0013 42.11Z" fill="#999999"/>
</svg>
