<svg width="72" height="60" viewBox="0 0 72 60" fill="none" xmlns="http://www.w3.org/2000/svg">
<path d="M33.762 13.1211L29.7139 16.2754C29.038 16.8011 28.4897 17.9202 28.4897 18.7688V24.3339C28.4897 26.0763 29.9092 27.5033 31.6516 27.5033H40.3485C42.0909 27.5033 43.5103 26.0763 43.5103 24.3415V18.8739C43.5103 17.9652 42.902 16.8011 42.1585 16.2829L37.5171 13.031C36.4657 12.2949 34.7759 12.3325 33.762 13.1211Z" stroke="#DE2D33" stroke-width="1.12655" stroke-linecap="round" stroke-linejoin="round"/>
<path d="M36 24.9915V22.4915" stroke="#DE2D33" stroke-opacity="0.6" stroke-width="1.25" stroke-linecap="round" stroke-linejoin="round"/>
<path d="M22.2497 42V34.366H23.2837V42H22.2497ZM27.1777 42V34.366H28.2117V42H27.1777ZM22.9537 38.524V37.578H27.4307V38.524H22.9537ZM32.2273 42.11C31.7139 42.11 31.2519 41.989 30.8413 41.747C30.4306 41.505 30.1043 41.1787 29.8623 40.768C29.6203 40.35 29.4993 39.8843 29.4993 39.371C29.4993 38.865 29.6203 38.4103 29.8623 38.007C30.1043 37.5963 30.4306 37.27 30.8413 37.028C31.2519 36.786 31.7139 36.665 32.2273 36.665C32.7333 36.665 33.1916 36.786 33.6023 37.028C34.0203 37.2627 34.3503 37.5853 34.5923 37.996C34.8343 38.4067 34.9553 38.865 34.9553 39.371C34.9553 39.8843 34.8343 40.35 34.5923 40.768C34.3503 41.1787 34.0203 41.505 33.6023 41.747C33.1916 41.989 32.7333 42.11 32.2273 42.11ZM32.2273 41.153C32.5573 41.153 32.8506 41.076 33.1073 40.922C33.3639 40.768 33.5656 40.559 33.7123 40.295C33.8589 40.0237 33.9323 39.7157 33.9323 39.371C33.9323 39.0337 33.8553 38.733 33.7013 38.469C33.5546 38.205 33.3529 37.9997 33.0963 37.853C32.8469 37.699 32.5573 37.622 32.2273 37.622C31.8973 37.622 31.6039 37.699 31.3473 37.853C31.0906 37.9997 30.8889 38.205 30.7423 38.469C30.5956 38.733 30.5223 39.0337 30.5223 39.371C30.5223 39.7157 30.5956 40.0237 30.7423 40.295C30.8889 40.559 31.0906 40.768 31.3473 40.922C31.6039 41.076 31.8973 41.153 32.2273 41.153ZM36.0707 42V36.775H37.0607V42H36.0707ZM39.6017 42V38.843C39.6017 38.4543 39.4807 38.15 39.2387 37.93C39.0041 37.7027 38.7071 37.589 38.3477 37.589C38.1057 37.589 37.8894 37.6403 37.6987 37.743C37.5081 37.8457 37.3541 37.9887 37.2367 38.172C37.1194 38.3553 37.0607 38.5753 37.0607 38.832L36.6537 38.634C36.6537 38.238 36.7381 37.8933 36.9067 37.6C37.0827 37.3067 37.3211 37.0793 37.6217 36.918C37.9224 36.7493 38.2597 36.665 38.6337 36.665C39.0004 36.665 39.3304 36.7457 39.6237 36.907C39.9244 37.0683 40.1591 37.2957 40.3277 37.589C40.5037 37.8823 40.5917 38.2307 40.5917 38.634V42H39.6017ZM43.1327 42V38.843C43.1327 38.4543 43.0117 38.15 42.7697 37.93C42.5351 37.7027 42.2417 37.589 41.8897 37.589C41.6477 37.589 41.4277 37.6403 41.2297 37.743C41.0391 37.8457 40.8851 37.9887 40.7677 38.172C40.6504 38.3553 40.5917 38.5753 40.5917 38.832L40.0307 38.634C40.0527 38.2307 40.1591 37.886 40.3497 37.6C40.5477 37.3067 40.8007 37.0793 41.1087 36.918C41.4167 36.7493 41.7541 36.665 42.1207 36.665C42.5021 36.665 42.8431 36.7457 43.1437 36.907C43.4444 37.0683 43.6827 37.2957 43.8587 37.589C44.0421 37.8823 44.1337 38.2343 44.1337 38.645V42H43.1327ZM47.9009 42.11C47.3802 42.11 46.9109 41.9927 46.4929 41.758C46.0749 41.516 45.7449 41.1897 45.5029 40.779C45.2609 40.3683 45.1399 39.9027 45.1399 39.382C45.1399 38.8687 45.2572 38.4067 45.4919 37.996C45.7339 37.5853 46.0565 37.2627 46.4599 37.028C46.8705 36.786 47.3289 36.665 47.8349 36.665C48.3189 36.665 48.7442 36.775 49.1109 36.995C49.4849 37.215 49.7745 37.5193 49.9799 37.908C50.1925 38.2967 50.2989 38.7367 50.2989 39.228C50.2989 39.3013 50.2952 39.382 50.2879 39.47C50.2805 39.5507 50.2659 39.646 50.2439 39.756H45.8329V38.931H49.7159L49.3529 39.25C49.3529 38.898 49.2905 38.601 49.1659 38.359C49.0412 38.1097 48.8652 37.919 48.6379 37.787C48.4105 37.6477 48.1355 37.578 47.8129 37.578C47.4755 37.578 47.1785 37.6513 46.9219 37.798C46.6652 37.9447 46.4672 38.15 46.3279 38.414C46.1885 38.678 46.1189 38.9897 46.1189 39.349C46.1189 39.7157 46.1922 40.0383 46.3389 40.317C46.4855 40.5883 46.6945 40.801 46.9659 40.955C47.2372 41.1017 47.5489 41.175 47.9009 41.175C48.1942 41.175 48.4619 41.1237 48.7039 41.021C48.9532 40.9183 49.1659 40.7643 49.3419 40.559L49.9799 41.208C49.7305 41.5013 49.4225 41.725 49.0559 41.879C48.6965 42.033 48.3115 42.11 47.9009 42.11Z" fill="#DE2D33"/>
</svg>
