<svg width="72" height="60" viewBox="0 0 72 60" fill="none" xmlns="http://www.w3.org/2000/svg">
<g clip-path="url(#clip0_114_3629)">
<path d="M38.8945 16.3606C36.9495 13.4991 34.3517 11.9782 32.9912 12.91C32.8414 13.0155 32.7112 13.1465 32.6066 13.2969C32.6066 13.3079 29.4572 19.6815 29.4572 19.6815L27.6989 20.8727C27.429 21.0559 27.1978 21.2905 27.0186 21.5631C26.8394 21.8357 26.7156 22.1409 26.6544 22.4614C26.5932 22.7818 26.5957 23.1112 26.6618 23.4306C26.7278 23.7501 26.8562 24.0534 27.0396 24.3232L27.1187 24.4397C27.4893 24.9796 28.0578 25.3515 28.7008 25.475C29.3439 25.5984 30.0097 25.4633 30.5539 25.0991L33.378 29.2595C33.7934 29.7716 34.5912 30.2815 35.5758 29.6815C35.7503 29.5684 35.8991 29.42 36.0126 29.2458C36.1262 29.0717 36.202 28.8757 36.2352 28.6705C36.275 28.4664 36.2739 28.2564 36.232 28.0527C36.1901 27.849 36.1083 27.6556 35.9912 27.4837L33.5033 23.8133C33.5033 23.8133 39.3846 23.3452 39.4066 23.3364C39.5902 23.298 39.7643 23.2233 39.9187 23.1166C40.6176 22.6419 40.8681 21.6463 40.6264 20.3122C40.4088 19.0837 39.7912 17.6925 38.8945 16.3606ZM27.7583 24.0068L27.6791 23.8903C27.5526 23.704 27.4641 23.4947 27.4186 23.2742C27.3731 23.0537 27.3716 22.8264 27.414 22.6053C27.4565 22.3843 27.5421 22.1737 27.6661 21.9858C27.79 21.7978 27.9498 21.6362 28.1363 21.51L29.655 20.4771L31.6594 23.4287L30.1407 24.4617C29.9544 24.5884 29.745 24.6771 29.5244 24.7228C29.3039 24.7684 29.0764 24.7702 28.8552 24.728C28.6339 24.6857 28.4232 24.6003 28.2349 24.4765C28.0467 24.3528 27.8847 24.1931 27.7583 24.0068ZM35.3583 27.9166C35.4784 28.0954 35.5227 28.3145 35.4815 28.5258C35.4403 28.7372 35.3169 28.9236 35.1385 29.0441C34.9594 29.1643 34.74 29.2087 34.5282 29.1675C34.3165 29.1263 34.1297 29.0029 34.0088 28.8243L31.1934 24.6771L32.3253 23.9078L32.6242 23.8837L35.3583 27.9166ZM32.3868 23.1298L30.2022 19.9122L32.2857 15.6639C32.4879 16.8573 33.0791 18.2749 34.0242 19.6661C34.9692 21.0573 36.0681 22.1298 37.1011 22.7584L32.3868 23.1298ZM38.8703 22.6177C37.8198 22.5496 36.1099 21.365 34.6616 19.2309C33.2132 17.0969 32.7429 15.0771 33.0659 14.0727C33.1243 13.8842 33.2407 13.7189 33.3986 13.6005C33.5565 13.4821 33.7477 13.4166 33.9451 13.4133C34.9868 13.4133 36.7605 14.6046 38.2506 16.8002C39.0901 18.0353 39.7011 19.3276 39.8681 20.4573C40.1956 22.6177 38.8703 22.6177 38.8703 22.6177Z" fill="#999999"/>
<path d="M36.1472 16.4416C35.878 16.3888 35.601 16.3901 35.3323 16.4456C35.0636 16.5011 34.8087 16.6095 34.5824 16.7647C34.5407 16.7936 34.5051 16.8304 34.4776 16.873C34.4501 16.9156 34.4313 16.9632 34.4222 17.0131C34.4131 17.063 34.414 17.1142 34.4247 17.1638C34.4354 17.2134 34.4557 17.2604 34.4846 17.3021C34.5134 17.3438 34.5502 17.3794 34.5929 17.4069C34.6355 17.4344 34.6831 17.4532 34.733 17.4623C34.7829 17.4713 34.8341 17.4705 34.8837 17.4598C34.9333 17.4491 34.9802 17.4287 35.0219 17.3999C35.1652 17.3026 35.3263 17.2345 35.4959 17.1995C35.6655 17.1645 35.8404 17.1632 36.0105 17.1958C36.1806 17.2283 36.3426 17.294 36.4873 17.3892C36.632 17.4844 36.7566 17.6071 36.8538 17.7504C36.9511 17.8937 37.0192 18.0548 37.0542 18.2244C37.0892 18.394 37.0905 18.5689 37.0579 18.739C37.0254 18.9091 36.9596 19.0711 36.8645 19.2158C36.7693 19.3605 36.6466 19.485 36.5033 19.5823C36.4357 19.629 36.3848 19.696 36.3581 19.7737C36.3314 19.8513 36.3303 19.9355 36.3548 20.0138C36.3794 20.0922 36.4284 20.1606 36.4946 20.2091C36.5609 20.2576 36.6409 20.2837 36.723 20.2834C36.8014 20.2849 36.8782 20.2618 36.9428 20.2175C37.2847 19.9859 37.5501 19.6581 37.7055 19.2755C37.8608 18.893 37.8992 18.4729 37.8156 18.0686C37.7321 17.6642 37.5304 17.2938 37.2361 17.0041C36.9419 16.7145 36.5682 16.5187 36.1626 16.4416H36.1472Z" fill="#999999"/>
<path d="M39.3693 13.6857H39.4067C39.5018 13.6856 39.5935 13.6503 39.6642 13.5866C39.7348 13.5229 39.7793 13.4352 39.7891 13.3406L40.0858 10.4571C40.0925 10.4061 40.089 10.3543 40.0754 10.3047C40.0617 10.2551 40.0383 10.2087 40.0064 10.1683C39.9746 10.128 39.9349 10.0944 39.8899 10.0696C39.8448 10.0448 39.7952 10.0293 39.7441 10.024C39.6929 10.0187 39.6412 10.0237 39.592 10.0388C39.5428 10.0538 39.4972 10.0786 39.4577 10.1116C39.4183 10.1446 39.3858 10.1852 39.3623 10.2309C39.3389 10.2767 39.3248 10.3267 39.3209 10.378L39.0264 13.2637C39.016 13.3651 39.0462 13.4665 39.1105 13.5456C39.1748 13.6248 39.2679 13.6751 39.3693 13.6857Z" fill="#999999"/>
<path d="M44.3407 13.0921C44.2842 13.0069 44.1964 12.9476 44.0963 12.927C43.9963 12.9064 43.8921 12.9262 43.8066 12.9822L41.1275 14.7404C41.058 14.7863 41.0052 14.8536 40.9772 14.9322C40.9492 15.0107 40.9474 15.0962 40.9722 15.1758C40.997 15.2553 41.047 15.3247 41.1147 15.3735C41.1823 15.4222 41.264 15.4476 41.3473 15.4459C41.425 15.4477 41.5016 15.4263 41.5671 15.3844L44.2462 13.6261C44.3293 13.5676 44.3859 13.4786 44.4036 13.3786C44.4213 13.2785 44.3987 13.1755 44.3407 13.0921Z" fill="#999999"/>
<path d="M45.1604 17.787L42.044 17.2265C41.9434 17.2085 41.8398 17.2311 41.7559 17.2894C41.6721 17.3477 41.6148 17.437 41.5967 17.5375C41.5786 17.6381 41.6013 17.7417 41.6596 17.8256C41.7179 17.9094 41.8072 17.9667 41.9077 17.9848L45.022 18.5452H45.0901C45.1881 18.5481 45.2835 18.5134 45.3568 18.4483C45.4301 18.3832 45.4758 18.2925 45.4845 18.1949C45.4932 18.0972 45.4642 18 45.4036 17.9229C45.343 17.8459 45.2552 17.7949 45.1583 17.7804L45.1604 17.787Z" fill="#999999"/>
</g>
<path d="M19.5695 42V34.366H20.2955L23.5295 39.679H23.0345L26.2685 34.366H26.9945V42H25.9605V36.181L26.2025 36.247L23.6505 40.438H22.9245L20.3725 36.247L20.6035 36.181V42H19.5695ZM30.337 42.044L28.071 36.775H29.171L30.854 40.9H30.502L32.273 36.775H33.373L30.931 42.044H30.337ZM28.841 44.189L30.381 41.032L30.931 42.044L29.941 44.189H28.841ZM38.7815 42.11C38.3048 42.11 37.8722 41.9927 37.4835 41.758C37.0948 41.516 36.7868 41.1897 36.5595 40.779C36.3395 40.3683 36.2295 39.9063 36.2295 39.393C36.2295 38.8797 36.3395 38.4177 36.5595 38.007C36.7868 37.5963 37.0912 37.27 37.4725 37.028C37.8612 36.786 38.2975 36.665 38.7815 36.665C39.1775 36.665 39.5295 36.7493 39.8375 36.918C40.1528 37.0793 40.4058 37.3067 40.5965 37.6C40.7872 37.886 40.8935 38.2197 40.9155 38.601V40.174C40.8935 40.548 40.7872 40.8817 40.5965 41.175C40.4132 41.4683 40.1638 41.6993 39.8485 41.868C39.5405 42.0293 39.1848 42.11 38.7815 42.11ZM38.9465 41.175C39.4378 41.175 39.8338 41.01 40.1345 40.68C40.4352 40.3427 40.5855 39.9137 40.5855 39.393C40.5855 39.0337 40.5158 38.722 40.3765 38.458C40.2445 38.1867 40.0538 37.9777 39.8045 37.831C39.5552 37.677 39.2655 37.6 38.9355 37.6C38.6055 37.6 38.3122 37.677 38.0555 37.831C37.8062 37.985 37.6082 38.1977 37.4615 38.469C37.3222 38.733 37.2525 39.0373 37.2525 39.382C37.2525 39.734 37.3222 40.0457 37.4615 40.317C37.6082 40.581 37.8098 40.79 38.0665 40.944C38.3232 41.098 38.6165 41.175 38.9465 41.175ZM40.5195 42V40.592L40.7065 39.316L40.5195 38.051V36.775H41.5205V42H40.5195ZM45.1728 42.11C44.6888 42.11 44.2562 41.9927 43.8748 41.758C43.4935 41.516 43.1892 41.1897 42.9618 40.779C42.7418 40.3683 42.6318 39.9063 42.6318 39.393C42.6318 38.8797 42.7418 38.4177 42.9618 38.007C43.1892 37.5963 43.4935 37.27 43.8748 37.028C44.2562 36.786 44.6888 36.665 45.1728 36.665C45.5615 36.665 45.9135 36.7493 46.2288 36.918C46.5442 37.0793 46.7972 37.3067 46.9878 37.6C47.1858 37.886 47.2958 38.2197 47.3178 38.601V40.174C47.2958 40.548 47.1895 40.8817 46.9988 41.175C46.8082 41.4683 46.5552 41.6993 46.2398 41.868C45.9245 42.0293 45.5688 42.11 45.1728 42.11ZM45.3378 41.175C45.6678 41.175 45.9538 41.098 46.1958 40.944C46.4452 40.79 46.6395 40.581 46.7788 40.317C46.9182 40.0457 46.9878 39.7377 46.9878 39.393C46.9878 39.0337 46.9145 38.722 46.7678 38.458C46.6285 38.194 46.4342 37.985 46.1848 37.831C45.9428 37.677 45.6568 37.6 45.3268 37.6C44.9968 37.6 44.7072 37.677 44.4578 37.831C44.2085 37.985 44.0105 38.1977 43.8638 38.469C43.7245 38.733 43.6548 39.0373 43.6548 39.382C43.6548 39.734 43.7245 40.0457 43.8638 40.317C44.0105 40.581 44.2085 40.79 44.4578 40.944C44.7145 41.098 45.0078 41.175 45.3378 41.175ZM47.9228 42H46.9218V40.592L47.1088 39.316L46.9218 38.051V34.146H47.9228V42ZM51.0252 42.11C50.7319 42.11 50.4532 42.0733 50.1892 42C49.9325 41.9193 49.6942 41.8093 49.4742 41.67C49.2542 41.5233 49.0635 41.351 48.9022 41.153L49.5402 40.515C49.7309 40.7497 49.9509 40.9257 50.2002 41.043C50.4495 41.153 50.7282 41.208 51.0362 41.208C51.3442 41.208 51.5825 41.1567 51.7512 41.054C51.9199 40.944 52.0042 40.7937 52.0042 40.603C52.0042 40.4123 51.9345 40.2657 51.7952 40.163C51.6632 40.053 51.4909 39.965 51.2782 39.899C51.0655 39.8257 50.8382 39.756 50.5962 39.69C50.3615 39.6167 50.1379 39.525 49.9252 39.415C49.7125 39.305 49.5365 39.1547 49.3972 38.964C49.2652 38.7733 49.1992 38.5203 49.1992 38.205C49.1992 37.8897 49.2762 37.6183 49.4302 37.391C49.5842 37.1563 49.7969 36.9767 50.0682 36.852C50.3469 36.7273 50.6805 36.665 51.0692 36.665C51.4799 36.665 51.8429 36.7383 52.1582 36.885C52.4809 37.0243 52.7449 37.237 52.9502 37.523L52.3122 38.161C52.1655 37.9703 51.9822 37.8237 51.7622 37.721C51.5495 37.6183 51.3075 37.567 51.0362 37.567C50.7502 37.567 50.5302 37.6183 50.3762 37.721C50.2295 37.8163 50.1562 37.952 50.1562 38.128C50.1562 38.304 50.2222 38.4397 50.3542 38.535C50.4862 38.6303 50.6585 38.711 50.8712 38.777C51.0912 38.843 51.3185 38.9127 51.5532 38.986C51.7879 39.052 52.0115 39.1437 52.2242 39.261C52.4369 39.3783 52.6092 39.536 52.7412 39.734C52.8805 39.932 52.9502 40.1923 52.9502 40.515C52.9502 41.0063 52.7742 41.395 52.4222 41.681C52.0775 41.967 51.6119 42.11 51.0252 42.11Z" fill="#999999"/>
<defs>
<clipPath id="clip0_114_3629">
<rect width="20" height="20" fill="white" transform="translate(26 10)"/>
</clipPath>
</defs>
</svg>
