<svg width="72" height="60" viewBox="0 0 72 60" fill="none" xmlns="http://www.w3.org/2000/svg">
<path d="M36 20.6251C33.3583 20.6251 31.2083 18.4751 31.2083 15.8334C31.2083 13.1917 33.3583 11.0417 36 11.0417C38.6417 11.0417 40.7917 13.1917 40.7917 15.8334C40.7917 18.4751 38.6417 20.6251 36 20.6251ZM36 12.2917C34.05 12.2917 32.4583 13.8834 32.4583 15.8334C32.4583 17.7834 34.05 19.3751 36 19.3751C37.95 19.3751 39.5417 17.7834 39.5417 15.8334C39.5417 13.8834 37.95 12.2917 36 12.2917Z" fill="#999999"/>
<path d="M43.1584 28.9585C42.8167 28.9585 42.5334 28.6751 42.5334 28.3335C42.5334 25.4585 39.6002 23.1251 36.0002 23.1251C32.4001 23.1251 29.4668 25.4585 29.4668 28.3335C29.4668 28.6751 29.1835 28.9585 28.8418 28.9585C28.5001 28.9585 28.2168 28.6751 28.2168 28.3335C28.2168 24.7751 31.7085 21.8751 36.0002 21.8751C40.2918 21.8751 43.7834 24.7751 43.7834 28.3335C43.7834 28.6751 43.5001 28.9585 43.1584 28.9585Z" fill="#999999"/>
<path d="M21.7825 39.03V38.128H23.8615C24.1475 38.128 24.4005 38.0693 24.6205 37.952C24.8478 37.8347 25.0238 37.6697 25.1485 37.457C25.2805 37.2443 25.3465 36.9913 25.3465 36.698C25.3465 36.4047 25.2805 36.1517 25.1485 35.939C25.0238 35.7263 24.8478 35.5613 24.6205 35.444C24.4005 35.3267 24.1475 35.268 23.8615 35.268H21.7825V34.366H23.9275C24.3968 34.366 24.8148 34.4613 25.1815 34.652C25.5555 34.8427 25.8488 35.114 26.0615 35.466C26.2815 35.8107 26.3915 36.2213 26.3915 36.698C26.3915 37.1673 26.2815 37.578 26.0615 37.93C25.8488 38.2747 25.5555 38.546 25.1815 38.744C24.8148 38.9347 24.3968 39.03 23.9275 39.03H21.7825ZM21.0895 42V34.366H22.1235V42H21.0895ZM27.5844 42V36.775H28.5744V42H27.5844ZM28.5744 39.019L28.2004 38.854C28.2004 38.1867 28.3544 37.655 28.6624 37.259C28.9704 36.863 29.4141 36.665 29.9934 36.665C30.2574 36.665 30.4957 36.7127 30.7084 36.808C30.9211 36.896 31.1191 37.0463 31.3024 37.259L30.6534 37.93C30.5434 37.8127 30.4224 37.7283 30.2904 37.677C30.1584 37.6257 30.0044 37.6 29.8284 37.6C29.4617 37.6 29.1611 37.7173 28.9264 37.952C28.6917 38.1867 28.5744 38.5423 28.5744 39.019ZM34.2146 42.11C33.7012 42.11 33.2392 41.989 32.8286 41.747C32.4179 41.505 32.0916 41.1787 31.8496 40.768C31.6076 40.35 31.4866 39.8843 31.4866 39.371C31.4866 38.865 31.6076 38.4103 31.8496 38.007C32.0916 37.5963 32.4179 37.27 32.8286 37.028C33.2392 36.786 33.7012 36.665 34.2146 36.665C34.7206 36.665 35.1789 36.786 35.5896 37.028C36.0076 37.2627 36.3376 37.5853 36.5796 37.996C36.8216 38.4067 36.9426 38.865 36.9426 39.371C36.9426 39.8843 36.8216 40.35 36.5796 40.768C36.3376 41.1787 36.0076 41.505 35.5896 41.747C35.1789 41.989 34.7206 42.11 34.2146 42.11ZM34.2146 41.153C34.5446 41.153 34.8379 41.076 35.0946 40.922C35.3512 40.768 35.5529 40.559 35.6996 40.295C35.8462 40.0237 35.9196 39.7157 35.9196 39.371C35.9196 39.0337 35.8426 38.733 35.6886 38.469C35.5419 38.205 35.3402 37.9997 35.0836 37.853C34.8342 37.699 34.5446 37.622 34.2146 37.622C33.8846 37.622 33.5912 37.699 33.3346 37.853C33.0779 37.9997 32.8762 38.205 32.7296 38.469C32.5829 38.733 32.5096 39.0337 32.5096 39.371C32.5096 39.7157 32.5829 40.0237 32.7296 40.295C32.8762 40.559 33.0779 40.768 33.3346 40.922C33.5912 41.076 33.8846 41.153 34.2146 41.153ZM38.6449 42V35.829C38.6449 35.4843 38.7182 35.18 38.8649 34.916C39.0189 34.6447 39.2316 34.432 39.5029 34.278C39.7742 34.1167 40.0859 34.036 40.4379 34.036C40.7092 34.036 40.9476 34.0837 41.1529 34.179C41.3582 34.267 41.5489 34.3917 41.7249 34.553L41.0759 35.202C40.9806 35.1213 40.8816 35.0627 40.7789 35.026C40.6762 34.982 40.5626 34.96 40.4379 34.96C40.1812 34.96 39.9832 35.0407 39.8439 35.202C39.7046 35.356 39.6349 35.565 39.6349 35.829V42H38.6449ZM37.3579 37.677V36.775H42.3189V37.677H37.3579ZM41.7469 42V36.775H42.7479V42H41.7469ZM42.2419 36.225C42.0659 36.225 41.9192 36.1663 41.8019 36.049C41.6846 35.9243 41.6259 35.7703 41.6259 35.587C41.6259 35.411 41.6846 35.2643 41.8019 35.147C41.9192 35.0223 42.0659 34.96 42.2419 34.96C42.4326 34.96 42.5829 35.0223 42.6929 35.147C42.8102 35.2643 42.8689 35.411 42.8689 35.587C42.8689 35.7703 42.8102 35.9243 42.6929 36.049C42.5829 36.1663 42.4326 36.225 42.2419 36.225ZM44.2026 42V34.146H45.1926V42H44.2026ZM49.061 42.11C48.5404 42.11 48.071 41.9927 47.653 41.758C47.235 41.516 46.905 41.1897 46.663 40.779C46.421 40.3683 46.3 39.9027 46.3 39.382C46.3 38.8687 46.4174 38.4067 46.652 37.996C46.894 37.5853 47.2167 37.2627 47.62 37.028C48.0307 36.786 48.489 36.665 48.995 36.665C49.479 36.665 49.9044 36.775 50.271 36.995C50.645 37.215 50.9347 37.5193 51.14 37.908C51.3527 38.2967 51.459 38.7367 51.459 39.228C51.459 39.3013 51.4554 39.382 51.448 39.47C51.4407 39.5507 51.426 39.646 51.404 39.756H46.993V38.931H50.876L50.513 39.25C50.513 38.898 50.4507 38.601 50.326 38.359C50.2014 38.1097 50.0254 37.919 49.798 37.787C49.5707 37.6477 49.2957 37.578 48.973 37.578C48.6357 37.578 48.3387 37.6513 48.082 37.798C47.8254 37.9447 47.6274 38.15 47.488 38.414C47.3487 38.678 47.279 38.9897 47.279 39.349C47.279 39.7157 47.3524 40.0383 47.499 40.317C47.6457 40.5883 47.8547 40.801 48.126 40.955C48.3974 41.1017 48.709 41.175 49.061 41.175C49.3544 41.175 49.622 41.1237 49.864 41.021C50.1134 40.9183 50.326 40.7643 50.502 40.559L51.14 41.208C50.8907 41.5013 50.5827 41.725 50.216 41.879C49.8567 42.033 49.4717 42.11 49.061 42.11Z" fill="#999999"/>
</svg>
