<?xml version="1.0" encoding="UTF-8"?>
<svg id="a" data-name="Layer_1" xmlns="http://www.w3.org/2000/svg" viewBox="0 0 205 48.5">
    <path d="M11.8,24c0-10.4,7.7-19,17.8-20.7-1.2-.2-2.4-.3-3.6-.3C14.1,3,4.5,12.4,4.5,24s9.6,21,21.4,21,2.5-.1,3.6-.3c-10.1-1.7-17.8-10.3-17.8-20.7h0Z" style="fill: #184374;"/>
    <path d="M38.5,17.1h7c-2.4-4.3-7.1-7.2-12.4-7.2s-2.4.2-3.5.4c3.8,1,7,3.4,8.9,6.7ZM17.9,23.9h0c0,3.9,3.1,7,7,7h13.5c-1.9,3.2-5,5.6-8.8,6.5,1.1.3,2.3.4,3.5.4,7.9,0,14.2-6.2,14.2-13.9h-29.5Z" style="fill: #184374;"/>
    <path d="M75.8,19.6c-.4-.5-.9-.8-1.5-1.1-.6-.3-1.3-.4-2-.4s-1.5.1-2.1.4c-.7.3-1.2.7-1.7,1.2-.5.5-.9,1.1-1.1,1.9-.3.7-.4,1.5-.4,2.3s.1,1.6.4,2.3c.3.7.6,1.3,1.1,1.8.5.5,1,.9,1.7,1.2.6.3,1.3.4,2.1.4s1.6-.2,2.2-.5c.6-.3,1.2-.8,1.6-1.4l3.4,2.5c-.8,1.1-1.8,1.9-3,2.4-1.2.5-2.4.8-3.7.8s-2.8-.2-4-.7c-1.2-.4-2.3-1.1-3.2-1.9-.9-.8-1.6-1.8-2.1-3-.5-1.2-.7-2.5-.7-4s.2-2.8.7-4c.5-1.2,1.2-2.2,2.1-3,.9-.8,1.9-1.5,3.2-1.9,1.2-.4,2.6-.7,4-.7s1.1,0,1.6.1c.6,0,1.1.2,1.7.4.5.2,1.1.5,1.6.8.5.3,1,.8,1.4,1.3l-3.1,2.5h0Z" style="fill: #184374;"/>
    <path d="M91,14.9l8.1,18.2h-4.6l-1.6-3.8h-7.2l-1.5,3.8h-4.5l8-18.2h3.4ZM89.2,20.2l-2.3,5.6h4.5l-2.3-5.6h0Z" style="fill: #184374;"/>
    <path d="M110.1,19.4c-.3-.4-.8-.7-1.3-.9-.6-.2-1.1-.3-1.6-.3s-.6,0-.9.1c-.3,0-.6.2-.9.3-.3.1-.5.3-.7.6-.2.2-.3.5-.3.9,0,.5.2,1,.6,1.3.4.3.9.5,1.6.7.6.2,1.3.4,2.1.6.7.2,1.4.5,2.1.9.6.4,1.2.9,1.6,1.5.4.6.6,1.5.6,2.5s-.2,1.9-.6,2.6c-.4.8-.9,1.4-1.6,1.9-.7.5-1.4.9-2.3,1.1-.9.2-1.8.4-2.7.4s-2.3-.2-3.4-.5c-1-.4-2-.9-2.9-1.7l2.9-3.1c.4.5.9,1,1.6,1.3.6.3,1.3.4,2,.4s.7,0,1-.1c.3,0,.6-.2.9-.3.3-.2.5-.4.7-.6.2-.2.2-.5.2-.8,0-.5-.2-1-.6-1.3-.4-.3-1-.6-1.6-.8-.6-.2-1.3-.4-2.1-.7-.7-.2-1.4-.5-2.1-.9-.6-.4-1.2-.9-1.6-1.5-.4-.6-.6-1.4-.6-2.4s.2-1.8.6-2.6c.4-.7.9-1.3,1.6-1.8.7-.5,1.4-.9,2.3-1.1.9-.2,1.7-.4,2.6-.4s2.1.1,3,.4c1,.3,1.9.8,2.6,1.5l-2.8,3Z" style="fill: #184374;"/>
    <path d="M116,14.9h4.1v6.8h7.9v-6.8h4.1v18.2h-4.1v-7.9h-7.9v7.9h-4.1V14.9Z" style="fill: #184374;"/>
    <path d="M152.7,31.8c-1.2.6-2.5,1.1-3.8,1.3-1.3.3-2.6.4-4,.4s-2.8-.2-4-.7c-1.2-.4-2.3-1.1-3.2-1.9-.9-.8-1.6-1.8-2.1-3-.5-1.2-.7-2.5-.7-4s.2-2.8.7-4c.5-1.2,1.2-2.2,2.1-3,.9-.8,1.9-1.5,3.2-1.9,1.2-.4,2.6-.7,4-.7s2.9.2,4.1.5c1.2.4,2.3,1,3.3,1.8l-2.9,3.1c-.6-.6-1.2-1-1.9-1.3-.7-.3-1.6-.4-2.6-.4s-1.7.1-2.4.4c-.7.3-1.3.7-1.8,1.2-.5.5-.9,1.1-1.2,1.9-.3.7-.4,1.5-.4,2.3s.1,1.6.4,2.3c.3.7.7,1.3,1.2,1.8.5.5,1.1.9,1.8,1.2.7.3,1.5.4,2.4.4s1.7,0,2.3-.3c.6-.2,1.2-.4,1.5-.6v-3h-3.3v-3.7h7.3v9.5h0Z" style="fill: #184374;"/>
    <path d="M165.7,14.9l8.1,18.2h-4.6l-1.6-3.8h-7.2l-1.5,3.8h-4.5l8-18.2h3.4ZM163.9,20.2l-2.3,5.6h4.5l-2.3-5.6h0Z" style="fill: #184374;"/>
    <path d="M176.8,18.5h-5.3v-3.5h14.7v3.5h-5.3v14.6h-4.1v-14.6Z" style="fill: #184374;"/>
    <path d="M188.4,14.9h12.6v3.7h-8.5v3.4h8v3.7h-8v3.7h9v3.7h-13.1V14.9Z" style="fill: #184374;"/>
</svg>